<?xml version="1.0" encoding="UTF-8" standalone="no"?>
<!DOCTYPE svg PUBLIC "-//W3C//DTD SVG 1.1//EN"
 "http://www.w3.org/Graphics/SVG/1.1/DTD/svg11.dtd">
<!-- Generated by graphviz version 14.0.2 (20251019.1705)
 -->
<!-- Title: dependencies Pages: 1 -->
<svg width="463pt" height="352pt"
 viewBox="0.00 0.00 463.00 352.00" xmlns="http://www.w3.org/2000/svg" xmlns:xlink="http://www.w3.org/1999/xlink">
<g id="graph0" class="graph" transform="scale(1 1) rotate(0) translate(4 348)">
<title>dependencies</title>
<polygon fill="white" stroke="none" points="-4,4 -4,-348 458.65,-348 458.65,4 -4,4"/>
<!-- z_functionmiddleat0x10d554b80_1 -->
<g id="node1" class="node">
<title>z_functionmiddleat0x10d554b80_1</title>
<g id="a_node1"><a xlink:title="middle:1">
<polygon fill="peachpuff" stroke="black" points="428,-344 223,-344 223,-304 428,-304 428,-344"/>
<text xml:space="preserve" text-anchor="start" x="321.38" y="-327.7" font-family="Courier,monospace" font-weight="bold" font-size="14.00">z</text>
<text xml:space="preserve" text-anchor="start" x="231" y="-309.45" font-family="Courier,monospace" font-size="9.00">def middle(x, y, z): &#160;# type: ignore</text>
</a>
</g>
</g>
<!-- test_functionmiddleat0x10d554b80_5 -->
<g id="node4" class="node">
<title>test_functionmiddleat0x10d554b80_5</title>
<g id="a_node4"><a xlink:title="middle:5">
<polygon fill="peachpuff" stroke="black" points="219.38,-116 145.62,-116 145.62,-76 219.38,-76 219.38,-116"/>
<text xml:space="preserve" text-anchor="start" x="157.75" y="-99.7" font-family="Courier,monospace" font-weight="bold" font-style="italic" font-size="14.00">&lt;test&gt;</text>
<text xml:space="preserve" text-anchor="start" x="153.62" y="-81.45" font-family="Courier,monospace" font-size="9.00">elif x &lt; z:</text>
</a>
</g>
</g>
<!-- z_functionmiddleat0x10d554b80_1&#45;&gt;test_functionmiddleat0x10d554b80_5 -->
<g id="edge3" class="edge">
<title>z_functionmiddleat0x10d554b80_1&#45;&gt;test_functionmiddleat0x10d554b80_5</title>
<path fill="none" stroke="black" d="M413.37,-298.5C426.9,-290.89 439.13,-280.96 447.5,-268 457.15,-253.07 456.88,-243.1 447.5,-228 397.13,-146.91 280.06,-114.5 219.81,-102.84"/>
<polygon fill="black" stroke="black" points="411.98,-295.28 404.67,-302.95 415.17,-301.51 411.98,-295.28"/>
</g>
<!-- test_functionmiddleat0x10d554b80_2 -->
<g id="node7" class="node">
<title>test_functionmiddleat0x10d554b80_2</title>
<g id="a_node7"><a xlink:title="middle:2">
<polygon fill="peachpuff" stroke="black" points="215.25,-268 149.75,-268 149.75,-228 215.25,-228 215.25,-268"/>
<text xml:space="preserve" text-anchor="start" x="157.75" y="-251.7" font-family="Courier,monospace" font-weight="bold" font-style="italic" font-size="14.00">&lt;test&gt;</text>
<text xml:space="preserve" text-anchor="start" x="158.88" y="-233.45" font-family="Courier,monospace" font-size="9.00">if y &lt; z:</text>
</a>
</g>
</g>
<!-- z_functionmiddleat0x10d554b80_1&#45;&gt;test_functionmiddleat0x10d554b80_2 -->
<g id="edge6" class="edge">
<title>z_functionmiddleat0x10d554b80_1&#45;&gt;test_functionmiddleat0x10d554b80_2</title>
<path fill="none" stroke="black" d="M271.6,-298.42C252.1,-288.63 230.76,-277.51 213.81,-268.31"/>
<polygon fill="black" stroke="black" points="270.04,-301.55 280.55,-302.88 273.16,-295.29 270.04,-301.55"/>
</g>
<!-- z_functionmiddleat0x10d554b80_1&#45;&gt;test_functionmiddleat0x10d554b80_2 -->
<!-- middlereturnvalue_functionmiddleat0x10d554b80_6 -->
<g id="node2" class="node">
<title>middlereturnvalue_functionmiddleat0x10d554b80_6</title>
<g id="a_node2"><a xlink:title="middle:6">
<polygon fill="peachpuff" stroke="black" points="285.38,-40 79.62,-40 79.62,0 285.38,0 285.38,-40"/>
<text xml:space="preserve" text-anchor="start" x="87.62" y="-23.7" font-family="Courier,monospace" font-weight="bold" font-style="italic" font-size="14.00">&lt;middle() return value&gt;</text>
<text xml:space="preserve" text-anchor="start" x="161.5" y="-5.45" font-family="Courier,monospace" font-size="9.00">return y</text>
</a>
</g>
</g>
<!-- y_functionmiddleat0x10d554b80_1 -->
<g id="node3" class="node">
<title>y_functionmiddleat0x10d554b80_1</title>
<g id="a_node3"><a xlink:title="middle:1">
<polygon fill="peachpuff" stroke="black" points="205,-344 0,-344 0,-304 205,-304 205,-344"/>
<text xml:space="preserve" text-anchor="start" x="98.38" y="-327.7" font-family="Courier,monospace" font-weight="bold" font-size="14.00">y</text>
<text xml:space="preserve" text-anchor="start" x="8" y="-309.45" font-family="Courier,monospace" font-size="9.00">def middle(x, y, z): &#160;# type: ignore</text>
</a>
</g>
</g>
<!-- y_functionmiddleat0x10d554b80_1&#45;&gt;middlereturnvalue_functionmiddleat0x10d554b80_6 -->
<g id="edge1" class="edge">
<title>y_functionmiddleat0x10d554b80_1&#45;&gt;middlereturnvalue_functionmiddleat0x10d554b80_6</title>
<path fill="none" stroke="black" d="M101.4,-292.29C100.82,-244.07 104.35,-148.64 136.5,-76 142.39,-62.68 152.51,-50.05 161.76,-40.26"/>
<polygon fill="black" stroke="black" points="97.9,-292.31 101.6,-302.24 104.9,-292.18 97.9,-292.31"/>
</g>
<!-- test_functionmiddleat0x10d554b80_3 -->
<g id="node6" class="node">
<title>test_functionmiddleat0x10d554b80_3</title>
<g id="a_node6"><a xlink:title="middle:3">
<polygon fill="peachpuff" stroke="black" points="215.25,-192 149.75,-192 149.75,-152 215.25,-152 215.25,-192"/>
<text xml:space="preserve" text-anchor="start" x="157.75" y="-175.7" font-family="Courier,monospace" font-weight="bold" font-style="italic" font-size="14.00">&lt;test&gt;</text>
<text xml:space="preserve" text-anchor="start" x="158.88" y="-157.45" font-family="Courier,monospace" font-size="9.00">if x &lt; y:</text>
</a>
</g>
</g>
<!-- y_functionmiddleat0x10d554b80_1&#45;&gt;test_functionmiddleat0x10d554b80_3 -->
<g id="edge9" class="edge">
<title>y_functionmiddleat0x10d554b80_1&#45;&gt;test_functionmiddleat0x10d554b80_3</title>
<path fill="none" stroke="black" d="M112.16,-292.92C118.89,-273.74 128.75,-248.69 140.5,-228 147.62,-215.46 157.29,-202.59 165.56,-192.46"/>
<polygon fill="black" stroke="black" points="108.88,-291.71 108.97,-302.3 115.51,-293.97 108.88,-291.71"/>
</g>
<!-- y_functionmiddleat0x10d554b80_1&#45;&gt;test_functionmiddleat0x10d554b80_2 -->
<g id="edge7" class="edge">
<title>y_functionmiddleat0x10d554b80_1&#45;&gt;test_functionmiddleat0x10d554b80_2</title>
<path fill="none" stroke="black" d="M131.88,-295.82C141.75,-286.69 152.54,-276.71 161.62,-268.31"/>
<polygon fill="black" stroke="black" points="129.59,-293.17 124.63,-302.53 134.35,-298.31 129.59,-293.17"/>
</g>
<!-- test_functionmiddleat0x10d554b80_5&#45;&gt;middlereturnvalue_functionmiddleat0x10d554b80_6 -->
<g id="edge2" class="edge">
<title>test_functionmiddleat0x10d554b80_5&#45;&gt;middlereturnvalue_functionmiddleat0x10d554b80_6</title>
<path fill="none" stroke="grey" stroke-dasharray="5,2" d="M175.83,-64.19C175.61,-56.1 175.83,-47.61 176.49,-40.31"/>
<polygon fill="grey" stroke="grey" points="172.33,-64.26 176.39,-74.05 179.32,-63.86 172.33,-64.26"/>
</g>
<!-- test_functionmiddleat0x10d554b80_5&#45;&gt;middlereturnvalue_functionmiddleat0x10d554b80_6 -->
<!-- x_functionmiddleat0x10d554b80_1 -->
<g id="node5" class="node">
<title>x_functionmiddleat0x10d554b80_1</title>
<g id="a_node5"><a xlink:title="middle:1">
<polygon fill="peachpuff" stroke="black" points="438,-268 233,-268 233,-228 438,-228 438,-268"/>
<text xml:space="preserve" text-anchor="start" x="331.38" y="-251.7" font-family="Courier,monospace" font-weight="bold" font-size="14.00">x</text>
<text xml:space="preserve" text-anchor="start" x="241" y="-233.45" font-family="Courier,monospace" font-size="9.00">def middle(x, y, z): &#160;# type: ignore</text>
</a>
</g>
</g>
<!-- x_functionmiddleat0x10d554b80_1&#45;&gt;test_functionmiddleat0x10d554b80_5 -->
<g id="edge4" class="edge">
<title>x_functionmiddleat0x10d554b80_1&#45;&gt;test_functionmiddleat0x10d554b80_5</title>
<path fill="none" stroke="black" d="M307.7,-219.75C277.17,-189.82 228.93,-142.52 202.11,-116.23"/>
<polygon fill="black" stroke="black" points="305.14,-222.14 314.73,-226.64 310.04,-217.14 305.14,-222.14"/>
</g>
<!-- x_functionmiddleat0x10d554b80_1&#45;&gt;test_functionmiddleat0x10d554b80_3 -->
<g id="edge8" class="edge">
<title>x_functionmiddleat0x10d554b80_1&#45;&gt;test_functionmiddleat0x10d554b80_3</title>
<path fill="none" stroke="black" d="M285.11,-222.63C262.31,-211.6 235.99,-198.87 215.72,-189.07"/>
<polygon fill="black" stroke="black" points="283.41,-225.7 293.94,-226.9 286.46,-219.39 283.41,-225.7"/>
</g>
<!-- test_functionmiddleat0x10d554b80_3&#45;&gt;test_functionmiddleat0x10d554b80_5 -->
<g id="edge5" class="edge">
<title>test_functionmiddleat0x10d554b80_3&#45;&gt;test_functionmiddleat0x10d554b80_5</title>
<path fill="none" stroke="grey" stroke-dasharray="5,2" d="M175.83,-140.19C175.61,-132.1 175.83,-123.61 176.49,-116.31"/>
<polygon fill="grey" stroke="grey" points="172.33,-140.26 176.39,-150.05 179.32,-139.86 172.33,-140.26"/>
</g>
<!-- test_functionmiddleat0x10d554b80_3&#45;&gt;test_functionmiddleat0x10d554b80_5 -->
<!-- test_functionmiddleat0x10d554b80_2&#45;&gt;test_functionmiddleat0x10d554b80_3 -->
<g id="edge10" class="edge">
<title>test_functionmiddleat0x10d554b80_2&#45;&gt;test_functionmiddleat0x10d554b80_3</title>
<path fill="none" stroke="grey" stroke-dasharray="5,2" d="M175.83,-216.19C175.61,-208.1 175.83,-199.61 176.49,-192.31"/>
<polygon fill="grey" stroke="grey" points="172.33,-216.26 176.39,-226.05 179.32,-215.86 172.33,-216.26"/>
</g>
<!-- test_functionmiddleat0x10d554b80_2&#45;&gt;test_functionmiddleat0x10d554b80_3 -->
</g>
</svg>