<?xml version="1.0" encoding="UTF-8" standalone="no"?>
<!DOCTYPE svg PUBLIC "-//W3C//DTD SVG 1.1//EN"
 "http://www.w3.org/Graphics/SVG/1.1/DTD/svg11.dtd">
<!-- Generated by graphviz version 14.0.2 (20251019.1705)
 -->
<!-- Pages: 1 -->
<svg width="527pt" height="44pt"
 viewBox="0.00 0.00 527.00 44.00" xmlns="http://www.w3.org/2000/svg" xmlns:xlink="http://www.w3.org/1999/xlink">
<g id="graph0" class="graph" transform="scale(1 1) rotate(0) translate(4 40)">
<polygon fill="white" stroke="none" points="-4,4 -4,-40 523.25,-40 523.25,4 -4,4"/>
<!-- input -->
<g id="node1" class="node">
<title>input</title>
<polygon fill="white" stroke="none" points="61.75,-36 0,-36 0,0 61.75,0 61.75,-36"/>
<text xml:space="preserve" text-anchor="middle" x="30.88" y="-13.32" font-family="Raleway" font-size="14.00" fill="darkgreen">Input ✔</text>
</g>
<!-- s1 -->
<g id="node2" class="node">
<title>s1</title>
<polygon fill="peachpuff" stroke="darkgreen" points="208.25,-36 137.5,-36 137.5,0 208.25,0 208.25,-36"/>
<text xml:space="preserve" text-anchor="middle" x="172.88" y="-13.32" font-family="Raleway" font-size="14.00" fill="darkgreen">State 1 ✔</text>
</g>
<!-- input&#45;&gt;s1 -->
<g id="edge1" class="edge">
<title>input&#45;&gt;s1</title>
<path fill="none" stroke="black" d="M61.57,-18C80.19,-18 104.59,-18 125.7,-18"/>
<polygon fill="black" stroke="black" points="125.52,-21.5 135.52,-18 125.52,-14.5 125.52,-21.5"/>
<text xml:space="preserve" text-anchor="middle" x="99.62" y="-21.95" font-family="Raleway" font-size="14.00">Step 1</text>
</g>
<!-- s2 -->
<g id="node3" class="node">
<title>s2</title>
<polygon fill="peachpuff" stroke="#8b0000" points="369.75,-36 297.5,-36 297.5,0 369.75,0 369.75,-36"/>
<text xml:space="preserve" text-anchor="middle" x="333.62" y="-13.32" font-family="Raleway" font-size="14.00" fill="#8b0000">State 2 ✘</text>
</g>
<!-- s1&#45;&gt;s2 -->
<g id="edge2" class="edge">
<title>s1&#45;&gt;s2</title>
<path fill="none" stroke="black" d="M208.71,-18C231.33,-18 261.07,-18 285.75,-18"/>
<polygon fill="black" stroke="black" points="285.53,-21.5 295.53,-18 285.53,-14.5 285.53,-21.5"/>
<text xml:space="preserve" text-anchor="middle" x="252.88" y="-21.95" font-family="Raleway" font-size="14.00" fill="#8b0000">Step 2 ✘</text>
</g>
<!-- s3 -->
<g id="node4" class="node">
<title>s3</title>
<polygon fill="peachpuff" stroke="#8b0000" points="519.25,-36 447,-36 447,0 519.25,0 519.25,-36"/>
<text xml:space="preserve" text-anchor="middle" x="483.12" y="-13.32" font-family="Raleway" font-size="14.00" fill="#8b0000">State 3 ✘</text>
</g>
<!-- s2&#45;&gt;s3 -->
<g id="edge3" class="edge">
<title>s2&#45;&gt;s3</title>
<path fill="none" stroke="black" d="M369.95,-18C389.51,-18 414.08,-18 435.23,-18"/>
<polygon fill="black" stroke="black" points="435.06,-21.5 445.06,-18 435.06,-14.5 435.06,-21.5"/>
<text xml:space="preserve" text-anchor="middle" x="408.38" y="-21.95" font-family="Raleway" font-size="14.00">Step 3</text>
</g>
</g>
</svg>