<?xml version="1.0" encoding="UTF-8" standalone="no"?>
<!DOCTYPE svg PUBLIC "-//W3C//DTD SVG 1.1//EN"
 "http://www.w3.org/Graphics/SVG/1.1/DTD/svg11.dtd">
<!-- Generated by graphviz version 14.0.2 (20251019.1705)
 -->
<!-- Title: dependencies Pages: 1 -->
<svg width="234pt" height="352pt"
 viewBox="0.00 0.00 234.00 352.00" xmlns="http://www.w3.org/2000/svg" xmlns:xlink="http://www.w3.org/1999/xlink">
<g id="graph0" class="graph" transform="scale(1 1) rotate(0) translate(4 348)">
<title>dependencies</title>
<polygon fill="white" stroke="none" points="-4,4 -4,-348 229.5,-348 229.5,4 -4,4"/>
<!-- quote_functionremove_html_markupat0x10d6c2480_138 -->
<g id="node1" class="node">
<title>quote_functionremove_html_markupat0x10d6c2480_138</title>
<g id="a_node1"><a xlink:title="remove_html_markup:138">
<polygon fill="peachpuff" stroke="black" points="131.5,-268 0,-268 0,-228 131.5,-228 131.5,-268"/>
<text xml:space="preserve" text-anchor="start" x="45.12" y="-251.7" font-family="Courier,monospace" font-weight="bold" font-size="14.00">quote</text>
<text xml:space="preserve" text-anchor="start" x="8" y="-233.45" font-family="Courier,monospace" font-size="9.00">&lt;remove_html_markup()&gt;</text>
</a>
</g>
</g>
<!-- test_functionremove_html_markupat0x10d6c2480_144 -->
<g id="node3" class="node">
<title>test_functionremove_html_markupat0x10d6c2480_144</title>
<g id="a_node3"><a xlink:title="remove_html_markup:144">
<polygon fill="peachpuff" stroke="black" points="225.5,-116 94,-116 94,-76 225.5,-76 225.5,-116"/>
<text xml:space="preserve" text-anchor="start" x="135" y="-99.7" font-family="Courier,monospace" font-weight="bold" font-style="italic" font-size="14.00">&lt;test&gt;</text>
<text xml:space="preserve" text-anchor="start" x="102" y="-81.45" font-family="Courier,monospace" font-size="9.00">&lt;remove_html_markup()&gt;</text>
</a>
</g>
</g>
<!-- quote_functionremove_html_markupat0x10d6c2480_138&#45;&gt;test_functionremove_html_markupat0x10d6c2480_144 -->
<g id="edge3" class="edge">
<title>quote_functionremove_html_markupat0x10d6c2480_138&#45;&gt;test_functionremove_html_markupat0x10d6c2480_144</title>
<path fill="none" stroke="black" d="M65.61,-227.65C66.34,-207.31 70.01,-175.12 84.75,-152 92.01,-140.62 102.52,-130.81 113.39,-122.75"/>
<polygon fill="black" stroke="black" points="115.08,-125.84 121.3,-117.27 111.09,-120.09 115.08,-125.84"/>
</g>
<!-- c_functionremove_html_markupat0x10d6c2480_141 -->
<g id="node4" class="node">
<title>c_functionremove_html_markupat0x10d6c2480_141</title>
<g id="a_node4"><a xlink:title="remove_html_markup:141">
<polygon fill="peachpuff" stroke="black" points="225.5,-192 94,-192 94,-152 225.5,-152 225.5,-192"/>
<text xml:space="preserve" text-anchor="start" x="155.62" y="-175.7" font-family="Courier,monospace" font-weight="bold" font-size="14.00">c</text>
<text xml:space="preserve" text-anchor="start" x="102" y="-157.45" font-family="Courier,monospace" font-size="9.00">&lt;remove_html_markup()&gt;</text>
</a>
</g>
</g>
<!-- quote_functionremove_html_markupat0x10d6c2480_138&#45;&gt;c_functionremove_html_markupat0x10d6c2480_141 -->
<!-- tag_functionremove_html_markupat0x10d6c2480_145 -->
<g id="node2" class="node">
<title>tag_functionremove_html_markupat0x10d6c2480_145</title>
<g id="a_node2"><a xlink:title="remove_html_markup:145">
<polygon fill="peachpuff" stroke="black" points="225.5,-40 94,-40 94,0 225.5,0 225.5,-40"/>
<text xml:space="preserve" text-anchor="start" x="147.38" y="-23.7" font-family="Courier,monospace" font-weight="bold" font-size="14.00">tag</text>
<text xml:space="preserve" text-anchor="start" x="102" y="-5.45" font-family="Courier,monospace" font-size="9.00">&lt;remove_html_markup()&gt;</text>
</a>
</g>
</g>
<!-- test_functionremove_html_markupat0x10d6c2480_144&#45;&gt;tag_functionremove_html_markupat0x10d6c2480_145 -->
<g id="edge1" class="edge">
<title>test_functionremove_html_markupat0x10d6c2480_144&#45;&gt;tag_functionremove_html_markupat0x10d6c2480_145</title>
<path fill="none" stroke="grey" stroke-dasharray="5,2" d="M153.73,-75.56C153.07,-68.25 152.86,-59.75 153.09,-51.67"/>
<polygon fill="grey" stroke="grey" points="156.57,-52.01 153.65,-41.82 149.59,-51.61 156.57,-52.01"/>
</g>
<!-- test_functionremove_html_markupat0x10d6c2480_144&#45;&gt;tag_functionremove_html_markupat0x10d6c2480_145 -->
<!-- c_functionremove_html_markupat0x10d6c2480_141&#45;&gt;test_functionremove_html_markupat0x10d6c2480_144 -->
<g id="edge4" class="edge">
<title>c_functionremove_html_markupat0x10d6c2480_141&#45;&gt;test_functionremove_html_markupat0x10d6c2480_144</title>
<path fill="none" stroke="black" d="M153.73,-151.56C153.07,-144.25 152.86,-135.75 153.09,-127.67"/>
<polygon fill="black" stroke="black" points="156.57,-128.01 153.65,-117.82 149.59,-127.61 156.57,-128.01"/>
</g>
<!-- c_functionremove_html_markupat0x10d6c2480_141&#45;&gt;test_functionremove_html_markupat0x10d6c2480_144 -->
<!-- s_functionremove_html_markupat0x10d6c2480_136 -->
<g id="node5" class="node">
<title>s_functionremove_html_markupat0x10d6c2480_136</title>
<g id="a_node5"><a xlink:title="remove_html_markup:136">
<polygon fill="peachpuff" stroke="black" points="178.5,-344 47,-344 47,-304 178.5,-304 178.5,-344"/>
<text xml:space="preserve" text-anchor="start" x="108.62" y="-327.7" font-family="Courier,monospace" font-weight="bold" font-size="14.00">s</text>
<text xml:space="preserve" text-anchor="start" x="55" y="-309.45" font-family="Courier,monospace" font-size="9.00">&lt;remove_html_markup()&gt;</text>
</a>
</g>
</g>
<!-- s_functionremove_html_markupat0x10d6c2480_136&#45;&gt;quote_functionremove_html_markupat0x10d6c2480_138 -->
<!-- s_functionremove_html_markupat0x10d6c2480_136&#45;&gt;c_functionremove_html_markupat0x10d6c2480_141 -->
<g id="edge2" class="edge">
<title>s_functionremove_html_markupat0x10d6c2480_136&#45;&gt;c_functionremove_html_markupat0x10d6c2480_141</title>
<path fill="none" stroke="black" d="M124.21,-303.72C129.9,-293.42 136.46,-280.35 140.75,-268 148.02,-247.05 152.85,-222.47 155.81,-203.57"/>
<polygon fill="black" stroke="black" points="159.25,-204.23 157.24,-193.83 152.33,-203.22 159.25,-204.23"/>
</g>
</g>
</svg>