<?xml version="1.0" encoding="UTF-8" standalone="no"?>
<!DOCTYPE svg PUBLIC "-//W3C//DTD SVG 1.1//EN"
 "http://www.w3.org/Graphics/SVG/1.1/DTD/svg11.dtd">
<!-- Generated by graphviz version 14.0.2 (20251019.1705)
 -->
<!-- Pages: 1 -->
<svg width="393pt" height="44pt"
 viewBox="0.00 0.00 393.00 44.00" xmlns="http://www.w3.org/2000/svg" xmlns:xlink="http://www.w3.org/1999/xlink">
<g id="graph0" class="graph" transform="scale(1 1) rotate(0) translate(4 40)">
<polygon fill="white" stroke="none" points="-4,4 -4,-40 389,-40 389,4 -4,4"/>
<!-- input -->
<g id="node1" class="node">
<title>input</title>
<polygon fill="white" stroke="none" points="61.75,-36 0,-36 0,0 61.75,0 61.75,-36"/>
<text xml:space="preserve" text-anchor="middle" x="30.88" y="-13.32" font-family="Raleway" font-size="14.00" fill="darkgreen">Input ✔</text>
</g>
<!-- s1 -->
<g id="node2" class="node">
<title>s1</title>
<polygon fill="peachpuff" stroke="darkgreen" points="168.5,-36 97.75,-36 97.75,0 168.5,0 168.5,-36"/>
<text xml:space="preserve" text-anchor="middle" x="133.12" y="-13.32" font-family="Raleway" font-size="14.00" fill="darkgreen">State 1 ✔</text>
</g>
<!-- input&#45;&gt;s1 -->
<g id="edge1" class="edge">
<title>input&#45;&gt;s1</title>
<path fill="none" stroke="black" d="M61.68,-18C69.29,-18 77.66,-18 85.88,-18"/>
<polygon fill="black" stroke="black" points="85.8,-21.5 95.8,-18 85.8,-14.5 85.8,-21.5"/>
</g>
<!-- s2 -->
<g id="node3" class="node">
<title>s2</title>
<polygon fill="peachpuff" stroke="#8b0000" points="276.75,-36 204.5,-36 204.5,0 276.75,0 276.75,-36"/>
<text xml:space="preserve" text-anchor="middle" x="240.62" y="-13.32" font-family="Raleway" font-size="14.00" fill="#8b0000">State 2 ✘</text>
</g>
<!-- s1&#45;&gt;s2 -->
<g id="edge2" class="edge">
<title>s1&#45;&gt;s2</title>
<path fill="none" stroke="black" d="M168.96,-18C176.54,-18 184.68,-18 192.65,-18"/>
<polygon fill="black" stroke="black" points="192.59,-21.5 202.59,-18 192.59,-14.5 192.59,-21.5"/>
</g>
<!-- s3 -->
<g id="node4" class="node">
<title>s3</title>
<polygon fill="peachpuff" stroke="#8b0000" points="385,-36 312.75,-36 312.75,0 385,0 385,-36"/>
<text xml:space="preserve" text-anchor="middle" x="348.88" y="-13.32" font-family="Raleway" font-size="14.00" fill="#8b0000">State 3 ✘</text>
</g>
<!-- s2&#45;&gt;s3 -->
<g id="edge3" class="edge">
<title>s2&#45;&gt;s3</title>
<path fill="none" stroke="black" d="M277,-18C284.63,-18 292.81,-18 300.8,-18"/>
<polygon fill="black" stroke="black" points="300.77,-21.5 310.77,-18 300.77,-14.5 300.77,-21.5"/>
</g>
</g>
</svg>