<?xml version="1.0" encoding="UTF-8" standalone="no"?>
<!DOCTYPE svg PUBLIC "-//W3C//DTD SVG 1.1//EN"
 "http://www.w3.org/Graphics/SVG/1.1/DTD/svg11.dtd">
<!-- Generated by graphviz version 14.0.2 (20251019.1705)
 -->
<!-- Title: dependencies Pages: 1 -->
<svg width="614pt" height="884pt"
 viewBox="0.00 0.00 614.00 884.00" xmlns="http://www.w3.org/2000/svg" xmlns:xlink="http://www.w3.org/1999/xlink">
<g id="graph0" class="graph" transform="scale(1 1) rotate(0) translate(4 880)">
<title>dependencies</title>
<polygon fill="white" stroke="none" points="-4,4 -4,-880 610,-880 610,4 -4,4"/>
<!-- tag_functionremove_html_markupat0x10e69b100_239 -->
<g id="node1" class="node">
<title>tag_functionremove_html_markupat0x10e69b100_239</title>
<g id="a_node1"><a xlink:title="remove_html_markup:239">
<polygon fill="peachpuff" stroke="black" points="503.88,-876 430.12,-876 430.12,-836 503.88,-836 503.88,-876"/>
<text xml:space="preserve" text-anchor="start" x="454.62" y="-859.7" font-family="Courier,monospace" font-weight="bold" font-size="14.00">tag</text>
<text xml:space="preserve" text-anchor="start" x="438.12" y="-841.45" font-family="Courier,monospace" font-size="9.00">tag = False</text>
</a>
</g>
</g>
<!-- quote_functionremove_html_markupat0x10e69b100_240 -->
<g id="node8" class="node">
<title>quote_functionremove_html_markupat0x10e69b100_240</title>
<g id="a_node8"><a xlink:title="remove_html_markup:240">
<polygon fill="peachpuff" stroke="black" points="419.12,-800 334.88,-800 334.88,-760 419.12,-760 419.12,-800"/>
<text xml:space="preserve" text-anchor="start" x="356.38" y="-783.7" font-family="Courier,monospace" font-weight="bold" font-size="14.00">quote</text>
<text xml:space="preserve" text-anchor="start" x="342.88" y="-765.45" font-family="Courier,monospace" font-size="9.00">quote = False</text>
</a>
</g>
</g>
<!-- tag_functionremove_html_markupat0x10e69b100_239&#45;&gt;quote_functionremove_html_markupat0x10e69b100_240 -->
<!-- assertion_functionremove_html_markupat0x10e69b100_244 -->
<g id="node14" class="node">
<title>assertion_functionremove_html_markupat0x10e69b100_244</title>
<g id="a_node14"><a xlink:title="remove_html_markup:244">
<polygon fill="peachpuff" stroke="black" points="578.38,-420 441.62,-420 441.62,-380 578.38,-380 578.38,-420"/>
<text xml:space="preserve" text-anchor="start" x="464.62" y="-403.7" font-family="Courier,monospace" font-weight="bold" font-style="italic" font-size="14.00">&lt;assertion&gt;</text>
<text xml:space="preserve" text-anchor="start" x="449.62" y="-385.45" font-family="Courier,monospace" font-size="9.00">assert tag or not quote</text>
</a>
</g>
</g>
<!-- tag_functionremove_html_markupat0x10e69b100_239&#45;&gt;assertion_functionremove_html_markupat0x10e69b100_244 -->
<g id="edge14" class="edge">
<title>tag_functionremove_html_markupat0x10e69b100_239&#45;&gt;assertion_functionremove_html_markupat0x10e69b100_244</title>
<path fill="none" stroke="black" d="M490.71,-835.63C520,-809.36 566,-759.45 566,-705 566,-705 566,-705 566,-551 566,-506.69 544.28,-459.39 527.9,-430.02"/>
<polygon fill="black" stroke="black" points="530.93,-428.27 522.91,-421.35 524.87,-431.77 530.93,-428.27"/>
</g>
<!-- test_functionremove_html_markupat0x10e69b100_252 -->
<g id="node2" class="node">
<title>test_functionremove_html_markupat0x10e69b100_252</title>
<g id="a_node2"><a xlink:title="remove_html_markup:252">
<polygon fill="peachpuff" stroke="black" points="271.12,-192 186.88,-192 186.88,-152 271.12,-152 271.12,-192"/>
<text xml:space="preserve" text-anchor="start" x="204.25" y="-175.7" font-family="Courier,monospace" font-weight="bold" font-style="italic" font-size="14.00">&lt;test&gt;</text>
<text xml:space="preserve" text-anchor="start" x="194.88" y="-157.45" font-family="Courier,monospace" font-size="9.00">elif not tag:</text>
</a>
</g>
</g>
<!-- out_functionremove_html_markupat0x10e69b100_253 -->
<g id="node9" class="node">
<title>out_functionremove_html_markupat0x10e69b100_253</title>
<g id="a_node9"><a xlink:title="remove_html_markup:253">
<polygon fill="peachpuff" stroke="black" points="271.12,-116 186.88,-116 186.88,-76 271.12,-76 271.12,-116"/>
<text xml:space="preserve" text-anchor="start" x="216.62" y="-99.7" font-family="Courier,monospace" font-weight="bold" font-size="14.00">out</text>
<text xml:space="preserve" text-anchor="start" x="194.88" y="-81.45" font-family="Courier,monospace" font-size="9.00">out = out + c</text>
</a>
</g>
</g>
<!-- test_functionremove_html_markupat0x10e69b100_252&#45;&gt;out_functionremove_html_markupat0x10e69b100_253 -->
<g id="edge8" class="edge">
<title>test_functionremove_html_markupat0x10e69b100_252&#45;&gt;out_functionremove_html_markupat0x10e69b100_253</title>
<path fill="none" stroke="grey" stroke-dasharray="5,2" d="M222.98,-151.56C222.32,-144.25 222.11,-135.75 222.34,-127.67"/>
<polygon fill="grey" stroke="grey" points="225.82,-128.01 222.9,-117.82 218.84,-127.61 225.82,-128.01"/>
</g>
<!-- test_functionremove_html_markupat0x10e69b100_252&#45;&gt;out_functionremove_html_markupat0x10e69b100_253 -->
<!-- tag_functionremove_html_markupat0x10e69b100_247 -->
<g id="node3" class="node">
<title>tag_functionremove_html_markupat0x10e69b100_247</title>
<g id="a_node3"><a xlink:title="remove_html_markup:247">
<polygon fill="peachpuff" stroke="black" points="438.25,-268 369.75,-268 369.75,-228 438.25,-228 438.25,-268"/>
<text xml:space="preserve" text-anchor="start" x="391.62" y="-251.7" font-family="Courier,monospace" font-weight="bold" font-size="14.00">tag</text>
<text xml:space="preserve" text-anchor="start" x="377.75" y="-233.45" font-family="Courier,monospace" font-size="9.00">tag = True</text>
</a>
</g>
</g>
<!-- tag_functionremove_html_markupat0x10e69b100_247&#45;&gt;test_functionremove_html_markupat0x10e69b100_252 -->
<g id="edge1" class="edge">
<title>tag_functionremove_html_markupat0x10e69b100_247&#45;&gt;test_functionremove_html_markupat0x10e69b100_252</title>
<path fill="none" stroke="black" d="M369.43,-232.38C344.52,-221.85 310.44,-207.44 282.1,-195.45"/>
<polygon fill="black" stroke="black" points="283.52,-192.25 272.94,-191.58 280.79,-198.7 283.52,-192.25"/>
</g>
<!-- test_functionremove_html_markupat0x10e69b100_248 -->
<g id="node7" class="node">
<title>test_functionremove_html_markupat0x10e69b100_248</title>
<g id="a_node7"><a xlink:title="remove_html_markup:248">
<polygon fill="peachpuff" stroke="black" points="347.5,-572 184.5,-572 184.5,-532 347.5,-532 347.5,-572"/>
<text xml:space="preserve" text-anchor="start" x="241.25" y="-555.7" font-family="Courier,monospace" font-weight="bold" font-style="italic" font-size="14.00">&lt;test&gt;</text>
<text xml:space="preserve" text-anchor="start" x="192.5" y="-537.45" font-family="Courier,monospace" font-size="9.00">elif c == &#39;&gt;&#39; and not quote:</text>
</a>
</g>
</g>
<!-- tag_functionremove_html_markupat0x10e69b100_247&#45;&gt;test_functionremove_html_markupat0x10e69b100_248 -->
<!-- tag_functionremove_html_markupat0x10e69b100_247&#45;&gt;assertion_functionremove_html_markupat0x10e69b100_244 -->
<g id="edge16" class="edge">
<title>tag_functionremove_html_markupat0x10e69b100_247&#45;&gt;assertion_functionremove_html_markupat0x10e69b100_244</title>
<path fill="none" stroke="black" d="M438.58,-263.51C456.24,-272.64 476.57,-286.1 489,-304 502.15,-322.93 507.25,-348.67 509.14,-368.58"/>
<polygon fill="black" stroke="black" points="505.63,-368.59 509.83,-378.32 512.61,-368.09 505.63,-368.59"/>
</g>
<!-- tag_functionremove_html_markupat0x10e69b100_249 -->
<g id="node4" class="node">
<title>tag_functionremove_html_markupat0x10e69b100_249</title>
<g id="a_node4"><a xlink:title="remove_html_markup:249">
<polygon fill="peachpuff" stroke="black" points="271.88,-496 198.12,-496 198.12,-456 271.88,-456 271.88,-496"/>
<text xml:space="preserve" text-anchor="start" x="222.62" y="-479.7" font-family="Courier,monospace" font-weight="bold" font-size="14.00">tag</text>
<text xml:space="preserve" text-anchor="start" x="206.12" y="-461.45" font-family="Courier,monospace" font-size="9.00">tag = False</text>
</a>
</g>
</g>
<!-- tag_functionremove_html_markupat0x10e69b100_249&#45;&gt;test_functionremove_html_markupat0x10e69b100_252 -->
<g id="edge2" class="edge">
<title>tag_functionremove_html_markupat0x10e69b100_249&#45;&gt;test_functionremove_html_markupat0x10e69b100_252</title>
<path fill="none" stroke="black" d="M238.5,-455.73C240.23,-445.21 242.14,-431.93 243,-420 248.63,-342.14 239.21,-250.33 233.27,-203.63"/>
<polygon fill="black" stroke="black" points="236.74,-203.19 231.97,-193.73 229.8,-204.1 236.74,-203.19"/>
</g>
<!-- test_functionremove_html_markupat0x10e69b100_250 -->
<g id="node5" class="node">
<title>test_functionremove_html_markupat0x10e69b100_250</title>
<g id="a_node5"><a xlink:title="remove_html_markup:250">
<polygon fill="peachpuff" stroke="black" points="233.5,-420 28.5,-420 28.5,-380 233.5,-380 233.5,-420"/>
<text xml:space="preserve" text-anchor="start" x="106.25" y="-403.7" font-family="Courier,monospace" font-weight="bold" font-style="italic" font-size="14.00">&lt;test&gt;</text>
<text xml:space="preserve" text-anchor="start" x="36.5" y="-385.45" font-family="Courier,monospace" font-size="9.00">elif (c == &#39;&quot;&#39; or c == &quot;&#39;&quot;) and tag:</text>
</a>
</g>
</g>
<!-- tag_functionremove_html_markupat0x10e69b100_249&#45;&gt;test_functionremove_html_markupat0x10e69b100_250 -->
<!-- tag_functionremove_html_markupat0x10e69b100_249&#45;&gt;assertion_functionremove_html_markupat0x10e69b100_244 -->
<g id="edge17" class="edge">
<title>tag_functionremove_html_markupat0x10e69b100_249&#45;&gt;assertion_functionremove_html_markupat0x10e69b100_244</title>
<path fill="none" stroke="black" d="M272.37,-464.94C312.75,-454.08 378.29,-436.44 430.32,-422.44"/>
<polygon fill="black" stroke="black" points="430.99,-425.88 439.74,-419.91 429.17,-419.13 430.99,-425.88"/>
</g>
<!-- test_functionremove_html_markupat0x10e69b100_250&#45;&gt;test_functionremove_html_markupat0x10e69b100_252 -->
<g id="edge3" class="edge">
<title>test_functionremove_html_markupat0x10e69b100_250&#45;&gt;test_functionremove_html_markupat0x10e69b100_252</title>
<path fill="none" stroke="grey" stroke-dasharray="5,2" d="M135.38,-379.73C149.12,-340.12 188.25,-249.33 211.55,-202.35"/>
<polygon fill="grey" stroke="grey" points="214.61,-204.07 216.01,-193.57 208.36,-200.91 214.61,-204.07"/>
</g>
<!-- test_functionremove_html_markupat0x10e69b100_250&#45;&gt;test_functionremove_html_markupat0x10e69b100_252 -->
<!-- s_functionremove_html_markupat0x10e69b100_255 -->
<g id="node6" class="node">
<title>s_functionremove_html_markupat0x10e69b100_255</title>
<g id="a_node6"><a xlink:title="remove_html_markup:255">
<polygon fill="peachpuff" stroke="black" points="492.25,-724 423.75,-724 423.75,-684 492.25,-684 492.25,-724"/>
<text xml:space="preserve" text-anchor="start" x="453.88" y="-707.7" font-family="Courier,monospace" font-weight="bold" font-size="14.00">s</text>
<text xml:space="preserve" text-anchor="start" x="431.75" y="-689.45" font-family="Courier,monospace" font-size="9.00">return out</text>
</a>
</g>
</g>
<!-- c_functionremove_html_markupat0x10e69b100_243 -->
<g id="node10" class="node">
<title>c_functionremove_html_markupat0x10e69b100_243</title>
<g id="a_node10"><a xlink:title="remove_html_markup:243">
<polygon fill="peachpuff" stroke="black" points="459.88,-648 386.12,-648 386.12,-608 459.88,-608 459.88,-648"/>
<text xml:space="preserve" text-anchor="start" x="418.88" y="-631.7" font-family="Courier,monospace" font-weight="bold" font-size="14.00">c</text>
<text xml:space="preserve" text-anchor="start" x="394.12" y="-613.45" font-family="Courier,monospace" font-size="9.00">for c in s:</text>
</a>
</g>
</g>
<!-- s_functionremove_html_markupat0x10e69b100_255&#45;&gt;c_functionremove_html_markupat0x10e69b100_243 -->
<g id="edge10" class="edge">
<title>s_functionremove_html_markupat0x10e69b100_255&#45;&gt;c_functionremove_html_markupat0x10e69b100_243</title>
<path fill="none" stroke="black" d="M448.8,-683.56C445.19,-675.91 440.95,-666.96 436.97,-658.55"/>
<polygon fill="black" stroke="black" points="440.22,-657.22 432.78,-649.68 433.89,-660.22 440.22,-657.22"/>
</g>
<!-- test_functionremove_html_markupat0x10e69b100_248&#45;&gt;tag_functionremove_html_markupat0x10e69b100_249 -->
<g id="edge4" class="edge">
<title>test_functionremove_html_markupat0x10e69b100_248&#45;&gt;tag_functionremove_html_markupat0x10e69b100_249</title>
<path fill="none" stroke="grey" stroke-dasharray="5,2" d="M251.83,-531.56C248.03,-524.08 244.17,-515.36 240.97,-507.11"/>
<polygon fill="grey" stroke="grey" points="244.27,-505.96 237.59,-497.74 237.69,-508.33 244.27,-505.96"/>
</g>
<!-- test_functionremove_html_markupat0x10e69b100_248&#45;&gt;tag_functionremove_html_markupat0x10e69b100_249 -->
<!-- test_functionremove_html_markupat0x10e69b100_248&#45;&gt;test_functionremove_html_markupat0x10e69b100_250 -->
<g id="edge22" class="edge">
<title>test_functionremove_html_markupat0x10e69b100_248&#45;&gt;test_functionremove_html_markupat0x10e69b100_250</title>
<path fill="none" stroke="grey" stroke-dasharray="5,2" d="M232.98,-531.66C218.42,-522.12 201.76,-509.71 189,-496 170.81,-476.45 155.36,-450.33 144.99,-430.43"/>
<polygon fill="grey" stroke="grey" points="148.23,-429.07 140.59,-421.72 141.98,-432.23 148.23,-429.07"/>
</g>
<!-- quote_functionremove_html_markupat0x10e69b100_240&#45;&gt;test_functionremove_html_markupat0x10e69b100_248 -->
<g id="edge18" class="edge">
<title>quote_functionremove_html_markupat0x10e69b100_240&#45;&gt;test_functionremove_html_markupat0x10e69b100_248</title>
<path fill="none" stroke="black" d="M342.74,-759.57C329.42,-750.4 315.18,-738.3 306,-724 278.1,-680.55 269.61,-619.75 267.06,-583.57"/>
<polygon fill="black" stroke="black" points="270.57,-583.6 266.49,-573.82 263.58,-584.01 270.57,-583.6"/>
</g>
<!-- out_functionremove_html_markupat0x10e69b100_241 -->
<g id="node11" class="node">
<title>out_functionremove_html_markupat0x10e69b100_241</title>
<g id="a_node11"><a xlink:title="remove_html_markup:241">
<polygon fill="peachpuff" stroke="black" points="406,-724 348,-724 348,-684 406,-684 406,-724"/>
<text xml:space="preserve" text-anchor="start" x="364.62" y="-707.7" font-family="Courier,monospace" font-weight="bold" font-size="14.00">out</text>
<text xml:space="preserve" text-anchor="start" x="356" y="-689.45" font-family="Courier,monospace" font-size="9.00">out = &quot;&quot;</text>
</a>
</g>
</g>
<!-- quote_functionremove_html_markupat0x10e69b100_240&#45;&gt;out_functionremove_html_markupat0x10e69b100_241 -->
<!-- test_functionremove_html_markupat0x10e69b100_246 -->
<g id="node12" class="node">
<title>test_functionremove_html_markupat0x10e69b100_246</title>
<g id="a_node12"><a xlink:title="remove_html_markup:246">
<polygon fill="peachpuff" stroke="black" points="480.25,-344 327.75,-344 327.75,-304 480.25,-304 480.25,-344"/>
<text xml:space="preserve" text-anchor="start" x="379.25" y="-327.7" font-family="Courier,monospace" font-weight="bold" font-style="italic" font-size="14.00">&lt;test&gt;</text>
<text xml:space="preserve" text-anchor="start" x="335.75" y="-309.45" font-family="Courier,monospace" font-size="9.00">if c == &#39;&lt;&#39; and not quote:</text>
</a>
</g>
</g>
<!-- quote_functionremove_html_markupat0x10e69b100_240&#45;&gt;test_functionremove_html_markupat0x10e69b100_246 -->
<g id="edge12" class="edge">
<title>quote_functionremove_html_markupat0x10e69b100_240&#45;&gt;test_functionremove_html_markupat0x10e69b100_246</title>
<path fill="none" stroke="black" d="M359.33,-759.68C351.47,-749.78 343.08,-737.07 339,-724 333.71,-707.03 337.41,-701.71 339,-684 341.94,-651.23 382.93,-435.16 398.26,-354.92"/>
<polygon fill="black" stroke="black" points="401.61,-356.08 400.05,-345.6 394.73,-354.76 401.61,-356.08"/>
</g>
<!-- quote_functionremove_html_markupat0x10e69b100_240&#45;&gt;assertion_functionremove_html_markupat0x10e69b100_244 -->
<g id="edge15" class="edge">
<title>quote_functionremove_html_markupat0x10e69b100_240&#45;&gt;assertion_functionremove_html_markupat0x10e69b100_244</title>
<path fill="none" stroke="black" d="M419.35,-770.02C446.32,-762.19 480,-748.18 501,-724 529.78,-690.86 528,-672.89 528,-629 528,-629 528,-629 528,-551 528,-509.32 521.06,-461.59 515.8,-431.38"/>
<polygon fill="black" stroke="black" points="519.3,-431.04 514.09,-421.82 512.41,-432.28 519.3,-431.04"/>
</g>
<!-- out_functionremove_html_markupat0x10e69b100_253&#45;&gt;out_functionremove_html_markupat0x10e69b100_253 -->
<g id="edge5" class="edge">
<title>out_functionremove_html_markupat0x10e69b100_253&#45;&gt;out_functionremove_html_markupat0x10e69b100_253</title>
<path fill="none" stroke="black" d="M271.42,-110C281.59,-108.9 289.12,-104.24 289.12,-96 289.12,-91.11 286.47,-87.48 282.18,-85.1"/>
<polygon fill="black" stroke="black" points="283.45,-81.83 272.87,-82.42 281.51,-88.55 283.45,-81.83"/>
</g>
<!-- remove_html_markupreturnvalue_functionremove_html_markupat0x10e69b100_255 -->
<g id="node13" class="node">
<title>remove_html_markupreturnvalue_functionremove_html_markupat0x10e69b100_255</title>
<g id="a_node13"><a xlink:title="remove_html_markup:255">
<polygon fill="peachpuff" stroke="black" points="381.38,-40 76.62,-40 76.62,0 381.38,0 381.38,-40"/>
<text xml:space="preserve" text-anchor="start" x="84.62" y="-23.7" font-family="Courier,monospace" font-weight="bold" font-style="italic" font-size="14.00">&lt;remove_html_markup() return value&gt;</text>
<text xml:space="preserve" text-anchor="start" x="202.75" y="-5.45" font-family="Courier,monospace" font-size="9.00">return out</text>
</a>
</g>
</g>
<!-- out_functionremove_html_markupat0x10e69b100_253&#45;&gt;remove_html_markupreturnvalue_functionremove_html_markupat0x10e69b100_255 -->
<g id="edge11" class="edge">
<title>out_functionremove_html_markupat0x10e69b100_253&#45;&gt;remove_html_markupreturnvalue_functionremove_html_markupat0x10e69b100_255</title>
<path fill="none" stroke="black" d="M222.98,-75.56C222.32,-68.25 222.11,-59.75 222.34,-51.67"/>
<polygon fill="black" stroke="black" points="225.82,-52.01 222.9,-41.82 218.84,-51.61 225.82,-52.01"/>
</g>
<!-- out_functionremove_html_markupat0x10e69b100_253&#45;&gt;remove_html_markupreturnvalue_functionremove_html_markupat0x10e69b100_255 -->
<!-- c_functionremove_html_markupat0x10e69b100_243&#45;&gt;test_functionremove_html_markupat0x10e69b100_250 -->
<g id="edge21" class="edge">
<title>c_functionremove_html_markupat0x10e69b100_243&#45;&gt;test_functionremove_html_markupat0x10e69b100_250</title>
<path fill="none" stroke="black" d="M385.64,-612.24C381.09,-610.69 376.46,-609.23 372,-608 286.62,-584.45 240.95,-632.21 176,-572 137.01,-535.86 130.18,-470.36 129.84,-431.77"/>
<polygon fill="black" stroke="black" points="133.34,-432.02 129.91,-422 126.34,-431.97 133.34,-432.02"/>
</g>
<!-- c_functionremove_html_markupat0x10e69b100_243&#45;&gt;test_functionremove_html_markupat0x10e69b100_248 -->
<g id="edge19" class="edge">
<title>c_functionremove_html_markupat0x10e69b100_243&#45;&gt;test_functionremove_html_markupat0x10e69b100_248</title>
<path fill="none" stroke="black" d="M385.79,-609.46C365.44,-599.87 339.91,-587.84 317.65,-577.35"/>
<polygon fill="black" stroke="black" points="319.27,-574.24 308.73,-573.14 316.28,-580.57 319.27,-574.24"/>
</g>
<!-- c_functionremove_html_markupat0x10e69b100_243&#45;&gt;out_functionremove_html_markupat0x10e69b100_253 -->
<g id="edge6" class="edge">
<title>c_functionremove_html_markupat0x10e69b100_243&#45;&gt;out_functionremove_html_markupat0x10e69b100_253</title>
<path fill="none" stroke="black" d="M443.62,-607.77C478.93,-573.59 550.68,-498.42 587,-420 605.09,-380.93 606,-368.06 606,-325 606,-325 606,-325 606,-247 606,-178.25 386.85,-127.14 282.72,-106.74"/>
<polygon fill="black" stroke="black" points="283.48,-103.32 273,-104.86 282.15,-110.19 283.48,-103.32"/>
</g>
<!-- c_functionremove_html_markupat0x10e69b100_243&#45;&gt;test_functionremove_html_markupat0x10e69b100_246 -->
<g id="edge13" class="edge">
<title>c_functionremove_html_markupat0x10e69b100_243&#45;&gt;test_functionremove_html_markupat0x10e69b100_246</title>
<path fill="none" stroke="black" d="M421.78,-607.65C418.57,-556.51 409.82,-417.47 405.92,-355.51"/>
<polygon fill="black" stroke="black" points="409.42,-355.46 405.3,-345.7 402.44,-355.9 409.42,-355.46"/>
</g>
<!-- c_functionremove_html_markupat0x10e69b100_243&#45;&gt;assertion_functionremove_html_markupat0x10e69b100_244 -->
<!-- out_functionremove_html_markupat0x10e69b100_241&#45;&gt;out_functionremove_html_markupat0x10e69b100_253 -->
<g id="edge7" class="edge">
<title>out_functionremove_html_markupat0x10e69b100_241&#45;&gt;out_functionremove_html_markupat0x10e69b100_253</title>
<path fill="none" stroke="black" d="M347.74,-690.73C301.52,-670.45 210.19,-626.72 145,-572 47.5,-490.16 0,-452.3 0,-325 0,-325 0,-325 0,-247 0,-163.49 107.89,-123.95 175.56,-107.36"/>
<polygon fill="black" stroke="black" points="176.06,-110.84 184.99,-105.15 174.45,-104.03 176.06,-110.84"/>
</g>
<!-- out_functionremove_html_markupat0x10e69b100_241&#45;&gt;c_functionremove_html_markupat0x10e69b100_243 -->
<!-- test_functionremove_html_markupat0x10e69b100_246&#45;&gt;tag_functionremove_html_markupat0x10e69b100_247 -->
<g id="edge9" class="edge">
<title>test_functionremove_html_markupat0x10e69b100_246&#45;&gt;tag_functionremove_html_markupat0x10e69b100_247</title>
<path fill="none" stroke="grey" stroke-dasharray="5,2" d="M397.98,-303.56C397.32,-296.25 397.11,-287.75 397.34,-279.67"/>
<polygon fill="grey" stroke="grey" points="400.82,-280.01 397.9,-269.82 393.84,-279.61 400.82,-280.01"/>
</g>
<!-- test_functionremove_html_markupat0x10e69b100_246&#45;&gt;tag_functionremove_html_markupat0x10e69b100_247 -->
<!-- test_functionremove_html_markupat0x10e69b100_246&#45;&gt;test_functionremove_html_markupat0x10e69b100_248 -->
<g id="edge20" class="edge">
<title>test_functionremove_html_markupat0x10e69b100_246&#45;&gt;test_functionremove_html_markupat0x10e69b100_248</title>
<path fill="none" stroke="grey" stroke-dasharray="5,2" d="M387.12,-344.5C378.87,-354.64 369.19,-367.5 362,-380 334.17,-428.36 343.4,-448.58 314,-496 308.16,-505.41 300.72,-514.81 293.44,-523.1"/>
<polygon fill="grey" stroke="grey" points="290.86,-520.74 286.72,-530.5 296.04,-525.45 290.86,-520.74"/>
</g>
<!-- assertion_functionremove_html_markupat0x10e69b100_244&#45;&gt;test_functionremove_html_markupat0x10e69b100_246 -->
</g>
</svg>