<svg xmlns="http://www.w3.org/2000/svg" xmlns:xlink="http://www.w3.org/1999/xlink" width="1862pt" height="476pt" viewBox="0.00 0.00 1862.00 476.00">
<g id="graph0" class="graph" transform="scale(1 1) rotate(0) translate(4 472)">
<polygon fill="white" stroke="none" points="-4,4 -4,-472 1858,-472 1858,4 -4,4"/>
<!-- 0 -->
<g id="node1" class="node">
<title>0</title>
<text xml:space="preserve" text-anchor="start" x="197.62" y="-445.95" font-family="Courier,monospace" font-weight="bold" font-size="14.00" fill="#004080">FunctionDef</text>
</g>
<!-- 1 -->
<g id="node2" class="node">
<title>1</title>
<text xml:space="preserve" text-anchor="middle" x="67" y="-372.95" font-family="Courier,monospace" font-size="14.00" fill="#008040">"middle"</text>
</g>
<!-- 0&#45;&#45;1 -->
<g id="edge1" class="edge">
<title>0--1</title>
<path fill="none" stroke="black" d="M247,-431C247,-431 174.24,-413.42 117,-396 114.02,-395.09 110.95,-394.13 107.86,-393.13"/>
</g>
<!-- 2 -->
<g id="node3" class="node">
<title>2</title>
<text xml:space="preserve" text-anchor="start" x="133.88" y="-373.95" font-family="Courier,monospace" font-weight="bold" font-size="14.00" fill="#004080">arguments</text>
</g>
<!-- 0&#45;&#45;2 -->
<g id="edge2" class="edge">
<title>0--2</title>
<path fill="none" stroke="black" d="M247,-431C247,-431 217.68,-410.94 195.47,-395.74"/>
</g>
<!-- 9 -->
<g id="node10" class="node">
<title>9</title>
<text xml:space="preserve" text-anchor="start" x="464.75" y="-373.95" font-family="Courier,monospace" font-weight="bold" font-size="14.00" fill="#004080">If</text>
</g>
<!-- 0&#45;&#45;9 -->
<g id="edge9" class="edge">
<title>0--9</title>
<path fill="none" stroke="black" d="M247,-431C247,-431 386.32,-398.94 446.19,-385.17"/>
</g>
<!-- 70 -->
<g id="node71" class="node">
<title>70</title>
<text xml:space="preserve" text-anchor="start" x="1111.25" y="-373.95" font-family="Courier,monospace" font-weight="bold" font-size="14.00" fill="#004080">Return</text>
</g>
<!-- 0&#45;&#45;70 -->
<g id="edge70" class="edge">
<title>0--70</title>
<path fill="none" stroke="black" d="M247,-431C247,-431 942.92,-390.29 1103.31,-380.91"/>
</g>
<!-- 3 -->
<g id="node4" class="node">
<title>3</title>
<text xml:space="preserve" text-anchor="start" x="14.62" y="-301.95" font-family="Courier,monospace" font-weight="bold" font-size="14.00" fill="#004080">arg</text>
</g>
<!-- 2&#45;&#45;3 -->
<g id="edge3" class="edge">
<title>2--3</title>
<path fill="none" stroke="black" d="M158,-359C158,-359 104.5,-341.4 63,-324 59.94,-322.72 56.76,-321.32 53.62,-319.89"/>
</g>
<!-- 5 -->
<g id="node6" class="node">
<title>5</title>
<text xml:space="preserve" text-anchor="start" x="86.62" y="-301.95" font-family="Courier,monospace" font-weight="bold" font-size="14.00" fill="#004080">arg</text>
</g>
<!-- 2&#45;&#45;5 -->
<g id="edge5" class="edge">
<title>2--5</title>
<path fill="none" stroke="black" d="M158,-359C158,-359 135.24,-338.94 117.99,-323.74"/>
</g>
<!-- 7 -->
<g id="node8" class="node">
<title>7</title>
<text xml:space="preserve" text-anchor="start" x="158.62" y="-301.95" font-family="Courier,monospace" font-weight="bold" font-size="14.00" fill="#004080">arg</text>
</g>
<!-- 2&#45;&#45;7 -->
<g id="edge7" class="edge">
<title>2--7</title>
<path fill="none" stroke="black" d="M158,-359C158,-359 163.01,-338.94 166.82,-323.74"/>
</g>
<!-- 4 -->
<g id="node5" class="node">
<title>4</title>
<text xml:space="preserve" text-anchor="middle" x="27" y="-228.95" font-family="Courier,monospace" font-size="14.00" fill="#008040">"x"</text>
</g>
<!-- 3&#45;&#45;4 -->
<g id="edge4" class="edge">
<title>3--4</title>
<path fill="none" stroke="black" d="M27,-288.05C27,-277.05 27,-262.76 27,-251.79"/>
</g>
<!-- 6 -->
<g id="node7" class="node">
<title>6</title>
<text xml:space="preserve" text-anchor="middle" x="99" y="-228.95" font-family="Courier,monospace" font-size="14.00" fill="#008040">"y"</text>
</g>
<!-- 5&#45;&#45;6 -->
<g id="edge6" class="edge">
<title>5--6</title>
<path fill="none" stroke="black" d="M99,-288.05C99,-277.05 99,-262.76 99,-251.79"/>
</g>
<!-- 8 -->
<g id="node9" class="node">
<title>8</title>
<text xml:space="preserve" text-anchor="middle" x="171" y="-228.95" font-family="Courier,monospace" font-size="14.00" fill="#008040">"z"</text>
</g>
<!-- 7&#45;&#45;8 -->
<g id="edge8" class="edge">
<title>7--8</title>
<path fill="none" stroke="black" d="M171,-288.05C171,-277.05 171,-262.76 171,-251.79"/>
</g>
<!-- 10 -->
<g id="node11" class="node">
<title>10</title>
<text xml:space="preserve" text-anchor="start" x="322.12" y="-301.95" font-family="Courier,monospace" font-weight="bold" font-size="14.00" fill="#004080">Compare</text>
</g>
<!-- 9&#45;&#45;10 -->
<g id="edge10" class="edge">
<title>9--10</title>
<path fill="none" stroke="black" d="M490,-359C490,-359 428.7,-336.07 387.52,-320.66"/>
</g>
<!-- 18 -->
<g id="node19" class="node">
<title>18</title>
<text xml:space="preserve" text-anchor="start" x="594.75" y="-301.95" font-family="Courier,monospace" font-weight="bold" font-size="14.00" fill="#004080">If</text>
</g>
<!-- 9&#45;&#45;18 -->
<g id="edge18" class="edge">
<title>9--18</title>
<path fill="none" stroke="black" d="M490,-359C490,-359 542.8,-334.7 576.22,-319.32"/>
</g>
<!-- 44 -->
<g id="node45" class="node">
<title>44</title>
<text xml:space="preserve" text-anchor="start" x="1314.75" y="-301.95" font-family="Courier,monospace" font-weight="bold" font-size="14.00" fill="#004080">If</text>
</g>
<!-- 9&#45;&#45;44 -->
<g id="edge44" class="edge">
<title>9--44</title>
<path fill="none" stroke="black" d="M490,-359C490,-359 1153.65,-317.57 1296.23,-308.67"/>
</g>
<!-- 11 -->
<g id="node12" class="node">
<title>11</title>
<text xml:space="preserve" text-anchor="start" x="226.5" y="-229.95" font-family="Courier,monospace" font-weight="bold" font-size="14.00" fill="#004080">Name</text>
</g>
<!-- 10&#45;&#45;11 -->
<g id="edge11" class="edge">
<title>10--11</title>
<path fill="none" stroke="black" d="M345,-287C345,-287 300.02,-264.07 269.8,-248.66"/>
</g>
<!-- 14 -->
<g id="node15" class="node">
<title>14</title>
<text xml:space="preserve" text-anchor="middle" x="315" y="-228.95" font-family="Courier,monospace" font-size="14.00" fill="#008040">Lt</text>
</g>
<!-- 10&#45;&#45;14 -->
<g id="edge14" class="edge">
<title>10--14</title>
<path fill="none" stroke="black" d="M345,-287C345,-287 333.43,-266.94 324.66,-251.74"/>
</g>
<!-- 15 -->
<g id="node16" class="node">
<title>15</title>
<text xml:space="preserve" text-anchor="start" x="370.5" y="-229.95" font-family="Courier,monospace" font-weight="bold" font-size="14.00" fill="#004080">Name</text>
</g>
<!-- 10&#45;&#45;15 -->
<g id="edge15" class="edge">
<title>10--15</title>
<path fill="none" stroke="black" d="M345,-287C345,-287 361.2,-266.94 373.48,-251.74"/>
</g>
<!-- 12 -->
<g id="node13" class="node">
<title>12</title>
<text xml:space="preserve" text-anchor="middle" x="171" y="-156.95" font-family="Courier,monospace" font-size="14.00" fill="#008040">"y"</text>
</g>
<!-- 11&#45;&#45;12 -->
<g id="edge12" class="edge">
<title>11--12</title>
<path fill="none" stroke="black" d="M236,-215C236,-215 210.93,-194.94 191.92,-179.74"/>
</g>
<!-- 13 -->
<g id="node14" class="node">
<title>13</title>
<text xml:space="preserve" text-anchor="middle" x="243" y="-156.95" font-family="Courier,monospace" font-size="14.00" fill="#008040">Load</text>
</g>
<!-- 11&#45;&#45;13 -->
<g id="edge13" class="edge">
<title>11--13</title>
<path fill="none" stroke="black" d="M236,-215C236,-215 238.7,-194.94 240.75,-179.74"/>
</g>
<!-- 16 -->
<g id="node17" class="node">
<title>16</title>
<text xml:space="preserve" text-anchor="middle" x="315" y="-156.95" font-family="Courier,monospace" font-size="14.00" fill="#008040">"z"</text>
</g>
<!-- 15&#45;&#45;16 -->
<g id="edge16" class="edge">
<title>15--16</title>
<path fill="none" stroke="black" d="M380,-215C380,-215 354.93,-194.94 335.92,-179.74"/>
</g>
<!-- 17 -->
<g id="node18" class="node">
<title>17</title>
<text xml:space="preserve" text-anchor="middle" x="387" y="-156.95" font-family="Courier,monospace" font-size="14.00" fill="#008040">Load</text>
</g>
<!-- 15&#45;&#45;17 -->
<g id="edge17" class="edge">
<title>15--17</title>
<path fill="none" stroke="black" d="M380,-215C380,-215 382.7,-194.94 384.75,-179.74"/>
</g>
<!-- 19 -->
<g id="node20" class="node">
<title>19</title>
<text xml:space="preserve" text-anchor="start" x="516.12" y="-229.95" font-family="Courier,monospace" font-weight="bold" font-size="14.00" fill="#004080">Compare</text>
</g>
<!-- 18&#45;&#45;19 -->
<g id="edge19" class="edge">
<title>18--19</title>
<path fill="none" stroke="black" d="M613,-287C613,-287 586.77,-266.94 566.89,-251.74"/>
</g>
<!-- 27 -->
<g id="node28" class="node">
<title>27</title>
<text xml:space="preserve" text-anchor="start" x="636.25" y="-229.95" font-family="Courier,monospace" font-weight="bold" font-size="14.00" fill="#004080">Return</text>
</g>
<!-- 18&#45;&#45;27 -->
<g id="edge27" class="edge">
<title>18--27</title>
<path fill="none" stroke="black" d="M613,-287C613,-287 631.52,-266.94 645.55,-251.74"/>
</g>
<!-- 31 -->
<g id="node32" class="node">
<title>31</title>
<text xml:space="preserve" text-anchor="start" x="882.75" y="-229.95" font-family="Courier,monospace" font-weight="bold" font-size="14.00" fill="#004080">If</text>
</g>
<!-- 18&#45;&#45;31 -->
<g id="edge31" class="edge">
<title>18--31</title>
<path fill="none" stroke="black" d="M613,-287C613,-287 794.32,-253.08 864.09,-240.03"/>
</g>
<!-- 20 -->
<g id="node21" class="node">
<title>20</title>
<text xml:space="preserve" text-anchor="start" x="442.5" y="-157.95" font-family="Courier,monospace" font-weight="bold" font-size="14.00" fill="#004080">Name</text>
</g>
<!-- 19&#45;&#45;20 -->
<g id="edge20" class="edge">
<title>19--20</title>
<path fill="none" stroke="black" d="M543,-215C543,-215 510.19,-194.69 485.58,-179.45"/>
</g>
<!-- 23 -->
<g id="node24" class="node">
<title>23</title>
<text xml:space="preserve" text-anchor="middle" x="531" y="-156.95" font-family="Courier,monospace" font-size="14.00" fill="#008040">Lt</text>
</g>
<!-- 19&#45;&#45;23 -->
<g id="edge23" class="edge">
<title>19--23</title>
<path fill="none" stroke="black" d="M543,-215C543,-215 538.37,-194.94 534.86,-179.74"/>
</g>
<!-- 24 -->
<g id="node25" class="node">
<title>24</title>
<text xml:space="preserve" text-anchor="start" x="586.5" y="-157.95" font-family="Courier,monospace" font-weight="bold" font-size="14.00" fill="#004080">Name</text>
</g>
<!-- 19&#45;&#45;24 -->
<g id="edge24" class="edge">
<title>19--24</title>
<path fill="none" stroke="black" d="M543,-215C543,-215 566.15,-194.94 583.69,-179.74"/>
</g>
<!-- 21 -->
<g id="node22" class="node">
<title>21</title>
<text xml:space="preserve" text-anchor="middle" x="387" y="-84.95" font-family="Courier,monospace" font-size="14.00" fill="#008040">"x"</text>
</g>
<!-- 20&#45;&#45;21 -->
<g id="edge21" class="edge">
<title>20--21</title>
<path fill="none" stroke="black" d="M452,-143C452,-143 426.93,-122.94 407.92,-107.74"/>
</g>
<!-- 22 -->
<g id="node23" class="node">
<title>22</title>
<text xml:space="preserve" text-anchor="middle" x="459" y="-84.95" font-family="Courier,monospace" font-size="14.00" fill="#008040">Load</text>
</g>
<!-- 20&#45;&#45;22 -->
<g id="edge22" class="edge">
<title>20--22</title>
<path fill="none" stroke="black" d="M452,-143C452,-143 454.7,-122.94 456.75,-107.74"/>
</g>
<!-- 25 -->
<g id="node26" class="node">
<title>25</title>
<text xml:space="preserve" text-anchor="middle" x="531" y="-84.95" font-family="Courier,monospace" font-size="14.00" fill="#008040">"y"</text>
</g>
<!-- 24&#45;&#45;25 -->
<g id="edge25" class="edge">
<title>24--25</title>
<path fill="none" stroke="black" d="M596,-143C596,-143 570.93,-122.94 551.92,-107.74"/>
</g>
<!-- 26 -->
<g id="node27" class="node">
<title>26</title>
<text xml:space="preserve" text-anchor="middle" x="603" y="-84.95" font-family="Courier,monospace" font-size="14.00" fill="#008040">Load</text>
</g>
<!-- 24&#45;&#45;26 -->
<g id="edge26" class="edge">
<title>24--26</title>
<path fill="none" stroke="black" d="M596,-143C596,-143 598.7,-122.94 600.75,-107.74"/>
</g>
<!-- 28 -->
<g id="node29" class="node">
<title>28</title>
<text xml:space="preserve" text-anchor="start" x="658.5" y="-157.95" font-family="Courier,monospace" font-weight="bold" font-size="14.00" fill="#004080">Name</text>
</g>
<!-- 27&#45;&#45;28 -->
<g id="edge28" class="edge">
<title>27--28</title>
<path fill="none" stroke="black" d="M664.39,-216.05C666.59,-205.05 669.45,-190.76 671.64,-179.79"/>
</g>
<!-- 29 -->
<g id="node30" class="node">
<title>29</title>
<text xml:space="preserve" text-anchor="middle" x="675" y="-84.95" font-family="Courier,monospace" font-size="14.00" fill="#008040">"y"</text>
</g>
<!-- 28&#45;&#45;29 -->
<g id="edge29" class="edge">
<title>28--29</title>
<path fill="none" stroke="black" d="M682,-143C682,-143 679.3,-122.94 677.25,-107.74"/>
</g>
<!-- 30 -->
<g id="node31" class="node">
<title>30</title>
<text xml:space="preserve" text-anchor="middle" x="747" y="-84.95" font-family="Courier,monospace" font-size="14.00" fill="#008040">Load</text>
</g>
<!-- 28&#45;&#45;30 -->
<g id="edge30" class="edge">
<title>28--30</title>
<path fill="none" stroke="black" d="M682,-143C682,-143 707.07,-122.94 726.08,-107.74"/>
</g>
<!-- 32 -->
<g id="node33" class="node">
<title>32</title>
<text xml:space="preserve" text-anchor="start" x="862.12" y="-157.95" font-family="Courier,monospace" font-weight="bold" font-size="14.00" fill="#004080">Compare</text>
</g>
<!-- 31&#45;&#45;32 -->
<g id="edge32" class="edge">
<title>31--32</title>
<path fill="none" stroke="black" d="M901,-215C901,-215 897.14,-194.94 894.22,-179.74"/>
</g>
<!-- 40 -->
<g id="node41" class="node">
<title>40</title>
<text xml:space="preserve" text-anchor="start" x="982.25" y="-157.95" font-family="Courier,monospace" font-weight="bold" font-size="14.00" fill="#004080">Return</text>
</g>
<!-- 31&#45;&#45;40 -->
<g id="edge40" class="edge">
<title>31--40</title>
<path fill="none" stroke="black" d="M901,-215C901,-215 943.19,-194.3 974.33,-179.03"/>
</g>
<!-- 33 -->
<g id="node34" class="node">
<title>33</title>
<text xml:space="preserve" text-anchor="start" x="802.5" y="-85.95" font-family="Courier,monospace" font-weight="bold" font-size="14.00" fill="#004080">Name</text>
</g>
<!-- 32&#45;&#45;33 -->
<g id="edge33" class="edge">
<title>32--33</title>
<path fill="none" stroke="black" d="M891,-143C891,-143 863.23,-122.94 842.18,-107.74"/>
</g>
<!-- 36 -->
<g id="node37" class="node">
<title>36</title>
<text xml:space="preserve" text-anchor="middle" x="891" y="-84.95" font-family="Courier,monospace" font-size="14.00" fill="#008040">Lt</text>
</g>
<!-- 32&#45;&#45;36 -->
<g id="edge36" class="edge">
<title>32--36</title>
<path fill="none" stroke="black" d="M891,-143C891,-143 891,-122.94 891,-107.74"/>
</g>
<!-- 37 -->
<g id="node38" class="node">
<title>37</title>
<text xml:space="preserve" text-anchor="start" x="946.5" y="-85.95" font-family="Courier,monospace" font-weight="bold" font-size="14.00" fill="#004080">Name</text>
</g>
<!-- 32&#45;&#45;37 -->
<g id="edge37" class="edge">
<title>32--37</title>
<path fill="none" stroke="black" d="M891,-143C891,-143 918.77,-122.94 939.82,-107.74"/>
</g>
<!-- 34 -->
<g id="node35" class="node">
<title>34</title>
<text xml:space="preserve" text-anchor="middle" x="747" y="-12.95" font-family="Courier,monospace" font-size="14.00" fill="#008040">"x"</text>
</g>
<!-- 33&#45;&#45;34 -->
<g id="edge34" class="edge">
<title>33--34</title>
<path fill="none" stroke="black" d="M812,-71C812,-71 786.93,-50.94 767.92,-35.74"/>
</g>
<!-- 35 -->
<g id="node36" class="node">
<title>35</title>
<text xml:space="preserve" text-anchor="middle" x="819" y="-12.95" font-family="Courier,monospace" font-size="14.00" fill="#008040">Load</text>
</g>
<!-- 33&#45;&#45;35 -->
<g id="edge35" class="edge">
<title>33--35</title>
<path fill="none" stroke="black" d="M812,-71C812,-71 814.7,-50.94 816.75,-35.74"/>
</g>
<!-- 38 -->
<g id="node39" class="node">
<title>38</title>
<text xml:space="preserve" text-anchor="middle" x="891" y="-12.95" font-family="Courier,monospace" font-size="14.00" fill="#008040">"z"</text>
</g>
<!-- 37&#45;&#45;38 -->
<g id="edge38" class="edge">
<title>37--38</title>
<path fill="none" stroke="black" d="M956,-71C956,-71 930.93,-50.94 911.92,-35.74"/>
</g>
<!-- 39 -->
<g id="node40" class="node">
<title>39</title>
<text xml:space="preserve" text-anchor="middle" x="963" y="-12.95" font-family="Courier,monospace" font-size="14.00" fill="#008040">Load</text>
</g>
<!-- 37&#45;&#45;39 -->
<g id="edge39" class="edge">
<title>37--39</title>
<path fill="none" stroke="black" d="M956,-71C956,-71 958.7,-50.94 960.75,-35.74"/>
</g>
<!-- 41 -->
<g id="node42" class="node">
<title>41</title>
<text xml:space="preserve" text-anchor="start" x="1018.5" y="-85.95" font-family="Courier,monospace" font-weight="bold" font-size="14.00" fill="#004080">Name</text>
</g>
<!-- 40&#45;&#45;41 -->
<g id="edge41" class="edge">
<title>40--41</title>
<path fill="none" stroke="black" d="M1013.78,-144.05C1018.18,-133.05 1023.89,-118.76 1028.28,-107.79"/>
</g>
<!-- 42 -->
<g id="node43" class="node">
<title>42</title>
<text xml:space="preserve" text-anchor="middle" x="1035" y="-12.95" font-family="Courier,monospace" font-size="14.00" fill="#008040">"y"</text>
</g>
<!-- 41&#45;&#45;42 -->
<g id="edge42" class="edge">
<title>41--42</title>
<path fill="none" stroke="black" d="M1042,-71C1042,-71 1039.3,-50.94 1037.25,-35.74"/>
</g>
<!-- 43 -->
<g id="node44" class="node">
<title>43</title>
<text xml:space="preserve" text-anchor="middle" x="1107" y="-12.95" font-family="Courier,monospace" font-size="14.00" fill="#008040">Load</text>
</g>
<!-- 41&#45;&#45;43 -->
<g id="edge43" class="edge">
<title>41--43</title>
<path fill="none" stroke="black" d="M1042,-71C1042,-71 1067.07,-50.94 1086.08,-35.74"/>
</g>
<!-- 45 -->
<g id="node46" class="node">
<title>45</title>
<text xml:space="preserve" text-anchor="start" x="1236.12" y="-229.95" font-family="Courier,monospace" font-weight="bold" font-size="14.00" fill="#004080">Compare</text>
</g>
<!-- 44&#45;&#45;45 -->
<g id="edge45" class="edge">
<title>44--45</title>
<path fill="none" stroke="black" d="M1332,-287C1332,-287 1306.15,-266.94 1286.57,-251.74"/>
</g>
<!-- 53 -->
<g id="node54" class="node">
<title>53</title>
<text xml:space="preserve" text-anchor="start" x="1356.25" y="-229.95" font-family="Courier,monospace" font-weight="bold" font-size="14.00" fill="#004080">Return</text>
</g>
<!-- 44&#45;&#45;53 -->
<g id="edge53" class="edge">
<title>44--53</title>
<path fill="none" stroke="black" d="M1332,-287C1332,-287 1350.9,-266.94 1365.23,-251.74"/>
</g>
<!-- 57 -->
<g id="node58" class="node">
<title>57</title>
<text xml:space="preserve" text-anchor="start" x="1497.75" y="-229.95" font-family="Courier,monospace" font-weight="bold" font-size="14.00" fill="#004080">If</text>
</g>
<!-- 44&#45;&#45;57 -->
<g id="edge57" class="edge">
<title>44--57</title>
<path fill="none" stroke="black" d="M1332,-287C1332,-287 1430.39,-257.6 1479.19,-243.01"/>
</g>
<!-- 46 -->
<g id="node47" class="node">
<title>46</title>
<text xml:space="preserve" text-anchor="start" x="1162.5" y="-157.95" font-family="Courier,monospace" font-weight="bold" font-size="14.00" fill="#004080">Name</text>
</g>
<!-- 45&#45;&#45;46 -->
<g id="edge46" class="edge">
<title>45--46</title>
<path fill="none" stroke="black" d="M1263,-215C1263,-215 1230.19,-194.69 1205.58,-179.45"/>
</g>
<!-- 49 -->
<g id="node50" class="node">
<title>49</title>
<text xml:space="preserve" text-anchor="middle" x="1251" y="-156.95" font-family="Courier,monospace" font-size="14.00" fill="#008040">Gt</text>
</g>
<!-- 45&#45;&#45;49 -->
<g id="edge49" class="edge">
<title>45--49</title>
<path fill="none" stroke="black" d="M1263,-215C1263,-215 1258.37,-194.94 1254.86,-179.74"/>
</g>
<!-- 50 -->
<g id="node51" class="node">
<title>50</title>
<text xml:space="preserve" text-anchor="start" x="1306.5" y="-157.95" font-family="Courier,monospace" font-weight="bold" font-size="14.00" fill="#004080">Name</text>
</g>
<!-- 45&#45;&#45;50 -->
<g id="edge50" class="edge">
<title>45--50</title>
<path fill="none" stroke="black" d="M1263,-215C1263,-215 1286.15,-194.94 1303.69,-179.74"/>
</g>
<!-- 47 -->
<g id="node48" class="node">
<title>47</title>
<text xml:space="preserve" text-anchor="middle" x="1107" y="-84.95" font-family="Courier,monospace" font-size="14.00" fill="#008040">"x"</text>
</g>
<!-- 46&#45;&#45;47 -->
<g id="edge47" class="edge">
<title>46--47</title>
<path fill="none" stroke="black" d="M1172,-143C1172,-143 1146.93,-122.94 1127.92,-107.74"/>
</g>
<!-- 48 -->
<g id="node49" class="node">
<title>48</title>
<text xml:space="preserve" text-anchor="middle" x="1179" y="-84.95" font-family="Courier,monospace" font-size="14.00" fill="#008040">Load</text>
</g>
<!-- 46&#45;&#45;48 -->
<g id="edge48" class="edge">
<title>46--48</title>
<path fill="none" stroke="black" d="M1172,-143C1172,-143 1174.7,-122.94 1176.75,-107.74"/>
</g>
<!-- 51 -->
<g id="node52" class="node">
<title>51</title>
<text xml:space="preserve" text-anchor="middle" x="1251" y="-84.95" font-family="Courier,monospace" font-size="14.00" fill="#008040">"y"</text>
</g>
<!-- 50&#45;&#45;51 -->
<g id="edge51" class="edge">
<title>50--51</title>
<path fill="none" stroke="black" d="M1316,-143C1316,-143 1290.93,-122.94 1271.92,-107.74"/>
</g>
<!-- 52 -->
<g id="node53" class="node">
<title>52</title>
<text xml:space="preserve" text-anchor="middle" x="1323" y="-84.95" font-family="Courier,monospace" font-size="14.00" fill="#008040">Load</text>
</g>
<!-- 50&#45;&#45;52 -->
<g id="edge52" class="edge">
<title>50--52</title>
<path fill="none" stroke="black" d="M1316,-143C1316,-143 1318.7,-122.94 1320.75,-107.74"/>
</g>
<!-- 54 -->
<g id="node55" class="node">
<title>54</title>
<text xml:space="preserve" text-anchor="start" x="1378.5" y="-157.95" font-family="Courier,monospace" font-weight="bold" font-size="14.00" fill="#004080">Name</text>
</g>
<!-- 53&#45;&#45;54 -->
<g id="edge54" class="edge">
<title>53--54</title>
<path fill="none" stroke="black" d="M1384.39,-216.05C1386.59,-205.05 1389.45,-190.76 1391.64,-179.79"/>
</g>
<!-- 55 -->
<g id="node56" class="node">
<title>55</title>
<text xml:space="preserve" text-anchor="middle" x="1395" y="-84.95" font-family="Courier,monospace" font-size="14.00" fill="#008040">"y"</text>
</g>
<!-- 54&#45;&#45;55 -->
<g id="edge55" class="edge">
<title>54--55</title>
<path fill="none" stroke="black" d="M1402,-143C1402,-143 1399.3,-122.94 1397.25,-107.74"/>
</g>
<!-- 56 -->
<g id="node57" class="node">
<title>56</title>
<text xml:space="preserve" text-anchor="middle" x="1467" y="-84.95" font-family="Courier,monospace" font-size="14.00" fill="#008040">Load</text>
</g>
<!-- 54&#45;&#45;56 -->
<g id="edge56" class="edge">
<title>54--56</title>
<path fill="none" stroke="black" d="M1402,-143C1402,-143 1427.07,-122.94 1446.08,-107.74"/>
</g>
<!-- 58 -->
<g id="node59" class="node">
<title>58</title>
<text xml:space="preserve" text-anchor="start" x="1542.12" y="-157.95" font-family="Courier,monospace" font-weight="bold" font-size="14.00" fill="#004080">Compare</text>
</g>
<!-- 57&#45;&#45;58 -->
<g id="edge58" class="edge">
<title>57--58</title>
<path fill="none" stroke="black" d="M1533,-215C1533,-215 1547.66,-194.94 1558.77,-179.74"/>
</g>
<!-- 66 -->
<g id="node67" class="node">
<title>66</title>
<text xml:space="preserve" text-anchor="start" x="1698.25" y="-157.95" font-family="Courier,monospace" font-weight="bold" font-size="14.00" fill="#004080">Return</text>
</g>
<!-- 57&#45;&#45;66 -->
<g id="edge66" class="edge">
<title>57--66</title>
<path fill="none" stroke="black" d="M1533,-215C1533,-215 1636.01,-186.81 1690.34,-171.94"/>
</g>
<!-- 59 -->
<g id="node60" class="node">
<title>59</title>
<text xml:space="preserve" text-anchor="start" x="1522.5" y="-85.95" font-family="Courier,monospace" font-weight="bold" font-size="14.00" fill="#004080">Name</text>
</g>
<!-- 58&#45;&#45;59 -->
<g id="edge59" class="edge">
<title>58--59</title>
<path fill="none" stroke="black" d="M1578,-143C1578,-143 1562.96,-122.94 1551.55,-107.74"/>
</g>
<!-- 62 -->
<g id="node63" class="node">
<title>62</title>
<text xml:space="preserve" text-anchor="middle" x="1611" y="-84.95" font-family="Courier,monospace" font-size="14.00" fill="#008040">Gt</text>
</g>
<!-- 58&#45;&#45;62 -->
<g id="edge62" class="edge">
<title>58--62</title>
<path fill="none" stroke="black" d="M1578,-143C1578,-143 1590.73,-122.94 1600.38,-107.74"/>
</g>
<!-- 63 -->
<g id="node64" class="node">
<title>63</title>
<text xml:space="preserve" text-anchor="start" x="1666.5" y="-85.95" font-family="Courier,monospace" font-weight="bold" font-size="14.00" fill="#004080">Name</text>
</g>
<!-- 58&#45;&#45;63 -->
<g id="edge63" class="edge">
<title>58--63</title>
<path fill="none" stroke="black" d="M1578,-143C1578,-143 1625.12,-119.66 1656.23,-104.26"/>
</g>
<!-- 60 -->
<g id="node61" class="node">
<title>60</title>
<text xml:space="preserve" text-anchor="middle" x="1467" y="-12.95" font-family="Courier,monospace" font-size="14.00" fill="#008040">"x"</text>
</g>
<!-- 59&#45;&#45;60 -->
<g id="edge60" class="edge">
<title>59--60</title>
<path fill="none" stroke="black" d="M1532,-71C1532,-71 1506.93,-50.94 1487.92,-35.74"/>
</g>
<!-- 61 -->
<g id="node62" class="node">
<title>61</title>
<text xml:space="preserve" text-anchor="middle" x="1539" y="-12.95" font-family="Courier,monospace" font-size="14.00" fill="#008040">Load</text>
</g>
<!-- 59&#45;&#45;61 -->
<g id="edge61" class="edge">
<title>59--61</title>
<path fill="none" stroke="black" d="M1532,-71C1532,-71 1534.7,-50.94 1536.75,-35.74"/>
</g>
<!-- 64 -->
<g id="node65" class="node">
<title>64</title>
<text xml:space="preserve" text-anchor="middle" x="1611" y="-12.95" font-family="Courier,monospace" font-size="14.00" fill="#008040">"z"</text>
</g>
<!-- 63&#45;&#45;64 -->
<g id="edge64" class="edge">
<title>63--64</title>
<path fill="none" stroke="black" d="M1676,-71C1676,-71 1650.93,-50.94 1631.92,-35.74"/>
</g>
<!-- 65 -->
<g id="node66" class="node">
<title>65</title>
<text xml:space="preserve" text-anchor="middle" x="1683" y="-12.95" font-family="Courier,monospace" font-size="14.00" fill="#008040">Load</text>
</g>
<!-- 63&#45;&#45;65 -->
<g id="edge65" class="edge">
<title>63--65</title>
<path fill="none" stroke="black" d="M1676,-71C1676,-71 1678.7,-50.94 1680.75,-35.74"/>
</g>
<!-- 67 -->
<g id="node68" class="node">
<title>67</title>
<text xml:space="preserve" text-anchor="start" x="1738.5" y="-85.95" font-family="Courier,monospace" font-weight="bold" font-size="14.00" fill="#004080">Name</text>
</g>
<!-- 66&#45;&#45;67 -->
<g id="edge67" class="edge">
<title>66--67</title>
<path fill="none" stroke="black" d="M1730.75,-144.05C1735.78,-133.05 1742.31,-118.76 1747.33,-107.79"/>
</g>
<!-- 68 -->
<g id="node69" class="node">
<title>68</title>
<text xml:space="preserve" text-anchor="middle" x="1755" y="-12.95" font-family="Courier,monospace" font-size="14.00" fill="#008040">"x"</text>
</g>
<!-- 67&#45;&#45;68 -->
<g id="edge68" class="edge">
<title>67--68</title>
<path fill="none" stroke="black" d="M1762,-71C1762,-71 1759.3,-50.94 1757.25,-35.74"/>
</g>
<!-- 69 -->
<g id="node70" class="node">
<title>69</title>
<text xml:space="preserve" text-anchor="middle" x="1827" y="-12.95" font-family="Courier,monospace" font-size="14.00" fill="#008040">Load</text>
</g>
<!-- 67&#45;&#45;69 -->
<g id="edge69" class="edge">
<title>67--69</title>
<path fill="none" stroke="black" d="M1762,-71C1762,-71 1787.07,-50.94 1806.08,-35.74"/>
</g>
<!-- 71 -->
<g id="node72" class="node">
<title>71</title>
<text xml:space="preserve" text-anchor="start" x="1561.5" y="-301.95" font-family="Courier,monospace" font-weight="bold" font-size="14.00" fill="#004080">Name</text>
</g>
<!-- 70&#45;&#45;71 -->
<g id="edge71" class="edge">
<title>70--71</title>
<path fill="none" stroke="black" d="M1168.5,-371.85C1252.23,-358.59 1474.15,-323.45 1551.2,-311.24"/>
</g>
<!-- 72 -->
<g id="node73" class="node">
<title>72</title>
<text xml:space="preserve" text-anchor="middle" x="1578" y="-228.95" font-family="Courier,monospace" font-size="14.00" fill="#008040">"z"</text>
</g>
<!-- 71&#45;&#45;72 -->
<g id="edge72" class="edge">
<title>71--72</title>
<path fill="none" stroke="black" d="M1585,-287C1585,-287 1582.3,-266.94 1580.25,-251.74"/>
</g>
<!-- 73 -->
<g id="node74" class="node">
<title>73</title>
<text xml:space="preserve" text-anchor="middle" x="1650" y="-228.95" font-family="Courier,monospace" font-size="14.00" fill="#008040">Load</text>
</g>
<!-- 71&#45;&#45;73 -->
<g id="edge73" class="edge">
<title>71--73</title>
<path fill="none" stroke="black" d="M1585,-287C1585,-287 1610.07,-266.94 1629.08,-251.74"/>
</g>
</g>
</svg>