<?xml version="1.0" encoding="UTF-8" standalone="no"?>
<!DOCTYPE svg PUBLIC "-//W3C//DTD SVG 1.1//EN"
 "http://www.w3.org/Graphics/SVG/1.1/DTD/svg11.dtd">
<!-- Generated by graphviz version 14.0.2 (20251019.1705)
 -->
<!-- Pages: 1 -->
<svg width="692pt" height="44pt"
 viewBox="0.00 0.00 692.00 44.00" xmlns="http://www.w3.org/2000/svg" xmlns:xlink="http://www.w3.org/1999/xlink">
<g id="graph0" class="graph" transform="scale(1 1) rotate(0) translate(4 40)">
<polygon fill="white" stroke="none" points="-4,4 -4,-40 688,-40 688,4 -4,4"/>
<!-- v1 -->
<g id="node1" class="node">
<title>v1</title>
<polygon fill="peachpuff" stroke="black" points="54,-36 0,-36 0,0 54,0 54,-36"/>
<text xml:space="preserve" text-anchor="middle" x="27" y="-13.32" font-family="Raleway" font-size="14.00">v1 ✔</text>
</g>
<!-- v2 -->
<g id="node2" class="node">
<title>v2</title>
<polygon fill="peachpuff" stroke="black" points="144,-36 90,-36 90,0 144,0 144,-36"/>
<text xml:space="preserve" text-anchor="middle" x="117" y="-13.32" font-family="Raleway" font-size="14.00">v2 ?</text>
</g>
<!-- v1&#45;&gt;v2 -->
<g id="edge1" class="edge">
<title>v1&#45;&gt;v2</title>
<path fill="none" stroke="black" d="M54.4,-18C61.89,-18 70.18,-18 78.2,-18"/>
<polygon fill="black" stroke="black" points="78.1,-21.5 88.1,-18 78.1,-14.5 78.1,-21.5"/>
</g>
<!-- v3 -->
<g id="node3" class="node">
<title>v3</title>
<polygon fill="peachpuff" stroke="black" points="234,-36 180,-36 180,0 234,0 234,-36"/>
<text xml:space="preserve" text-anchor="middle" x="207" y="-13.32" font-family="Raleway" font-size="14.00">v3 ✘</text>
</g>
<!-- v2&#45;&gt;v3 -->
<g id="edge2" class="edge">
<title>v2&#45;&gt;v3</title>
<path fill="none" stroke="black" d="M144.4,-18C151.89,-18 160.18,-18 168.2,-18"/>
<polygon fill="black" stroke="black" points="168.1,-21.5 178.1,-18 168.1,-14.5 168.1,-21.5"/>
</g>
<!-- v4 -->
<g id="node4" class="node">
<title>v4</title>
<polygon fill="peachpuff" stroke="black" points="324,-36 270,-36 270,0 324,0 324,-36"/>
<text xml:space="preserve" text-anchor="middle" x="297" y="-13.32" font-family="Raleway" font-size="14.00">v4 ✘</text>
</g>
<!-- v3&#45;&gt;v4 -->
<g id="edge3" class="edge">
<title>v3&#45;&gt;v4</title>
<path fill="none" stroke="black" d="M234.4,-18C241.89,-18 250.18,-18 258.2,-18"/>
<polygon fill="black" stroke="black" points="258.1,-21.5 268.1,-18 258.1,-14.5 258.1,-21.5"/>
</g>
<!-- v5 -->
<g id="node5" class="node">
<title>v5</title>
<polygon fill="peachpuff" stroke="black" points="414,-36 360,-36 360,0 414,0 414,-36"/>
<text xml:space="preserve" text-anchor="middle" x="387" y="-13.32" font-family="Raleway" font-size="14.00">v5</text>
</g>
<!-- v4&#45;&gt;v5 -->
<g id="edge4" class="edge">
<title>v4&#45;&gt;v5</title>
<path fill="none" stroke="black" d="M324.4,-18C331.89,-18 340.18,-18 348.2,-18"/>
<polygon fill="black" stroke="black" points="348.1,-21.5 358.1,-18 348.1,-14.5 348.1,-21.5"/>
</g>
<!-- v6 -->
<g id="node6" class="node">
<title>v6</title>
<polygon fill="peachpuff" stroke="black" points="504,-36 450,-36 450,0 504,0 504,-36"/>
<text xml:space="preserve" text-anchor="middle" x="477" y="-13.32" font-family="Raleway" font-size="14.00">v6</text>
</g>
<!-- v5&#45;&gt;v6 -->
<g id="edge5" class="edge">
<title>v5&#45;&gt;v6</title>
<path fill="none" stroke="black" d="M414.4,-18C421.89,-18 430.18,-18 438.2,-18"/>
<polygon fill="black" stroke="black" points="438.1,-21.5 448.1,-18 438.1,-14.5 438.1,-21.5"/>
</g>
<!-- v7 -->
<g id="node7" class="node">
<title>v7</title>
<polygon fill="peachpuff" stroke="black" points="594,-36 540,-36 540,0 594,0 594,-36"/>
<text xml:space="preserve" text-anchor="middle" x="567" y="-13.32" font-family="Raleway" font-size="14.00">v7</text>
</g>
<!-- v6&#45;&gt;v7 -->
<g id="edge6" class="edge">
<title>v6&#45;&gt;v7</title>
<path fill="none" stroke="black" d="M504.4,-18C511.89,-18 520.18,-18 528.2,-18"/>
<polygon fill="black" stroke="black" points="528.1,-21.5 538.1,-18 528.1,-14.5 528.1,-21.5"/>
</g>
<!-- v8 -->
<g id="node8" class="node">
<title>v8</title>
<polygon fill="peachpuff" stroke="black" points="684,-36 630,-36 630,0 684,0 684,-36"/>
<text xml:space="preserve" text-anchor="middle" x="657" y="-13.32" font-family="Raleway" font-size="14.00">v8 ✘</text>
</g>
<!-- v7&#45;&gt;v8 -->
<g id="edge7" class="edge">
<title>v7&#45;&gt;v8</title>
<path fill="none" stroke="black" d="M594.4,-18C601.89,-18 610.18,-18 618.2,-18"/>
<polygon fill="black" stroke="black" points="618.1,-21.5 628.1,-18 618.1,-14.5 618.1,-21.5"/>
</g>
</g>
</svg>