<?xml version="1.0" encoding="UTF-8" standalone="no"?>
<!DOCTYPE svg PUBLIC "-//W3C//DTD SVG 1.1//EN"
 "http://www.w3.org/Graphics/SVG/1.1/DTD/svg11.dtd">
<!-- Generated by graphviz version 14.0.2 (20251019.1705)
 -->
<!-- Title: dependencies Pages: 1 -->
<svg width="463pt" height="352pt"
 viewBox="0.00 0.00 463.00 352.00" xmlns="http://www.w3.org/2000/svg" xmlns:xlink="http://www.w3.org/1999/xlink">
<g id="graph0" class="graph" transform="scale(1 1) rotate(0) translate(4 348)">
<title>dependencies</title>
<polygon fill="white" stroke="none" points="-4,4 -4,-348 458.65,-348 458.65,4 -4,4"/>
<!-- z_functionmiddleat0x10d554b80_1 -->
<g id="node1" class="node">
<title>z_functionmiddleat0x10d554b80_1</title>
<g id="a_node1"><a xlink:title="middle:1">
<polygon fill="peachpuff" stroke="black" points="428,-344 223,-344 223,-304 428,-304 428,-344"/>
<text xml:space="preserve" text-anchor="start" x="321.38" y="-327.7" font-family="Courier,monospace" font-weight="bold" font-size="14.00">z</text>
<text xml:space="preserve" text-anchor="start" x="231" y="-309.45" font-family="Courier,monospace" font-size="9.00">def middle(x, y, z): &#160;# type: ignore</text>
</a>
</g>
</g>
<!-- test_functionmiddleat0x10d554b80_5 -->
<g id="node4" class="node">
<title>test_functionmiddleat0x10d554b80_5</title>
<g id="a_node4"><a xlink:title="middle:5">
<polygon fill="peachpuff" stroke="black" points="219.38,-116 145.62,-116 145.62,-76 219.38,-76 219.38,-116"/>
<text xml:space="preserve" text-anchor="start" x="157.75" y="-99.7" font-family="Courier,monospace" font-weight="bold" font-style="italic" font-size="14.00">&lt;test&gt;</text>
<text xml:space="preserve" text-anchor="start" x="153.62" y="-81.45" font-family="Courier,monospace" font-size="9.00">elif x &lt; z:</text>
</a>
</g>
</g>
<!-- z_functionmiddleat0x10d554b80_1&#45;&gt;test_functionmiddleat0x10d554b80_5 -->
<g id="edge3" class="edge">
<title>z_functionmiddleat0x10d554b80_1&#45;&gt;test_functionmiddleat0x10d554b80_5</title>
<path fill="none" stroke="black" d="M403.32,-303.64C420.73,-295.53 437.1,-284.1 447.5,-268 457.15,-253.07 456.88,-243.1 447.5,-228 400.08,-151.66 293.55,-118.47 230.96,-105.11"/>
<polygon fill="black" stroke="black" points="231.79,-101.71 221.29,-103.14 230.39,-108.56 231.79,-101.71"/>
</g>
<!-- test_functionmiddleat0x10d554b80_2 -->
<g id="node7" class="node">
<title>test_functionmiddleat0x10d554b80_2</title>
<g id="a_node7"><a xlink:title="middle:2">
<polygon fill="peachpuff" stroke="black" points="215.25,-268 149.75,-268 149.75,-228 215.25,-228 215.25,-268"/>
<text xml:space="preserve" text-anchor="start" x="157.75" y="-251.7" font-family="Courier,monospace" font-weight="bold" font-style="italic" font-size="14.00">&lt;test&gt;</text>
<text xml:space="preserve" text-anchor="start" x="158.88" y="-233.45" font-family="Courier,monospace" font-size="9.00">if y &lt; z:</text>
</a>
</g>
</g>
<!-- z_functionmiddleat0x10d554b80_1&#45;&gt;test_functionmiddleat0x10d554b80_2 -->
<g id="edge6" class="edge">
<title>z_functionmiddleat0x10d554b80_1&#45;&gt;test_functionmiddleat0x10d554b80_2</title>
<path fill="none" stroke="black" d="M281.91,-303.56C263.44,-294.42 242.06,-283.43 223.85,-273.71"/>
<polygon fill="black" stroke="black" points="225.61,-270.68 215.14,-269.03 222.29,-276.85 225.61,-270.68"/>
</g>
<!-- z_functionmiddleat0x10d554b80_1&#45;&gt;test_functionmiddleat0x10d554b80_2 -->
<!-- middlereturnvalue_functionmiddleat0x10d554b80_6 -->
<g id="node2" class="node">
<title>middlereturnvalue_functionmiddleat0x10d554b80_6</title>
<g id="a_node2"><a xlink:title="middle:6">
<polygon fill="peachpuff" stroke="black" points="285.38,-40 79.62,-40 79.62,0 285.38,0 285.38,-40"/>
<text xml:space="preserve" text-anchor="start" x="87.62" y="-23.7" font-family="Courier,monospace" font-weight="bold" font-style="italic" font-size="14.00">&lt;middle() return value&gt;</text>
<text xml:space="preserve" text-anchor="start" x="161.5" y="-5.45" font-family="Courier,monospace" font-size="9.00">return y</text>
</a>
</g>
</g>
<!-- y_functionmiddleat0x10d554b80_1 -->
<g id="node3" class="node">
<title>y_functionmiddleat0x10d554b80_1</title>
<g id="a_node3"><a xlink:title="middle:1">
<polygon fill="peachpuff" stroke="black" points="205,-344 0,-344 0,-304 205,-304 205,-344"/>
<text xml:space="preserve" text-anchor="start" x="98.38" y="-327.7" font-family="Courier,monospace" font-weight="bold" font-size="14.00">y</text>
<text xml:space="preserve" text-anchor="start" x="8" y="-309.45" font-family="Courier,monospace" font-size="9.00">def middle(x, y, z): &#160;# type: ignore</text>
</a>
</g>
</g>
<!-- y_functionmiddleat0x10d554b80_1&#45;&gt;middlereturnvalue_functionmiddleat0x10d554b80_6 -->
<g id="edge1" class="edge">
<title>y_functionmiddleat0x10d554b80_1&#45;&gt;middlereturnvalue_functionmiddleat0x10d554b80_6</title>
<path fill="none" stroke="black" d="M101.63,-303.76C100.43,-260.86 101.55,-154.97 136.5,-76 140.83,-66.22 147.43,-56.81 154.3,-48.62"/>
<polygon fill="black" stroke="black" points="156.71,-51.18 160.75,-41.39 151.48,-46.52 156.71,-51.18"/>
</g>
<!-- test_functionmiddleat0x10d554b80_3 -->
<g id="node6" class="node">
<title>test_functionmiddleat0x10d554b80_3</title>
<g id="a_node6"><a xlink:title="middle:3">
<polygon fill="peachpuff" stroke="black" points="215.25,-192 149.75,-192 149.75,-152 215.25,-152 215.25,-192"/>
<text xml:space="preserve" text-anchor="start" x="157.75" y="-175.7" font-family="Courier,monospace" font-weight="bold" font-style="italic" font-size="14.00">&lt;test&gt;</text>
<text xml:space="preserve" text-anchor="start" x="158.88" y="-157.45" font-family="Courier,monospace" font-size="9.00">if x &lt; y:</text>
</a>
</g>
</g>
<!-- y_functionmiddleat0x10d554b80_1&#45;&gt;test_functionmiddleat0x10d554b80_3 -->
<g id="edge9" class="edge">
<title>y_functionmiddleat0x10d554b80_1&#45;&gt;test_functionmiddleat0x10d554b80_3</title>
<path fill="none" stroke="black" d="M108.48,-303.74C114.99,-284.03 126.38,-252.87 140.5,-228 145.67,-218.89 152.19,-209.61 158.54,-201.32"/>
<polygon fill="black" stroke="black" points="161.16,-203.66 164.62,-193.65 155.67,-199.31 161.16,-203.66"/>
</g>
<!-- y_functionmiddleat0x10d554b80_1&#45;&gt;test_functionmiddleat0x10d554b80_2 -->
<g id="edge7" class="edge">
<title>y_functionmiddleat0x10d554b80_1&#45;&gt;test_functionmiddleat0x10d554b80_2</title>
<path fill="none" stroke="black" d="M123.52,-303.56C132.61,-295.14 143.41,-285.16 153.27,-276.04"/>
<polygon fill="black" stroke="black" points="155.55,-278.7 160.51,-269.34 150.79,-273.56 155.55,-278.7"/>
</g>
<!-- test_functionmiddleat0x10d554b80_5&#45;&gt;middlereturnvalue_functionmiddleat0x10d554b80_6 -->
<g id="edge2" class="edge">
<title>test_functionmiddleat0x10d554b80_5&#45;&gt;middlereturnvalue_functionmiddleat0x10d554b80_6</title>
<path fill="none" stroke="grey" stroke-dasharray="5,2" d="M176.48,-75.56C175.82,-68.25 175.61,-59.75 175.84,-51.67"/>
<polygon fill="grey" stroke="grey" points="179.32,-52.01 176.4,-41.82 172.34,-51.61 179.32,-52.01"/>
</g>
<!-- test_functionmiddleat0x10d554b80_5&#45;&gt;middlereturnvalue_functionmiddleat0x10d554b80_6 -->
<!-- x_functionmiddleat0x10d554b80_1 -->
<g id="node5" class="node">
<title>x_functionmiddleat0x10d554b80_1</title>
<g id="a_node5"><a xlink:title="middle:1">
<polygon fill="peachpuff" stroke="black" points="438,-268 233,-268 233,-228 438,-228 438,-268"/>
<text xml:space="preserve" text-anchor="start" x="331.38" y="-251.7" font-family="Courier,monospace" font-weight="bold" font-size="14.00">x</text>
<text xml:space="preserve" text-anchor="start" x="241" y="-233.45" font-family="Courier,monospace" font-size="9.00">def middle(x, y, z): &#160;# type: ignore</text>
</a>
</g>
</g>
<!-- x_functionmiddleat0x10d554b80_1&#45;&gt;test_functionmiddleat0x10d554b80_5 -->
<g id="edge4" class="edge">
<title>x_functionmiddleat0x10d554b80_1&#45;&gt;test_functionmiddleat0x10d554b80_5</title>
<path fill="none" stroke="black" d="M315.81,-227.7C288.96,-201.37 240.71,-154.07 210.21,-124.17"/>
<polygon fill="black" stroke="black" points="212.79,-121.79 203.19,-117.29 207.88,-126.79 212.79,-121.79"/>
</g>
<!-- x_functionmiddleat0x10d554b80_1&#45;&gt;test_functionmiddleat0x10d554b80_3 -->
<g id="edge8" class="edge">
<title>x_functionmiddleat0x10d554b80_1&#45;&gt;test_functionmiddleat0x10d554b80_3</title>
<path fill="none" stroke="black" d="M295.3,-227.56C274,-217.25 247.8,-204.58 226.02,-194.05"/>
<polygon fill="black" stroke="black" points="227.61,-190.93 217.08,-189.73 224.56,-197.23 227.61,-190.93"/>
</g>
<!-- test_functionmiddleat0x10d554b80_3&#45;&gt;test_functionmiddleat0x10d554b80_5 -->
<g id="edge5" class="edge">
<title>test_functionmiddleat0x10d554b80_3&#45;&gt;test_functionmiddleat0x10d554b80_5</title>
<path fill="none" stroke="grey" stroke-dasharray="5,2" d="M176.48,-151.56C175.82,-144.25 175.61,-135.75 175.84,-127.67"/>
<polygon fill="grey" stroke="grey" points="179.32,-128.01 176.4,-117.82 172.34,-127.61 179.32,-128.01"/>
</g>
<!-- test_functionmiddleat0x10d554b80_3&#45;&gt;test_functionmiddleat0x10d554b80_5 -->
<!-- test_functionmiddleat0x10d554b80_2&#45;&gt;test_functionmiddleat0x10d554b80_3 -->
<g id="edge10" class="edge">
<title>test_functionmiddleat0x10d554b80_2&#45;&gt;test_functionmiddleat0x10d554b80_3</title>
<path fill="none" stroke="grey" stroke-dasharray="5,2" d="M176.48,-227.56C175.82,-220.25 175.61,-211.75 175.84,-203.67"/>
<polygon fill="grey" stroke="grey" points="179.32,-204.01 176.4,-193.82 172.34,-203.61 179.32,-204.01"/>
</g>
<!-- test_functionmiddleat0x10d554b80_2&#45;&gt;test_functionmiddleat0x10d554b80_3 -->
</g>
</svg>