<?xml version="1.0" encoding="UTF-8" standalone="no"?>
<!DOCTYPE svg PUBLIC "-//W3C//DTD SVG 1.1//EN"
 "http://www.w3.org/Graphics/SVG/1.1/DTD/svg11.dtd">
<!-- Generated by graphviz version 14.0.2 (20251019.1705)
 -->
<!-- Title: dependencies Pages: 1 -->
<svg width="205pt" height="276pt"
 viewBox="0.00 0.00 205.00 276.00" xmlns="http://www.w3.org/2000/svg" xmlns:xlink="http://www.w3.org/1999/xlink">
<g id="graph0" class="graph" transform="scale(1 1) rotate(0) translate(4 272)">
<title>dependencies</title>
<polygon fill="white" stroke="none" points="-4,4 -4,-272 200.5,-272 200.5,4 -4,4"/>
<!-- s_functionremove_html_markupat0x10e69b100_255 -->
<g id="node1" class="node">
<title>s_functionremove_html_markupat0x10e69b100_255</title>
<g id="a_node1"><a xlink:title="remove_html_markup:255">
<polygon fill="peachpuff" stroke="black" points="68.5,-268 0,-268 0,-228 68.5,-228 68.5,-268"/>
<text xml:space="preserve" text-anchor="start" x="30.12" y="-251.7" font-family="Courier,monospace" font-weight="bold" font-size="14.00">s</text>
<text xml:space="preserve" text-anchor="start" x="8" y="-233.45" font-family="Courier,monospace" font-size="9.00">return out</text>
</a>
</g>
</g>
<!-- c_functionremove_html_markupat0x10e69b100_243 -->
<g id="node5" class="node">
<title>c_functionremove_html_markupat0x10e69b100_243</title>
<g id="a_node5"><a xlink:title="remove_html_markup:243">
<polygon fill="peachpuff" stroke="black" points="137.12,-192 63.38,-192 63.38,-152 137.12,-152 137.12,-192"/>
<text xml:space="preserve" text-anchor="start" x="96.12" y="-175.7" font-family="Courier,monospace" font-weight="bold" font-size="14.00">c</text>
<text xml:space="preserve" text-anchor="start" x="71.38" y="-157.45" font-family="Courier,monospace" font-size="9.00">for c in s:</text>
</a>
</g>
</g>
<!-- s_functionremove_html_markupat0x10e69b100_255&#45;&gt;c_functionremove_html_markupat0x10e69b100_243 -->
<g id="edge2" class="edge">
<title>s_functionremove_html_markupat0x10e69b100_255&#45;&gt;c_functionremove_html_markupat0x10e69b100_243</title>
<path fill="none" stroke="black" d="M51.59,-227.56C58.87,-219.4 67.46,-209.76 75.39,-200.87"/>
<polygon fill="black" stroke="black" points="77.97,-203.23 82.02,-193.44 72.75,-198.58 77.97,-203.23"/>
</g>
<!-- quote_functionremove_html_markupat0x10e69b100_240 -->
<g id="node2" class="node">
<title>quote_functionremove_html_markupat0x10e69b100_240</title>
<g id="a_node2"><a xlink:title="remove_html_markup:240">
<polygon fill="peachpuff" stroke="black" points="179.38,-268 95.12,-268 95.12,-228 179.38,-228 179.38,-268"/>
<text xml:space="preserve" text-anchor="start" x="116.62" y="-251.7" font-family="Courier,monospace" font-weight="bold" font-size="14.00">quote</text>
<text xml:space="preserve" text-anchor="start" x="103.12" y="-233.45" font-family="Courier,monospace" font-size="9.00">quote = False</text>
</a>
</g>
</g>
<!-- test_functionremove_html_markupat0x10e69b100_246 -->
<g id="node4" class="node">
<title>test_functionremove_html_markupat0x10e69b100_246</title>
<g id="a_node4"><a xlink:title="remove_html_markup:246">
<polygon fill="peachpuff" stroke="black" points="196.5,-116 44,-116 44,-76 196.5,-76 196.5,-116"/>
<text xml:space="preserve" text-anchor="start" x="95.5" y="-99.7" font-family="Courier,monospace" font-weight="bold" font-style="italic" font-size="14.00">&lt;test&gt;</text>
<text xml:space="preserve" text-anchor="start" x="52" y="-81.45" font-family="Courier,monospace" font-size="9.00">if c == &#39;&lt;&#39; and not quote:</text>
</a>
</g>
</g>
<!-- quote_functionremove_html_markupat0x10e69b100_240&#45;&gt;test_functionremove_html_markupat0x10e69b100_246 -->
<g id="edge3" class="edge">
<title>quote_functionremove_html_markupat0x10e69b100_240&#45;&gt;test_functionremove_html_markupat0x10e69b100_246</title>
<path fill="none" stroke="black" d="M142.55,-227.85C147.09,-208.51 152.06,-177.86 146.25,-152 144.3,-143.33 140.83,-134.42 137.04,-126.36"/>
<polygon fill="black" stroke="black" points="140.3,-125.05 132.66,-117.7 134.05,-128.2 140.3,-125.05"/>
</g>
<!-- quote_functionremove_html_markupat0x10e69b100_240&#45;&gt;c_functionremove_html_markupat0x10e69b100_243 -->
<!-- tag_functionremove_html_markupat0x10e69b100_247 -->
<g id="node3" class="node">
<title>tag_functionremove_html_markupat0x10e69b100_247</title>
<g id="a_node3"><a xlink:title="remove_html_markup:247">
<polygon fill="peachpuff" stroke="black" points="154.5,-40 86,-40 86,0 154.5,0 154.5,-40"/>
<text xml:space="preserve" text-anchor="start" x="107.88" y="-23.7" font-family="Courier,monospace" font-weight="bold" font-size="14.00">tag</text>
<text xml:space="preserve" text-anchor="start" x="94" y="-5.45" font-family="Courier,monospace" font-size="9.00">tag = True</text>
</a>
</g>
</g>
<!-- tag_functionremove_html_markupat0x10e69b100_247&#45;&gt;s_functionremove_html_markupat0x10e69b100_255 -->
<!-- test_functionremove_html_markupat0x10e69b100_246&#45;&gt;tag_functionremove_html_markupat0x10e69b100_247 -->
<g id="edge1" class="edge">
<title>test_functionremove_html_markupat0x10e69b100_246&#45;&gt;tag_functionremove_html_markupat0x10e69b100_247</title>
<path fill="none" stroke="grey" stroke-dasharray="5,2" d="M114.23,-75.56C113.57,-68.25 113.36,-59.75 113.59,-51.67"/>
<polygon fill="grey" stroke="grey" points="117.07,-52.01 114.15,-41.82 110.09,-51.61 117.07,-52.01"/>
</g>
<!-- test_functionremove_html_markupat0x10e69b100_246&#45;&gt;tag_functionremove_html_markupat0x10e69b100_247 -->
<!-- c_functionremove_html_markupat0x10e69b100_243&#45;&gt;test_functionremove_html_markupat0x10e69b100_246 -->
<g id="edge4" class="edge">
<title>c_functionremove_html_markupat0x10e69b100_243&#45;&gt;test_functionremove_html_markupat0x10e69b100_246</title>
<path fill="none" stroke="black" d="M99.48,-151.56C100.83,-144.08 102.98,-135.36 105.47,-127.11"/>
<polygon fill="black" stroke="black" points="108.75,-128.34 108.55,-117.75 102.1,-126.16 108.75,-128.34"/>
</g>
<!-- c_functionremove_html_markupat0x10e69b100_243&#45;&gt;test_functionremove_html_markupat0x10e69b100_246 -->
</g>
</svg>