<?xml version="1.0" encoding="UTF-8" standalone="no"?>
<!DOCTYPE svg PUBLIC "-//W3C//DTD SVG 1.1//EN"
 "http://www.w3.org/Graphics/SVG/1.1/DTD/svg11.dtd">
<!-- Generated by graphviz version 14.0.2 (20251019.1705)
 -->
<!-- Pages: 1 -->
<svg width="993pt" height="764pt"
 viewBox="0.00 0.00 993.00 764.00" xmlns="http://www.w3.org/2000/svg" xmlns:xlink="http://www.w3.org/1999/xlink">
<g id="graph0" class="graph" transform="scale(1 1) rotate(0) translate(4 760)">
<polygon fill="white" stroke="none" points="-4,4 -4,-760 989,-760 989,4 -4,4"/>
<!-- 0 -->
<g id="node1" class="node">
<title>0</title>
<polygon fill="none" stroke="white" points="410.88,-756 353.12,-756 353.12,-720 410.88,-720 410.88,-756"/>
<text xml:space="preserve" text-anchor="middle" x="382" y="-733.33" font-family="'Fira Mono', 'Source Code Pro', 'Courier', monospace" font-size="14.00" fill="#0060a0">&lt;start&gt;</text>
</g>
<!-- 1 -->
<g id="node2" class="node">
<title>1</title>
<polygon fill="none" stroke="white" points="409,-684 355,-684 355,-648 409,-648 409,-684"/>
<text xml:space="preserve" text-anchor="middle" x="382" y="-661.33" font-family="'Fira Mono', 'Source Code Pro', 'Courier', monospace" font-size="14.00" fill="#0060a0">&lt;html&gt;</text>
</g>
<!-- 0&#45;&gt;1 -->
<g id="edge1" class="edge">
<title>0&#45;&gt;1</title>
<path fill="none" stroke="black" d="M382,-719.7C382,-712.41 382,-703.73 382,-695.54"/>
<polygon fill="black" stroke="black" points="385.5,-695.62 382,-685.62 378.5,-695.62 385.5,-695.62"/>
</g>
<!-- 2 -->
<g id="node3" class="node">
<title>2</title>
<polygon fill="none" stroke="white" points="435.62,-612 328.38,-612 328.38,-576 435.62,-576 435.62,-612"/>
<text xml:space="preserve" text-anchor="middle" x="382" y="-589.33" font-family="'Fira Mono', 'Source Code Pro', 'Courier', monospace" font-size="14.00" fill="#0060a0">&lt;tagged&#45;text&gt;</text>
</g>
<!-- 1&#45;&gt;2 -->
<g id="edge2" class="edge">
<title>1&#45;&gt;2</title>
<path fill="none" stroke="black" d="M382,-647.7C382,-640.41 382,-631.73 382,-623.54"/>
<polygon fill="black" stroke="black" points="385.5,-623.62 382,-613.62 378.5,-623.62 385.5,-623.62"/>
</g>
<!-- 3 -->
<g id="node4" class="node">
<title>3</title>
<polygon fill="none" stroke="white" points="299.62,-540 192.38,-540 192.38,-504 299.62,-504 299.62,-540"/>
<text xml:space="preserve" text-anchor="middle" x="246" y="-517.33" font-family="'Fira Mono', 'Source Code Pro', 'Courier', monospace" font-size="14.00" fill="#0060a0">&lt;opening&#45;tag&gt;</text>
</g>
<!-- 2&#45;&gt;3 -->
<g id="edge3" class="edge">
<title>2&#45;&gt;3</title>
<path fill="none" stroke="black" d="M348.03,-575.52C330.37,-566.43 308.59,-555.22 289.69,-545.49"/>
<polygon fill="black" stroke="black" points="291.37,-542.42 280.88,-540.95 288.17,-548.64 291.37,-542.42"/>
</g>
<!-- 17 -->
<g id="node18" class="node">
<title>17</title>
<polygon fill="none" stroke="white" points="409,-540 355,-540 355,-504 409,-504 409,-540"/>
<text xml:space="preserve" text-anchor="middle" x="382" y="-517.33" font-family="'Fira Mono', 'Source Code Pro', 'Courier', monospace" font-size="14.00" fill="#0060a0">&lt;html&gt;</text>
</g>
<!-- 2&#45;&gt;17 -->
<g id="edge17" class="edge">
<title>2&#45;&gt;17</title>
<path fill="none" stroke="black" d="M382,-575.7C382,-568.41 382,-559.73 382,-551.54"/>
<polygon fill="black" stroke="black" points="385.5,-551.62 382,-541.62 378.5,-551.62 385.5,-551.62"/>
</g>
<!-- 35 -->
<g id="node36" class="node">
<title>35</title>
<polygon fill="none" stroke="white" points="804.62,-540 697.38,-540 697.38,-504 804.62,-504 804.62,-540"/>
<text xml:space="preserve" text-anchor="middle" x="751" y="-517.33" font-family="'Fira Mono', 'Source Code Pro', 'Courier', monospace" font-size="14.00" fill="#0060a0">&lt;closing&#45;tag&gt;</text>
</g>
<!-- 2&#45;&gt;35 -->
<g id="edge35" class="edge">
<title>2&#45;&gt;35</title>
<path fill="none" stroke="black" d="M436.05,-582.75C502.46,-570.15 615.04,-548.79 686.07,-535.32"/>
<polygon fill="black" stroke="black" points="686.45,-538.81 695.62,-533.51 685.14,-531.93 686.45,-538.81"/>
</g>
<!-- 4 -->
<g id="node5" class="node">
<title>4</title>
<polygon fill="none" stroke="white" points="106,-468 52,-468 52,-432 106,-432 106,-468"/>
<text xml:space="preserve" text-anchor="middle" x="79" y="-445.32" font-family="'Fira Mono', 'Source Code Pro', 'Courier', monospace" font-size="14.00" fill="#0060a0">&lt;lt&gt;</text>
</g>
<!-- 3&#45;&gt;4 -->
<g id="edge4" class="edge">
<title>3&#45;&gt;4</title>
<path fill="none" stroke="black" d="M204.29,-503.52C177.49,-492.28 142.96,-477.81 116.94,-466.9"/>
<polygon fill="black" stroke="black" points="118.32,-463.69 107.75,-463.05 115.62,-470.14 118.32,-463.69"/>
</g>
<!-- 6 -->
<g id="node7" class="node">
<title>6</title>
<polygon fill="none" stroke="white" points="217,-468 163,-468 163,-432 217,-432 217,-468"/>
<text xml:space="preserve" text-anchor="middle" x="190" y="-445.32" font-family="'Fira Mono', 'Source Code Pro', 'Courier', monospace" font-size="14.00" fill="#0060a0">&lt;id&gt;</text>
</g>
<!-- 3&#45;&gt;6 -->
<g id="edge6" class="edge">
<title>3&#45;&gt;6</title>
<path fill="none" stroke="black" d="M232.16,-503.7C225.71,-495.64 217.92,-485.89 210.79,-476.98"/>
<polygon fill="black" stroke="black" points="213.61,-474.91 204.63,-469.29 208.14,-479.28 213.61,-474.91"/>
</g>
<!-- 15 -->
<g id="node16" class="node">
<title>15</title>
<polygon fill="none" stroke="white" points="292,-468 238,-468 238,-432 292,-432 292,-468"/>
<text xml:space="preserve" text-anchor="middle" x="265" y="-445.32" font-family="'Fira Mono', 'Source Code Pro', 'Courier', monospace" font-size="14.00" fill="#0060a0">&lt;gt&gt;</text>
</g>
<!-- 3&#45;&gt;15 -->
<g id="edge15" class="edge">
<title>3&#45;&gt;15</title>
<path fill="none" stroke="black" d="M250.7,-503.7C252.72,-496.24 255.14,-487.32 257.41,-478.97"/>
<polygon fill="black" stroke="black" points="260.72,-480.13 259.96,-469.57 253.96,-478.3 260.72,-480.13"/>
</g>
<!-- 5 -->
<g id="node6" class="node">
<title>5</title>
<polygon fill="none" stroke="white" points="67,-396 13,-396 13,-360 67,-360 67,-396"/>
<text xml:space="preserve" text-anchor="middle" x="40" y="-373.32" font-family="'Fira Mono', 'Source Code Pro', 'Courier', monospace" font-size="14.00" fill="#0060a0">&lt; (60)</text>
</g>
<!-- 4&#45;&gt;5 -->
<g id="edge5" class="edge">
<title>4&#45;&gt;5</title>
<path fill="none" stroke="black" d="M69.36,-431.7C65.06,-423.98 59.9,-414.71 55.11,-406.11"/>
<polygon fill="black" stroke="black" points="58.19,-404.46 50.27,-397.43 52.08,-407.87 58.19,-404.46"/>
</g>
<!-- 7 -->
<g id="node8" class="node">
<title>7</title>
<polygon fill="none" stroke="white" points="139,-396 85,-396 85,-360 139,-360 139,-396"/>
<text xml:space="preserve" text-anchor="middle" x="112" y="-373.32" font-family="'Fira Mono', 'Source Code Pro', 'Courier', monospace" font-size="14.00" fill="#0060a0">&lt;id&gt;</text>
</g>
<!-- 6&#45;&gt;7 -->
<g id="edge7" class="edge">
<title>6&#45;&gt;7</title>
<path fill="none" stroke="black" d="M170.72,-431.7C161.34,-423.28 149.91,-413.02 139.62,-403.79"/>
<polygon fill="black" stroke="black" points="142.24,-401.43 132.46,-397.36 137.56,-406.64 142.24,-401.43"/>
</g>
<!-- 13 -->
<g id="node14" class="node">
<title>13</title>
<polygon fill="none" stroke="white" points="223,-396 157,-396 157,-360 223,-360 223,-396"/>
<text xml:space="preserve" text-anchor="middle" x="190" y="-373.32" font-family="'Fira Mono', 'Source Code Pro', 'Courier', monospace" font-size="14.00" fill="#0060a0">&lt;letter&gt;</text>
</g>
<!-- 6&#45;&gt;13 -->
<g id="edge13" class="edge">
<title>6&#45;&gt;13</title>
<path fill="none" stroke="black" d="M190,-431.7C190,-424.41 190,-415.73 190,-407.54"/>
<polygon fill="black" stroke="black" points="193.5,-407.62 190,-397.62 186.5,-407.62 193.5,-407.62"/>
</g>
<!-- 8 -->
<g id="node9" class="node">
<title>8</title>
<polygon fill="none" stroke="white" points="61,-324 7,-324 7,-288 61,-288 61,-324"/>
<text xml:space="preserve" text-anchor="middle" x="34" y="-301.32" font-family="'Fira Mono', 'Source Code Pro', 'Courier', monospace" font-size="14.00" fill="#0060a0">&lt;id&gt;</text>
</g>
<!-- 7&#45;&gt;8 -->
<g id="edge8" class="edge">
<title>7&#45;&gt;8</title>
<path fill="none" stroke="black" d="M92.72,-359.7C83.34,-351.28 71.91,-341.02 61.62,-331.79"/>
<polygon fill="black" stroke="black" points="64.24,-329.43 54.46,-325.36 59.56,-334.64 64.24,-329.43"/>
</g>
<!-- 11 -->
<g id="node12" class="node">
<title>11</title>
<polygon fill="none" stroke="white" points="145,-324 79,-324 79,-288 145,-288 145,-324"/>
<text xml:space="preserve" text-anchor="middle" x="112" y="-301.32" font-family="'Fira Mono', 'Source Code Pro', 'Courier', monospace" font-size="14.00" fill="#0060a0">&lt;letter&gt;</text>
</g>
<!-- 7&#45;&gt;11 -->
<g id="edge11" class="edge">
<title>7&#45;&gt;11</title>
<path fill="none" stroke="black" d="M112,-359.7C112,-352.41 112,-343.73 112,-335.54"/>
<polygon fill="black" stroke="black" points="115.5,-335.62 112,-325.62 108.5,-335.62 115.5,-335.62"/>
</g>
<!-- 9 -->
<g id="node10" class="node">
<title>9</title>
<polygon fill="none" stroke="white" points="66,-252 0,-252 0,-216 66,-216 66,-252"/>
<text xml:space="preserve" text-anchor="middle" x="33" y="-229.32" font-family="'Fira Mono', 'Source Code Pro', 'Courier', monospace" font-size="14.00" fill="#0060a0">&lt;letter&gt;</text>
</g>
<!-- 8&#45;&gt;9 -->
<g id="edge9" class="edge">
<title>8&#45;&gt;9</title>
<path fill="none" stroke="black" d="M33.75,-287.7C33.65,-280.41 33.52,-271.73 33.41,-263.54"/>
<polygon fill="black" stroke="black" points="36.91,-263.57 33.27,-253.62 29.91,-263.67 36.91,-263.57"/>
</g>
<!-- 10 -->
<g id="node11" class="node">
<title>10</title>
<polygon fill="none" stroke="white" points="61.88,-180 4.12,-180 4.12,-144 61.88,-144 61.88,-180"/>
<text xml:space="preserve" text-anchor="middle" x="33" y="-157.32" font-family="'Fira Mono', 'Source Code Pro', 'Courier', monospace" font-size="14.00" fill="#00a060">f (102)</text>
</g>
<!-- 9&#45;&gt;10 -->
<g id="edge10" class="edge">
<title>9&#45;&gt;10</title>
<path fill="none" stroke="black" d="M33,-215.7C33,-208.41 33,-199.73 33,-191.54"/>
<polygon fill="black" stroke="black" points="36.5,-191.62 33,-181.62 29.5,-191.62 36.5,-191.62"/>
</g>
<!-- 12 -->
<g id="node13" class="node">
<title>12</title>
<polygon fill="none" stroke="white" points="141.88,-252 84.12,-252 84.12,-216 141.88,-216 141.88,-252"/>
<text xml:space="preserve" text-anchor="middle" x="113" y="-229.32" font-family="'Fira Mono', 'Source Code Pro', 'Courier', monospace" font-size="14.00" fill="#00a060">o (111)</text>
</g>
<!-- 11&#45;&gt;12 -->
<g id="edge12" class="edge">
<title>11&#45;&gt;12</title>
<path fill="none" stroke="black" d="M112.25,-287.7C112.35,-280.41 112.48,-271.73 112.59,-263.54"/>
<polygon fill="black" stroke="black" points="116.09,-263.67 112.73,-253.62 109.09,-263.57 116.09,-263.67"/>
</g>
<!-- 14 -->
<g id="node15" class="node">
<title>14</title>
<polygon fill="none" stroke="white" points="220.88,-324 163.12,-324 163.12,-288 220.88,-288 220.88,-324"/>
<text xml:space="preserve" text-anchor="middle" x="192" y="-301.32" font-family="'Fira Mono', 'Source Code Pro', 'Courier', monospace" font-size="14.00" fill="#00a060">o (111)</text>
</g>
<!-- 13&#45;&gt;14 -->
<g id="edge14" class="edge">
<title>13&#45;&gt;14</title>
<path fill="none" stroke="black" d="M190.49,-359.7C190.7,-352.41 190.95,-343.73 191.18,-335.54"/>
<polygon fill="black" stroke="black" points="194.68,-335.71 191.47,-325.62 187.68,-335.51 194.68,-335.71"/>
</g>
<!-- 16 -->
<g id="node17" class="node">
<title>16</title>
<polygon fill="none" stroke="white" points="295,-396 241,-396 241,-360 295,-360 295,-396"/>
<text xml:space="preserve" text-anchor="middle" x="268" y="-373.32" font-family="'Fira Mono', 'Source Code Pro', 'Courier', monospace" font-size="14.00" fill="#00a060">&gt; (62)</text>
</g>
<!-- 15&#45;&gt;16 -->
<g id="edge16" class="edge">
<title>15&#45;&gt;16</title>
<path fill="none" stroke="black" d="M265.74,-431.7C266.05,-424.41 266.43,-415.73 266.78,-407.54"/>
<polygon fill="black" stroke="black" points="270.27,-407.76 267.2,-397.62 263.28,-407.46 270.27,-407.76"/>
</g>
<!-- 18 -->
<g id="node19" class="node">
<title>18</title>
<polygon fill="none" stroke="white" points="431.5,-468 332.5,-468 332.5,-432 431.5,-432 431.5,-468"/>
<text xml:space="preserve" text-anchor="middle" x="382" y="-445.32" font-family="'Fira Mono', 'Source Code Pro', 'Courier', monospace" font-size="14.00" fill="#0060a0">&lt;plain&#45;text&gt;</text>
</g>
<!-- 17&#45;&gt;18 -->
<g id="edge18" class="edge">
<title>17&#45;&gt;18</title>
<path fill="none" stroke="black" d="M382,-503.7C382,-496.41 382,-487.73 382,-479.54"/>
<polygon fill="black" stroke="black" points="385.5,-479.62 382,-469.62 378.5,-479.62 385.5,-479.62"/>
</g>
<!-- 19 -->
<g id="node20" class="node">
<title>19</title>
<polygon fill="none" stroke="white" points="412.5,-396 313.5,-396 313.5,-360 412.5,-360 412.5,-396"/>
<text xml:space="preserve" text-anchor="middle" x="363" y="-373.32" font-family="'Fira Mono', 'Source Code Pro', 'Courier', monospace" font-size="14.00" fill="#0060a0">&lt;plain&#45;char&gt;</text>
</g>
<!-- 18&#45;&gt;19 -->
<g id="edge19" class="edge">
<title>18&#45;&gt;19</title>
<path fill="none" stroke="black" d="M377.3,-431.7C375.28,-424.24 372.86,-415.32 370.59,-406.97"/>
<polygon fill="black" stroke="black" points="374.04,-406.3 368.04,-397.57 367.28,-408.13 374.04,-406.3"/>
</g>
<!-- 22 -->
<g id="node23" class="node">
<title>22</title>
<polygon fill="none" stroke="white" points="529.5,-396 430.5,-396 430.5,-360 529.5,-360 529.5,-396"/>
<text xml:space="preserve" text-anchor="middle" x="480" y="-373.32" font-family="'Fira Mono', 'Source Code Pro', 'Courier', monospace" font-size="14.00" fill="#0060a0">&lt;plain&#45;text&gt;</text>
</g>
<!-- 18&#45;&gt;22 -->
<g id="edge22" class="edge">
<title>18&#45;&gt;22</title>
<path fill="none" stroke="black" d="M406.48,-431.52C418.61,-422.85 433.45,-412.25 446.61,-402.85"/>
<polygon fill="black" stroke="black" points="448.5,-405.8 454.6,-397.14 444.43,-400.1 448.5,-405.8"/>
</g>
<!-- 20 -->
<g id="node21" class="node">
<title>20</title>
<polygon fill="none" stroke="white" points="343.88,-324 286.12,-324 286.12,-288 343.88,-288 343.88,-324"/>
<text xml:space="preserve" text-anchor="middle" x="315" y="-301.32" font-family="'Fira Mono', 'Source Code Pro', 'Courier', monospace" font-size="14.00" fill="#0060a0">&lt;other&gt;</text>
</g>
<!-- 19&#45;&gt;20 -->
<g id="edge20" class="edge">
<title>19&#45;&gt;20</title>
<path fill="none" stroke="black" d="M351.13,-359.7C345.73,-351.81 339.21,-342.3 333.2,-333.55"/>
<polygon fill="black" stroke="black" points="336.13,-331.62 327.58,-325.35 330.35,-335.58 336.13,-331.62"/>
</g>
<!-- 21 -->
<g id="node22" class="node">
<title>21</title>
<polygon fill="none" stroke="white" points="342,-252 288,-252 288,-216 342,-216 342,-252"/>
<text xml:space="preserve" text-anchor="middle" x="315" y="-229.32" font-family="'Fira Mono', 'Source Code Pro', 'Courier', monospace" font-size="14.00" fill="#00a060">&quot; (34)</text>
</g>
<!-- 20&#45;&gt;21 -->
<g id="edge21" class="edge">
<title>20&#45;&gt;21</title>
<path fill="none" stroke="black" d="M315,-287.7C315,-280.41 315,-271.73 315,-263.54"/>
<polygon fill="black" stroke="black" points="318.5,-263.62 315,-253.62 311.5,-263.62 318.5,-263.62"/>
</g>
<!-- 23 -->
<g id="node24" class="node">
<title>23</title>
<polygon fill="none" stroke="white" points="460.5,-324 361.5,-324 361.5,-288 460.5,-288 460.5,-324"/>
<text xml:space="preserve" text-anchor="middle" x="411" y="-301.32" font-family="'Fira Mono', 'Source Code Pro', 'Courier', monospace" font-size="14.00" fill="#0060a0">&lt;plain&#45;char&gt;</text>
</g>
<!-- 22&#45;&gt;23 -->
<g id="edge23" class="edge">
<title>22&#45;&gt;23</title>
<path fill="none" stroke="black" d="M462.94,-359.7C454.76,-351.39 444.79,-341.28 435.78,-332.14"/>
<polygon fill="black" stroke="black" points="438.44,-329.85 428.92,-325.18 433.45,-334.76 438.44,-329.85"/>
</g>
<!-- 26 -->
<g id="node27" class="node">
<title>26</title>
<polygon fill="none" stroke="white" points="577.5,-324 478.5,-324 478.5,-288 577.5,-288 577.5,-324"/>
<text xml:space="preserve" text-anchor="middle" x="528" y="-301.32" font-family="'Fira Mono', 'Source Code Pro', 'Courier', monospace" font-size="14.00" fill="#0060a0">&lt;plain&#45;text&gt;</text>
</g>
<!-- 22&#45;&gt;26 -->
<g id="edge26" class="edge">
<title>22&#45;&gt;26</title>
<path fill="none" stroke="black" d="M491.87,-359.7C497.27,-351.81 503.79,-342.3 509.8,-333.55"/>
<polygon fill="black" stroke="black" points="512.65,-335.58 515.42,-325.35 506.87,-331.62 512.65,-335.58"/>
</g>
<!-- 24 -->
<g id="node25" class="node">
<title>24</title>
<polygon fill="none" stroke="white" points="435,-252 369,-252 369,-216 435,-216 435,-252"/>
<text xml:space="preserve" text-anchor="middle" x="402" y="-229.32" font-family="'Fira Mono', 'Source Code Pro', 'Courier', monospace" font-size="14.00" fill="#0060a0">&lt;letter&gt;</text>
</g>
<!-- 23&#45;&gt;24 -->
<g id="edge24" class="edge">
<title>23&#45;&gt;24</title>
<path fill="none" stroke="black" d="M408.78,-287.7C407.83,-280.32 406.7,-271.52 405.63,-263.25"/>
<polygon fill="black" stroke="black" points="409.14,-263.08 404.39,-253.61 402.2,-263.97 409.14,-263.08"/>
</g>
<!-- 25 -->
<g id="node26" class="node">
<title>25</title>
<polygon fill="none" stroke="white" points="429,-180 375,-180 375,-144 429,-144 429,-180"/>
<text xml:space="preserve" text-anchor="middle" x="402" y="-157.32" font-family="'Fira Mono', 'Source Code Pro', 'Courier', monospace" font-size="14.00" fill="#00a060">b (98)</text>
</g>
<!-- 24&#45;&gt;25 -->
<g id="edge25" class="edge">
<title>24&#45;&gt;25</title>
<path fill="none" stroke="black" d="M402,-215.7C402,-208.41 402,-199.73 402,-191.54"/>
<polygon fill="black" stroke="black" points="405.5,-191.62 402,-181.62 398.5,-191.62 405.5,-191.62"/>
</g>
<!-- 27 -->
<g id="node28" class="node">
<title>27</title>
<polygon fill="none" stroke="white" points="552.5,-252 453.5,-252 453.5,-216 552.5,-216 552.5,-252"/>
<text xml:space="preserve" text-anchor="middle" x="503" y="-229.32" font-family="'Fira Mono', 'Source Code Pro', 'Courier', monospace" font-size="14.00" fill="#0060a0">&lt;plain&#45;char&gt;</text>
</g>
<!-- 26&#45;&gt;27 -->
<g id="edge27" class="edge">
<title>26&#45;&gt;27</title>
<path fill="none" stroke="black" d="M521.82,-287.7C519.13,-280.15 515.9,-271.12 512.89,-262.68"/>
<polygon fill="black" stroke="black" points="516.28,-261.77 509.62,-253.53 509.69,-264.12 516.28,-261.77"/>
</g>
<!-- 30 -->
<g id="node31" class="node">
<title>30</title>
<polygon fill="none" stroke="white" points="669.5,-252 570.5,-252 570.5,-216 669.5,-216 669.5,-252"/>
<text xml:space="preserve" text-anchor="middle" x="620" y="-229.32" font-family="'Fira Mono', 'Source Code Pro', 'Courier', monospace" font-size="14.00" fill="#0060a0">&lt;plain&#45;text&gt;</text>
</g>
<!-- 26&#45;&gt;30 -->
<g id="edge30" class="edge">
<title>26&#45;&gt;30</title>
<path fill="none" stroke="black" d="M550.74,-287.7C562.02,-279.11 575.83,-268.61 588.14,-259.24"/>
<polygon fill="black" stroke="black" points="590.16,-262.1 596,-253.26 585.92,-256.53 590.16,-262.1"/>
</g>
<!-- 28 -->
<g id="node29" class="node">
<title>28</title>
<polygon fill="none" stroke="white" points="524,-180 458,-180 458,-144 524,-144 524,-180"/>
<text xml:space="preserve" text-anchor="middle" x="491" y="-157.32" font-family="'Fira Mono', 'Source Code Pro', 'Courier', monospace" font-size="14.00" fill="#0060a0">&lt;letter&gt;</text>
</g>
<!-- 27&#45;&gt;28 -->
<g id="edge28" class="edge">
<title>27&#45;&gt;28</title>
<path fill="none" stroke="black" d="M500.03,-215.7C498.77,-208.32 497.26,-199.52 495.84,-191.25"/>
<polygon fill="black" stroke="black" points="499.33,-190.86 494.19,-181.6 492.43,-192.04 499.33,-190.86"/>
</g>
<!-- 29 -->
<g id="node30" class="node">
<title>29</title>
<polygon fill="none" stroke="white" points="518,-108 464,-108 464,-72 518,-72 518,-108"/>
<text xml:space="preserve" text-anchor="middle" x="491" y="-85.33" font-family="'Fira Mono', 'Source Code Pro', 'Courier', monospace" font-size="14.00" fill="#00a060">a (97)</text>
</g>
<!-- 28&#45;&gt;29 -->
<g id="edge29" class="edge">
<title>28&#45;&gt;29</title>
<path fill="none" stroke="black" d="M491,-143.7C491,-136.41 491,-127.73 491,-119.54"/>
<polygon fill="black" stroke="black" points="494.5,-119.62 491,-109.62 487.5,-119.62 494.5,-119.62"/>
</g>
<!-- 31 -->
<g id="node32" class="node">
<title>31</title>
<polygon fill="none" stroke="white" points="641.5,-180 542.5,-180 542.5,-144 641.5,-144 641.5,-180"/>
<text xml:space="preserve" text-anchor="middle" x="592" y="-157.32" font-family="'Fira Mono', 'Source Code Pro', 'Courier', monospace" font-size="14.00" fill="#0060a0">&lt;plain&#45;char&gt;</text>
</g>
<!-- 30&#45;&gt;31 -->
<g id="edge31" class="edge">
<title>30&#45;&gt;31</title>
<path fill="none" stroke="black" d="M613.08,-215.7C610.06,-208.15 606.45,-199.12 603.07,-190.68"/>
<polygon fill="black" stroke="black" points="606.37,-189.49 599.4,-181.51 599.87,-192.09 606.37,-189.49"/>
</g>
<!-- 34 -->
<g id="node35" class="node">
<title>34</title>
<polygon fill="none" stroke="white" points="758.5,-180 659.5,-180 659.5,-144 758.5,-144 758.5,-180"/>
<text xml:space="preserve" text-anchor="middle" x="709" y="-157.32" font-family="'Fira Mono', 'Source Code Pro', 'Courier', monospace" font-size="14.00" fill="#0060a0">&lt;plain&#45;text&gt;</text>
</g>
<!-- 30&#45;&gt;34 -->
<g id="edge34" class="edge">
<title>30&#45;&gt;34</title>
<path fill="none" stroke="black" d="M642,-215.7C652.91,-207.11 666.27,-196.61 678.18,-187.24"/>
<polygon fill="black" stroke="black" points="680.06,-190.22 685.75,-181.28 675.73,-184.71 680.06,-190.22"/>
</g>
<!-- 32 -->
<g id="node33" class="node">
<title>32</title>
<polygon fill="none" stroke="white" points="625,-108 559,-108 559,-72 625,-72 625,-108"/>
<text xml:space="preserve" text-anchor="middle" x="592" y="-85.33" font-family="'Fira Mono', 'Source Code Pro', 'Courier', monospace" font-size="14.00" fill="#0060a0">&lt;letter&gt;</text>
</g>
<!-- 31&#45;&gt;32 -->
<g id="edge32" class="edge">
<title>31&#45;&gt;32</title>
<path fill="none" stroke="black" d="M592,-143.7C592,-136.41 592,-127.73 592,-119.54"/>
<polygon fill="black" stroke="black" points="595.5,-119.62 592,-109.62 588.5,-119.62 595.5,-119.62"/>
</g>
<!-- 33 -->
<g id="node34" class="node">
<title>33</title>
<polygon fill="none" stroke="white" points="620.88,-36 563.12,-36 563.12,0 620.88,0 620.88,-36"/>
<text xml:space="preserve" text-anchor="middle" x="592" y="-13.32" font-family="'Fira Mono', 'Source Code Pro', 'Courier', monospace" font-size="14.00" fill="#00a060">r (114)</text>
</g>
<!-- 32&#45;&gt;33 -->
<g id="edge33" class="edge">
<title>32&#45;&gt;33</title>
<path fill="none" stroke="black" d="M592,-71.7C592,-64.41 592,-55.73 592,-47.54"/>
<polygon fill="black" stroke="black" points="595.5,-47.62 592,-37.62 588.5,-47.62 595.5,-47.62"/>
</g>
<!-- 36 -->
<g id="node37" class="node">
<title>36</title>
<polygon fill="none" stroke="white" points="706,-468 652,-468 652,-432 706,-432 706,-468"/>
<text xml:space="preserve" text-anchor="middle" x="679" y="-445.32" font-family="'Fira Mono', 'Source Code Pro', 'Courier', monospace" font-size="14.00" fill="#0060a0">&lt;lt&gt;</text>
</g>
<!-- 35&#45;&gt;36 -->
<g id="edge36" class="edge">
<title>35&#45;&gt;36</title>
<path fill="none" stroke="black" d="M733.2,-503.7C724.72,-495.45 714.41,-485.43 705.07,-476.35"/>
<polygon fill="black" stroke="black" points="707.54,-473.86 697.93,-469.4 702.66,-478.88 707.54,-473.86"/>
</g>
<!-- 38 -->
<g id="node39" class="node">
<title>38</title>
<polygon fill="none" stroke="white" points="778,-468 724,-468 724,-432 778,-432 778,-468"/>
<text xml:space="preserve" text-anchor="middle" x="751" y="-445.32" font-family="'Fira Mono', 'Source Code Pro', 'Courier', monospace" font-size="14.00" fill="#00a060">/ (47)</text>
</g>
<!-- 35&#45;&gt;38 -->
<g id="edge38" class="edge">
<title>35&#45;&gt;38</title>
<path fill="none" stroke="black" d="M751,-503.7C751,-496.41 751,-487.73 751,-479.54"/>
<polygon fill="black" stroke="black" points="754.5,-479.62 751,-469.62 747.5,-479.62 754.5,-479.62"/>
</g>
<!-- 39 -->
<g id="node40" class="node">
<title>39</title>
<polygon fill="none" stroke="white" points="850,-468 796,-468 796,-432 850,-432 850,-468"/>
<text xml:space="preserve" text-anchor="middle" x="823" y="-445.32" font-family="'Fira Mono', 'Source Code Pro', 'Courier', monospace" font-size="14.00" fill="#0060a0">&lt;id&gt;</text>
</g>
<!-- 35&#45;&gt;39 -->
<g id="edge39" class="edge">
<title>35&#45;&gt;39</title>
<path fill="none" stroke="black" d="M768.8,-503.7C777.28,-495.45 787.59,-485.43 796.93,-476.35"/>
<polygon fill="black" stroke="black" points="799.34,-478.88 804.07,-469.4 794.46,-473.86 799.34,-478.88"/>
</g>
<!-- 48 -->
<g id="node49" class="node">
<title>48</title>
<polygon fill="none" stroke="white" points="964,-468 910,-468 910,-432 964,-432 964,-468"/>
<text xml:space="preserve" text-anchor="middle" x="937" y="-445.32" font-family="'Fira Mono', 'Source Code Pro', 'Courier', monospace" font-size="14.00" fill="#0060a0">&lt;gt&gt;</text>
</g>
<!-- 35&#45;&gt;48 -->
<g id="edge48" class="edge">
<title>35&#45;&gt;48</title>
<path fill="none" stroke="black" d="M797.46,-503.52C828.75,-491.74 869.52,-476.4 898.9,-465.34"/>
<polygon fill="black" stroke="black" points="900.02,-468.66 908.14,-461.86 897.55,-462.11 900.02,-468.66"/>
</g>
<!-- 37 -->
<g id="node38" class="node">
<title>37</title>
<polygon fill="none" stroke="white" points="706,-396 652,-396 652,-360 706,-360 706,-396"/>
<text xml:space="preserve" text-anchor="middle" x="679" y="-373.32" font-family="'Fira Mono', 'Source Code Pro', 'Courier', monospace" font-size="14.00" fill="#0060a0">&lt; (60)</text>
</g>
<!-- 36&#45;&gt;37 -->
<g id="edge37" class="edge">
<title>36&#45;&gt;37</title>
<path fill="none" stroke="black" d="M679,-431.7C679,-424.41 679,-415.73 679,-407.54"/>
<polygon fill="black" stroke="black" points="682.5,-407.62 679,-397.62 675.5,-407.62 682.5,-407.62"/>
</g>
<!-- 40 -->
<g id="node41" class="node">
<title>40</title>
<polygon fill="none" stroke="white" points="829,-396 775,-396 775,-360 829,-360 829,-396"/>
<text xml:space="preserve" text-anchor="middle" x="802" y="-373.32" font-family="'Fira Mono', 'Source Code Pro', 'Courier', monospace" font-size="14.00" fill="#0060a0">&lt;id&gt;</text>
</g>
<!-- 39&#45;&gt;40 -->
<g id="edge40" class="edge">
<title>39&#45;&gt;40</title>
<path fill="none" stroke="black" d="M817.81,-431.7C815.57,-424.24 812.9,-415.32 810.39,-406.97"/>
<polygon fill="black" stroke="black" points="813.79,-406.13 807.57,-397.55 807.09,-408.14 813.79,-406.13"/>
</g>
<!-- 46 -->
<g id="node47" class="node">
<title>46</title>
<polygon fill="none" stroke="white" points="913,-396 847,-396 847,-360 913,-360 913,-396"/>
<text xml:space="preserve" text-anchor="middle" x="880" y="-373.32" font-family="'Fira Mono', 'Source Code Pro', 'Courier', monospace" font-size="14.00" fill="#0060a0">&lt;letter&gt;</text>
</g>
<!-- 39&#45;&gt;46 -->
<g id="edge46" class="edge">
<title>39&#45;&gt;46</title>
<path fill="none" stroke="black" d="M837.09,-431.7C843.65,-423.64 851.59,-413.89 858.84,-404.98"/>
<polygon fill="black" stroke="black" points="861.52,-407.24 865.12,-397.28 856.09,-402.82 861.52,-407.24"/>
</g>
<!-- 41 -->
<g id="node42" class="node">
<title>41</title>
<polygon fill="none" stroke="white" points="790,-324 736,-324 736,-288 790,-288 790,-324"/>
<text xml:space="preserve" text-anchor="middle" x="763" y="-301.32" font-family="'Fira Mono', 'Source Code Pro', 'Courier', monospace" font-size="14.00" fill="#0060a0">&lt;id&gt;</text>
</g>
<!-- 40&#45;&gt;41 -->
<g id="edge41" class="edge">
<title>40&#45;&gt;41</title>
<path fill="none" stroke="black" d="M792.36,-359.7C788.06,-351.98 782.9,-342.71 778.11,-334.11"/>
<polygon fill="black" stroke="black" points="781.19,-332.46 773.27,-325.43 775.08,-335.87 781.19,-332.46"/>
</g>
<!-- 44 -->
<g id="node45" class="node">
<title>44</title>
<polygon fill="none" stroke="white" points="874,-324 808,-324 808,-288 874,-288 874,-324"/>
<text xml:space="preserve" text-anchor="middle" x="841" y="-301.32" font-family="'Fira Mono', 'Source Code Pro', 'Courier', monospace" font-size="14.00" fill="#0060a0">&lt;letter&gt;</text>
</g>
<!-- 40&#45;&gt;44 -->
<g id="edge44" class="edge">
<title>40&#45;&gt;44</title>
<path fill="none" stroke="black" d="M811.64,-359.7C815.94,-351.98 821.1,-342.71 825.89,-334.11"/>
<polygon fill="black" stroke="black" points="828.92,-335.87 830.73,-325.43 822.81,-332.46 828.92,-335.87"/>
</g>
<!-- 42 -->
<g id="node43" class="node">
<title>42</title>
<polygon fill="none" stroke="white" points="796,-252 730,-252 730,-216 796,-216 796,-252"/>
<text xml:space="preserve" text-anchor="middle" x="763" y="-229.32" font-family="'Fira Mono', 'Source Code Pro', 'Courier', monospace" font-size="14.00" fill="#0060a0">&lt;letter&gt;</text>
</g>
<!-- 41&#45;&gt;42 -->
<g id="edge42" class="edge">
<title>41&#45;&gt;42</title>
<path fill="none" stroke="black" d="M763,-287.7C763,-280.41 763,-271.73 763,-263.54"/>
<polygon fill="black" stroke="black" points="766.5,-263.62 763,-253.62 759.5,-263.62 766.5,-263.62"/>
</g>
<!-- 43 -->
<g id="node44" class="node">
<title>43</title>
<polygon fill="none" stroke="white" points="833.88,-180 776.12,-180 776.12,-144 833.88,-144 833.88,-180"/>
<text xml:space="preserve" text-anchor="middle" x="805" y="-157.32" font-family="'Fira Mono', 'Source Code Pro', 'Courier', monospace" font-size="14.00" fill="#00a060">f (102)</text>
</g>
<!-- 42&#45;&gt;43 -->
<g id="edge43" class="edge">
<title>42&#45;&gt;43</title>
<path fill="none" stroke="black" d="M773.38,-215.7C778.06,-207.9 783.69,-198.51 788.9,-189.83"/>
<polygon fill="black" stroke="black" points="791.81,-191.78 793.96,-181.4 785.81,-188.18 791.81,-191.78"/>
</g>
<!-- 45 -->
<g id="node46" class="node">
<title>45</title>
<polygon fill="none" stroke="white" points="871.88,-252 814.12,-252 814.12,-216 871.88,-216 871.88,-252"/>
<text xml:space="preserve" text-anchor="middle" x="843" y="-229.32" font-family="'Fira Mono', 'Source Code Pro', 'Courier', monospace" font-size="14.00" fill="#00a060">o (111)</text>
</g>
<!-- 44&#45;&gt;45 -->
<g id="edge45" class="edge">
<title>44&#45;&gt;45</title>
<path fill="none" stroke="black" d="M841.49,-287.7C841.7,-280.41 841.95,-271.73 842.18,-263.54"/>
<polygon fill="black" stroke="black" points="845.68,-263.71 842.47,-253.62 838.68,-263.51 845.68,-263.71"/>
</g>
<!-- 47 -->
<g id="node48" class="node">
<title>47</title>
<polygon fill="none" stroke="white" points="949.88,-324 892.12,-324 892.12,-288 949.88,-288 949.88,-324"/>
<text xml:space="preserve" text-anchor="middle" x="921" y="-301.32" font-family="'Fira Mono', 'Source Code Pro', 'Courier', monospace" font-size="14.00" fill="#00a060">o (111)</text>
</g>
<!-- 46&#45;&gt;47 -->
<g id="edge47" class="edge">
<title>46&#45;&gt;47</title>
<path fill="none" stroke="black" d="M890.13,-359.7C894.7,-351.9 900.2,-342.51 905.29,-333.83"/>
<polygon fill="black" stroke="black" points="908.18,-335.81 910.22,-325.41 902.14,-332.27 908.18,-335.81"/>
</g>
<!-- 49 -->
<g id="node50" class="node">
<title>49</title>
<polygon fill="none" stroke="white" points="985,-396 931,-396 931,-360 985,-360 985,-396"/>
<text xml:space="preserve" text-anchor="middle" x="958" y="-373.32" font-family="'Fira Mono', 'Source Code Pro', 'Courier', monospace" font-size="14.00" fill="#00a060">&gt; (62)</text>
</g>
<!-- 48&#45;&gt;49 -->
<g id="edge49" class="edge">
<title>48&#45;&gt;49</title>
<path fill="none" stroke="black" d="M942.19,-431.7C944.43,-424.24 947.1,-415.32 949.61,-406.97"/>
<polygon fill="black" stroke="black" points="952.91,-408.14 952.43,-397.55 946.21,-406.13 952.91,-408.14"/>
</g>
</g>
</svg>