<svg xmlns="http://www.w3.org/2000/svg" xmlns:xlink="http://www.w3.org/1999/xlink" width="847pt" height="332pt" viewBox="0.00 0.00 847.00 332.00">
<g id="graph0" class="graph" transform="scale(1 1) rotate(0) translate(4 328)">
<polygon fill="white" stroke="none" points="-4,4 -4,-328 842.88,-328 842.88,4 -4,4"/>
<!-- 0 -->
<g id="node1" class="node">
<title>0</title>
<text xml:space="preserve" text-anchor="start" x="353.5" y="-301.95" font-family="Courier,monospace" font-weight="bold" font-size="14.00" fill="#004080">FunctionDef</text>
</g>
<!-- 1 -->
<g id="node2" class="node">
<title>1</title>
<text xml:space="preserve" text-anchor="middle" x="216.88" y="-228.95" font-family="Courier,monospace" font-size="14.00" fill="#008040">"foo"</text>
</g>
<!-- 0&#45;&#45;1 -->
<g id="edge1" class="edge">
<title>0--1</title>
<path fill="none" stroke="black" d="M398.88,-287C398.88,-287 317.19,-273.31 254.88,-252 251.73,-250.92 248.49,-249.69 245.28,-248.38"/>
</g>
<!-- 2 -->
<g id="node3" class="node">
<title>2</title>
<text xml:space="preserve" text-anchor="middle" x="308.88" y="-228.95" font-family="Courier,monospace" font-size="14.00" fill="#008040">arguments</text>
</g>
<!-- 0&#45;&#45;2 -->
<g id="edge2" class="edge">
<title>0--2</title>
<path fill="none" stroke="black" d="M398.88,-287C398.88,-287 364.16,-266.94 337.85,-251.74"/>
</g>
<!-- 3 -->
<g id="node4" class="node">
<title>3</title>
<text xml:space="preserve" text-anchor="start" x="382.38" y="-229.95" font-family="Courier,monospace" font-weight="bold" font-size="14.00" fill="#004080">Expr</text>
</g>
<!-- 0&#45;&#45;3 -->
<g id="edge3" class="edge">
<title>0--3</title>
<path fill="none" stroke="black" d="M398.88,-287C398.88,-287 398.88,-266.94 398.88,-251.74"/>
</g>
<!-- 10 -->
<g id="node11" class="node">
<title>10</title>
<text xml:space="preserve" text-anchor="start" x="452.12" y="-229.95" font-family="Courier,monospace" font-weight="bold" font-size="14.00" fill="#004080">Assign</text>
</g>
<!-- 0&#45;&#45;10 -->
<g id="edge10" class="edge">
<title>0--10</title>
<path fill="none" stroke="black" d="M398.88,-287C398.88,-287 428.96,-266.94 451.77,-251.74"/>
</g>
<!-- 20 -->
<g id="node21" class="node">
<title>20</title>
<text xml:space="preserve" text-anchor="start" x="625.12" y="-229.95" font-family="Courier,monospace" font-weight="bold" font-size="14.00" fill="#004080">Return</text>
</g>
<!-- 0&#45;&#45;20 -->
<g id="edge20" class="edge">
<title>0--20</title>
<path fill="none" stroke="black" d="M398.88,-287C398.88,-287 549.4,-255.81 617.32,-241.74"/>
</g>
<!-- 4 -->
<g id="node5" class="node">
<title>4</title>
<text xml:space="preserve" text-anchor="start" x="210.38" y="-157.95" font-family="Courier,monospace" font-weight="bold" font-size="14.00" fill="#004080">Call</text>
</g>
<!-- 3&#45;&#45;4 -->
<g id="edge4" class="edge">
<title>3--4</title>
<path fill="none" stroke="black" d="M372.23,-220.17C369.09,-218.73 365.92,-217.31 362.88,-216 325.4,-199.87 281.27,-183.07 253.68,-172.82"/>
</g>
<!-- 5 -->
<g id="node6" class="node">
<title>5</title>
<text xml:space="preserve" text-anchor="start" x="102.38" y="-85.95" font-family="Courier,monospace" font-weight="bold" font-size="14.00" fill="#004080">Name</text>
</g>
<!-- 4&#45;&#45;5 -->
<g id="edge5" class="edge">
<title>4--5</title>
<path fill="none" stroke="black" d="M216.88,-143C216.88,-143 174.67,-120.61 145.65,-105.21"/>
</g>
<!-- 8 -->
<g id="node9" class="node">
<title>8</title>
<text xml:space="preserve" text-anchor="start" x="193.88" y="-85.95" font-family="Courier,monospace" font-weight="bold" font-size="14.00" fill="#004080">Constant</text>
</g>
<!-- 4&#45;&#45;8 -->
<g id="edge8" class="edge">
<title>4--8</title>
<path fill="none" stroke="black" d="M216.88,-143C216.88,-143 220.73,-122.94 223.66,-107.74"/>
</g>
<!-- 6 -->
<g id="node7" class="node">
<title>6</title>
<text xml:space="preserve" text-anchor="middle" x="36.88" y="-12.95" font-family="Courier,monospace" font-size="14.00" fill="#008040">"print"</text>
</g>
<!-- 5&#45;&#45;6 -->
<g id="edge6" class="edge">
<title>5--6</title>
<path fill="none" stroke="black" d="M110.88,-71C110.88,-71 82.33,-50.94 60.7,-35.74"/>
</g>
<!-- 7 -->
<g id="node8" class="node">
<title>7</title>
<text xml:space="preserve" text-anchor="middle" x="118.88" y="-12.95" font-family="Courier,monospace" font-size="14.00" fill="#008040">Load</text>
</g>
<!-- 5&#45;&#45;7 -->
<g id="edge7" class="edge">
<title>5--7</title>
<path fill="none" stroke="black" d="M110.88,-71C110.88,-71 113.96,-50.94 116.3,-35.74"/>
</g>
<!-- 9 -->
<g id="node10" class="node">
<title>9</title>
<text xml:space="preserve" text-anchor="middle" x="249.88" y="-12.95" font-family="Courier,monospace" font-size="14.00" fill="#008040">"entering function"</text>
</g>
<!-- 8&#45;&#45;9 -->
<g id="edge9" class="edge">
<title>8--9</title>
<path fill="none" stroke="black" d="M232.44,-72.05C236.06,-61.05 240.75,-46.76 244.36,-35.79"/>
</g>
<!-- 11 -->
<g id="node12" class="node">
<title>11</title>
<text xml:space="preserve" text-anchor="start" x="373.38" y="-157.95" font-family="Courier,monospace" font-weight="bold" font-size="14.00" fill="#004080">Name</text>
</g>
<!-- 10&#45;&#45;11 -->
<g id="edge11" class="edge">
<title>10--11</title>
<path fill="none" stroke="black" d="M473.88,-215C473.88,-215 441.06,-194.69 416.45,-179.45"/>
</g>
<!-- 14 -->
<g id="node15" class="node">
<title>14</title>
<text xml:space="preserve" text-anchor="start" x="500.25" y="-157.95" font-family="Courier,monospace" font-weight="bold" font-size="14.00" fill="#004080">BinOp</text>
</g>
<!-- 10&#45;&#45;14 -->
<g id="edge14" class="edge">
<title>10--14</title>
<path fill="none" stroke="black" d="M473.88,-215C473.88,-215 492.01,-194.94 505.75,-179.74"/>
</g>
<!-- 12 -->
<g id="node13" class="node">
<title>12</title>
<text xml:space="preserve" text-anchor="middle" x="314.88" y="-84.95" font-family="Courier,monospace" font-size="14.00" fill="#008040">"ret"</text>
</g>
<!-- 11&#45;&#45;12 -->
<g id="edge12" class="edge">
<title>11--12</title>
<path fill="none" stroke="black" d="M381.88,-143C381.88,-143 356.03,-122.94 336.44,-107.74"/>
</g>
<!-- 13 -->
<g id="node14" class="node">
<title>13</title>
<text xml:space="preserve" text-anchor="middle" x="389.88" y="-84.95" font-family="Courier,monospace" font-size="14.00" fill="#008040">Store</text>
</g>
<!-- 11&#45;&#45;13 -->
<g id="edge13" class="edge">
<title>11--13</title>
<path fill="none" stroke="black" d="M381.88,-143C381.88,-143 384.96,-122.94 387.3,-107.74"/>
</g>
<!-- 15 -->
<g id="node16" class="node">
<title>15</title>
<text xml:space="preserve" text-anchor="start" x="444.88" y="-85.95" font-family="Courier,monospace" font-weight="bold" font-size="14.00" fill="#004080">Constant</text>
</g>
<!-- 14&#45;&#45;15 -->
<g id="edge15" class="edge">
<title>14--15</title>
<path fill="none" stroke="black" d="M527.88,-143C527.88,-143 508.59,-122.94 493.97,-107.74"/>
</g>
<!-- 17 -->
<g id="node18" class="node">
<title>17</title>
<text xml:space="preserve" text-anchor="middle" x="563.88" y="-84.95" font-family="Courier,monospace" font-size="14.00" fill="#008040">Mult</text>
</g>
<!-- 14&#45;&#45;17 -->
<g id="edge17" class="edge">
<title>14--17</title>
<path fill="none" stroke="black" d="M527.88,-143C527.88,-143 541.76,-122.94 552.29,-107.74"/>
</g>
<!-- 18 -->
<g id="node19" class="node">
<title>18</title>
<text xml:space="preserve" text-anchor="start" x="616.88" y="-85.95" font-family="Courier,monospace" font-weight="bold" font-size="14.00" fill="#004080">Constant</text>
</g>
<!-- 14&#45;&#45;18 -->
<g id="edge18" class="edge">
<title>14--18</title>
<path fill="none" stroke="black" d="M527.88,-143C527.88,-143 574.64,-123.07 610.27,-107.88"/>
</g>
<!-- 16 -->
<g id="node17" class="node">
<title>16</title>
<text xml:space="preserve" text-anchor="middle" x="477.88" y="-12.95" font-family="Courier,monospace" font-size="14.00" fill="#008040">2</text>
</g>
<!-- 15&#45;&#45;16 -->
<g id="edge16" class="edge">
<title>15--16</title>
<path fill="none" stroke="black" d="M477.88,-72.05C477.88,-61.05 477.88,-46.76 477.88,-35.79"/>
</g>
<!-- 19 -->
<g id="node20" class="node">
<title>19</title>
<text xml:space="preserve" text-anchor="middle" x="649.88" y="-12.95" font-family="Courier,monospace" font-size="14.00" fill="#008040">2</text>
</g>
<!-- 18&#45;&#45;19 -->
<g id="edge19" class="edge">
<title>18--19</title>
<path fill="none" stroke="black" d="M649.88,-72.05C649.88,-61.05 649.88,-46.76 649.88,-35.79"/>
</g>
<!-- 21 -->
<g id="node22" class="node">
<title>21</title>
<text xml:space="preserve" text-anchor="start" x="721.38" y="-157.95" font-family="Courier,monospace" font-weight="bold" font-size="14.00" fill="#004080">Name</text>
</g>
<!-- 20&#45;&#45;21 -->
<g id="edge21" class="edge">
<title>20--21</title>
<path fill="none" stroke="black" d="M671.18,-216.05C685.01,-205.05 702.97,-190.76 716.77,-179.79"/>
</g>
<!-- 22 -->
<g id="node23" class="node">
<title>22</title>
<text xml:space="preserve" text-anchor="middle" x="737.88" y="-84.95" font-family="Courier,monospace" font-size="14.00" fill="#008040">"ret"</text>
</g>
<!-- 21&#45;&#45;22 -->
<g id="edge22" class="edge">
<title>21--22</title>
<path fill="none" stroke="black" d="M745.88,-143C745.88,-143 742.79,-122.94 740.45,-107.74"/>
</g>
<!-- 23 -->
<g id="node24" class="node">
<title>23</title>
<text xml:space="preserve" text-anchor="middle" x="811.88" y="-84.95" font-family="Courier,monospace" font-size="14.00" fill="#008040">Load</text>
</g>
<!-- 21&#45;&#45;23 -->
<g id="edge23" class="edge">
<title>21--23</title>
<path fill="none" stroke="black" d="M745.88,-143C745.88,-143 771.33,-122.94 790.63,-107.74"/>
</g>
</g>
</svg>