<?xml version="1.0" encoding="UTF-8" standalone="no"?>
<!DOCTYPE svg PUBLIC "-//W3C//DTD SVG 1.1//EN"
 "http://www.w3.org/Graphics/SVG/1.1/DTD/svg11.dtd">
<!-- Generated by graphviz version 14.0.2 (20251019.1705)
 -->
<!-- Title: Tree Pages: 1 -->
<svg width="327pt" height="314pt"
 viewBox="0.00 0.00 327.00 314.00" xmlns="http://www.w3.org/2000/svg" xmlns:xlink="http://www.w3.org/1999/xlink">
<g id="graph0" class="graph" transform="scale(1 1) rotate(0) translate(4 310)">
<title>Tree</title>
<polygon fill="white" stroke="none" points="-4,4 -4,-310 323,-310 323,4 -4,4"/>
<!-- 0 -->
<g id="node1" class="node">
<title>0</title>
<path fill="#88c4ef" stroke="black" d="M182,-306C182,-306 73,-306 73,-306 67,-306 61,-300 61,-294 61,-294 61,-235 61,-235 61,-229 67,-223 73,-223 73,-223 182,-223 182,-223 188,-223 194,-229 194,-235 194,-235 194,-294 194,-294 194,-300 188,-306 182,-306"/>
<text xml:space="preserve" text-anchor="middle" x="127.5" y="-288.7" font-family="Helvetica,sans-Serif" font-size="14.00">function&#45;sqrt &lt;= 0.5</text>
<text xml:space="preserve" text-anchor="middle" x="127.5" y="-273.7" font-family="Helvetica,sans-Serif" font-size="14.00">gini = 0.408</text>
<text xml:space="preserve" text-anchor="middle" x="127.5" y="-258.7" font-family="Helvetica,sans-Serif" font-size="14.00">samples = 7</text>
<text xml:space="preserve" text-anchor="middle" x="127.5" y="-243.7" font-family="Helvetica,sans-Serif" font-size="14.00">value = [2, 5]</text>
<text xml:space="preserve" text-anchor="middle" x="127.5" y="-228.7" font-family="Helvetica,sans-Serif" font-size="14.00">class = NO_BUG</text>
</g>
<!-- 1 -->
<g id="node2" class="node">
<title>1</title>
<path fill="#399de5" stroke="black" d="M109,-179.5C109,-179.5 12,-179.5 12,-179.5 6,-179.5 0,-173.5 0,-167.5 0,-167.5 0,-123.5 0,-123.5 0,-117.5 6,-111.5 12,-111.5 12,-111.5 109,-111.5 109,-111.5 115,-111.5 121,-117.5 121,-123.5 121,-123.5 121,-167.5 121,-167.5 121,-173.5 115,-179.5 109,-179.5"/>
<text xml:space="preserve" text-anchor="middle" x="60.5" y="-162.2" font-family="Helvetica,sans-Serif" font-size="14.00">gini = 0.0</text>
<text xml:space="preserve" text-anchor="middle" x="60.5" y="-147.2" font-family="Helvetica,sans-Serif" font-size="14.00">samples = 4</text>
<text xml:space="preserve" text-anchor="middle" x="60.5" y="-132.2" font-family="Helvetica,sans-Serif" font-size="14.00">value = [0, 4]</text>
<text xml:space="preserve" text-anchor="middle" x="60.5" y="-117.2" font-family="Helvetica,sans-Serif" font-size="14.00">class = NO_BUG</text>
</g>
<!-- 0&#45;&gt;1 -->
<g id="edge1" class="edge">
<title>0&#45;&gt;1</title>
<path fill="none" stroke="black" d="M104.07,-222.58C98,-211.99 91.46,-200.56 85.33,-189.85"/>
<polygon fill="black" stroke="black" points="88.36,-188.11 80.36,-181.17 82.29,-191.59 88.36,-188.11"/>
<text xml:space="preserve" text-anchor="middle" x="73.05" y="-198.19" font-family="Helvetica,sans-Serif" font-size="14.00">True</text>
</g>
<!-- 2 -->
<g id="node3" class="node">
<title>2</title>
<path fill="#f2c09c" stroke="black" d="M239.88,-187C239.88,-187 151.12,-187 151.12,-187 145.12,-187 139.12,-181 139.12,-175 139.12,-175 139.12,-116 139.12,-116 139.12,-110 145.12,-104 151.12,-104 151.12,-104 239.88,-104 239.88,-104 245.88,-104 251.88,-110 251.88,-116 251.88,-116 251.88,-175 251.88,-175 251.88,-181 245.88,-187 239.88,-187"/>
<text xml:space="preserve" text-anchor="middle" x="195.5" y="-169.7" font-family="Helvetica,sans-Serif" font-size="14.00">number &lt;= 13.0</text>
<text xml:space="preserve" text-anchor="middle" x="195.5" y="-154.7" font-family="Helvetica,sans-Serif" font-size="14.00">gini = 0.444</text>
<text xml:space="preserve" text-anchor="middle" x="195.5" y="-139.7" font-family="Helvetica,sans-Serif" font-size="14.00">samples = 3</text>
<text xml:space="preserve" text-anchor="middle" x="195.5" y="-124.7" font-family="Helvetica,sans-Serif" font-size="14.00">value = [2, 1]</text>
<text xml:space="preserve" text-anchor="middle" x="195.5" y="-109.7" font-family="Helvetica,sans-Serif" font-size="14.00">class = BUG</text>
</g>
<!-- 0&#45;&gt;2 -->
<g id="edge2" class="edge">
<title>0&#45;&gt;2</title>
<path fill="none" stroke="black" d="M151.28,-222.58C156.07,-214.34 161.16,-205.58 166.12,-197.06"/>
<polygon fill="black" stroke="black" points="169.09,-198.91 171.08,-188.51 163.03,-195.4 169.09,-198.91"/>
<text xml:space="preserve" text-anchor="middle" x="178.25" y="-205.57" font-family="Helvetica,sans-Serif" font-size="14.00">False</text>
</g>
<!-- 3 -->
<g id="node4" class="node">
<title>3</title>
<path fill="#e58139" stroke="black" d="M167.5,-68C167.5,-68 97.5,-68 97.5,-68 91.5,-68 85.5,-62 85.5,-56 85.5,-56 85.5,-12 85.5,-12 85.5,-6 91.5,0 97.5,0 97.5,0 167.5,0 167.5,0 173.5,0 179.5,-6 179.5,-12 179.5,-12 179.5,-56 179.5,-56 179.5,-62 173.5,-68 167.5,-68"/>
<text xml:space="preserve" text-anchor="middle" x="132.5" y="-50.7" font-family="Helvetica,sans-Serif" font-size="14.00">gini = 0.0</text>
<text xml:space="preserve" text-anchor="middle" x="132.5" y="-35.7" font-family="Helvetica,sans-Serif" font-size="14.00">samples = 2</text>
<text xml:space="preserve" text-anchor="middle" x="132.5" y="-20.7" font-family="Helvetica,sans-Serif" font-size="14.00">value = [2, 0]</text>
<text xml:space="preserve" text-anchor="middle" x="132.5" y="-5.7" font-family="Helvetica,sans-Serif" font-size="14.00">class = BUG</text>
</g>
<!-- 2&#45;&gt;3 -->
<g id="edge3" class="edge">
<title>2&#45;&gt;3</title>
<path fill="none" stroke="black" d="M172.04,-103.73C167.21,-95.34 162.12,-86.47 157.24,-78.01"/>
<polygon fill="black" stroke="black" points="160.43,-76.53 152.41,-69.61 154.37,-80.02 160.43,-76.53"/>
</g>
<!-- 4 -->
<g id="node5" class="node">
<title>4</title>
<path fill="#399de5" stroke="black" d="M307,-68C307,-68 210,-68 210,-68 204,-68 198,-62 198,-56 198,-56 198,-12 198,-12 198,-6 204,0 210,0 210,0 307,0 307,0 313,0 319,-6 319,-12 319,-12 319,-56 319,-56 319,-62 313,-68 307,-68"/>
<text xml:space="preserve" text-anchor="middle" x="258.5" y="-50.7" font-family="Helvetica,sans-Serif" font-size="14.00">gini = 0.0</text>
<text xml:space="preserve" text-anchor="middle" x="258.5" y="-35.7" font-family="Helvetica,sans-Serif" font-size="14.00">samples = 1</text>
<text xml:space="preserve" text-anchor="middle" x="258.5" y="-20.7" font-family="Helvetica,sans-Serif" font-size="14.00">value = [0, 1]</text>
<text xml:space="preserve" text-anchor="middle" x="258.5" y="-5.7" font-family="Helvetica,sans-Serif" font-size="14.00">class = NO_BUG</text>
</g>
<!-- 2&#45;&gt;4 -->
<g id="edge4" class="edge">
<title>2&#45;&gt;4</title>
<path fill="none" stroke="black" d="M218.96,-103.73C223.79,-95.34 228.88,-86.47 233.76,-78.01"/>
<polygon fill="black" stroke="black" points="236.63,-80.02 238.59,-69.61 230.57,-76.53 236.63,-80.02"/>
</g>
</g>
</svg>