<?xml version="1.0" encoding="UTF-8" standalone="no"?>
<!DOCTYPE svg PUBLIC "-//W3C//DTD SVG 1.1//EN"
 "http://www.w3.org/Graphics/SVG/1.1/DTD/svg11.dtd">
<!-- Generated by graphviz version 14.0.2 (20251019.1705)
 -->
<!-- Title: dependencies Pages: 1 -->
<svg width="378pt" height="428pt"
 viewBox="0.00 0.00 378.00 428.00" xmlns="http://www.w3.org/2000/svg" xmlns:xlink="http://www.w3.org/1999/xlink">
<g id="graph0" class="graph" transform="scale(1 1) rotate(0) translate(4 424)">
<title>dependencies</title>
<polygon fill="white" stroke="none" points="-4,4 -4,-424 374,-424 374,4 -4,4"/>
<!-- approx_functionsquare_rootat0x10e26bd80_60 -->
<g id="node1" class="node">
<title>approx_functionsquare_rootat0x10e26bd80_60</title>
<g id="a_node1"><a xlink:title="square_root:60">
<polygon fill="peachpuff" stroke="black" points="217.75,-420 128.25,-420 128.25,-380 217.75,-380 217.75,-420"/>
<text xml:space="preserve" text-anchor="start" x="148.25" y="-403.7" font-family="Courier,monospace" font-weight="bold" font-size="14.00">approx</text>
<text xml:space="preserve" text-anchor="start" x="136.25" y="-385.45" font-family="Courier,monospace" font-size="9.00">approx = guess</text>
</a>
</g>
</g>
<!-- test_functionsquare_rootat0x10e26bd80_59 -->
<g id="node3" class="node">
<title>test_functionsquare_rootat0x10e26bd80_59</title>
<g id="a_node3"><a xlink:title="square_root:59">
<polygon fill="peachpuff" stroke="black" points="341.75,-344 210.25,-344 210.25,-304 341.75,-304 341.75,-344"/>
<text xml:space="preserve" text-anchor="start" x="251.25" y="-327.7" font-family="Courier,monospace" font-weight="bold" font-style="italic" font-size="14.00">&lt;test&gt;</text>
<text xml:space="preserve" text-anchor="start" x="218.25" y="-309.45" font-family="Courier,monospace" font-size="9.00">while approx != guess:</text>
</a>
</g>
</g>
<!-- approx_functionsquare_rootat0x10e26bd80_60&#45;&gt;test_functionsquare_rootat0x10e26bd80_59 -->
<g id="edge8" class="edge">
<title>approx_functionsquare_rootat0x10e26bd80_60&#45;&gt;test_functionsquare_rootat0x10e26bd80_59</title>
<path fill="none" stroke="black" d="M188.02,-379.56C198.84,-370.63 213.44,-359.94 227.77,-350.39"/>
<polygon fill="black" stroke="black" points="229.36,-353.53 235.83,-345.14 225.54,-347.67 229.36,-353.53"/>
</g>
<!-- assertion_functionsquare_rootat0x10e26bd80_63 -->
<g id="node4" class="node">
<title>assertion_functionsquare_rootat0x10e26bd80_63</title>
<g id="a_node4"><a xlink:title="square_root:63">
<polygon fill="peachpuff" stroke="black" points="248.38,-192 27.62,-192 27.62,-152 248.38,-152 248.38,-192"/>
<text xml:space="preserve" text-anchor="start" x="92.62" y="-175.7" font-family="Courier,monospace" font-weight="bold" font-style="italic" font-size="14.00">&lt;assertion&gt;</text>
<text xml:space="preserve" text-anchor="start" x="35.62" y="-157.45" font-family="Courier,monospace" font-size="9.00">assert math.isclose(approx * approx, x)</text>
</a>
</g>
</g>
<!-- approx_functionsquare_rootat0x10e26bd80_60&#45;&gt;assertion_functionsquare_rootat0x10e26bd80_63 -->
<g id="edge3" class="edge">
<title>approx_functionsquare_rootat0x10e26bd80_60&#45;&gt;assertion_functionsquare_rootat0x10e26bd80_63</title>
<path fill="none" stroke="black" d="M154.89,-379.58C133.82,-355.54 100.25,-312.31 87,-268 81.91,-250.97 80.51,-244.55 87,-228 90.95,-217.94 97.69,-208.62 105.01,-200.62"/>
<polygon fill="black" stroke="black" points="107.45,-203.13 112,-193.56 102.48,-198.21 107.45,-203.13"/>
</g>
<!-- guess_functionsquare_rootat0x10e26bd80_61 -->
<g id="node7" class="node">
<title>guess_functionsquare_rootat0x10e26bd80_61</title>
<g id="a_node7"><a xlink:title="square_root:61">
<polygon fill="peachpuff" stroke="black" points="285.62,-268 96.38,-268 96.38,-228 285.62,-228 285.62,-268"/>
<text xml:space="preserve" text-anchor="start" x="170.38" y="-251.7" font-family="Courier,monospace" font-weight="bold" font-size="14.00">guess</text>
<text xml:space="preserve" text-anchor="start" x="104.38" y="-233.45" font-family="Courier,monospace" font-size="9.00">guess = (approx + x / approx) / 2</text>
</a>
</g>
</g>
<!-- approx_functionsquare_rootat0x10e26bd80_60&#45;&gt;guess_functionsquare_rootat0x10e26bd80_61 -->
<g id="edge5" class="edge">
<title>approx_functionsquare_rootat0x10e26bd80_60&#45;&gt;guess_functionsquare_rootat0x10e26bd80_61</title>
<path fill="none" stroke="black" d="M170.61,-379.7C171.25,-354.27 176.37,-309.28 181.82,-279.29"/>
<polygon fill="black" stroke="black" points="185.21,-280.2 183.71,-269.71 178.34,-278.85 185.21,-280.2"/>
</g>
<!-- approx_functionsquare_rootat0x10e26bd80_60&#45;&gt;guess_functionsquare_rootat0x10e26bd80_61 -->
<!-- guess_functionsquare_rootat0x10e26bd80_58 -->
<g id="node2" class="node">
<title>guess_functionsquare_rootat0x10e26bd80_58</title>
<g id="a_node2"><a xlink:title="square_root:58">
<polygon fill="peachpuff" stroke="black" points="365.12,-40 280.88,-40 280.88,0 365.12,0 365.12,-40"/>
<text xml:space="preserve" text-anchor="start" x="302.38" y="-23.7" font-family="Courier,monospace" font-weight="bold" font-size="14.00">guess</text>
<text xml:space="preserve" text-anchor="start" x="288.88" y="-5.45" font-family="Courier,monospace" font-size="9.00">guess = x / 2</text>
</a>
</g>
</g>
<!-- guess_functionsquare_rootat0x10e26bd80_58&#45;&gt;approx_functionsquare_rootat0x10e26bd80_60 -->
<g id="edge1" class="edge">
<title>guess_functionsquare_rootat0x10e26bd80_58&#45;&gt;approx_functionsquare_rootat0x10e26bd80_60</title>
<path fill="none" stroke="black" d="M280.44,-21.77C192.73,-25.86 0,-48.73 0,-171 0,-249 0,-249 0,-249 0,-312.28 66.89,-354.86 117.48,-378.01"/>
<polygon fill="black" stroke="black" points="116.05,-381.21 126.61,-382.05 118.88,-374.81 116.05,-381.21"/>
</g>
<!-- guess_functionsquare_rootat0x10e26bd80_58&#45;&gt;test_functionsquare_rootat0x10e26bd80_59 -->
<g id="edge10" class="edge">
<title>guess_functionsquare_rootat0x10e26bd80_58&#45;&gt;test_functionsquare_rootat0x10e26bd80_59</title>
<path fill="none" stroke="black" d="M317.41,-40.46C311.3,-82.48 304.88,-184.66 286,-268 284.16,-276.14 281.52,-284.76 279.1,-292.7"/>
<polygon fill="black" stroke="black" points="275.76,-291.67 276.26,-302.25 282.47,-293.66 275.76,-291.67"/>
</g>
<!-- guess_functionsquare_rootat0x10e26bd80_58&#45;&gt;test_functionsquare_rootat0x10e26bd80_59 -->
<!-- test_functionsquare_rootat0x10e26bd80_59&#45;&gt;approx_functionsquare_rootat0x10e26bd80_60 -->
<g id="edge2" class="edge">
<title>test_functionsquare_rootat0x10e26bd80_59&#45;&gt;approx_functionsquare_rootat0x10e26bd80_60</title>
<path fill="none" stroke="grey" stroke-dasharray="5,2" d="M249.12,-344.31C236.96,-353.05 222.41,-363.5 209.3,-372.92"/>
<polygon fill="grey" stroke="grey" points="207.37,-370 201.29,-378.67 211.45,-375.68 207.37,-370"/>
</g>
<!-- test_functionsquare_rootat0x10e26bd80_59&#45;&gt;approx_functionsquare_rootat0x10e26bd80_60 -->
<!-- test_functionsquare_rootat0x10e26bd80_59&#45;&gt;guess_functionsquare_rootat0x10e26bd80_61 -->
<g id="edge7" class="edge">
<title>test_functionsquare_rootat0x10e26bd80_59&#45;&gt;guess_functionsquare_rootat0x10e26bd80_61</title>
<path fill="none" stroke="grey" stroke-dasharray="5,2" d="M247.64,-303.56C237.23,-295.14 225.59,-285.16 215.53,-276.04"/>
<polygon fill="grey" stroke="grey" points="218,-273.56 208.28,-269.34 213.25,-278.7 218,-273.56"/>
</g>
<!-- x_functionsquare_rootat0x10e26bd80_64 -->
<g id="node5" class="node">
<title>x_functionsquare_rootat0x10e26bd80_64</title>
<g id="a_node5"><a xlink:title="square_root:64">
<polygon fill="peachpuff" stroke="black" points="233.12,-116 148.88,-116 148.88,-76 233.12,-76 233.12,-116"/>
<text xml:space="preserve" text-anchor="start" x="186.88" y="-99.7" font-family="Courier,monospace" font-weight="bold" font-size="14.00">x</text>
<text xml:space="preserve" text-anchor="start" x="156.88" y="-81.45" font-family="Courier,monospace" font-size="9.00">return approx</text>
</a>
</g>
</g>
<!-- assertion_functionsquare_rootat0x10e26bd80_63&#45;&gt;x_functionsquare_rootat0x10e26bd80_64 -->
<!-- x_functionsquare_rootat0x10e26bd80_64&#45;&gt;guess_functionsquare_rootat0x10e26bd80_58 -->
<g id="edge12" class="edge">
<title>x_functionsquare_rootat0x10e26bd80_64&#45;&gt;guess_functionsquare_rootat0x10e26bd80_58</title>
<path fill="none" stroke="black" d="M225.68,-75.56C241.9,-66.47 261.4,-55.53 278.68,-45.85"/>
<polygon fill="black" stroke="black" points="280.22,-49 287.23,-41.05 276.8,-42.89 280.22,-49"/>
</g>
<!-- x_functionsquare_rootat0x10e26bd80_64&#45;&gt;assertion_functionsquare_rootat0x10e26bd80_63 -->
<g id="edge4" class="edge">
<title>x_functionsquare_rootat0x10e26bd80_64&#45;&gt;assertion_functionsquare_rootat0x10e26bd80_63</title>
<path fill="none" stroke="black" d="M183.18,-116.31C178.14,-124.37 171.51,-133.89 164.84,-142.71"/>
<polygon fill="black" stroke="black" points="162.26,-140.32 158.88,-150.36 167.79,-144.63 162.26,-140.32"/>
</g>
<!-- x_functionsquare_rootat0x10e26bd80_64&#45;&gt;guess_functionsquare_rootat0x10e26bd80_61 -->
<g id="edge6" class="edge">
<title>x_functionsquare_rootat0x10e26bd80_64&#45;&gt;guess_functionsquare_rootat0x10e26bd80_61</title>
<path fill="none" stroke="black" d="M224.82,-116.27C237.35,-125.34 250.17,-137.41 257,-152 264.54,-168.1 264.54,-175.9 257,-192 251.77,-203.17 243.03,-212.86 233.6,-220.86"/>
<polygon fill="black" stroke="black" points="231.73,-217.88 226.01,-226.8 236.04,-223.39 231.73,-217.88"/>
</g>
<!-- approx_functionsquare_rootat0x10e26bd80_57 -->
<g id="node6" class="node">
<title>approx_functionsquare_rootat0x10e26bd80_57</title>
<g id="a_node6"><a xlink:title="square_root:57">
<polygon fill="peachpuff" stroke="black" points="366.12,-420 281.88,-420 281.88,-380 366.12,-380 366.12,-420"/>
<text xml:space="preserve" text-anchor="start" x="299.25" y="-403.7" font-family="Courier,monospace" font-weight="bold" font-size="14.00">approx</text>
<text xml:space="preserve" text-anchor="start" x="289.88" y="-385.45" font-family="Courier,monospace" font-size="9.00">approx = None</text>
</a>
</g>
</g>
<!-- approx_functionsquare_rootat0x10e26bd80_57&#45;&gt;guess_functionsquare_rootat0x10e26bd80_58 -->
<!-- approx_functionsquare_rootat0x10e26bd80_57&#45;&gt;test_functionsquare_rootat0x10e26bd80_59 -->
<g id="edge9" class="edge">
<title>approx_functionsquare_rootat0x10e26bd80_57&#45;&gt;test_functionsquare_rootat0x10e26bd80_59</title>
<path fill="none" stroke="black" d="M311.39,-379.56C306.26,-371.65 300.23,-362.36 294.62,-353.71"/>
<polygon fill="black" stroke="black" points="297.73,-352.07 289.35,-345.58 291.86,-355.88 297.73,-352.07"/>
</g>
<!-- guess_functionsquare_rootat0x10e26bd80_61&#45;&gt;test_functionsquare_rootat0x10e26bd80_59 -->
<g id="edge11" class="edge">
<title>guess_functionsquare_rootat0x10e26bd80_61&#45;&gt;test_functionsquare_rootat0x10e26bd80_59</title>
<path fill="none" stroke="black" d="M219.2,-268.31C229.6,-276.71 241.24,-286.69 251.31,-295.82"/>
<polygon fill="black" stroke="black" points="248.86,-298.32 258.58,-302.53 253.61,-293.17 248.86,-298.32"/>
</g>
<!-- guess_functionsquare_rootat0x10e26bd80_61&#45;&gt;assertion_functionsquare_rootat0x10e26bd80_63 -->
</g>
</svg>