<?xml version="1.0" encoding="UTF-8" standalone="no"?>
<!DOCTYPE svg PUBLIC "-//W3C//DTD SVG 1.1//EN"
 "http://www.w3.org/Graphics/SVG/1.1/DTD/svg11.dtd">
<!-- Generated by graphviz version 14.0.2 (20251019.1705)
 -->
<!-- Title: dependencies Pages: 1 -->
<svg width="278pt" height="428pt"
 viewBox="0.00 0.00 278.00 428.00" xmlns="http://www.w3.org/2000/svg" xmlns:xlink="http://www.w3.org/1999/xlink">
<g id="graph0" class="graph" transform="scale(1 1) rotate(0) translate(4 424)">
<title>dependencies</title>
<polygon fill="white" stroke="none" points="-4,4 -4,-424 274.05,-424 274.05,4 -4,4"/>
<!-- test_functionmiddleat0x10e668400_2 -->
<g id="node1" class="node">
<title>test_functionmiddleat0x10e668400_2</title>
<g id="a_node1"><a xlink:title="middle:2">
<polygon fill="peachpuff" stroke="black" points="212.8,-344 147.3,-344 147.3,-304 212.8,-304 212.8,-344"/>
<text xml:space="preserve" text-anchor="start" x="155.3" y="-327.7" font-family="Courier,monospace" font-weight="bold" font-style="italic" font-size="14.00">&lt;test&gt;</text>
<text xml:space="preserve" text-anchor="start" x="156.43" y="-309.45" font-family="Courier,monospace" font-size="9.00">if y &lt; z:</text>
</a>
</g>
</g>
<!-- test_functionmiddleat0x10e668400_3 -->
<g id="node4" class="node">
<title>test_functionmiddleat0x10e668400_3</title>
<g id="a_node4"><a xlink:title="middle:3">
<polygon fill="peachpuff" stroke="black" points="212.8,-268 147.3,-268 147.3,-228 212.8,-228 212.8,-268"/>
<text xml:space="preserve" text-anchor="start" x="155.3" y="-251.7" font-family="Courier,monospace" font-weight="bold" font-style="italic" font-size="14.00">&lt;test&gt;</text>
<text xml:space="preserve" text-anchor="start" x="156.43" y="-233.45" font-family="Courier,monospace" font-size="9.00">if x &lt; y:</text>
</a>
</g>
</g>
<!-- test_functionmiddleat0x10e668400_2&#45;&gt;test_functionmiddleat0x10e668400_3 -->
<g id="edge5" class="edge">
<title>test_functionmiddleat0x10e668400_2&#45;&gt;test_functionmiddleat0x10e668400_3</title>
<path fill="none" stroke="grey" stroke-dasharray="5,2" d="M174.03,-303.56C173.37,-296.25 173.16,-287.75 173.39,-279.67"/>
<polygon fill="grey" stroke="grey" points="176.88,-280.01 173.95,-269.82 169.89,-279.61 176.88,-280.01"/>
</g>
<!-- test_functionmiddleat0x10e668400_2&#45;&gt;test_functionmiddleat0x10e668400_3 -->
<!-- z_functionmiddleat0x10e668400_12 -->
<g id="node2" class="node">
<title>z_functionmiddleat0x10e668400_12</title>
<g id="a_node2"><a xlink:title="middle:12">
<polygon fill="peachpuff" stroke="black" points="171.05,-420 113.05,-420 113.05,-380 171.05,-380 171.05,-420"/>
<text xml:space="preserve" text-anchor="start" x="137.93" y="-403.7" font-family="Courier,monospace" font-weight="bold" font-size="14.00">z</text>
<text xml:space="preserve" text-anchor="start" x="121.05" y="-385.45" font-family="Courier,monospace" font-size="9.00">return z</text>
</a>
</g>
</g>
<!-- z_functionmiddleat0x10e668400_12&#45;&gt;test_functionmiddleat0x10e668400_2 -->
<g id="edge1" class="edge">
<title>z_functionmiddleat0x10e668400_12&#45;&gt;test_functionmiddleat0x10e668400_2</title>
<path fill="none" stroke="black" d="M152.03,-379.56C155.96,-371.91 160.56,-362.96 164.88,-354.55"/>
<polygon fill="black" stroke="black" points="167.99,-356.15 169.44,-345.66 161.76,-352.96 167.99,-356.15"/>
</g>
<!-- test_functionmiddleat0x10e668400_5 -->
<g id="node7" class="node">
<title>test_functionmiddleat0x10e668400_5</title>
<g id="a_node7"><a xlink:title="middle:5">
<polygon fill="peachpuff" stroke="black" points="155.93,-192 82.18,-192 82.18,-152 155.93,-152 155.93,-192"/>
<text xml:space="preserve" text-anchor="start" x="94.3" y="-175.7" font-family="Courier,monospace" font-weight="bold" font-style="italic" font-size="14.00">&lt;test&gt;</text>
<text xml:space="preserve" text-anchor="start" x="90.18" y="-157.45" font-family="Courier,monospace" font-size="9.00">elif x &lt; z:</text>
</a>
</g>
</g>
<!-- z_functionmiddleat0x10e668400_12&#45;&gt;test_functionmiddleat0x10e668400_5 -->
<g id="edge8" class="edge">
<title>z_functionmiddleat0x10e668400_12&#45;&gt;test_functionmiddleat0x10e668400_5</title>
<path fill="none" stroke="black" d="M140.09,-379.73C136.09,-340.45 126.97,-250.85 122.16,-203.55"/>
<polygon fill="black" stroke="black" points="125.65,-203.32 121.16,-193.73 118.69,-204.03 125.65,-203.32"/>
</g>
<!-- y_functionmiddleat0x10e668400_12 -->
<g id="node3" class="node">
<title>y_functionmiddleat0x10e668400_12</title>
<g id="a_node3"><a xlink:title="middle:12">
<polygon fill="peachpuff" stroke="black" points="270.05,-420 212.05,-420 212.05,-380 270.05,-380 270.05,-420"/>
<text xml:space="preserve" text-anchor="start" x="236.93" y="-403.7" font-family="Courier,monospace" font-weight="bold" font-size="14.00">y</text>
<text xml:space="preserve" text-anchor="start" x="220.05" y="-385.45" font-family="Courier,monospace" font-size="9.00">return z</text>
</a>
</g>
</g>
<!-- y_functionmiddleat0x10e668400_12&#45;&gt;test_functionmiddleat0x10e668400_2 -->
<g id="edge2" class="edge">
<title>y_functionmiddleat0x10e668400_12&#45;&gt;test_functionmiddleat0x10e668400_2</title>
<path fill="none" stroke="black" d="M225.02,-379.56C218.37,-371.48 210.52,-361.96 203.25,-353.15"/>
<polygon fill="black" stroke="black" points="205.99,-350.97 196.93,-345.48 200.59,-355.42 205.99,-350.97"/>
</g>
<!-- y_functionmiddleat0x10e668400_12&#45;&gt;test_functionmiddleat0x10e668400_3 -->
<g id="edge3" class="edge">
<title>y_functionmiddleat0x10e668400_12&#45;&gt;test_functionmiddleat0x10e668400_3</title>
<path fill="none" stroke="black" d="M239.75,-379.66C237.85,-359.89 233.21,-328.67 222.05,-304 217.81,-294.61 211.69,-285.35 205.44,-277.17"/>
<polygon fill="black" stroke="black" points="208.36,-275.22 199.36,-269.63 202.91,-279.62 208.36,-275.22"/>
</g>
<!-- middlereturnvalue_functionmiddleat0x10e668400_6 -->
<g id="node6" class="node">
<title>middlereturnvalue_functionmiddleat0x10e668400_6</title>
<g id="a_node6"><a xlink:title="middle:6">
<polygon fill="peachpuff" stroke="black" points="221.93,-116 16.18,-116 16.18,-76 221.93,-76 221.93,-116"/>
<text xml:space="preserve" text-anchor="start" x="24.18" y="-99.7" font-family="Courier,monospace" font-weight="bold" font-style="italic" font-size="14.00">&lt;middle() return value&gt;</text>
<text xml:space="preserve" text-anchor="start" x="98.05" y="-81.45" font-family="Courier,monospace" font-size="9.00">return y</text>
</a>
</g>
</g>
<!-- y_functionmiddleat0x10e668400_12&#45;&gt;middlereturnvalue_functionmiddleat0x10e668400_6 -->
<g id="edge6" class="edge">
<title>y_functionmiddleat0x10e668400_12&#45;&gt;middlereturnvalue_functionmiddleat0x10e668400_6</title>
<path fill="none" stroke="black" d="M241.49,-379.66C241.7,-369.12 241.94,-355.84 242.05,-344 242.53,-291.69 244.83,-275.1 222.05,-228 202.9,-188.39 170.15,-149.62 146.72,-124.66"/>
<polygon fill="black" stroke="black" points="149.35,-122.34 139.91,-117.52 144.29,-127.17 149.35,-122.34"/>
</g>
<!-- test_functionmiddleat0x10e668400_3&#45;&gt;test_functionmiddleat0x10e668400_5 -->
<g id="edge10" class="edge">
<title>test_functionmiddleat0x10e668400_3&#45;&gt;test_functionmiddleat0x10e668400_5</title>
<path fill="none" stroke="grey" stroke-dasharray="5,2" d="M158,-227.56C150.7,-219.57 142.76,-210.16 135.9,-201.43"/>
<polygon fill="grey" stroke="grey" points="138.72,-199.35 129.88,-193.52 133.15,-203.59 138.72,-199.35"/>
</g>
<!-- test_functionmiddleat0x10e668400_3&#45;&gt;test_functionmiddleat0x10e668400_5 -->
<!-- x_functionmiddleat0x10e668400_12 -->
<g id="node5" class="node">
<title>x_functionmiddleat0x10e668400_12</title>
<g id="a_node5"><a xlink:title="middle:12">
<polygon fill="peachpuff" stroke="black" points="148.05,-40 90.05,-40 90.05,0 148.05,0 148.05,-40"/>
<text xml:space="preserve" text-anchor="start" x="114.93" y="-23.7" font-family="Courier,monospace" font-weight="bold" font-size="14.00">x</text>
<text xml:space="preserve" text-anchor="start" x="98.05" y="-5.45" font-family="Courier,monospace" font-size="9.00">return z</text>
</a>
</g>
</g>
<!-- x_functionmiddleat0x10e668400_12&#45;&gt;test_functionmiddleat0x10e668400_3 -->
<g id="edge4" class="edge">
<title>x_functionmiddleat0x10e668400_12&#45;&gt;test_functionmiddleat0x10e668400_3</title>
<path fill="none" stroke="black" d="M148.53,-26.43C175.26,-33.08 213.12,-47.23 231.05,-76 259.2,-121.19 226.58,-182.76 202.09,-218.36"/>
<polygon fill="black" stroke="black" points="199.28,-216.27 196.33,-226.44 204.98,-220.33 199.28,-216.27"/>
</g>
<!-- x_functionmiddleat0x10e668400_12&#45;&gt;test_functionmiddleat0x10e668400_5 -->
<g id="edge9" class="edge">
<title>x_functionmiddleat0x10e668400_12&#45;&gt;test_functionmiddleat0x10e668400_5</title>
<path fill="none" stroke="black" d="M89.57,-26.43C62.84,-33.08 24.98,-47.23 7.05,-76 -2.35,-91.09 -2.35,-100.91 7.05,-116 21.09,-138.54 47.37,-152.1 70.94,-160.12"/>
<polygon fill="black" stroke="black" points="69.84,-163.45 80.43,-163.08 71.93,-156.76 69.84,-163.45"/>
</g>
<!-- middlereturnvalue_functionmiddleat0x10e668400_6&#45;&gt;x_functionmiddleat0x10e668400_12 -->
<!-- test_functionmiddleat0x10e668400_5&#45;&gt;middlereturnvalue_functionmiddleat0x10e668400_6 -->
<g id="edge7" class="edge">
<title>test_functionmiddleat0x10e668400_5&#45;&gt;middlereturnvalue_functionmiddleat0x10e668400_6</title>
<path fill="none" stroke="grey" stroke-dasharray="5,2" d="M113.03,-151.56C112.37,-144.25 112.16,-135.75 112.39,-127.67"/>
<polygon fill="grey" stroke="grey" points="115.88,-128.01 112.95,-117.82 108.89,-127.61 115.88,-128.01"/>
</g>
<!-- test_functionmiddleat0x10e668400_5&#45;&gt;middlereturnvalue_functionmiddleat0x10e668400_6 -->
</g>
</svg>