<svg xmlns="http://www.w3.org/2000/svg" xmlns:xlink="http://www.w3.org/1999/xlink" width="522pt" height="332pt" viewBox="0.00 0.00 522.00 332.00">
<g id="graph0" class="graph" transform="scale(1 1) rotate(0) translate(4 328)">
<polygon fill="white" stroke="none" points="-4,4 -4,-328 518,-328 518,4 -4,4"/>
<!-- 0 -->
<g id="node1" class="node">
<title>0</title>
<text xml:space="preserve" text-anchor="start" x="165.62" y="-301.95" font-family="Courier,monospace" font-weight="bold" font-size="14.00" fill="#004080">FunctionDef</text>
</g>
<!-- 1 -->
<g id="node2" class="node">
<title>1</title>
<text xml:space="preserve" text-anchor="middle" x="47" y="-228.95" font-family="Courier,monospace" font-size="14.00" fill="#008040">"foo"</text>
</g>
<!-- 0&#45;&#45;1 -->
<g id="edge1" class="edge">
<title>0--1</title>
<path fill="none" stroke="black" d="M209,-287C209,-287 138.83,-271.52 85,-252 81.87,-250.87 78.65,-249.59 75.45,-248.26"/>
</g>
<!-- 2 -->
<g id="node3" class="node">
<title>2</title>
<text xml:space="preserve" text-anchor="start" x="101.88" y="-229.95" font-family="Courier,monospace" font-weight="bold" font-size="14.00" fill="#004080">arguments</text>
</g>
<!-- 0&#45;&#45;2 -->
<g id="edge2" class="edge">
<title>0--2</title>
<path fill="none" stroke="black" d="M209,-287C209,-287 182,-266.94 161.53,-251.74"/>
</g>
<!-- 7 -->
<g id="node8" class="node">
<title>7</title>
<text xml:space="preserve" text-anchor="start" x="234.75" y="-229.95" font-family="Courier,monospace" font-weight="bold" font-size="14.00" fill="#004080">If</text>
</g>
<!-- 0&#45;&#45;7 -->
<g id="edge7" class="edge">
<title>0--7</title>
<path fill="none" stroke="black" d="M209,-287C209,-287 222.12,-266.94 232.06,-251.74"/>
</g>
<!-- 19 -->
<g id="node20" class="node">
<title>19</title>
<text xml:space="preserve" text-anchor="start" x="370.25" y="-229.95" font-family="Courier,monospace" font-weight="bold" font-size="14.00" fill="#004080">Return</text>
</g>
<!-- 0&#45;&#45;19 -->
<g id="edge19" class="edge">
<title>0--19</title>
<path fill="none" stroke="black" d="M209,-287C209,-287 309.31,-258.96 362.6,-244.06"/>
</g>
<!-- 3 -->
<g id="node4" class="node">
<title>3</title>
<text xml:space="preserve" text-anchor="start" x="41.62" y="-157.95" font-family="Courier,monospace" font-weight="bold" font-size="14.00" fill="#004080">arg</text>
</g>
<!-- 2&#45;&#45;3 -->
<g id="edge3" class="edge">
<title>2--3</title>
<path fill="none" stroke="black" d="M129,-215C129,-215 100.07,-194.94 78.14,-179.74"/>
</g>
<!-- 5 -->
<g id="node6" class="node">
<title>5</title>
<text xml:space="preserve" text-anchor="start" x="113.62" y="-157.95" font-family="Courier,monospace" font-weight="bold" font-size="14.00" fill="#004080">arg</text>
</g>
<!-- 2&#45;&#45;5 -->
<g id="edge5" class="edge">
<title>2--5</title>
<path fill="none" stroke="black" d="M129,-215C129,-215 127.84,-194.94 126.97,-179.74"/>
</g>
<!-- 4 -->
<g id="node5" class="node">
<title>4</title>
<text xml:space="preserve" text-anchor="middle" x="27" y="-84.95" font-family="Courier,monospace" font-size="14.00" fill="#008040">"a"</text>
</g>
<!-- 3&#45;&#45;4 -->
<g id="edge4" class="edge">
<title>3--4</title>
<path fill="none" stroke="black" d="M47.46,-144.05C43.22,-133.05 37.71,-118.76 33.48,-107.79"/>
</g>
<!-- 6 -->
<g id="node7" class="node">
<title>6</title>
<text xml:space="preserve" text-anchor="middle" x="99" y="-84.95" font-family="Courier,monospace" font-size="14.00" fill="#008040">"b"</text>
</g>
<!-- 5&#45;&#45;6 -->
<g id="edge6" class="edge">
<title>5--6</title>
<path fill="none" stroke="black" d="M119.46,-144.05C115.22,-133.05 109.71,-118.76 105.48,-107.79"/>
</g>
<!-- 8 -->
<g id="node9" class="node">
<title>8</title>
<text xml:space="preserve" text-anchor="start" x="218.25" y="-157.95" font-family="Courier,monospace" font-weight="bold" font-size="14.00" fill="#004080">BoolOp</text>
</g>
<!-- 7&#45;&#45;8 -->
<g id="edge8" class="edge">
<title>7--8</title>
<path fill="none" stroke="black" d="M253,-215C253,-215 249.14,-194.94 246.22,-179.74"/>
</g>
<!-- 16 -->
<g id="node17" class="node">
<title>16</title>
<text xml:space="preserve" text-anchor="start" x="336.25" y="-157.95" font-family="Courier,monospace" font-weight="bold" font-size="14.00" fill="#004080">Return</text>
</g>
<!-- 7&#45;&#45;16 -->
<g id="edge16" class="edge">
<title>7--16</title>
<path fill="none" stroke="black" d="M253,-215C253,-215 296.52,-194.05 328.3,-178.74"/>
</g>
<!-- 9 -->
<g id="node10" class="node">
<title>9</title>
<text xml:space="preserve" text-anchor="middle" x="171" y="-84.95" font-family="Courier,monospace" font-size="14.00" fill="#008040">And</text>
</g>
<!-- 8&#45;&#45;9 -->
<g id="edge9" class="edge">
<title>8--9</title>
<path fill="none" stroke="black" d="M243,-143C243,-143 215.23,-122.94 194.18,-107.74"/>
</g>
<!-- 10 -->
<g id="node11" class="node">
<title>10</title>
<text xml:space="preserve" text-anchor="start" x="226.5" y="-85.95" font-family="Courier,monospace" font-weight="bold" font-size="14.00" fill="#004080">Name</text>
</g>
<!-- 8&#45;&#45;10 -->
<g id="edge10" class="edge">
<title>8--10</title>
<path fill="none" stroke="black" d="M243,-143C243,-143 243,-122.94 243,-107.74"/>
</g>
<!-- 13 -->
<g id="node14" class="node">
<title>13</title>
<text xml:space="preserve" text-anchor="start" x="298.5" y="-85.95" font-family="Courier,monospace" font-weight="bold" font-size="14.00" fill="#004080">Name</text>
</g>
<!-- 8&#45;&#45;13 -->
<g id="edge13" class="edge">
<title>8--13</title>
<path fill="none" stroke="black" d="M243,-143C243,-143 270.77,-122.94 291.82,-107.74"/>
</g>
<!-- 11 -->
<g id="node12" class="node">
<title>11</title>
<text xml:space="preserve" text-anchor="middle" x="171" y="-12.95" font-family="Courier,monospace" font-size="14.00" fill="#008040">"a"</text>
</g>
<!-- 10&#45;&#45;11 -->
<g id="edge11" class="edge">
<title>10--11</title>
<path fill="none" stroke="black" d="M236,-71C236,-71 210.93,-50.94 191.92,-35.74"/>
</g>
<!-- 12 -->
<g id="node13" class="node">
<title>12</title>
<text xml:space="preserve" text-anchor="middle" x="243" y="-12.95" font-family="Courier,monospace" font-size="14.00" fill="#008040">Load</text>
</g>
<!-- 10&#45;&#45;12 -->
<g id="edge12" class="edge">
<title>10--12</title>
<path fill="none" stroke="black" d="M236,-71C236,-71 238.7,-50.94 240.75,-35.74"/>
</g>
<!-- 14 -->
<g id="node15" class="node">
<title>14</title>
<text xml:space="preserve" text-anchor="middle" x="315" y="-12.95" font-family="Courier,monospace" font-size="14.00" fill="#008040">"b"</text>
</g>
<!-- 13&#45;&#45;14 -->
<g id="edge14" class="edge">
<title>13--14</title>
<path fill="none" stroke="black" d="M322,-71C322,-71 319.3,-50.94 317.25,-35.74"/>
</g>
<!-- 15 -->
<g id="node16" class="node">
<title>15</title>
<text xml:space="preserve" text-anchor="middle" x="387" y="-12.95" font-family="Courier,monospace" font-size="14.00" fill="#008040">Load</text>
</g>
<!-- 13&#45;&#45;15 -->
<g id="edge15" class="edge">
<title>13--15</title>
<path fill="none" stroke="black" d="M322,-71C322,-71 347.07,-50.94 366.08,-35.74"/>
</g>
<!-- 17 -->
<g id="node18" class="node">
<title>17</title>
<text xml:space="preserve" text-anchor="start" x="368" y="-85.95" font-family="Courier,monospace" font-weight="bold" font-size="14.00" fill="#004080">Constant</text>
</g>
<!-- 16&#45;&#45;17 -->
<g id="edge17" class="edge">
<title>16--17</title>
<path fill="none" stroke="black" d="M370.68,-144.05C376.97,-133.05 385.14,-118.76 391.41,-107.79"/>
</g>
<!-- 18 -->
<g id="node19" class="node">
<title>18</title>
<text xml:space="preserve" text-anchor="middle" x="459" y="-12.95" font-family="Courier,monospace" font-size="14.00" fill="#008040">1</text>
</g>
<!-- 17&#45;&#45;18 -->
<g id="edge18" class="edge">
<title>17--18</title>
<path fill="none" stroke="black" d="M415.04,-72.05C424.16,-61.05 436,-46.76 445.09,-35.79"/>
</g>
<!-- 20 -->
<g id="node21" class="node">
<title>20</title>
<text xml:space="preserve" text-anchor="start" x="437" y="-157.95" font-family="Courier,monospace" font-weight="bold" font-size="14.00" fill="#004080">Constant</text>
</g>
<!-- 19&#45;&#45;20 -->
<g id="edge20" class="edge">
<title>19--20</title>
<path fill="none" stroke="black" d="M413.16,-216.05C424.95,-205.05 440.25,-190.76 452.01,-179.79"/>
</g>
<!-- 21 -->
<g id="node22" class="node">
<title>21</title>
<text xml:space="preserve" text-anchor="middle" x="487" y="-84.95" font-family="Courier,monospace" font-size="14.00" fill="#008040">0</text>
</g>
<!-- 20&#45;&#45;21 -->
<g id="edge21" class="edge">
<title>20--21</title>
<path fill="none" stroke="black" d="M474.12,-144.05C476.79,-133.05 480.26,-118.76 482.92,-107.79"/>
</g>
</g>
</svg>