<?xml version="1.0" encoding="UTF-8" standalone="no"?>
<!DOCTYPE svg PUBLIC "-//W3C//DTD SVG 1.1//EN"
 "http://www.w3.org/Graphics/SVG/1.1/DTD/svg11.dtd">
<!-- Generated by graphviz version 14.0.2 (20251019.1705)
 -->
<!-- Title: dependencies Pages: 1 -->
<svg width="94pt" height="200pt"
 viewBox="0.00 0.00 94.00 200.00" xmlns="http://www.w3.org/2000/svg" xmlns:xlink="http://www.w3.org/1999/xlink">
<g id="graph0" class="graph" transform="scale(1 1) rotate(0) translate(4 196)">
<title>dependencies</title>
<polygon fill="white" stroke="none" points="-4,4 -4,-196 90,-196 90,4 -4,4"/>
<!-- y_functionmoduleat0x10e60cfe0_3 -->
<g id="node1" class="node">
<title>y_functionmoduleat0x10e60cfe0_3</title>
<g id="a_node1"><a xlink:title="&lt;module&gt;:3">
<polygon fill="peachpuff" stroke="black" points="58,-116 0,-116 0,-76 58,-76 58,-116"/>
<text xml:space="preserve" text-anchor="start" x="24.88" y="-99.7" font-family="Courier,monospace" font-weight="bold" font-size="14.00">y</text>
<text xml:space="preserve" text-anchor="start" x="8" y="-81.45" font-family="Courier,monospace" font-size="9.00">&lt;module&gt;</text>
</a>
</g>
</g>
<!-- z_functionmoduleat0x10e60d440_4 -->
<g id="node3" class="node">
<title>z_functionmoduleat0x10e60d440_4</title>
<g id="a_node3"><a xlink:title="&lt;module&gt;:4">
<polygon fill="peachpuff" stroke="black" points="86,-40 28,-40 28,0 86,0 86,-40"/>
<text xml:space="preserve" text-anchor="start" x="52.88" y="-23.7" font-family="Courier,monospace" font-weight="bold" font-size="14.00">z</text>
<text xml:space="preserve" text-anchor="start" x="36" y="-5.45" font-family="Courier,monospace" font-size="9.00">&lt;module&gt;</text>
</a>
</g>
</g>
<!-- y_functionmoduleat0x10e60cfe0_3&#45;&gt;z_functionmoduleat0x10e60d440_4 -->
<g id="edge2" class="edge">
<title>y_functionmoduleat0x10e60cfe0_3&#45;&gt;z_functionmoduleat0x10e60d440_4</title>
<path fill="none" stroke="black" d="M36.36,-75.56C39.22,-67.99 42.56,-59.16 45.71,-50.83"/>
<polygon fill="black" stroke="black" points="48.89,-52.32 49.16,-41.73 42.34,-49.84 48.89,-52.32"/>
</g>
<!-- x_functionmoduleat0x10d9f5300_2 -->
<g id="node2" class="node">
<title>x_functionmoduleat0x10d9f5300_2</title>
<g id="a_node2"><a xlink:title="&lt;module&gt;:2">
<polygon fill="peachpuff" stroke="black" points="86,-192 28,-192 28,-152 86,-152 86,-192"/>
<text xml:space="preserve" text-anchor="start" x="52.88" y="-175.7" font-family="Courier,monospace" font-weight="bold" font-size="14.00">x</text>
<text xml:space="preserve" text-anchor="start" x="36" y="-157.45" font-family="Courier,monospace" font-size="9.00">&lt;module&gt;</text>
</a>
</g>
</g>
<!-- x_functionmoduleat0x10d9f5300_2&#45;&gt;y_functionmoduleat0x10e60cfe0_3 -->
<g id="edge1" class="edge">
<title>x_functionmoduleat0x10d9f5300_2&#45;&gt;y_functionmoduleat0x10e60cfe0_3</title>
<path fill="none" stroke="black" d="M49.64,-151.56C46.78,-143.99 43.44,-135.16 40.29,-126.83"/>
<polygon fill="black" stroke="black" points="43.66,-125.84 36.84,-117.73 37.11,-128.32 43.66,-125.84"/>
</g>
<!-- x_functionmoduleat0x10d9f5300_2&#45;&gt;z_functionmoduleat0x10e60d440_4 -->
<g id="edge3" class="edge">
<title>x_functionmoduleat0x10d9f5300_2&#45;&gt;z_functionmoduleat0x10e60d440_4</title>
<path fill="none" stroke="black" d="M61.42,-151.52C63.58,-141.05 65.93,-127.89 67,-116 68.6,-98.29 68.6,-93.71 67,-76 66.28,-68.01 64.98,-59.45 63.56,-51.52"/>
<polygon fill="black" stroke="black" points="67.04,-51.12 61.71,-41.97 60.17,-52.45 67.04,-51.12"/>
</g>
</g>
</svg>