<?xml version="1.0" encoding="UTF-8" standalone="no"?>
<!DOCTYPE svg PUBLIC "-//W3C//DTD SVG 1.1//EN"
 "http://www.w3.org/Graphics/SVG/1.1/DTD/svg11.dtd">
<!-- Generated by graphviz version 14.0.2 (20251019.1705)
 -->
<!-- Title: Tree Pages: 1 -->
<svg width="228pt" height="165pt"
 viewBox="0.00 0.00 228.00 165.00" xmlns="http://www.w3.org/2000/svg" xmlns:xlink="http://www.w3.org/1999/xlink">
<g id="graph0" class="graph" transform="scale(1 1) rotate(0) translate(4 161)">
<title>Tree</title>
<polygon fill="white" stroke="none" points="-4,4 -4,-161 224,-161 224,4 -4,4"/>
<!-- 0 -->
<g id="node1" class="node">
<title>0</title>
<path fill="none" stroke="black" d="M208,-157C208,-157 12,-157 12,-157 6,-157 0,-151 0,-145 0,-145 0,-101 0,-101 0,-95 6,-89 12,-89 12,-89 208,-89 208,-89 214,-89 220,-95 220,-101 220,-101 220,-145 220,-145 220,-151 214,-157 208,-157"/>
<text xml:space="preserve" text-anchor="start" x="8" y="-139.7" font-family="Helvetica,sans-Serif" font-size="14.00">(&#39;remove_html_markup&#39;, 12) ≤ 0.0</text>
<text xml:space="preserve" text-anchor="start" x="86.75" y="-124.7" font-family="Helvetica,sans-Serif" font-size="14.00">100.0%</text>
<text xml:space="preserve" text-anchor="start" x="68.75" y="-109.7" font-family="Helvetica,sans-Serif" font-size="14.00">[0.333, 0.667]</text>
<text xml:space="preserve" text-anchor="start" x="92" y="-94.7" font-family="Helvetica,sans-Serif" font-size="14.00">PASS</text>
</g>
<!-- 1 -->
<g id="node2" class="node">
<title>1</title>
<path fill="none" stroke="black" d="M89.25,-53C89.25,-53 44.75,-53 44.75,-53 38.75,-53 32.75,-47 32.75,-41 32.75,-41 32.75,-12 32.75,-12 32.75,-6 38.75,0 44.75,0 44.75,0 89.25,0 89.25,0 95.25,0 101.25,-6 101.25,-12 101.25,-12 101.25,-41 101.25,-41 101.25,-47 95.25,-53 89.25,-53"/>
<text xml:space="preserve" text-anchor="start" x="47.5" y="-35.7" font-family="Helvetica,sans-Serif" font-size="14.00">66.7%</text>
<text xml:space="preserve" text-anchor="start" x="40.75" y="-20.7" font-family="Helvetica,sans-Serif" font-size="14.00">[0.0, 1.0]</text>
<text xml:space="preserve" text-anchor="start" x="49" y="-5.7" font-family="Helvetica,sans-Serif" font-size="14.00">PASS</text>
</g>
<!-- 0&#45;&gt;1 -->
<g id="edge1" class="edge">
<title>0&#45;&gt;1</title>
<path fill="none" stroke="black" d="M94.84,-88.68C91.17,-80.63 87.24,-71.98 83.52,-63.8"/>
<polygon fill="black" stroke="black" points="86.74,-62.42 79.41,-54.77 80.37,-65.32 86.74,-62.42"/>
<text xml:space="preserve" text-anchor="middle" x="70.01" y="-71.01" font-family="Helvetica,sans-Serif" font-size="14.00">True</text>
</g>
<!-- 2 -->
<g id="node3" class="node">
<title>2</title>
<path fill="none" stroke="black" d="M176.25,-53C176.25,-53 131.75,-53 131.75,-53 125.75,-53 119.75,-47 119.75,-41 119.75,-41 119.75,-12 119.75,-12 119.75,-6 125.75,0 131.75,0 131.75,0 176.25,0 176.25,0 182.25,0 188.25,-6 188.25,-12 188.25,-12 188.25,-41 188.25,-41 188.25,-47 182.25,-53 176.25,-53"/>
<text xml:space="preserve" text-anchor="start" x="134.5" y="-35.7" font-family="Helvetica,sans-Serif" font-size="14.00">33.3%</text>
<text xml:space="preserve" text-anchor="start" x="127.75" y="-20.7" font-family="Helvetica,sans-Serif" font-size="14.00">[1.0, 0.0]</text>
<text xml:space="preserve" text-anchor="start" x="139.75" y="-5.7" font-family="Helvetica,sans-Serif" font-size="14.00">FAIL</text>
</g>
<!-- 0&#45;&gt;2 -->
<g id="edge2" class="edge">
<title>0&#45;&gt;2</title>
<path fill="none" stroke="black" d="M125.51,-88.68C129.26,-80.63 133.29,-71.98 137.1,-63.8"/>
<polygon fill="black" stroke="black" points="140.26,-65.31 141.3,-54.77 133.91,-62.35 140.26,-65.31"/>
<text xml:space="preserve" text-anchor="middle" x="150.51" y="-71.08" font-family="Helvetica,sans-Serif" font-size="14.00">False</text>
</g>
</g>
</svg>