<svg xmlns="http://www.w3.org/2000/svg" xmlns:xlink="http://www.w3.org/1999/xlink" width="484pt" height="260pt" viewBox="0.00 0.00 484.00 260.00">
<g id="graph0" class="graph" transform="scale(1 1) rotate(0) translate(4 256)">
<polygon fill="white" stroke="none" points="-4,4 -4,-256 479.88,-256 479.88,4 -4,4"/>
<!-- 0 -->
<g id="node1" class="node">
<title>0</title>
<text xml:space="preserve" text-anchor="start" x="277.38" y="-229.95" font-family="Courier,monospace" font-weight="bold" font-size="14.00" fill="#004080">Call</text>
</g>
<!-- 1 -->
<g id="node2" class="node">
<title>1</title>
<text xml:space="preserve" text-anchor="start" x="138.75" y="-157.95" font-family="Courier,monospace" font-weight="bold" font-size="14.00" fill="#004080">Attribute</text>
</g>
<!-- 0&#45;&#45;1 -->
<g id="edge1" class="edge">
<title>0--1</title>
<path fill="none" stroke="black" d="M292.88,-215C292.88,-215 248.02,-195.07 213.86,-179.88"/>
</g>
<!-- 7 -->
<g id="node8" class="node">
<title>7</title>
<text xml:space="preserve" text-anchor="start" x="260.88" y="-157.95" font-family="Courier,monospace" font-weight="bold" font-size="14.00" fill="#004080">Constant</text>
</g>
<!-- 0&#45;&#45;7 -->
<g id="edge7" class="edge">
<title>0--7</title>
<path fill="none" stroke="black" d="M292.88,-215C292.88,-215 293.26,-194.94 293.55,-179.74"/>
</g>
<!-- 9 -->
<g id="node10" class="node">
<title>9</title>
<text xml:space="preserve" text-anchor="start" x="363.38" y="-157.95" font-family="Courier,monospace" font-weight="bold" font-size="14.00" fill="#004080">Name</text>
</g>
<!-- 0&#45;&#45;9 -->
<g id="edge9" class="edge">
<title>0--9</title>
<path fill="none" stroke="black" d="M292.88,-215C292.88,-215 327.71,-194.18 353.3,-178.88"/>
</g>
<!-- 2 -->
<g id="node3" class="node">
<title>2</title>
<text xml:space="preserve" text-anchor="start" x="61.38" y="-85.95" font-family="Courier,monospace" font-weight="bold" font-size="14.00" fill="#004080">Name</text>
</g>
<!-- 1&#45;&#45;2 -->
<g id="edge2" class="edge">
<title>1--2</title>
<path fill="none" stroke="black" d="M171.88,-143C171.88,-143 132.59,-121.27 104.81,-105.9"/>
</g>
<!-- 5 -->
<g id="node6" class="node">
<title>5</title>
<text xml:space="preserve" text-anchor="middle" x="151.88" y="-84.95" font-family="Courier,monospace" font-size="14.00" fill="#008040">"get"</text>
</g>
<!-- 1&#45;&#45;5 -->
<g id="edge5" class="edge">
<title>1--5</title>
<path fill="none" stroke="black" d="M171.88,-143C171.88,-143 164.16,-122.94 158.31,-107.74"/>
</g>
<!-- 6 -->
<g id="node7" class="node">
<title>6</title>
<text xml:space="preserve" text-anchor="middle" x="225.88" y="-84.95" font-family="Courier,monospace" font-size="14.00" fill="#008040">Load</text>
</g>
<!-- 1&#45;&#45;6 -->
<g id="edge6" class="edge">
<title>1--6</title>
<path fill="none" stroke="black" d="M171.88,-143C171.88,-143 192.71,-122.94 208.49,-107.74"/>
</g>
<!-- 3 -->
<g id="node4" class="node">
<title>3</title>
<text xml:space="preserve" text-anchor="middle" x="36.88" y="-12.95" font-family="Courier,monospace" font-size="14.00" fill="#008040">"_data"</text>
</g>
<!-- 2&#45;&#45;3 -->
<g id="edge3" class="edge">
<title>2--3</title>
<path fill="none" stroke="black" d="M77.88,-71C77.88,-71 62.06,-50.94 50.07,-35.74"/>
</g>
<!-- 4 -->
<g id="node5" class="node">
<title>4</title>
<text xml:space="preserve" text-anchor="middle" x="118.88" y="-12.95" font-family="Courier,monospace" font-size="14.00" fill="#008040">Load</text>
</g>
<!-- 2&#45;&#45;4 -->
<g id="edge4" class="edge">
<title>2--4</title>
<path fill="none" stroke="black" d="M77.88,-71C77.88,-71 93.69,-50.94 105.68,-35.74"/>
</g>
<!-- 8 -->
<g id="node9" class="node">
<title>8</title>
<text xml:space="preserve" text-anchor="middle" x="297.88" y="-84.95" font-family="Courier,monospace" font-size="14.00" fill="#008040">"x"</text>
</g>
<!-- 7&#45;&#45;8 -->
<g id="edge8" class="edge">
<title>7--8</title>
<path fill="none" stroke="black" d="M294.84,-144.05C295.47,-133.05 296.29,-118.76 296.92,-107.79"/>
</g>
<!-- 10 -->
<g id="node11" class="node">
<title>10</title>
<text xml:space="preserve" text-anchor="middle" x="376.88" y="-84.95" font-family="Courier,monospace" font-size="14.00" fill="#008040">"x"</text>
</g>
<!-- 9&#45;&#45;10 -->
<g id="edge10" class="edge">
<title>9--10</title>
<path fill="none" stroke="black" d="M386.88,-143C386.88,-143 383.02,-122.94 380.09,-107.74"/>
</g>
<!-- 11 -->
<g id="node12" class="node">
<title>11</title>
<text xml:space="preserve" text-anchor="middle" x="448.88" y="-84.95" font-family="Courier,monospace" font-size="14.00" fill="#008040">Load</text>
</g>
<!-- 9&#45;&#45;11 -->
<g id="edge11" class="edge">
<title>9--11</title>
<path fill="none" stroke="black" d="M386.88,-143C386.88,-143 410.79,-122.94 428.92,-107.74"/>
</g>
</g>
</svg>