<?xml version="1.0" encoding="UTF-8" standalone="no"?>
<!DOCTYPE svg PUBLIC "-//W3C//DTD SVG 1.1//EN"
 "http://www.w3.org/Graphics/SVG/1.1/DTD/svg11.dtd">
<!-- Generated by graphviz version 14.0.2 (20251019.1705)
 -->
<!-- Title: dependencies Pages: 1 -->
<svg width="264pt" height="504pt"
 viewBox="0.00 0.00 264.00 504.00" xmlns="http://www.w3.org/2000/svg" xmlns:xlink="http://www.w3.org/1999/xlink">
<g id="graph0" class="graph" transform="scale(1 1) rotate(0) translate(4 500)">
<title>dependencies</title>
<polygon fill="white" stroke="none" points="-4,4 -4,-500 260.12,-500 260.12,4 -4,4"/>
<!-- n_functionadd_toat0x10e6c6840_3 -->
<g id="node1" class="node">
<title>n_functionadd_toat0x10e6c6840_3</title>
<g id="a_node1"><a xlink:title="add_to:3">
<polygon fill="peachpuff" stroke="black" points="93.88,-496 35.88,-496 35.88,-456 93.88,-456 93.88,-496"/>
<text xml:space="preserve" text-anchor="start" x="60.75" y="-479.7" font-family="Courier,monospace" font-weight="bold" font-size="14.00">n</text>
<text xml:space="preserve" text-anchor="start" x="43.88" y="-461.45" font-family="Courier,monospace" font-size="9.00">return n</text>
</a>
</g>
</g>
<!-- n_functionadd_toat0x10e6c6840_2 -->
<g id="node9" class="node">
<title>n_functionadd_toat0x10e6c6840_2</title>
<g id="a_node9"><a xlink:title="add_to:2">
<polygon fill="peachpuff" stroke="black" points="129.88,-420 75.88,-420 75.88,-380 129.88,-380 129.88,-420"/>
<text xml:space="preserve" text-anchor="start" x="98.75" y="-403.7" font-family="Courier,monospace" font-weight="bold" font-size="14.00">n</text>
<text xml:space="preserve" text-anchor="start" x="87.12" y="-385.45" font-family="Courier,monospace" font-size="9.00">n += m</text>
</a>
</g>
</g>
<!-- n_functionadd_toat0x10e6c6840_3&#45;&gt;n_functionadd_toat0x10e6c6840_2 -->
<g id="edge7" class="edge">
<title>n_functionadd_toat0x10e6c6840_3&#45;&gt;n_functionadd_toat0x10e6c6840_2</title>
<path fill="none" stroke="black" d="M74.86,-455.56C78.79,-447.91 83.38,-438.96 87.7,-430.55"/>
<polygon fill="black" stroke="black" points="90.81,-432.15 92.27,-421.66 84.58,-428.96 90.81,-432.15"/>
</g>
<!-- y_functionmul_withat0x10e6c6ca0_3 -->
<g id="node2" class="node">
<title>y_functionmul_withat0x10e6c6ca0_3</title>
<g id="a_node2"><a xlink:title="mul_with:3">
<polygon fill="peachpuff" stroke="black" points="131.88,-268 73.88,-268 73.88,-228 131.88,-228 131.88,-268"/>
<text xml:space="preserve" text-anchor="start" x="98.75" y="-251.7" font-family="Courier,monospace" font-weight="bold" font-size="14.00">y</text>
<text xml:space="preserve" text-anchor="start" x="81.88" y="-233.45" font-family="Courier,monospace" font-size="9.00">return x</text>
</a>
</g>
</g>
<!-- x_functionmul_withat0x10e6c6ca0_2 -->
<g id="node4" class="node">
<title>x_functionmul_withat0x10e6c6ca0_2</title>
<g id="a_node4"><a xlink:title="mul_with:2">
<polygon fill="peachpuff" stroke="black" points="167.88,-192 113.88,-192 113.88,-152 167.88,-152 167.88,-192"/>
<text xml:space="preserve" text-anchor="start" x="136.75" y="-175.7" font-family="Courier,monospace" font-weight="bold" font-size="14.00">x</text>
<text xml:space="preserve" text-anchor="start" x="125.12" y="-157.45" font-family="Courier,monospace" font-size="9.00">x *= y</text>
</a>
</g>
</g>
<!-- y_functionmul_withat0x10e6c6ca0_3&#45;&gt;x_functionmul_withat0x10e6c6ca0_2 -->
<g id="edge2" class="edge">
<title>y_functionmul_withat0x10e6c6ca0_3&#45;&gt;x_functionmul_withat0x10e6c6ca0_2</title>
<path fill="none" stroke="black" d="M112.86,-227.56C116.79,-219.91 121.38,-210.96 125.7,-202.55"/>
<polygon fill="black" stroke="black" points="128.81,-204.15 130.27,-193.66 122.58,-200.96 128.81,-204.15"/>
</g>
<!-- add_toreturnvalue_functionadd_toat0x10e6c6840_3 -->
<g id="node3" class="node">
<title>add_toreturnvalue_functionadd_toat0x10e6c6840_3</title>
<g id="a_node3"><a xlink:title="add_to:3">
<polygon fill="peachpuff" stroke="black" points="205.75,-344 0,-344 0,-304 205.75,-304 205.75,-344"/>
<text xml:space="preserve" text-anchor="start" x="8" y="-327.7" font-family="Courier,monospace" font-weight="bold" font-style="italic" font-size="14.00">&lt;add_to() return value&gt;</text>
<text xml:space="preserve" text-anchor="start" x="81.88" y="-309.45" font-family="Courier,monospace" font-size="9.00">return n</text>
</a>
</g>
</g>
<!-- add_toreturnvalue_functionadd_toat0x10e6c6840_3&#45;&gt;y_functionmul_withat0x10e6c6ca0_3 -->
<g id="edge1" class="edge">
<title>add_toreturnvalue_functionadd_toat0x10e6c6840_3&#45;&gt;y_functionmul_withat0x10e6c6ca0_3</title>
<path fill="none" stroke="black" d="M102.88,-303.56C102.88,-296.25 102.88,-287.75 102.88,-279.67"/>
<polygon fill="black" stroke="black" points="106.38,-279.83 102.88,-269.83 99.38,-279.83 106.38,-279.83"/>
</g>
<!-- mul_withreturnvalue_functionmul_withat0x10e6c6ca0_3 -->
<g id="node7" class="node">
<title>mul_withreturnvalue_functionmul_withat0x10e6c6ca0_3</title>
<g id="a_node7"><a xlink:title="mul_with:3">
<polygon fill="peachpuff" stroke="black" points="252,-116 29.75,-116 29.75,-76 252,-76 252,-116"/>
<text xml:space="preserve" text-anchor="start" x="37.75" y="-99.7" font-family="Courier,monospace" font-weight="bold" font-style="italic" font-size="14.00">&lt;mul_with() return value&gt;</text>
<text xml:space="preserve" text-anchor="start" x="119.88" y="-81.45" font-family="Courier,monospace" font-size="9.00">return x</text>
</a>
</g>
</g>
<!-- x_functionmul_withat0x10e6c6ca0_2&#45;&gt;mul_withreturnvalue_functionmul_withat0x10e6c6ca0_3 -->
<g id="edge5" class="edge">
<title>x_functionmul_withat0x10e6c6ca0_2&#45;&gt;mul_withreturnvalue_functionmul_withat0x10e6c6ca0_3</title>
<path fill="none" stroke="black" d="M134.85,-151.56C134.2,-144.25 133.99,-135.75 134.21,-127.67"/>
<polygon fill="black" stroke="black" points="137.7,-128.01 134.78,-117.82 130.71,-127.61 137.7,-128.01"/>
</g>
<!-- x_functionmul_withat0x10e6c6ca0_2&#45;&gt;mul_withreturnvalue_functionmul_withat0x10e6c6ca0_3 -->
<!-- x_functionmul_withat0x10e6c6ca0_3 -->
<g id="node5" class="node">
<title>x_functionmul_withat0x10e6c6ca0_3</title>
<g id="a_node5"><a xlink:title="mul_with:3">
<polygon fill="peachpuff" stroke="black" points="207.88,-268 149.88,-268 149.88,-228 207.88,-228 207.88,-268"/>
<text xml:space="preserve" text-anchor="start" x="174.75" y="-251.7" font-family="Courier,monospace" font-weight="bold" font-size="14.00">x</text>
<text xml:space="preserve" text-anchor="start" x="157.88" y="-233.45" font-family="Courier,monospace" font-size="9.00">return x</text>
</a>
</g>
</g>
<!-- x_functionmul_withat0x10e6c6ca0_3&#45;&gt;x_functionmul_withat0x10e6c6ca0_2 -->
<g id="edge3" class="edge">
<title>x_functionmul_withat0x10e6c6ca0_3&#45;&gt;x_functionmul_withat0x10e6c6ca0_2</title>
<path fill="none" stroke="black" d="M168.89,-227.56C164.96,-219.91 160.37,-210.96 156.05,-202.55"/>
<polygon fill="black" stroke="black" points="159.17,-200.96 151.48,-193.66 152.94,-204.15 159.17,-200.96"/>
</g>
<!-- test_mathreturnvalue_functiontest_mathat0x10e6c7100_2 -->
<g id="node6" class="node">
<title>test_mathreturnvalue_functiontest_mathat0x10e6c7100_2</title>
<g id="a_node6"><a xlink:title="test_math:2">
<polygon fill="peachpuff" stroke="black" points="256.12,-40 25.62,-40 25.62,0 256.12,0 256.12,-40"/>
<text xml:space="preserve" text-anchor="start" x="33.62" y="-23.7" font-family="Courier,monospace" font-weight="bold" font-style="italic" font-size="14.00">&lt;test_math() return value&gt;</text>
<text xml:space="preserve" text-anchor="start" x="56.88" y="-5.45" font-family="Courier,monospace" font-size="9.00">return mul_with(1, add_to(2, 3))</text>
</a>
</g>
</g>
<!-- mul_withreturnvalue_functionmul_withat0x10e6c6ca0_3&#45;&gt;test_mathreturnvalue_functiontest_mathat0x10e6c7100_2 -->
<g id="edge4" class="edge">
<title>mul_withreturnvalue_functionmul_withat0x10e6c6ca0_3&#45;&gt;test_mathreturnvalue_functiontest_mathat0x10e6c7100_2</title>
<path fill="none" stroke="black" d="M140.88,-75.56C140.88,-68.25 140.88,-59.75 140.88,-51.67"/>
<polygon fill="black" stroke="black" points="144.38,-51.83 140.88,-41.83 137.38,-51.83 144.38,-51.83"/>
</g>
<!-- m_functionadd_toat0x10e6c6840_3 -->
<g id="node8" class="node">
<title>m_functionadd_toat0x10e6c6840_3</title>
<g id="a_node8"><a xlink:title="add_to:3">
<polygon fill="peachpuff" stroke="black" points="169.88,-496 111.88,-496 111.88,-456 169.88,-456 169.88,-496"/>
<text xml:space="preserve" text-anchor="start" x="136.75" y="-479.7" font-family="Courier,monospace" font-weight="bold" font-size="14.00">m</text>
<text xml:space="preserve" text-anchor="start" x="119.88" y="-461.45" font-family="Courier,monospace" font-size="9.00">return n</text>
</a>
</g>
</g>
<!-- m_functionadd_toat0x10e6c6840_3&#45;&gt;n_functionadd_toat0x10e6c6840_2 -->
<g id="edge6" class="edge">
<title>m_functionadd_toat0x10e6c6840_3&#45;&gt;n_functionadd_toat0x10e6c6840_2</title>
<path fill="none" stroke="black" d="M130.89,-455.56C126.96,-447.91 122.37,-438.96 118.05,-430.55"/>
<polygon fill="black" stroke="black" points="121.17,-428.96 113.48,-421.66 114.94,-432.15 121.17,-428.96"/>
</g>
<!-- n_functionadd_toat0x10e6c6840_2&#45;&gt;add_toreturnvalue_functionadd_toat0x10e6c6840_3 -->
<g id="edge8" class="edge">
<title>n_functionadd_toat0x10e6c6840_2&#45;&gt;add_toreturnvalue_functionadd_toat0x10e6c6840_3</title>
<path fill="none" stroke="black" d="M96.85,-379.56C96.2,-372.25 95.99,-363.75 96.21,-355.67"/>
<polygon fill="black" stroke="black" points="99.7,-356.01 96.78,-345.82 92.71,-355.61 99.7,-356.01"/>
</g>
<!-- n_functionadd_toat0x10e6c6840_2&#45;&gt;add_toreturnvalue_functionadd_toat0x10e6c6840_3 -->
</g>
</svg>