<svg xmlns="http://www.w3.org/2000/svg" xmlns:xlink="http://www.w3.org/1999/xlink" width="561pt" height="332pt" viewBox="0.00 0.00 561.00 332.00">
<g id="graph0" class="graph" transform="scale(1 1) rotate(0) translate(4 328)">
<polygon fill="white" stroke="none" points="-4,4 -4,-328 556.62,-328 556.62,4 -4,4"/>
<!-- 0 -->
<g id="node1" class="node">
<title>0</title>
<text xml:space="preserve" text-anchor="start" x="184.25" y="-301.95" font-family="Courier,monospace" font-weight="bold" font-size="14.00" fill="#004080">FunctionDef</text>
</g>
<!-- 1 -->
<g id="node2" class="node">
<title>1</title>
<text xml:space="preserve" text-anchor="middle" x="89.62" y="-228.95" font-family="Courier,monospace" font-size="14.00" fill="#008040">"foo"</text>
</g>
<!-- 0&#45;&#45;1 -->
<g id="edge1" class="edge">
<title>0--1</title>
<path fill="none" stroke="black" d="M229.62,-287C229.62,-287 172.21,-269.58 127.62,-252 124.53,-250.78 121.32,-249.45 118.14,-248.09"/>
</g>
<!-- 2 -->
<g id="node3" class="node">
<title>2</title>
<text xml:space="preserve" text-anchor="middle" x="181.62" y="-228.95" font-family="Courier,monospace" font-size="14.00" fill="#008040">arguments</text>
</g>
<!-- 0&#45;&#45;2 -->
<g id="edge2" class="edge">
<title>0--2</title>
<path fill="none" stroke="black" d="M229.62,-287C229.62,-287 211.11,-266.94 197.08,-251.74"/>
</g>
<!-- 3 -->
<g id="node4" class="node">
<title>3</title>
<text xml:space="preserve" text-anchor="start" x="252.88" y="-229.95" font-family="Courier,monospace" font-weight="bold" font-size="14.00" fill="#004080">Assign</text>
</g>
<!-- 0&#45;&#45;3 -->
<g id="edge3" class="edge">
<title>0--3</title>
<path fill="none" stroke="black" d="M229.62,-287C229.62,-287 248.14,-266.94 262.17,-251.74"/>
</g>
<!-- 13 -->
<g id="node14" class="node">
<title>13</title>
<text xml:space="preserve" text-anchor="start" x="381.88" y="-229.95" font-family="Courier,monospace" font-weight="bold" font-size="14.00" fill="#004080">Return</text>
</g>
<!-- 0&#45;&#45;13 -->
<g id="edge13" class="edge">
<title>0--13</title>
<path fill="none" stroke="black" d="M229.62,-287C229.62,-287 323.06,-259.55 374.16,-244.54"/>
</g>
<!-- 4 -->
<g id="node5" class="node">
<title>4</title>
<text xml:space="preserve" text-anchor="start" x="87.12" y="-157.95" font-family="Courier,monospace" font-weight="bold" font-size="14.00" fill="#004080">Name</text>
</g>
<!-- 3&#45;&#45;4 -->
<g id="edge4" class="edge">
<title>3--4</title>
<path fill="none" stroke="black" d="M265.62,-215C265.62,-215 176.39,-186.36 130.38,-171.59"/>
</g>
<!-- 7 -->
<g id="node8" class="node">
<title>7</title>
<text xml:space="preserve" text-anchor="start" x="257" y="-157.95" font-family="Courier,monospace" font-weight="bold" font-size="14.00" fill="#004080">BinOp</text>
</g>
<!-- 3&#45;&#45;7 -->
<g id="edge7" class="edge">
<title>3--7</title>
<path fill="none" stroke="black" d="M265.62,-215C265.62,-215 270.25,-194.94 273.76,-179.74"/>
</g>
<!-- 5 -->
<g id="node6" class="node">
<title>5</title>
<text xml:space="preserve" text-anchor="middle" x="28.62" y="-84.95" font-family="Courier,monospace" font-size="14.00" fill="#008040">"ret"</text>
</g>
<!-- 4&#45;&#45;5 -->
<g id="edge5" class="edge">
<title>4--5</title>
<path fill="none" stroke="black" d="M95.62,-143C95.62,-143 69.78,-122.94 50.19,-107.74"/>
</g>
<!-- 6 -->
<g id="node7" class="node">
<title>6</title>
<text xml:space="preserve" text-anchor="middle" x="103.62" y="-84.95" font-family="Courier,monospace" font-size="14.00" fill="#008040">Store</text>
</g>
<!-- 4&#45;&#45;6 -->
<g id="edge6" class="edge">
<title>4--6</title>
<path fill="none" stroke="black" d="M95.62,-143C95.62,-143 98.71,-122.94 101.05,-107.74"/>
</g>
<!-- 8 -->
<g id="node9" class="node">
<title>8</title>
<text xml:space="preserve" text-anchor="start" x="158.62" y="-85.95" font-family="Courier,monospace" font-weight="bold" font-size="14.00" fill="#004080">Constant</text>
</g>
<!-- 7&#45;&#45;8 -->
<g id="edge8" class="edge">
<title>7--8</title>
<path fill="none" stroke="black" d="M277.62,-143C277.62,-143 244.45,-122.94 219.31,-107.74"/>
</g>
<!-- 10 -->
<g id="node11" class="node">
<title>10</title>
<text xml:space="preserve" text-anchor="middle" x="277.62" y="-84.95" font-family="Courier,monospace" font-size="14.00" fill="#008040">Mult</text>
</g>
<!-- 7&#45;&#45;10 -->
<g id="edge10" class="edge">
<title>7--10</title>
<path fill="none" stroke="black" d="M277.62,-143C277.62,-143 277.62,-122.94 277.62,-107.74"/>
</g>
<!-- 11 -->
<g id="node12" class="node">
<title>11</title>
<text xml:space="preserve" text-anchor="start" x="330.62" y="-85.95" font-family="Courier,monospace" font-weight="bold" font-size="14.00" fill="#004080">Constant</text>
</g>
<!-- 7&#45;&#45;11 -->
<g id="edge11" class="edge">
<title>7--11</title>
<path fill="none" stroke="black" d="M277.62,-143C277.62,-143 310.8,-122.94 335.94,-107.74"/>
</g>
<!-- 9 -->
<g id="node10" class="node">
<title>9</title>
<text xml:space="preserve" text-anchor="middle" x="191.62" y="-12.95" font-family="Courier,monospace" font-size="14.00" fill="#008040">2</text>
</g>
<!-- 8&#45;&#45;9 -->
<g id="edge9" class="edge">
<title>8--9</title>
<path fill="none" stroke="black" d="M191.62,-72.05C191.62,-61.05 191.62,-46.76 191.62,-35.79"/>
</g>
<!-- 12 -->
<g id="node13" class="node">
<title>12</title>
<text xml:space="preserve" text-anchor="middle" x="363.62" y="-12.95" font-family="Courier,monospace" font-size="14.00" fill="#008040">2</text>
</g>
<!-- 11&#45;&#45;12 -->
<g id="edge12" class="edge">
<title>11--12</title>
<path fill="none" stroke="black" d="M363.62,-72.05C363.62,-61.05 363.62,-46.76 363.62,-35.79"/>
</g>
<!-- 14 -->
<g id="node15" class="node">
<title>14</title>
<text xml:space="preserve" text-anchor="start" x="435.12" y="-157.95" font-family="Courier,monospace" font-weight="bold" font-size="14.00" fill="#004080">Name</text>
</g>
<!-- 13&#45;&#45;14 -->
<g id="edge14" class="edge">
<title>13--14</title>
<path fill="none" stroke="black" d="M417.52,-216.05C424.59,-205.05 433.78,-190.76 440.83,-179.79"/>
</g>
<!-- 15 -->
<g id="node16" class="node">
<title>15</title>
<text xml:space="preserve" text-anchor="middle" x="451.62" y="-84.95" font-family="Courier,monospace" font-size="14.00" fill="#008040">"ret"</text>
</g>
<!-- 14&#45;&#45;15 -->
<g id="edge15" class="edge">
<title>14--15</title>
<path fill="none" stroke="black" d="M459.62,-143C459.62,-143 456.54,-122.94 454.2,-107.74"/>
</g>
<!-- 16 -->
<g id="node17" class="node">
<title>16</title>
<text xml:space="preserve" text-anchor="middle" x="525.62" y="-84.95" font-family="Courier,monospace" font-size="14.00" fill="#008040">Load</text>
</g>
<!-- 14&#45;&#45;16 -->
<g id="edge16" class="edge">
<title>14--16</title>
<path fill="none" stroke="black" d="M459.62,-143C459.62,-143 485.08,-122.94 504.38,-107.74"/>
</g>
</g>
</svg>