<?xml version="1.0" encoding="UTF-8" standalone="no"?>
<!DOCTYPE svg PUBLIC "-//W3C//DTD SVG 1.1//EN"
 "http://www.w3.org/Graphics/SVG/1.1/DTD/svg11.dtd">
<!-- Generated by graphviz version 2.40.1 (20161225.0304)
 -->
<!-- Title: dependencies Pages: 1 -->
<svg width="89pt" height="124pt"
 viewBox="0.00 0.00 89.00 124.00" xmlns="http://www.w3.org/2000/svg" xmlns:xlink="http://www.w3.org/1999/xlink">
<g id="graph0" class="graph" transform="scale(1 1) rotate(0) translate(4 120)">
<title>dependencies</title>
<polygon fill="#ffffff" stroke="transparent" points="-4,4 -4,-120 85,-120 85,4 -4,4"/>
<!-- x_functiondemoat0x7fa61b62a158_1 -->
<g id="node1" class="node">
<title>x_functiondemoat0x7fa61b62a158_1</title>
<g id="a_node1"><a xlink:title="demo:1">
<polygon fill="#ffdab9" stroke="#000000" points="81,-116 0,-116 0,-76 81,-76 81,-116"/>
<text text-anchor="start" x="36" y="-101.8" font-family="Fira Mono, Courier, monospace" font-weight="bold" font-size="14.00" fill="#000000">x</text>
<text text-anchor="start" x="8" y="-82.8" font-family="Fira Mono, Courier, monospace" font-size="9.00" fill="#000000">def demo(x):</text>
</a>
</g>
</g>
<!-- z_functiondemoat0x7fa61b62a158_2 -->
<g id="node2" class="node">
<title>z_functiondemoat0x7fa61b62a158_2</title>
<g id="a_node2"><a xlink:title="demo:2">
<polygon fill="#ffdab9" stroke="#000000" points="67.5,-40 13.5,-40 13.5,0 67.5,0 67.5,-40"/>
<text text-anchor="start" x="36" y="-25.8" font-family="Fira Mono, Courier, monospace" font-weight="bold" font-size="14.00" fill="#000000">z</text>
<text text-anchor="start" x="26.5" y="-6.8" font-family="Fira Mono, Courier, monospace" font-size="9.00" fill="#000000">z = x</text>
</a>
</g>
</g>
<!-- x_functiondemoat0x7fa61b62a158_1&#45;&gt;z_functiondemoat0x7fa61b62a158_2 -->
<g id="edge1" class="edge">
<title>x_functiondemoat0x7fa61b62a158_1&#45;&gt;z_functiondemoat0x7fa61b62a158_2</title>
<path fill="none" stroke="#000000" d="M34.4426,-75.6334C33.7819,-67.8186 33.5939,-58.7253 33.8786,-50.183"/>
<polygon fill="#000000" stroke="#000000" points="37.375,-50.3453 34.4602,-40.1593 30.3867,-49.9397 37.375,-50.3453"/>
</g>
<!-- x_functiondemoat0x7fa61b62a158_1&#45;&gt;z_functiondemoat0x7fa61b62a158_2 -->
</g>
</svg>
