<?xml version="1.0" encoding="UTF-8" standalone="no"?>
<!DOCTYPE svg PUBLIC "-//W3C//DTD SVG 1.1//EN"
 "http://www.w3.org/Graphics/SVG/1.1/DTD/svg11.dtd">
<!-- Generated by graphviz version 9.0.0 (20230911.1827)
 -->
<!-- Title: dependencies Pages: 1 -->
<svg width="202pt" height="352pt"
 viewBox="0.00 0.00 201.62 352.00" xmlns="http://www.w3.org/2000/svg" xmlns:xlink="http://www.w3.org/1999/xlink">
<g id="graph0" class="graph" transform="scale(1 1) rotate(0) translate(4 348)">
<title>dependencies</title>
<polygon fill="white" stroke="none" points="-4,4 -4,-348 197.62,-348 197.62,4 -4,4"/>
<!-- test_functiondemoat0x1041ee050_3 -->
<g id="node1" class="node">
<title>test_functiondemoat0x1041ee050_3</title>
<g id="a_node1"><a xlink:title="demo:3">
<polygon fill="peachpuff" stroke="black" points="152.5,-192 36.75,-192 36.75,-152 152.5,-152 152.5,-192"/>
<text text-anchor="start" x="69.88" y="-175.7" font-family="Courier,monospace" font-weight="bold" font-style="italic" font-size="14.00">&lt;test&gt;</text>
<text text-anchor="start" x="44.75" y="-157.45" font-family="Courier,monospace" font-size="9.00">while x &lt;= z &lt;= 64:</text>
</a>
</g>
</g>
<!-- z_functiondemoat0x1041ee050_4 -->
<g id="node3" class="node">
<title>z_functiondemoat0x1041ee050_4</title>
<g id="a_node3"><a xlink:title="demo:4">
<polygon fill="peachpuff" stroke="black" points="121.62,-116 67.62,-116 67.62,-76 121.62,-76 121.62,-116"/>
<text text-anchor="start" x="90.5" y="-99.7" font-family="Courier,monospace" font-weight="bold" font-size="14.00">z</text>
<text text-anchor="start" x="78.88" y="-81.45" font-family="Courier,monospace" font-size="9.00">z *= 2</text>
</a>
</g>
</g>
<!-- test_functiondemoat0x1041ee050_3&#45;&gt;z_functiondemoat0x1041ee050_4 -->
<g id="edge7" class="edge">
<title>test_functiondemoat0x1041ee050_3&#45;&gt;z_functiondemoat0x1041ee050_4</title>
<path fill="none" stroke="grey" stroke-dasharray="5,2" d="M82.58,-151.56C81.27,-144.25 80.85,-135.75 81.3,-127.67"/>
<polygon fill="grey" stroke="grey" points="84.77,-128.15 82.43,-117.82 77.82,-127.35 84.77,-128.15"/>
</g>
<!-- test_functiondemoat0x1041ee050_3&#45;&gt;z_functiondemoat0x1041ee050_4 -->
<!-- x_functiondemoat0x1041ee050_1 -->
<g id="node2" class="node">
<title>x_functiondemoat0x1041ee050_1</title>
<g id="a_node2"><a xlink:title="demo:1">
<polygon fill="peachpuff" stroke="black" points="193.62,-344 51.62,-344 51.62,-304 193.62,-304 193.62,-344"/>
<text text-anchor="start" x="118.5" y="-327.7" font-family="Courier,monospace" font-weight="bold" font-size="14.00">x</text>
<text text-anchor="start" x="59.62" y="-309.45" font-family="Courier,monospace" font-size="9.00">def demo(x: int) &#45;&gt; int:</text>
</a>
</g>
</g>
<!-- x_functiondemoat0x1041ee050_1&#45;&gt;test_functiondemoat0x1041ee050_3 -->
<g id="edge1" class="edge">
<title>x_functiondemoat0x1041ee050_1&#45;&gt;test_functiondemoat0x1041ee050_3</title>
<path fill="none" stroke="black" d="M105.87,-303.53C98.42,-293.6 90.47,-280.9 86.62,-268 80.39,-247.08 82.7,-222.51 86.41,-203.59"/>
<polygon fill="black" stroke="black" points="89.82,-204.35 88.57,-193.83 82.99,-202.83 89.82,-204.35"/>
</g>
<!-- z_functiondemoat0x1041ee050_2 -->
<g id="node4" class="node">
<title>z_functiondemoat0x1041ee050_2</title>
<g id="a_node4"><a xlink:title="demo:2">
<polygon fill="peachpuff" stroke="black" points="149.62,-268 95.62,-268 95.62,-228 149.62,-228 149.62,-268"/>
<text text-anchor="start" x="118.5" y="-251.7" font-family="Courier,monospace" font-weight="bold" font-size="14.00">z</text>
<text text-anchor="start" x="109.5" y="-233.45" font-family="Courier,monospace" font-size="9.00">z = x</text>
</a>
</g>
</g>
<!-- x_functiondemoat0x1041ee050_1&#45;&gt;z_functiondemoat0x1041ee050_2 -->
<g id="edge8" class="edge">
<title>x_functiondemoat0x1041ee050_1&#45;&gt;z_functiondemoat0x1041ee050_2</title>
<path fill="none" stroke="black" d="M116.6,-303.56C115.95,-296.25 115.74,-287.75 115.96,-279.67"/>
<polygon fill="black" stroke="black" points="119.45,-280.01 116.53,-269.82 112.46,-279.61 119.45,-280.01"/>
</g>
<!-- x_functiondemoat0x1041ee050_1&#45;&gt;z_functiondemoat0x1041ee050_2 -->
<!-- z_functiondemoat0x1041ee050_4&#45;&gt;test_functiondemoat0x1041ee050_3 -->
<g id="edge2" class="edge">
<title>z_functiondemoat0x1041ee050_4&#45;&gt;test_functiondemoat0x1041ee050_3</title>
<path fill="none" stroke="black" d="M94.62,-116.31C94.62,-123.61 94.62,-132.1 94.62,-140.19"/>
<polygon fill="black" stroke="black" points="91.13,-140.04 94.63,-150.04 98.13,-140.04 91.13,-140.04"/>
</g>
<!-- z_functiondemoat0x1041ee050_4&#45;&gt;z_functiondemoat0x1041ee050_4 -->
<g id="edge5" class="edge">
<title>z_functiondemoat0x1041ee050_4&#45;&gt;z_functiondemoat0x1041ee050_4</title>
<path fill="none" stroke="black" d="M121.87,-110.24C131.65,-110.54 139.62,-105.8 139.62,-96 139.62,-90.34 136.96,-86.36 132.82,-84.07"/>
<polygon fill="black" stroke="black" points="133.85,-80.71 123.35,-82.08 132.41,-87.56 133.85,-80.71"/>
</g>
<!-- demoreturnvalue_functiondemoat0x1041ee050_5 -->
<g id="node5" class="node">
<title>demoreturnvalue_functiondemoat0x1041ee050_5</title>
<g id="a_node5"><a xlink:title="demo:5">
<polygon fill="peachpuff" stroke="black" points="189.25,-40 0,-40 0,0 189.25,0 189.25,-40"/>
<text text-anchor="start" x="8" y="-23.7" font-family="Courier,monospace" font-weight="bold" font-style="italic" font-size="14.00">&lt;demo() return value&gt;</text>
<text text-anchor="start" x="73.62" y="-5.45" font-family="Courier,monospace" font-size="9.00">return z</text>
</a>
</g>
</g>
<!-- z_functiondemoat0x1041ee050_4&#45;&gt;demoreturnvalue_functiondemoat0x1041ee050_5 -->
<g id="edge4" class="edge">
<title>z_functiondemoat0x1041ee050_4&#45;&gt;demoreturnvalue_functiondemoat0x1041ee050_5</title>
<path fill="none" stroke="black" d="M88.6,-75.56C87.95,-68.25 87.74,-59.75 87.96,-51.67"/>
<polygon fill="black" stroke="black" points="91.45,-52.01 88.53,-41.82 84.46,-51.61 91.45,-52.01"/>
</g>
<!-- z_functiondemoat0x1041ee050_4&#45;&gt;demoreturnvalue_functiondemoat0x1041ee050_5 -->
<!-- z_functiondemoat0x1041ee050_2&#45;&gt;test_functiondemoat0x1041ee050_3 -->
<g id="edge3" class="edge">
<title>z_functiondemoat0x1041ee050_2&#45;&gt;test_functiondemoat0x1041ee050_3</title>
<path fill="none" stroke="black" d="M109.25,-227.56C105.75,-220.08 102.24,-211.36 99.37,-203.11"/>
<polygon fill="black" stroke="black" points="102.76,-202.21 96.38,-193.75 96.09,-204.35 102.76,-202.21"/>
</g>
<!-- z_functiondemoat0x1041ee050_2&#45;&gt;test_functiondemoat0x1041ee050_3 -->
<!-- z_functiondemoat0x1041ee050_2&#45;&gt;z_functiondemoat0x1041ee050_4 -->
<g id="edge6" class="edge">
<title>z_functiondemoat0x1041ee050_2&#45;&gt;z_functiondemoat0x1041ee050_4</title>
<path fill="none" stroke="black" d="M140.96,-227.51C148.96,-217.66 157.47,-205.05 161.62,-192 167.02,-175.06 169.22,-168.07 161.62,-152 155.13,-138.26 143.33,-126.8 131.42,-117.96"/>
<polygon fill="black" stroke="black" points="133.42,-115.09 123.2,-112.3 129.45,-120.85 133.42,-115.09"/>
</g>
</g>
</svg>
