<?xml version="1.0" encoding="UTF-8" standalone="no"?>
<!DOCTYPE svg PUBLIC "-//W3C//DTD SVG 1.1//EN"
 "http://www.w3.org/Graphics/SVG/1.1/DTD/svg11.dtd">
<!-- Generated by graphviz version 7.0.2 (20221119.0110)
 -->
<!-- Title: dependencies Pages: 1 -->
<svg width="342pt" height="276pt"
 viewBox="0.00 0.00 341.50 276.00" xmlns="http://www.w3.org/2000/svg" xmlns:xlink="http://www.w3.org/1999/xlink">
<g id="graph0" class="graph" transform="scale(1 1) rotate(0) translate(4 272)">
<title>dependencies</title>
<polygon fill="white" stroke="none" points="-4,4 -4,-272 337.5,-272 337.5,4 -4,4"/>
<!-- demoreturnvalue_functiondemoat0x106bd53f0_5 -->
<g id="node1" class="node">
<title>demoreturnvalue_functiondemoat0x106bd53f0_5</title>
<g id="a_node1"><a xlink:title="demo:5">
<polygon fill="peachpuff" stroke="black" points="190,-40 0,-40 0,0 190,0 190,-40"/>
<text text-anchor="start" x="8" y="-25.8" font-family="Courier,monospace" font-weight="bold" font-style="italic" font-size="14.00">&lt;demo() return value&gt;</text>
<text text-anchor="start" x="73.5" y="-6.8" font-family="Courier,monospace" font-size="9.00">return z</text>
</a>
</g>
</g>
<!-- z_functiondemoat0x106bd53f0_4 -->
<g id="node2" class="node">
<title>z_functiondemoat0x106bd53f0_4</title>
<g id="a_node2"><a xlink:title="demo:4">
<polygon fill="peachpuff" stroke="black" points="211,-116 157,-116 157,-76 211,-76 211,-116"/>
<text text-anchor="start" x="179.5" y="-101.8" font-family="Courier,monospace" font-weight="bold" font-size="14.00">z</text>
<text text-anchor="start" x="168" y="-82.8" font-family="Courier,monospace" font-size="9.00">z *= 2</text>
</a>
</g>
</g>
<!-- z_functiondemoat0x106bd53f0_4&#45;&gt;demoreturnvalue_functiondemoat0x106bd53f0_5 -->
<g id="edge1" class="edge">
<title>z_functiondemoat0x106bd53f0_4&#45;&gt;demoreturnvalue_functiondemoat0x106bd53f0_5</title>
<path fill="none" stroke="black" d="M156.58,-77.09C145.14,-68.31 132,-57.56 120.75,-47.83"/>
<polygon fill="black" stroke="black" points="123.16,-45.29 113.34,-41.3 118.53,-50.54 123.16,-45.29"/>
</g>
<!-- z_functiondemoat0x106bd53f0_4&#45;&gt;demoreturnvalue_functiondemoat0x106bd53f0_5 -->
<!-- z_functiondemoat0x106bd53f0_4&#45;&gt;z_functiondemoat0x106bd53f0_4 -->
<g id="edge2" class="edge">
<title>z_functiondemoat0x106bd53f0_4&#45;&gt;z_functiondemoat0x106bd53f0_4</title>
<path fill="none" stroke="black" d="M211.24,-110.24C221.02,-110.54 229,-105.8 229,-96 229,-90.34 226.33,-86.36 222.19,-84.07"/>
<polygon fill="black" stroke="black" points="223.23,-80.71 212.72,-82.08 221.78,-87.56 223.23,-80.71"/>
</g>
<!-- test_functiondemoat0x106bd53f0_3 -->
<g id="node5" class="node">
<title>test_functiondemoat0x106bd53f0_3</title>
<g id="a_node5"><a xlink:title="demo:3">
<polygon fill="peachpuff" stroke="black" points="324,-40 208,-40 208,0 324,0 324,-40"/>
<text text-anchor="start" x="241" y="-25.8" font-family="Courier,monospace" font-weight="bold" font-style="italic" font-size="14.00">&lt;test&gt;</text>
<text text-anchor="start" x="216" y="-6.8" font-family="Courier,monospace" font-size="9.00">while x &lt;= z &lt;= 64:</text>
</a>
</g>
</g>
<!-- z_functiondemoat0x106bd53f0_4&#45;&gt;test_functiondemoat0x106bd53f0_3 -->
<g id="edge6" class="edge">
<title>z_functiondemoat0x106bd53f0_4&#45;&gt;test_functiondemoat0x106bd53f0_3</title>
<path fill="none" stroke="black" d="M193.5,-75.56C201.47,-66.97 212.48,-56.75 223.65,-47.49"/>
<polygon fill="black" stroke="black" points="225.79,-50.25 231.4,-41.26 221.41,-44.8 225.79,-50.25"/>
</g>
<!-- x_functiondemoat0x106bd53f0_1 -->
<g id="node3" class="node">
<title>x_functiondemoat0x106bd53f0_1</title>
<g id="a_node3"><a xlink:title="demo:1">
<polygon fill="peachpuff" stroke="black" points="333.5,-268 190.5,-268 190.5,-228 333.5,-228 333.5,-268"/>
<text text-anchor="start" x="257.5" y="-253.8" font-family="Courier,monospace" font-weight="bold" font-size="14.00">x</text>
<text text-anchor="start" x="198.5" y="-234.8" font-family="Courier,monospace" font-size="9.00">def demo(x: int) &#45;&gt; int:</text>
</a>
</g>
</g>
<!-- z_functiondemoat0x106bd53f0_2 -->
<g id="node4" class="node">
<title>z_functiondemoat0x106bd53f0_2</title>
<g id="a_node4"><a xlink:title="demo:2">
<polygon fill="peachpuff" stroke="black" points="289,-192 235,-192 235,-152 289,-152 289,-192"/>
<text text-anchor="start" x="257.5" y="-177.8" font-family="Courier,monospace" font-weight="bold" font-size="14.00">z</text>
<text text-anchor="start" x="248.5" y="-158.8" font-family="Courier,monospace" font-size="9.00">z = x</text>
</a>
</g>
</g>
<!-- x_functiondemoat0x106bd53f0_1&#45;&gt;z_functiondemoat0x106bd53f0_2 -->
<g id="edge5" class="edge">
<title>x_functiondemoat0x106bd53f0_1&#45;&gt;z_functiondemoat0x106bd53f0_2</title>
<path fill="none" stroke="black" d="M255.98,-227.56C255.32,-220.25 255.11,-211.75 255.34,-203.67"/>
<polygon fill="black" stroke="black" points="258.82,-204.01 255.9,-193.82 251.84,-203.61 258.82,-204.01"/>
</g>
<!-- x_functiondemoat0x106bd53f0_1&#45;&gt;z_functiondemoat0x106bd53f0_2 -->
<!-- x_functiondemoat0x106bd53f0_1&#45;&gt;test_functiondemoat0x106bd53f0_3 -->
<g id="edge8" class="edge">
<title>x_functiondemoat0x106bd53f0_1&#45;&gt;test_functiondemoat0x106bd53f0_3</title>
<path fill="none" stroke="black" d="M278.75,-227.53C286.2,-217.6 294.15,-204.9 298,-192 312.48,-143.42 294.22,-85.04 279.93,-50.59"/>
<polygon fill="black" stroke="black" points="283.25,-49.47 276.07,-41.68 276.83,-52.25 283.25,-49.47"/>
</g>
<!-- z_functiondemoat0x106bd53f0_2&#45;&gt;z_functiondemoat0x106bd53f0_4 -->
<g id="edge3" class="edge">
<title>z_functiondemoat0x106bd53f0_2&#45;&gt;z_functiondemoat0x106bd53f0_4</title>
<path fill="none" stroke="black" d="M241.51,-151.56C232.64,-143.14 222.11,-133.16 212.5,-124.04"/>
<polygon fill="black" stroke="black" points="215.12,-121.7 205.45,-117.35 210.3,-126.78 215.12,-121.7"/>
</g>
<!-- z_functiondemoat0x106bd53f0_2&#45;&gt;test_functiondemoat0x106bd53f0_3 -->
<g id="edge7" class="edge">
<title>z_functiondemoat0x106bd53f0_2&#45;&gt;test_functiondemoat0x106bd53f0_3</title>
<path fill="none" stroke="black" d="M257.81,-151.7C256.08,-126.27 257,-81.28 259.65,-51.29"/>
<polygon fill="black" stroke="black" points="263.09,-52.04 260.64,-41.73 256.13,-51.32 263.09,-52.04"/>
</g>
<!-- z_functiondemoat0x106bd53f0_2&#45;&gt;test_functiondemoat0x106bd53f0_3 -->
<!-- test_functiondemoat0x106bd53f0_3&#45;&gt;z_functiondemoat0x106bd53f0_4 -->
<g id="edge4" class="edge">
<title>test_functiondemoat0x106bd53f0_3&#45;&gt;z_functiondemoat0x106bd53f0_4</title>
<path fill="none" stroke="grey" stroke-dasharray="5,2" d="M244.6,-40.31C235.2,-48.79 224.01,-58.9 213.81,-68.1"/>
<polygon fill="grey" stroke="grey" points="211.75,-65.25 206.67,-74.54 216.44,-70.44 211.75,-65.25"/>
</g>
<!-- test_functiondemoat0x106bd53f0_3&#45;&gt;z_functiondemoat0x106bd53f0_4 -->
</g>
</svg>
