<?xml version="1.0" encoding="UTF-8" standalone="no"?>
<!DOCTYPE svg PUBLIC "-//W3C//DTD SVG 1.1//EN"
 "http://www.w3.org/Graphics/SVG/1.1/DTD/svg11.dtd">
<!-- Generated by graphviz version 2.49.3 (20211023.0002)
 -->
<!-- Title: dependencies Pages: 1 -->
<svg width="206pt" height="352pt"
 viewBox="0.00 0.00 205.50 352.00" xmlns="http://www.w3.org/2000/svg" xmlns:xlink="http://www.w3.org/1999/xlink">
<g id="graph0" class="graph" transform="scale(1 1) rotate(0) translate(4 348)">
<title>dependencies</title>
<polygon fill="white" stroke="transparent" points="-4,4 -4,-348 201.5,-348 201.5,4 -4,4"/>
<!-- test_functiondemoat0x10bdb4940_3 -->
<g id="node1" class="node">
<title>test_functiondemoat0x10bdb4940_3</title>
<g id="a_node1"><a xlink:title="demo:3">
<polygon fill="peachpuff" stroke="black" points="156,-192 37,-192 37,-152 156,-152 156,-192"/>
<text text-anchor="start" x="71" y="-177.8" font-family="Fira Mono, Courier, monospace" font-weight="bold" font-style="italic" font-size="14.00">&lt;test&gt;</text>
<text text-anchor="start" x="45" y="-158.8" font-family="Fira Mono, Courier, monospace" font-size="9.00">while x &lt;= z &lt;= 64:</text>
</a>
</g>
</g>
<!-- z_functiondemoat0x10bdb4940_4 -->
<g id="node2" class="node">
<title>z_functiondemoat0x10bdb4940_4</title>
<g id="a_node2"><a xlink:title="demo:4">
<polygon fill="peachpuff" stroke="black" points="123.5,-116 69.5,-116 69.5,-76 123.5,-76 123.5,-116"/>
<text text-anchor="start" x="92" y="-101.8" font-family="Fira Mono, Courier, monospace" font-weight="bold" font-size="14.00">z</text>
<text text-anchor="start" x="80" y="-82.8" font-family="Fira Mono, Courier, monospace" font-size="9.00">z *= 2</text>
</a>
</g>
</g>
<!-- test_functiondemoat0x10bdb4940_3&#45;&gt;z_functiondemoat0x10bdb4940_4 -->
<g id="edge7" class="edge">
<title>test_functiondemoat0x10bdb4940_3&#45;&gt;z_functiondemoat0x10bdb4940_4</title>
<path fill="none" stroke="grey" stroke-dasharray="5,2" d="M84.52,-151.94C83.09,-144.15 82.67,-134.95 83.26,-126.34"/>
<polygon fill="grey" stroke="grey" points="86.75,-126.6 84.49,-116.25 79.81,-125.75 86.75,-126.6"/>
</g>
<!-- test_functiondemoat0x10bdb4940_3&#45;&gt;z_functiondemoat0x10bdb4940_4 -->
<!-- z_functiondemoat0x10bdb4940_4&#45;&gt;test_functiondemoat0x10bdb4940_3 -->
<g id="edge1" class="edge">
<title>z_functiondemoat0x10bdb4940_4&#45;&gt;test_functiondemoat0x10bdb4940_3</title>
<path fill="none" stroke="black" d="M96.5,-116.25C96.5,-124.07 96.5,-133.27 96.5,-141.87"/>
<polygon fill="black" stroke="black" points="93,-141.94 96.5,-151.94 100,-141.94 93,-141.94"/>
</g>
<!-- z_functiondemoat0x10bdb4940_4&#45;&gt;z_functiondemoat0x10bdb4940_4 -->
<g id="edge5" class="edge">
<title>z_functiondemoat0x10bdb4940_4&#45;&gt;z_functiondemoat0x10bdb4940_4</title>
<path fill="none" stroke="black" d="M123.74,-110.24C133.52,-110.54 141.5,-105.8 141.5,-96 141.5,-89.88 138.38,-85.73 133.66,-83.55"/>
<polygon fill="black" stroke="black" points="134.2,-80.09 123.74,-81.76 132.96,-86.98 134.2,-80.09"/>
</g>
<!-- demoreturnvalue_functiondemoat0x10bdb4940_5 -->
<g id="node5" class="node">
<title>demoreturnvalue_functiondemoat0x10bdb4940_5</title>
<g id="a_node5"><a xlink:title="demo:5">
<polygon fill="peachpuff" stroke="black" points="193,-40 0,-40 0,0 193,0 193,-40"/>
<text text-anchor="start" x="8" y="-25.8" font-family="Fira Mono, Courier, monospace" font-weight="bold" font-style="italic" font-size="14.00">&lt;demo() return value&gt;</text>
<text text-anchor="start" x="74.5" y="-6.8" font-family="Fira Mono, Courier, monospace" font-size="9.00">return z</text>
</a>
</g>
</g>
<!-- z_functiondemoat0x10bdb4940_4&#45;&gt;demoreturnvalue_functiondemoat0x10bdb4940_5 -->
<g id="edge8" class="edge">
<title>z_functiondemoat0x10bdb4940_4&#45;&gt;demoreturnvalue_functiondemoat0x10bdb4940_5</title>
<path fill="none" stroke="black" d="M90.51,-75.94C89.79,-68.15 89.58,-58.95 89.88,-50.34"/>
<polygon fill="black" stroke="black" points="93.38,-50.44 90.49,-40.25 86.39,-50.02 93.38,-50.44"/>
</g>
<!-- z_functiondemoat0x10bdb4940_4&#45;&gt;demoreturnvalue_functiondemoat0x10bdb4940_5 -->
<!-- x_functiondemoat0x10bdb4940_1 -->
<g id="node3" class="node">
<title>x_functiondemoat0x10bdb4940_1</title>
<g id="a_node3"><a xlink:title="demo:1">
<polygon fill="peachpuff" stroke="black" points="197.5,-344 51.5,-344 51.5,-304 197.5,-304 197.5,-344"/>
<text text-anchor="start" x="120" y="-329.8" font-family="Fira Mono, Courier, monospace" font-weight="bold" font-size="14.00">x</text>
<text text-anchor="start" x="59.5" y="-310.8" font-family="Fira Mono, Courier, monospace" font-size="9.00">def demo(x: int) &#45;&gt; int:</text>
</a>
</g>
</g>
<!-- x_functiondemoat0x10bdb4940_1&#45;&gt;test_functiondemoat0x10bdb4940_3 -->
<g id="edge2" class="edge">
<title>x_functiondemoat0x10bdb4940_1&#45;&gt;test_functiondemoat0x10bdb4940_3</title>
<path fill="none" stroke="black" d="M107.94,-303.79C100.43,-293.81 92.38,-281.01 88.5,-268 82.12,-246.59 84.69,-221.34 88.55,-202.26"/>
<polygon fill="black" stroke="black" points="92,-202.88 90.78,-192.35 85.17,-201.34 92,-202.88"/>
</g>
<!-- z_functiondemoat0x10bdb4940_2 -->
<g id="node4" class="node">
<title>z_functiondemoat0x10bdb4940_2</title>
<g id="a_node4"><a xlink:title="demo:2">
<polygon fill="peachpuff" stroke="black" points="151.5,-268 97.5,-268 97.5,-228 151.5,-228 151.5,-268"/>
<text text-anchor="start" x="120" y="-253.8" font-family="Fira Mono, Courier, monospace" font-weight="bold" font-size="14.00">z</text>
<text text-anchor="start" x="110.5" y="-234.8" font-family="Fira Mono, Courier, monospace" font-size="9.00">z = x</text>
</a>
</g>
</g>
<!-- x_functiondemoat0x10bdb4940_1&#45;&gt;z_functiondemoat0x10bdb4940_2 -->
<g id="edge4" class="edge">
<title>x_functiondemoat0x10bdb4940_1&#45;&gt;z_functiondemoat0x10bdb4940_2</title>
<path fill="none" stroke="black" d="M118.51,-303.94C117.79,-296.15 117.58,-286.95 117.88,-278.34"/>
<polygon fill="black" stroke="black" points="121.38,-278.44 118.49,-268.25 114.39,-278.02 121.38,-278.44"/>
</g>
<!-- x_functiondemoat0x10bdb4940_1&#45;&gt;z_functiondemoat0x10bdb4940_2 -->
<!-- z_functiondemoat0x10bdb4940_2&#45;&gt;test_functiondemoat0x10bdb4940_3 -->
<g id="edge3" class="edge">
<title>z_functiondemoat0x10bdb4940_2&#45;&gt;test_functiondemoat0x10bdb4940_3</title>
<path fill="none" stroke="black" d="M111.3,-227.94C107.59,-220.06 103.86,-210.75 100.88,-202.05"/>
<polygon fill="black" stroke="black" points="104.13,-200.73 97.78,-192.25 97.46,-202.84 104.13,-200.73"/>
</g>
<!-- z_functiondemoat0x10bdb4940_2&#45;&gt;test_functiondemoat0x10bdb4940_3 -->
<!-- z_functiondemoat0x10bdb4940_2&#45;&gt;z_functiondemoat0x10bdb4940_4 -->
<g id="edge6" class="edge">
<title>z_functiondemoat0x10bdb4940_2&#45;&gt;z_functiondemoat0x10bdb4940_4</title>
<path fill="none" stroke="black" d="M143.54,-227.91C152.02,-218.07 161.08,-205.34 165.5,-192 171.1,-175.13 173.22,-168.02 165.5,-152 158.36,-137.17 145.05,-125.1 132.02,-116.08"/>
<polygon fill="black" stroke="black" points="133.85,-113.1 123.56,-110.6 130.05,-118.98 133.85,-113.1"/>
</g>
</g>
</svg>
