<?xml version="1.0" encoding="UTF-8" standalone="no"?>
<!DOCTYPE svg PUBLIC "-//W3C//DTD SVG 1.1//EN"
 "http://www.w3.org/Graphics/SVG/1.1/DTD/svg11.dtd">
<!-- Generated by graphviz version 9.0.0 (20230911.1827)
 -->
<!-- Title: dependencies Pages: 1 -->
<svg width="150pt" height="124pt"
 viewBox="0.00 0.00 150.00 124.00" xmlns="http://www.w3.org/2000/svg" xmlns:xlink="http://www.w3.org/1999/xlink">
<g id="graph0" class="graph" transform="scale(1 1) rotate(0) translate(4 120)">
<title>dependencies</title>
<polygon fill="white" stroke="none" points="-4,4 -4,-120 146,-120 146,4 -4,4"/>
<!-- z_functiondemoat0x107beb400_2 -->
<g id="node1" class="node">
<title>z_functiondemoat0x107beb400_2</title>
<g id="a_node1"><a xlink:title="demo:2">
<polygon fill="peachpuff" stroke="black" points="98,-40 44,-40 44,0 98,0 98,-40"/>
<text text-anchor="start" x="66.88" y="-23.7" font-family="Courier,monospace" font-weight="bold" font-size="14.00">z</text>
<text text-anchor="start" x="57.88" y="-5.45" font-family="Courier,monospace" font-size="9.00">z = x</text>
</a>
</g>
</g>
<!-- x_functiondemoat0x107beb400_1 -->
<g id="node2" class="node">
<title>x_functiondemoat0x107beb400_1</title>
<g id="a_node2"><a xlink:title="demo:1">
<polygon fill="peachpuff" stroke="black" points="142,-116 0,-116 0,-76 142,-76 142,-116"/>
<text text-anchor="start" x="66.88" y="-99.7" font-family="Courier,monospace" font-weight="bold" font-size="14.00">x</text>
<text text-anchor="start" x="8" y="-81.45" font-family="Courier,monospace" font-size="9.00">def demo(x: int) &#45;&gt; int:</text>
</a>
</g>
</g>
<!-- x_functiondemoat0x107beb400_1&#45;&gt;z_functiondemoat0x107beb400_2 -->
<g id="edge1" class="edge">
<title>x_functiondemoat0x107beb400_1&#45;&gt;z_functiondemoat0x107beb400_2</title>
<path fill="none" stroke="black" d="M64.98,-75.56C64.32,-68.25 64.11,-59.75 64.34,-51.67"/>
<polygon fill="black" stroke="black" points="67.82,-52.01 64.9,-41.82 60.84,-51.61 67.82,-52.01"/>
</g>
<!-- x_functiondemoat0x107beb400_1&#45;&gt;z_functiondemoat0x107beb400_2 -->
</g>
</svg>
