<svg xmlns="http://www.w3.org/2000/svg" xmlns:xlink="http://www.w3.org/1999/xlink" width="1616pt" height="476pt" viewBox="0.00 0.00 1616.00 476.00">
<g id="graph0" class="graph" transform="scale(1 1) rotate(0) translate(4 472)">
<polygon fill="white" stroke="none" points="-4,4 -4,-472 1612,-472 1612,4 -4,4"/>
<!-- 0 -->
<g id="node1" class="node">
<title>0</title>
<text xml:space="preserve" text-anchor="start" x="396.62" y="-445.95" font-family="Courier,monospace" font-weight="bold" font-size="14.00" fill="#004080">FunctionDef</text>
</g>
<!-- 1 -->
<g id="node2" class="node">
<title>1</title>
<text xml:space="preserve" text-anchor="middle" x="150" y="-372.95" font-family="Courier,monospace" font-size="14.00" fill="#008040">"original"</text>
</g>
<!-- 0&#45;&#45;1 -->
<g id="edge1" class="edge">
<title>0--1</title>
<path fill="none" stroke="black" d="M443,-431C443,-431 311.13,-418.68 208,-396 205.13,-395.37 202.19,-394.67 199.24,-393.93"/>
</g>
<!-- 2 -->
<g id="node3" class="node">
<title>2</title>
<text xml:space="preserve" text-anchor="middle" x="262" y="-372.95" font-family="Courier,monospace" font-size="14.00" fill="#008040">arguments</text>
</g>
<!-- 0&#45;&#45;2 -->
<g id="edge2" class="edge">
<title>0--2</title>
<path fill="none" stroke="black" d="M443,-431C443,-431 372.15,-412.57 316,-396 313.08,-395.14 310.07,-394.23 307.04,-393.31"/>
</g>
<!-- 3 -->
<g id="node4" class="node">
<title>3</title>
<text xml:space="preserve" text-anchor="start" x="333.25" y="-373.95" font-family="Courier,monospace" font-weight="bold" font-size="14.00" fill="#004080">Assign</text>
</g>
<!-- 0&#45;&#45;3 -->
<g id="edge3" class="edge">
<title>0--3</title>
<path fill="none" stroke="black" d="M443,-431C443,-431 410.21,-410.94 385.36,-395.74"/>
</g>
<!-- 9 -->
<g id="node10" class="node">
<title>9</title>
<text xml:space="preserve" text-anchor="start" x="417.25" y="-373.95" font-family="Courier,monospace" font-weight="bold" font-size="14.00" fill="#004080">Assign</text>
</g>
<!-- 0&#45;&#45;9 -->
<g id="edge9" class="edge">
<title>0--9</title>
<path fill="none" stroke="black" d="M443,-431C443,-431 442.61,-410.94 442.32,-395.74"/>
</g>
<!-- 17 -->
<g id="node18" class="node">
<title>17</title>
<text xml:space="preserve" text-anchor="start" x="558.25" y="-373.95" font-family="Courier,monospace" font-weight="bold" font-size="14.00" fill="#004080">Assign</text>
</g>
<!-- 0&#45;&#45;17 -->
<g id="edge17" class="edge">
<title>0--17</title>
<path fill="none" stroke="black" d="M443,-431C443,-431 509.17,-406.42 550.53,-391.06"/>
</g>
<!-- 23 -->
<g id="node24" class="node">
<title>23</title>
<text xml:space="preserve" text-anchor="start" x="885.62" y="-373.95" font-family="Courier,monospace" font-weight="bold" font-size="14.00" fill="#004080">For</text>
</g>
<!-- 0&#45;&#45;23 -->
<g id="edge23" class="edge">
<title>0--23</title>
<path fill="none" stroke="black" d="M443,-431C443,-431 773.7,-393.21 871.24,-382.06"/>
</g>
<!-- 54 -->
<g id="node55" class="node">
<title>54</title>
<text xml:space="preserve" text-anchor="start" x="1141.25" y="-373.95" font-family="Courier,monospace" font-weight="bold" font-size="14.00" fill="#004080">Return</text>
</g>
<!-- 0&#45;&#45;54 -->
<g id="edge54" class="edge">
<title>0--54</title>
<path fill="none" stroke="black" d="M443,-431C443,-431 715.79,-411.77 934,-396 1005.1,-390.86 1088.44,-384.73 1133.34,-381.41"/>
</g>
<!-- 4 -->
<g id="node5" class="node">
<title>4</title>
<text xml:space="preserve" text-anchor="start" x="84.5" y="-301.95" font-family="Courier,monospace" font-weight="bold" font-size="14.00" fill="#004080">Name</text>
</g>
<!-- 3&#45;&#45;4 -->
<g id="edge4" class="edge">
<title>3--4</title>
<path fill="none" stroke="black" d="M325,-365C325,-365 320.27,-361.64 316,-360 250,-334.58 229.49,-341.64 161,-324 150.1,-321.19 138.15,-317.86 127.81,-314.89"/>
</g>
<!-- 7 -->
<g id="node8" class="node">
<title>7</title>
<text xml:space="preserve" text-anchor="start" x="178" y="-301.95" font-family="Courier,monospace" font-weight="bold" font-size="14.00" fill="#004080">Constant</text>
</g>
<!-- 3&#45;&#45;7 -->
<g id="edge7" class="edge">
<title>3--7</title>
<path fill="none" stroke="black" d="M325,-365C325,-365 320.04,-362.14 316,-360 292.54,-347.57 265.83,-334.1 245.22,-323.85"/>
</g>
<!-- 5 -->
<g id="node6" class="node">
<title>5</title>
<text xml:space="preserve" text-anchor="middle" x="27" y="-228.95" font-family="Courier,monospace" font-size="14.00" fill="#008040">"a"</text>
</g>
<!-- 4&#45;&#45;5 -->
<g id="edge5" class="edge">
<title>4--5</title>
<path fill="none" stroke="black" d="M93,-287C93,-287 67.54,-266.94 48.25,-251.74"/>
</g>
<!-- 6 -->
<g id="node7" class="node">
<title>6</title>
<text xml:space="preserve" text-anchor="middle" x="101" y="-228.95" font-family="Courier,monospace" font-size="14.00" fill="#008040">Store</text>
</g>
<!-- 4&#45;&#45;6 -->
<g id="edge6" class="edge">
<title>4--6</title>
<path fill="none" stroke="black" d="M93,-287C93,-287 96.09,-266.94 98.42,-251.74"/>
</g>
<!-- 8 -->
<g id="node9" class="node">
<title>8</title>
<text xml:space="preserve" text-anchor="middle" x="175" y="-228.95" font-family="Courier,monospace" font-size="14.00" fill="#008040">True</text>
</g>
<!-- 7&#45;&#45;8 -->
<g id="edge8" class="edge">
<title>7--8</title>
<path fill="none" stroke="black" d="M202.29,-288.05C196.63,-277.05 189.28,-262.76 183.63,-251.79"/>
</g>
<!-- 10 -->
<g id="node11" class="node">
<title>10</title>
<text xml:space="preserve" text-anchor="start" x="304.5" y="-301.95" font-family="Courier,monospace" font-weight="bold" font-size="14.00" fill="#004080">Name</text>
</g>
<!-- 9&#45;&#45;10 -->
<g id="edge10" class="edge">
<title>9--10</title>
<path fill="none" stroke="black" d="M432,-359C432,-359 380.72,-334.98 347.87,-319.59"/>
</g>
<!-- 13 -->
<g id="node14" class="node">
<title>13</title>
<text xml:space="preserve" text-anchor="start" x="413.12" y="-301.95" font-family="Courier,monospace" font-weight="bold" font-size="14.00" fill="#004080">UnaryOp</text>
</g>
<!-- 9&#45;&#45;13 -->
<g id="edge13" class="edge">
<title>9--13</title>
<path fill="none" stroke="black" d="M432,-359C432,-359 435.86,-338.94 438.78,-323.74"/>
</g>
<!-- 11 -->
<g id="node12" class="node">
<title>11</title>
<text xml:space="preserve" text-anchor="middle" x="247" y="-228.95" font-family="Courier,monospace" font-size="14.00" fill="#008040">"b"</text>
</g>
<!-- 10&#45;&#45;11 -->
<g id="edge11" class="edge">
<title>10--11</title>
<path fill="none" stroke="black" d="M313,-287C313,-287 287.54,-266.94 268.25,-251.74"/>
</g>
<!-- 12 -->
<g id="node13" class="node">
<title>12</title>
<text xml:space="preserve" text-anchor="middle" x="321" y="-228.95" font-family="Courier,monospace" font-size="14.00" fill="#008040">Store</text>
</g>
<!-- 10&#45;&#45;12 -->
<g id="edge12" class="edge">
<title>10--12</title>
<path fill="none" stroke="black" d="M313,-287C313,-287 316.09,-266.94 318.42,-251.74"/>
</g>
<!-- 14 -->
<g id="node15" class="node">
<title>14</title>
<text xml:space="preserve" text-anchor="middle" x="395" y="-228.95" font-family="Courier,monospace" font-size="14.00" fill="#008040">Not</text>
</g>
<!-- 13&#45;&#45;14 -->
<g id="edge14" class="edge">
<title>13--14</title>
<path fill="none" stroke="black" d="M441,-287C441,-287 423.26,-266.94 409.81,-251.74"/>
</g>
<!-- 15 -->
<g id="node16" class="node">
<title>15</title>
<text xml:space="preserve" text-anchor="start" x="448" y="-229.95" font-family="Courier,monospace" font-weight="bold" font-size="14.00" fill="#004080">Constant</text>
</g>
<!-- 13&#45;&#45;15 -->
<g id="edge15" class="edge">
<title>13--15</title>
<path fill="none" stroke="black" d="M441,-287C441,-287 456.43,-266.94 468.12,-251.74"/>
</g>
<!-- 16 -->
<g id="node17" class="node">
<title>16</title>
<text xml:space="preserve" text-anchor="middle" x="481" y="-156.95" font-family="Courier,monospace" font-size="14.00" fill="#008040">False</text>
</g>
<!-- 15&#45;&#45;16 -->
<g id="edge16" class="edge">
<title>15--16</title>
<path fill="none" stroke="black" d="M481,-216.05C481,-205.05 481,-190.76 481,-179.79"/>
</g>
<!-- 18 -->
<g id="node19" class="node">
<title>18</title>
<text xml:space="preserve" text-anchor="start" x="566.5" y="-301.95" font-family="Courier,monospace" font-weight="bold" font-size="14.00" fill="#004080">Name</text>
</g>
<!-- 17&#45;&#45;18 -->
<g id="edge18" class="edge">
<title>17--18</title>
<path fill="none" stroke="black" d="M593,-359C593,-359 589.14,-338.94 586.22,-323.74"/>
</g>
<!-- 21 -->
<g id="node22" class="node">
<title>21</title>
<text xml:space="preserve" text-anchor="start" x="667" y="-301.95" font-family="Courier,monospace" font-weight="bold" font-size="14.00" fill="#004080">Constant</text>
</g>
<!-- 17&#45;&#45;21 -->
<g id="edge21" class="edge">
<title>17--21</title>
<path fill="none" stroke="black" d="M593,-359C593,-359 634.02,-339.07 665.26,-323.88"/>
</g>
<!-- 19 -->
<g id="node20" class="node">
<title>19</title>
<text xml:space="preserve" text-anchor="middle" x="567" y="-228.95" font-family="Courier,monospace" font-size="14.00" fill="#008040">"c"</text>
</g>
<!-- 18&#45;&#45;19 -->
<g id="edge19" class="edge">
<title>18--19</title>
<path fill="none" stroke="black" d="M587,-287C587,-287 579.28,-266.94 573.44,-251.74"/>
</g>
<!-- 20 -->
<g id="node21" class="node">
<title>20</title>
<text xml:space="preserve" text-anchor="middle" x="641" y="-228.95" font-family="Courier,monospace" font-size="14.00" fill="#008040">Store</text>
</g>
<!-- 18&#45;&#45;20 -->
<g id="edge20" class="edge">
<title>18--20</title>
<path fill="none" stroke="black" d="M587,-287C587,-287 607.83,-266.94 623.62,-251.74"/>
</g>
<!-- 22 -->
<g id="node23" class="node">
<title>22</title>
<text xml:space="preserve" text-anchor="middle" x="715" y="-228.95" font-family="Courier,monospace" font-size="14.00" fill="#008040">30</text>
</g>
<!-- 21&#45;&#45;22 -->
<g id="edge22" class="edge">
<title>21--22</title>
<path fill="none" stroke="black" d="M703.63,-288.05C705.99,-277.05 709.05,-262.76 711.4,-251.79"/>
</g>
<!-- 24 -->
<g id="node25" class="node">
<title>24</title>
<text xml:space="preserve" text-anchor="start" x="844.5" y="-301.95" font-family="Courier,monospace" font-weight="bold" font-size="14.00" fill="#004080">Name</text>
</g>
<!-- 23&#45;&#45;24 -->
<g id="edge24" class="edge">
<title>23--24</title>
<path fill="none" stroke="black" d="M907,-359C907,-359 889.26,-338.94 875.81,-323.74"/>
</g>
<!-- 27 -->
<g id="node28" class="node">
<title>27</title>
<text xml:space="preserve" text-anchor="start" x="918.5" y="-301.95" font-family="Courier,monospace" font-weight="bold" font-size="14.00" fill="#004080">Call</text>
</g>
<!-- 23&#45;&#45;27 -->
<g id="edge27" class="edge">
<title>23--27</title>
<path fill="none" stroke="black" d="M907,-359C907,-359 917.8,-338.94 925.99,-323.74"/>
</g>
<!-- 34 -->
<g id="node35" class="node">
<title>34</title>
<text xml:space="preserve" text-anchor="start" x="1178.75" y="-301.95" font-family="Courier,monospace" font-weight="bold" font-size="14.00" fill="#004080">If</text>
</g>
<!-- 23&#45;&#45;34 -->
<g id="edge34" class="edge">
<title>23--34</title>
<path fill="none" stroke="black" d="M907,-359C907,-359 1090.07,-325 1160.15,-311.99"/>
</g>
<!-- 25 -->
<g id="node26" class="node">
<title>25</title>
<text xml:space="preserve" text-anchor="middle" x="787" y="-228.95" font-family="Courier,monospace" font-size="14.00" fill="#008040">"i"</text>
</g>
<!-- 24&#45;&#45;25 -->
<g id="edge25" class="edge">
<title>24--25</title>
<path fill="none" stroke="black" d="M853,-287C853,-287 827.54,-266.94 808.25,-251.74"/>
</g>
<!-- 26 -->
<g id="node27" class="node">
<title>26</title>
<text xml:space="preserve" text-anchor="middle" x="861" y="-228.95" font-family="Courier,monospace" font-size="14.00" fill="#008040">Store</text>
</g>
<!-- 24&#45;&#45;26 -->
<g id="edge26" class="edge">
<title>24--26</title>
<path fill="none" stroke="black" d="M853,-287C853,-287 856.09,-266.94 858.42,-251.74"/>
</g>
<!-- 28 -->
<g id="node29" class="node">
<title>28</title>
<text xml:space="preserve" text-anchor="start" x="918.5" y="-229.95" font-family="Courier,monospace" font-weight="bold" font-size="14.00" fill="#004080">Name</text>
</g>
<!-- 27&#45;&#45;28 -->
<g id="edge28" class="edge">
<title>27--28</title>
<path fill="none" stroke="black" d="M942,-287C942,-287 939.3,-266.94 937.25,-251.74"/>
</g>
<!-- 31 -->
<g id="node32" class="node">
<title>31</title>
<text xml:space="preserve" text-anchor="start" x="990.5" y="-229.95" font-family="Courier,monospace" font-weight="bold" font-size="14.00" fill="#004080">Name</text>
</g>
<!-- 27&#45;&#45;31 -->
<g id="edge31" class="edge">
<title>27--31</title>
<path fill="none" stroke="black" d="M942,-287C942,-287 967.07,-266.94 986.08,-251.74"/>
</g>
<!-- 29 -->
<g id="node30" class="node">
<title>29</title>
<text xml:space="preserve" text-anchor="middle" x="817" y="-156.95" font-family="Courier,monospace" font-size="14.00" fill="#008040">"range"</text>
</g>
<!-- 28&#45;&#45;29 -->
<g id="edge29" class="edge">
<title>28--29</title>
<path fill="none" stroke="black" d="M919,-215C919,-215 879.9,-195.07 850.12,-179.88"/>
</g>
<!-- 30 -->
<g id="node31" class="node">
<title>30</title>
<text xml:space="preserve" text-anchor="middle" x="899" y="-156.95" font-family="Courier,monospace" font-size="14.00" fill="#008040">Load</text>
</g>
<!-- 28&#45;&#45;30 -->
<g id="edge30" class="edge">
<title>28--30</title>
<path fill="none" stroke="black" d="M919,-215C919,-215 911.28,-194.94 905.44,-179.74"/>
</g>
<!-- 32 -->
<g id="node33" class="node">
<title>32</title>
<text xml:space="preserve" text-anchor="middle" x="971" y="-156.95" font-family="Courier,monospace" font-size="14.00" fill="#008040">"c"</text>
</g>
<!-- 31&#45;&#45;32 -->
<g id="edge32" class="edge">
<title>31--32</title>
<path fill="none" stroke="black" d="M1007,-215C1007,-215 993.11,-194.94 982.59,-179.74"/>
</g>
<!-- 33 -->
<g id="node34" class="node">
<title>33</title>
<text xml:space="preserve" text-anchor="middle" x="1043" y="-156.95" font-family="Courier,monospace" font-size="14.00" fill="#008040">Load</text>
</g>
<!-- 31&#45;&#45;33 -->
<g id="edge33" class="edge">
<title>31--33</title>
<path fill="none" stroke="black" d="M1007,-215C1007,-215 1020.89,-194.94 1031.41,-179.74"/>
</g>
<!-- 35 -->
<g id="node36" class="node">
<title>35</title>
<text xml:space="preserve" text-anchor="start" x="1158.12" y="-229.95" font-family="Courier,monospace" font-weight="bold" font-size="14.00" fill="#004080">Compare</text>
</g>
<!-- 34&#45;&#45;35 -->
<g id="edge35" class="edge">
<title>34--35</title>
<path fill="none" stroke="black" d="M1198,-287C1198,-287 1193.76,-266.94 1190.54,-251.74"/>
</g>
<!-- 42 -->
<g id="node43" class="node">
<title>42</title>
<text xml:space="preserve" text-anchor="start" x="1315.75" y="-229.95" font-family="Courier,monospace" font-weight="bold" font-size="14.00" fill="#004080">If</text>
</g>
<!-- 34&#45;&#45;42 -->
<g id="edge42" class="edge">
<title>34--42</title>
<path fill="none" stroke="black" d="M1198,-287C1198,-287 1260.29,-261.29 1297.28,-246.03"/>
</g>
<!-- 36 -->
<g id="node37" class="node">
<title>36</title>
<text xml:space="preserve" text-anchor="start" x="1098.5" y="-157.95" font-family="Courier,monospace" font-weight="bold" font-size="14.00" fill="#004080">Name</text>
</g>
<!-- 35&#45;&#45;36 -->
<g id="edge36" class="edge">
<title>35--36</title>
<path fill="none" stroke="black" d="M1187,-215C1187,-215 1159.23,-194.94 1138.18,-179.74"/>
</g>
<!-- 39 -->
<g id="node40" class="node">
<title>39</title>
<text xml:space="preserve" text-anchor="middle" x="1187" y="-156.95" font-family="Courier,monospace" font-size="14.00" fill="#008040">Eq</text>
</g>
<!-- 35&#45;&#45;39 -->
<g id="edge39" class="edge">
<title>35--39</title>
<path fill="none" stroke="black" d="M1187,-215C1187,-215 1187,-194.94 1187,-179.74"/>
</g>
<!-- 40 -->
<g id="node41" class="node">
<title>40</title>
<text xml:space="preserve" text-anchor="start" x="1240" y="-157.95" font-family="Courier,monospace" font-weight="bold" font-size="14.00" fill="#004080">Constant</text>
</g>
<!-- 35&#45;&#45;40 -->
<g id="edge40" class="edge">
<title>35--40</title>
<path fill="none" stroke="black" d="M1187,-215C1187,-215 1220.18,-194.94 1245.32,-179.74"/>
</g>
<!-- 37 -->
<g id="node38" class="node">
<title>37</title>
<text xml:space="preserve" text-anchor="middle" x="1060" y="-84.95" font-family="Courier,monospace" font-size="14.00" fill="#008040">"i"</text>
</g>
<!-- 36&#45;&#45;37 -->
<g id="edge37" class="edge">
<title>36--37</title>
<path fill="none" stroke="black" d="M1111,-143C1111,-143 1091.33,-122.94 1076.42,-107.74"/>
</g>
<!-- 38 -->
<g id="node39" class="node">
<title>38</title>
<text xml:space="preserve" text-anchor="middle" x="1132" y="-84.95" font-family="Courier,monospace" font-size="14.00" fill="#008040">Load</text>
</g>
<!-- 36&#45;&#45;38 -->
<g id="edge38" class="edge">
<title>36--38</title>
<path fill="none" stroke="black" d="M1111,-143C1111,-143 1119.1,-122.94 1125.24,-107.74"/>
</g>
<!-- 41 -->
<g id="node42" class="node">
<title>41</title>
<text xml:space="preserve" text-anchor="middle" x="1221" y="-84.95" font-family="Courier,monospace" font-size="14.00" fill="#008040">15</text>
</g>
<!-- 40&#45;&#45;41 -->
<g id="edge41" class="edge">
<title>40--41</title>
<path fill="none" stroke="black" d="M1260.41,-144.05C1252.24,-133.05 1241.62,-118.76 1233.47,-107.79"/>
</g>
<!-- 43 -->
<g id="node44" class="node">
<title>43</title>
<text xml:space="preserve" text-anchor="start" x="1340.25" y="-157.95" font-family="Courier,monospace" font-weight="bold" font-size="14.00" fill="#004080">BoolOp</text>
</g>
<!-- 42&#45;&#45;43 -->
<g id="edge43" class="edge">
<title>42--43</title>
<path fill="none" stroke="black" d="M1344,-215C1344,-215 1352.1,-194.94 1358.24,-179.74"/>
</g>
<!-- 51 -->
<g id="node52" class="node">
<title>51</title>
<text xml:space="preserve" text-anchor="start" x="1461.25" y="-157.95" font-family="Courier,monospace" font-weight="bold" font-size="14.00" fill="#004080">Return</text>
</g>
<!-- 42&#45;&#45;51 -->
<g id="edge51" class="edge">
<title>42--51</title>
<path fill="none" stroke="black" d="M1344,-215C1344,-215 1411.5,-190.28 1453.42,-174.93"/>
</g>
<!-- 44 -->
<g id="node45" class="node">
<title>44</title>
<text xml:space="preserve" text-anchor="middle" x="1293" y="-84.95" font-family="Courier,monospace" font-size="14.00" fill="#008040">And</text>
</g>
<!-- 43&#45;&#45;44 -->
<g id="edge44" class="edge">
<title>43--44</title>
<path fill="none" stroke="black" d="M1365,-143C1365,-143 1337.23,-122.94 1316.18,-107.74"/>
</g>
<!-- 45 -->
<g id="node46" class="node">
<title>45</title>
<text xml:space="preserve" text-anchor="start" x="1348.5" y="-85.95" font-family="Courier,monospace" font-weight="bold" font-size="14.00" fill="#004080">Name</text>
</g>
<!-- 43&#45;&#45;45 -->
<g id="edge45" class="edge">
<title>43--45</title>
<path fill="none" stroke="black" d="M1365,-143C1365,-143 1365,-122.94 1365,-107.74"/>
</g>
<!-- 48 -->
<g id="node49" class="node">
<title>48</title>
<text xml:space="preserve" text-anchor="start" x="1420.5" y="-85.95" font-family="Courier,monospace" font-weight="bold" font-size="14.00" fill="#004080">Name</text>
</g>
<!-- 43&#45;&#45;48 -->
<g id="edge48" class="edge">
<title>43--48</title>
<path fill="none" stroke="black" d="M1365,-143C1365,-143 1392.77,-122.94 1413.82,-107.74"/>
</g>
<!-- 46 -->
<g id="node47" class="node">
<title>46</title>
<text xml:space="preserve" text-anchor="middle" x="1293" y="-12.95" font-family="Courier,monospace" font-size="14.00" fill="#008040">"a"</text>
</g>
<!-- 45&#45;&#45;46 -->
<g id="edge46" class="edge">
<title>45--46</title>
<path fill="none" stroke="black" d="M1358,-71C1358,-71 1332.93,-50.94 1313.92,-35.74"/>
</g>
<!-- 47 -->
<g id="node48" class="node">
<title>47</title>
<text xml:space="preserve" text-anchor="middle" x="1365" y="-12.95" font-family="Courier,monospace" font-size="14.00" fill="#008040">Load</text>
</g>
<!-- 45&#45;&#45;47 -->
<g id="edge47" class="edge">
<title>45--47</title>
<path fill="none" stroke="black" d="M1358,-71C1358,-71 1360.7,-50.94 1362.75,-35.74"/>
</g>
<!-- 49 -->
<g id="node50" class="node">
<title>49</title>
<text xml:space="preserve" text-anchor="middle" x="1437" y="-12.95" font-family="Courier,monospace" font-size="14.00" fill="#008040">"b"</text>
</g>
<!-- 48&#45;&#45;49 -->
<g id="edge49" class="edge">
<title>48--49</title>
<path fill="none" stroke="black" d="M1444,-71C1444,-71 1441.3,-50.94 1439.25,-35.74"/>
</g>
<!-- 50 -->
<g id="node51" class="node">
<title>50</title>
<text xml:space="preserve" text-anchor="middle" x="1509" y="-12.95" font-family="Courier,monospace" font-size="14.00" fill="#008040">Load</text>
</g>
<!-- 48&#45;&#45;50 -->
<g id="edge50" class="edge">
<title>48--50</title>
<path fill="none" stroke="black" d="M1444,-71C1444,-71 1469.07,-50.94 1488.08,-35.74"/>
</g>
<!-- 52 -->
<g id="node53" class="node">
<title>52</title>
<text xml:space="preserve" text-anchor="start" x="1519" y="-85.95" font-family="Courier,monospace" font-weight="bold" font-size="14.00" fill="#004080">Constant</text>
</g>
<!-- 51&#45;&#45;52 -->
<g id="edge52" class="edge">
<title>51--52</title>
<path fill="none" stroke="black" d="M1501.98,-144.05C1512.35,-133.05 1525.82,-118.76 1536.17,-107.79"/>
</g>
<!-- 53 -->
<g id="node54" class="node">
<title>53</title>
<text xml:space="preserve" text-anchor="middle" x="1581" y="-12.95" font-family="Courier,monospace" font-size="14.00" fill="#008040">1</text>
</g>
<!-- 52&#45;&#45;53 -->
<g id="edge53" class="edge">
<title>52--53</title>
<path fill="none" stroke="black" d="M1559.02,-72.05C1563.58,-61.05 1569.5,-46.76 1574.04,-35.79"/>
</g>
<!-- 55 -->
<g id="node56" class="node">
<title>55</title>
<text xml:space="preserve" text-anchor="start" x="1322" y="-301.95" font-family="Courier,monospace" font-weight="bold" font-size="14.00" fill="#004080">Constant</text>
</g>
<!-- 54&#45;&#45;55 -->
<g id="edge55" class="edge">
<title>54--55</title>
<path fill="none" stroke="black" d="M1198.49,-364.97C1230.47,-353.12 1279.41,-335 1314.04,-322.17"/>
</g>
<!-- 56 -->
<g id="node57" class="node">
<title>56</title>
<text xml:space="preserve" text-anchor="middle" x="1396" y="-228.95" font-family="Courier,monospace" font-size="14.00" fill="#008040">0</text>
</g>
<!-- 55&#45;&#45;56 -->
<g id="edge56" class="edge">
<title>55--56</title>
<path fill="none" stroke="black" d="M1364.92,-288.05C1371.37,-277.05 1379.74,-262.76 1386.17,-251.79"/>
</g>
</g>
</svg>