<?xml version="1.0" encoding="UTF-8" standalone="no"?>
<!DOCTYPE svg PUBLIC "-//W3C//DTD SVG 1.1//EN"
 "http://www.w3.org/Graphics/SVG/1.1/DTD/svg11.dtd">
<!-- Generated by graphviz version 14.0.2 (20251019.1705)
 -->
<!-- Title: dependencies Pages: 1 -->
<svg width="197pt" height="276pt"
 viewBox="0.00 0.00 197.00 276.00" xmlns="http://www.w3.org/2000/svg" xmlns:xlink="http://www.w3.org/1999/xlink">
<g id="graph0" class="graph" transform="scale(1 1) rotate(0) translate(4 272)">
<title>dependencies</title>
<polygon fill="white" stroke="none" points="-4,4 -4,-272 192.75,-272 192.75,4 -4,4"/>
<!-- y_functionmoduleat0x10e60cfe0_3 -->
<g id="node1" class="node">
<title>y_functionmoduleat0x10e60cfe0_3</title>
<g id="a_node1"><a xlink:title="&lt;module&gt;:3">
<polygon fill="peachpuff" stroke="black" points="165.75,-192 107.75,-192 107.75,-152 165.75,-152 165.75,-192"/>
<text xml:space="preserve" text-anchor="start" x="132.62" y="-175.7" font-family="Courier,monospace" font-weight="bold" font-size="14.00">y</text>
<text xml:space="preserve" text-anchor="start" x="115.75" y="-157.45" font-family="Courier,monospace" font-size="9.00">&lt;module&gt;</text>
</a>
</g>
</g>
<!-- test_functionmoduleat0x10d9f54e0_1 -->
<g id="node3" class="node">
<title>test_functionmoduleat0x10d9f54e0_1</title>
<g id="a_node3"><a xlink:title="&lt;module&gt;:1">
<polygon fill="peachpuff" stroke="black" points="131.5,-116 0,-116 0,-76 131.5,-76 131.5,-116"/>
<text xml:space="preserve" text-anchor="start" x="41" y="-99.7" font-family="Courier,monospace" font-weight="bold" font-style="italic" font-size="14.00">&lt;test&gt;</text>
<text xml:space="preserve" text-anchor="start" x="8" y="-81.45" font-family="Courier,monospace" font-size="9.00">_test_data.get(&#39;x&#39;, x)</text>
</a>
</g>
</g>
<!-- y_functionmoduleat0x10e60cfe0_3&#45;&gt;test_functionmoduleat0x10d9f54e0_1 -->
<g id="edge2" class="edge">
<title>y_functionmoduleat0x10e60cfe0_3&#45;&gt;test_functionmoduleat0x10d9f54e0_1</title>
<path fill="none" stroke="black" d="M118.1,-151.56C110.19,-143.31 100.83,-133.56 92.22,-124.59"/>
<polygon fill="black" stroke="black" points="94.78,-122.2 85.33,-117.4 89.73,-127.04 94.78,-122.2"/>
</g>
<!-- z_functionmoduleat0x10e60cfe0_3 -->
<g id="node4" class="node">
<title>z_functionmoduleat0x10e60cfe0_3</title>
<g id="a_node4"><a xlink:title="&lt;module&gt;:3">
<polygon fill="peachpuff" stroke="black" points="188.75,-40 130.75,-40 130.75,0 188.75,0 188.75,-40"/>
<text xml:space="preserve" text-anchor="start" x="155.62" y="-23.7" font-family="Courier,monospace" font-weight="bold" font-size="14.00">z</text>
<text xml:space="preserve" text-anchor="start" x="138.75" y="-5.45" font-family="Courier,monospace" font-size="9.00">&lt;module&gt;</text>
</a>
</g>
</g>
<!-- y_functionmoduleat0x10e60cfe0_3&#45;&gt;z_functionmoduleat0x10e60cfe0_3 -->
<g id="edge4" class="edge">
<title>y_functionmoduleat0x10e60cfe0_3&#45;&gt;z_functionmoduleat0x10e60cfe0_3</title>
<path fill="none" stroke="black" d="M139.71,-151.7C143.61,-126.27 150.51,-81.28 155.1,-51.29"/>
<polygon fill="black" stroke="black" points="158.52,-52.14 156.57,-41.72 151.6,-51.08 158.52,-52.14"/>
</g>
<!-- x_functionmoduleat0x10d9f5300_2 -->
<g id="node2" class="node">
<title>x_functionmoduleat0x10d9f5300_2</title>
<g id="a_node2"><a xlink:title="&lt;module&gt;:2">
<polygon fill="peachpuff" stroke="black" points="165.75,-268 107.75,-268 107.75,-228 165.75,-228 165.75,-268"/>
<text xml:space="preserve" text-anchor="start" x="132.62" y="-251.7" font-family="Courier,monospace" font-weight="bold" font-size="14.00">x</text>
<text xml:space="preserve" text-anchor="start" x="115.75" y="-233.45" font-family="Courier,monospace" font-size="9.00">&lt;module&gt;</text>
</a>
</g>
</g>
<!-- x_functionmoduleat0x10d9f5300_2&#45;&gt;y_functionmoduleat0x10e60cfe0_3 -->
<g id="edge1" class="edge">
<title>x_functionmoduleat0x10d9f5300_2&#45;&gt;y_functionmoduleat0x10e60cfe0_3</title>
<path fill="none" stroke="black" d="M136.75,-227.56C136.75,-220.25 136.75,-211.75 136.75,-203.67"/>
<polygon fill="black" stroke="black" points="140.25,-203.83 136.75,-193.83 133.25,-203.83 140.25,-203.83"/>
</g>
<!-- x_functionmoduleat0x10d9f5300_2&#45;&gt;test_functionmoduleat0x10d9f54e0_1 -->
<g id="edge3" class="edge">
<title>x_functionmoduleat0x10d9f5300_2&#45;&gt;test_functionmoduleat0x10d9f54e0_1</title>
<path fill="none" stroke="black" d="M121.49,-227.69C113.94,-217.5 105.1,-204.52 98.75,-192 88.22,-171.24 79.71,-146.34 73.97,-127.23"/>
<polygon fill="black" stroke="black" points="77.33,-126.26 71.18,-117.63 70.61,-128.21 77.33,-126.26"/>
</g>
<!-- x_functionmoduleat0x10d9f5300_2&#45;&gt;z_functionmoduleat0x10e60cfe0_3 -->
<g id="edge5" class="edge">
<title>x_functionmoduleat0x10d9f5300_2&#45;&gt;z_functionmoduleat0x10e60cfe0_3</title>
<path fill="none" stroke="black" d="M154.42,-227.68C162.28,-217.78 170.67,-205.07 174.75,-192 189.58,-144.46 178.65,-86.12 169.28,-51.34"/>
<polygon fill="black" stroke="black" points="172.72,-50.61 166.62,-41.95 165.98,-52.53 172.72,-50.61"/>
</g>
<!-- test_functionmoduleat0x10d9f54e0_1&#45;&gt;z_functionmoduleat0x10e60cfe0_3 -->
<g id="edge6" class="edge">
<title>test_functionmoduleat0x10d9f54e0_1&#45;&gt;z_functionmoduleat0x10e60cfe0_3</title>
<path fill="none" stroke="grey" stroke-dasharray="5,2" d="M90.45,-75.56C101.46,-66.89 114.59,-56.55 126.45,-47.21"/>
<polygon fill="grey" stroke="grey" points="128.34,-50.18 134.03,-41.25 124.01,-44.68 128.34,-50.18"/>
</g>
</g>
</svg>