<?xml version="1.0" encoding="UTF-8" standalone="no"?>
<!DOCTYPE svg PUBLIC "-//W3C//DTD SVG 1.1//EN"
 "http://www.w3.org/Graphics/SVG/1.1/DTD/svg11.dtd">
<!-- Generated by graphviz version 14.0.2 (20251019.1705)
 -->
<!-- Title: dependencies Pages: 1 -->
<svg width="395pt" height="960pt"
 viewBox="0.00 0.00 395.00 960.00" xmlns="http://www.w3.org/2000/svg" xmlns:xlink="http://www.w3.org/1999/xlink">
<g id="graph0" class="graph" transform="scale(1 1) rotate(0) translate(4 956)">
<title>dependencies</title>
<polygon fill="white" stroke="none" points="-4,4 -4,-956 390.79,-956 390.79,4 -4,4"/>
<!-- test_functionremove_html_markupat0x10d6c2480_148 -->
<g id="node1" class="node">
<title>test_functionremove_html_markupat0x10d6c2480_148</title>
<g id="a_node1"><a xlink:title="remove_html_markup:148">
<polygon fill="peachpuff" stroke="black" points="254.79,-268 123.29,-268 123.29,-228 254.79,-228 254.79,-268"/>
<text xml:space="preserve" text-anchor="start" x="164.29" y="-251.7" font-family="Courier,monospace" font-weight="bold" font-style="italic" font-size="14.00">&lt;test&gt;</text>
<text xml:space="preserve" text-anchor="start" x="131.29" y="-233.45" font-family="Courier,monospace" font-size="9.00">&lt;remove_html_markup()&gt;</text>
</a>
</g>
</g>
<!-- test_functionremove_html_markupat0x10d6c2480_150 -->
<g id="node4" class="node">
<title>test_functionremove_html_markupat0x10d6c2480_150</title>
<g id="a_node4"><a xlink:title="remove_html_markup:150">
<polygon fill="peachpuff" stroke="black" points="254.79,-192 123.29,-192 123.29,-152 254.79,-152 254.79,-192"/>
<text xml:space="preserve" text-anchor="start" x="164.29" y="-175.7" font-family="Courier,monospace" font-weight="bold" font-style="italic" font-size="14.00">&lt;test&gt;</text>
<text xml:space="preserve" text-anchor="start" x="131.29" y="-157.45" font-family="Courier,monospace" font-size="9.00">&lt;remove_html_markup()&gt;</text>
</a>
</g>
</g>
<!-- test_functionremove_html_markupat0x10d6c2480_148&#45;&gt;test_functionremove_html_markupat0x10d6c2480_150 -->
<g id="edge5" class="edge">
<title>test_functionremove_html_markupat0x10d6c2480_148&#45;&gt;test_functionremove_html_markupat0x10d6c2480_150</title>
<path fill="none" stroke="grey" stroke-dasharray="5,2" d="M183.02,-227.56C182.36,-220.25 182.15,-211.75 182.38,-203.67"/>
<polygon fill="grey" stroke="grey" points="185.86,-204.01 182.94,-193.82 178.87,-203.61 185.86,-204.01"/>
</g>
<!-- test_functionremove_html_markupat0x10d6c2480_148&#45;&gt;test_functionremove_html_markupat0x10d6c2480_150 -->
<!-- c_functionremove_html_markupat0x10d6c2480_141 -->
<g id="node2" class="node">
<title>c_functionremove_html_markupat0x10d6c2480_141</title>
<g id="a_node2"><a xlink:title="remove_html_markup:141">
<polygon fill="peachpuff" stroke="black" points="292.79,-648 161.29,-648 161.29,-608 292.79,-608 292.79,-648"/>
<text xml:space="preserve" text-anchor="start" x="222.91" y="-631.7" font-family="Courier,monospace" font-weight="bold" font-size="14.00">c</text>
<text xml:space="preserve" text-anchor="start" x="169.29" y="-613.45" font-family="Courier,monospace" font-size="9.00">&lt;remove_html_markup()&gt;</text>
</a>
</g>
</g>
<!-- c_functionremove_html_markupat0x10d6c2480_141&#45;&gt;test_functionremove_html_markupat0x10d6c2480_148 -->
<g id="edge1" class="edge">
<title>c_functionremove_html_markupat0x10d6c2480_141&#45;&gt;test_functionremove_html_markupat0x10d6c2480_148</title>
<path fill="none" stroke="black" d="M244.25,-607.61C251.91,-597.69 260.08,-584.99 264.04,-572 279.08,-522.69 272.95,-506.78 264.04,-456 252.5,-390.27 221.82,-317.92 203.47,-278.55"/>
<polygon fill="black" stroke="black" points="206.73,-277.26 199.29,-269.72 200.4,-280.26 206.73,-277.26"/>
</g>
<!-- test_functionremove_html_markupat0x10d6c2480_146 -->
<g id="node3" class="node">
<title>test_functionremove_html_markupat0x10d6c2480_146</title>
<g id="a_node3"><a xlink:title="remove_html_markup:146">
<polygon fill="peachpuff" stroke="black" points="160.79,-420 29.29,-420 29.29,-380 160.79,-380 160.79,-420"/>
<text xml:space="preserve" text-anchor="start" x="70.29" y="-403.7" font-family="Courier,monospace" font-weight="bold" font-style="italic" font-size="14.00">&lt;test&gt;</text>
<text xml:space="preserve" text-anchor="start" x="37.29" y="-385.45" font-family="Courier,monospace" font-size="9.00">&lt;remove_html_markup()&gt;</text>
</a>
</g>
</g>
<!-- c_functionremove_html_markupat0x10d6c2480_141&#45;&gt;test_functionremove_html_markupat0x10d6c2480_146 -->
<g id="edge14" class="edge">
<title>c_functionremove_html_markupat0x10d6c2480_141&#45;&gt;test_functionremove_html_markupat0x10d6c2480_146</title>
<path fill="none" stroke="black" d="M163.19,-607.53C145.03,-599.2 126.75,-587.68 114.04,-572 81.78,-532.22 84.21,-469.03 89.33,-431.62"/>
<polygon fill="black" stroke="black" points="92.76,-432.36 90.82,-421.94 85.84,-431.3 92.76,-432.36"/>
</g>
<!-- out_functionremove_html_markupat0x10d6c2480_151 -->
<g id="node7" class="node">
<title>out_functionremove_html_markupat0x10d6c2480_151</title>
<g id="a_node7"><a xlink:title="remove_html_markup:151">
<polygon fill="peachpuff" stroke="black" points="254.79,-116 123.29,-116 123.29,-76 254.79,-76 254.79,-116"/>
<text xml:space="preserve" text-anchor="start" x="176.66" y="-99.7" font-family="Courier,monospace" font-weight="bold" font-size="14.00">out</text>
<text xml:space="preserve" text-anchor="start" x="131.29" y="-81.45" font-family="Courier,monospace" font-size="9.00">&lt;remove_html_markup()&gt;</text>
</a>
</g>
</g>
<!-- c_functionremove_html_markupat0x10d6c2480_141&#45;&gt;out_functionremove_html_markupat0x10d6c2480_151 -->
<g id="edge7" class="edge">
<title>c_functionremove_html_markupat0x10d6c2480_141&#45;&gt;out_functionremove_html_markupat0x10d6c2480_151</title>
<path fill="none" stroke="black" d="M250.33,-607.59C261.04,-597.77 273.28,-585.15 282.04,-572 307.34,-534.01 321.04,-522.64 321.04,-477 321.04,-477 321.04,-477 321.04,-247 321.04,-192.64 271.57,-148.62 233.2,-122.65"/>
<polygon fill="black" stroke="black" points="235.27,-119.82 224.99,-117.27 231.43,-125.68 235.27,-119.82"/>
</g>
<!-- test_functionremove_html_markupat0x10d6c2480_144 -->
<g id="node10" class="node">
<title>test_functionremove_html_markupat0x10d6c2480_144</title>
<g id="a_node10"><a xlink:title="remove_html_markup:144">
<polygon fill="peachpuff" stroke="black" points="254.79,-572 123.29,-572 123.29,-532 254.79,-532 254.79,-572"/>
<text xml:space="preserve" text-anchor="start" x="164.29" y="-555.7" font-family="Courier,monospace" font-weight="bold" font-style="italic" font-size="14.00">&lt;test&gt;</text>
<text xml:space="preserve" text-anchor="start" x="131.29" y="-537.45" font-family="Courier,monospace" font-size="9.00">&lt;remove_html_markup()&gt;</text>
</a>
</g>
</g>
<!-- c_functionremove_html_markupat0x10d6c2480_141&#45;&gt;test_functionremove_html_markupat0x10d6c2480_144 -->
<g id="edge19" class="edge">
<title>c_functionremove_html_markupat0x10d6c2480_141&#45;&gt;test_functionremove_html_markupat0x10d6c2480_144</title>
<path fill="none" stroke="black" d="M211.03,-607.56C206.42,-599.91 201.62,-590.96 197.58,-582.55"/>
<polygon fill="black" stroke="black" points="200.89,-581.35 193.57,-573.69 194.51,-584.24 200.89,-581.35"/>
</g>
<!-- c_functionremove_html_markupat0x10d6c2480_141&#45;&gt;test_functionremove_html_markupat0x10d6c2480_144 -->
<!-- test_functionremove_html_markupat0x10d6c2480_146&#45;&gt;test_functionremove_html_markupat0x10d6c2480_148 -->
<g id="edge2" class="edge">
<title>test_functionremove_html_markupat0x10d6c2480_146&#45;&gt;test_functionremove_html_markupat0x10d6c2480_148</title>
<path fill="none" stroke="grey" stroke-dasharray="5,2" d="M132.24,-379.6C146.12,-370.57 160.75,-358.57 170.04,-344 182.25,-324.86 186.86,-299.49 188.5,-279.78"/>
<polygon fill="grey" stroke="grey" points="191.99,-280.05 189.09,-269.86 185,-279.64 191.99,-280.05"/>
</g>
<!-- tag_functionremove_html_markupat0x10d6c2480_147 -->
<g id="node5" class="node">
<title>tag_functionremove_html_markupat0x10d6c2480_147</title>
<g id="a_node5"><a xlink:title="remove_html_markup:147">
<polygon fill="peachpuff" stroke="black" points="160.79,-344 29.29,-344 29.29,-304 160.79,-304 160.79,-344"/>
<text xml:space="preserve" text-anchor="start" x="82.66" y="-327.7" font-family="Courier,monospace" font-weight="bold" font-size="14.00">tag</text>
<text xml:space="preserve" text-anchor="start" x="37.29" y="-309.45" font-family="Courier,monospace" font-size="9.00">&lt;remove_html_markup()&gt;</text>
</a>
</g>
</g>
<!-- test_functionremove_html_markupat0x10d6c2480_146&#45;&gt;tag_functionremove_html_markupat0x10d6c2480_147 -->
<g id="edge11" class="edge">
<title>test_functionremove_html_markupat0x10d6c2480_146&#45;&gt;tag_functionremove_html_markupat0x10d6c2480_147</title>
<path fill="none" stroke="grey" stroke-dasharray="5,2" d="M89.02,-379.56C88.36,-372.25 88.15,-363.75 88.38,-355.67"/>
<polygon fill="grey" stroke="grey" points="91.86,-356.01 88.94,-345.82 84.87,-355.61 91.86,-356.01"/>
</g>
<!-- test_functionremove_html_markupat0x10d6c2480_146&#45;&gt;tag_functionremove_html_markupat0x10d6c2480_147 -->
<!-- remove_html_markupreturnvalue_functionremove_html_markupat0x10d6c2480_153 -->
<g id="node12" class="node">
<title>remove_html_markupreturnvalue_functionremove_html_markupat0x10d6c2480_153</title>
<g id="a_node12"><a xlink:title="remove_html_markup:153">
<polygon fill="peachpuff" stroke="black" points="341.41,-40 36.66,-40 36.66,0 341.41,0 341.41,-40"/>
<text xml:space="preserve" text-anchor="start" x="44.66" y="-23.7" font-family="Courier,monospace" font-weight="bold" font-style="italic" font-size="14.00">&lt;remove_html_markup() return value&gt;</text>
<text xml:space="preserve" text-anchor="start" x="131.29" y="-5.45" font-family="Courier,monospace" font-size="9.00">&lt;remove_html_markup()&gt;</text>
</a>
</g>
</g>
<!-- test_functionremove_html_markupat0x10d6c2480_146&#45;&gt;remove_html_markupreturnvalue_functionremove_html_markupat0x10d6c2480_153 -->
<g id="edge17" class="edge">
<title>test_functionremove_html_markupat0x10d6c2480_146&#45;&gt;remove_html_markupreturnvalue_functionremove_html_markupat0x10d6c2480_153</title>
<path fill="none" stroke="black" d="M57.83,-379.6C43.95,-370.57 29.33,-358.57 20.04,-344 -3.11,-307.7 1.04,-292.06 1.04,-249 1.04,-249 1.04,-249 1.04,-171 1.04,-108.56 65.18,-67.89 118.53,-44.86"/>
<polygon fill="black" stroke="black" points="119.75,-48.14 127.64,-41.07 117.06,-41.68 119.75,-48.14"/>
</g>
<!-- test_functionremove_html_markupat0x10d6c2480_150&#45;&gt;out_functionremove_html_markupat0x10d6c2480_151 -->
<g id="edge9" class="edge">
<title>test_functionremove_html_markupat0x10d6c2480_150&#45;&gt;out_functionremove_html_markupat0x10d6c2480_151</title>
<path fill="none" stroke="grey" stroke-dasharray="5,2" d="M183.02,-151.56C182.36,-144.25 182.15,-135.75 182.38,-127.67"/>
<polygon fill="grey" stroke="grey" points="185.86,-128.01 182.94,-117.82 178.87,-127.61 185.86,-128.01"/>
</g>
<!-- test_functionremove_html_markupat0x10d6c2480_150&#45;&gt;out_functionremove_html_markupat0x10d6c2480_151 -->
<!-- tag_functionremove_html_markupat0x10d6c2480_147&#45;&gt;test_functionremove_html_markupat0x10d6c2480_148 -->
<!-- tag_functionremove_html_markupat0x10d6c2480_147&#45;&gt;test_functionremove_html_markupat0x10d6c2480_150 -->
<g id="edge3" class="edge">
<title>tag_functionremove_html_markupat0x10d6c2480_147&#45;&gt;test_functionremove_html_markupat0x10d6c2480_150</title>
<path fill="none" stroke="black" d="M94.9,-303.65C95.62,-283.31 99.3,-251.12 114.04,-228 121.3,-216.62 131.81,-206.81 142.68,-198.75"/>
<polygon fill="black" stroke="black" points="144.37,-201.84 150.59,-193.27 140.38,-196.09 144.37,-201.84"/>
</g>
<!-- tag_functionremove_html_markupat0x10d6c2480_145 -->
<g id="node6" class="node">
<title>tag_functionremove_html_markupat0x10d6c2480_145</title>
<g id="a_node6"><a xlink:title="remove_html_markup:145">
<polygon fill="peachpuff" stroke="black" points="254.79,-496 123.29,-496 123.29,-456 254.79,-456 254.79,-496"/>
<text xml:space="preserve" text-anchor="start" x="176.66" y="-479.7" font-family="Courier,monospace" font-weight="bold" font-size="14.00">tag</text>
<text xml:space="preserve" text-anchor="start" x="131.29" y="-461.45" font-family="Courier,monospace" font-size="9.00">&lt;remove_html_markup()&gt;</text>
</a>
</g>
</g>
<!-- tag_functionremove_html_markupat0x10d6c2480_145&#45;&gt;test_functionremove_html_markupat0x10d6c2480_146 -->
<!-- tag_functionremove_html_markupat0x10d6c2480_145&#45;&gt;test_functionremove_html_markupat0x10d6c2480_150 -->
<g id="edge4" class="edge">
<title>tag_functionremove_html_markupat0x10d6c2480_145&#45;&gt;test_functionremove_html_markupat0x10d6c2480_150</title>
<path fill="none" stroke="black" d="M204.53,-455.55C236.67,-412.68 304.35,-307.55 264.04,-228 258.17,-216.41 248.58,-206.68 238.19,-198.78"/>
<polygon fill="black" stroke="black" points="240.38,-196.03 230.17,-193.17 236.36,-201.77 240.38,-196.03"/>
</g>
<!-- out_functionremove_html_markupat0x10d6c2480_151&#45;&gt;out_functionremove_html_markupat0x10d6c2480_151 -->
<g id="edge6" class="edge">
<title>out_functionremove_html_markupat0x10d6c2480_151&#45;&gt;out_functionremove_html_markupat0x10d6c2480_151</title>
<path fill="none" stroke="black" d="M255.04,-109.12C265.58,-107.2 272.79,-102.83 272.79,-96 272.79,-91.95 270.25,-88.76 265.98,-86.43"/>
<polygon fill="black" stroke="black" points="267.07,-83.11 256.48,-83.35 264.91,-89.77 267.07,-83.11"/>
</g>
<!-- out_functionremove_html_markupat0x10d6c2480_151&#45;&gt;remove_html_markupreturnvalue_functionremove_html_markupat0x10d6c2480_153 -->
<g id="edge16" class="edge">
<title>out_functionremove_html_markupat0x10d6c2480_151&#45;&gt;remove_html_markupreturnvalue_functionremove_html_markupat0x10d6c2480_153</title>
<path fill="none" stroke="black" d="M183.02,-75.56C182.36,-68.25 182.15,-59.75 182.38,-51.67"/>
<polygon fill="black" stroke="black" points="185.86,-52.01 182.94,-41.82 178.87,-51.61 185.86,-52.01"/>
</g>
<!-- out_functionremove_html_markupat0x10d6c2480_151&#45;&gt;remove_html_markupreturnvalue_functionremove_html_markupat0x10d6c2480_153 -->
<!-- out_functionremove_html_markupat0x10d6c2480_139 -->
<g id="node8" class="node">
<title>out_functionremove_html_markupat0x10d6c2480_139</title>
<g id="a_node8"><a xlink:title="remove_html_markup:139">
<polygon fill="peachpuff" stroke="black" points="386.79,-724 255.29,-724 255.29,-684 386.79,-684 386.79,-724"/>
<text xml:space="preserve" text-anchor="start" x="308.66" y="-707.7" font-family="Courier,monospace" font-weight="bold" font-size="14.00">out</text>
<text xml:space="preserve" text-anchor="start" x="263.29" y="-689.45" font-family="Courier,monospace" font-size="9.00">&lt;remove_html_markup()&gt;</text>
</a>
</g>
</g>
<!-- out_functionremove_html_markupat0x10d6c2480_139&#45;&gt;c_functionremove_html_markupat0x10d6c2480_141 -->
<!-- out_functionremove_html_markupat0x10d6c2480_139&#45;&gt;out_functionremove_html_markupat0x10d6c2480_151 -->
<g id="edge8" class="edge">
<title>out_functionremove_html_markupat0x10d6c2480_139&#45;&gt;out_functionremove_html_markupat0x10d6c2480_151</title>
<path fill="none" stroke="black" d="M329.28,-683.5C340.46,-655.26 359.04,-601.09 359.04,-553 359.04,-553 359.04,-553 359.04,-247 359.04,-186.92 298.6,-145.16 249.8,-121.23"/>
<polygon fill="black" stroke="black" points="251.49,-118.16 240.95,-117.04 248.49,-124.48 251.49,-118.16"/>
</g>
<!-- quote_functionremove_html_markupat0x10d6c2480_138 -->
<g id="node9" class="node">
<title>quote_functionremove_html_markupat0x10d6c2480_138</title>
<g id="a_node9"><a xlink:title="remove_html_markup:138">
<polygon fill="peachpuff" stroke="black" points="198.79,-800 67.29,-800 67.29,-760 198.79,-760 198.79,-800"/>
<text xml:space="preserve" text-anchor="start" x="112.41" y="-783.7" font-family="Courier,monospace" font-weight="bold" font-size="14.00">quote</text>
<text xml:space="preserve" text-anchor="start" x="75.29" y="-765.45" font-family="Courier,monospace" font-size="9.00">&lt;remove_html_markup()&gt;</text>
</a>
</g>
</g>
<!-- quote_functionremove_html_markupat0x10d6c2480_138&#45;&gt;test_functionremove_html_markupat0x10d6c2480_146 -->
<g id="edge13" class="edge">
<title>quote_functionremove_html_markupat0x10d6c2480_138&#45;&gt;test_functionremove_html_markupat0x10d6c2480_146</title>
<path fill="none" stroke="black" d="M104.57,-759.54C70.8,-733.91 19.04,-685.42 19.04,-629 19.04,-629 19.04,-629 19.04,-551 19.04,-504.37 48.62,-457.54 70.87,-428.91"/>
<polygon fill="black" stroke="black" points="73.32,-431.45 76.85,-421.46 67.86,-427.07 73.32,-431.45"/>
</g>
<!-- quote_functionremove_html_markupat0x10d6c2480_138&#45;&gt;out_functionremove_html_markupat0x10d6c2480_139 -->
<!-- quote_functionremove_html_markupat0x10d6c2480_138&#45;&gt;test_functionremove_html_markupat0x10d6c2480_144 -->
<g id="edge18" class="edge">
<title>quote_functionremove_html_markupat0x10d6c2480_138&#45;&gt;test_functionremove_html_markupat0x10d6c2480_144</title>
<path fill="none" stroke="black" d="M132.24,-759.6C131.54,-727.15 132.86,-660.3 152.04,-608 155.39,-598.86 160.57,-589.75 166,-581.66"/>
<polygon fill="black" stroke="black" points="168.8,-583.75 171.76,-573.58 163.1,-579.69 168.8,-583.75"/>
</g>
<!-- test_functionremove_html_markupat0x10d6c2480_144&#45;&gt;test_functionremove_html_markupat0x10d6c2480_146 -->
<g id="edge15" class="edge">
<title>test_functionremove_html_markupat0x10d6c2480_144&#45;&gt;test_functionremove_html_markupat0x10d6c2480_146</title>
<path fill="none" stroke="grey" stroke-dasharray="5,2" d="M151.83,-531.6C137.95,-522.57 123.33,-510.57 114.04,-496 101.83,-476.86 97.21,-451.49 95.58,-431.78"/>
<polygon fill="grey" stroke="grey" points="99.07,-431.64 94.99,-421.86 92.09,-432.05 99.07,-431.64"/>
</g>
<!-- test_functionremove_html_markupat0x10d6c2480_144&#45;&gt;tag_functionremove_html_markupat0x10d6c2480_145 -->
<g id="edge10" class="edge">
<title>test_functionremove_html_markupat0x10d6c2480_144&#45;&gt;tag_functionremove_html_markupat0x10d6c2480_145</title>
<path fill="none" stroke="grey" stroke-dasharray="5,2" d="M183.02,-531.56C182.36,-524.25 182.15,-515.75 182.38,-507.67"/>
<polygon fill="grey" stroke="grey" points="185.86,-508.01 182.94,-497.82 178.87,-507.61 185.86,-508.01"/>
</g>
<!-- test_functionremove_html_markupat0x10d6c2480_144&#45;&gt;tag_functionremove_html_markupat0x10d6c2480_145 -->
<!-- s_functionremove_html_markupat0x10d6c2480_136 -->
<g id="node11" class="node">
<title>s_functionremove_html_markupat0x10d6c2480_136</title>
<g id="a_node11"><a xlink:title="remove_html_markup:136">
<polygon fill="peachpuff" stroke="black" points="245.79,-952 114.29,-952 114.29,-912 245.79,-912 245.79,-952"/>
<text xml:space="preserve" text-anchor="start" x="175.91" y="-935.7" font-family="Courier,monospace" font-weight="bold" font-size="14.00">s</text>
<text xml:space="preserve" text-anchor="start" x="122.29" y="-917.45" font-family="Courier,monospace" font-size="9.00">&lt;remove_html_markup()&gt;</text>
</a>
</g>
</g>
<!-- s_functionremove_html_markupat0x10d6c2480_136&#45;&gt;c_functionremove_html_markupat0x10d6c2480_141 -->
<g id="edge12" class="edge">
<title>s_functionremove_html_markupat0x10d6c2480_136&#45;&gt;c_functionremove_html_markupat0x10d6c2480_141</title>
<path fill="none" stroke="black" d="M192.26,-911.66C198.09,-901.45 204.53,-888.48 208.04,-876 229.28,-800.39 229.88,-706.97 228.49,-659.62"/>
<polygon fill="black" stroke="black" points="231.99,-659.73 228.14,-649.86 225,-659.98 231.99,-659.73"/>
</g>
<!-- tag_functionremove_html_markupat0x10d6c2480_137 -->
<g id="node13" class="node">
<title>tag_functionremove_html_markupat0x10d6c2480_137</title>
<g id="a_node13"><a xlink:title="remove_html_markup:137">
<polygon fill="peachpuff" stroke="black" points="198.79,-876 67.29,-876 67.29,-836 198.79,-836 198.79,-876"/>
<text xml:space="preserve" text-anchor="start" x="120.66" y="-859.7" font-family="Courier,monospace" font-weight="bold" font-size="14.00">tag</text>
<text xml:space="preserve" text-anchor="start" x="75.29" y="-841.45" font-family="Courier,monospace" font-size="9.00">&lt;remove_html_markup()&gt;</text>
</a>
</g>
</g>
<!-- s_functionremove_html_markupat0x10d6c2480_136&#45;&gt;tag_functionremove_html_markupat0x10d6c2480_137 -->
<!-- tag_functionremove_html_markupat0x10d6c2480_137&#45;&gt;quote_functionremove_html_markupat0x10d6c2480_138 -->
</g>
</svg>