<?xml version="1.0" encoding="UTF-8" standalone="no"?>
<!DOCTYPE svg PUBLIC "-//W3C//DTD SVG 1.1//EN"
 "http://www.w3.org/Graphics/SVG/1.1/DTD/svg11.dtd">
<!-- Generated by graphviz version 14.0.2 (20251019.1705)
 -->
<!-- Pages: 1 -->
<svg width="468pt" height="121pt"
 viewBox="0.00 0.00 468.00 121.00" xmlns="http://www.w3.org/2000/svg" xmlns:xlink="http://www.w3.org/1999/xlink">
<g id="graph0" class="graph" transform="scale(1 1) rotate(0) translate(4 116.6)">
<polygon fill="white" stroke="none" points="-4,4 -4,-116.6 464.14,-116.6 464.14,4 -4,4"/>
<!-- Start -->
<g id="node1" class="node">
<title>Start</title>
<ellipse fill="peachpuff" stroke="black" cx="32.27" cy="-30.05" rx="32.27" ry="18"/>
<text xml:space="preserve" text-anchor="middle" x="32.27" y="-25.38" font-family="Raleway" font-size="14.00">Start</text>
</g>
<!-- ¬ quote\n¬ tag -->
<g id="node2" class="node">
<title>¬ quote\n¬ tag</title>
<ellipse fill="peachpuff" stroke="black" cx="148.38" cy="-30.05" rx="46.85" ry="30.05"/>
<text xml:space="preserve" text-anchor="middle" x="148.38" y="-34" font-family="Raleway" font-size="14.00">¬ quote</text>
<text xml:space="preserve" text-anchor="middle" x="148.38" y="-16.75" font-family="Raleway" font-size="14.00">¬ tag</text>
</g>
<!-- Start&#45;&gt;¬ quote\n¬ tag -->
<g id="edge1" class="edge">
<title>Start&#45;&gt;¬ quote\n¬ tag</title>
<path fill="none" stroke="black" d="M64.75,-30.05C72.55,-30.05 81.15,-30.05 89.77,-30.05"/>
<polygon fill="black" stroke="black" points="89.53,-33.55 99.53,-30.05 89.53,-26.55 89.53,-33.55"/>
</g>
<!-- ¬ quote\n¬ tag&#45;&gt;¬ quote\n¬ tag -->
<g id="edge2" class="edge">
<title>¬ quote\n¬ tag&#45;&gt;¬ quote\n¬ tag</title>
<path fill="none" stroke="black" d="M136.14,-59.14C135.88,-69.59 139.96,-78.1 148.38,-78.1 153.38,-78.1 156.85,-75.1 158.79,-70.48"/>
<polygon fill="black" stroke="black" points="162.24,-71.06 160.38,-60.63 155.33,-69.95 162.24,-71.06"/>
<text xml:space="preserve" text-anchor="middle" x="148.38" y="-99.3" font-family="Raleway" font-size="14.00">¬ &#39;&lt;&#39;</text>
<text xml:space="preserve" text-anchor="middle" x="148.38" y="-82.05" font-family="Raleway" font-size="14.00">add character</text>
</g>
<!-- ¬ quote\ntag -->
<g id="node3" class="node">
<title>¬ quote\ntag</title>
<ellipse fill="peachpuff" stroke="black" cx="290.82" cy="-30.05" rx="46.85" ry="30.05"/>
<text xml:space="preserve" text-anchor="middle" x="290.82" y="-34" font-family="Raleway" font-size="14.00">¬ quote</text>
<text xml:space="preserve" text-anchor="middle" x="290.82" y="-16.75" font-family="Raleway" font-size="14.00">tag</text>
</g>
<!-- ¬ quote\n¬ tag&#45;&gt;¬ quote\ntag -->
<g id="edge3" class="edge">
<title>¬ quote\n¬ tag&#45;&gt;¬ quote\ntag</title>
<path fill="none" stroke="black" d="M195.37,-30.05C207.25,-30.05 220.19,-30.05 232.57,-30.05"/>
<polygon fill="black" stroke="black" points="232.22,-33.55 242.22,-30.05 232.22,-26.55 232.22,-33.55"/>
<text xml:space="preserve" text-anchor="middle" x="219.6" y="-34" font-family="Raleway" font-size="14.00">&#39;&lt;&#39;</text>
</g>
<!-- ¬ quote\ntag&#45;&gt;¬ quote\n¬ tag -->
<g id="edge8" class="edge">
<title>¬ quote\ntag&#45;&gt;¬ quote\n¬ tag</title>
<path fill="none" stroke="black" d="M252.01,-12.8C239.76,-9.04 226.03,-6.73 213.23,-8.8 208.88,-9.51 204.42,-10.47 199.99,-11.59"/>
<polygon fill="black" stroke="black" points="199.21,-8.17 190.53,-14.25 201.11,-14.91 199.21,-8.17"/>
<text xml:space="preserve" text-anchor="middle" x="219.6" y="-12.75" font-family="Raleway" font-size="14.00">&#39;&gt;&#39;</text>
</g>
<!-- ¬ quote\ntag&#45;&gt;¬ quote\ntag -->
<g id="edge5" class="edge">
<title>¬ quote\ntag&#45;&gt;¬ quote\ntag</title>
<path fill="none" stroke="black" d="M277.76,-59.14C277.48,-69.59 281.84,-78.1 290.82,-78.1 296.16,-78.1 299.86,-75.1 301.93,-70.48"/>
<polygon fill="black" stroke="black" points="305.38,-71.08 303.63,-60.63 298.48,-69.89 305.38,-71.08"/>
<text xml:space="preserve" text-anchor="middle" x="290.82" y="-82.05" font-family="Raleway" font-size="14.00">¬ &#39;&quot;&#39; ∧ ¬ &#39;&gt;&#39;</text>
</g>
<!-- quote\ntag -->
<g id="node4" class="node">
<title>quote\ntag</title>
<ellipse fill="peachpuff" stroke="black" cx="421.78" cy="-30.05" rx="38.36" ry="30.05"/>
<text xml:space="preserve" text-anchor="middle" x="421.78" y="-34" font-family="Raleway" font-size="14.00">quote</text>
<text xml:space="preserve" text-anchor="middle" x="421.78" y="-16.75" font-family="Raleway" font-size="14.00">tag</text>
</g>
<!-- ¬ quote\ntag&#45;&gt;quote\ntag -->
<g id="edge4" class="edge">
<title>¬ quote\ntag&#45;&gt;quote\ntag</title>
<path fill="none" stroke="black" d="M338.02,-30.05C348.96,-30.05 360.67,-30.05 371.73,-30.05"/>
<polygon fill="black" stroke="black" points="371.45,-33.55 381.45,-30.05 371.45,-26.55 371.45,-33.55"/>
<text xml:space="preserve" text-anchor="middle" x="360.54" y="-34" font-family="Raleway" font-size="14.00">&#39;&quot;&#39;</text>
</g>
<!-- quote\ntag&#45;&gt;¬ quote\ntag -->
<g id="edge7" class="edge">
<title>quote\ntag&#45;&gt;¬ quote\ntag</title>
<path fill="none" stroke="black" d="M387.98,-15.21C380.7,-12.55 372.91,-10.19 365.42,-8.8 357.05,-7.25 348.28,-7.8 339.81,-9.5"/>
<polygon fill="black" stroke="black" points="339.2,-6.05 330.39,-11.94 340.95,-12.82 339.2,-6.05"/>
<text xml:space="preserve" text-anchor="middle" x="360.54" y="-12.75" font-family="Raleway" font-size="14.00">&#39;&quot;&#39;</text>
</g>
<!-- quote\ntag&#45;&gt;quote\ntag -->
<g id="edge6" class="edge">
<title>quote\ntag&#45;&gt;quote\ntag</title>
<path fill="none" stroke="black" d="M410.31,-59.14C410.06,-69.59 413.89,-78.1 421.78,-78.1 426.47,-78.1 429.72,-75.1 431.54,-70.48"/>
<polygon fill="black" stroke="black" points="434.99,-71.05 433.02,-60.64 428.07,-70 434.99,-71.05"/>
<text xml:space="preserve" text-anchor="middle" x="421.78" y="-82.05" font-family="Raleway" font-size="14.00">¬ &#39;&quot;&#39;</text>
</g>
</g>
</svg>