<?xml version="1.0" encoding="UTF-8" standalone="no"?>
<!DOCTYPE svg PUBLIC "-//W3C//DTD SVG 1.1//EN"
 "http://www.w3.org/Graphics/SVG/1.1/DTD/svg11.dtd">
<!-- Generated by graphviz version 14.0.2 (20251019.1705)
 -->
<!-- Pages: 1 -->
<svg width="838pt" height="620pt"
 viewBox="0.00 0.00 838.00 620.00" xmlns="http://www.w3.org/2000/svg" xmlns:xlink="http://www.w3.org/1999/xlink">
<g id="graph0" class="graph" transform="scale(1 1) rotate(0) translate(4 616)">
<polygon fill="white" stroke="none" points="-4,4 -4,-616 834,-616 834,4 -4,4"/>
<!-- 0 -->
<g id="node1" class="node">
<title>0</title>
<polygon fill="none" stroke="white" points="410.88,-612 353.12,-612 353.12,-576 410.88,-576 410.88,-612"/>
<text xml:space="preserve" text-anchor="middle" x="382" y="-589.33" font-family="'Fira Mono', 'Source Code Pro', 'Courier', monospace" font-size="14.00" fill="#0060a0">&lt;start&gt;</text>
</g>
<!-- 1 -->
<g id="node2" class="node">
<title>1</title>
<polygon fill="none" stroke="white" points="409,-540 355,-540 355,-504 409,-504 409,-540"/>
<text xml:space="preserve" text-anchor="middle" x="382" y="-517.33" font-family="'Fira Mono', 'Source Code Pro', 'Courier', monospace" font-size="14.00" fill="#0060a0">&lt;html&gt;</text>
</g>
<!-- 0&#45;&gt;1 -->
<g id="edge1" class="edge">
<title>0&#45;&gt;1</title>
<path fill="none" stroke="black" d="M382,-575.7C382,-568.41 382,-559.73 382,-551.54"/>
<polygon fill="black" stroke="black" points="385.5,-551.62 382,-541.62 378.5,-551.62 385.5,-551.62"/>
</g>
<!-- 2 -->
<g id="node3" class="node">
<title>2</title>
<polygon fill="none" stroke="white" points="435.62,-468 328.38,-468 328.38,-432 435.62,-432 435.62,-468"/>
<text xml:space="preserve" text-anchor="middle" x="382" y="-445.32" font-family="'Fira Mono', 'Source Code Pro', 'Courier', monospace" font-size="14.00" fill="#0060a0">&lt;tagged&#45;text&gt;</text>
</g>
<!-- 1&#45;&gt;2 -->
<g id="edge2" class="edge">
<title>1&#45;&gt;2</title>
<path fill="none" stroke="black" d="M382,-503.7C382,-496.41 382,-487.73 382,-479.54"/>
<polygon fill="black" stroke="black" points="385.5,-479.62 382,-469.62 378.5,-479.62 385.5,-479.62"/>
</g>
<!-- 3 -->
<g id="node4" class="node">
<title>3</title>
<polygon fill="none" stroke="white" points="299.62,-396 192.38,-396 192.38,-360 299.62,-360 299.62,-396"/>
<text xml:space="preserve" text-anchor="middle" x="246" y="-373.32" font-family="'Fira Mono', 'Source Code Pro', 'Courier', monospace" font-size="14.00" fill="#0060a0">&lt;opening&#45;tag&gt;</text>
</g>
<!-- 2&#45;&gt;3 -->
<g id="edge3" class="edge">
<title>2&#45;&gt;3</title>
<path fill="none" stroke="black" d="M348.03,-431.52C330.37,-422.43 308.59,-411.22 289.69,-401.49"/>
<polygon fill="black" stroke="black" points="291.37,-398.42 280.88,-396.95 288.17,-404.64 291.37,-398.42"/>
</g>
<!-- 17 -->
<g id="node18" class="node">
<title>17</title>
<polygon fill="none" stroke="white" points="409,-396 355,-396 355,-360 409,-360 409,-396"/>
<text xml:space="preserve" text-anchor="middle" x="382" y="-373.32" font-family="'Fira Mono', 'Source Code Pro', 'Courier', monospace" font-size="14.00" fill="#0060a0">&lt;html&gt;</text>
</g>
<!-- 2&#45;&gt;17 -->
<g id="edge17" class="edge">
<title>2&#45;&gt;17</title>
<path fill="none" stroke="black" d="M382,-431.7C382,-424.41 382,-415.73 382,-407.54"/>
<polygon fill="black" stroke="black" points="385.5,-407.62 382,-397.62 378.5,-407.62 385.5,-407.62"/>
</g>
<!-- 24 -->
<g id="node25" class="node">
<title>24</title>
<polygon fill="none" stroke="white" points="700.62,-396 593.38,-396 593.38,-360 700.62,-360 700.62,-396"/>
<text xml:space="preserve" text-anchor="middle" x="647" y="-373.32" font-family="'Fira Mono', 'Source Code Pro', 'Courier', monospace" font-size="14.00" fill="#0060a0">&lt;closing&#45;tag&gt;</text>
</g>
<!-- 2&#45;&gt;24 -->
<g id="edge24" class="edge">
<title>2&#45;&gt;24</title>
<path fill="none" stroke="black" d="M435.95,-434.75C478.22,-423.58 537.18,-408.01 582.05,-396.16"/>
<polygon fill="black" stroke="black" points="582.89,-399.55 591.67,-393.62 581.1,-392.79 582.89,-399.55"/>
</g>
<!-- 4 -->
<g id="node5" class="node">
<title>4</title>
<polygon fill="none" stroke="white" points="106,-324 52,-324 52,-288 106,-288 106,-324"/>
<text xml:space="preserve" text-anchor="middle" x="79" y="-301.32" font-family="'Fira Mono', 'Source Code Pro', 'Courier', monospace" font-size="14.00" fill="#0060a0">&lt;lt&gt;</text>
</g>
<!-- 3&#45;&gt;4 -->
<g id="edge4" class="edge">
<title>3&#45;&gt;4</title>
<path fill="none" stroke="black" d="M204.29,-359.52C177.49,-348.28 142.96,-333.81 116.94,-322.9"/>
<polygon fill="black" stroke="black" points="118.32,-319.69 107.75,-319.05 115.62,-326.14 118.32,-319.69"/>
</g>
<!-- 6 -->
<g id="node7" class="node">
<title>6</title>
<polygon fill="none" stroke="white" points="217,-324 163,-324 163,-288 217,-288 217,-324"/>
<text xml:space="preserve" text-anchor="middle" x="190" y="-301.32" font-family="'Fira Mono', 'Source Code Pro', 'Courier', monospace" font-size="14.00" fill="#0060a0">&lt;id&gt;</text>
</g>
<!-- 3&#45;&gt;6 -->
<g id="edge6" class="edge">
<title>3&#45;&gt;6</title>
<path fill="none" stroke="black" d="M232.16,-359.7C225.71,-351.64 217.92,-341.89 210.79,-332.98"/>
<polygon fill="black" stroke="black" points="213.61,-330.91 204.63,-325.29 208.14,-335.28 213.61,-330.91"/>
</g>
<!-- 15 -->
<g id="node16" class="node">
<title>15</title>
<polygon fill="none" stroke="white" points="292,-324 238,-324 238,-288 292,-288 292,-324"/>
<text xml:space="preserve" text-anchor="middle" x="265" y="-301.32" font-family="'Fira Mono', 'Source Code Pro', 'Courier', monospace" font-size="14.00" fill="#0060a0">&lt;gt&gt;</text>
</g>
<!-- 3&#45;&gt;15 -->
<g id="edge15" class="edge">
<title>3&#45;&gt;15</title>
<path fill="none" stroke="black" d="M250.7,-359.7C252.72,-352.24 255.14,-343.32 257.41,-334.97"/>
<polygon fill="black" stroke="black" points="260.72,-336.13 259.96,-325.57 253.96,-334.3 260.72,-336.13"/>
</g>
<!-- 5 -->
<g id="node6" class="node">
<title>5</title>
<polygon fill="none" stroke="white" points="67,-252 13,-252 13,-216 67,-216 67,-252"/>
<text xml:space="preserve" text-anchor="middle" x="40" y="-229.32" font-family="'Fira Mono', 'Source Code Pro', 'Courier', monospace" font-size="14.00" fill="#0060a0">&lt; (60)</text>
</g>
<!-- 4&#45;&gt;5 -->
<g id="edge5" class="edge">
<title>4&#45;&gt;5</title>
<path fill="none" stroke="black" d="M69.36,-287.7C65.06,-279.98 59.9,-270.71 55.11,-262.11"/>
<polygon fill="black" stroke="black" points="58.19,-260.46 50.27,-253.43 52.08,-263.87 58.19,-260.46"/>
</g>
<!-- 7 -->
<g id="node8" class="node">
<title>7</title>
<polygon fill="none" stroke="white" points="139,-252 85,-252 85,-216 139,-216 139,-252"/>
<text xml:space="preserve" text-anchor="middle" x="112" y="-229.32" font-family="'Fira Mono', 'Source Code Pro', 'Courier', monospace" font-size="14.00" fill="#0060a0">&lt;id&gt;</text>
</g>
<!-- 6&#45;&gt;7 -->
<g id="edge7" class="edge">
<title>6&#45;&gt;7</title>
<path fill="none" stroke="black" d="M170.72,-287.7C161.34,-279.28 149.91,-269.02 139.62,-259.79"/>
<polygon fill="black" stroke="black" points="142.24,-257.43 132.46,-253.36 137.56,-262.64 142.24,-257.43"/>
</g>
<!-- 13 -->
<g id="node14" class="node">
<title>13</title>
<polygon fill="none" stroke="white" points="223,-252 157,-252 157,-216 223,-216 223,-252"/>
<text xml:space="preserve" text-anchor="middle" x="190" y="-229.32" font-family="'Fira Mono', 'Source Code Pro', 'Courier', monospace" font-size="14.00" fill="#0060a0">&lt;letter&gt;</text>
</g>
<!-- 6&#45;&gt;13 -->
<g id="edge13" class="edge">
<title>6&#45;&gt;13</title>
<path fill="none" stroke="black" d="M190,-287.7C190,-280.41 190,-271.73 190,-263.54"/>
<polygon fill="black" stroke="black" points="193.5,-263.62 190,-253.62 186.5,-263.62 193.5,-263.62"/>
</g>
<!-- 8 -->
<g id="node9" class="node">
<title>8</title>
<polygon fill="none" stroke="white" points="61,-180 7,-180 7,-144 61,-144 61,-180"/>
<text xml:space="preserve" text-anchor="middle" x="34" y="-157.32" font-family="'Fira Mono', 'Source Code Pro', 'Courier', monospace" font-size="14.00" fill="#0060a0">&lt;id&gt;</text>
</g>
<!-- 7&#45;&gt;8 -->
<g id="edge8" class="edge">
<title>7&#45;&gt;8</title>
<path fill="none" stroke="black" d="M92.72,-215.7C83.34,-207.28 71.91,-197.02 61.62,-187.79"/>
<polygon fill="black" stroke="black" points="64.24,-185.43 54.46,-181.36 59.56,-190.64 64.24,-185.43"/>
</g>
<!-- 11 -->
<g id="node12" class="node">
<title>11</title>
<polygon fill="none" stroke="white" points="145,-180 79,-180 79,-144 145,-144 145,-180"/>
<text xml:space="preserve" text-anchor="middle" x="112" y="-157.32" font-family="'Fira Mono', 'Source Code Pro', 'Courier', monospace" font-size="14.00" fill="#0060a0">&lt;letter&gt;</text>
</g>
<!-- 7&#45;&gt;11 -->
<g id="edge11" class="edge">
<title>7&#45;&gt;11</title>
<path fill="none" stroke="black" d="M112,-215.7C112,-208.41 112,-199.73 112,-191.54"/>
<polygon fill="black" stroke="black" points="115.5,-191.62 112,-181.62 108.5,-191.62 115.5,-191.62"/>
</g>
<!-- 9 -->
<g id="node10" class="node">
<title>9</title>
<polygon fill="none" stroke="white" points="66,-108 0,-108 0,-72 66,-72 66,-108"/>
<text xml:space="preserve" text-anchor="middle" x="33" y="-85.33" font-family="'Fira Mono', 'Source Code Pro', 'Courier', monospace" font-size="14.00" fill="#0060a0">&lt;letter&gt;</text>
</g>
<!-- 8&#45;&gt;9 -->
<g id="edge9" class="edge">
<title>8&#45;&gt;9</title>
<path fill="none" stroke="black" d="M33.75,-143.7C33.65,-136.41 33.52,-127.73 33.41,-119.54"/>
<polygon fill="black" stroke="black" points="36.91,-119.57 33.27,-109.62 29.91,-119.67 36.91,-119.57"/>
</g>
<!-- 10 -->
<g id="node11" class="node">
<title>10</title>
<polygon fill="none" stroke="white" points="61.88,-36 4.12,-36 4.12,0 61.88,0 61.88,-36"/>
<text xml:space="preserve" text-anchor="middle" x="33" y="-13.32" font-family="'Fira Mono', 'Source Code Pro', 'Courier', monospace" font-size="14.00" fill="#00a060">f (102)</text>
</g>
<!-- 9&#45;&gt;10 -->
<g id="edge10" class="edge">
<title>9&#45;&gt;10</title>
<path fill="none" stroke="black" d="M33,-71.7C33,-64.41 33,-55.73 33,-47.54"/>
<polygon fill="black" stroke="black" points="36.5,-47.62 33,-37.62 29.5,-47.62 36.5,-47.62"/>
</g>
<!-- 12 -->
<g id="node13" class="node">
<title>12</title>
<polygon fill="none" stroke="white" points="141.88,-108 84.12,-108 84.12,-72 141.88,-72 141.88,-108"/>
<text xml:space="preserve" text-anchor="middle" x="113" y="-85.33" font-family="'Fira Mono', 'Source Code Pro', 'Courier', monospace" font-size="14.00" fill="#00a060">o (111)</text>
</g>
<!-- 11&#45;&gt;12 -->
<g id="edge12" class="edge">
<title>11&#45;&gt;12</title>
<path fill="none" stroke="black" d="M112.25,-143.7C112.35,-136.41 112.48,-127.73 112.59,-119.54"/>
<polygon fill="black" stroke="black" points="116.09,-119.67 112.73,-109.62 109.09,-119.57 116.09,-119.67"/>
</g>
<!-- 14 -->
<g id="node15" class="node">
<title>14</title>
<polygon fill="none" stroke="white" points="220.88,-180 163.12,-180 163.12,-144 220.88,-144 220.88,-180"/>
<text xml:space="preserve" text-anchor="middle" x="192" y="-157.32" font-family="'Fira Mono', 'Source Code Pro', 'Courier', monospace" font-size="14.00" fill="#00a060">o (111)</text>
</g>
<!-- 13&#45;&gt;14 -->
<g id="edge14" class="edge">
<title>13&#45;&gt;14</title>
<path fill="none" stroke="black" d="M190.49,-215.7C190.7,-208.41 190.95,-199.73 191.18,-191.54"/>
<polygon fill="black" stroke="black" points="194.68,-191.71 191.47,-181.62 187.68,-191.51 194.68,-191.71"/>
</g>
<!-- 16 -->
<g id="node17" class="node">
<title>16</title>
<polygon fill="none" stroke="white" points="295,-252 241,-252 241,-216 295,-216 295,-252"/>
<text xml:space="preserve" text-anchor="middle" x="268" y="-229.32" font-family="'Fira Mono', 'Source Code Pro', 'Courier', monospace" font-size="14.00" fill="#00a060">&gt; (62)</text>
</g>
<!-- 15&#45;&gt;16 -->
<g id="edge16" class="edge">
<title>15&#45;&gt;16</title>
<path fill="none" stroke="black" d="M265.74,-287.7C266.05,-280.41 266.43,-271.73 266.78,-263.54"/>
<polygon fill="black" stroke="black" points="270.27,-263.76 267.2,-253.62 263.28,-263.46 270.27,-263.76"/>
</g>
<!-- 18 -->
<g id="node19" class="node">
<title>18</title>
<polygon fill="none" stroke="white" points="431.5,-324 332.5,-324 332.5,-288 431.5,-288 431.5,-324"/>
<text xml:space="preserve" text-anchor="middle" x="382" y="-301.32" font-family="'Fira Mono', 'Source Code Pro', 'Courier', monospace" font-size="14.00" fill="#0060a0">&lt;plain&#45;text&gt;</text>
</g>
<!-- 17&#45;&gt;18 -->
<g id="edge18" class="edge">
<title>17&#45;&gt;18</title>
<path fill="none" stroke="black" d="M382,-359.7C382,-352.41 382,-343.73 382,-335.54"/>
<polygon fill="black" stroke="black" points="385.5,-335.62 382,-325.62 378.5,-335.62 385.5,-335.62"/>
</g>
<!-- 19 -->
<g id="node20" class="node">
<title>19</title>
<polygon fill="none" stroke="white" points="412.5,-252 313.5,-252 313.5,-216 412.5,-216 412.5,-252"/>
<text xml:space="preserve" text-anchor="middle" x="363" y="-229.32" font-family="'Fira Mono', 'Source Code Pro', 'Courier', monospace" font-size="14.00" fill="#0060a0">&lt;plain&#45;char&gt;</text>
</g>
<!-- 18&#45;&gt;19 -->
<g id="edge19" class="edge">
<title>18&#45;&gt;19</title>
<path fill="none" stroke="black" d="M377.3,-287.7C375.28,-280.24 372.86,-271.32 370.59,-262.97"/>
<polygon fill="black" stroke="black" points="374.04,-262.3 368.04,-253.57 367.28,-264.13 374.04,-262.3"/>
</g>
<!-- 22 -->
<g id="node23" class="node">
<title>22</title>
<polygon fill="none" stroke="white" points="529.5,-252 430.5,-252 430.5,-216 529.5,-216 529.5,-252"/>
<text xml:space="preserve" text-anchor="middle" x="480" y="-229.32" font-family="'Fira Mono', 'Source Code Pro', 'Courier', monospace" font-size="14.00" fill="#0060a0">&lt;plain&#45;text&gt;</text>
</g>
<!-- 18&#45;&gt;22 -->
<g id="edge22" class="edge">
<title>18&#45;&gt;22</title>
<path fill="none" stroke="black" d="M406.48,-287.52C418.61,-278.85 433.45,-268.25 446.61,-258.85"/>
<polygon fill="black" stroke="black" points="448.5,-261.8 454.6,-253.14 444.43,-256.1 448.5,-261.8"/>
</g>
<!-- 20 -->
<g id="node21" class="node">
<title>20</title>
<polygon fill="none" stroke="white" points="412.5,-180 313.5,-180 313.5,-144 412.5,-144 412.5,-180"/>
<text xml:space="preserve" text-anchor="middle" x="363" y="-157.32" font-family="'Fira Mono', 'Source Code Pro', 'Courier', monospace" font-size="14.00" fill="#0060a0">&lt;whitespace&gt;</text>
</g>
<!-- 19&#45;&gt;20 -->
<g id="edge20" class="edge">
<title>19&#45;&gt;20</title>
<path fill="none" stroke="black" d="M363,-215.7C363,-208.41 363,-199.73 363,-191.54"/>
<polygon fill="black" stroke="black" points="366.5,-191.62 363,-181.62 359.5,-191.62 366.5,-191.62"/>
</g>
<!-- 21 -->
<g id="node22" class="node">
<title>21</title>
<polygon fill="none" stroke="white" points="390,-108 336,-108 336,-72 390,-72 390,-108"/>
<text xml:space="preserve" text-anchor="middle" x="363" y="-85.33" font-family="'Fira Mono', 'Source Code Pro', 'Courier', monospace" font-size="14.00" fill="#00a060"> &#160;(32)</text>
</g>
<!-- 20&#45;&gt;21 -->
<g id="edge21" class="edge">
<title>20&#45;&gt;21</title>
<path fill="none" stroke="black" d="M363,-143.7C363,-136.41 363,-127.73 363,-119.54"/>
<polygon fill="black" stroke="black" points="366.5,-119.62 363,-109.62 359.5,-119.62 366.5,-119.62"/>
</g>
<!-- 23 -->
<g id="node24" class="node">
<title>23</title>
<polygon fill="none" stroke="white" points="507,-180 453,-180 453,-144 507,-144 507,-180"/>
</g>
<!-- 22&#45;&gt;23 -->
<g id="edge23" class="edge">
<title>22&#45;&gt;23</title>
<path fill="none" stroke="black" d="M480,-215.7C480,-208.41 480,-199.73 480,-191.54"/>
<polygon fill="black" stroke="black" points="483.5,-191.62 480,-181.62 476.5,-191.62 483.5,-191.62"/>
</g>
<!-- 25 -->
<g id="node26" class="node">
<title>25</title>
<polygon fill="none" stroke="white" points="602,-324 548,-324 548,-288 602,-288 602,-324"/>
<text xml:space="preserve" text-anchor="middle" x="575" y="-301.32" font-family="'Fira Mono', 'Source Code Pro', 'Courier', monospace" font-size="14.00" fill="#0060a0">&lt;lt&gt;</text>
</g>
<!-- 24&#45;&gt;25 -->
<g id="edge25" class="edge">
<title>24&#45;&gt;25</title>
<path fill="none" stroke="black" d="M629.2,-359.7C620.72,-351.45 610.41,-341.43 601.07,-332.35"/>
<polygon fill="black" stroke="black" points="603.54,-329.86 593.93,-325.4 598.66,-334.88 603.54,-329.86"/>
</g>
<!-- 27 -->
<g id="node28" class="node">
<title>27</title>
<polygon fill="none" stroke="white" points="674,-324 620,-324 620,-288 674,-288 674,-324"/>
<text xml:space="preserve" text-anchor="middle" x="647" y="-301.32" font-family="'Fira Mono', 'Source Code Pro', 'Courier', monospace" font-size="14.00" fill="#00a060">/ (47)</text>
</g>
<!-- 24&#45;&gt;27 -->
<g id="edge27" class="edge">
<title>24&#45;&gt;27</title>
<path fill="none" stroke="black" d="M647,-359.7C647,-352.41 647,-343.73 647,-335.54"/>
<polygon fill="black" stroke="black" points="650.5,-335.62 647,-325.62 643.5,-335.62 650.5,-335.62"/>
</g>
<!-- 28 -->
<g id="node29" class="node">
<title>28</title>
<polygon fill="none" stroke="white" points="746,-324 692,-324 692,-288 746,-288 746,-324"/>
<text xml:space="preserve" text-anchor="middle" x="719" y="-301.32" font-family="'Fira Mono', 'Source Code Pro', 'Courier', monospace" font-size="14.00" fill="#0060a0">&lt;id&gt;</text>
</g>
<!-- 24&#45;&gt;28 -->
<g id="edge28" class="edge">
<title>24&#45;&gt;28</title>
<path fill="none" stroke="black" d="M664.8,-359.7C673.28,-351.45 683.59,-341.43 692.93,-332.35"/>
<polygon fill="black" stroke="black" points="695.34,-334.88 700.07,-325.4 690.46,-329.86 695.34,-334.88"/>
</g>
<!-- 37 -->
<g id="node38" class="node">
<title>37</title>
<polygon fill="none" stroke="white" points="824,-324 770,-324 770,-288 824,-288 824,-324"/>
<text xml:space="preserve" text-anchor="middle" x="797" y="-301.32" font-family="'Fira Mono', 'Source Code Pro', 'Courier', monospace" font-size="14.00" fill="#0060a0">&lt;gt&gt;</text>
</g>
<!-- 24&#45;&gt;37 -->
<g id="edge37" class="edge">
<title>24&#45;&gt;37</title>
<path fill="none" stroke="black" d="M684.46,-359.52C707.39,-348.82 736.61,-335.18 759.54,-324.48"/>
<polygon fill="black" stroke="black" points="760.95,-327.69 768.53,-320.29 757.99,-321.34 760.95,-327.69"/>
</g>
<!-- 26 -->
<g id="node27" class="node">
<title>26</title>
<polygon fill="none" stroke="white" points="602,-252 548,-252 548,-216 602,-216 602,-252"/>
<text xml:space="preserve" text-anchor="middle" x="575" y="-229.32" font-family="'Fira Mono', 'Source Code Pro', 'Courier', monospace" font-size="14.00" fill="#0060a0">&lt; (60)</text>
</g>
<!-- 25&#45;&gt;26 -->
<g id="edge26" class="edge">
<title>25&#45;&gt;26</title>
<path fill="none" stroke="black" d="M575,-287.7C575,-280.41 575,-271.73 575,-263.54"/>
<polygon fill="black" stroke="black" points="578.5,-263.62 575,-253.62 571.5,-263.62 578.5,-263.62"/>
</g>
<!-- 29 -->
<g id="node30" class="node">
<title>29</title>
<polygon fill="none" stroke="white" points="674,-252 620,-252 620,-216 674,-216 674,-252"/>
<text xml:space="preserve" text-anchor="middle" x="647" y="-229.32" font-family="'Fira Mono', 'Source Code Pro', 'Courier', monospace" font-size="14.00" fill="#0060a0">&lt;id&gt;</text>
</g>
<!-- 28&#45;&gt;29 -->
<g id="edge29" class="edge">
<title>28&#45;&gt;29</title>
<path fill="none" stroke="black" d="M701.2,-287.7C692.72,-279.45 682.41,-269.43 673.07,-260.35"/>
<polygon fill="black" stroke="black" points="675.54,-257.86 665.93,-253.4 670.66,-262.88 675.54,-257.86"/>
</g>
<!-- 35 -->
<g id="node36" class="node">
<title>35</title>
<polygon fill="none" stroke="white" points="758,-252 692,-252 692,-216 758,-216 758,-252"/>
<text xml:space="preserve" text-anchor="middle" x="725" y="-229.32" font-family="'Fira Mono', 'Source Code Pro', 'Courier', monospace" font-size="14.00" fill="#0060a0">&lt;letter&gt;</text>
</g>
<!-- 28&#45;&gt;35 -->
<g id="edge35" class="edge">
<title>28&#45;&gt;35</title>
<path fill="none" stroke="black" d="M720.48,-287.7C721.11,-280.41 721.85,-271.73 722.55,-263.54"/>
<polygon fill="black" stroke="black" points="726.04,-263.87 723.4,-253.61 719.06,-263.28 726.04,-263.87"/>
</g>
<!-- 30 -->
<g id="node31" class="node">
<title>30</title>
<polygon fill="none" stroke="white" points="595,-180 541,-180 541,-144 595,-144 595,-180"/>
<text xml:space="preserve" text-anchor="middle" x="568" y="-157.32" font-family="'Fira Mono', 'Source Code Pro', 'Courier', monospace" font-size="14.00" fill="#0060a0">&lt;id&gt;</text>
</g>
<!-- 29&#45;&gt;30 -->
<g id="edge30" class="edge">
<title>29&#45;&gt;30</title>
<path fill="none" stroke="black" d="M627.47,-215.7C617.98,-207.28 606.39,-197.02 595.98,-187.79"/>
<polygon fill="black" stroke="black" points="598.52,-185.36 588.71,-181.35 593.87,-190.6 598.52,-185.36"/>
</g>
<!-- 33 -->
<g id="node34" class="node">
<title>33</title>
<polygon fill="none" stroke="white" points="680,-180 614,-180 614,-144 680,-144 680,-180"/>
<text xml:space="preserve" text-anchor="middle" x="647" y="-157.32" font-family="'Fira Mono', 'Source Code Pro', 'Courier', monospace" font-size="14.00" fill="#0060a0">&lt;letter&gt;</text>
</g>
<!-- 29&#45;&gt;33 -->
<g id="edge33" class="edge">
<title>29&#45;&gt;33</title>
<path fill="none" stroke="black" d="M647,-215.7C647,-208.41 647,-199.73 647,-191.54"/>
<polygon fill="black" stroke="black" points="650.5,-191.62 647,-181.62 643.5,-191.62 650.5,-191.62"/>
</g>
<!-- 31 -->
<g id="node32" class="node">
<title>31</title>
<polygon fill="none" stroke="white" points="600,-108 534,-108 534,-72 600,-72 600,-108"/>
<text xml:space="preserve" text-anchor="middle" x="567" y="-85.33" font-family="'Fira Mono', 'Source Code Pro', 'Courier', monospace" font-size="14.00" fill="#0060a0">&lt;letter&gt;</text>
</g>
<!-- 30&#45;&gt;31 -->
<g id="edge31" class="edge">
<title>30&#45;&gt;31</title>
<path fill="none" stroke="black" d="M567.75,-143.7C567.65,-136.41 567.52,-127.73 567.41,-119.54"/>
<polygon fill="black" stroke="black" points="570.91,-119.57 567.27,-109.62 563.91,-119.67 570.91,-119.57"/>
</g>
<!-- 32 -->
<g id="node33" class="node">
<title>32</title>
<polygon fill="none" stroke="white" points="595.88,-36 538.12,-36 538.12,0 595.88,0 595.88,-36"/>
<text xml:space="preserve" text-anchor="middle" x="567" y="-13.32" font-family="'Fira Mono', 'Source Code Pro', 'Courier', monospace" font-size="14.00" fill="#00a060">f (102)</text>
</g>
<!-- 31&#45;&gt;32 -->
<g id="edge32" class="edge">
<title>31&#45;&gt;32</title>
<path fill="none" stroke="black" d="M567,-71.7C567,-64.41 567,-55.73 567,-47.54"/>
<polygon fill="black" stroke="black" points="570.5,-47.62 567,-37.62 563.5,-47.62 570.5,-47.62"/>
</g>
<!-- 34 -->
<g id="node35" class="node">
<title>34</title>
<polygon fill="none" stroke="white" points="675.88,-108 618.12,-108 618.12,-72 675.88,-72 675.88,-108"/>
<text xml:space="preserve" text-anchor="middle" x="647" y="-85.33" font-family="'Fira Mono', 'Source Code Pro', 'Courier', monospace" font-size="14.00" fill="#00a060">o (111)</text>
</g>
<!-- 33&#45;&gt;34 -->
<g id="edge34" class="edge">
<title>33&#45;&gt;34</title>
<path fill="none" stroke="black" d="M647,-143.7C647,-136.41 647,-127.73 647,-119.54"/>
<polygon fill="black" stroke="black" points="650.5,-119.62 647,-109.62 643.5,-119.62 650.5,-119.62"/>
</g>
<!-- 36 -->
<g id="node37" class="node">
<title>36</title>
<polygon fill="none" stroke="white" points="755.88,-180 698.12,-180 698.12,-144 755.88,-144 755.88,-180"/>
<text xml:space="preserve" text-anchor="middle" x="727" y="-157.32" font-family="'Fira Mono', 'Source Code Pro', 'Courier', monospace" font-size="14.00" fill="#00a060">o (111)</text>
</g>
<!-- 35&#45;&gt;36 -->
<g id="edge36" class="edge">
<title>35&#45;&gt;36</title>
<path fill="none" stroke="black" d="M725.49,-215.7C725.7,-208.41 725.95,-199.73 726.18,-191.54"/>
<polygon fill="black" stroke="black" points="729.68,-191.71 726.47,-181.62 722.68,-191.51 729.68,-191.71"/>
</g>
<!-- 38 -->
<g id="node39" class="node">
<title>38</title>
<polygon fill="none" stroke="white" points="830,-252 776,-252 776,-216 830,-216 830,-252"/>
<text xml:space="preserve" text-anchor="middle" x="803" y="-229.32" font-family="'Fira Mono', 'Source Code Pro', 'Courier', monospace" font-size="14.00" fill="#00a060">&gt; (62)</text>
</g>
<!-- 37&#45;&gt;38 -->
<g id="edge38" class="edge">
<title>37&#45;&gt;38</title>
<path fill="none" stroke="black" d="M798.48,-287.7C799.11,-280.41 799.85,-271.73 800.55,-263.54"/>
<polygon fill="black" stroke="black" points="804.04,-263.87 801.4,-253.61 797.06,-263.28 804.04,-263.87"/>
</g>
</g>
</svg>