<?xml version="1.0" encoding="UTF-8" standalone="no"?>
<!DOCTYPE svg PUBLIC "-//W3C//DTD SVG 1.1//EN"
 "http://www.w3.org/Graphics/SVG/1.1/DTD/svg11.dtd">
<!-- Generated by graphviz version 14.0.2 (20251019.1705)
 -->
<!-- Pages: 1 -->
<svg width="780pt" height="764pt"
 viewBox="0.00 0.00 780.00 764.00" xmlns="http://www.w3.org/2000/svg" xmlns:xlink="http://www.w3.org/1999/xlink">
<g id="graph0" class="graph" transform="scale(1 1) rotate(0) translate(4 760)">
<polygon fill="white" stroke="none" points="-4,4 -4,-760 776,-760 776,4 -4,4"/>
<!-- 0 -->
<g id="node1" class="node">
<title>0</title>
<polygon fill="none" stroke="white" points="440.88,-756 383.12,-756 383.12,-720 440.88,-720 440.88,-756"/>
<text xml:space="preserve" text-anchor="middle" x="412" y="-733.33" font-family="'Fira Mono', 'Source Code Pro', 'Courier', monospace" font-size="14.00" fill="#0060a0">&lt;start&gt;</text>
</g>
<!-- 1 -->
<g id="node2" class="node">
<title>1</title>
<polygon fill="none" stroke="white" points="439,-684 385,-684 385,-648 439,-648 439,-684"/>
<text xml:space="preserve" text-anchor="middle" x="412" y="-661.33" font-family="'Fira Mono', 'Source Code Pro', 'Courier', monospace" font-size="14.00" fill="#0060a0">&lt;html&gt;</text>
</g>
<!-- 0&#45;&gt;1 -->
<g id="edge1" class="edge">
<title>0&#45;&gt;1</title>
<path fill="none" stroke="black" d="M412,-719.7C412,-712.41 412,-703.73 412,-695.54"/>
<polygon fill="black" stroke="black" points="415.5,-695.62 412,-685.62 408.5,-695.62 415.5,-695.62"/>
</g>
<!-- 2 -->
<g id="node3" class="node">
<title>2</title>
<polygon fill="none" stroke="white" points="465.62,-612 358.38,-612 358.38,-576 465.62,-576 465.62,-612"/>
<text xml:space="preserve" text-anchor="middle" x="412" y="-589.33" font-family="'Fira Mono', 'Source Code Pro', 'Courier', monospace" font-size="14.00" fill="#0060a0">&lt;tagged&#45;text&gt;</text>
</g>
<!-- 1&#45;&gt;2 -->
<g id="edge2" class="edge">
<title>1&#45;&gt;2</title>
<path fill="none" stroke="black" d="M412,-647.7C412,-640.41 412,-631.73 412,-623.54"/>
<polygon fill="black" stroke="black" points="415.5,-623.62 412,-613.62 408.5,-623.62 415.5,-623.62"/>
</g>
<!-- 3 -->
<g id="node4" class="node">
<title>3</title>
<polygon fill="none" stroke="white" points="486.25,-540 337.75,-540 337.75,-504 486.25,-504 486.25,-540"/>
<text xml:space="preserve" text-anchor="middle" x="412" y="-517.33" font-family="'Fira Mono', 'Source Code Pro', 'Courier', monospace" font-size="14.00" fill="#0060a0">&lt;self&#45;closing&#45;tag&gt;</text>
</g>
<!-- 2&#45;&gt;3 -->
<g id="edge3" class="edge">
<title>2&#45;&gt;3</title>
<path fill="none" stroke="black" d="M412,-575.7C412,-568.41 412,-559.73 412,-551.54"/>
<polygon fill="black" stroke="black" points="415.5,-551.62 412,-541.62 408.5,-551.62 415.5,-551.62"/>
</g>
<!-- 4 -->
<g id="node5" class="node">
<title>4</title>
<polygon fill="none" stroke="white" points="258,-468 204,-468 204,-432 258,-432 258,-468"/>
<text xml:space="preserve" text-anchor="middle" x="231" y="-445.32" font-family="'Fira Mono', 'Source Code Pro', 'Courier', monospace" font-size="14.00" fill="#0060a0">&lt;lt&gt;</text>
</g>
<!-- 3&#45;&gt;4 -->
<g id="edge4" class="edge">
<title>3&#45;&gt;4</title>
<path fill="none" stroke="black" d="M366.79,-503.52C336.62,-491.85 297.39,-476.68 268.86,-465.64"/>
<polygon fill="black" stroke="black" points="270.49,-462.52 259.9,-462.18 267.97,-469.05 270.49,-462.52"/>
</g>
<!-- 6 -->
<g id="node7" class="node">
<title>6</title>
<polygon fill="none" stroke="white" points="365,-468 311,-468 311,-432 365,-432 365,-468"/>
<text xml:space="preserve" text-anchor="middle" x="338" y="-445.32" font-family="'Fira Mono', 'Source Code Pro', 'Courier', monospace" font-size="14.00" fill="#0060a0">&lt;id&gt;</text>
</g>
<!-- 3&#45;&gt;6 -->
<g id="edge6" class="edge">
<title>3&#45;&gt;6</title>
<path fill="none" stroke="black" d="M393.71,-503.7C384.9,-495.37 374.18,-485.22 364.5,-476.07"/>
<polygon fill="black" stroke="black" points="367.11,-473.72 357.44,-469.39 362.3,-478.8 367.11,-473.72"/>
</g>
<!-- 21 -->
<g id="node22" class="node">
<title>21</title>
<polygon fill="none" stroke="white" points="440.88,-468 383.12,-468 383.12,-432 440.88,-432 440.88,-468"/>
<text xml:space="preserve" text-anchor="middle" x="412" y="-445.32" font-family="'Fira Mono', 'Source Code Pro', 'Courier', monospace" font-size="14.00" fill="#0060a0">&lt;attrs&gt;</text>
</g>
<!-- 3&#45;&gt;21 -->
<g id="edge21" class="edge">
<title>3&#45;&gt;21</title>
<path fill="none" stroke="black" d="M412,-503.7C412,-496.41 412,-487.73 412,-479.54"/>
<polygon fill="black" stroke="black" points="415.5,-479.62 412,-469.62 408.5,-479.62 415.5,-479.62"/>
</g>
<!-- 34 -->
<g id="node35" class="node">
<title>34</title>
<polygon fill="none" stroke="white" points="513,-468 459,-468 459,-432 513,-432 513,-468"/>
<text xml:space="preserve" text-anchor="middle" x="486" y="-445.32" font-family="'Fira Mono', 'Source Code Pro', 'Courier', monospace" font-size="14.00" fill="#00a060">/ (47)</text>
</g>
<!-- 3&#45;&gt;34 -->
<g id="edge34" class="edge">
<title>3&#45;&gt;34</title>
<path fill="none" stroke="black" d="M430.29,-503.7C439.1,-495.37 449.82,-485.22 459.5,-476.07"/>
<polygon fill="black" stroke="black" points="461.7,-478.8 466.56,-469.39 456.89,-473.72 461.7,-478.8"/>
</g>
<!-- 35 -->
<g id="node36" class="node">
<title>35</title>
<polygon fill="none" stroke="white" points="585,-468 531,-468 531,-432 585,-432 585,-468"/>
<text xml:space="preserve" text-anchor="middle" x="558" y="-445.32" font-family="'Fira Mono', 'Source Code Pro', 'Courier', monospace" font-size="14.00" fill="#0060a0">&lt;gt&gt;</text>
</g>
<!-- 3&#45;&gt;35 -->
<g id="edge35" class="edge">
<title>3&#45;&gt;35</title>
<path fill="none" stroke="black" d="M448.47,-503.52C470.39,-493.01 498.23,-479.66 520.36,-469.05"/>
<polygon fill="black" stroke="black" points="521.84,-472.22 529.34,-464.74 518.81,-465.91 521.84,-472.22"/>
</g>
<!-- 5 -->
<g id="node6" class="node">
<title>5</title>
<polygon fill="none" stroke="white" points="220,-396 166,-396 166,-360 220,-360 220,-396"/>
<text xml:space="preserve" text-anchor="middle" x="193" y="-373.32" font-family="'Fira Mono', 'Source Code Pro', 'Courier', monospace" font-size="14.00" fill="#0060a0">&lt; (60)</text>
</g>
<!-- 4&#45;&gt;5 -->
<g id="edge5" class="edge">
<title>4&#45;&gt;5</title>
<path fill="none" stroke="black" d="M221.61,-431.7C217.42,-423.98 212.39,-414.71 207.72,-406.11"/>
<polygon fill="black" stroke="black" points="210.85,-404.55 203.01,-397.43 204.7,-407.89 210.85,-404.55"/>
</g>
<!-- 7 -->
<g id="node8" class="node">
<title>7</title>
<polygon fill="none" stroke="white" points="292,-396 238,-396 238,-360 292,-360 292,-396"/>
<text xml:space="preserve" text-anchor="middle" x="265" y="-373.32" font-family="'Fira Mono', 'Source Code Pro', 'Courier', monospace" font-size="14.00" fill="#0060a0">&lt;id&gt;</text>
</g>
<!-- 6&#45;&gt;7 -->
<g id="edge7" class="edge">
<title>6&#45;&gt;7</title>
<path fill="none" stroke="black" d="M319.96,-431.7C311.27,-423.37 300.69,-413.22 291.14,-404.07"/>
<polygon fill="black" stroke="black" points="293.82,-401.79 284.18,-397.39 288.98,-406.84 293.82,-401.79"/>
</g>
<!-- 19 -->
<g id="node20" class="node">
<title>19</title>
<polygon fill="none" stroke="white" points="367.88,-396 310.12,-396 310.12,-360 367.88,-360 367.88,-396"/>
<text xml:space="preserve" text-anchor="middle" x="339" y="-373.32" font-family="'Fira Mono', 'Source Code Pro', 'Courier', monospace" font-size="14.00" fill="#0060a0">&lt;digit&gt;</text>
</g>
<!-- 6&#45;&gt;19 -->
<g id="edge19" class="edge">
<title>6&#45;&gt;19</title>
<path fill="none" stroke="black" d="M338.25,-431.7C338.35,-424.41 338.48,-415.73 338.59,-407.54"/>
<polygon fill="black" stroke="black" points="342.09,-407.67 338.73,-397.62 335.09,-407.57 342.09,-407.67"/>
</g>
<!-- 8 -->
<g id="node9" class="node">
<title>8</title>
<polygon fill="none" stroke="white" points="216,-324 162,-324 162,-288 216,-288 216,-324"/>
<text xml:space="preserve" text-anchor="middle" x="189" y="-301.32" font-family="'Fira Mono', 'Source Code Pro', 'Courier', monospace" font-size="14.00" fill="#0060a0">&lt;id&gt;</text>
</g>
<!-- 7&#45;&gt;8 -->
<g id="edge8" class="edge">
<title>7&#45;&gt;8</title>
<path fill="none" stroke="black" d="M246.21,-359.7C237.17,-351.37 226.16,-341.22 216.22,-332.07"/>
<polygon fill="black" stroke="black" points="218.67,-329.57 208.95,-325.37 213.93,-334.72 218.67,-329.57"/>
</g>
<!-- 17 -->
<g id="node18" class="node">
<title>17</title>
<polygon fill="none" stroke="white" points="293.88,-324 236.12,-324 236.12,-288 293.88,-288 293.88,-324"/>
<text xml:space="preserve" text-anchor="middle" x="265" y="-301.32" font-family="'Fira Mono', 'Source Code Pro', 'Courier', monospace" font-size="14.00" fill="#0060a0">&lt;digit&gt;</text>
</g>
<!-- 7&#45;&gt;17 -->
<g id="edge17" class="edge">
<title>7&#45;&gt;17</title>
<path fill="none" stroke="black" d="M265,-359.7C265,-352.41 265,-343.73 265,-335.54"/>
<polygon fill="black" stroke="black" points="268.5,-335.62 265,-325.62 261.5,-335.62 268.5,-335.62"/>
</g>
<!-- 9 -->
<g id="node10" class="node">
<title>9</title>
<polygon fill="none" stroke="white" points="138,-252 84,-252 84,-216 138,-216 138,-252"/>
<text xml:space="preserve" text-anchor="middle" x="111" y="-229.32" font-family="'Fira Mono', 'Source Code Pro', 'Courier', monospace" font-size="14.00" fill="#0060a0">&lt;id&gt;</text>
</g>
<!-- 8&#45;&gt;9 -->
<g id="edge9" class="edge">
<title>8&#45;&gt;9</title>
<path fill="none" stroke="black" d="M169.72,-287.7C160.34,-279.28 148.91,-269.02 138.62,-259.79"/>
<polygon fill="black" stroke="black" points="141.24,-257.43 131.46,-253.36 136.56,-262.64 141.24,-257.43"/>
</g>
<!-- 15 -->
<g id="node16" class="node">
<title>15</title>
<polygon fill="none" stroke="white" points="222,-252 156,-252 156,-216 222,-216 222,-252"/>
<text xml:space="preserve" text-anchor="middle" x="189" y="-229.32" font-family="'Fira Mono', 'Source Code Pro', 'Courier', monospace" font-size="14.00" fill="#0060a0">&lt;letter&gt;</text>
</g>
<!-- 8&#45;&gt;15 -->
<g id="edge15" class="edge">
<title>8&#45;&gt;15</title>
<path fill="none" stroke="black" d="M189,-287.7C189,-280.41 189,-271.73 189,-263.54"/>
<polygon fill="black" stroke="black" points="192.5,-263.62 189,-253.62 185.5,-263.62 192.5,-263.62"/>
</g>
<!-- 10 -->
<g id="node11" class="node">
<title>10</title>
<polygon fill="none" stroke="white" points="60,-180 6,-180 6,-144 60,-144 60,-180"/>
<text xml:space="preserve" text-anchor="middle" x="33" y="-157.32" font-family="'Fira Mono', 'Source Code Pro', 'Courier', monospace" font-size="14.00" fill="#0060a0">&lt;id&gt;</text>
</g>
<!-- 9&#45;&gt;10 -->
<g id="edge10" class="edge">
<title>9&#45;&gt;10</title>
<path fill="none" stroke="black" d="M91.72,-215.7C82.34,-207.28 70.91,-197.02 60.62,-187.79"/>
<polygon fill="black" stroke="black" points="63.24,-185.43 53.46,-181.36 58.56,-190.64 63.24,-185.43"/>
</g>
<!-- 13 -->
<g id="node14" class="node">
<title>13</title>
<polygon fill="none" stroke="white" points="144,-180 78,-180 78,-144 144,-144 144,-180"/>
<text xml:space="preserve" text-anchor="middle" x="111" y="-157.32" font-family="'Fira Mono', 'Source Code Pro', 'Courier', monospace" font-size="14.00" fill="#0060a0">&lt;letter&gt;</text>
</g>
<!-- 9&#45;&gt;13 -->
<g id="edge13" class="edge">
<title>9&#45;&gt;13</title>
<path fill="none" stroke="black" d="M111,-215.7C111,-208.41 111,-199.73 111,-191.54"/>
<polygon fill="black" stroke="black" points="114.5,-191.62 111,-181.62 107.5,-191.62 114.5,-191.62"/>
</g>
<!-- 11 -->
<g id="node12" class="node">
<title>11</title>
<polygon fill="none" stroke="white" points="66,-108 0,-108 0,-72 66,-72 66,-108"/>
<text xml:space="preserve" text-anchor="middle" x="33" y="-85.33" font-family="'Fira Mono', 'Source Code Pro', 'Courier', monospace" font-size="14.00" fill="#0060a0">&lt;letter&gt;</text>
</g>
<!-- 10&#45;&gt;11 -->
<g id="edge11" class="edge">
<title>10&#45;&gt;11</title>
<path fill="none" stroke="black" d="M33,-143.7C33,-136.41 33,-127.73 33,-119.54"/>
<polygon fill="black" stroke="black" points="36.5,-119.62 33,-109.62 29.5,-119.62 36.5,-119.62"/>
</g>
<!-- 12 -->
<g id="node13" class="node">
<title>12</title>
<polygon fill="none" stroke="white" points="60,-36 6,-36 6,0 60,0 60,-36"/>
<text xml:space="preserve" text-anchor="middle" x="33" y="-13.32" font-family="'Fira Mono', 'Source Code Pro', 'Courier', monospace" font-size="14.00" fill="#00a060">F (70)</text>
</g>
<!-- 11&#45;&gt;12 -->
<g id="edge12" class="edge">
<title>11&#45;&gt;12</title>
<path fill="none" stroke="black" d="M33,-71.7C33,-64.41 33,-55.73 33,-47.54"/>
<polygon fill="black" stroke="black" points="36.5,-47.62 33,-37.62 29.5,-47.62 36.5,-47.62"/>
</g>
<!-- 14 -->
<g id="node15" class="node">
<title>14</title>
<polygon fill="none" stroke="white" points="138,-108 84,-108 84,-72 138,-72 138,-108"/>
<text xml:space="preserve" text-anchor="middle" x="111" y="-85.33" font-family="'Fira Mono', 'Source Code Pro', 'Courier', monospace" font-size="14.00" fill="#00a060">Q (81)</text>
</g>
<!-- 13&#45;&gt;14 -->
<g id="edge14" class="edge">
<title>13&#45;&gt;14</title>
<path fill="none" stroke="black" d="M111,-143.7C111,-136.41 111,-127.73 111,-119.54"/>
<polygon fill="black" stroke="black" points="114.5,-119.62 111,-109.62 107.5,-119.62 114.5,-119.62"/>
</g>
<!-- 16 -->
<g id="node17" class="node">
<title>16</title>
<polygon fill="none" stroke="white" points="216,-180 162,-180 162,-144 216,-144 216,-180"/>
<text xml:space="preserve" text-anchor="middle" x="189" y="-157.32" font-family="'Fira Mono', 'Source Code Pro', 'Courier', monospace" font-size="14.00" fill="#00a060">c (99)</text>
</g>
<!-- 15&#45;&gt;16 -->
<g id="edge16" class="edge">
<title>15&#45;&gt;16</title>
<path fill="none" stroke="black" d="M189,-215.7C189,-208.41 189,-199.73 189,-191.54"/>
<polygon fill="black" stroke="black" points="192.5,-191.62 189,-181.62 185.5,-191.62 192.5,-191.62"/>
</g>
<!-- 18 -->
<g id="node19" class="node">
<title>18</title>
<polygon fill="none" stroke="white" points="294,-252 240,-252 240,-216 294,-216 294,-252"/>
<text xml:space="preserve" text-anchor="middle" x="267" y="-229.32" font-family="'Fira Mono', 'Source Code Pro', 'Courier', monospace" font-size="14.00" fill="#00a060">9 (57)</text>
</g>
<!-- 17&#45;&gt;18 -->
<g id="edge18" class="edge">
<title>17&#45;&gt;18</title>
<path fill="none" stroke="black" d="M265.49,-287.7C265.7,-280.41 265.95,-271.73 266.18,-263.54"/>
<polygon fill="black" stroke="black" points="269.68,-263.71 266.47,-253.62 262.68,-263.51 269.68,-263.71"/>
</g>
<!-- 20 -->
<g id="node21" class="node">
<title>20</title>
<polygon fill="none" stroke="white" points="366,-324 312,-324 312,-288 366,-288 366,-324"/>
<text xml:space="preserve" text-anchor="middle" x="339" y="-301.32" font-family="'Fira Mono', 'Source Code Pro', 'Courier', monospace" font-size="14.00" fill="#00a060">0 (48)</text>
</g>
<!-- 19&#45;&gt;20 -->
<g id="edge20" class="edge">
<title>19&#45;&gt;20</title>
<path fill="none" stroke="black" d="M339,-359.7C339,-352.41 339,-343.73 339,-335.54"/>
<polygon fill="black" stroke="black" points="342.5,-335.62 339,-325.62 335.5,-335.62 342.5,-335.62"/>
</g>
<!-- 22 -->
<g id="node23" class="node">
<title>22</title>
<polygon fill="none" stroke="white" points="511,-396 457,-396 457,-360 511,-360 511,-396"/>
<text xml:space="preserve" text-anchor="middle" x="484" y="-373.32" font-family="'Fira Mono', 'Source Code Pro', 'Courier', monospace" font-size="14.00" fill="#0060a0">&lt;attr&gt;</text>
</g>
<!-- 21&#45;&gt;22 -->
<g id="edge22" class="edge">
<title>21&#45;&gt;22</title>
<path fill="none" stroke="black" d="M429.8,-431.7C438.28,-423.45 448.59,-413.43 457.93,-404.35"/>
<polygon fill="black" stroke="black" points="460.34,-406.88 465.07,-397.4 455.46,-401.86 460.34,-406.88"/>
</g>
<!-- 23 -->
<g id="node24" class="node">
<title>23</title>
<polygon fill="none" stroke="white" points="438,-324 384,-324 384,-288 438,-288 438,-324"/>
<text xml:space="preserve" text-anchor="middle" x="411" y="-301.32" font-family="'Fira Mono', 'Source Code Pro', 'Courier', monospace" font-size="14.00" fill="#00a060"> &#160;(32)</text>
</g>
<!-- 22&#45;&gt;23 -->
<g id="edge23" class="edge">
<title>22&#45;&gt;23</title>
<path fill="none" stroke="black" d="M465.96,-359.7C457.27,-351.37 446.69,-341.22 437.14,-332.07"/>
<polygon fill="black" stroke="black" points="439.82,-329.79 430.18,-325.39 434.98,-334.84 439.82,-329.79"/>
</g>
<!-- 24 -->
<g id="node25" class="node">
<title>24</title>
<polygon fill="none" stroke="white" points="510,-324 456,-324 456,-288 510,-288 510,-324"/>
<text xml:space="preserve" text-anchor="middle" x="483" y="-301.32" font-family="'Fira Mono', 'Source Code Pro', 'Courier', monospace" font-size="14.00" fill="#0060a0">&lt;id&gt;</text>
</g>
<!-- 22&#45;&gt;24 -->
<g id="edge24" class="edge">
<title>22&#45;&gt;24</title>
<path fill="none" stroke="black" d="M483.75,-359.7C483.65,-352.41 483.52,-343.73 483.41,-335.54"/>
<polygon fill="black" stroke="black" points="486.91,-335.57 483.27,-325.62 479.91,-335.67 486.91,-335.57"/>
</g>
<!-- 30 -->
<g id="node31" class="node">
<title>30</title>
<polygon fill="none" stroke="white" points="582,-324 528,-324 528,-288 582,-288 582,-324"/>
<text xml:space="preserve" text-anchor="middle" x="555" y="-301.32" font-family="'Fira Mono', 'Source Code Pro', 'Courier', monospace" font-size="14.00" fill="#00a060">=&quot;</text>
</g>
<!-- 22&#45;&gt;30 -->
<g id="edge30" class="edge">
<title>22&#45;&gt;30</title>
<path fill="none" stroke="black" d="M501.55,-359.7C509.98,-351.39 520.23,-341.28 529.5,-332.14"/>
<polygon fill="black" stroke="black" points="531.91,-334.68 536.57,-325.17 527,-329.7 531.91,-334.68"/>
</g>
<!-- 31 -->
<g id="node32" class="node">
<title>31</title>
<polygon fill="none" stroke="white" points="699.5,-324 600.5,-324 600.5,-288 699.5,-288 699.5,-324"/>
<text xml:space="preserve" text-anchor="middle" x="650" y="-301.32" font-family="'Fira Mono', 'Source Code Pro', 'Courier', monospace" font-size="14.00" fill="#0060a0">&lt;plain&#45;text&gt;</text>
</g>
<!-- 22&#45;&gt;31 -->
<g id="edge31" class="edge">
<title>22&#45;&gt;31</title>
<path fill="none" stroke="black" d="M511.36,-364.65C514.93,-363.07 518.55,-361.49 522,-360 546.31,-349.53 573.38,-338.27 596.34,-328.83"/>
<polygon fill="black" stroke="black" points="597.59,-332.1 605.51,-325.06 594.93,-325.62 597.59,-332.1"/>
</g>
<!-- 33 -->
<g id="node34" class="node">
<title>33</title>
<polygon fill="none" stroke="white" points="772,-324 718,-324 718,-288 772,-288 772,-324"/>
<text xml:space="preserve" text-anchor="middle" x="745" y="-301.32" font-family="'Fira Mono', 'Source Code Pro', 'Courier', monospace" font-size="14.00" fill="#00a060">&quot; (34)</text>
</g>
<!-- 22&#45;&gt;33 -->
<g id="edge33" class="edge">
<title>22&#45;&gt;33</title>
<path fill="none" stroke="black" d="M511.11,-363.97C514.72,-362.5 518.42,-361.13 522,-360 599.41,-335.59 626.33,-349.06 707.11,-324.14"/>
<polygon fill="black" stroke="black" points="707.87,-327.57 716.33,-321.18 705.74,-320.9 707.87,-327.57"/>
</g>
<!-- 25 -->
<g id="node26" class="node">
<title>25</title>
<polygon fill="none" stroke="white" points="471,-252 417,-252 417,-216 471,-216 471,-252"/>
<text xml:space="preserve" text-anchor="middle" x="444" y="-229.32" font-family="'Fira Mono', 'Source Code Pro', 'Courier', monospace" font-size="14.00" fill="#0060a0">&lt;id&gt;</text>
</g>
<!-- 24&#45;&gt;25 -->
<g id="edge25" class="edge">
<title>24&#45;&gt;25</title>
<path fill="none" stroke="black" d="M473.36,-287.7C469.06,-279.98 463.9,-270.71 459.11,-262.11"/>
<polygon fill="black" stroke="black" points="462.19,-260.46 454.27,-253.43 456.08,-263.87 462.19,-260.46"/>
</g>
<!-- 28 -->
<g id="node29" class="node">
<title>28</title>
<polygon fill="none" stroke="white" points="556,-252 490,-252 490,-216 556,-216 556,-252"/>
<text xml:space="preserve" text-anchor="middle" x="523" y="-229.32" font-family="'Fira Mono', 'Source Code Pro', 'Courier', monospace" font-size="14.00" fill="#0060a0">&lt;letter&gt;</text>
</g>
<!-- 24&#45;&gt;28 -->
<g id="edge28" class="edge">
<title>24&#45;&gt;28</title>
<path fill="none" stroke="black" d="M492.89,-287.7C497.34,-279.9 502.71,-270.51 507.67,-261.83"/>
<polygon fill="black" stroke="black" points="510.55,-263.84 512.48,-253.42 504.47,-260.36 510.55,-263.84"/>
</g>
<!-- 26 -->
<g id="node27" class="node">
<title>26</title>
<polygon fill="none" stroke="white" points="477,-180 411,-180 411,-144 477,-144 477,-180"/>
<text xml:space="preserve" text-anchor="middle" x="444" y="-157.32" font-family="'Fira Mono', 'Source Code Pro', 'Courier', monospace" font-size="14.00" fill="#0060a0">&lt;letter&gt;</text>
</g>
<!-- 25&#45;&gt;26 -->
<g id="edge26" class="edge">
<title>25&#45;&gt;26</title>
<path fill="none" stroke="black" d="M444,-215.7C444,-208.41 444,-199.73 444,-191.54"/>
<polygon fill="black" stroke="black" points="447.5,-191.62 444,-181.62 440.5,-191.62 447.5,-191.62"/>
</g>
<!-- 27 -->
<g id="node28" class="node">
<title>27</title>
<polygon fill="none" stroke="white" points="471,-108 417,-108 417,-72 471,-72 471,-108"/>
<text xml:space="preserve" text-anchor="middle" x="444" y="-85.33" font-family="'Fira Mono', 'Source Code Pro', 'Courier', monospace" font-size="14.00" fill="#00a060">W (87)</text>
</g>
<!-- 26&#45;&gt;27 -->
<g id="edge27" class="edge">
<title>26&#45;&gt;27</title>
<path fill="none" stroke="black" d="M444,-143.7C444,-136.41 444,-127.73 444,-119.54"/>
<polygon fill="black" stroke="black" points="447.5,-119.62 444,-109.62 440.5,-119.62 447.5,-119.62"/>
</g>
<!-- 29 -->
<g id="node30" class="node">
<title>29</title>
<polygon fill="none" stroke="white" points="552.88,-180 495.12,-180 495.12,-144 552.88,-144 552.88,-180"/>
<text xml:space="preserve" text-anchor="middle" x="524" y="-157.32" font-family="'Fira Mono', 'Source Code Pro', 'Courier', monospace" font-size="14.00" fill="#00a060">t (116)</text>
</g>
<!-- 28&#45;&gt;29 -->
<g id="edge29" class="edge">
<title>28&#45;&gt;29</title>
<path fill="none" stroke="black" d="M523.25,-215.7C523.35,-208.41 523.48,-199.73 523.59,-191.54"/>
<polygon fill="black" stroke="black" points="527.09,-191.67 523.73,-181.62 520.09,-191.57 527.09,-191.67"/>
</g>
<!-- 32 -->
<g id="node33" class="node">
<title>32</title>
<polygon fill="none" stroke="white" points="677,-252 623,-252 623,-216 677,-216 677,-252"/>
</g>
<!-- 31&#45;&gt;32 -->
<g id="edge32" class="edge">
<title>31&#45;&gt;32</title>
<path fill="none" stroke="black" d="M650,-287.7C650,-280.41 650,-271.73 650,-263.54"/>
<polygon fill="black" stroke="black" points="653.5,-263.62 650,-253.62 646.5,-263.62 653.5,-263.62"/>
</g>
<!-- 36 -->
<g id="node37" class="node">
<title>36</title>
<polygon fill="none" stroke="white" points="585,-396 531,-396 531,-360 585,-360 585,-396"/>
<text xml:space="preserve" text-anchor="middle" x="558" y="-373.32" font-family="'Fira Mono', 'Source Code Pro', 'Courier', monospace" font-size="14.00" fill="#00a060">&gt; (62)</text>
</g>
<!-- 35&#45;&gt;36 -->
<g id="edge36" class="edge">
<title>35&#45;&gt;36</title>
<path fill="none" stroke="black" d="M558,-431.7C558,-424.41 558,-415.73 558,-407.54"/>
<polygon fill="black" stroke="black" points="561.5,-407.62 558,-397.62 554.5,-407.62 561.5,-407.62"/>
</g>
</g>
</svg>