<?xml version="1.0" encoding="UTF-8" standalone="no"?>
<!DOCTYPE svg PUBLIC "-//W3C//DTD SVG 1.1//EN"
 "http://www.w3.org/Graphics/SVG/1.1/DTD/svg11.dtd">
<!-- Generated by graphviz version 14.0.2 (20251019.1705)
 -->
<!-- Title: Tree Pages: 1 -->
<svg width="386pt" height="552pt"
 viewBox="0.00 0.00 386.00 552.00" xmlns="http://www.w3.org/2000/svg" xmlns:xlink="http://www.w3.org/1999/xlink">
<g id="graph0" class="graph" transform="scale(1 1) rotate(0) translate(4 548)">
<title>Tree</title>
<polygon fill="white" stroke="none" points="-4,4 -4,-548 381.5,-548 381.5,4 -4,4"/>
<!-- 0 -->
<g id="node1" class="node">
<title>0</title>
<path fill="#ffffff" stroke="black" d="M278.75,-544C278.75,-544 172.75,-544 172.75,-544 166.75,-544 160.75,-538 160.75,-532 160.75,-532 160.75,-473 160.75,-473 160.75,-467 166.75,-461 172.75,-461 172.75,-461 278.75,-461 278.75,-461 284.75,-461 290.75,-467 290.75,-473 290.75,-473 290.75,-532 290.75,-532 290.75,-538 284.75,-544 278.75,-544"/>
<text xml:space="preserve" text-anchor="middle" x="225.75" y="-526.7" font-family="Helvetica,sans-Serif" font-size="14.00">&lt;lead&#45;digit&gt; &lt;= 4.5</text>
<text xml:space="preserve" text-anchor="middle" x="225.75" y="-511.7" font-family="Helvetica,sans-Serif" font-size="14.00">gini = 0.5</text>
<text xml:space="preserve" text-anchor="middle" x="225.75" y="-496.7" font-family="Helvetica,sans-Serif" font-size="14.00">samples = 598</text>
<text xml:space="preserve" text-anchor="middle" x="225.75" y="-481.7" font-family="Helvetica,sans-Serif" font-size="14.00">value = [1.0, 1.0]</text>
<text xml:space="preserve" text-anchor="middle" x="225.75" y="-466.7" font-family="Helvetica,sans-Serif" font-size="14.00">class = BUG</text>
</g>
<!-- 1 -->
<g id="node2" class="node">
<title>1</title>
<path fill="#eb9e67" stroke="black" d="M216.25,-425C216.25,-425 65.25,-425 65.25,-425 59.25,-425 53.25,-419 53.25,-413 53.25,-413 53.25,-354 53.25,-354 53.25,-348 59.25,-342 65.25,-342 65.25,-342 216.25,-342 216.25,-342 222.25,-342 228.25,-348 228.25,-354 228.25,-354 228.25,-413 228.25,-413 228.25,-419 222.25,-425 216.25,-425"/>
<text xml:space="preserve" text-anchor="middle" x="140.75" y="-407.7" font-family="Helvetica,sans-Serif" font-size="14.00">&lt;function&gt; == &#39;sqrt&#39; &lt;= 0.5</text>
<text xml:space="preserve" text-anchor="middle" x="140.75" y="-392.7" font-family="Helvetica,sans-Serif" font-size="14.00">gini = 0.307</text>
<text xml:space="preserve" text-anchor="middle" x="140.75" y="-377.7" font-family="Helvetica,sans-Serif" font-size="14.00">samples = 146</text>
<text xml:space="preserve" text-anchor="middle" x="140.75" y="-362.7" font-family="Helvetica,sans-Serif" font-size="14.00">value = [1.0, 0.234]</text>
<text xml:space="preserve" text-anchor="middle" x="140.75" y="-347.7" font-family="Helvetica,sans-Serif" font-size="14.00">class = BUG</text>
</g>
<!-- 0&#45;&gt;1 -->
<g id="edge1" class="edge">
<title>0&#45;&gt;1</title>
<path fill="none" stroke="black" d="M196.02,-460.58C189.9,-452.16 183.4,-443.2 177.08,-434.5"/>
<polygon fill="black" stroke="black" points="179.92,-432.46 171.21,-426.42 174.25,-436.57 179.92,-432.46"/>
<text xml:space="preserve" text-anchor="middle" x="166.41" y="-444.09" font-family="Helvetica,sans-Serif" font-size="14.00">True</text>
</g>
<!-- 12 -->
<g id="node9" class="node">
<title>12</title>
<path fill="#399de5" stroke="black" d="M365.5,-417.5C365.5,-417.5 258,-417.5 258,-417.5 252,-417.5 246,-411.5 246,-405.5 246,-405.5 246,-361.5 246,-361.5 246,-355.5 252,-349.5 258,-349.5 258,-349.5 365.5,-349.5 365.5,-349.5 371.5,-349.5 377.5,-355.5 377.5,-361.5 377.5,-361.5 377.5,-405.5 377.5,-405.5 377.5,-411.5 371.5,-417.5 365.5,-417.5"/>
<text xml:space="preserve" text-anchor="middle" x="311.75" y="-400.2" font-family="Helvetica,sans-Serif" font-size="14.00">gini = 0.0</text>
<text xml:space="preserve" text-anchor="middle" x="311.75" y="-385.2" font-family="Helvetica,sans-Serif" font-size="14.00">samples = 452</text>
<text xml:space="preserve" text-anchor="middle" x="311.75" y="-370.2" font-family="Helvetica,sans-Serif" font-size="14.00">value = [0.0, 0.766]</text>
<text xml:space="preserve" text-anchor="middle" x="311.75" y="-355.2" font-family="Helvetica,sans-Serif" font-size="14.00">class = NO_BUG</text>
</g>
<!-- 0&#45;&gt;12 -->
<g id="edge8" class="edge">
<title>0&#45;&gt;12</title>
<path fill="none" stroke="black" d="M255.83,-460.58C263.85,-449.66 272.54,-437.85 280.61,-426.86"/>
<polygon fill="black" stroke="black" points="283.23,-429.21 286.33,-419.08 277.59,-425.07 283.23,-429.21"/>
<text xml:space="preserve" text-anchor="middle" x="291" y="-436.77" font-family="Helvetica,sans-Serif" font-size="14.00">False</text>
</g>
<!-- 2 -->
<g id="node3" class="node">
<title>2</title>
<path fill="#399de5" stroke="black" d="M119.5,-298.5C119.5,-298.5 12,-298.5 12,-298.5 6,-298.5 0,-292.5 0,-286.5 0,-286.5 0,-242.5 0,-242.5 0,-236.5 6,-230.5 12,-230.5 12,-230.5 119.5,-230.5 119.5,-230.5 125.5,-230.5 131.5,-236.5 131.5,-242.5 131.5,-242.5 131.5,-286.5 131.5,-286.5 131.5,-292.5 125.5,-298.5 119.5,-298.5"/>
<text xml:space="preserve" text-anchor="middle" x="65.75" y="-281.2" font-family="Helvetica,sans-Serif" font-size="14.00">gini = 0.0</text>
<text xml:space="preserve" text-anchor="middle" x="65.75" y="-266.2" font-family="Helvetica,sans-Serif" font-size="14.00">samples = 94</text>
<text xml:space="preserve" text-anchor="middle" x="65.75" y="-251.2" font-family="Helvetica,sans-Serif" font-size="14.00">value = [0.0, 0.159]</text>
<text xml:space="preserve" text-anchor="middle" x="65.75" y="-236.2" font-family="Helvetica,sans-Serif" font-size="14.00">class = NO_BUG</text>
</g>
<!-- 1&#45;&gt;2 -->
<g id="edge2" class="edge">
<title>1&#45;&gt;2</title>
<path fill="none" stroke="black" d="M114.52,-341.58C107.66,-330.88 100.25,-319.32 93.33,-308.52"/>
<polygon fill="black" stroke="black" points="96.3,-306.67 87.95,-300.14 90.4,-310.44 96.3,-306.67"/>
</g>
<!-- 5 -->
<g id="node4" class="node">
<title>5</title>
<path fill="#e78a48" stroke="black" d="M269.5,-306C269.5,-306 162,-306 162,-306 156,-306 150,-300 150,-294 150,-294 150,-235 150,-235 150,-229 156,-223 162,-223 162,-223 269.5,-223 269.5,-223 275.5,-223 281.5,-229 281.5,-235 281.5,-235 281.5,-294 281.5,-294 281.5,-300 275.5,-306 269.5,-306"/>
<text xml:space="preserve" text-anchor="middle" x="215.75" y="-288.7" font-family="Helvetica,sans-Serif" font-size="14.00">&lt;value&gt; &lt;= 42.0</text>
<text xml:space="preserve" text-anchor="middle" x="215.75" y="-273.7" font-family="Helvetica,sans-Serif" font-size="14.00">gini = 0.129</text>
<text xml:space="preserve" text-anchor="middle" x="215.75" y="-258.7" font-family="Helvetica,sans-Serif" font-size="14.00">samples = 52</text>
<text xml:space="preserve" text-anchor="middle" x="215.75" y="-243.7" font-family="Helvetica,sans-Serif" font-size="14.00">value = [1.0, 0.075]</text>
<text xml:space="preserve" text-anchor="middle" x="215.75" y="-228.7" font-family="Helvetica,sans-Serif" font-size="14.00">class = BUG</text>
</g>
<!-- 1&#45;&gt;5 -->
<g id="edge3" class="edge">
<title>1&#45;&gt;5</title>
<path fill="none" stroke="black" d="M166.98,-341.58C172.32,-333.25 178,-324.39 183.52,-315.78"/>
<polygon fill="black" stroke="black" points="186.39,-317.78 188.84,-307.47 180.5,-314 186.39,-317.78"/>
</g>
<!-- 6 -->
<g id="node5" class="node">
<title>6</title>
<path fill="#e6843d" stroke="black" d="M192.75,-187C192.75,-187 92.75,-187 92.75,-187 86.75,-187 80.75,-181 80.75,-175 80.75,-175 80.75,-116 80.75,-116 80.75,-110 86.75,-104 92.75,-104 92.75,-104 192.75,-104 192.75,-104 198.75,-104 204.75,-110 204.75,-116 204.75,-116 204.75,-175 204.75,-175 204.75,-181 198.75,-187 192.75,-187"/>
<text xml:space="preserve" text-anchor="middle" x="142.75" y="-169.7" font-family="Helvetica,sans-Serif" font-size="14.00">&lt;term&gt; &lt;= &#45;2.0</text>
<text xml:space="preserve" text-anchor="middle" x="142.75" y="-154.7" font-family="Helvetica,sans-Serif" font-size="14.00">gini = 0.039</text>
<text xml:space="preserve" text-anchor="middle" x="142.75" y="-139.7" font-family="Helvetica,sans-Serif" font-size="14.00">samples = 20</text>
<text xml:space="preserve" text-anchor="middle" x="142.75" y="-124.7" font-family="Helvetica,sans-Serif" font-size="14.00">value = [1.0, 0.02]</text>
<text xml:space="preserve" text-anchor="middle" x="142.75" y="-109.7" font-family="Helvetica,sans-Serif" font-size="14.00">class = BUG</text>
</g>
<!-- 5&#45;&gt;6 -->
<g id="edge4" class="edge">
<title>5&#45;&gt;6</title>
<path fill="none" stroke="black" d="M190.22,-222.58C185.02,-214.25 179.5,-205.39 174.12,-196.78"/>
<polygon fill="black" stroke="black" points="177.21,-195.12 168.95,-188.48 171.27,-198.82 177.21,-195.12"/>
</g>
<!-- 11 -->
<g id="node8" class="node">
<title>11</title>
<path fill="#399de5" stroke="black" d="M342.5,-179.5C342.5,-179.5 235,-179.5 235,-179.5 229,-179.5 223,-173.5 223,-167.5 223,-167.5 223,-123.5 223,-123.5 223,-117.5 229,-111.5 235,-111.5 235,-111.5 342.5,-111.5 342.5,-111.5 348.5,-111.5 354.5,-117.5 354.5,-123.5 354.5,-123.5 354.5,-167.5 354.5,-167.5 354.5,-173.5 348.5,-179.5 342.5,-179.5"/>
<text xml:space="preserve" text-anchor="middle" x="288.75" y="-162.2" font-family="Helvetica,sans-Serif" font-size="14.00">gini = 0.0</text>
<text xml:space="preserve" text-anchor="middle" x="288.75" y="-147.2" font-family="Helvetica,sans-Serif" font-size="14.00">samples = 32</text>
<text xml:space="preserve" text-anchor="middle" x="288.75" y="-132.2" font-family="Helvetica,sans-Serif" font-size="14.00">value = [0.0, 0.054]</text>
<text xml:space="preserve" text-anchor="middle" x="288.75" y="-117.2" font-family="Helvetica,sans-Serif" font-size="14.00">class = NO_BUG</text>
</g>
<!-- 5&#45;&gt;11 -->
<g id="edge7" class="edge">
<title>5&#45;&gt;11</title>
<path fill="none" stroke="black" d="M241.28,-222.58C247.96,-211.88 255.17,-200.32 261.91,-189.52"/>
<polygon fill="black" stroke="black" points="264.81,-191.48 267.13,-181.15 258.87,-187.78 264.81,-191.48"/>
</g>
<!-- 7 -->
<g id="node6" class="node">
<title>7</title>
<path fill="#e58139" stroke="black" d="M114.75,-68C114.75,-68 44.75,-68 44.75,-68 38.75,-68 32.75,-62 32.75,-56 32.75,-56 32.75,-12 32.75,-12 32.75,-6 38.75,0 44.75,0 44.75,0 114.75,0 114.75,0 120.75,0 126.75,-6 126.75,-12 126.75,-12 126.75,-56 126.75,-56 126.75,-62 120.75,-68 114.75,-68"/>
<text xml:space="preserve" text-anchor="middle" x="79.75" y="-50.7" font-family="Helvetica,sans-Serif" font-size="14.00">gini = 0.0</text>
<text xml:space="preserve" text-anchor="middle" x="79.75" y="-35.7" font-family="Helvetica,sans-Serif" font-size="14.00">samples = 8</text>
<text xml:space="preserve" text-anchor="middle" x="79.75" y="-20.7" font-family="Helvetica,sans-Serif" font-size="14.00">value = [1, 0]</text>
<text xml:space="preserve" text-anchor="middle" x="79.75" y="-5.7" font-family="Helvetica,sans-Serif" font-size="14.00">class = BUG</text>
</g>
<!-- 6&#45;&gt;7 -->
<g id="edge5" class="edge">
<title>6&#45;&gt;7</title>
<path fill="none" stroke="black" d="M119.29,-103.73C114.46,-95.34 109.37,-86.47 104.49,-78.01"/>
<polygon fill="black" stroke="black" points="107.68,-76.53 99.66,-69.61 101.62,-80.02 107.68,-76.53"/>
</g>
<!-- 8 -->
<g id="node7" class="node">
<title>8</title>
<path fill="#399de5" stroke="black" d="M256.75,-68C256.75,-68 156.75,-68 156.75,-68 150.75,-68 144.75,-62 144.75,-56 144.75,-56 144.75,-12 144.75,-12 144.75,-6 150.75,0 156.75,0 156.75,0 256.75,0 256.75,0 262.75,0 268.75,-6 268.75,-12 268.75,-12 268.75,-56 268.75,-56 268.75,-62 262.75,-68 256.75,-68"/>
<text xml:space="preserve" text-anchor="middle" x="206.75" y="-50.7" font-family="Helvetica,sans-Serif" font-size="14.00">gini = 0.0</text>
<text xml:space="preserve" text-anchor="middle" x="206.75" y="-35.7" font-family="Helvetica,sans-Serif" font-size="14.00">samples = 12</text>
<text xml:space="preserve" text-anchor="middle" x="206.75" y="-20.7" font-family="Helvetica,sans-Serif" font-size="14.00">value = [0.0, 0.02]</text>
<text xml:space="preserve" text-anchor="middle" x="206.75" y="-5.7" font-family="Helvetica,sans-Serif" font-size="14.00">class = NO_BUG</text>
</g>
<!-- 6&#45;&gt;8 -->
<g id="edge6" class="edge">
<title>6&#45;&gt;8</title>
<path fill="none" stroke="black" d="M166.58,-103.73C171.49,-95.34 176.66,-86.47 181.61,-78.01"/>
<polygon fill="black" stroke="black" points="184.5,-80.01 186.52,-69.61 178.46,-76.47 184.5,-80.01"/>
</g>
</g>
</svg>