<?xml version="1.0" encoding="UTF-8" standalone="no"?>
<!DOCTYPE svg PUBLIC "-//W3C//DTD SVG 1.1//EN"
 "http://www.w3.org/Graphics/SVG/1.1/DTD/svg11.dtd">
<!-- Generated by graphviz version 14.0.2 (20251019.1705)
 -->
<!-- Title: dependencies Pages: 1 -->
<svg width="638pt" height="580pt"
 viewBox="0.00 0.00 638.00 580.00" xmlns="http://www.w3.org/2000/svg" xmlns:xlink="http://www.w3.org/1999/xlink">
<g id="graph0" class="graph" transform="scale(1 1) rotate(0) translate(4 576)">
<title>dependencies</title>
<polygon fill="white" stroke="none" points="-4,4 -4,-576 633.5,-576 633.5,4 -4,4"/>
<!-- assertion_functionsquare_rootat0x10e66aca0_55 -->
<g id="node1" class="node">
<title>assertion_functionsquare_rootat0x10e66aca0_55</title>
<g id="a_node1"><a xlink:title="square_root:55">
<polygon fill="peachpuff" stroke="black" points="168.25,-496 0,-496 0,-456 168.25,-456 168.25,-496"/>
<text xml:space="preserve" text-anchor="start" x="38.75" y="-479.7" font-family="Courier,monospace" font-weight="bold" font-style="italic" font-size="14.00">&lt;assertion&gt;</text>
<text xml:space="preserve" text-anchor="start" x="8" y="-461.45" font-family="Courier,monospace" font-size="9.00">assert x &gt;= 0 &#160;# precondition</text>
</a>
</g>
</g>
<!-- approx_functionsquare_rootat0x10e66aca0_57 -->
<g id="node9" class="node">
<title>approx_functionsquare_rootat0x10e66aca0_57</title>
<g id="a_node9"><a xlink:title="square_root:57">
<polygon fill="peachpuff" stroke="black" points="121.25,-420 37,-420 37,-380 121.25,-380 121.25,-420"/>
<text xml:space="preserve" text-anchor="start" x="54.38" y="-403.7" font-family="Courier,monospace" font-weight="bold" font-size="14.00">approx</text>
<text xml:space="preserve" text-anchor="start" x="45" y="-385.45" font-family="Courier,monospace" font-size="9.00">approx = None</text>
</a>
</g>
</g>
<!-- assertion_functionsquare_rootat0x10e66aca0_55&#45;&gt;approx_functionsquare_rootat0x10e66aca0_57 -->
<!-- x_functionsquare_rootat0x10e66aca0_64 -->
<g id="node2" class="node">
<title>x_functionsquare_rootat0x10e66aca0_64</title>
<g id="a_node2"><a xlink:title="square_root:64">
<polygon fill="peachpuff" stroke="black" points="273.25,-572 189,-572 189,-532 273.25,-532 273.25,-572"/>
<text xml:space="preserve" text-anchor="start" x="227" y="-555.7" font-family="Courier,monospace" font-weight="bold" font-size="14.00">x</text>
<text xml:space="preserve" text-anchor="start" x="197" y="-537.45" font-family="Courier,monospace" font-size="9.00">return approx</text>
</a>
</g>
</g>
<!-- x_functionsquare_rootat0x10e66aca0_64&#45;&gt;assertion_functionsquare_rootat0x10e66aca0_55 -->
<g id="edge1" class="edge">
<title>x_functionsquare_rootat0x10e66aca0_64&#45;&gt;assertion_functionsquare_rootat0x10e66aca0_55</title>
<path fill="none" stroke="black" d="M192.5,-531.56C174.26,-522.37 152.28,-511.31 132.91,-501.56"/>
<polygon fill="black" stroke="black" points="134.6,-498.49 124.1,-497.12 131.45,-504.74 134.6,-498.49"/>
</g>
<!-- guess_functionsquare_rootat0x10e66aca0_58 -->
<g id="node3" class="node">
<title>guess_functionsquare_rootat0x10e66aca0_58</title>
<g id="a_node3"><a xlink:title="square_root:58">
<polygon fill="peachpuff" stroke="black" points="121.25,-344 37,-344 37,-304 121.25,-304 121.25,-344"/>
<text xml:space="preserve" text-anchor="start" x="58.5" y="-327.7" font-family="Courier,monospace" font-weight="bold" font-size="14.00">guess</text>
<text xml:space="preserve" text-anchor="start" x="45" y="-309.45" font-family="Courier,monospace" font-size="9.00">guess = x / 2</text>
</a>
</g>
</g>
<!-- x_functionsquare_rootat0x10e66aca0_64&#45;&gt;guess_functionsquare_rootat0x10e66aca0_58 -->
<g id="edge2" class="edge">
<title>x_functionsquare_rootat0x10e66aca0_64&#45;&gt;guess_functionsquare_rootat0x10e66aca0_58</title>
<path fill="none" stroke="black" d="M221.58,-531.61C205.07,-498.9 169.18,-431.3 130.12,-380 122.97,-370.6 114.47,-360.95 106.49,-352.41"/>
<polygon fill="black" stroke="black" points="109.23,-350.21 99.8,-345.39 104.16,-355.04 109.23,-350.21"/>
</g>
<!-- guess_functionsquare_rootat0x10e66aca0_61 -->
<g id="node6" class="node">
<title>guess_functionsquare_rootat0x10e66aca0_61</title>
<g id="a_node6"><a xlink:title="square_root:61">
<polygon fill="peachpuff" stroke="black" points="352.75,-192 163.5,-192 163.5,-152 352.75,-152 352.75,-192"/>
<text xml:space="preserve" text-anchor="start" x="237.5" y="-175.7" font-family="Courier,monospace" font-weight="bold" font-size="14.00">guess</text>
<text xml:space="preserve" text-anchor="start" x="171.5" y="-157.45" font-family="Courier,monospace" font-size="9.00">guess = (approx + x / approx) / 2</text>
</a>
</g>
</g>
<!-- x_functionsquare_rootat0x10e66aca0_64&#45;&gt;guess_functionsquare_rootat0x10e66aca0_61 -->
<g id="edge10" class="edge">
<title>x_functionsquare_rootat0x10e66aca0_64&#45;&gt;guess_functionsquare_rootat0x10e66aca0_61</title>
<path fill="none" stroke="black" d="M236.85,-531.78C244.78,-503.44 258.12,-448.63 258.12,-401 258.12,-401 258.12,-401 258.12,-323 258.12,-281.8 258.12,-234.24 258.12,-203.91"/>
<polygon fill="black" stroke="black" points="261.63,-203.93 258.13,-193.93 254.63,-203.93 261.63,-203.93"/>
</g>
<!-- assertion_functionsquare_rootat0x10e66aca0_63 -->
<g id="node8" class="node">
<title>assertion_functionsquare_rootat0x10e66aca0_63</title>
<g id="a_node8"><a xlink:title="square_root:63">
<polygon fill="peachpuff" stroke="black" points="629.5,-116 408.75,-116 408.75,-76 629.5,-76 629.5,-116"/>
<text xml:space="preserve" text-anchor="start" x="473.75" y="-99.7" font-family="Courier,monospace" font-weight="bold" font-style="italic" font-size="14.00">&lt;assertion&gt;</text>
<text xml:space="preserve" text-anchor="start" x="416.75" y="-81.45" font-family="Courier,monospace" font-size="9.00">assert math.isclose(approx * approx, x)</text>
</a>
</g>
</g>
<!-- x_functionsquare_rootat0x10e66aca0_64&#45;&gt;assertion_functionsquare_rootat0x10e66aca0_63 -->
<g id="edge8" class="edge">
<title>x_functionsquare_rootat0x10e66aca0_64&#45;&gt;assertion_functionsquare_rootat0x10e66aca0_63</title>
<path fill="none" stroke="black" d="M273.48,-547.07C350.16,-537.38 504.12,-504.97 504.12,-401 504.12,-401 504.12,-401 504.12,-247 504.12,-205.41 509.9,-157.66 514.29,-127.42"/>
<polygon fill="black" stroke="black" points="517.7,-128.26 515.72,-117.85 510.78,-127.22 517.7,-128.26"/>
</g>
<!-- approx_functionsquare_rootat0x10e66aca0_60 -->
<g id="node5" class="node">
<title>approx_functionsquare_rootat0x10e66aca0_60</title>
<g id="a_node5"><a xlink:title="square_root:60">
<polygon fill="peachpuff" stroke="black" points="229.88,-268 140.38,-268 140.38,-228 229.88,-228 229.88,-268"/>
<text xml:space="preserve" text-anchor="start" x="160.38" y="-251.7" font-family="Courier,monospace" font-weight="bold" font-size="14.00">approx</text>
<text xml:space="preserve" text-anchor="start" x="148.38" y="-233.45" font-family="Courier,monospace" font-size="9.00">approx = guess</text>
</a>
</g>
</g>
<!-- guess_functionsquare_rootat0x10e66aca0_58&#45;&gt;approx_functionsquare_rootat0x10e66aca0_60 -->
<g id="edge4" class="edge">
<title>guess_functionsquare_rootat0x10e66aca0_58&#45;&gt;approx_functionsquare_rootat0x10e66aca0_60</title>
<path fill="none" stroke="black" d="M106.98,-303.56C119.63,-294.72 134.79,-284.14 148.36,-274.66"/>
<polygon fill="black" stroke="black" points="150.02,-277.77 156.22,-269.18 146.02,-272.03 150.02,-277.77"/>
</g>
<!-- test_functionsquare_rootat0x10e66aca0_59 -->
<g id="node7" class="node">
<title>test_functionsquare_rootat0x10e66aca0_59</title>
<g id="a_node7"><a xlink:title="square_root:59">
<polygon fill="peachpuff" stroke="black" points="182.88,-116 51.38,-116 51.38,-76 182.88,-76 182.88,-116"/>
<text xml:space="preserve" text-anchor="start" x="92.38" y="-99.7" font-family="Courier,monospace" font-weight="bold" font-style="italic" font-size="14.00">&lt;test&gt;</text>
<text xml:space="preserve" text-anchor="start" x="59.38" y="-81.45" font-family="Courier,monospace" font-size="9.00">while approx != guess:</text>
</a>
</g>
</g>
<!-- guess_functionsquare_rootat0x10e66aca0_58&#45;&gt;test_functionsquare_rootat0x10e66aca0_59 -->
<g id="edge12" class="edge">
<title>guess_functionsquare_rootat0x10e66aca0_58&#45;&gt;test_functionsquare_rootat0x10e66aca0_59</title>
<path fill="none" stroke="black" d="M78.39,-303.73C81.6,-264.37 96.45,-174.47 107.26,-127.25"/>
<polygon fill="black" stroke="black" points="110.63,-128.23 109.56,-117.69 103.82,-126.6 110.63,-128.23"/>
</g>
<!-- guess_functionsquare_rootat0x10e66aca0_58&#45;&gt;test_functionsquare_rootat0x10e66aca0_59 -->
<!-- square_rootreturnvalue_functionsquare_rootat0x10e66aca0_64 -->
<g id="node4" class="node">
<title>square_rootreturnvalue_functionsquare_rootat0x10e66aca0_64</title>
<g id="a_node4"><a xlink:title="square_root:64">
<polygon fill="peachpuff" stroke="black" points="573.62,-40 326.62,-40 326.62,0 573.62,0 573.62,-40"/>
<text xml:space="preserve" text-anchor="start" x="334.62" y="-23.7" font-family="Courier,monospace" font-weight="bold" font-style="italic" font-size="14.00">&lt;square_root() return value&gt;</text>
<text xml:space="preserve" text-anchor="start" x="416" y="-5.45" font-family="Courier,monospace" font-size="9.00">return approx</text>
</a>
</g>
</g>
<!-- approx_functionsquare_rootat0x10e66aca0_60&#45;&gt;square_rootreturnvalue_functionsquare_rootat0x10e66aca0_64 -->
<g id="edge3" class="edge">
<title>approx_functionsquare_rootat0x10e66aca0_60&#45;&gt;square_rootreturnvalue_functionsquare_rootat0x10e66aca0_64</title>
<path fill="none" stroke="black" d="M230.22,-244.32C269.94,-239.61 326.82,-226.77 362.12,-192 400.78,-153.93 372.83,-122.89 400.12,-76 405.76,-66.32 413.33,-56.87 420.87,-48.62"/>
<polygon fill="black" stroke="black" points="423.21,-51.24 427.58,-41.59 418.15,-46.4 423.21,-51.24"/>
</g>
<!-- approx_functionsquare_rootat0x10e66aca0_60&#45;&gt;guess_functionsquare_rootat0x10e66aca0_61 -->
<g id="edge9" class="edge">
<title>approx_functionsquare_rootat0x10e66aca0_60&#45;&gt;guess_functionsquare_rootat0x10e66aca0_61</title>
<path fill="none" stroke="black" d="M192.26,-227.56C199.12,-219.06 208.76,-208.95 218.69,-199.76"/>
<polygon fill="black" stroke="black" points="220.79,-202.59 225.92,-193.32 216.13,-197.36 220.79,-202.59"/>
</g>
<!-- approx_functionsquare_rootat0x10e66aca0_60&#45;&gt;guess_functionsquare_rootat0x10e66aca0_61 -->
<!-- approx_functionsquare_rootat0x10e66aca0_60&#45;&gt;test_functionsquare_rootat0x10e66aca0_59 -->
<g id="edge15" class="edge">
<title>approx_functionsquare_rootat0x10e66aca0_60&#45;&gt;test_functionsquare_rootat0x10e66aca0_59</title>
<path fill="none" stroke="black" d="M157.19,-227.5C149.16,-217.14 141.85,-204.09 136.12,-192 126.13,-170.9 116.62,-146.33 112.2,-127.47"/>
<polygon fill="black" stroke="black" points="115.66,-126.94 110.39,-117.75 108.78,-128.22 115.66,-126.94"/>
</g>
<!-- approx_functionsquare_rootat0x10e66aca0_60&#45;&gt;assertion_functionsquare_rootat0x10e66aca0_63 -->
<g id="edge7" class="edge">
<title>approx_functionsquare_rootat0x10e66aca0_60&#45;&gt;assertion_functionsquare_rootat0x10e66aca0_63</title>
<path fill="none" stroke="black" d="M230.37,-240.49C274.18,-232.98 341.63,-218.17 395.12,-192 431.36,-174.28 467.35,-145.08 491.14,-123.72"/>
<polygon fill="black" stroke="black" points="493.19,-126.59 498.22,-117.27 488.47,-121.42 493.19,-126.59"/>
</g>
<!-- guess_functionsquare_rootat0x10e66aca0_61&#45;&gt;approx_functionsquare_rootat0x10e66aca0_60 -->
<g id="edge5" class="edge">
<title>guess_functionsquare_rootat0x10e66aca0_61&#45;&gt;approx_functionsquare_rootat0x10e66aca0_60</title>
<path fill="none" stroke="black" d="M239.07,-192.31C230.87,-200.62 221.14,-210.49 212.21,-219.54"/>
<polygon fill="black" stroke="black" points="209.9,-216.9 205.37,-226.48 214.88,-221.82 209.9,-216.9"/>
</g>
<!-- guess_functionsquare_rootat0x10e66aca0_61&#45;&gt;test_functionsquare_rootat0x10e66aca0_59 -->
<g id="edge14" class="edge">
<title>guess_functionsquare_rootat0x10e66aca0_61&#45;&gt;test_functionsquare_rootat0x10e66aca0_59</title>
<path fill="none" stroke="black" d="M215.06,-151.56C196.83,-142.42 175.76,-131.43 157.8,-121.71"/>
<polygon fill="black" stroke="black" points="159.7,-118.76 149.24,-117.04 156.34,-124.9 159.7,-118.76"/>
</g>
<!-- guess_functionsquare_rootat0x10e66aca0_61&#45;&gt;assertion_functionsquare_rootat0x10e66aca0_63 -->
<!-- test_functionsquare_rootat0x10e66aca0_59&#45;&gt;approx_functionsquare_rootat0x10e66aca0_60 -->
<g id="edge6" class="edge">
<title>test_functionsquare_rootat0x10e66aca0_59&#45;&gt;approx_functionsquare_rootat0x10e66aca0_60</title>
<path fill="none" stroke="grey" stroke-dasharray="5,2" d="M123.72,-116.26C130.58,-135.69 142,-166.41 154.12,-192 158.15,-200.5 162.96,-209.48 167.57,-217.66"/>
<polygon fill="grey" stroke="grey" points="164.46,-219.27 172.49,-226.19 170.53,-215.78 164.46,-219.27"/>
</g>
<!-- test_functionsquare_rootat0x10e66aca0_59&#45;&gt;approx_functionsquare_rootat0x10e66aca0_60 -->
<!-- test_functionsquare_rootat0x10e66aca0_59&#45;&gt;guess_functionsquare_rootat0x10e66aca0_61 -->
<g id="edge11" class="edge">
<title>test_functionsquare_rootat0x10e66aca0_59&#45;&gt;guess_functionsquare_rootat0x10e66aca0_61</title>
<path fill="none" stroke="grey" stroke-dasharray="5,2" d="M160.19,-116.44C178.34,-125.54 199.32,-136.48 217.23,-146.17"/>
<polygon fill="grey" stroke="grey" points="215.32,-149.12 225.77,-150.83 218.67,-142.97 215.32,-149.12"/>
</g>
<!-- assertion_functionsquare_rootat0x10e66aca0_63&#45;&gt;square_rootreturnvalue_functionsquare_rootat0x10e66aca0_64 -->
<!-- approx_functionsquare_rootat0x10e66aca0_57&#45;&gt;guess_functionsquare_rootat0x10e66aca0_58 -->
<!-- approx_functionsquare_rootat0x10e66aca0_57&#45;&gt;test_functionsquare_rootat0x10e66aca0_59 -->
<g id="edge13" class="edge">
<title>approx_functionsquare_rootat0x10e66aca0_57&#45;&gt;test_functionsquare_rootat0x10e66aca0_59</title>
<path fill="none" stroke="black" d="M54.19,-379.51C44.07,-370.02 33.5,-357.7 28.12,-344 21.63,-327.45 24.54,-321.41 28.12,-304 41.92,-237 78.4,-164.94 100.13,-126"/>
<polygon fill="black" stroke="black" points="102.95,-128.13 104.83,-117.7 96.86,-124.68 102.95,-128.13"/>
</g>
</g>
</svg>