<?xml version="1.0" encoding="UTF-8" standalone="no"?>
<!DOCTYPE svg PUBLIC "-//W3C//DTD SVG 1.1//EN"
 "http://www.w3.org/Graphics/SVG/1.1/DTD/svg11.dtd">
<!-- Generated by graphviz version 14.0.2 (20251019.1705)
 -->
<!-- Title: dependencies Pages: 1 -->
<svg width="496pt" height="808pt"
 viewBox="0.00 0.00 496.00 808.00" xmlns="http://www.w3.org/2000/svg" xmlns:xlink="http://www.w3.org/1999/xlink">
<g id="graph0" class="graph" transform="scale(1 1) rotate(0) translate(4 804)">
<title>dependencies</title>
<polygon fill="white" stroke="none" points="-4,4 -4,-804 491.88,-804 491.88,4 -4,4"/>
<!-- x_functioncall_testlocalsjust_xat0x10e60ea20_11 -->
<g id="node1" class="node">
<title>x_functioncall_testlocalsjust_xat0x10e60ea20_11</title>
<g id="a_node1"><a xlink:title="just_x:11">
<polygon fill="peachpuff" stroke="black" points="131.88,-420 73.88,-420 73.88,-380 131.88,-380 131.88,-420"/>
<text xml:space="preserve" text-anchor="start" x="98.75" y="-403.7" font-family="Courier,monospace" font-weight="bold" font-size="14.00">x</text>
<text xml:space="preserve" text-anchor="start" x="81.88" y="-385.45" font-family="Courier,monospace" font-size="9.00">return x</text>
</a>
</g>
</g>
<!-- just_xreturnvalue_functioncall_testlocalsjust_xat0x10e60ea20_11 -->
<g id="node2" class="node">
<title>just_xreturnvalue_functioncall_testlocalsjust_xat0x10e60ea20_11</title>
<g id="a_node2"><a xlink:title="just_x:11">
<polygon fill="peachpuff" stroke="black" points="205.75,-344 0,-344 0,-304 205.75,-304 205.75,-344"/>
<text xml:space="preserve" text-anchor="start" x="8" y="-327.7" font-family="Courier,monospace" font-weight="bold" font-style="italic" font-size="14.00">&lt;just_x() return value&gt;</text>
<text xml:space="preserve" text-anchor="start" x="81.88" y="-309.45" font-family="Courier,monospace" font-size="9.00">return x</text>
</a>
</g>
</g>
<!-- x_functioncall_testlocalsjust_xat0x10e60ea20_11&#45;&gt;just_xreturnvalue_functioncall_testlocalsjust_xat0x10e60ea20_11 -->
<g id="edge6" class="edge">
<title>x_functioncall_testlocalsjust_xat0x10e60ea20_11&#45;&gt;just_xreturnvalue_functioncall_testlocalsjust_xat0x10e60ea20_11</title>
<path fill="none" stroke="black" d="M96.85,-379.56C96.2,-372.25 95.99,-363.75 96.21,-355.67"/>
<polygon fill="black" stroke="black" points="99.7,-356.01 96.78,-345.82 92.71,-355.61 99.7,-356.01"/>
</g>
<!-- just_xreturnvalue_functioncall_testlocalsjust_xat0x10e60ea20_11&#45;&gt;x_functioncall_testlocalsjust_xat0x10e60ea20_11 -->
<g id="edge1" class="edge">
<title>just_xreturnvalue_functioncall_testlocalsjust_xat0x10e60ea20_11&#45;&gt;x_functioncall_testlocalsjust_xat0x10e60ea20_11</title>
<path fill="none" stroke="black" d="M108.89,-344.31C109.55,-351.61 109.76,-360.1 109.54,-368.19"/>
<polygon fill="black" stroke="black" points="106.05,-367.86 108.98,-378.05 113.04,-368.26 106.05,-367.86"/>
</g>
<!-- call_testreturnvalue_functioncall_testat0x10e60e7a0_20 -->
<g id="node12" class="node">
<title>call_testreturnvalue_functioncall_testat0x10e60e7a0_20</title>
<g id="a_node12"><a xlink:title="call_test:20">
<polygon fill="peachpuff" stroke="black" points="349.12,-40 118.62,-40 118.62,0 349.12,0 349.12,-40"/>
<text xml:space="preserve" text-anchor="start" x="126.62" y="-23.7" font-family="Courier,monospace" font-weight="bold" font-style="italic" font-size="14.00">&lt;call_test() return value&gt;</text>
<text xml:space="preserve" text-anchor="start" x="139.38" y="-5.45" font-family="Courier,monospace" font-size="9.00">return just_x(just_x(d, y=b), ys[0])</text>
</a>
</g>
</g>
<!-- just_xreturnvalue_functioncall_testlocalsjust_xat0x10e60ea20_11&#45;&gt;call_testreturnvalue_functioncall_testat0x10e60e7a0_20 -->
<g id="edge9" class="edge">
<title>just_xreturnvalue_functioncall_testlocalsjust_xat0x10e60ea20_11&#45;&gt;call_testreturnvalue_functioncall_testat0x10e60e7a0_20</title>
<path fill="none" stroke="black" d="M106.31,-303.67C112.47,-271.34 126.93,-204.64 149.88,-152 165.74,-115.59 175.34,-109.37 196.88,-76 202.39,-67.45 208.51,-58.25 214.16,-49.86"/>
<polygon fill="black" stroke="black" points="216.95,-51.98 219.66,-41.73 211.15,-48.05 216.95,-51.98"/>
</g>
<!-- d_functioncall_testat0x10e60e7a0_15 -->
<g id="node3" class="node">
<title>d_functioncall_testat0x10e60e7a0_15</title>
<g id="a_node3"><a xlink:title="call_test:15">
<polygon fill="peachpuff" stroke="black" points="386.62,-496 297.12,-496 297.12,-456 386.62,-456 386.62,-496"/>
<text xml:space="preserve" text-anchor="start" x="337.75" y="-479.7" font-family="Courier,monospace" font-weight="bold" font-size="14.00">d</text>
<text xml:space="preserve" text-anchor="start" x="305.12" y="-461.45" font-family="Courier,monospace" font-size="9.00">d = list(b)[0]</text>
</a>
</g>
</g>
<!-- d_functioncall_testat0x10e60e7a0_15&#45;&gt;x_functioncall_testlocalsjust_xat0x10e60ea20_11 -->
<g id="edge2" class="edge">
<title>d_functioncall_testat0x10e60e7a0_15&#45;&gt;x_functioncall_testlocalsjust_xat0x10e60ea20_11</title>
<path fill="none" stroke="black" d="M296.64,-460.99C252.29,-447.26 185.33,-426.53 142.88,-413.39"/>
<polygon fill="black" stroke="black" points="144.15,-410.12 133.56,-410.5 142.08,-416.8 144.15,-410.12"/>
</g>
<!-- xs_functioncall_testat0x10e60e7a0_17 -->
<g id="node11" class="node">
<title>xs_functioncall_testat0x10e60e7a0_17</title>
<g id="a_node11"><a xlink:title="call_test:17">
<polygon fill="peachpuff" stroke="black" points="394.5,-420 289.25,-420 289.25,-380 394.5,-380 394.5,-420"/>
<text xml:space="preserve" text-anchor="start" x="333.62" y="-403.7" font-family="Courier,monospace" font-weight="bold" font-size="14.00">xs</text>
<text xml:space="preserve" text-anchor="start" x="297.25" y="-385.45" font-family="Courier,monospace" font-size="9.00">xs = [1, 2, 3, 4]</text>
</a>
</g>
</g>
<!-- d_functioncall_testat0x10e60e7a0_15&#45;&gt;xs_functioncall_testat0x10e60e7a0_17 -->
<!-- sqreturnvalue_functioncall_testlocalssqat0x10e60e5c0_5 -->
<g id="node4" class="node">
<title>sqreturnvalue_functioncall_testlocalssqat0x10e60e5c0_5</title>
<g id="a_node4"><a xlink:title="sq:5">
<polygon fill="peachpuff" stroke="black" points="331.25,-192 158.5,-192 158.5,-152 331.25,-152 331.25,-192"/>
<text xml:space="preserve" text-anchor="start" x="166.5" y="-175.7" font-family="Courier,monospace" font-weight="bold" font-style="italic" font-size="14.00">&lt;sq() return value&gt;</text>
<text xml:space="preserve" text-anchor="start" x="213.38" y="-157.45" font-family="Courier,monospace" font-size="9.00">return n * n</text>
</a>
</g>
</g>
<!-- ys_functioncall_testat0x10e60e7a0_18 -->
<g id="node15" class="node">
<title>ys_functioncall_testat0x10e60e7a0_18</title>
<g id="a_node15"><a xlink:title="call_test:18">
<polygon fill="peachpuff" stroke="black" points="442.12,-116 205.62,-116 205.62,-76 442.12,-76 442.12,-116"/>
<text xml:space="preserve" text-anchor="start" x="315.62" y="-99.7" font-family="Courier,monospace" font-weight="bold" font-size="14.00">ys</text>
<text xml:space="preserve" text-anchor="start" x="213.62" y="-81.45" font-family="Courier,monospace" font-size="9.00">ys = [sq(elem) for elem in xs if elem &gt; 2]</text>
</a>
</g>
</g>
<!-- sqreturnvalue_functioncall_testlocalssqat0x10e60e5c0_5&#45;&gt;ys_functioncall_testat0x10e60e7a0_18 -->
<g id="edge15" class="edge">
<title>sqreturnvalue_functioncall_testlocalssqat0x10e60e5c0_5&#45;&gt;ys_functioncall_testat0x10e60e7a0_18</title>
<path fill="none" stroke="black" d="M265.63,-151.56C274.61,-143.14 285.28,-133.16 295.01,-124.04"/>
<polygon fill="black" stroke="black" points="297.25,-126.74 302.15,-117.35 292.46,-121.63 297.25,-126.74"/>
</g>
<!-- n_functioncall_testlocalssqat0x10e60e5c0_5 -->
<g id="node5" class="node">
<title>n_functioncall_testlocalssqat0x10e60e5c0_5</title>
<g id="a_node5"><a xlink:title="sq:5">
<polygon fill="peachpuff" stroke="black" points="307.38,-268 228.38,-268 228.38,-228 307.38,-228 307.38,-268"/>
<text xml:space="preserve" text-anchor="start" x="263.75" y="-251.7" font-family="Courier,monospace" font-weight="bold" font-size="14.00">n</text>
<text xml:space="preserve" text-anchor="start" x="236.38" y="-233.45" font-family="Courier,monospace" font-size="9.00">return n * n</text>
</a>
</g>
</g>
<!-- n_functioncall_testlocalssqat0x10e60e5c0_5&#45;&gt;sqreturnvalue_functioncall_testlocalssqat0x10e60e5c0_5 -->
<g id="edge3" class="edge">
<title>n_functioncall_testlocalssqat0x10e60e5c0_5&#45;&gt;sqreturnvalue_functioncall_testlocalssqat0x10e60e5c0_5</title>
<path fill="none" stroke="black" d="M261.83,-227.56C259.51,-220.08 256.8,-211.36 254.23,-203.11"/>
<polygon fill="black" stroke="black" points="257.64,-202.27 251.33,-193.76 250.95,-204.35 257.64,-202.27"/>
</g>
<!-- genyieldvalue_functioncall_testlocalsgenat0x10e60e980_8 -->
<g id="node6" class="node">
<title>genyieldvalue_functioncall_testlocalsgenat0x10e60e980_8</title>
<g id="a_node6"><a xlink:title="gen:8">
<polygon fill="peachpuff" stroke="black" points="359.25,-572 186.5,-572 186.5,-532 359.25,-532 359.25,-572"/>
<text xml:space="preserve" text-anchor="start" x="194.5" y="-555.7" font-family="Courier,monospace" font-weight="bold" font-style="italic" font-size="14.00">&lt;gen() yield value&gt;</text>
<text xml:space="preserve" text-anchor="start" x="244" y="-537.45" font-family="Courier,monospace" font-size="9.00">yield e * c</text>
</a>
</g>
</g>
<!-- genyieldvalue_functioncall_testlocalsgenat0x10e60e980_8&#45;&gt;d_functioncall_testat0x10e60e7a0_15 -->
<g id="edge16" class="edge">
<title>genyieldvalue_functioncall_testlocalsgenat0x10e60e980_8&#45;&gt;d_functioncall_testat0x10e60e7a0_15</title>
<path fill="none" stroke="black" d="M291,-531.56C298.69,-523.31 307.79,-513.56 316.15,-504.59"/>
<polygon fill="black" stroke="black" points="318.58,-507.12 322.83,-497.42 313.46,-502.35 318.58,-507.12"/>
</g>
<!-- c_functioncall_testat0x10e60e7a0_2 -->
<g id="node7" class="node">
<title>c_functioncall_testat0x10e60e7a0_2</title>
<g id="a_node7"><a xlink:title="call_test:2">
<polygon fill="peachpuff" stroke="black" points="331.88,-800 277.88,-800 277.88,-760 331.88,-760 331.88,-800"/>
<text xml:space="preserve" text-anchor="start" x="300.75" y="-783.7" font-family="Courier,monospace" font-weight="bold" font-size="14.00">c</text>
<text xml:space="preserve" text-anchor="start" x="289.12" y="-765.45" font-family="Courier,monospace" font-size="9.00">c = 47</text>
</a>
</g>
</g>
<!-- c_functioncall_testat0x10e60e7a0_2&#45;&gt;genyieldvalue_functioncall_testlocalsgenat0x10e60e980_8 -->
<g id="edge4" class="edge">
<title>c_functioncall_testat0x10e60e7a0_2&#45;&gt;genyieldvalue_functioncall_testlocalsgenat0x10e60e980_8</title>
<path fill="none" stroke="black" d="M302.15,-759.73C296.59,-720.45 283.9,-630.85 277.2,-583.55"/>
<polygon fill="black" stroke="black" points="280.68,-583.13 275.81,-573.72 273.75,-584.11 280.68,-583.13"/>
</g>
<!-- a_functioncall_testat0x10e60e7a0_13 -->
<g id="node9" class="node">
<title>a_functioncall_testat0x10e60e7a0_13</title>
<g id="a_node9"><a xlink:title="call_test:13">
<polygon fill="peachpuff" stroke="black" points="401.88,-724 347.88,-724 347.88,-684 401.88,-684 401.88,-724"/>
<text xml:space="preserve" text-anchor="start" x="370.75" y="-707.7" font-family="Courier,monospace" font-weight="bold" font-size="14.00">a</text>
<text xml:space="preserve" text-anchor="start" x="359.12" y="-689.45" font-family="Courier,monospace" font-size="9.00">a = 42</text>
</a>
</g>
</g>
<!-- c_functioncall_testat0x10e60e7a0_2&#45;&gt;a_functioncall_testat0x10e60e7a0_13 -->
<!-- e_functioncall_testlocalsgenat0x10e60e980_8 -->
<g id="node8" class="node">
<title>e_functioncall_testlocalsgenat0x10e60e980_8</title>
<g id="a_node8"><a xlink:title="gen:8">
<polygon fill="peachpuff" stroke="black" points="374.75,-648 301,-648 301,-608 374.75,-608 374.75,-648"/>
<text xml:space="preserve" text-anchor="start" x="333.75" y="-631.7" font-family="Courier,monospace" font-weight="bold" font-size="14.00">e</text>
<text xml:space="preserve" text-anchor="start" x="309" y="-613.45" font-family="Courier,monospace" font-size="9.00">yield e * c</text>
</a>
</g>
</g>
<!-- e_functioncall_testlocalsgenat0x10e60e980_8&#45;&gt;genyieldvalue_functioncall_testlocalsgenat0x10e60e980_8 -->
<g id="edge5" class="edge">
<title>e_functioncall_testlocalsgenat0x10e60e980_8&#45;&gt;genyieldvalue_functioncall_testlocalsgenat0x10e60e980_8</title>
<path fill="none" stroke="black" d="M320.8,-607.56C313.63,-599.4 305.16,-589.76 297.36,-580.87"/>
<polygon fill="black" stroke="black" points="300.07,-578.65 290.84,-573.45 294.81,-583.27 300.07,-578.65"/>
</g>
<!-- a_functioncall_testat0x10e60e7a0_13&#45;&gt;e_functioncall_testlocalsgenat0x10e60e980_8 -->
<g id="edge7" class="edge">
<title>a_functioncall_testat0x10e60e7a0_13&#45;&gt;e_functioncall_testlocalsgenat0x10e60e980_8</title>
<path fill="none" stroke="black" d="M365.15,-683.56C361.33,-675.91 356.85,-666.96 352.65,-658.55"/>
<polygon fill="black" stroke="black" points="355.81,-657.05 348.21,-649.67 349.55,-660.18 355.81,-657.05"/>
</g>
<!-- b_functioncall_testat0x10e60e7a0_14 -->
<g id="node13" class="node">
<title>b_functioncall_testat0x10e60e7a0_14</title>
<g id="a_node13"><a xlink:title="call_test:14">
<polygon fill="peachpuff" stroke="black" points="446.12,-572 377.62,-572 377.62,-532 446.12,-532 446.12,-572"/>
<text xml:space="preserve" text-anchor="start" x="407.75" y="-555.7" font-family="Courier,monospace" font-weight="bold" font-size="14.00">b</text>
<text xml:space="preserve" text-anchor="start" x="385.62" y="-537.45" font-family="Courier,monospace" font-size="9.00">b = gen(a)</text>
</a>
</g>
</g>
<!-- a_functioncall_testat0x10e60e7a0_13&#45;&gt;b_functioncall_testat0x10e60e7a0_14 -->
<g id="edge10" class="edge">
<title>a_functioncall_testat0x10e60e7a0_13&#45;&gt;b_functioncall_testat0x10e60e7a0_14</title>
<path fill="none" stroke="black" d="M374.93,-683.7C378.81,-658.16 389.71,-612.88 398.98,-582.9"/>
<polygon fill="black" stroke="black" points="402.22,-584.26 401.97,-573.67 395.56,-582.1 402.22,-584.26"/>
</g>
<!-- a_functioncall_testat0x10e60e7a0_13&#45;&gt;b_functioncall_testat0x10e60e7a0_14 -->
<!-- elem_functioncall_testat0x10e60e7a0_18 -->
<g id="node10" class="node">
<title>elem_functioncall_testat0x10e60e7a0_18</title>
<g id="a_node10"><a xlink:title="call_test:18">
<polygon fill="peachpuff" stroke="black" points="460.12,-344 223.62,-344 223.62,-304 460.12,-304 460.12,-344"/>
<text xml:space="preserve" text-anchor="start" x="325.38" y="-327.7" font-family="Courier,monospace" font-weight="bold" font-size="14.00">elem</text>
<text xml:space="preserve" text-anchor="start" x="231.62" y="-309.45" font-family="Courier,monospace" font-size="9.00">ys = [sq(elem) for elem in xs if elem &gt; 2]</text>
</a>
</g>
</g>
<!-- elem_functioncall_testat0x10e60e7a0_18&#45;&gt;n_functioncall_testlocalssqat0x10e60e5c0_5 -->
<g id="edge13" class="edge">
<title>elem_functioncall_testat0x10e60e7a0_18&#45;&gt;n_functioncall_testlocalssqat0x10e60e5c0_5</title>
<path fill="none" stroke="black" d="M322.43,-303.56C314.1,-295.23 304.23,-285.36 295.19,-276.32"/>
<polygon fill="black" stroke="black" points="297.8,-273.98 288.26,-269.38 292.85,-278.93 297.8,-273.98"/>
</g>
<!-- elem_functioncall_testat0x10e60e7a0_18&#45;&gt;ys_functioncall_testat0x10e60e7a0_18 -->
<g id="edge14" class="edge">
<title>elem_functioncall_testat0x10e60e7a0_18&#45;&gt;ys_functioncall_testat0x10e60e7a0_18</title>
<path fill="none" stroke="black" d="M343.34,-303.63C345.38,-271.79 347.96,-206.48 339.88,-152 338.65,-143.78 336.52,-135.06 334.21,-127.05"/>
<polygon fill="black" stroke="black" points="337.64,-126.28 331.34,-117.76 330.95,-128.35 337.64,-126.28"/>
</g>
<!-- xs_functioncall_testat0x10e60e7a0_17&#45;&gt;elem_functioncall_testat0x10e60e7a0_18 -->
<g id="edge8" class="edge">
<title>xs_functioncall_testat0x10e60e7a0_17&#45;&gt;elem_functioncall_testat0x10e60e7a0_18</title>
<path fill="none" stroke="black" d="M335.85,-379.56C335.2,-372.25 334.99,-363.75 335.21,-355.67"/>
<polygon fill="black" stroke="black" points="338.7,-356.01 335.78,-345.82 331.71,-355.61 338.7,-356.01"/>
</g>
<!-- xs_functioncall_testat0x10e60e7a0_17&#45;&gt;elem_functioncall_testat0x10e60e7a0_18 -->
<!-- b_functioncall_testat0x10e60e7a0_14&#45;&gt;d_functioncall_testat0x10e60e7a0_15 -->
<g id="edge17" class="edge">
<title>b_functioncall_testat0x10e60e7a0_14&#45;&gt;d_functioncall_testat0x10e60e7a0_15</title>
<path fill="none" stroke="black" d="M387.46,-531.56C379.01,-523.4 369.71,-513.76 361.67,-504.87"/>
<polygon fill="black" stroke="black" points="364.37,-502.64 355.13,-497.45 359.12,-507.26 364.37,-502.64"/>
</g>
<!-- b_functioncall_testat0x10e60e7a0_14&#45;&gt;d_functioncall_testat0x10e60e7a0_15 -->
<!-- y_functioncall_testlocalsjust_xat0x10e60ea20_11 -->
<g id="node14" class="node">
<title>y_functioncall_testlocalsjust_xat0x10e60ea20_11</title>
<g id="a_node14"><a xlink:title="just_x:11">
<polygon fill="peachpuff" stroke="black" points="442.88,-40 384.88,-40 384.88,0 442.88,0 442.88,-40"/>
<text xml:space="preserve" text-anchor="start" x="409.75" y="-23.7" font-family="Courier,monospace" font-weight="bold" font-size="14.00">y</text>
<text xml:space="preserve" text-anchor="start" x="392.88" y="-5.45" font-family="Courier,monospace" font-size="9.00">return x</text>
</a>
</g>
</g>
<!-- b_functioncall_testat0x10e60e7a0_14&#45;&gt;y_functioncall_testlocalsjust_xat0x10e60ea20_11 -->
<g id="edge12" class="edge">
<title>b_functioncall_testat0x10e60e7a0_14&#45;&gt;y_functioncall_testlocalsjust_xat0x10e60ea20_11</title>
<path fill="none" stroke="black" d="M429.12,-531.73C451.54,-504.6 487.88,-452.67 487.88,-401 487.88,-401 487.88,-401 487.88,-171 487.88,-124.82 459.32,-78.13 437.69,-49.39"/>
<polygon fill="black" stroke="black" points="440.5,-47.3 431.6,-41.55 434.97,-51.59 440.5,-47.3"/>
</g>
<!-- ys_functioncall_testat0x10e60e7a0_18&#45;&gt;call_testreturnvalue_functioncall_testat0x10e60e7a0_20 -->
<!-- ys_functioncall_testat0x10e60e7a0_18&#45;&gt;y_functioncall_testlocalsjust_xat0x10e60ea20_11 -->
<g id="edge11" class="edge">
<title>ys_functioncall_testat0x10e60e7a0_18&#45;&gt;y_functioncall_testlocalsjust_xat0x10e60ea20_11</title>
<path fill="none" stroke="black" d="M347.52,-75.56C357.96,-66.97 370.39,-56.75 381.66,-47.49"/>
<polygon fill="black" stroke="black" points="383.72,-50.33 389.22,-41.27 379.27,-44.92 383.72,-50.33"/>
</g>
</g>
</svg>