<?xml version="1.0" encoding="UTF-8" standalone="no"?>
<!DOCTYPE svg PUBLIC "-//W3C//DTD SVG 1.1//EN"
 "http://www.w3.org/Graphics/SVG/1.1/DTD/svg11.dtd">
<!-- Generated by graphviz version 14.0.2 (20251019.1705)
 -->
<!-- Pages: 1 -->
<svg width="281pt" height="132pt"
 viewBox="0.00 0.00 281.00 132.00" xmlns="http://www.w3.org/2000/svg" xmlns:xlink="http://www.w3.org/1999/xlink">
<g id="graph0" class="graph" transform="scale(1 1) rotate(0) translate(4 127.75)">
<polygon fill="white" stroke="none" points="-4,4 -4,-127.75 277.03,-127.75 277.03,4 -4,4"/>
<!-- Start -->
<g id="node1" class="node">
<title>Start</title>
<ellipse fill="peachpuff" stroke="black" cx="32.27" cy="-53.25" rx="32.27" ry="18"/>
<text xml:space="preserve" text-anchor="middle" x="32.27" y="-48.58" font-family="Raleway" font-size="14.00">Start</text>
</g>
<!-- ¬ tag -->
<g id="node2" class="node">
<title>¬ tag</title>
<ellipse fill="peachpuff" stroke="black" cx="135.91" cy="-53.25" rx="34.37" ry="18"/>
<text xml:space="preserve" text-anchor="middle" x="135.91" y="-48.58" font-family="Raleway" font-size="14.00">¬ tag</text>
</g>
<!-- Start&#45;&gt;¬ tag -->
<g id="edge1" class="edge">
<title>Start&#45;&gt;¬ tag</title>
<path fill="none" stroke="black" d="M64.87,-53.25C72.8,-53.25 81.47,-53.25 89.92,-53.25"/>
<polygon fill="black" stroke="black" points="89.7,-56.75 99.7,-53.25 89.7,-49.75 89.7,-56.75"/>
</g>
<!-- ¬ tag&#45;&gt;¬ tag -->
<g id="edge2" class="edge">
<title>¬ tag&#45;&gt;¬ tag</title>
<path fill="none" stroke="black" d="M126.4,-71.03C124.79,-80.56 127.96,-89.25 135.91,-89.25 140.38,-89.25 143.34,-86.5 144.79,-82.4"/>
<polygon fill="black" stroke="black" points="148.27,-82.72 145.33,-72.54 141.28,-82.34 148.27,-82.72"/>
<text xml:space="preserve" text-anchor="middle" x="135.91" y="-110.45" font-family="Raleway" font-size="14.00"> ¬ &#39;&lt;&#39;</text>
<text xml:space="preserve" text-anchor="middle" x="135.91" y="-93.2" font-family="Raleway" font-size="14.00">add character</text>
</g>
<!-- ¬ tag&#45;&gt;¬ tag -->
<g id="edge3" class="edge">
<title>¬ tag:s&#45;&gt;¬ tag</title>
<path fill="none" stroke="black" d="M135.91,-34.99C122.69,-29.25 122.69,-17.25 135.91,-17.25 140.38,-17.25 143.34,-20 144.79,-24.1"/>
<polygon fill="black" stroke="black" points="141.28,-24.16 145.33,-33.96 148.27,-23.78 141.28,-24.16"/>
<text xml:space="preserve" text-anchor="middle" x="135.91" y="-3.95" font-family="Raleway" font-size="14.00">&#39;&gt;&#39;</text>
</g>
<!-- tag -->
<g id="node3" class="node">
<title>tag</title>
<ellipse fill="peachpuff" stroke="black" cx="246.03" cy="-53.25" rx="27" ry="18"/>
<text xml:space="preserve" text-anchor="middle" x="246.03" y="-48.58" font-family="Raleway" font-size="14.00">tag</text>
</g>
<!-- ¬ tag&#45;&gt;tag -->
<g id="edge4" class="edge">
<title>¬ tag&#45;&gt;tag</title>
<path fill="none" stroke="black" d="M170.53,-53.25C182.15,-53.25 195.25,-53.25 207.19,-53.25"/>
<polygon fill="black" stroke="black" points="207.13,-56.75 217.13,-53.25 207.13,-49.75 207.13,-56.75"/>
<text xml:space="preserve" text-anchor="middle" x="194.66" y="-57.2" font-family="Raleway" font-size="14.00">&#39;&lt;&#39;</text>
</g>
<!-- tag&#45;&gt;¬ tag -->
<g id="edge5" class="edge">
<title>tag&#45;&gt;¬ tag</title>
<path fill="none" stroke="black" d="M225.14,-41.3C217.82,-37.55 209.3,-33.89 201.03,-32 190.62,-29.62 179.5,-31.62 169.5,-35.19"/>
<polygon fill="black" stroke="black" points="168.42,-31.84 160.56,-38.95 171.13,-38.3 168.42,-31.84"/>
<text xml:space="preserve" text-anchor="middle" x="194.66" y="-35.95" font-family="Raleway" font-size="14.00">&#39;&gt;&#39;</text>
</g>
<!-- tag&#45;&gt;tag -->
<g id="edge6" class="edge">
<title>tag&#45;&gt;tag</title>
<path fill="none" stroke="black" d="M236.86,-70.66C235.15,-80.34 238.2,-89.25 246.03,-89.25 250.56,-89.25 253.49,-86.27 254.82,-81.89"/>
<polygon fill="black" stroke="black" points="258.31,-82.29 255.15,-72.17 251.32,-82.05 258.31,-82.29"/>
<text xml:space="preserve" text-anchor="middle" x="246.03" y="-93.2" font-family="Raleway" font-size="14.00">¬ &#39;&gt;&#39;</text>
</g>
</g>
</svg>