<?xml version="1.0" encoding="UTF-8" standalone="no"?>
<!DOCTYPE svg PUBLIC "-//W3C//DTD SVG 1.1//EN"
 "http://www.w3.org/Graphics/SVG/1.1/DTD/svg11.dtd">
<!-- Generated by graphviz version 14.0.2 (20251019.1705)
 -->
<!-- Pages: 1 -->
<svg width="225pt" height="374pt"
 viewBox="0.00 0.00 225.00 374.00" xmlns="http://www.w3.org/2000/svg" xmlns:xlink="http://www.w3.org/1999/xlink">
<g id="graph0" class="graph" transform="scale(1 1) rotate(0) translate(4 370)">
<polygon fill="white" stroke="none" points="-4,4 -4,-370 221,-370 221,4 -4,4"/>
<!-- 0 -->
<g id="node1" class="node">
<title>0</title>
<text xml:space="preserve" text-anchor="middle" x="132" y="-352.7" font-family="Times,serif" font-size="14.00">&lt;start&gt;</text>
</g>
<!-- 1 -->
<g id="node2" class="node">
<title>1</title>
<text xml:space="preserve" text-anchor="middle" x="132" y="-302.45" font-family="Times,serif" font-size="14.00">&lt;expr&gt;</text>
</g>
<!-- 0&#45;&gt;1 -->
<g id="edge1" class="edge">
<title>0&#45;&gt;1</title>
<path fill="none" stroke="black" d="M132,-351.96C132,-345.74 132,-335.65 132,-326.89"/>
<polygon fill="black" stroke="black" points="135.5,-327.1 132,-317.1 128.5,-327.1 135.5,-327.1"/>
</g>
<!-- 2 -->
<g id="node3" class="node">
<title>2</title>
<text xml:space="preserve" text-anchor="middle" x="82" y="-252.2" font-family="Times,serif" font-size="14.00">&lt;term&gt;</text>
</g>
<!-- 1&#45;&gt;2 -->
<g id="edge2" class="edge">
<title>1&#45;&gt;2</title>
<path fill="none" stroke="black" d="M125.87,-301.71C118.52,-294.62 105.98,-282.51 96.18,-273.06"/>
<polygon fill="black" stroke="black" points="98.9,-270.82 89.27,-266.39 94.04,-275.85 98.9,-270.82"/>
</g>
<!-- 13 -->
<g id="node14" class="node">
<title>13</title>
<text xml:space="preserve" text-anchor="middle" x="132" y="-252.2" font-family="Times,serif" font-size="14.00"> + </text>
</g>
<!-- 1&#45;&gt;13 -->
<g id="edge13" class="edge">
<title>1&#45;&gt;13</title>
<path fill="none" stroke="black" d="M132,-301.71C132,-295.49 132,-285.4 132,-276.64"/>
<polygon fill="black" stroke="black" points="135.5,-276.85 132,-266.85 128.5,-276.85 135.5,-276.85"/>
</g>
<!-- 14 -->
<g id="node15" class="node">
<title>14</title>
<text xml:space="preserve" text-anchor="middle" x="180" y="-252.2" font-family="Times,serif" font-size="14.00">&lt;expr&gt;</text>
</g>
<!-- 1&#45;&gt;14 -->
<g id="edge14" class="edge">
<title>1&#45;&gt;14</title>
<path fill="none" stroke="black" d="M137.89,-301.71C144.87,-294.69 156.74,-282.76 166.1,-273.35"/>
<polygon fill="black" stroke="black" points="168.43,-275.97 173,-266.41 163.46,-271.03 168.43,-275.97"/>
</g>
<!-- 3 -->
<g id="node4" class="node">
<title>3</title>
<text xml:space="preserve" text-anchor="middle" x="27" y="-201.95" font-family="Times,serif" font-size="14.00">&lt;factor&gt;</text>
</g>
<!-- 2&#45;&gt;3 -->
<g id="edge3" class="edge">
<title>2&#45;&gt;3</title>
<path fill="none" stroke="black" d="M75.26,-251.46C67.09,-244.3 53.09,-232.01 42.27,-222.52"/>
<polygon fill="black" stroke="black" points="44.76,-220.05 34.94,-216.09 40.15,-225.31 44.76,-220.05"/>
</g>
<!-- 7 -->
<g id="node8" class="node">
<title>7</title>
<text xml:space="preserve" text-anchor="middle" x="76" y="-201.95" font-family="Times,serif" font-size="14.00"> * </text>
</g>
<!-- 2&#45;&gt;7 -->
<g id="edge7" class="edge">
<title>2&#45;&gt;7</title>
<path fill="none" stroke="black" d="M81.26,-251.46C80.49,-245.24 79.24,-235.15 78.15,-226.39"/>
<polygon fill="black" stroke="black" points="81.64,-226.08 76.93,-216.59 74.69,-226.95 81.64,-226.08"/>
</g>
<!-- 8 -->
<g id="node9" class="node">
<title>8</title>
<text xml:space="preserve" text-anchor="middle" x="122" y="-201.95" font-family="Times,serif" font-size="14.00">&lt;term&gt;</text>
</g>
<!-- 2&#45;&gt;8 -->
<g id="edge8" class="edge">
<title>2&#45;&gt;8</title>
<path fill="none" stroke="black" d="M86.9,-251.46C92.6,-244.59 102.21,-233 109.93,-223.68"/>
<polygon fill="black" stroke="black" points="112.4,-226.19 116.09,-216.25 107.01,-221.72 112.4,-226.19"/>
</g>
<!-- 4 -->
<g id="node5" class="node">
<title>4</title>
<text xml:space="preserve" text-anchor="middle" x="27" y="-151.7" font-family="Times,serif" font-size="14.00">&lt;integer&gt;</text>
</g>
<!-- 3&#45;&gt;4 -->
<g id="edge4" class="edge">
<title>3&#45;&gt;4</title>
<path fill="none" stroke="black" d="M27,-201.21C27,-194.99 27,-184.9 27,-176.14"/>
<polygon fill="black" stroke="black" points="30.5,-176.35 27,-166.35 23.5,-176.35 30.5,-176.35"/>
</g>
<!-- 5 -->
<g id="node6" class="node">
<title>5</title>
<text xml:space="preserve" text-anchor="middle" x="27" y="-101.45" font-family="Times,serif" font-size="14.00">&lt;digit&gt;</text>
</g>
<!-- 4&#45;&gt;5 -->
<g id="edge5" class="edge">
<title>4&#45;&gt;5</title>
<path fill="none" stroke="black" d="M27,-150.96C27,-144.74 27,-134.65 27,-125.89"/>
<polygon fill="black" stroke="black" points="30.5,-126.1 27,-116.1 23.5,-126.1 30.5,-126.1"/>
</g>
<!-- 6 -->
<g id="node7" class="node">
<title>6</title>
<text xml:space="preserve" text-anchor="middle" x="27" y="-51.2" font-family="Times,serif" font-size="14.00">6 (54)</text>
</g>
<!-- 5&#45;&gt;6 -->
<g id="edge6" class="edge">
<title>5&#45;&gt;6</title>
<path fill="none" stroke="black" d="M27,-100.71C27,-94.49 27,-84.4 27,-75.64"/>
<polygon fill="black" stroke="black" points="30.5,-75.85 27,-65.85 23.5,-75.85 30.5,-75.85"/>
</g>
<!-- 9 -->
<g id="node10" class="node">
<title>9</title>
<text xml:space="preserve" text-anchor="middle" x="120" y="-151.7" font-family="Times,serif" font-size="14.00">&lt;factor&gt;</text>
</g>
<!-- 8&#45;&gt;9 -->
<g id="edge9" class="edge">
<title>8&#45;&gt;9</title>
<path fill="none" stroke="black" d="M121.75,-201.21C121.5,-194.99 121.08,-184.9 120.72,-176.14"/>
<polygon fill="black" stroke="black" points="124.22,-176.2 120.31,-166.35 117.23,-176.49 124.22,-176.2"/>
</g>
<!-- 10 -->
<g id="node11" class="node">
<title>10</title>
<text xml:space="preserve" text-anchor="middle" x="118" y="-101.45" font-family="Times,serif" font-size="14.00">&lt;integer&gt;</text>
</g>
<!-- 9&#45;&gt;10 -->
<g id="edge10" class="edge">
<title>9&#45;&gt;10</title>
<path fill="none" stroke="black" d="M119.75,-150.96C119.5,-144.74 119.08,-134.65 118.72,-125.89"/>
<polygon fill="black" stroke="black" points="122.22,-125.95 118.31,-116.1 115.23,-126.24 122.22,-125.95"/>
</g>
<!-- 11 -->
<g id="node12" class="node">
<title>11</title>
<text xml:space="preserve" text-anchor="middle" x="118" y="-51.2" font-family="Times,serif" font-size="14.00">&lt;digit&gt;</text>
</g>
<!-- 10&#45;&gt;11 -->
<g id="edge11" class="edge">
<title>10&#45;&gt;11</title>
<path fill="none" stroke="black" d="M118,-100.71C118,-94.49 118,-84.4 118,-75.64"/>
<polygon fill="black" stroke="black" points="121.5,-75.85 118,-65.85 114.5,-75.85 121.5,-75.85"/>
</g>
<!-- 12 -->
<g id="node13" class="node">
<title>12</title>
<text xml:space="preserve" text-anchor="middle" x="118" y="-0.95" font-family="Times,serif" font-size="14.00">3 (51)</text>
</g>
<!-- 11&#45;&gt;12 -->
<g id="edge12" class="edge">
<title>11&#45;&gt;12</title>
<path fill="none" stroke="black" d="M118,-50.46C118,-44.24 118,-34.15 118,-25.39"/>
<polygon fill="black" stroke="black" points="121.5,-25.6 118,-15.6 114.5,-25.6 121.5,-25.6"/>
</g>
<!-- 15 -->
<g id="node16" class="node">
<title>15</title>
<text xml:space="preserve" text-anchor="middle" x="185" y="-201.95" font-family="Times,serif" font-size="14.00">&lt;term&gt;</text>
</g>
<!-- 14&#45;&gt;15 -->
<g id="edge15" class="edge">
<title>14&#45;&gt;15</title>
<path fill="none" stroke="black" d="M180.61,-251.46C181.26,-245.24 182.3,-235.15 183.21,-226.39"/>
<polygon fill="black" stroke="black" points="186.68,-226.9 184.23,-216.6 179.71,-226.18 186.68,-226.9"/>
</g>
<!-- 16 -->
<g id="node17" class="node">
<title>16</title>
<text xml:space="preserve" text-anchor="middle" x="187" y="-151.7" font-family="Times,serif" font-size="14.00">&lt;factor&gt;</text>
</g>
<!-- 15&#45;&gt;16 -->
<g id="edge16" class="edge">
<title>15&#45;&gt;16</title>
<path fill="none" stroke="black" d="M185.25,-201.21C185.5,-194.99 185.92,-184.9 186.28,-176.14"/>
<polygon fill="black" stroke="black" points="189.77,-176.49 186.69,-166.35 182.78,-176.2 189.77,-176.49"/>
</g>
<!-- 17 -->
<g id="node18" class="node">
<title>17</title>
<text xml:space="preserve" text-anchor="middle" x="190" y="-101.45" font-family="Times,serif" font-size="14.00">&lt;integer&gt;</text>
</g>
<!-- 16&#45;&gt;17 -->
<g id="edge17" class="edge">
<title>16&#45;&gt;17</title>
<path fill="none" stroke="black" d="M187.37,-150.96C187.75,-144.74 188.38,-134.65 188.93,-125.89"/>
<polygon fill="black" stroke="black" points="192.41,-126.3 189.54,-116.1 185.42,-125.86 192.41,-126.3"/>
</g>
<!-- 18 -->
<g id="node19" class="node">
<title>18</title>
<text xml:space="preserve" text-anchor="middle" x="190" y="-51.2" font-family="Times,serif" font-size="14.00">&lt;digit&gt;</text>
</g>
<!-- 17&#45;&gt;18 -->
<g id="edge18" class="edge">
<title>17&#45;&gt;18</title>
<path fill="none" stroke="black" d="M190,-100.71C190,-94.49 190,-84.4 190,-75.64"/>
<polygon fill="black" stroke="black" points="193.5,-75.85 190,-65.85 186.5,-75.85 193.5,-75.85"/>
</g>
<!-- 19 -->
<g id="node20" class="node">
<title>19</title>
<text xml:space="preserve" text-anchor="middle" x="190" y="-0.95" font-family="Times,serif" font-size="14.00">9 (57)</text>
</g>
<!-- 18&#45;&gt;19 -->
<g id="edge19" class="edge">
<title>18&#45;&gt;19</title>
<path fill="none" stroke="black" d="M190,-50.46C190,-44.24 190,-34.15 190,-25.39"/>
<polygon fill="black" stroke="black" points="193.5,-25.6 190,-15.6 186.5,-25.6 193.5,-25.6"/>
</g>
</g>
</svg>