<?xml version="1.0" encoding="UTF-8" standalone="no"?>
<!DOCTYPE svg PUBLIC "-//W3C//DTD SVG 1.1//EN"
 "http://www.w3.org/Graphics/SVG/1.1/DTD/svg11.dtd">
<!-- Generated by graphviz version 14.0.2 (20251019.1705)
 -->
<!-- Title: dependencies Pages: 1 -->
<svg width="214pt" height="276pt"
 viewBox="0.00 0.00 214.00 276.00" xmlns="http://www.w3.org/2000/svg" xmlns:xlink="http://www.w3.org/1999/xlink">
<g id="graph0" class="graph" transform="scale(1 1) rotate(0) translate(4 272)">
<title>dependencies</title>
<polygon fill="white" stroke="none" points="-4,4 -4,-272 209.75,-272 209.75,4 -4,4"/>
<!-- middlereturnvalue_functionmiddleat0x10d554b80_6 -->
<g id="node1" class="node">
<title>middlereturnvalue_functionmiddleat0x10d554b80_6</title>
<g id="a_node1"><a xlink:title="middle:6">
<polygon fill="peachpuff" stroke="black" points="205.75,-40 0,-40 0,0 205.75,0 205.75,-40"/>
<text xml:space="preserve" text-anchor="start" x="8" y="-23.7" font-family="Courier,monospace" font-weight="bold" font-style="italic" font-size="14.00">&lt;middle() return value&gt;</text>
<text xml:space="preserve" text-anchor="start" x="81.88" y="-5.45" font-family="Courier,monospace" font-size="9.00">return y</text>
</a>
</g>
</g>
<!-- test_functionmiddleat0x10d554b80_5 -->
<g id="node2" class="node">
<title>test_functionmiddleat0x10d554b80_5</title>
<g id="a_node2"><a xlink:title="middle:5">
<polygon fill="peachpuff" stroke="black" points="139.75,-116 66,-116 66,-76 139.75,-76 139.75,-116"/>
<text xml:space="preserve" text-anchor="start" x="78.12" y="-99.7" font-family="Courier,monospace" font-weight="bold" font-style="italic" font-size="14.00">&lt;test&gt;</text>
<text xml:space="preserve" text-anchor="start" x="74" y="-81.45" font-family="Courier,monospace" font-size="9.00">elif x &lt; z:</text>
</a>
</g>
</g>
<!-- test_functionmiddleat0x10d554b80_5&#45;&gt;middlereturnvalue_functionmiddleat0x10d554b80_6 -->
<g id="edge1" class="edge">
<title>test_functionmiddleat0x10d554b80_5&#45;&gt;middlereturnvalue_functionmiddleat0x10d554b80_6</title>
<path fill="none" stroke="grey" stroke-dasharray="5,2" d="M96.85,-75.56C96.2,-68.25 95.99,-59.75 96.21,-51.67"/>
<polygon fill="grey" stroke="grey" points="99.7,-52.01 96.78,-41.82 92.71,-51.61 99.7,-52.01"/>
</g>
<!-- test_functionmiddleat0x10d554b80_5&#45;&gt;middlereturnvalue_functionmiddleat0x10d554b80_6 -->
<!-- test_functionmiddleat0x10d554b80_3 -->
<g id="node3" class="node">
<title>test_functionmiddleat0x10d554b80_3</title>
<g id="a_node3"><a xlink:title="middle:3">
<polygon fill="peachpuff" stroke="black" points="135.62,-192 70.12,-192 70.12,-152 135.62,-152 135.62,-192"/>
<text xml:space="preserve" text-anchor="start" x="78.12" y="-175.7" font-family="Courier,monospace" font-weight="bold" font-style="italic" font-size="14.00">&lt;test&gt;</text>
<text xml:space="preserve" text-anchor="start" x="79.25" y="-157.45" font-family="Courier,monospace" font-size="9.00">if x &lt; y:</text>
</a>
</g>
</g>
<!-- test_functionmiddleat0x10d554b80_3&#45;&gt;test_functionmiddleat0x10d554b80_5 -->
<g id="edge2" class="edge">
<title>test_functionmiddleat0x10d554b80_3&#45;&gt;test_functionmiddleat0x10d554b80_5</title>
<path fill="none" stroke="grey" stroke-dasharray="5,2" d="M96.85,-151.56C96.2,-144.25 95.99,-135.75 96.21,-127.67"/>
<polygon fill="grey" stroke="grey" points="99.7,-128.01 96.78,-117.82 92.71,-127.61 99.7,-128.01"/>
</g>
<!-- test_functionmiddleat0x10d554b80_3&#45;&gt;test_functionmiddleat0x10d554b80_5 -->
<!-- test_functionmiddleat0x10d554b80_2 -->
<g id="node4" class="node">
<title>test_functionmiddleat0x10d554b80_2</title>
<g id="a_node4"><a xlink:title="middle:2">
<polygon fill="peachpuff" stroke="black" points="135.62,-268 70.12,-268 70.12,-228 135.62,-228 135.62,-268"/>
<text xml:space="preserve" text-anchor="start" x="78.12" y="-251.7" font-family="Courier,monospace" font-weight="bold" font-style="italic" font-size="14.00">&lt;test&gt;</text>
<text xml:space="preserve" text-anchor="start" x="79.25" y="-233.45" font-family="Courier,monospace" font-size="9.00">if y &lt; z:</text>
</a>
</g>
</g>
<!-- test_functionmiddleat0x10d554b80_2&#45;&gt;test_functionmiddleat0x10d554b80_3 -->
<g id="edge3" class="edge">
<title>test_functionmiddleat0x10d554b80_2&#45;&gt;test_functionmiddleat0x10d554b80_3</title>
<path fill="none" stroke="grey" stroke-dasharray="5,2" d="M96.85,-227.56C96.2,-220.25 95.99,-211.75 96.21,-203.67"/>
<polygon fill="grey" stroke="grey" points="99.7,-204.01 96.78,-193.82 92.71,-203.61 99.7,-204.01"/>
</g>
<!-- test_functionmiddleat0x10d554b80_2&#45;&gt;test_functionmiddleat0x10d554b80_3 -->
</g>
</svg>