<?xml version="1.0" encoding="UTF-8" standalone="no"?>
<!DOCTYPE svg PUBLIC "-//W3C//DTD SVG 1.1//EN"
 "http://www.w3.org/Graphics/SVG/1.1/DTD/svg11.dtd">
<!-- Generated by graphviz version 14.0.2 (20251019.1705)
 -->
<!-- Title: Tree Pages: 1 -->
<svg width="320pt" height="314pt"
 viewBox="0.00 0.00 320.00 314.00" xmlns="http://www.w3.org/2000/svg" xmlns:xlink="http://www.w3.org/1999/xlink">
<g id="graph0" class="graph" transform="scale(1 1) rotate(0) translate(4 310)">
<title>Tree</title>
<polygon fill="white" stroke="none" points="-4,4 -4,-310 316.25,-310 316.25,4 -4,4"/>
<!-- 0 -->
<g id="node1" class="node">
<title>0</title>
<path fill="#88c4ef" stroke="black" d="M179.12,-306C179.12,-306 70.12,-306 70.12,-306 64.12,-306 58.12,-300 58.12,-294 58.12,-294 58.12,-235 58.12,-235 58.12,-229 64.12,-223 70.12,-223 70.12,-223 179.12,-223 179.12,-223 185.12,-223 191.12,-229 191.12,-235 191.12,-235 191.12,-294 191.12,-294 191.12,-300 185.12,-306 179.12,-306"/>
<text xml:space="preserve" text-anchor="middle" x="124.62" y="-288.7" font-family="Helvetica,sans-Serif" font-size="14.00">function&#45;sqrt &lt;= 0.5</text>
<text xml:space="preserve" text-anchor="middle" x="124.62" y="-273.7" font-family="Helvetica,sans-Serif" font-size="14.00">gini = 0.408</text>
<text xml:space="preserve" text-anchor="middle" x="124.62" y="-258.7" font-family="Helvetica,sans-Serif" font-size="14.00">samples = 7</text>
<text xml:space="preserve" text-anchor="middle" x="124.62" y="-243.7" font-family="Helvetica,sans-Serif" font-size="14.00">value = [2, 5]</text>
<text xml:space="preserve" text-anchor="middle" x="124.62" y="-228.7" font-family="Helvetica,sans-Serif" font-size="14.00">class = NO BUG</text>
</g>
<!-- 1 -->
<g id="node2" class="node">
<title>1</title>
<path fill="#399de5" stroke="black" d="M105.25,-179.5C105.25,-179.5 12,-179.5 12,-179.5 6,-179.5 0,-173.5 0,-167.5 0,-167.5 0,-123.5 0,-123.5 0,-117.5 6,-111.5 12,-111.5 12,-111.5 105.25,-111.5 105.25,-111.5 111.25,-111.5 117.25,-117.5 117.25,-123.5 117.25,-123.5 117.25,-167.5 117.25,-167.5 117.25,-173.5 111.25,-179.5 105.25,-179.5"/>
<text xml:space="preserve" text-anchor="middle" x="58.62" y="-162.2" font-family="Helvetica,sans-Serif" font-size="14.00">gini = 0.0</text>
<text xml:space="preserve" text-anchor="middle" x="58.62" y="-147.2" font-family="Helvetica,sans-Serif" font-size="14.00">samples = 4</text>
<text xml:space="preserve" text-anchor="middle" x="58.62" y="-132.2" font-family="Helvetica,sans-Serif" font-size="14.00">value = [0, 4]</text>
<text xml:space="preserve" text-anchor="middle" x="58.62" y="-117.2" font-family="Helvetica,sans-Serif" font-size="14.00">class = NO BUG</text>
</g>
<!-- 0&#45;&gt;1 -->
<g id="edge1" class="edge">
<title>0&#45;&gt;1</title>
<path fill="none" stroke="black" d="M101.54,-222.58C95.57,-211.99 89.12,-200.56 83.08,-189.85"/>
<polygon fill="black" stroke="black" points="86.15,-188.17 78.19,-181.18 80.05,-191.61 86.15,-188.17"/>
<text xml:space="preserve" text-anchor="middle" x="70.73" y="-198.14" font-family="Helvetica,sans-Serif" font-size="14.00">True</text>
</g>
<!-- 2 -->
<g id="node3" class="node">
<title>2</title>
<path fill="#f2c09c" stroke="black" d="M236,-187C236,-187 147.25,-187 147.25,-187 141.25,-187 135.25,-181 135.25,-175 135.25,-175 135.25,-116 135.25,-116 135.25,-110 141.25,-104 147.25,-104 147.25,-104 236,-104 236,-104 242,-104 248,-110 248,-116 248,-116 248,-175 248,-175 248,-181 242,-187 236,-187"/>
<text xml:space="preserve" text-anchor="middle" x="191.62" y="-169.7" font-family="Helvetica,sans-Serif" font-size="14.00">number &lt;= 13.0</text>
<text xml:space="preserve" text-anchor="middle" x="191.62" y="-154.7" font-family="Helvetica,sans-Serif" font-size="14.00">gini = 0.444</text>
<text xml:space="preserve" text-anchor="middle" x="191.62" y="-139.7" font-family="Helvetica,sans-Serif" font-size="14.00">samples = 3</text>
<text xml:space="preserve" text-anchor="middle" x="191.62" y="-124.7" font-family="Helvetica,sans-Serif" font-size="14.00">value = [2, 1]</text>
<text xml:space="preserve" text-anchor="middle" x="191.62" y="-109.7" font-family="Helvetica,sans-Serif" font-size="14.00">class = BUG</text>
</g>
<!-- 0&#45;&gt;2 -->
<g id="edge2" class="edge">
<title>0&#45;&gt;2</title>
<path fill="none" stroke="black" d="M148.06,-222.58C152.78,-214.34 157.79,-205.58 162.67,-197.06"/>
<polygon fill="black" stroke="black" points="165.63,-198.93 167.57,-188.51 159.56,-195.45 165.63,-198.93"/>
<text xml:space="preserve" text-anchor="middle" x="174.87" y="-205.53" font-family="Helvetica,sans-Serif" font-size="14.00">False</text>
</g>
<!-- 3 -->
<g id="node4" class="node">
<title>3</title>
<path fill="#e58139" stroke="black" d="M164.62,-68C164.62,-68 94.62,-68 94.62,-68 88.62,-68 82.62,-62 82.62,-56 82.62,-56 82.62,-12 82.62,-12 82.62,-6 88.62,0 94.62,0 94.62,0 164.62,0 164.62,0 170.62,0 176.62,-6 176.62,-12 176.62,-12 176.62,-56 176.62,-56 176.62,-62 170.62,-68 164.62,-68"/>
<text xml:space="preserve" text-anchor="middle" x="129.62" y="-50.7" font-family="Helvetica,sans-Serif" font-size="14.00">gini = 0.0</text>
<text xml:space="preserve" text-anchor="middle" x="129.62" y="-35.7" font-family="Helvetica,sans-Serif" font-size="14.00">samples = 2</text>
<text xml:space="preserve" text-anchor="middle" x="129.62" y="-20.7" font-family="Helvetica,sans-Serif" font-size="14.00">value = [2, 0]</text>
<text xml:space="preserve" text-anchor="middle" x="129.62" y="-5.7" font-family="Helvetica,sans-Serif" font-size="14.00">class = BUG</text>
</g>
<!-- 2&#45;&gt;3 -->
<g id="edge3" class="edge">
<title>2&#45;&gt;3</title>
<path fill="none" stroke="black" d="M168.54,-103.73C163.84,-95.43 158.88,-86.67 154.13,-78.28"/>
<polygon fill="black" stroke="black" points="157.2,-76.59 149.23,-69.62 151.11,-80.04 157.2,-76.59"/>
</g>
<!-- 4 -->
<g id="node5" class="node">
<title>4</title>
<path fill="#399de5" stroke="black" d="M300.25,-68C300.25,-68 207,-68 207,-68 201,-68 195,-62 195,-56 195,-56 195,-12 195,-12 195,-6 201,0 207,0 207,0 300.25,0 300.25,0 306.25,0 312.25,-6 312.25,-12 312.25,-12 312.25,-56 312.25,-56 312.25,-62 306.25,-68 300.25,-68"/>
<text xml:space="preserve" text-anchor="middle" x="253.62" y="-50.7" font-family="Helvetica,sans-Serif" font-size="14.00">gini = 0.0</text>
<text xml:space="preserve" text-anchor="middle" x="253.62" y="-35.7" font-family="Helvetica,sans-Serif" font-size="14.00">samples = 1</text>
<text xml:space="preserve" text-anchor="middle" x="253.62" y="-20.7" font-family="Helvetica,sans-Serif" font-size="14.00">value = [0, 1]</text>
<text xml:space="preserve" text-anchor="middle" x="253.62" y="-5.7" font-family="Helvetica,sans-Serif" font-size="14.00">class = NO BUG</text>
</g>
<!-- 2&#45;&gt;4 -->
<g id="edge4" class="edge">
<title>2&#45;&gt;4</title>
<path fill="none" stroke="black" d="M214.71,-103.73C219.41,-95.43 224.37,-86.67 229.12,-78.28"/>
<polygon fill="black" stroke="black" points="232.14,-80.04 234.02,-69.62 226.05,-76.59 232.14,-80.04"/>
</g>
</g>
</svg>