<?xml version="1.0" encoding="UTF-8" standalone="no"?>
<!DOCTYPE svg PUBLIC "-//W3C//DTD SVG 1.1//EN"
 "http://www.w3.org/Graphics/SVG/1.1/DTD/svg11.dtd">
<!-- Generated by graphviz version 14.0.2 (20251019.1705)
 -->
<!-- Pages: 1 -->
<svg width="200pt" height="85pt"
 viewBox="0.00 0.00 200.00 85.00" xmlns="http://www.w3.org/2000/svg" xmlns:xlink="http://www.w3.org/1999/xlink">
<g id="graph0" class="graph" transform="scale(1 1) rotate(0) translate(4 80.75)">
<polygon fill="white" stroke="none" points="-4,4 -4,-80.75 195.5,-80.75 195.5,4 -4,4"/>
<!-- input -->
<g id="node1" class="node">
<title>input</title>
<polygon fill="white" stroke="none" points="61.75,-56.38 0,-56.38 0,-20.38 61.75,-20.38 61.75,-56.38"/>
<text xml:space="preserve" text-anchor="middle" x="30.88" y="-33.7" font-family="Raleway" font-size="14.00" fill="darkgreen">Input ✔</text>
</g>
<!-- s1 -->
<g id="node2" class="node">
<title>s1</title>
<polygon fill="peachpuff" stroke="darkgreen" points="137.5,-0.5 137.5,-76.25 191.5,-76.25 191.5,-0.5 137.5,-0.5"/>
<text xml:space="preserve" text-anchor="middle" x="164.5" y="-58.95" font-family="Raleway" font-size="14.00" fill="darkgreen">var1</text>
<polyline fill="none" stroke="darkgreen" points="137.5,-51 191.5,-51"/>
<text xml:space="preserve" text-anchor="middle" x="164.5" y="-33.7" font-family="Raleway" font-size="14.00" fill="darkgreen">var2</text>
<polyline fill="none" stroke="darkgreen" points="137.5,-25.75 191.5,-25.75"/>
<text xml:space="preserve" text-anchor="middle" x="164.5" y="-8.45" font-family="Raleway" font-size="14.00" fill="darkgreen">var3</text>
</g>
<!-- input&#45;&gt;s1 -->
<g id="edge1" class="edge">
<title>input&#45;&gt;s1</title>
<path fill="none" stroke="black" d="M61.74,-38.38C80.76,-38.38 105.56,-38.38 125.92,-38.38"/>
<polygon fill="black" stroke="black" points="125.8,-41.88 135.8,-38.38 125.8,-34.88 125.8,-41.88"/>
<text xml:space="preserve" text-anchor="middle" x="99.62" y="-42.33" font-family="Raleway" font-size="14.00">Step 1</text>
</g>
</g>
</svg>