<?xml version="1.0" encoding="UTF-8" standalone="no"?>
<!DOCTYPE svg PUBLIC "-//W3C//DTD SVG 1.1//EN"
 "http://www.w3.org/Graphics/SVG/1.1/DTD/svg11.dtd">
<!-- Generated by graphviz version 14.0.2 (20251019.1705)
 -->
<!-- Title: Tree Pages: 1 -->
<svg width="776pt" height="671pt"
 viewBox="0.00 0.00 776.00 671.00" xmlns="http://www.w3.org/2000/svg" xmlns:xlink="http://www.w3.org/1999/xlink">
<g id="graph0" class="graph" transform="scale(1 1) rotate(0) translate(4 667)">
<title>Tree</title>
<polygon fill="white" stroke="none" points="-4,4 -4,-667 771.5,-667 771.5,4 -4,4"/>
<!-- 0 -->
<g id="node1" class="node">
<title>0</title>
<path fill="#ffffff" stroke="black" d="M387.75,-663C387.75,-663 281.75,-663 281.75,-663 275.75,-663 269.75,-657 269.75,-651 269.75,-651 269.75,-592 269.75,-592 269.75,-586 275.75,-580 281.75,-580 281.75,-580 387.75,-580 387.75,-580 393.75,-580 399.75,-586 399.75,-592 399.75,-592 399.75,-651 399.75,-651 399.75,-657 393.75,-663 387.75,-663"/>
<text xml:space="preserve" text-anchor="middle" x="334.75" y="-645.7" font-family="Helvetica,sans-Serif" font-size="14.00">&lt;lead&#45;digit&gt; &lt;= 3.5</text>
<text xml:space="preserve" text-anchor="middle" x="334.75" y="-630.7" font-family="Helvetica,sans-Serif" font-size="14.00">gini = 0.5</text>
<text xml:space="preserve" text-anchor="middle" x="334.75" y="-615.7" font-family="Helvetica,sans-Serif" font-size="14.00">samples = 2134</text>
<text xml:space="preserve" text-anchor="middle" x="334.75" y="-600.7" font-family="Helvetica,sans-Serif" font-size="14.00">value = [1.0, 1.0]</text>
<text xml:space="preserve" text-anchor="middle" x="334.75" y="-585.7" font-family="Helvetica,sans-Serif" font-size="14.00">class = BUG</text>
</g>
<!-- 1 -->
<g id="node2" class="node">
<title>1</title>
<path fill="#eda672" stroke="black" d="M316.25,-544C316.25,-544 165.25,-544 165.25,-544 159.25,-544 153.25,-538 153.25,-532 153.25,-532 153.25,-473 153.25,-473 153.25,-467 159.25,-461 165.25,-461 165.25,-461 316.25,-461 316.25,-461 322.25,-461 328.25,-467 328.25,-473 328.25,-473 328.25,-532 328.25,-532 328.25,-538 322.25,-544 316.25,-544"/>
<text xml:space="preserve" text-anchor="middle" x="240.75" y="-526.7" font-family="Helvetica,sans-Serif" font-size="14.00">&lt;function&gt; == &#39;sqrt&#39; &lt;= 0.5</text>
<text xml:space="preserve" text-anchor="middle" x="240.75" y="-511.7" font-family="Helvetica,sans-Serif" font-size="14.00">gini = 0.348</text>
<text xml:space="preserve" text-anchor="middle" x="240.75" y="-496.7" font-family="Helvetica,sans-Serif" font-size="14.00">samples = 648</text>
<text xml:space="preserve" text-anchor="middle" x="240.75" y="-481.7" font-family="Helvetica,sans-Serif" font-size="14.00">value = [0.971, 0.281]</text>
<text xml:space="preserve" text-anchor="middle" x="240.75" y="-466.7" font-family="Helvetica,sans-Serif" font-size="14.00">class = BUG</text>
</g>
<!-- 0&#45;&gt;1 -->
<g id="edge1" class="edge">
<title>0&#45;&gt;1</title>
<path fill="none" stroke="black" d="M301.87,-579.58C294.96,-570.98 287.61,-561.82 280.48,-552.95"/>
<polygon fill="black" stroke="black" points="283.39,-550.98 274.4,-545.38 277.93,-555.37 283.39,-550.98"/>
<text xml:space="preserve" text-anchor="middle" x="270.74" y="-563.25" font-family="Helvetica,sans-Serif" font-size="14.00">True</text>
</g>
<!-- 10 -->
<g id="node9" class="node">
<title>10</title>
<path fill="#41a1e6" stroke="black" d="M501.5,-544C501.5,-544 358,-544 358,-544 352,-544 346,-538 346,-532 346,-532 346,-473 346,-473 346,-467 352,-461 358,-461 358,-461 501.5,-461 501.5,-461 507.5,-461 513.5,-467 513.5,-473 513.5,-473 513.5,-532 513.5,-532 513.5,-538 507.5,-544 501.5,-544"/>
<text xml:space="preserve" text-anchor="middle" x="429.75" y="-526.7" font-family="Helvetica,sans-Serif" font-size="14.00">&lt;lead&#45;digit&gt; == &#39;4&#39; &lt;= 0.5</text>
<text xml:space="preserve" text-anchor="middle" x="429.75" y="-511.7" font-family="Helvetica,sans-Serif" font-size="14.00">gini = 0.075</text>
<text xml:space="preserve" text-anchor="middle" x="429.75" y="-496.7" font-family="Helvetica,sans-Serif" font-size="14.00">samples = 1486</text>
<text xml:space="preserve" text-anchor="middle" x="429.75" y="-481.7" font-family="Helvetica,sans-Serif" font-size="14.00">value = [0.029, 0.719]</text>
<text xml:space="preserve" text-anchor="middle" x="429.75" y="-466.7" font-family="Helvetica,sans-Serif" font-size="14.00">class = NO_BUG</text>
</g>
<!-- 0&#45;&gt;10 -->
<g id="edge8" class="edge">
<title>0&#45;&gt;10</title>
<path fill="none" stroke="black" d="M367.98,-579.58C374.96,-570.98 382.4,-561.82 389.6,-552.95"/>
<polygon fill="black" stroke="black" points="392.16,-555.34 395.75,-545.38 386.73,-550.93 392.16,-555.34"/>
<text xml:space="preserve" text-anchor="middle" x="399.28" y="-563.27" font-family="Helvetica,sans-Serif" font-size="14.00">False</text>
</g>
<!-- 2 -->
<g id="node3" class="node">
<title>2</title>
<path fill="#399de5" stroke="black" d="M145.5,-417.5C145.5,-417.5 38,-417.5 38,-417.5 32,-417.5 26,-411.5 26,-405.5 26,-405.5 26,-361.5 26,-361.5 26,-355.5 32,-349.5 38,-349.5 38,-349.5 145.5,-349.5 145.5,-349.5 151.5,-349.5 157.5,-355.5 157.5,-361.5 157.5,-361.5 157.5,-405.5 157.5,-405.5 157.5,-411.5 151.5,-417.5 145.5,-417.5"/>
<text xml:space="preserve" text-anchor="middle" x="91.75" y="-400.2" font-family="Helvetica,sans-Serif" font-size="14.00">gini = &#45;0.0</text>
<text xml:space="preserve" text-anchor="middle" x="91.75" y="-385.2" font-family="Helvetica,sans-Serif" font-size="14.00">samples = 373</text>
<text xml:space="preserve" text-anchor="middle" x="91.75" y="-370.2" font-family="Helvetica,sans-Serif" font-size="14.00">value = [0.0, 0.181]</text>
<text xml:space="preserve" text-anchor="middle" x="91.75" y="-355.2" font-family="Helvetica,sans-Serif" font-size="14.00">class = NO_BUG</text>
</g>
<!-- 1&#45;&gt;2 -->
<g id="edge2" class="edge">
<title>1&#45;&gt;2</title>
<path fill="none" stroke="black" d="M188.64,-460.58C173.9,-449.01 157.88,-436.43 143.19,-424.89"/>
<polygon fill="black" stroke="black" points="145.45,-422.22 135.43,-418.8 141.13,-427.72 145.45,-422.22"/>
</g>
<!-- 3 -->
<g id="node4" class="node">
<title>3</title>
<path fill="#e88e4e" stroke="black" d="M310,-425C310,-425 187.5,-425 187.5,-425 181.5,-425 175.5,-419 175.5,-413 175.5,-413 175.5,-354 175.5,-354 175.5,-348 181.5,-342 187.5,-342 187.5,-342 310,-342 310,-342 316,-342 322,-348 322,-354 322,-354 322,-413 322,-413 322,-419 316,-425 310,-425"/>
<text xml:space="preserve" text-anchor="middle" x="248.75" y="-407.7" font-family="Helvetica,sans-Serif" font-size="14.00">&lt;term&gt; &lt;= &#45;11.5</text>
<text xml:space="preserve" text-anchor="middle" x="248.75" y="-392.7" font-family="Helvetica,sans-Serif" font-size="14.00">gini = 0.17</text>
<text xml:space="preserve" text-anchor="middle" x="248.75" y="-377.7" font-family="Helvetica,sans-Serif" font-size="14.00">samples = 275</text>
<text xml:space="preserve" text-anchor="middle" x="248.75" y="-362.7" font-family="Helvetica,sans-Serif" font-size="14.00">value = [0.971, 0.101]</text>
<text xml:space="preserve" text-anchor="middle" x="248.75" y="-347.7" font-family="Helvetica,sans-Serif" font-size="14.00">class = BUG</text>
</g>
<!-- 1&#45;&gt;3 -->
<g id="edge3" class="edge">
<title>1&#45;&gt;3</title>
<path fill="none" stroke="black" d="M243.55,-460.58C244.08,-452.79 244.65,-444.53 245.2,-436.45"/>
<polygon fill="black" stroke="black" points="248.67,-436.93 245.86,-426.71 241.69,-436.45 248.67,-436.93"/>
</g>
<!-- 4 -->
<g id="node5" class="node">
<title>4</title>
<path fill="#e6853f" stroke="black" d="M201,-306C201,-306 78.5,-306 78.5,-306 72.5,-306 66.5,-300 66.5,-294 66.5,-294 66.5,-235 66.5,-235 66.5,-229 72.5,-223 78.5,-223 78.5,-223 201,-223 201,-223 207,-223 213,-229 213,-235 213,-235 213,-294 213,-294 213,-300 207,-306 201,-306"/>
<text xml:space="preserve" text-anchor="middle" x="139.75" y="-288.7" font-family="Helvetica,sans-Serif" font-size="14.00">&lt;value&gt; &lt;= 81.52</text>
<text xml:space="preserve" text-anchor="middle" x="139.75" y="-273.7" font-family="Helvetica,sans-Serif" font-size="14.00">gini = 0.055</text>
<text xml:space="preserve" text-anchor="middle" x="139.75" y="-258.7" font-family="Helvetica,sans-Serif" font-size="14.00">samples = 125</text>
<text xml:space="preserve" text-anchor="middle" x="139.75" y="-243.7" font-family="Helvetica,sans-Serif" font-size="14.00">value = [0.971, 0.028]</text>
<text xml:space="preserve" text-anchor="middle" x="139.75" y="-228.7" font-family="Helvetica,sans-Serif" font-size="14.00">class = BUG</text>
</g>
<!-- 3&#45;&gt;4 -->
<g id="edge4" class="edge">
<title>3&#45;&gt;4</title>
<path fill="none" stroke="black" d="M210.63,-341.58C202.45,-332.8 193.73,-323.44 185.3,-314.39"/>
<polygon fill="black" stroke="black" points="188.08,-312.24 178.7,-307.31 182.95,-317.01 188.08,-312.24"/>
</g>
<!-- 9 -->
<g id="node8" class="node">
<title>9</title>
<path fill="#399de5" stroke="black" d="M350.5,-298.5C350.5,-298.5 243,-298.5 243,-298.5 237,-298.5 231,-292.5 231,-286.5 231,-286.5 231,-242.5 231,-242.5 231,-236.5 237,-230.5 243,-230.5 243,-230.5 350.5,-230.5 350.5,-230.5 356.5,-230.5 362.5,-236.5 362.5,-242.5 362.5,-242.5 362.5,-286.5 362.5,-286.5 362.5,-292.5 356.5,-298.5 350.5,-298.5"/>
<text xml:space="preserve" text-anchor="middle" x="296.75" y="-281.2" font-family="Helvetica,sans-Serif" font-size="14.00">gini = &#45;0.0</text>
<text xml:space="preserve" text-anchor="middle" x="296.75" y="-266.2" font-family="Helvetica,sans-Serif" font-size="14.00">samples = 150</text>
<text xml:space="preserve" text-anchor="middle" x="296.75" y="-251.2" font-family="Helvetica,sans-Serif" font-size="14.00">value = [0.0, 0.073]</text>
<text xml:space="preserve" text-anchor="middle" x="296.75" y="-236.2" font-family="Helvetica,sans-Serif" font-size="14.00">class = NO_BUG</text>
</g>
<!-- 3&#45;&gt;9 -->
<g id="edge7" class="edge">
<title>3&#45;&gt;9</title>
<path fill="none" stroke="black" d="M265.54,-341.58C269.84,-331.1 274.48,-319.79 278.83,-309.18"/>
<polygon fill="black" stroke="black" points="281.93,-310.84 282.49,-300.26 275.46,-308.18 281.93,-310.84"/>
</g>
<!-- 5 -->
<g id="node6" class="node">
<title>5</title>
<path fill="#e58139" stroke="black" d="M119.5,-179.5C119.5,-179.5 12,-179.5 12,-179.5 6,-179.5 0,-173.5 0,-167.5 0,-167.5 0,-123.5 0,-123.5 0,-117.5 6,-111.5 12,-111.5 12,-111.5 119.5,-111.5 119.5,-111.5 125.5,-111.5 131.5,-117.5 131.5,-123.5 131.5,-123.5 131.5,-167.5 131.5,-167.5 131.5,-173.5 125.5,-179.5 119.5,-179.5"/>
<text xml:space="preserve" text-anchor="middle" x="65.75" y="-162.2" font-family="Helvetica,sans-Serif" font-size="14.00">gini = 0.0</text>
<text xml:space="preserve" text-anchor="middle" x="65.75" y="-147.2" font-family="Helvetica,sans-Serif" font-size="14.00">samples = 67</text>
<text xml:space="preserve" text-anchor="middle" x="65.75" y="-132.2" font-family="Helvetica,sans-Serif" font-size="14.00">value = [0.971, 0.0]</text>
<text xml:space="preserve" text-anchor="middle" x="65.75" y="-117.2" font-family="Helvetica,sans-Serif" font-size="14.00">class = BUG</text>
</g>
<!-- 4&#45;&gt;5 -->
<g id="edge5" class="edge">
<title>4&#45;&gt;5</title>
<path fill="none" stroke="black" d="M113.87,-222.58C107.1,-211.88 99.79,-200.32 92.96,-189.52"/>
<polygon fill="black" stroke="black" points="95.96,-187.72 87.66,-181.14 90.05,-191.46 95.96,-187.72"/>
</g>
<!-- 8 -->
<g id="node7" class="node">
<title>8</title>
<path fill="#399de5" stroke="black" d="M269.5,-179.5C269.5,-179.5 162,-179.5 162,-179.5 156,-179.5 150,-173.5 150,-167.5 150,-167.5 150,-123.5 150,-123.5 150,-117.5 156,-111.5 162,-111.5 162,-111.5 269.5,-111.5 269.5,-111.5 275.5,-111.5 281.5,-117.5 281.5,-123.5 281.5,-123.5 281.5,-167.5 281.5,-167.5 281.5,-173.5 275.5,-179.5 269.5,-179.5"/>
<text xml:space="preserve" text-anchor="middle" x="215.75" y="-162.2" font-family="Helvetica,sans-Serif" font-size="14.00">gini = &#45;0.0</text>
<text xml:space="preserve" text-anchor="middle" x="215.75" y="-147.2" font-family="Helvetica,sans-Serif" font-size="14.00">samples = 58</text>
<text xml:space="preserve" text-anchor="middle" x="215.75" y="-132.2" font-family="Helvetica,sans-Serif" font-size="14.00">value = [0.0, 0.028]</text>
<text xml:space="preserve" text-anchor="middle" x="215.75" y="-117.2" font-family="Helvetica,sans-Serif" font-size="14.00">class = NO_BUG</text>
</g>
<!-- 4&#45;&gt;8 -->
<g id="edge6" class="edge">
<title>4&#45;&gt;8</title>
<path fill="none" stroke="black" d="M166.33,-222.58C173.35,-211.77 180.94,-200.09 188.02,-189.19"/>
<polygon fill="black" stroke="black" points="190.74,-191.42 193.26,-181.13 184.87,-187.61 190.74,-191.42"/>
</g>
<!-- 11 -->
<g id="node10" class="node">
<title>11</title>
<path fill="#399de5" stroke="black" d="M475.5,-417.5C475.5,-417.5 368,-417.5 368,-417.5 362,-417.5 356,-411.5 356,-405.5 356,-405.5 356,-361.5 356,-361.5 356,-355.5 362,-349.5 368,-349.5 368,-349.5 475.5,-349.5 475.5,-349.5 481.5,-349.5 487.5,-355.5 487.5,-361.5 487.5,-361.5 487.5,-405.5 487.5,-405.5 487.5,-411.5 481.5,-417.5 475.5,-417.5"/>
<text xml:space="preserve" text-anchor="middle" x="421.75" y="-400.2" font-family="Helvetica,sans-Serif" font-size="14.00">gini = &#45;0.0</text>
<text xml:space="preserve" text-anchor="middle" x="421.75" y="-385.2" font-family="Helvetica,sans-Serif" font-size="14.00">samples = 1296</text>
<text xml:space="preserve" text-anchor="middle" x="421.75" y="-370.2" font-family="Helvetica,sans-Serif" font-size="14.00">value = [0.0, 0.628]</text>
<text xml:space="preserve" text-anchor="middle" x="421.75" y="-355.2" font-family="Helvetica,sans-Serif" font-size="14.00">class = NO_BUG</text>
</g>
<!-- 10&#45;&gt;11 -->
<g id="edge9" class="edge">
<title>10&#45;&gt;11</title>
<path fill="none" stroke="black" d="M426.95,-460.58C426.26,-450.43 425.51,-439.5 424.81,-429.18"/>
<polygon fill="black" stroke="black" points="428.31,-429.11 424.13,-419.37 421.32,-429.59 428.31,-429.11"/>
</g>
<!-- 12 -->
<g id="node11" class="node">
<title>12</title>
<path fill="#78bced" stroke="black" d="M640,-425C640,-425 517.5,-425 517.5,-425 511.5,-425 505.5,-419 505.5,-413 505.5,-413 505.5,-354 505.5,-354 505.5,-348 511.5,-342 517.5,-342 517.5,-342 640,-342 640,-342 646,-342 652,-348 652,-354 652,-354 652,-413 652,-413 652,-419 646,-425 640,-425"/>
<text xml:space="preserve" text-anchor="middle" x="578.75" y="-407.7" font-family="Helvetica,sans-Serif" font-size="14.00">&lt;value&gt; &lt;= 41.95</text>
<text xml:space="preserve" text-anchor="middle" x="578.75" y="-392.7" font-family="Helvetica,sans-Serif" font-size="14.00">gini = 0.366</text>
<text xml:space="preserve" text-anchor="middle" x="578.75" y="-377.7" font-family="Helvetica,sans-Serif" font-size="14.00">samples = 190</text>
<text xml:space="preserve" text-anchor="middle" x="578.75" y="-362.7" font-family="Helvetica,sans-Serif" font-size="14.00">value = [0.029, 0.091]</text>
<text xml:space="preserve" text-anchor="middle" x="578.75" y="-347.7" font-family="Helvetica,sans-Serif" font-size="14.00">class = NO_BUG</text>
</g>
<!-- 10&#45;&gt;12 -->
<g id="edge10" class="edge">
<title>10&#45;&gt;12</title>
<path fill="none" stroke="black" d="M481.86,-460.58C493.43,-451.49 505.8,-441.79 517.69,-432.45"/>
<polygon fill="black" stroke="black" points="519.77,-435.26 525.48,-426.33 515.45,-429.76 519.77,-435.26"/>
</g>
<!-- 13 -->
<g id="node12" class="node">
<title>13</title>
<path fill="#eb9c64" stroke="black" d="M606.25,-306C606.25,-306 455.25,-306 455.25,-306 449.25,-306 443.25,-300 443.25,-294 443.25,-294 443.25,-235 443.25,-235 443.25,-229 449.25,-223 455.25,-223 455.25,-223 606.25,-223 606.25,-223 612.25,-223 618.25,-229 618.25,-235 618.25,-235 618.25,-294 618.25,-294 618.25,-300 612.25,-306 606.25,-306"/>
<text xml:space="preserve" text-anchor="middle" x="530.75" y="-288.7" font-family="Helvetica,sans-Serif" font-size="14.00">&lt;function&gt; == &#39;sqrt&#39; &lt;= 0.5</text>
<text xml:space="preserve" text-anchor="middle" x="530.75" y="-273.7" font-family="Helvetica,sans-Serif" font-size="14.00">gini = 0.293</text>
<text xml:space="preserve" text-anchor="middle" x="530.75" y="-258.7" font-family="Helvetica,sans-Serif" font-size="14.00">samples = 15</text>
<text xml:space="preserve" text-anchor="middle" x="530.75" y="-243.7" font-family="Helvetica,sans-Serif" font-size="14.00">value = [0.029, 0.006]</text>
<text xml:space="preserve" text-anchor="middle" x="530.75" y="-228.7" font-family="Helvetica,sans-Serif" font-size="14.00">class = BUG</text>
</g>
<!-- 12&#45;&gt;13 -->
<g id="edge11" class="edge">
<title>12&#45;&gt;13</title>
<path fill="none" stroke="black" d="M561.96,-341.58C558.65,-333.52 555.15,-324.96 551.72,-316.61"/>
<polygon fill="black" stroke="black" points="555.06,-315.52 548.02,-307.6 548.58,-318.18 555.06,-315.52"/>
</g>
<!-- 20 -->
<g id="node17" class="node">
<title>20</title>
<path fill="#399de5" stroke="black" d="M755.5,-298.5C755.5,-298.5 648,-298.5 648,-298.5 642,-298.5 636,-292.5 636,-286.5 636,-286.5 636,-242.5 636,-242.5 636,-236.5 642,-230.5 648,-230.5 648,-230.5 755.5,-230.5 755.5,-230.5 761.5,-230.5 767.5,-236.5 767.5,-242.5 767.5,-242.5 767.5,-286.5 767.5,-286.5 767.5,-292.5 761.5,-298.5 755.5,-298.5"/>
<text xml:space="preserve" text-anchor="middle" x="701.75" y="-281.2" font-family="Helvetica,sans-Serif" font-size="14.00">gini = &#45;0.0</text>
<text xml:space="preserve" text-anchor="middle" x="701.75" y="-266.2" font-family="Helvetica,sans-Serif" font-size="14.00">samples = 175</text>
<text xml:space="preserve" text-anchor="middle" x="701.75" y="-251.2" font-family="Helvetica,sans-Serif" font-size="14.00">value = [0.0, 0.085]</text>
<text xml:space="preserve" text-anchor="middle" x="701.75" y="-236.2" font-family="Helvetica,sans-Serif" font-size="14.00">class = NO_BUG</text>
</g>
<!-- 12&#45;&gt;20 -->
<g id="edge16" class="edge">
<title>12&#45;&gt;20</title>
<path fill="none" stroke="black" d="M621.77,-341.58C633.7,-330.23 646.66,-317.9 658.6,-306.55"/>
<polygon fill="black" stroke="black" points="660.75,-309.33 665.58,-299.9 655.92,-304.26 660.75,-309.33"/>
</g>
<!-- 14 -->
<g id="node13" class="node">
<title>14</title>
<path fill="#399de5" stroke="black" d="M470.5,-179.5C470.5,-179.5 363,-179.5 363,-179.5 357,-179.5 351,-173.5 351,-167.5 351,-167.5 351,-123.5 351,-123.5 351,-117.5 357,-111.5 363,-111.5 363,-111.5 470.5,-111.5 470.5,-111.5 476.5,-111.5 482.5,-117.5 482.5,-123.5 482.5,-123.5 482.5,-167.5 482.5,-167.5 482.5,-173.5 476.5,-179.5 470.5,-179.5"/>
<text xml:space="preserve" text-anchor="middle" x="416.75" y="-162.2" font-family="Helvetica,sans-Serif" font-size="14.00">gini = 0.0</text>
<text xml:space="preserve" text-anchor="middle" x="416.75" y="-147.2" font-family="Helvetica,sans-Serif" font-size="14.00">samples = 11</text>
<text xml:space="preserve" text-anchor="middle" x="416.75" y="-132.2" font-family="Helvetica,sans-Serif" font-size="14.00">value = [0.0, 0.005]</text>
<text xml:space="preserve" text-anchor="middle" x="416.75" y="-117.2" font-family="Helvetica,sans-Serif" font-size="14.00">class = NO_BUG</text>
</g>
<!-- 13&#45;&gt;14 -->
<g id="edge12" class="edge">
<title>13&#45;&gt;14</title>
<path fill="none" stroke="black" d="M490.88,-222.58C479.92,-211.34 468.04,-199.14 457.06,-187.87"/>
<polygon fill="black" stroke="black" points="459.8,-185.66 450.31,-180.95 454.78,-190.55 459.8,-185.66"/>
</g>
<!-- 17 -->
<g id="node14" class="node">
<title>17</title>
<path fill="#e68540" stroke="black" d="M674.88,-187C674.88,-187 512.62,-187 512.62,-187 506.62,-187 500.62,-181 500.62,-175 500.62,-175 500.62,-116 500.62,-116 500.62,-110 506.62,-104 512.62,-104 512.62,-104 674.88,-104 674.88,-104 680.88,-104 686.88,-110 686.88,-116 686.88,-116 686.88,-175 686.88,-175 686.88,-181 680.88,-187 674.88,-187"/>
<text xml:space="preserve" text-anchor="middle" x="593.75" y="-169.7" font-family="Helvetica,sans-Serif" font-size="14.00">&lt;term&gt; == &#39;&#45;&lt;value&gt;&#39; &lt;= 0.5</text>
<text xml:space="preserve" text-anchor="middle" x="593.75" y="-154.7" font-family="Helvetica,sans-Serif" font-size="14.00">gini = 0.063</text>
<text xml:space="preserve" text-anchor="middle" x="593.75" y="-139.7" font-family="Helvetica,sans-Serif" font-size="14.00">samples = 4</text>
<text xml:space="preserve" text-anchor="middle" x="593.75" y="-124.7" font-family="Helvetica,sans-Serif" font-size="14.00">value = [0.029, 0.001]</text>
<text xml:space="preserve" text-anchor="middle" x="593.75" y="-109.7" font-family="Helvetica,sans-Serif" font-size="14.00">class = BUG</text>
</g>
<!-- 13&#45;&gt;17 -->
<g id="edge13" class="edge">
<title>13&#45;&gt;17</title>
<path fill="none" stroke="black" d="M552.78,-222.58C557.17,-214.43 561.83,-205.77 566.38,-197.34"/>
<polygon fill="black" stroke="black" points="569.46,-199 571.12,-188.53 563.29,-195.68 569.46,-199"/>
</g>
<!-- 18 -->
<g id="node15" class="node">
<title>18</title>
<path fill="#399de5" stroke="black" d="M572.5,-68C572.5,-68 465,-68 465,-68 459,-68 453,-62 453,-56 453,-56 453,-12 453,-12 453,-6 459,0 465,0 465,0 572.5,0 572.5,0 578.5,0 584.5,-6 584.5,-12 584.5,-12 584.5,-56 584.5,-56 584.5,-62 578.5,-68 572.5,-68"/>
<text xml:space="preserve" text-anchor="middle" x="518.75" y="-50.7" font-family="Helvetica,sans-Serif" font-size="14.00">gini = 0.0</text>
<text xml:space="preserve" text-anchor="middle" x="518.75" y="-35.7" font-family="Helvetica,sans-Serif" font-size="14.00">samples = 2</text>
<text xml:space="preserve" text-anchor="middle" x="518.75" y="-20.7" font-family="Helvetica,sans-Serif" font-size="14.00">value = [0.0, 0.001]</text>
<text xml:space="preserve" text-anchor="middle" x="518.75" y="-5.7" font-family="Helvetica,sans-Serif" font-size="14.00">class = NO_BUG</text>
</g>
<!-- 17&#45;&gt;18 -->
<g id="edge14" class="edge">
<title>17&#45;&gt;18</title>
<path fill="none" stroke="black" d="M565.82,-103.73C560.01,-95.24 553.87,-86.28 548.02,-77.73"/>
<polygon fill="black" stroke="black" points="550.95,-75.82 542.41,-69.55 545.18,-79.78 550.95,-75.82"/>
</g>
<!-- 19 -->
<g id="node16" class="node">
<title>19</title>
<path fill="#e58139" stroke="black" d="M722.5,-68C722.5,-68 615,-68 615,-68 609,-68 603,-62 603,-56 603,-56 603,-12 603,-12 603,-6 609,0 615,0 615,0 722.5,0 722.5,0 728.5,0 734.5,-6 734.5,-12 734.5,-12 734.5,-56 734.5,-56 734.5,-62 728.5,-68 722.5,-68"/>
<text xml:space="preserve" text-anchor="middle" x="668.75" y="-50.7" font-family="Helvetica,sans-Serif" font-size="14.00">gini = 0.0</text>
<text xml:space="preserve" text-anchor="middle" x="668.75" y="-35.7" font-family="Helvetica,sans-Serif" font-size="14.00">samples = 2</text>
<text xml:space="preserve" text-anchor="middle" x="668.75" y="-20.7" font-family="Helvetica,sans-Serif" font-size="14.00">value = [0.029, 0.0]</text>
<text xml:space="preserve" text-anchor="middle" x="668.75" y="-5.7" font-family="Helvetica,sans-Serif" font-size="14.00">class = BUG</text>
</g>
<!-- 17&#45;&gt;19 -->
<g id="edge15" class="edge">
<title>17&#45;&gt;19</title>
<path fill="none" stroke="black" d="M621.68,-103.73C627.49,-95.24 633.63,-86.28 639.48,-77.73"/>
<polygon fill="black" stroke="black" points="642.32,-79.78 645.09,-69.55 636.55,-75.82 642.32,-79.78"/>
</g>
</g>
</svg>