<svg xmlns="http://www.w3.org/2000/svg" xmlns:xlink="http://www.w3.org/1999/xlink" width="434pt" height="332pt" viewBox="0.00 0.00 434.00 332.00">
<g id="graph0" class="graph" transform="scale(1 1) rotate(0) translate(4 328)">
<polygon fill="white" stroke="none" points="-4,4 -4,-328 429.62,-328 429.62,4 -4,4"/>
<!-- 0 -->
<g id="node1" class="node">
<title>0</title>
<text xml:space="preserve" text-anchor="start" x="133.25" y="-301.95" font-family="Courier,monospace" font-weight="bold" font-size="14.00" fill="#004080">FunctionDef</text>
</g>
<!-- 1 -->
<g id="node2" class="node">
<title>1</title>
<text xml:space="preserve" text-anchor="middle" x="28.62" y="-228.95" font-family="Courier,monospace" font-size="14.00" fill="#008040">"foo"</text>
</g>
<!-- 0&#45;&#45;1 -->
<g id="edge1" class="edge">
<title>0--1</title>
<path fill="none" stroke="black" d="M178.62,-287C178.62,-287 115.4,-270.46 66.62,-252 63.52,-250.82 60.3,-249.52 57.11,-248.18"/>
</g>
<!-- 2 -->
<g id="node3" class="node">
<title>2</title>
<text xml:space="preserve" text-anchor="start" x="83.5" y="-229.95" font-family="Courier,monospace" font-weight="bold" font-size="14.00" fill="#004080">arguments</text>
</g>
<!-- 0&#45;&#45;2 -->
<g id="edge2" class="edge">
<title>0--2</title>
<path fill="none" stroke="black" d="M178.62,-287C178.62,-287 156.25,-266.94 139.3,-251.74"/>
</g>
<!-- 7 -->
<g id="node8" class="node">
<title>7</title>
<text xml:space="preserve" text-anchor="start" x="220.12" y="-229.95" font-family="Courier,monospace" font-weight="bold" font-size="14.00" fill="#004080">Expr</text>
</g>
<!-- 0&#45;&#45;7 -->
<g id="edge7" class="edge">
<title>0--7</title>
<path fill="none" stroke="black" d="M178.62,-287C178.62,-287 201,-266.94 217.95,-251.74"/>
</g>
<!-- 16 -->
<g id="node17" class="node">
<title>16</title>
<text xml:space="preserve" text-anchor="start" x="326.88" y="-229.95" font-family="Courier,monospace" font-weight="bold" font-size="14.00" fill="#004080">Return</text>
</g>
<!-- 0&#45;&#45;16 -->
<g id="edge16" class="edge">
<title>0--16</title>
<path fill="none" stroke="black" d="M178.62,-287C178.62,-287 268.97,-259.84 319.09,-244.78"/>
</g>
<!-- 3 -->
<g id="node4" class="node">
<title>3</title>
<text xml:space="preserve" text-anchor="start" x="23.25" y="-157.95" font-family="Courier,monospace" font-weight="bold" font-size="14.00" fill="#004080">arg</text>
</g>
<!-- 2&#45;&#45;3 -->
<g id="edge3" class="edge">
<title>2--3</title>
<path fill="none" stroke="black" d="M110.62,-215C110.62,-215 81.69,-194.94 59.77,-179.74"/>
</g>
<!-- 5 -->
<g id="node6" class="node">
<title>5</title>
<text xml:space="preserve" text-anchor="start" x="95.25" y="-157.95" font-family="Courier,monospace" font-weight="bold" font-size="14.00" fill="#004080">arg</text>
</g>
<!-- 2&#45;&#45;5 -->
<g id="edge5" class="edge">
<title>2--5</title>
<path fill="none" stroke="black" d="M110.62,-215C110.62,-215 109.47,-194.94 108.59,-179.74"/>
</g>
<!-- 4 -->
<g id="node5" class="node">
<title>4</title>
<text xml:space="preserve" text-anchor="middle" x="28.62" y="-84.95" font-family="Courier,monospace" font-size="14.00" fill="#008040">"a"</text>
</g>
<!-- 3&#45;&#45;4 -->
<g id="edge4" class="edge">
<title>3--4</title>
<path fill="none" stroke="black" d="M33.93,-144.05C32.83,-133.05 31.4,-118.76 30.3,-107.79"/>
</g>
<!-- 6 -->
<g id="node7" class="node">
<title>6</title>
<text xml:space="preserve" text-anchor="middle" x="100.62" y="-84.95" font-family="Courier,monospace" font-size="14.00" fill="#008040">"b"</text>
</g>
<!-- 5&#45;&#45;6 -->
<g id="edge6" class="edge">
<title>5--6</title>
<path fill="none" stroke="black" d="M105.93,-144.05C104.83,-133.05 103.4,-118.76 102.3,-107.79"/>
</g>
<!-- 8 -->
<g id="node9" class="node">
<title>8</title>
<text xml:space="preserve" text-anchor="start" x="214.88" y="-157.95" font-family="Courier,monospace" font-weight="bold" font-size="14.00" fill="#004080">BoolOp</text>
</g>
<!-- 7&#45;&#45;8 -->
<g id="edge8" class="edge">
<title>7--8</title>
<path fill="none" stroke="black" d="M237.35,-216.05C237.82,-205.05 238.44,-190.76 238.91,-179.79"/>
</g>
<!-- 9 -->
<g id="node10" class="node">
<title>9</title>
<text xml:space="preserve" text-anchor="middle" x="172.62" y="-84.95" font-family="Courier,monospace" font-size="14.00" fill="#008040">And</text>
</g>
<!-- 8&#45;&#45;9 -->
<g id="edge9" class="edge">
<title>8--9</title>
<path fill="none" stroke="black" d="M240.62,-143C240.62,-143 214.39,-122.94 194.51,-107.74"/>
</g>
<!-- 10 -->
<g id="node11" class="node">
<title>10</title>
<text xml:space="preserve" text-anchor="start" x="228.12" y="-85.95" font-family="Courier,monospace" font-weight="bold" font-size="14.00" fill="#004080">Name</text>
</g>
<!-- 8&#45;&#45;10 -->
<g id="edge10" class="edge">
<title>8--10</title>
<path fill="none" stroke="black" d="M240.62,-143C240.62,-143 242.17,-122.94 243.34,-107.74"/>
</g>
<!-- 13 -->
<g id="node14" class="node">
<title>13</title>
<text xml:space="preserve" text-anchor="start" x="300.12" y="-85.95" font-family="Courier,monospace" font-weight="bold" font-size="14.00" fill="#004080">Name</text>
</g>
<!-- 8&#45;&#45;13 -->
<g id="edge13" class="edge">
<title>8--13</title>
<path fill="none" stroke="black" d="M240.62,-143C240.62,-143 269.94,-122.94 292.16,-107.74"/>
</g>
<!-- 11 -->
<g id="node12" class="node">
<title>11</title>
<text xml:space="preserve" text-anchor="middle" x="172.62" y="-12.95" font-family="Courier,monospace" font-size="14.00" fill="#008040">"a"</text>
</g>
<!-- 10&#45;&#45;11 -->
<g id="edge11" class="edge">
<title>10--11</title>
<path fill="none" stroke="black" d="M237.62,-71C237.62,-71 212.55,-50.94 193.55,-35.74"/>
</g>
<!-- 12 -->
<g id="node13" class="node">
<title>12</title>
<text xml:space="preserve" text-anchor="middle" x="244.62" y="-12.95" font-family="Courier,monospace" font-size="14.00" fill="#008040">Load</text>
</g>
<!-- 10&#45;&#45;12 -->
<g id="edge12" class="edge">
<title>10--12</title>
<path fill="none" stroke="black" d="M237.62,-71C237.62,-71 240.33,-50.94 242.37,-35.74"/>
</g>
<!-- 14 -->
<g id="node15" class="node">
<title>14</title>
<text xml:space="preserve" text-anchor="middle" x="316.62" y="-12.95" font-family="Courier,monospace" font-size="14.00" fill="#008040">"b"</text>
</g>
<!-- 13&#45;&#45;14 -->
<g id="edge14" class="edge">
<title>13--14</title>
<path fill="none" stroke="black" d="M323.62,-71C323.62,-71 320.92,-50.94 318.88,-35.74"/>
</g>
<!-- 15 -->
<g id="node16" class="node">
<title>15</title>
<text xml:space="preserve" text-anchor="middle" x="388.62" y="-12.95" font-family="Courier,monospace" font-size="14.00" fill="#008040">Load</text>
</g>
<!-- 13&#45;&#45;15 -->
<g id="edge15" class="edge">
<title>13--15</title>
<path fill="none" stroke="black" d="M323.62,-71C323.62,-71 348.7,-50.94 367.7,-35.74"/>
</g>
<!-- 17 -->
<g id="node18" class="node">
<title>17</title>
<text xml:space="preserve" text-anchor="start" x="351.62" y="-157.95" font-family="Courier,monospace" font-weight="bold" font-size="14.00" fill="#004080">Constant</text>
</g>
<!-- 16&#45;&#45;17 -->
<g id="edge17" class="edge">
<title>16--17</title>
<path fill="none" stroke="black" d="M359.61,-216.05C364.8,-205.05 371.54,-190.76 376.71,-179.79"/>
</g>
<!-- 18 -->
<g id="node19" class="node">
<title>18</title>
<text xml:space="preserve" text-anchor="middle" x="388.62" y="-84.95" font-family="Courier,monospace" font-size="14.00" fill="#008040">0</text>
</g>
<!-- 17&#45;&#45;18 -->
<g id="edge18" class="edge">
<title>17--18</title>
<path fill="none" stroke="black" d="M385.59,-144.05C386.22,-133.05 387.04,-118.76 387.67,-107.79"/>
</g>
</g>
</svg>