<?xml version="1.0" encoding="UTF-8" standalone="no"?>
<!DOCTYPE svg PUBLIC "-//W3C//DTD SVG 1.1//EN"
 "http://www.w3.org/Graphics/SVG/1.1/DTD/svg11.dtd">
<!-- Generated by graphviz version 14.0.2 (20251019.1705)
 -->
<!-- Pages: 1 -->
<svg width="877pt" height="206pt"
 viewBox="0.00 0.00 877.00 206.00" xmlns="http://www.w3.org/2000/svg" xmlns:xlink="http://www.w3.org/1999/xlink">
<g id="graph0" class="graph" transform="scale(1 1) rotate(0) translate(4 202)">
<polygon fill="white" stroke="none" points="-4,4 -4,-202 872.8,-202 872.8,4 -4,4"/>
<!-- Hypothesis -->
<g id="node1" class="node">
<title>Hypothesis</title>
<ellipse fill="peachpuff" stroke="black" cx="218.76" cy="-99" rx="62.26" ry="18"/>
<text xml:space="preserve" text-anchor="middle" x="218.76" y="-94.33" font-family="Raleway" font-size="14.00">Hypothesis</text>
</g>
<!-- Observation -->
<g id="node2" class="node">
<title>Observation</title>
<ellipse fill="peachpuff" stroke="black" cx="802.34" cy="-99" rx="66.47" ry="18"/>
<text xml:space="preserve" text-anchor="middle" x="802.34" y="-94.33" font-family="Raleway" font-size="14.00">Observation</text>
</g>
<!-- Hypothesis&#45;&gt;Observation -->
<g id="edge1" class="edge">
<title>Hypothesis&#45;&gt;Observation</title>
<path fill="none" stroke="black" d="M271.41,-115.98C286.28,-120.11 302.64,-123.93 318.01,-126 485.76,-148.63 531,-147.75 698.87,-126 718.76,-123.42 740.28,-118.15 758.45,-112.94"/>
<polygon fill="black" stroke="black" points="272.39,-112.62 261.82,-113.21 270.45,-119.35 272.39,-112.62"/>
<text xml:space="preserve" text-anchor="start" x="465.75" y="-172.34" font-family="Raleway" font-size="14.00">Hypothesis</text>
<text xml:space="preserve" text-anchor="start" x="462" y="-158.34" font-family="Raleway" font-size="14.00">is </text>
<text xml:space="preserve" text-anchor="start" x="475.5" y="-158.34" font-family="Raleway" font-style="italic" font-size="14.00">supported:</text>
<text xml:space="preserve" text-anchor="start" x="476.25" y="-144.34" font-family="Raleway" font-size="14.00">Refine it</text>
</g>
<!-- Prediction -->
<g id="node3" class="node">
<title>Prediction</title>
<ellipse fill="peachpuff" stroke="black" cx="375.01" cy="-99" rx="57" ry="18"/>
<text xml:space="preserve" text-anchor="middle" x="375.01" y="-94.33" font-family="Raleway" font-size="14.00">Prediction</text>
</g>
<!-- Hypothesis&#45;&gt;Prediction -->
<g id="edge2" class="edge">
<title>Hypothesis&#45;&gt;Prediction</title>
<path fill="none" stroke="black" d="M281.16,-99C289.48,-99 298.05,-99 306.47,-99"/>
<polygon fill="black" stroke="black" points="306.3,-102.5 316.3,-99 306.3,-95.5 306.3,-102.5"/>
</g>
<!-- Observation&#45;&gt;Hypothesis -->
<g id="edge9" class="edge">
<title>Observation&#45;&gt;Hypothesis</title>
<path fill="none" stroke="black" d="M755.97,-85.72C738.27,-80.89 717.73,-75.71 698.87,-72 532.78,-39.34 483.72,-37.45 318.01,-72 303.38,-75.05 287.71,-79.03 273.28,-82.99"/>
<polygon fill="black" stroke="black" points="272.66,-79.52 263.98,-85.59 274.55,-86.27 272.66,-79.52"/>
<text xml:space="preserve" text-anchor="start" x="465.75" y="-79.17" font-family="Raleway" font-size="14.00">Hypothesis</text>
<text xml:space="preserve" text-anchor="start" x="469.13" y="-65.17" font-family="Raleway" font-size="14.00">is </text>
<text xml:space="preserve" text-anchor="start" x="482.63" y="-65.17" font-family="Raleway" font-style="italic" font-size="14.00">rejected:</text>
<text xml:space="preserve" text-anchor="start" x="450" y="-51.17" font-family="Raleway" font-size="14.00">Seek alternative</text>
</g>
<!-- Experiment -->
<g id="node4" class="node">
<title>Experiment</title>
<ellipse fill="peachpuff" stroke="black" cx="635.56" cy="-99" rx="63.31" ry="18"/>
<text xml:space="preserve" text-anchor="middle" x="635.56" y="-94.33" font-family="Raleway" font-size="14.00">Experiment</text>
</g>
<!-- Prediction&#45;&gt;Experiment -->
<g id="edge7" class="edge">
<title>Prediction&#45;&gt;Experiment</title>
<path fill="none" stroke="black" d="M432.43,-99C469.97,-99 519.68,-99 560.41,-99"/>
<polygon fill="black" stroke="black" points="560.4,-102.5 570.4,-99 560.4,-95.5 560.4,-102.5"/>
</g>
<!-- Experiment&#45;&gt;Observation -->
<g id="edge8" class="edge">
<title>Experiment&#45;&gt;Observation</title>
<path fill="none" stroke="black" d="M699.33,-99C707.45,-99 715.85,-99 724.18,-99"/>
<polygon fill="black" stroke="black" points="723.95,-102.5 733.95,-99 723.95,-95.5 723.95,-102.5"/>
</g>
<!-- Problem Report -->
<g id="node5" class="node">
<title>Problem Report</title>
<polygon fill="white" stroke="none" points="119.5,-198 0,-198 0,-162 119.5,-162 119.5,-198"/>
<text xml:space="preserve" text-anchor="middle" x="59.75" y="-175.32" font-family="Raleway" font-size="14.00">Problem Report</text>
</g>
<!-- Problem Report&#45;&gt;Hypothesis -->
<g id="edge3" class="edge">
<title>Problem Report&#45;&gt;Hypothesis</title>
<path fill="none" stroke="black" d="M100.75,-162.08C107.06,-159.12 113.49,-156.03 119.5,-153 139.65,-142.85 161.69,-130.82 179.78,-120.7"/>
<polygon fill="black" stroke="black" points="181.35,-123.84 188.35,-115.88 177.91,-117.73 181.35,-123.84"/>
</g>
<!-- Code -->
<g id="node6" class="node">
<title>Code</title>
<polygon fill="white" stroke="none" points="86.75,-144 32.75,-144 32.75,-108 86.75,-108 86.75,-144"/>
<text xml:space="preserve" text-anchor="middle" x="59.75" y="-121.33" font-family="Raleway" font-size="14.00">Code</text>
</g>
<!-- Code&#45;&gt;Hypothesis -->
<g id="edge4" class="edge">
<title>Code&#45;&gt;Hypothesis</title>
<path fill="none" stroke="black" d="M86.68,-121.54C104.79,-118.43 129.82,-114.12 153.15,-110.11"/>
<polygon fill="black" stroke="black" points="153.68,-113.57 162.94,-108.43 152.49,-106.67 153.68,-113.57"/>
</g>
<!-- Runs -->
<g id="node7" class="node">
<title>Runs</title>
<polygon fill="white" stroke="none" points="86.75,-90 32.75,-90 32.75,-54 86.75,-54 86.75,-90"/>
<text xml:space="preserve" text-anchor="middle" x="59.75" y="-67.33" font-family="Raleway" font-size="14.00">Runs</text>
</g>
<!-- Runs&#45;&gt;Hypothesis -->
<g id="edge5" class="edge">
<title>Runs&#45;&gt;Hypothesis</title>
<path fill="none" stroke="black" d="M86.68,-76.46C104.79,-79.57 129.82,-83.88 153.15,-87.89"/>
<polygon fill="black" stroke="black" points="152.49,-91.33 162.94,-89.57 153.68,-84.43 152.49,-91.33"/>
</g>
<!-- More Runs -->
<g id="node8" class="node">
<title>More Runs</title>
<polygon fill="white" stroke="none" points="102.25,-36 17.25,-36 17.25,0 102.25,0 102.25,-36"/>
<text xml:space="preserve" text-anchor="middle" x="59.75" y="-13.32" font-family="Raleway" font-size="14.00">More Runs</text>
</g>
<!-- More Runs&#45;&gt;Hypothesis -->
<g id="edge6" class="edge">
<title>More Runs&#45;&gt;Hypothesis</title>
<path fill="none" stroke="black" d="M100.75,-35.92C107.06,-38.88 113.49,-41.97 119.5,-45 139.65,-55.15 161.69,-67.18 179.78,-77.3"/>
<polygon fill="black" stroke="black" points="177.91,-80.27 188.35,-82.12 181.35,-74.16 177.91,-80.27"/>
</g>
</g>
</svg>