<?xml version="1.0" encoding="UTF-8" standalone="no"?>
<!DOCTYPE svg PUBLIC "-//W3C//DTD SVG 1.1//EN"
 "http://www.w3.org/Graphics/SVG/1.1/DTD/svg11.dtd">
<!-- Generated by graphviz version 14.0.2 (20251019.1705)
 -->
<!-- Title: dependencies Pages: 1 -->
<svg width="206pt" height="276pt"
 viewBox="0.00 0.00 206.00 276.00" xmlns="http://www.w3.org/2000/svg" xmlns:xlink="http://www.w3.org/1999/xlink">
<g id="graph0" class="graph" transform="scale(1 1) rotate(0) translate(4 272)">
<title>dependencies</title>
<polygon fill="white" stroke="none" points="-4,4 -4,-272 201.5,-272 201.5,4 -4,4"/>
<!-- fun_2returnvalue_functionfun_2at0x10e269760_2 -->
<g id="node1" class="node">
<title>fun_2returnvalue_functionfun_2at0x10e269760_2</title>
<g id="a_node1"><a xlink:title="fun_2:2">
<polygon fill="peachpuff" stroke="black" points="197.5,-40 0,-40 0,0 197.5,0 197.5,-40"/>
<text xml:space="preserve" text-anchor="start" x="8" y="-23.7" font-family="Courier,monospace" font-weight="bold" font-style="italic" font-size="14.00">&lt;fun_2() return value&gt;</text>
<text xml:space="preserve" text-anchor="start" x="59.38" y="-5.45" font-family="Courier,monospace" font-size="9.00">return fun_1(x)</text>
</a>
</g>
</g>
<!-- fun_1returnvalue_functionfun_1at0x10e269e40_2 -->
<g id="node2" class="node">
<title>fun_1returnvalue_functionfun_1at0x10e269e40_2</title>
<g id="a_node2"><a xlink:title="fun_1:2">
<polygon fill="peachpuff" stroke="black" points="197.5,-116 0,-116 0,-76 197.5,-76 197.5,-116"/>
<text xml:space="preserve" text-anchor="start" x="8" y="-99.7" font-family="Courier,monospace" font-weight="bold" font-style="italic" font-size="14.00">&lt;fun_1() return value&gt;</text>
<text xml:space="preserve" text-anchor="start" x="77.75" y="-81.45" font-family="Courier,monospace" font-size="9.00">return x</text>
</a>
</g>
</g>
<!-- fun_1returnvalue_functionfun_1at0x10e269e40_2&#45;&gt;fun_2returnvalue_functionfun_2at0x10e269760_2 -->
<g id="edge1" class="edge">
<title>fun_1returnvalue_functionfun_1at0x10e269e40_2&#45;&gt;fun_2returnvalue_functionfun_2at0x10e269760_2</title>
<path fill="none" stroke="black" d="M98.75,-75.56C98.75,-68.25 98.75,-59.75 98.75,-51.67"/>
<polygon fill="black" stroke="black" points="102.25,-51.83 98.75,-41.83 95.25,-51.83 102.25,-51.83"/>
</g>
<!-- x_functionfun_1at0x10e269e40_2 -->
<g id="node3" class="node">
<title>x_functionfun_1at0x10e269e40_2</title>
<g id="a_node3"><a xlink:title="fun_1:2">
<polygon fill="peachpuff" stroke="black" points="127.75,-192 69.75,-192 69.75,-152 127.75,-152 127.75,-192"/>
<text xml:space="preserve" text-anchor="start" x="94.62" y="-175.7" font-family="Courier,monospace" font-weight="bold" font-size="14.00">x</text>
<text xml:space="preserve" text-anchor="start" x="77.75" y="-157.45" font-family="Courier,monospace" font-size="9.00">return x</text>
</a>
</g>
</g>
<!-- x_functionfun_1at0x10e269e40_2&#45;&gt;fun_1returnvalue_functionfun_1at0x10e269e40_2 -->
<g id="edge2" class="edge">
<title>x_functionfun_1at0x10e269e40_2&#45;&gt;fun_1returnvalue_functionfun_1at0x10e269e40_2</title>
<path fill="none" stroke="black" d="M98.75,-151.56C98.75,-144.25 98.75,-135.75 98.75,-127.67"/>
<polygon fill="black" stroke="black" points="102.25,-127.83 98.75,-117.83 95.25,-127.83 102.25,-127.83"/>
</g>
<!-- x_functionfun_2at0x10e269760_2 -->
<g id="node4" class="node">
<title>x_functionfun_2at0x10e269760_2</title>
<g id="a_node4"><a xlink:title="fun_2:2">
<polygon fill="peachpuff" stroke="black" points="146.12,-268 51.38,-268 51.38,-228 146.12,-228 146.12,-268"/>
<text xml:space="preserve" text-anchor="start" x="94.62" y="-251.7" font-family="Courier,monospace" font-weight="bold" font-size="14.00">x</text>
<text xml:space="preserve" text-anchor="start" x="59.38" y="-233.45" font-family="Courier,monospace" font-size="9.00">return fun_1(x)</text>
</a>
</g>
</g>
<!-- x_functionfun_2at0x10e269760_2&#45;&gt;x_functionfun_1at0x10e269e40_2 -->
<g id="edge3" class="edge">
<title>x_functionfun_2at0x10e269760_2&#45;&gt;x_functionfun_1at0x10e269e40_2</title>
<path fill="none" stroke="black" d="M98.75,-227.56C98.75,-220.25 98.75,-211.75 98.75,-203.67"/>
<polygon fill="black" stroke="black" points="102.25,-203.83 98.75,-193.83 95.25,-203.83 102.25,-203.83"/>
</g>
</g>
</svg>