<?xml version="1.0" standalone="no"?>
<!DOCTYPE svg PUBLIC "-//W3C//DTD SVG 20010904//EN"
 "http://www.w3.org/TR/2001/REC-SVG-20010904/DTD/svg10.dtd">
<svg version="1.0" xmlns="http://www.w3.org/2000/svg"
 width="1320.000000pt" height="1320.000000pt" viewBox="0 0 1320.000000 1320.000000"
 preserveAspectRatio="xMidYMid meet">
<metadata>
Created by potrace 1.11, written by Peter Selinger 2001-2013
</metadata>
<g transform="translate(0.000000,1320.000000) scale(0.100000,-0.100000)"
fill="#000000" stroke="none">
<path d="M0 6600 l0 -6600 6600 0 6600 0 0 6600 0 6600 -6600 0 -6600 0 0
-6600z m9030 5380 c447 -27 755 -145 988 -378 165 -165 272 -374 332 -648 51
-234 50 -165 50 -2883 l0 -2534 -132 135 c-203 204 -416 371 -605 473 l-53 28
-3 2211 -2 2211 -22 82 c-70 259 -231 420 -488 489 -68 18 -162 19 -2805 19
-2626 0 -2738 -1 -2805 -18 -198 -53 -344 -165 -423 -327 -52 -105 -70 -174
-82 -315 -13 -146 -13 -7408 0 -7560 14 -169 40 -256 113 -372 78 -126 222
-221 403 -265 88 -21 102 -22 1170 -25 l1081 -4 29 -52 c102 -188 281 -416
478 -610 l130 -127 -1369 0 c-828 0 -1423 4 -1505 10 -424 32 -719 149 -946
376 -219 219 -344 541 -373 962 -15 207 -15 7566 -1 7772 24 341 105 605 253
825 62 91 220 242 320 304 211 130 461 202 767 220 194 12 5306 13 5500 1z
m-3843 -1725 c44 -50 39 -69 -197 -710 -121 -329 -220 -600 -220 -602 0 -2
186 -3 413 -4 292 0 422 -4 447 -12 50 -17 77 -74 61 -127 -12 -41 -1362
-1737 -1403 -1764 -34 -21 -81 -28 -111 -17 -33 13 -67 66 -67 104 0 15 99
296 220 625 121 329 220 604 220 610 0 9 -106 12 -431 12 l-431 0 -29 29 c-33
33 -39 87 -16 132 28 52 1377 1729 1404 1744 42 23 111 14 140 -20z m3088
-473 c234 -108 233 -438 -2 -554 l-48 -23 -1022 -3 -1023 -3 0 306 0 305 1023
-2 1022 -3 50 -23z m0 -1700 c70 -32 131 -95 155 -160 23 -62 26 -158 6 -215
-36 -101 -126 -178 -230 -196 -40 -7 -390 -11 -1043 -11 l-983 0 0 305 0 305
1023 -2 1022 -3 50 -23z m170 -2182 c267 -29 512 -101 735 -215 444 -228 788
-576 1003 -1015 328 -672 282 -1508 -118 -2134 l-57 -89 585 -586 c507 -508
589 -594 616 -648 38 -76 50 -149 40 -242 -25 -228 -202 -376 -432 -358 -178
13 -200 31 -850 687 -305 308 -558 560 -561 560 -4 0 -53 -27 -110 -61 -332
-193 -675 -282 -1086 -283 -269 0 -479 31 -702 106 -731 243 -1314 896 -1462
1638 -62 310 -58 647 10 945 207 906 1020 1618 1939 1698 91 8 366 6 450 -3z"/>
<path d="M7996 5189 c-630 -87 -1170 -616 -1272 -1247 -25 -158 -18 -402 16
-560 91 -415 405 -810 806 -1011 203 -103 415 -151 659 -151 409 0 747 141
1040 435 222 221 351 455 417 753 18 81 22 129 22 297 0 223 -15 322 -75 492
-170 482 -606 866 -1104 975 -105 23 -397 33 -509 17z"/>
</g>
</svg>
