<?xml version="1.0" encoding="UTF-8" standalone="no"?>
<!DOCTYPE svg PUBLIC "-//W3C//DTD SVG 1.1//EN"
 "http://www.w3.org/Graphics/SVG/1.1/DTD/svg11.dtd">
<!-- Generated by graphviz version 12.2.1 (20241206.2353)
 -->
<!-- Title: Tree Pages: 1 -->
<svg width="758pt" height="552pt"
 viewBox="0.00 0.00 757.50 552.00" xmlns="http://www.w3.org/2000/svg" xmlns:xlink="http://www.w3.org/1999/xlink">
<g id="graph0" class="graph" transform="scale(1 1) rotate(0) translate(4 548)">
<title>Tree</title>
<polygon fill="white" stroke="none" points="-4,4 -4,-548 753.5,-548 753.5,4 -4,4"/>
<!-- 0 -->
<g id="node1" class="node">
<title>0</title>
<path fill="#ffffff" stroke="black" d="M369.75,-544C369.75,-544 263.75,-544 263.75,-544 257.75,-544 251.75,-538 251.75,-532 251.75,-532 251.75,-473 251.75,-473 251.75,-467 257.75,-461 263.75,-461 263.75,-461 369.75,-461 369.75,-461 375.75,-461 381.75,-467 381.75,-473 381.75,-473 381.75,-532 381.75,-532 381.75,-538 375.75,-544 369.75,-544"/>
<text text-anchor="middle" x="316.75" y="-526.7" font-family="Helvetica,sans-Serif" font-size="14.00">&lt;lead&#45;digit&gt; &lt;= 3.5</text>
<text text-anchor="middle" x="316.75" y="-511.7" font-family="Helvetica,sans-Serif" font-size="14.00">gini = 0.5</text>
<text text-anchor="middle" x="316.75" y="-496.7" font-family="Helvetica,sans-Serif" font-size="14.00">samples = 1433</text>
<text text-anchor="middle" x="316.75" y="-481.7" font-family="Helvetica,sans-Serif" font-size="14.00">value = [1.0, 1.0]</text>
<text text-anchor="middle" x="316.75" y="-466.7" font-family="Helvetica,sans-Serif" font-size="14.00">class = BUG</text>
</g>
<!-- 1 -->
<g id="node2" class="node">
<title>1</title>
<path fill="#eca471" stroke="black" d="M298.25,-425C298.25,-425 147.25,-425 147.25,-425 141.25,-425 135.25,-419 135.25,-413 135.25,-413 135.25,-354 135.25,-354 135.25,-348 141.25,-342 147.25,-342 147.25,-342 298.25,-342 298.25,-342 304.25,-342 310.25,-348 310.25,-354 310.25,-354 310.25,-413 310.25,-413 310.25,-419 304.25,-425 298.25,-425"/>
<text text-anchor="middle" x="222.75" y="-407.7" font-family="Helvetica,sans-Serif" font-size="14.00">&lt;function&gt; == &#39;sqrt&#39; &lt;= 0.5</text>
<text text-anchor="middle" x="222.75" y="-392.7" font-family="Helvetica,sans-Serif" font-size="14.00">gini = 0.343</text>
<text text-anchor="middle" x="222.75" y="-377.7" font-family="Helvetica,sans-Serif" font-size="14.00">samples = 435</text>
<text text-anchor="middle" x="222.75" y="-362.7" font-family="Helvetica,sans-Serif" font-size="14.00">value = [0.982, 0.276]</text>
<text text-anchor="middle" x="222.75" y="-347.7" font-family="Helvetica,sans-Serif" font-size="14.00">class = BUG</text>
</g>
<!-- 0&#45;&gt;1 -->
<g id="edge1" class="edge">
<title>0&#45;&gt;1</title>
<path fill="none" stroke="black" d="M283.87,-460.58C276.96,-451.98 269.61,-442.82 262.48,-433.95"/>
<polygon fill="black" stroke="black" points="265.39,-431.98 256.4,-426.38 259.93,-436.37 265.39,-431.98"/>
<text text-anchor="middle" x="252.74" y="-444.25" font-family="Helvetica,sans-Serif" font-size="14.00">True</text>
</g>
<!-- 10 -->
<g id="node9" class="node">
<title>10</title>
<path fill="#3e9fe6" stroke="black" d="M483.5,-425C483.5,-425 340,-425 340,-425 334,-425 328,-419 328,-413 328,-413 328,-354 328,-354 328,-348 334,-342 340,-342 340,-342 483.5,-342 483.5,-342 489.5,-342 495.5,-348 495.5,-354 495.5,-354 495.5,-413 495.5,-413 495.5,-419 489.5,-425 483.5,-425"/>
<text text-anchor="middle" x="411.75" y="-407.7" font-family="Helvetica,sans-Serif" font-size="14.00">&lt;lead&#45;digit&gt; == &#39;4&#39; &lt;= 0.5</text>
<text text-anchor="middle" x="411.75" y="-392.7" font-family="Helvetica,sans-Serif" font-size="14.00">gini = 0.048</text>
<text text-anchor="middle" x="411.75" y="-377.7" font-family="Helvetica,sans-Serif" font-size="14.00">samples = 998</text>
<text text-anchor="middle" x="411.75" y="-362.7" font-family="Helvetica,sans-Serif" font-size="14.00">value = [0.018, 0.724]</text>
<text text-anchor="middle" x="411.75" y="-347.7" font-family="Helvetica,sans-Serif" font-size="14.00">class = NO_BUG</text>
</g>
<!-- 0&#45;&gt;10 -->
<g id="edge8" class="edge">
<title>0&#45;&gt;10</title>
<path fill="none" stroke="black" d="M349.98,-460.58C356.96,-451.98 364.4,-442.82 371.6,-433.95"/>
<polygon fill="black" stroke="black" points="374.16,-436.34 377.75,-426.38 368.73,-431.93 374.16,-436.34"/>
<text text-anchor="middle" x="381.28" y="-444.27" font-family="Helvetica,sans-Serif" font-size="14.00">False</text>
</g>
<!-- 2 -->
<g id="node3" class="node">
<title>2</title>
<path fill="#399de5" stroke="black" d="M127.75,-298.5C127.75,-298.5 27.75,-298.5 27.75,-298.5 21.75,-298.5 15.75,-292.5 15.75,-286.5 15.75,-286.5 15.75,-242.5 15.75,-242.5 15.75,-236.5 21.75,-230.5 27.75,-230.5 27.75,-230.5 127.75,-230.5 127.75,-230.5 133.75,-230.5 139.75,-236.5 139.75,-242.5 139.75,-242.5 139.75,-286.5 139.75,-286.5 139.75,-292.5 133.75,-298.5 127.75,-298.5"/>
<text text-anchor="middle" x="77.75" y="-281.2" font-family="Helvetica,sans-Serif" font-size="14.00">gini = &#45;0.0</text>
<text text-anchor="middle" x="77.75" y="-266.2" font-family="Helvetica,sans-Serif" font-size="14.00">samples = 221</text>
<text text-anchor="middle" x="77.75" y="-251.2" font-family="Helvetica,sans-Serif" font-size="14.00">value = [0.0, 0.16]</text>
<text text-anchor="middle" x="77.75" y="-236.2" font-family="Helvetica,sans-Serif" font-size="14.00">class = NO_BUG</text>
</g>
<!-- 1&#45;&gt;2 -->
<g id="edge2" class="edge">
<title>1&#45;&gt;2</title>
<path fill="none" stroke="black" d="M172.04,-341.58C157.7,-330.01 142.11,-317.43 127.81,-305.89"/>
<polygon fill="black" stroke="black" points="130.25,-303.37 120.27,-299.81 125.86,-308.82 130.25,-303.37"/>
</g>
<!-- 3 -->
<g id="node4" class="node">
<title>3</title>
<path fill="#e89050" stroke="black" d="M292,-306C292,-306 169.5,-306 169.5,-306 163.5,-306 157.5,-300 157.5,-294 157.5,-294 157.5,-235 157.5,-235 157.5,-229 163.5,-223 169.5,-223 169.5,-223 292,-223 292,-223 298,-223 304,-229 304,-235 304,-235 304,-294 304,-294 304,-300 298,-306 292,-306"/>
<text text-anchor="middle" x="230.75" y="-288.7" font-family="Helvetica,sans-Serif" font-size="14.00">&lt;term&gt; &lt;= &#45;11.708</text>
<text text-anchor="middle" x="230.75" y="-273.7" font-family="Helvetica,sans-Serif" font-size="14.00">gini = 0.189</text>
<text text-anchor="middle" x="230.75" y="-258.7" font-family="Helvetica,sans-Serif" font-size="14.00">samples = 214</text>
<text text-anchor="middle" x="230.75" y="-243.7" font-family="Helvetica,sans-Serif" font-size="14.00">value = [0.982, 0.116]</text>
<text text-anchor="middle" x="230.75" y="-228.7" font-family="Helvetica,sans-Serif" font-size="14.00">class = BUG</text>
</g>
<!-- 1&#45;&gt;3 -->
<g id="edge3" class="edge">
<title>1&#45;&gt;3</title>
<path fill="none" stroke="black" d="M225.55,-341.58C226.08,-333.79 226.65,-325.53 227.2,-317.45"/>
<polygon fill="black" stroke="black" points="230.67,-317.93 227.86,-307.71 223.69,-317.45 230.67,-317.93"/>
</g>
<!-- 4 -->
<g id="node5" class="node">
<title>4</title>
<path fill="#e68640" stroke="black" d="M186,-187C186,-187 63.5,-187 63.5,-187 57.5,-187 51.5,-181 51.5,-175 51.5,-175 51.5,-116 51.5,-116 51.5,-110 57.5,-104 63.5,-104 63.5,-104 186,-104 186,-104 192,-104 198,-110 198,-116 198,-116 198,-175 198,-175 198,-181 192,-187 186,-187"/>
<text text-anchor="middle" x="124.75" y="-169.7" font-family="Helvetica,sans-Serif" font-size="14.00">&lt;term&gt; &lt;= &#45;73.9</text>
<text text-anchor="middle" x="124.75" y="-154.7" font-family="Helvetica,sans-Serif" font-size="14.00">gini = 0.07</text>
<text text-anchor="middle" x="124.75" y="-139.7" font-family="Helvetica,sans-Serif" font-size="14.00">samples = 105</text>
<text text-anchor="middle" x="124.75" y="-124.7" font-family="Helvetica,sans-Serif" font-size="14.00">value = [0.982, 0.037]</text>
<text text-anchor="middle" x="124.75" y="-109.7" font-family="Helvetica,sans-Serif" font-size="14.00">class = BUG</text>
</g>
<!-- 3&#45;&gt;4 -->
<g id="edge4" class="edge">
<title>3&#45;&gt;4</title>
<path fill="none" stroke="black" d="M193.68,-222.58C185.8,-213.89 177.42,-204.63 169.3,-195.67"/>
<polygon fill="black" stroke="black" points="171.95,-193.38 162.64,-188.32 166.76,-198.08 171.95,-193.38"/>
</g>
<!-- 7 -->
<g id="node8" class="node">
<title>7</title>
<path fill="#399de5" stroke="black" d="M335.5,-179.5C335.5,-179.5 228,-179.5 228,-179.5 222,-179.5 216,-173.5 216,-167.5 216,-167.5 216,-123.5 216,-123.5 216,-117.5 222,-111.5 228,-111.5 228,-111.5 335.5,-111.5 335.5,-111.5 341.5,-111.5 347.5,-117.5 347.5,-123.5 347.5,-123.5 347.5,-167.5 347.5,-167.5 347.5,-173.5 341.5,-179.5 335.5,-179.5"/>
<text text-anchor="middle" x="281.75" y="-162.2" font-family="Helvetica,sans-Serif" font-size="14.00">gini = 0.0</text>
<text text-anchor="middle" x="281.75" y="-147.2" font-family="Helvetica,sans-Serif" font-size="14.00">samples = 109</text>
<text text-anchor="middle" x="281.75" y="-132.2" font-family="Helvetica,sans-Serif" font-size="14.00">value = [0.0, 0.079]</text>
<text text-anchor="middle" x="281.75" y="-117.2" font-family="Helvetica,sans-Serif" font-size="14.00">class = NO_BUG</text>
</g>
<!-- 3&#45;&gt;7 -->
<g id="edge7" class="edge">
<title>3&#45;&gt;7</title>
<path fill="none" stroke="black" d="M248.59,-222.58C253.15,-212.1 258.08,-200.79 262.71,-190.18"/>
<polygon fill="black" stroke="black" points="265.82,-191.81 266.6,-181.25 259.4,-189.02 265.82,-191.81"/>
</g>
<!-- 5 -->
<g id="node6" class="node">
<title>5</title>
<path fill="#399de5" stroke="black" d="M119.5,-68C119.5,-68 12,-68 12,-68 6,-68 0,-62 0,-56 0,-56 0,-12 0,-12 0,-6 6,0 12,0 12,0 119.5,0 119.5,0 125.5,0 131.5,-6 131.5,-12 131.5,-12 131.5,-56 131.5,-56 131.5,-62 125.5,-68 119.5,-68"/>
<text text-anchor="middle" x="65.75" y="-50.7" font-family="Helvetica,sans-Serif" font-size="14.00">gini = 0.0</text>
<text text-anchor="middle" x="65.75" y="-35.7" font-family="Helvetica,sans-Serif" font-size="14.00">samples = 51</text>
<text text-anchor="middle" x="65.75" y="-20.7" font-family="Helvetica,sans-Serif" font-size="14.00">value = [0.0, 0.037]</text>
<text text-anchor="middle" x="65.75" y="-5.7" font-family="Helvetica,sans-Serif" font-size="14.00">class = NO_BUG</text>
</g>
<!-- 4&#45;&gt;5 -->
<g id="edge5" class="edge">
<title>4&#45;&gt;5</title>
<path fill="none" stroke="black" d="M102.78,-103.73C98.31,-95.43 93.59,-86.67 89.07,-78.28"/>
<polygon fill="black" stroke="black" points="92.23,-76.78 84.41,-69.63 86.07,-80.1 92.23,-76.78"/>
</g>
<!-- 6 -->
<g id="node7" class="node">
<title>6</title>
<path fill="#e58139" stroke="black" d="M269.5,-68C269.5,-68 162,-68 162,-68 156,-68 150,-62 150,-56 150,-56 150,-12 150,-12 150,-6 156,0 162,0 162,0 269.5,0 269.5,0 275.5,0 281.5,-6 281.5,-12 281.5,-12 281.5,-56 281.5,-56 281.5,-62 275.5,-68 269.5,-68"/>
<text text-anchor="middle" x="215.75" y="-50.7" font-family="Helvetica,sans-Serif" font-size="14.00">gini = &#45;0.0</text>
<text text-anchor="middle" x="215.75" y="-35.7" font-family="Helvetica,sans-Serif" font-size="14.00">samples = 54</text>
<text text-anchor="middle" x="215.75" y="-20.7" font-family="Helvetica,sans-Serif" font-size="14.00">value = [0.982, 0.0]</text>
<text text-anchor="middle" x="215.75" y="-5.7" font-family="Helvetica,sans-Serif" font-size="14.00">class = BUG</text>
</g>
<!-- 4&#45;&gt;6 -->
<g id="edge6" class="edge">
<title>4&#45;&gt;6</title>
<path fill="none" stroke="black" d="M158.64,-103.73C165.91,-94.97 173.61,-85.7 180.92,-76.91"/>
<polygon fill="black" stroke="black" points="183.41,-79.39 187.11,-69.46 178.03,-74.92 183.41,-79.39"/>
</g>
<!-- 11 -->
<g id="node10" class="node">
<title>11</title>
<path fill="#399de5" stroke="black" d="M457.5,-298.5C457.5,-298.5 350,-298.5 350,-298.5 344,-298.5 338,-292.5 338,-286.5 338,-286.5 338,-242.5 338,-242.5 338,-236.5 344,-230.5 350,-230.5 350,-230.5 457.5,-230.5 457.5,-230.5 463.5,-230.5 469.5,-236.5 469.5,-242.5 469.5,-242.5 469.5,-286.5 469.5,-286.5 469.5,-292.5 463.5,-298.5 457.5,-298.5"/>
<text text-anchor="middle" x="403.75" y="-281.2" font-family="Helvetica,sans-Serif" font-size="14.00">gini = &#45;0.0</text>
<text text-anchor="middle" x="403.75" y="-266.2" font-family="Helvetica,sans-Serif" font-size="14.00">samples = 908</text>
<text text-anchor="middle" x="403.75" y="-251.2" font-family="Helvetica,sans-Serif" font-size="14.00">value = [0.0, 0.659]</text>
<text text-anchor="middle" x="403.75" y="-236.2" font-family="Helvetica,sans-Serif" font-size="14.00">class = NO_BUG</text>
</g>
<!-- 10&#45;&gt;11 -->
<g id="edge9" class="edge">
<title>10&#45;&gt;11</title>
<path fill="none" stroke="black" d="M408.95,-341.58C408.26,-331.43 407.51,-320.5 406.81,-310.18"/>
<polygon fill="black" stroke="black" points="410.31,-310.11 406.13,-300.37 403.32,-310.59 410.31,-310.11"/>
</g>
<!-- 12 -->
<g id="node11" class="node">
<title>12</title>
<path fill="#71b9ec" stroke="black" d="M622,-306C622,-306 499.5,-306 499.5,-306 493.5,-306 487.5,-300 487.5,-294 487.5,-294 487.5,-235 487.5,-235 487.5,-229 493.5,-223 499.5,-223 499.5,-223 622,-223 622,-223 628,-223 634,-229 634,-235 634,-235 634,-294 634,-294 634,-300 628,-306 622,-306"/>
<text text-anchor="middle" x="560.75" y="-288.7" font-family="Helvetica,sans-Serif" font-size="14.00">&lt;integer&gt; &lt;= 40.5</text>
<text text-anchor="middle" x="560.75" y="-273.7" font-family="Helvetica,sans-Serif" font-size="14.00">gini = 0.343</text>
<text text-anchor="middle" x="560.75" y="-258.7" font-family="Helvetica,sans-Serif" font-size="14.00">samples = 90</text>
<text text-anchor="middle" x="560.75" y="-243.7" font-family="Helvetica,sans-Serif" font-size="14.00">value = [0.018, 0.065]</text>
<text text-anchor="middle" x="560.75" y="-228.7" font-family="Helvetica,sans-Serif" font-size="14.00">class = NO_BUG</text>
</g>
<!-- 10&#45;&gt;12 -->
<g id="edge10" class="edge">
<title>10&#45;&gt;12</title>
<path fill="none" stroke="black" d="M463.86,-341.58C475.43,-332.49 487.8,-322.79 499.69,-313.45"/>
<polygon fill="black" stroke="black" points="501.77,-316.26 507.48,-307.33 497.45,-310.76 501.77,-316.26"/>
</g>
<!-- 13 -->
<g id="node12" class="node">
<title>13</title>
<path fill="#ea9a61" stroke="black" d="M587.62,-187C587.62,-187 429.88,-187 429.88,-187 423.88,-187 417.88,-181 417.88,-175 417.88,-175 417.88,-116 417.88,-116 417.88,-110 423.88,-104 429.88,-104 429.88,-104 587.62,-104 587.62,-104 593.62,-104 599.62,-110 599.62,-116 599.62,-116 599.62,-175 599.62,-175 599.62,-181 593.62,-187 587.62,-187"/>
<text text-anchor="middle" x="508.75" y="-169.7" font-family="Helvetica,sans-Serif" font-size="14.00">&lt;term&gt; == &#39;&lt;value&gt;&#39; &lt;= 0.5</text>
<text text-anchor="middle" x="508.75" y="-154.7" font-family="Helvetica,sans-Serif" font-size="14.00">gini = 0.277</text>
<text text-anchor="middle" x="508.75" y="-139.7" font-family="Helvetica,sans-Serif" font-size="14.00">samples = 6</text>
<text text-anchor="middle" x="508.75" y="-124.7" font-family="Helvetica,sans-Serif" font-size="14.00">value = [0.018, 0.004]</text>
<text text-anchor="middle" x="508.75" y="-109.7" font-family="Helvetica,sans-Serif" font-size="14.00">class = BUG</text>
</g>
<!-- 12&#45;&gt;13 -->
<g id="edge11" class="edge">
<title>12&#45;&gt;13</title>
<path fill="none" stroke="black" d="M542.56,-222.58C538.98,-214.52 535.18,-205.96 531.47,-197.61"/>
<polygon fill="black" stroke="black" points="534.71,-196.3 527.45,-188.58 528.32,-199.14 534.71,-196.3"/>
</g>
<!-- 16 -->
<g id="node15" class="node">
<title>16</title>
<path fill="#399de5" stroke="black" d="M737.5,-179.5C737.5,-179.5 630,-179.5 630,-179.5 624,-179.5 618,-173.5 618,-167.5 618,-167.5 618,-123.5 618,-123.5 618,-117.5 624,-111.5 630,-111.5 630,-111.5 737.5,-111.5 737.5,-111.5 743.5,-111.5 749.5,-117.5 749.5,-123.5 749.5,-123.5 749.5,-167.5 749.5,-167.5 749.5,-173.5 743.5,-179.5 737.5,-179.5"/>
<text text-anchor="middle" x="683.75" y="-162.2" font-family="Helvetica,sans-Serif" font-size="14.00">gini = &#45;0.0</text>
<text text-anchor="middle" x="683.75" y="-147.2" font-family="Helvetica,sans-Serif" font-size="14.00">samples = 84</text>
<text text-anchor="middle" x="683.75" y="-132.2" font-family="Helvetica,sans-Serif" font-size="14.00">value = [0.0, 0.061]</text>
<text text-anchor="middle" x="683.75" y="-117.2" font-family="Helvetica,sans-Serif" font-size="14.00">class = NO_BUG</text>
</g>
<!-- 12&#45;&gt;16 -->
<g id="edge14" class="edge">
<title>12&#45;&gt;16</title>
<path fill="none" stroke="black" d="M603.77,-222.58C615.7,-211.23 628.66,-198.9 640.6,-187.55"/>
<polygon fill="black" stroke="black" points="642.75,-190.33 647.58,-180.9 637.92,-185.26 642.75,-190.33"/>
</g>
<!-- 14 -->
<g id="node13" class="node">
<title>14</title>
<path fill="#e58139" stroke="black" d="M464.5,-68C464.5,-68 357,-68 357,-68 351,-68 345,-62 345,-56 345,-56 345,-12 345,-12 345,-6 351,0 357,0 357,0 464.5,0 464.5,0 470.5,0 476.5,-6 476.5,-12 476.5,-12 476.5,-56 476.5,-56 476.5,-62 470.5,-68 464.5,-68"/>
<text text-anchor="middle" x="410.75" y="-50.7" font-family="Helvetica,sans-Serif" font-size="14.00">gini = 0.0</text>
<text text-anchor="middle" x="410.75" y="-35.7" font-family="Helvetica,sans-Serif" font-size="14.00">samples = 1</text>
<text text-anchor="middle" x="410.75" y="-20.7" font-family="Helvetica,sans-Serif" font-size="14.00">value = [0.018, 0.0]</text>
<text text-anchor="middle" x="410.75" y="-5.7" font-family="Helvetica,sans-Serif" font-size="14.00">class = BUG</text>
</g>
<!-- 13&#45;&gt;14 -->
<g id="edge12" class="edge">
<title>13&#45;&gt;14</title>
<path fill="none" stroke="black" d="M472.26,-103.73C464.34,-94.88 455.96,-85.51 448.01,-76.63"/>
<polygon fill="black" stroke="black" points="450.84,-74.54 441.56,-69.43 445.62,-79.21 450.84,-74.54"/>
</g>
<!-- 15 -->
<g id="node14" class="node">
<title>15</title>
<path fill="#399de5" stroke="black" d="M614.5,-68C614.5,-68 507,-68 507,-68 501,-68 495,-62 495,-56 495,-56 495,-12 495,-12 495,-6 501,0 507,0 507,0 614.5,0 614.5,0 620.5,0 626.5,-6 626.5,-12 626.5,-12 626.5,-56 626.5,-56 626.5,-62 620.5,-68 614.5,-68"/>
<text text-anchor="middle" x="560.75" y="-50.7" font-family="Helvetica,sans-Serif" font-size="14.00">gini = 0.0</text>
<text text-anchor="middle" x="560.75" y="-35.7" font-family="Helvetica,sans-Serif" font-size="14.00">samples = 5</text>
<text text-anchor="middle" x="560.75" y="-20.7" font-family="Helvetica,sans-Serif" font-size="14.00">value = [0.0, 0.004]</text>
<text text-anchor="middle" x="560.75" y="-5.7" font-family="Helvetica,sans-Serif" font-size="14.00">class = NO_BUG</text>
</g>
<!-- 13&#45;&gt;15 -->
<g id="edge13" class="edge">
<title>13&#45;&gt;15</title>
<path fill="none" stroke="black" d="M528.11,-103.73C532.01,-95.52 536.12,-86.86 540.06,-78.56"/>
<polygon fill="black" stroke="black" points="543.16,-80.2 544.29,-69.67 536.84,-77.2 543.16,-80.2"/>
</g>
</g>
</svg>
