<?xml version="1.0" encoding="UTF-8" standalone="no"?>
<!DOCTYPE svg PUBLIC "-//W3C//DTD SVG 1.1//EN"
 "http://www.w3.org/Graphics/SVG/1.1/DTD/svg11.dtd">
<!-- Generated by graphviz version 12.2.1 (20241206.2353)
 -->
<!-- Title: Tree Pages: 1 -->
<svg width="375pt" height="433pt"
 viewBox="0.00 0.00 374.50 433.00" xmlns="http://www.w3.org/2000/svg" xmlns:xlink="http://www.w3.org/1999/xlink">
<g id="graph0" class="graph" transform="scale(1 1) rotate(0) translate(4 429)">
<title>Tree</title>
<polygon fill="white" stroke="none" points="-4,4 -4,-429 370.5,-429 370.5,4 -4,4"/>
<!-- 0 -->
<g id="node1" class="node">
<title>0</title>
<path fill="#ffffff" stroke="black" d="M274.25,-425C274.25,-425 177.25,-425 177.25,-425 171.25,-425 165.25,-419 165.25,-413 165.25,-413 165.25,-354 165.25,-354 165.25,-348 171.25,-342 177.25,-342 177.25,-342 274.25,-342 274.25,-342 280.25,-342 286.25,-348 286.25,-354 286.25,-354 286.25,-413 286.25,-413 286.25,-419 280.25,-425 274.25,-425"/>
<text text-anchor="middle" x="225.75" y="-407.7" font-family="Helvetica,sans-Serif" font-size="14.00">&lt;term&gt; &lt;= &#45;11.5</text>
<text text-anchor="middle" x="225.75" y="-392.7" font-family="Helvetica,sans-Serif" font-size="14.00">gini = 0.5</text>
<text text-anchor="middle" x="225.75" y="-377.7" font-family="Helvetica,sans-Serif" font-size="14.00">samples = 679</text>
<text text-anchor="middle" x="225.75" y="-362.7" font-family="Helvetica,sans-Serif" font-size="14.00">value = [1.0, 1.0]</text>
<text text-anchor="middle" x="225.75" y="-347.7" font-family="Helvetica,sans-Serif" font-size="14.00">class = NO_BUG</text>
</g>
<!-- 1 -->
<g id="node2" class="node">
<title>1</title>
<path fill="#eeaa7a" stroke="black" d="M204.5,-306C204.5,-306 97,-306 97,-306 91,-306 85,-300 85,-294 85,-294 85,-235 85,-235 85,-229 91,-223 97,-223 97,-223 204.5,-223 204.5,-223 210.5,-223 216.5,-229 216.5,-235 216.5,-235 216.5,-294 216.5,-294 216.5,-300 210.5,-306 204.5,-306"/>
<text text-anchor="middle" x="150.75" y="-288.7" font-family="Helvetica,sans-Serif" font-size="14.00">&lt;term&gt; &lt;= &#45;42.297</text>
<text text-anchor="middle" x="150.75" y="-273.7" font-family="Helvetica,sans-Serif" font-size="14.00">gini = 0.372</text>
<text text-anchor="middle" x="150.75" y="-258.7" font-family="Helvetica,sans-Serif" font-size="14.00">samples = 238</text>
<text text-anchor="middle" x="150.75" y="-243.7" font-family="Helvetica,sans-Serif" font-size="14.00">value = [1.0, 0.329]</text>
<text text-anchor="middle" x="150.75" y="-228.7" font-family="Helvetica,sans-Serif" font-size="14.00">class = BUG</text>
</g>
<!-- 0&#45;&gt;1 -->
<g id="edge1" class="edge">
<title>0&#45;&gt;1</title>
<path fill="none" stroke="black" d="M199.52,-341.58C194.18,-333.25 188.5,-324.39 182.98,-315.78"/>
<polygon fill="black" stroke="black" points="186,-314 177.66,-307.47 180.11,-317.78 186,-314"/>
<text text-anchor="middle" x="171.5" y="-324.82" font-family="Helvetica,sans-Serif" font-size="14.00">True</text>
</g>
<!-- 10 -->
<g id="node7" class="node">
<title>10</title>
<path fill="#399de5" stroke="black" d="M354.5,-298.5C354.5,-298.5 247,-298.5 247,-298.5 241,-298.5 235,-292.5 235,-286.5 235,-286.5 235,-242.5 235,-242.5 235,-236.5 241,-230.5 247,-230.5 247,-230.5 354.5,-230.5 354.5,-230.5 360.5,-230.5 366.5,-236.5 366.5,-242.5 366.5,-242.5 366.5,-286.5 366.5,-286.5 366.5,-292.5 360.5,-298.5 354.5,-298.5"/>
<text text-anchor="middle" x="300.75" y="-281.2" font-family="Helvetica,sans-Serif" font-size="14.00">gini = 0.0</text>
<text text-anchor="middle" x="300.75" y="-266.2" font-family="Helvetica,sans-Serif" font-size="14.00">samples = 441</text>
<text text-anchor="middle" x="300.75" y="-251.2" font-family="Helvetica,sans-Serif" font-size="14.00">value = [0.0, 0.671]</text>
<text text-anchor="middle" x="300.75" y="-236.2" font-family="Helvetica,sans-Serif" font-size="14.00">class = NO_BUG</text>
</g>
<!-- 0&#45;&gt;10 -->
<g id="edge6" class="edge">
<title>0&#45;&gt;10</title>
<path fill="none" stroke="black" d="M251.98,-341.58C258.84,-330.88 266.25,-319.32 273.17,-308.52"/>
<polygon fill="black" stroke="black" points="276.1,-310.44 278.55,-300.14 270.2,-306.67 276.1,-310.44"/>
<text text-anchor="middle" x="284.71" y="-317.48" font-family="Helvetica,sans-Serif" font-size="14.00">False</text>
</g>
<!-- 2 -->
<g id="node3" class="node">
<title>2</title>
<path fill="#399de5" stroke="black" d="M119.5,-179.5C119.5,-179.5 12,-179.5 12,-179.5 6,-179.5 0,-173.5 0,-167.5 0,-167.5 0,-123.5 0,-123.5 0,-117.5 6,-111.5 12,-111.5 12,-111.5 119.5,-111.5 119.5,-111.5 125.5,-111.5 131.5,-117.5 131.5,-123.5 131.5,-123.5 131.5,-167.5 131.5,-167.5 131.5,-173.5 125.5,-179.5 119.5,-179.5"/>
<text text-anchor="middle" x="65.75" y="-162.2" font-family="Helvetica,sans-Serif" font-size="14.00">gini = 0.0</text>
<text text-anchor="middle" x="65.75" y="-147.2" font-family="Helvetica,sans-Serif" font-size="14.00">samples = 180</text>
<text text-anchor="middle" x="65.75" y="-132.2" font-family="Helvetica,sans-Serif" font-size="14.00">value = [0.0, 0.274]</text>
<text text-anchor="middle" x="65.75" y="-117.2" font-family="Helvetica,sans-Serif" font-size="14.00">class = NO_BUG</text>
</g>
<!-- 1&#45;&gt;2 -->
<g id="edge2" class="edge">
<title>1&#45;&gt;2</title>
<path fill="none" stroke="black" d="M121.02,-222.58C113.09,-211.66 104.51,-199.85 96.52,-188.86"/>
<polygon fill="black" stroke="black" points="99.59,-187.12 90.88,-181.09 93.92,-191.23 99.59,-187.12"/>
</g>
<!-- 5 -->
<g id="node4" class="node">
<title>5</title>
<path fill="#e68844" stroke="black" d="M312.25,-187C312.25,-187 161.25,-187 161.25,-187 155.25,-187 149.25,-181 149.25,-175 149.25,-175 149.25,-116 149.25,-116 149.25,-110 155.25,-104 161.25,-104 161.25,-104 312.25,-104 312.25,-104 318.25,-104 324.25,-110 324.25,-116 324.25,-116 324.25,-175 324.25,-175 324.25,-181 318.25,-187 312.25,-187"/>
<text text-anchor="middle" x="236.75" y="-169.7" font-family="Helvetica,sans-Serif" font-size="14.00">&lt;function&gt; == &#39;sqrt&#39; &lt;= 0.5</text>
<text text-anchor="middle" x="236.75" y="-154.7" font-family="Helvetica,sans-Serif" font-size="14.00">gini = 0.098</text>
<text text-anchor="middle" x="236.75" y="-139.7" font-family="Helvetica,sans-Serif" font-size="14.00">samples = 58</text>
<text text-anchor="middle" x="236.75" y="-124.7" font-family="Helvetica,sans-Serif" font-size="14.00">value = [1.0, 0.055]</text>
<text text-anchor="middle" x="236.75" y="-109.7" font-family="Helvetica,sans-Serif" font-size="14.00">class = BUG</text>
</g>
<!-- 1&#45;&gt;5 -->
<g id="edge3" class="edge">
<title>1&#45;&gt;5</title>
<path fill="none" stroke="black" d="M180.83,-222.58C187.08,-214.07 193.74,-205.01 200.2,-196.23"/>
<polygon fill="black" stroke="black" points="202.83,-198.55 205.94,-188.42 197.19,-194.4 202.83,-198.55"/>
</g>
<!-- 6 -->
<g id="node5" class="node">
<title>6</title>
<path fill="#399de5" stroke="black" d="M219.5,-68C219.5,-68 112,-68 112,-68 106,-68 100,-62 100,-56 100,-56 100,-12 100,-12 100,-6 106,0 112,0 112,0 219.5,0 219.5,0 225.5,0 231.5,-6 231.5,-12 231.5,-12 231.5,-56 231.5,-56 231.5,-62 225.5,-68 219.5,-68"/>
<text text-anchor="middle" x="165.75" y="-50.7" font-family="Helvetica,sans-Serif" font-size="14.00">gini = 0.0</text>
<text text-anchor="middle" x="165.75" y="-35.7" font-family="Helvetica,sans-Serif" font-size="14.00">samples = 36</text>
<text text-anchor="middle" x="165.75" y="-20.7" font-family="Helvetica,sans-Serif" font-size="14.00">value = [0.0, 0.055]</text>
<text text-anchor="middle" x="165.75" y="-5.7" font-family="Helvetica,sans-Serif" font-size="14.00">class = NO_BUG</text>
</g>
<!-- 5&#45;&gt;6 -->
<g id="edge4" class="edge">
<title>5&#45;&gt;6</title>
<path fill="none" stroke="black" d="M210.31,-103.73C204.81,-95.24 199,-86.28 193.46,-77.73"/>
<polygon fill="black" stroke="black" points="196.54,-76.06 188.16,-69.57 190.67,-79.86 196.54,-76.06"/>
</g>
<!-- 9 -->
<g id="node6" class="node">
<title>9</title>
<path fill="#e58139" stroke="black" d="M354,-68C354,-68 261.5,-68 261.5,-68 255.5,-68 249.5,-62 249.5,-56 249.5,-56 249.5,-12 249.5,-12 249.5,-6 255.5,0 261.5,0 261.5,0 354,0 354,0 360,0 366,-6 366,-12 366,-12 366,-56 366,-56 366,-62 360,-68 354,-68"/>
<text text-anchor="middle" x="307.75" y="-50.7" font-family="Helvetica,sans-Serif" font-size="14.00">gini = 0.0</text>
<text text-anchor="middle" x="307.75" y="-35.7" font-family="Helvetica,sans-Serif" font-size="14.00">samples = 22</text>
<text text-anchor="middle" x="307.75" y="-20.7" font-family="Helvetica,sans-Serif" font-size="14.00">value = [1.0, 0.0]</text>
<text text-anchor="middle" x="307.75" y="-5.7" font-family="Helvetica,sans-Serif" font-size="14.00">class = BUG</text>
</g>
<!-- 5&#45;&gt;9 -->
<g id="edge5" class="edge">
<title>5&#45;&gt;9</title>
<path fill="none" stroke="black" d="M263.19,-103.73C268.69,-95.24 274.5,-86.28 280.04,-77.73"/>
<polygon fill="black" stroke="black" points="282.83,-79.86 285.34,-69.57 276.96,-76.06 282.83,-79.86"/>
</g>
</g>
</svg>
