<?xml version="1.0" encoding="UTF-8" standalone="no"?>
<!DOCTYPE svg PUBLIC "-//W3C//DTD SVG 1.1//EN"
 "http://www.w3.org/Graphics/SVG/1.1/DTD/svg11.dtd">
<!-- Generated by graphviz version 7.0.2 (20221119.0110)
 -->
<!-- Title: dependencies Pages: 1 -->
<svg width="342pt" height="276pt"
 viewBox="0.00 0.00 341.50 276.00" xmlns="http://www.w3.org/2000/svg" xmlns:xlink="http://www.w3.org/1999/xlink">
<g id="graph0" class="graph" transform="scale(1 1) rotate(0) translate(4 272)">
<title>dependencies</title>
<polygon fill="white" stroke="none" points="-4,4 -4,-272 337.5,-272 337.5,4 -4,4"/>
<!-- demoreturnvalue_functiondemoat0x107efc040_5 -->
<g id="node1" class="node">
<title>demoreturnvalue_functiondemoat0x107efc040_5</title>
<g id="a_node1"><a xlink:title="demo:5">
<polygon fill="peachpuff" stroke="black" points="333.5,-40 143.5,-40 143.5,0 333.5,0 333.5,-40"/>
<text text-anchor="start" x="151.5" y="-25.8" font-family="Courier,monospace" font-weight="bold" font-style="italic" font-size="14.00">&lt;demo() return value&gt;</text>
<text text-anchor="start" x="217" y="-6.8" font-family="Courier,monospace" font-size="9.00">return z</text>
</a>
</g>
</g>
<!-- z_functiondemoat0x107efc040_4 -->
<g id="node2" class="node">
<title>z_functiondemoat0x107efc040_4</title>
<g id="a_node2"><a xlink:title="demo:4">
<polygon fill="peachpuff" stroke="black" points="158.5,-116 104.5,-116 104.5,-76 158.5,-76 158.5,-116"/>
<text text-anchor="start" x="127" y="-101.8" font-family="Courier,monospace" font-weight="bold" font-size="14.00">z</text>
<text text-anchor="start" x="115.5" y="-82.8" font-family="Courier,monospace" font-size="9.00">z *= 2</text>
</a>
</g>
</g>
<!-- z_functiondemoat0x107efc040_4&#45;&gt;demoreturnvalue_functiondemoat0x107efc040_5 -->
<g id="edge1" class="edge">
<title>z_functiondemoat0x107efc040_4&#45;&gt;demoreturnvalue_functiondemoat0x107efc040_5</title>
<path fill="none" stroke="black" d="M153.59,-75.56C165.69,-66.63 181.02,-55.94 195.34,-46.39"/>
<polygon fill="black" stroke="black" points="196.88,-49.57 203.3,-41.15 193.02,-43.73 196.88,-49.57"/>
</g>
<!-- z_functiondemoat0x107efc040_4&#45;&gt;demoreturnvalue_functiondemoat0x107efc040_5 -->
<!-- z_functiondemoat0x107efc040_4&#45;&gt;z_functiondemoat0x107efc040_4 -->
<g id="edge6" class="edge">
<title>z_functiondemoat0x107efc040_4&#45;&gt;z_functiondemoat0x107efc040_4</title>
<path fill="none" stroke="black" d="M158.74,-110.24C168.52,-110.54 176.5,-105.8 176.5,-96 176.5,-90.34 173.83,-86.36 169.69,-84.07"/>
<polygon fill="black" stroke="black" points="170.73,-80.71 160.22,-82.08 169.28,-87.56 170.73,-80.71"/>
</g>
<!-- test_functiondemoat0x107efc040_3 -->
<g id="node3" class="node">
<title>test_functiondemoat0x107efc040_3</title>
<g id="a_node3"><a xlink:title="demo:3">
<polygon fill="peachpuff" stroke="black" points="125.5,-40 9.5,-40 9.5,0 125.5,0 125.5,-40"/>
<text text-anchor="start" x="42.5" y="-25.8" font-family="Courier,monospace" font-weight="bold" font-style="italic" font-size="14.00">&lt;test&gt;</text>
<text text-anchor="start" x="17.5" y="-6.8" font-family="Courier,monospace" font-size="9.00">while x &lt;= z &lt;= 64:</text>
</a>
</g>
</g>
<!-- z_functiondemoat0x107efc040_4&#45;&gt;test_functiondemoat0x107efc040_3 -->
<g id="edge2" class="edge">
<title>z_functiondemoat0x107efc040_4&#45;&gt;test_functiondemoat0x107efc040_3</title>
<path fill="none" stroke="black" d="M104.25,-77.09C95.36,-68.75 86.14,-58.62 78.8,-49.28"/>
<polygon fill="black" stroke="black" points="81.83,-47.49 73.07,-41.52 76.19,-51.65 81.83,-47.49"/>
</g>
<!-- test_functiondemoat0x107efc040_3&#45;&gt;z_functiondemoat0x107efc040_4 -->
<g id="edge8" class="edge">
<title>test_functiondemoat0x107efc040_3&#45;&gt;z_functiondemoat0x107efc040_4</title>
<path fill="none" stroke="grey" stroke-dasharray="5,2" d="M84.2,-40.31C91.24,-48.45 99.58,-58.09 107.27,-66.99"/>
<polygon fill="grey" stroke="grey" points="104.51,-69.14 113.69,-74.41 109.8,-64.56 104.51,-69.14"/>
</g>
<!-- test_functiondemoat0x107efc040_3&#45;&gt;z_functiondemoat0x107efc040_4 -->
<!-- x_functiondemoat0x107efc040_1 -->
<g id="node4" class="node">
<title>x_functiondemoat0x107efc040_1</title>
<g id="a_node4"><a xlink:title="demo:1">
<polygon fill="peachpuff" stroke="black" points="143,-268 0,-268 0,-228 143,-228 143,-268"/>
<text text-anchor="start" x="67" y="-253.8" font-family="Courier,monospace" font-weight="bold" font-size="14.00">x</text>
<text text-anchor="start" x="8" y="-234.8" font-family="Courier,monospace" font-size="9.00">def demo(x: int) &#45;&gt; int:</text>
</a>
</g>
</g>
<!-- x_functiondemoat0x107efc040_1&#45;&gt;test_functiondemoat0x107efc040_3 -->
<g id="edge3" class="edge">
<title>x_functiondemoat0x107efc040_1&#45;&gt;test_functiondemoat0x107efc040_3</title>
<path fill="none" stroke="black" d="M54.75,-227.53C47.3,-217.6 39.35,-204.9 35.5,-192 21.02,-143.42 39.28,-85.04 53.57,-50.59"/>
<polygon fill="black" stroke="black" points="56.67,-52.25 57.43,-41.68 50.25,-49.47 56.67,-52.25"/>
</g>
<!-- z_functiondemoat0x107efc040_2 -->
<g id="node5" class="node">
<title>z_functiondemoat0x107efc040_2</title>
<g id="a_node5"><a xlink:title="demo:2">
<polygon fill="peachpuff" stroke="black" points="98.5,-192 44.5,-192 44.5,-152 98.5,-152 98.5,-192"/>
<text text-anchor="start" x="67" y="-177.8" font-family="Courier,monospace" font-weight="bold" font-size="14.00">z</text>
<text text-anchor="start" x="58" y="-158.8" font-family="Courier,monospace" font-size="9.00">z = x</text>
</a>
</g>
</g>
<!-- x_functiondemoat0x107efc040_1&#45;&gt;z_functiondemoat0x107efc040_2 -->
<g id="edge5" class="edge">
<title>x_functiondemoat0x107efc040_1&#45;&gt;z_functiondemoat0x107efc040_2</title>
<path fill="none" stroke="black" d="M65.48,-227.56C64.82,-220.25 64.61,-211.75 64.84,-203.67"/>
<polygon fill="black" stroke="black" points="68.32,-204.01 65.4,-193.82 61.34,-203.61 68.32,-204.01"/>
</g>
<!-- x_functiondemoat0x107efc040_1&#45;&gt;z_functiondemoat0x107efc040_2 -->
<!-- z_functiondemoat0x107efc040_2&#45;&gt;z_functiondemoat0x107efc040_4 -->
<g id="edge7" class="edge">
<title>z_functiondemoat0x107efc040_2&#45;&gt;z_functiondemoat0x107efc040_4</title>
<path fill="none" stroke="black" d="M87.26,-151.56C93.81,-143.48 101.53,-133.96 108.68,-125.15"/>
<polygon fill="black" stroke="black" points="111.31,-127.46 114.89,-117.49 105.87,-123.05 111.31,-127.46"/>
</g>
<!-- z_functiondemoat0x107efc040_2&#45;&gt;test_functiondemoat0x107efc040_3 -->
<g id="edge4" class="edge">
<title>z_functiondemoat0x107efc040_2&#45;&gt;test_functiondemoat0x107efc040_3</title>
<path fill="none" stroke="black" d="M66.28,-151.7C63.21,-126.38 61.72,-81.68 62.75,-51.69"/>
<polygon fill="black" stroke="black" points="66.24,-51.9 63.24,-41.74 59.25,-51.55 66.24,-51.9"/>
</g>
<!-- z_functiondemoat0x107efc040_2&#45;&gt;test_functiondemoat0x107efc040_3 -->
</g>
</svg>
