<?xml version="1.0" encoding="UTF-8" standalone="no"?>
<!DOCTYPE svg PUBLIC "-//W3C//DTD SVG 1.1//EN"
 "http://www.w3.org/Graphics/SVG/1.1/DTD/svg11.dtd">
<!-- Generated by graphviz version 2.49.3 (20211023.0002)
 -->
<!-- Title: dependencies Pages: 1 -->
<svg width="348pt" height="276pt"
 viewBox="0.00 0.00 347.50 276.00" xmlns="http://www.w3.org/2000/svg" xmlns:xlink="http://www.w3.org/1999/xlink">
<g id="graph0" class="graph" transform="scale(1 1) rotate(0) translate(4 272)">
<title>dependencies</title>
<polygon fill="white" stroke="transparent" points="-4,4 -4,-272 343.5,-272 343.5,4 -4,4"/>
<!-- demoreturnvalue_functiondemoat0x1130714c0_5 -->
<g id="node1" class="node">
<title>demoreturnvalue_functiondemoat0x1130714c0_5</title>
<g id="a_node1"><a xlink:title="demo:5">
<polygon fill="peachpuff" stroke="black" points="193,-40 0,-40 0,0 193,0 193,-40"/>
<text text-anchor="start" x="8" y="-25.8" font-family="Fira Mono, Courier, monospace" font-weight="bold" font-style="italic" font-size="14.00">&lt;demo() return value&gt;</text>
<text text-anchor="start" x="74.5" y="-6.8" font-family="Fira Mono, Courier, monospace" font-size="9.00">return z</text>
</a>
</g>
</g>
<!-- z_functiondemoat0x1130714c0_4 -->
<g id="node2" class="node">
<title>z_functiondemoat0x1130714c0_4</title>
<g id="a_node2"><a xlink:title="demo:4">
<polygon fill="peachpuff" stroke="black" points="215.5,-116 161.5,-116 161.5,-76 215.5,-76 215.5,-116"/>
<text text-anchor="start" x="184" y="-101.8" font-family="Fira Mono, Courier, monospace" font-weight="bold" font-size="14.00">z</text>
<text text-anchor="start" x="172" y="-82.8" font-family="Fira Mono, Courier, monospace" font-size="9.00">z *= 2</text>
</a>
</g>
</g>
<!-- z_functiondemoat0x1130714c0_4&#45;&gt;demoreturnvalue_functiondemoat0x1130714c0_5 -->
<g id="edge1" class="edge">
<title>z_functiondemoat0x1130714c0_4&#45;&gt;demoreturnvalue_functiondemoat0x1130714c0_5</title>
<path fill="none" stroke="black" d="M161.36,-77.84C148.88,-68.59 134.25,-57 121.99,-46.7"/>
<polygon fill="black" stroke="black" points="124.19,-43.98 114.31,-40.15 119.65,-49.31 124.19,-43.98"/>
</g>
<!-- z_functiondemoat0x1130714c0_4&#45;&gt;demoreturnvalue_functiondemoat0x1130714c0_5 -->
<!-- z_functiondemoat0x1130714c0_4&#45;&gt;z_functiondemoat0x1130714c0_4 -->
<g id="edge3" class="edge">
<title>z_functiondemoat0x1130714c0_4&#45;&gt;z_functiondemoat0x1130714c0_4</title>
<path fill="none" stroke="black" d="M215.74,-110.24C225.52,-110.54 233.5,-105.8 233.5,-96 233.5,-89.88 230.38,-85.73 225.66,-83.55"/>
<polygon fill="black" stroke="black" points="226.2,-80.09 215.74,-81.76 224.96,-86.98 226.2,-80.09"/>
</g>
<!-- test_functiondemoat0x1130714c0_3 -->
<g id="node5" class="node">
<title>test_functiondemoat0x1130714c0_3</title>
<g id="a_node5"><a xlink:title="demo:3">
<polygon fill="peachpuff" stroke="black" points="330,-40 211,-40 211,0 330,0 330,-40"/>
<text text-anchor="start" x="245" y="-25.8" font-family="Fira Mono, Courier, monospace" font-weight="bold" font-style="italic" font-size="14.00">&lt;test&gt;</text>
<text text-anchor="start" x="219" y="-6.8" font-family="Fira Mono, Courier, monospace" font-size="9.00">while x &lt;= z &lt;= 64:</text>
</a>
</g>
</g>
<!-- z_functiondemoat0x1130714c0_4&#45;&gt;test_functiondemoat0x1130714c0_3 -->
<g id="edge6" class="edge">
<title>z_functiondemoat0x1130714c0_4&#45;&gt;test_functiondemoat0x1130714c0_3</title>
<path fill="none" stroke="black" d="M197.64,-75.94C205.87,-67.04 217.45,-56.3 229.11,-46.69"/>
<polygon fill="black" stroke="black" points="231.54,-49.23 237.16,-40.25 227.16,-43.76 231.54,-49.23"/>
</g>
<!-- x_functiondemoat0x1130714c0_1 -->
<g id="node3" class="node">
<title>x_functiondemoat0x1130714c0_1</title>
<g id="a_node3"><a xlink:title="demo:1">
<polygon fill="peachpuff" stroke="black" points="339.5,-268 193.5,-268 193.5,-228 339.5,-228 339.5,-268"/>
<text text-anchor="start" x="262" y="-253.8" font-family="Fira Mono, Courier, monospace" font-weight="bold" font-size="14.00">x</text>
<text text-anchor="start" x="201.5" y="-234.8" font-family="Fira Mono, Courier, monospace" font-size="9.00">def demo(x: int) &#45;&gt; int:</text>
</a>
</g>
</g>
<!-- z_functiondemoat0x1130714c0_2 -->
<g id="node4" class="node">
<title>z_functiondemoat0x1130714c0_2</title>
<g id="a_node4"><a xlink:title="demo:2">
<polygon fill="peachpuff" stroke="black" points="293.5,-192 239.5,-192 239.5,-152 293.5,-152 293.5,-192"/>
<text text-anchor="start" x="262" y="-177.8" font-family="Fira Mono, Courier, monospace" font-weight="bold" font-size="14.00">z</text>
<text text-anchor="start" x="252.5" y="-158.8" font-family="Fira Mono, Courier, monospace" font-size="9.00">z = x</text>
</a>
</g>
</g>
<!-- x_functiondemoat0x1130714c0_1&#45;&gt;z_functiondemoat0x1130714c0_2 -->
<g id="edge2" class="edge">
<title>x_functiondemoat0x1130714c0_1&#45;&gt;z_functiondemoat0x1130714c0_2</title>
<path fill="none" stroke="black" d="M260.51,-227.94C259.79,-220.15 259.58,-210.95 259.88,-202.34"/>
<polygon fill="black" stroke="black" points="263.38,-202.44 260.49,-192.25 256.39,-202.02 263.38,-202.44"/>
</g>
<!-- x_functiondemoat0x1130714c0_1&#45;&gt;z_functiondemoat0x1130714c0_2 -->
<!-- x_functiondemoat0x1130714c0_1&#45;&gt;test_functiondemoat0x1130714c0_3 -->
<g id="edge7" class="edge">
<title>x_functiondemoat0x1130714c0_1&#45;&gt;test_functiondemoat0x1130714c0_3</title>
<path fill="none" stroke="black" d="M283.06,-227.79C290.57,-217.81 298.62,-205.01 302.5,-192 317.15,-142.87 298.3,-83.71 283.94,-49.42"/>
<polygon fill="black" stroke="black" points="287.05,-47.81 279.85,-40.03 280.63,-50.6 287.05,-47.81"/>
</g>
<!-- z_functiondemoat0x1130714c0_2&#45;&gt;z_functiondemoat0x1130714c0_4 -->
<g id="edge4" class="edge">
<title>z_functiondemoat0x1130714c0_2&#45;&gt;z_functiondemoat0x1130714c0_4</title>
<path fill="none" stroke="black" d="M246.41,-151.94C237.2,-143.21 226.14,-132.71 216.16,-123.24"/>
<polygon fill="black" stroke="black" points="218.45,-120.59 208.79,-116.25 213.64,-125.67 218.45,-120.59"/>
</g>
<!-- z_functiondemoat0x1130714c0_2&#45;&gt;test_functiondemoat0x1130714c0_3 -->
<g id="edge8" class="edge">
<title>z_functiondemoat0x1130714c0_2&#45;&gt;test_functiondemoat0x1130714c0_3</title>
<path fill="none" stroke="black" d="M262.31,-151.7C260.56,-126.05 261.51,-80.48 264.22,-50.5"/>
<polygon fill="black" stroke="black" points="267.73,-50.54 265.29,-40.23 260.77,-49.81 267.73,-50.54"/>
</g>
<!-- z_functiondemoat0x1130714c0_2&#45;&gt;test_functiondemoat0x1130714c0_3 -->
<!-- test_functiondemoat0x1130714c0_3&#45;&gt;z_functiondemoat0x1130714c0_4 -->
<g id="edge5" class="edge">
<title>test_functiondemoat0x1130714c0_3&#45;&gt;z_functiondemoat0x1130714c0_4</title>
<path fill="none" stroke="grey" stroke-dasharray="5,2" d="M249.17,-40.25C239.37,-49.1 227.59,-59.72 217.04,-69.24"/>
<polygon fill="grey" stroke="grey" points="214.7,-66.65 209.62,-75.94 219.39,-71.84 214.7,-66.65"/>
</g>
<!-- test_functiondemoat0x1130714c0_3&#45;&gt;z_functiondemoat0x1130714c0_4 -->
</g>
</svg>
