<?xml version="1.0" encoding="UTF-8" standalone="no"?>
<!DOCTYPE svg PUBLIC "-//W3C//DTD SVG 1.1//EN"
 "http://www.w3.org/Graphics/SVG/1.1/DTD/svg11.dtd">
<!-- Generated by graphviz version 12.2.1 (20241206.2353)
 -->
<!-- Title: Tree Pages: 1 -->
<svg width="438pt" height="552pt"
 viewBox="0.00 0.00 437.75 552.00" xmlns="http://www.w3.org/2000/svg" xmlns:xlink="http://www.w3.org/1999/xlink">
<g id="graph0" class="graph" transform="scale(1 1) rotate(0) translate(4 548)">
<title>Tree</title>
<polygon fill="white" stroke="none" points="-4,4 -4,-548 433.75,-548 433.75,4 -4,4"/>
<!-- 0 -->
<g id="node1" class="node">
<title>0</title>
<path fill="#ffffff" stroke="black" d="M349.75,-544C349.75,-544 243.75,-544 243.75,-544 237.75,-544 231.75,-538 231.75,-532 231.75,-532 231.75,-473 231.75,-473 231.75,-467 237.75,-461 243.75,-461 243.75,-461 349.75,-461 349.75,-461 355.75,-461 361.75,-467 361.75,-473 361.75,-473 361.75,-532 361.75,-532 361.75,-538 355.75,-544 349.75,-544"/>
<text text-anchor="middle" x="296.75" y="-526.7" font-family="Helvetica,sans-Serif" font-size="14.00">&lt;lead&#45;digit&gt; &lt;= 4.5</text>
<text text-anchor="middle" x="296.75" y="-511.7" font-family="Helvetica,sans-Serif" font-size="14.00">gini = 0.5</text>
<text text-anchor="middle" x="296.75" y="-496.7" font-family="Helvetica,sans-Serif" font-size="14.00">samples = 823</text>
<text text-anchor="middle" x="296.75" y="-481.7" font-family="Helvetica,sans-Serif" font-size="14.00">value = [1.0, 1.0]</text>
<text text-anchor="middle" x="296.75" y="-466.7" font-family="Helvetica,sans-Serif" font-size="14.00">class = NO_BUG</text>
</g>
<!-- 1 -->
<g id="node2" class="node">
<title>1</title>
<path fill="#eeac7c" stroke="black" d="M275.75,-425C275.75,-425 175.75,-425 175.75,-425 169.75,-425 163.75,-419 163.75,-413 163.75,-413 163.75,-354 163.75,-354 163.75,-348 169.75,-342 175.75,-342 175.75,-342 275.75,-342 275.75,-342 281.75,-342 287.75,-348 287.75,-354 287.75,-354 287.75,-413 287.75,-413 287.75,-419 281.75,-425 275.75,-425"/>
<text text-anchor="middle" x="225.75" y="-407.7" font-family="Helvetica,sans-Serif" font-size="14.00">&lt;integer&gt; &lt;= 42.5</text>
<text text-anchor="middle" x="225.75" y="-392.7" font-family="Helvetica,sans-Serif" font-size="14.00">gini = 0.379</text>
<text text-anchor="middle" x="225.75" y="-377.7" font-family="Helvetica,sans-Serif" font-size="14.00">samples = 303</text>
<text text-anchor="middle" x="225.75" y="-362.7" font-family="Helvetica,sans-Serif" font-size="14.00">value = [1.0, 0.34]</text>
<text text-anchor="middle" x="225.75" y="-347.7" font-family="Helvetica,sans-Serif" font-size="14.00">class = BUG</text>
</g>
<!-- 0&#45;&gt;1 -->
<g id="edge1" class="edge">
<title>0&#45;&gt;1</title>
<path fill="none" stroke="black" d="M271.92,-460.58C266.86,-452.25 261.49,-443.39 256.26,-434.78"/>
<polygon fill="black" stroke="black" points="259.41,-433.23 251.23,-426.49 253.43,-436.86 259.41,-433.23"/>
<text text-anchor="middle" x="244.51" y="-443.68" font-family="Helvetica,sans-Serif" font-size="14.00">True</text>
</g>
<!-- 12 -->
<g id="node9" class="node">
<title>12</title>
<path fill="#399de5" stroke="black" d="M417.75,-417.5C417.75,-417.5 317.75,-417.5 317.75,-417.5 311.75,-417.5 305.75,-411.5 305.75,-405.5 305.75,-405.5 305.75,-361.5 305.75,-361.5 305.75,-355.5 311.75,-349.5 317.75,-349.5 317.75,-349.5 417.75,-349.5 417.75,-349.5 423.75,-349.5 429.75,-355.5 429.75,-361.5 429.75,-361.5 429.75,-405.5 429.75,-405.5 429.75,-411.5 423.75,-417.5 417.75,-417.5"/>
<text text-anchor="middle" x="367.75" y="-400.2" font-family="Helvetica,sans-Serif" font-size="14.00">gini = 0.0</text>
<text text-anchor="middle" x="367.75" y="-385.2" font-family="Helvetica,sans-Serif" font-size="14.00">samples = 520</text>
<text text-anchor="middle" x="367.75" y="-370.2" font-family="Helvetica,sans-Serif" font-size="14.00">value = [0.0, 0.66]</text>
<text text-anchor="middle" x="367.75" y="-355.2" font-family="Helvetica,sans-Serif" font-size="14.00">class = NO_BUG</text>
</g>
<!-- 0&#45;&gt;12 -->
<g id="edge8" class="edge">
<title>0&#45;&gt;12</title>
<path fill="none" stroke="black" d="M321.58,-460.58C328.07,-449.88 335.09,-438.32 341.64,-427.52"/>
<polygon fill="black" stroke="black" points="344.52,-429.52 346.72,-419.16 338.54,-425.89 344.52,-429.52"/>
<text text-anchor="middle" x="353.45" y="-436.34" font-family="Helvetica,sans-Serif" font-size="14.00">False</text>
</g>
<!-- 2 -->
<g id="node3" class="node">
<title>2</title>
<path fill="#e99457" stroke="black" d="M216.25,-306C216.25,-306 65.25,-306 65.25,-306 59.25,-306 53.25,-300 53.25,-294 53.25,-294 53.25,-235 53.25,-235 53.25,-229 59.25,-223 65.25,-223 65.25,-223 216.25,-223 216.25,-223 222.25,-223 228.25,-229 228.25,-235 228.25,-235 228.25,-294 228.25,-294 228.25,-300 222.25,-306 216.25,-306"/>
<text text-anchor="middle" x="140.75" y="-288.7" font-family="Helvetica,sans-Serif" font-size="14.00">&lt;function&gt; == &#39;sqrt&#39; &lt;= 0.5</text>
<text text-anchor="middle" x="140.75" y="-273.7" font-family="Helvetica,sans-Serif" font-size="14.00">gini = 0.228</text>
<text text-anchor="middle" x="140.75" y="-258.7" font-family="Helvetica,sans-Serif" font-size="14.00">samples = 154</text>
<text text-anchor="middle" x="140.75" y="-243.7" font-family="Helvetica,sans-Serif" font-size="14.00">value = [1.0, 0.151]</text>
<text text-anchor="middle" x="140.75" y="-228.7" font-family="Helvetica,sans-Serif" font-size="14.00">class = BUG</text>
</g>
<!-- 1&#45;&gt;2 -->
<g id="edge2" class="edge">
<title>1&#45;&gt;2</title>
<path fill="none" stroke="black" d="M196.02,-341.58C189.9,-333.16 183.4,-324.2 177.08,-315.5"/>
<polygon fill="black" stroke="black" points="179.92,-313.46 171.21,-307.42 174.25,-317.57 179.92,-313.46"/>
</g>
<!-- 9 -->
<g id="node8" class="node">
<title>9</title>
<path fill="#399de5" stroke="black" d="M365.5,-298.5C365.5,-298.5 258,-298.5 258,-298.5 252,-298.5 246,-292.5 246,-286.5 246,-286.5 246,-242.5 246,-242.5 246,-236.5 252,-230.5 258,-230.5 258,-230.5 365.5,-230.5 365.5,-230.5 371.5,-230.5 377.5,-236.5 377.5,-242.5 377.5,-242.5 377.5,-286.5 377.5,-286.5 377.5,-292.5 371.5,-298.5 365.5,-298.5"/>
<text text-anchor="middle" x="311.75" y="-281.2" font-family="Helvetica,sans-Serif" font-size="14.00">gini = 0.0</text>
<text text-anchor="middle" x="311.75" y="-266.2" font-family="Helvetica,sans-Serif" font-size="14.00">samples = 149</text>
<text text-anchor="middle" x="311.75" y="-251.2" font-family="Helvetica,sans-Serif" font-size="14.00">value = [0.0, 0.189]</text>
<text text-anchor="middle" x="311.75" y="-236.2" font-family="Helvetica,sans-Serif" font-size="14.00">class = NO_BUG</text>
</g>
<!-- 1&#45;&gt;9 -->
<g id="edge7" class="edge">
<title>1&#45;&gt;9</title>
<path fill="none" stroke="black" d="M255.83,-341.58C263.85,-330.66 272.54,-318.85 280.61,-307.86"/>
<polygon fill="black" stroke="black" points="283.23,-310.21 286.33,-300.08 277.59,-306.07 283.23,-310.21"/>
</g>
<!-- 3 -->
<g id="node4" class="node">
<title>3</title>
<path fill="#399de5" stroke="black" d="M119.5,-179.5C119.5,-179.5 12,-179.5 12,-179.5 6,-179.5 0,-173.5 0,-167.5 0,-167.5 0,-123.5 0,-123.5 0,-117.5 6,-111.5 12,-111.5 12,-111.5 119.5,-111.5 119.5,-111.5 125.5,-111.5 131.5,-117.5 131.5,-123.5 131.5,-123.5 131.5,-167.5 131.5,-167.5 131.5,-173.5 125.5,-179.5 119.5,-179.5"/>
<text text-anchor="middle" x="65.75" y="-162.2" font-family="Helvetica,sans-Serif" font-size="14.00">gini = 0.0</text>
<text text-anchor="middle" x="65.75" y="-147.2" font-family="Helvetica,sans-Serif" font-size="14.00">samples = 76</text>
<text text-anchor="middle" x="65.75" y="-132.2" font-family="Helvetica,sans-Serif" font-size="14.00">value = [0.0, 0.096]</text>
<text text-anchor="middle" x="65.75" y="-117.2" font-family="Helvetica,sans-Serif" font-size="14.00">class = NO_BUG</text>
</g>
<!-- 2&#45;&gt;3 -->
<g id="edge3" class="edge">
<title>2&#45;&gt;3</title>
<path fill="none" stroke="black" d="M114.52,-222.58C107.66,-211.88 100.25,-200.32 93.33,-189.52"/>
<polygon fill="black" stroke="black" points="96.3,-187.67 87.95,-181.14 90.4,-191.44 96.3,-187.67"/>
</g>
<!-- 4 -->
<g id="node5" class="node">
<title>4</title>
<path fill="#e68844" stroke="black" d="M269.5,-187C269.5,-187 162,-187 162,-187 156,-187 150,-181 150,-175 150,-175 150,-116 150,-116 150,-110 156,-104 162,-104 162,-104 269.5,-104 269.5,-104 275.5,-104 281.5,-110 281.5,-116 281.5,-116 281.5,-175 281.5,-175 281.5,-181 275.5,-187 269.5,-187"/>
<text text-anchor="middle" x="215.75" y="-169.7" font-family="Helvetica,sans-Serif" font-size="14.00">&lt;term&gt; &lt;= &#45;11.75</text>
<text text-anchor="middle" x="215.75" y="-154.7" font-family="Helvetica,sans-Serif" font-size="14.00">gini = 0.098</text>
<text text-anchor="middle" x="215.75" y="-139.7" font-family="Helvetica,sans-Serif" font-size="14.00">samples = 78</text>
<text text-anchor="middle" x="215.75" y="-124.7" font-family="Helvetica,sans-Serif" font-size="14.00">value = [1.0, 0.055]</text>
<text text-anchor="middle" x="215.75" y="-109.7" font-family="Helvetica,sans-Serif" font-size="14.00">class = BUG</text>
</g>
<!-- 2&#45;&gt;4 -->
<g id="edge4" class="edge">
<title>2&#45;&gt;4</title>
<path fill="none" stroke="black" d="M166.98,-222.58C172.32,-214.25 178,-205.39 183.52,-196.78"/>
<polygon fill="black" stroke="black" points="186.39,-198.78 188.84,-188.47 180.5,-195 186.39,-198.78"/>
</g>
<!-- 5 -->
<g id="node6" class="node">
<title>5</title>
<path fill="#e58139" stroke="black" d="M191,-68C191,-68 98.5,-68 98.5,-68 92.5,-68 86.5,-62 86.5,-56 86.5,-56 86.5,-12 86.5,-12 86.5,-6 92.5,0 98.5,0 98.5,0 191,0 191,0 197,0 203,-6 203,-12 203,-12 203,-56 203,-56 203,-62 197,-68 191,-68"/>
<text text-anchor="middle" x="144.75" y="-50.7" font-family="Helvetica,sans-Serif" font-size="14.00">gini = 0.0</text>
<text text-anchor="middle" x="144.75" y="-35.7" font-family="Helvetica,sans-Serif" font-size="14.00">samples = 35</text>
<text text-anchor="middle" x="144.75" y="-20.7" font-family="Helvetica,sans-Serif" font-size="14.00">value = [1.0, 0.0]</text>
<text text-anchor="middle" x="144.75" y="-5.7" font-family="Helvetica,sans-Serif" font-size="14.00">class = BUG</text>
</g>
<!-- 4&#45;&gt;5 -->
<g id="edge5" class="edge">
<title>4&#45;&gt;5</title>
<path fill="none" stroke="black" d="M189.31,-103.73C183.81,-95.24 178,-86.28 172.46,-77.73"/>
<polygon fill="black" stroke="black" points="175.54,-76.06 167.16,-69.57 169.67,-79.86 175.54,-76.06"/>
</g>
<!-- 6 -->
<g id="node7" class="node">
<title>6</title>
<path fill="#399de5" stroke="black" d="M340.5,-68C340.5,-68 233,-68 233,-68 227,-68 221,-62 221,-56 221,-56 221,-12 221,-12 221,-6 227,0 233,0 233,0 340.5,0 340.5,0 346.5,0 352.5,-6 352.5,-12 352.5,-12 352.5,-56 352.5,-56 352.5,-62 346.5,-68 340.5,-68"/>
<text text-anchor="middle" x="286.75" y="-50.7" font-family="Helvetica,sans-Serif" font-size="14.00">gini = 0.0</text>
<text text-anchor="middle" x="286.75" y="-35.7" font-family="Helvetica,sans-Serif" font-size="14.00">samples = 43</text>
<text text-anchor="middle" x="286.75" y="-20.7" font-family="Helvetica,sans-Serif" font-size="14.00">value = [0.0, 0.055]</text>
<text text-anchor="middle" x="286.75" y="-5.7" font-family="Helvetica,sans-Serif" font-size="14.00">class = NO_BUG</text>
</g>
<!-- 4&#45;&gt;6 -->
<g id="edge6" class="edge">
<title>4&#45;&gt;6</title>
<path fill="none" stroke="black" d="M242.19,-103.73C247.69,-95.24 253.5,-86.28 259.04,-77.73"/>
<polygon fill="black" stroke="black" points="261.83,-79.86 264.34,-69.57 255.96,-76.06 261.83,-79.86"/>
</g>
</g>
</svg>
