<?xml version="1.0" encoding="UTF-8" standalone="no"?>
<!DOCTYPE svg PUBLIC "-//W3C//DTD SVG 1.1//EN"
 "http://www.w3.org/Graphics/SVG/1.1/DTD/svg11.dtd">
<!-- Generated by graphviz version 12.2.1 (20241206.2353)
 -->
<!-- Title: Tree Pages: 1 -->
<svg width="443pt" height="552pt"
 viewBox="0.00 0.00 442.75 552.00" xmlns="http://www.w3.org/2000/svg" xmlns:xlink="http://www.w3.org/1999/xlink">
<g id="graph0" class="graph" transform="scale(1 1) rotate(0) translate(4 548)">
<title>Tree</title>
<polygon fill="white" stroke="none" points="-4,4 -4,-548 438.75,-548 438.75,4 -4,4"/>
<!-- 0 -->
<g id="node1" class="node">
<title>0</title>
<path fill="#ffffff" stroke="black" d="M347,-544C347,-544 241,-544 241,-544 235,-544 229,-538 229,-532 229,-532 229,-473 229,-473 229,-467 235,-461 241,-461 241,-461 347,-461 347,-461 353,-461 359,-467 359,-473 359,-473 359,-532 359,-532 359,-538 353,-544 347,-544"/>
<text text-anchor="middle" x="294" y="-526.7" font-family="Helvetica,sans-Serif" font-size="14.00">&lt;lead&#45;digit&gt; &lt;= 4.5</text>
<text text-anchor="middle" x="294" y="-511.7" font-family="Helvetica,sans-Serif" font-size="14.00">gini = 0.5</text>
<text text-anchor="middle" x="294" y="-496.7" font-family="Helvetica,sans-Serif" font-size="14.00">samples = 1270</text>
<text text-anchor="middle" x="294" y="-481.7" font-family="Helvetica,sans-Serif" font-size="14.00">value = [1.0, 1.0]</text>
<text text-anchor="middle" x="294" y="-466.7" font-family="Helvetica,sans-Serif" font-size="14.00">class = NO_BUG</text>
</g>
<!-- 1 -->
<g id="node2" class="node">
<title>1</title>
<path fill="#eca470" stroke="black" d="M272.75,-425C272.75,-425 165.25,-425 165.25,-425 159.25,-425 153.25,-419 153.25,-413 153.25,-413 153.25,-354 153.25,-354 153.25,-348 159.25,-342 165.25,-342 165.25,-342 272.75,-342 272.75,-342 278.75,-342 284.75,-348 284.75,-354 284.75,-354 284.75,-413 284.75,-413 284.75,-419 278.75,-425 272.75,-425"/>
<text text-anchor="middle" x="219" y="-407.7" font-family="Helvetica,sans-Serif" font-size="14.00">&lt;value&gt; &lt;= 42.15</text>
<text text-anchor="middle" x="219" y="-392.7" font-family="Helvetica,sans-Serif" font-size="14.00">gini = 0.341</text>
<text text-anchor="middle" x="219" y="-377.7" font-family="Helvetica,sans-Serif" font-size="14.00">samples = 391</text>
<text text-anchor="middle" x="219" y="-362.7" font-family="Helvetica,sans-Serif" font-size="14.00">value = [1.0, 0.278]</text>
<text text-anchor="middle" x="219" y="-347.7" font-family="Helvetica,sans-Serif" font-size="14.00">class = BUG</text>
</g>
<!-- 0&#45;&gt;1 -->
<g id="edge1" class="edge">
<title>0&#45;&gt;1</title>
<path fill="none" stroke="black" d="M267.77,-460.58C262.43,-452.25 256.75,-443.39 251.23,-434.78"/>
<polygon fill="black" stroke="black" points="254.25,-433 245.91,-426.47 248.36,-436.78 254.25,-433"/>
<text text-anchor="middle" x="239.75" y="-443.82" font-family="Helvetica,sans-Serif" font-size="14.00">True</text>
</g>
<!-- 12 -->
<g id="node9" class="node">
<title>12</title>
<path fill="#399de5" stroke="black" d="M422.75,-417.5C422.75,-417.5 315.25,-417.5 315.25,-417.5 309.25,-417.5 303.25,-411.5 303.25,-405.5 303.25,-405.5 303.25,-361.5 303.25,-361.5 303.25,-355.5 309.25,-349.5 315.25,-349.5 315.25,-349.5 422.75,-349.5 422.75,-349.5 428.75,-349.5 434.75,-355.5 434.75,-361.5 434.75,-361.5 434.75,-405.5 434.75,-405.5 434.75,-411.5 428.75,-417.5 422.75,-417.5"/>
<text text-anchor="middle" x="369" y="-400.2" font-family="Helvetica,sans-Serif" font-size="14.00">gini = &#45;0.0</text>
<text text-anchor="middle" x="369" y="-385.2" font-family="Helvetica,sans-Serif" font-size="14.00">samples = 879</text>
<text text-anchor="middle" x="369" y="-370.2" font-family="Helvetica,sans-Serif" font-size="14.00">value = [0.0, 0.722]</text>
<text text-anchor="middle" x="369" y="-355.2" font-family="Helvetica,sans-Serif" font-size="14.00">class = NO_BUG</text>
</g>
<!-- 0&#45;&gt;12 -->
<g id="edge8" class="edge">
<title>0&#45;&gt;12</title>
<path fill="none" stroke="black" d="M320.23,-460.58C327.09,-449.88 334.5,-438.32 341.42,-427.52"/>
<polygon fill="black" stroke="black" points="344.35,-429.44 346.8,-419.14 338.45,-425.67 344.35,-429.44"/>
<text text-anchor="middle" x="352.96" y="-436.48" font-family="Helvetica,sans-Serif" font-size="14.00">False</text>
</g>
<!-- 2 -->
<g id="node3" class="node">
<title>2</title>
<path fill="#e88f4f" stroke="black" d="M209.5,-306C209.5,-306 58.5,-306 58.5,-306 52.5,-306 46.5,-300 46.5,-294 46.5,-294 46.5,-235 46.5,-235 46.5,-229 52.5,-223 58.5,-223 58.5,-223 209.5,-223 209.5,-223 215.5,-223 221.5,-229 221.5,-235 221.5,-235 221.5,-294 221.5,-294 221.5,-300 215.5,-306 209.5,-306"/>
<text text-anchor="middle" x="134" y="-288.7" font-family="Helvetica,sans-Serif" font-size="14.00">&lt;function&gt; == &#39;sqrt&#39; &lt;= 0.5</text>
<text text-anchor="middle" x="134" y="-273.7" font-family="Helvetica,sans-Serif" font-size="14.00">gini = 0.179</text>
<text text-anchor="middle" x="134" y="-258.7" font-family="Helvetica,sans-Serif" font-size="14.00">samples = 186</text>
<text text-anchor="middle" x="134" y="-243.7" font-family="Helvetica,sans-Serif" font-size="14.00">value = [1.0, 0.11]</text>
<text text-anchor="middle" x="134" y="-228.7" font-family="Helvetica,sans-Serif" font-size="14.00">class = BUG</text>
</g>
<!-- 1&#45;&gt;2 -->
<g id="edge2" class="edge">
<title>1&#45;&gt;2</title>
<path fill="none" stroke="black" d="M189.27,-341.58C183.15,-333.16 176.65,-324.2 170.33,-315.5"/>
<polygon fill="black" stroke="black" points="173.17,-313.46 164.46,-307.42 167.5,-317.57 173.17,-313.46"/>
</g>
<!-- 9 -->
<g id="node8" class="node">
<title>9</title>
<path fill="#399de5" stroke="black" d="M358.75,-298.5C358.75,-298.5 251.25,-298.5 251.25,-298.5 245.25,-298.5 239.25,-292.5 239.25,-286.5 239.25,-286.5 239.25,-242.5 239.25,-242.5 239.25,-236.5 245.25,-230.5 251.25,-230.5 251.25,-230.5 358.75,-230.5 358.75,-230.5 364.75,-230.5 370.75,-236.5 370.75,-242.5 370.75,-242.5 370.75,-286.5 370.75,-286.5 370.75,-292.5 364.75,-298.5 358.75,-298.5"/>
<text text-anchor="middle" x="305" y="-281.2" font-family="Helvetica,sans-Serif" font-size="14.00">gini = 0.0</text>
<text text-anchor="middle" x="305" y="-266.2" font-family="Helvetica,sans-Serif" font-size="14.00">samples = 205</text>
<text text-anchor="middle" x="305" y="-251.2" font-family="Helvetica,sans-Serif" font-size="14.00">value = [0.0, 0.168]</text>
<text text-anchor="middle" x="305" y="-236.2" font-family="Helvetica,sans-Serif" font-size="14.00">class = NO_BUG</text>
</g>
<!-- 1&#45;&gt;9 -->
<g id="edge7" class="edge">
<title>1&#45;&gt;9</title>
<path fill="none" stroke="black" d="M249.08,-341.58C257.1,-330.66 265.79,-318.85 273.86,-307.86"/>
<polygon fill="black" stroke="black" points="276.48,-310.21 279.58,-300.08 270.84,-306.07 276.48,-310.21"/>
</g>
<!-- 3 -->
<g id="node4" class="node">
<title>3</title>
<path fill="#399de5" stroke="black" d="M112,-179.5C112,-179.5 12,-179.5 12,-179.5 6,-179.5 0,-173.5 0,-167.5 0,-167.5 0,-123.5 0,-123.5 0,-117.5 6,-111.5 12,-111.5 12,-111.5 112,-111.5 112,-111.5 118,-111.5 124,-117.5 124,-123.5 124,-123.5 124,-167.5 124,-167.5 124,-173.5 118,-179.5 112,-179.5"/>
<text text-anchor="middle" x="62" y="-162.2" font-family="Helvetica,sans-Serif" font-size="14.00">gini = &#45;0.0</text>
<text text-anchor="middle" x="62" y="-147.2" font-family="Helvetica,sans-Serif" font-size="14.00">samples = 97</text>
<text text-anchor="middle" x="62" y="-132.2" font-family="Helvetica,sans-Serif" font-size="14.00">value = [0.0, 0.08]</text>
<text text-anchor="middle" x="62" y="-117.2" font-family="Helvetica,sans-Serif" font-size="14.00">class = NO_BUG</text>
</g>
<!-- 2&#45;&gt;3 -->
<g id="edge3" class="edge">
<title>2&#45;&gt;3</title>
<path fill="none" stroke="black" d="M108.82,-222.58C102.24,-211.88 95.12,-200.32 88.47,-189.52"/>
<polygon fill="black" stroke="black" points="91.55,-187.83 83.32,-181.15 85.58,-191.5 91.55,-187.83"/>
</g>
<!-- 4 -->
<g id="node5" class="node">
<title>4</title>
<path fill="#e6853f" stroke="black" d="M260,-187C260,-187 154,-187 154,-187 148,-187 142,-181 142,-175 142,-175 142,-116 142,-116 142,-110 148,-104 154,-104 154,-104 260,-104 260,-104 266,-104 272,-110 272,-116 272,-116 272,-175 272,-175 272,-181 266,-187 260,-187"/>
<text text-anchor="middle" x="207" y="-169.7" font-family="Helvetica,sans-Serif" font-size="14.00">&lt;term&gt; &lt;= &#45;11.914</text>
<text text-anchor="middle" x="207" y="-154.7" font-family="Helvetica,sans-Serif" font-size="14.00">gini = 0.057</text>
<text text-anchor="middle" x="207" y="-139.7" font-family="Helvetica,sans-Serif" font-size="14.00">samples = 89</text>
<text text-anchor="middle" x="207" y="-124.7" font-family="Helvetica,sans-Serif" font-size="14.00">value = [1.0, 0.03]</text>
<text text-anchor="middle" x="207" y="-109.7" font-family="Helvetica,sans-Serif" font-size="14.00">class = BUG</text>
</g>
<!-- 2&#45;&gt;4 -->
<g id="edge4" class="edge">
<title>2&#45;&gt;4</title>
<path fill="none" stroke="black" d="M159.53,-222.58C164.73,-214.25 170.25,-205.39 175.63,-196.78"/>
<polygon fill="black" stroke="black" points="178.48,-198.82 180.8,-188.48 172.54,-195.12 178.48,-198.82"/>
</g>
<!-- 5 -->
<g id="node6" class="node">
<title>5</title>
<path fill="#e58139" stroke="black" d="M184.25,-68C184.25,-68 91.75,-68 91.75,-68 85.75,-68 79.75,-62 79.75,-56 79.75,-56 79.75,-12 79.75,-12 79.75,-6 85.75,0 91.75,0 91.75,0 184.25,0 184.25,0 190.25,0 196.25,-6 196.25,-12 196.25,-12 196.25,-56 196.25,-56 196.25,-62 190.25,-68 184.25,-68"/>
<text text-anchor="middle" x="138" y="-50.7" font-family="Helvetica,sans-Serif" font-size="14.00">gini = 0.0</text>
<text text-anchor="middle" x="138" y="-35.7" font-family="Helvetica,sans-Serif" font-size="14.00">samples = 52</text>
<text text-anchor="middle" x="138" y="-20.7" font-family="Helvetica,sans-Serif" font-size="14.00">value = [1.0, 0.0]</text>
<text text-anchor="middle" x="138" y="-5.7" font-family="Helvetica,sans-Serif" font-size="14.00">class = BUG</text>
</g>
<!-- 4&#45;&gt;5 -->
<g id="edge5" class="edge">
<title>4&#45;&gt;5</title>
<path fill="none" stroke="black" d="M181.31,-103.73C176.02,-95.34 170.44,-86.47 165.1,-78.01"/>
<polygon fill="black" stroke="black" points="168.08,-76.17 159.79,-69.58 162.16,-79.91 168.08,-76.17"/>
</g>
<!-- 8 -->
<g id="node7" class="node">
<title>8</title>
<path fill="#399de5" stroke="black" d="M326,-68C326,-68 226,-68 226,-68 220,-68 214,-62 214,-56 214,-56 214,-12 214,-12 214,-6 220,0 226,0 226,0 326,0 326,0 332,0 338,-6 338,-12 338,-12 338,-56 338,-56 338,-62 332,-68 326,-68"/>
<text text-anchor="middle" x="276" y="-50.7" font-family="Helvetica,sans-Serif" font-size="14.00">gini = &#45;0.0</text>
<text text-anchor="middle" x="276" y="-35.7" font-family="Helvetica,sans-Serif" font-size="14.00">samples = 37</text>
<text text-anchor="middle" x="276" y="-20.7" font-family="Helvetica,sans-Serif" font-size="14.00">value = [0.0, 0.03]</text>
<text text-anchor="middle" x="276" y="-5.7" font-family="Helvetica,sans-Serif" font-size="14.00">class = NO_BUG</text>
</g>
<!-- 4&#45;&gt;8 -->
<g id="edge6" class="edge">
<title>4&#45;&gt;8</title>
<path fill="none" stroke="black" d="M232.69,-103.73C237.98,-95.34 243.56,-86.47 248.9,-78.01"/>
<polygon fill="black" stroke="black" points="251.84,-79.91 254.21,-69.58 245.92,-76.17 251.84,-79.91"/>
</g>
</g>
</svg>
