<?xml version="1.0" encoding="UTF-8" standalone="no"?>
<!DOCTYPE svg PUBLIC "-//W3C//DTD SVG 1.1//EN"
 "http://www.w3.org/Graphics/SVG/1.1/DTD/svg11.dtd">
<!-- Generated by graphviz version 12.2.1 (20241206.2353)
 -->
<!-- Title: Tree Pages: 1 -->
<svg width="740pt" height="671pt"
 viewBox="0.00 0.00 739.50 671.00" xmlns="http://www.w3.org/2000/svg" xmlns:xlink="http://www.w3.org/1999/xlink">
<g id="graph0" class="graph" transform="scale(1 1) rotate(0) translate(4 667)">
<title>Tree</title>
<polygon fill="white" stroke="none" points="-4,4 -4,-667 735.5,-667 735.5,4 -4,4"/>
<!-- 0 -->
<g id="node1" class="node">
<title>0</title>
<path fill="#ffffff" stroke="black" d="M436.75,-663C436.75,-663 330.75,-663 330.75,-663 324.75,-663 318.75,-657 318.75,-651 318.75,-651 318.75,-592 318.75,-592 318.75,-586 324.75,-580 330.75,-580 330.75,-580 436.75,-580 436.75,-580 442.75,-580 448.75,-586 448.75,-592 448.75,-592 448.75,-651 448.75,-651 448.75,-657 442.75,-663 436.75,-663"/>
<text text-anchor="middle" x="383.75" y="-645.7" font-family="Helvetica,sans-Serif" font-size="14.00">&lt;lead&#45;digit&gt; &lt;= 3.5</text>
<text text-anchor="middle" x="383.75" y="-630.7" font-family="Helvetica,sans-Serif" font-size="14.00">gini = 0.5</text>
<text text-anchor="middle" x="383.75" y="-615.7" font-family="Helvetica,sans-Serif" font-size="14.00">samples = 1626</text>
<text text-anchor="middle" x="383.75" y="-600.7" font-family="Helvetica,sans-Serif" font-size="14.00">value = [1.0, 1.0]</text>
<text text-anchor="middle" x="383.75" y="-585.7" font-family="Helvetica,sans-Serif" font-size="14.00">class = NO_BUG</text>
</g>
<!-- 1 -->
<g id="node2" class="node">
<title>1</title>
<path fill="#eca572" stroke="black" d="M370.25,-544C370.25,-544 219.25,-544 219.25,-544 213.25,-544 207.25,-538 207.25,-532 207.25,-532 207.25,-473 207.25,-473 207.25,-467 213.25,-461 219.25,-461 219.25,-461 370.25,-461 370.25,-461 376.25,-461 382.25,-467 382.25,-473 382.25,-473 382.25,-532 382.25,-532 382.25,-538 376.25,-544 370.25,-544"/>
<text text-anchor="middle" x="294.75" y="-526.7" font-family="Helvetica,sans-Serif" font-size="14.00">&lt;function&gt; == &#39;sqrt&#39; &lt;= 0.5</text>
<text text-anchor="middle" x="294.75" y="-511.7" font-family="Helvetica,sans-Serif" font-size="14.00">gini = 0.346</text>
<text text-anchor="middle" x="294.75" y="-496.7" font-family="Helvetica,sans-Serif" font-size="14.00">samples = 485</text>
<text text-anchor="middle" x="294.75" y="-481.7" font-family="Helvetica,sans-Serif" font-size="14.00">value = [0.952, 0.272]</text>
<text text-anchor="middle" x="294.75" y="-466.7" font-family="Helvetica,sans-Serif" font-size="14.00">class = BUG</text>
</g>
<!-- 0&#45;&gt;1 -->
<g id="edge1" class="edge">
<title>0&#45;&gt;1</title>
<path fill="none" stroke="black" d="M352.62,-579.58C346.15,-571.07 339.26,-562.01 332.58,-553.23"/>
<polygon fill="black" stroke="black" points="335.47,-551.24 326.63,-545.4 329.9,-555.48 335.47,-551.24"/>
<text text-anchor="middle" x="322.34" y="-563.17" font-family="Helvetica,sans-Serif" font-size="14.00">True</text>
</g>
<!-- 14 -->
<g id="node9" class="node">
<title>14</title>
<path fill="#46a3e7" stroke="black" d="M535,-544C535,-544 412.5,-544 412.5,-544 406.5,-544 400.5,-538 400.5,-532 400.5,-532 400.5,-473 400.5,-473 400.5,-467 406.5,-461 412.5,-461 412.5,-461 535,-461 535,-461 541,-461 547,-467 547,-473 547,-473 547,-532 547,-532 547,-538 541,-544 535,-544"/>
<text text-anchor="middle" x="473.75" y="-526.7" font-family="Helvetica,sans-Serif" font-size="14.00">&lt;lead&#45;digit&gt; &lt;= 4.5</text>
<text text-anchor="middle" x="473.75" y="-511.7" font-family="Helvetica,sans-Serif" font-size="14.00">gini = 0.115</text>
<text text-anchor="middle" x="473.75" y="-496.7" font-family="Helvetica,sans-Serif" font-size="14.00">samples = 1141</text>
<text text-anchor="middle" x="473.75" y="-481.7" font-family="Helvetica,sans-Serif" font-size="14.00">value = [0.048, 0.728]</text>
<text text-anchor="middle" x="473.75" y="-466.7" font-family="Helvetica,sans-Serif" font-size="14.00">class = NO_BUG</text>
</g>
<!-- 0&#45;&gt;14 -->
<g id="edge8" class="edge">
<title>0&#45;&gt;14</title>
<path fill="none" stroke="black" d="M415.23,-579.58C421.77,-571.07 428.74,-562.01 435.5,-553.23"/>
<polygon fill="black" stroke="black" points="438.2,-555.46 441.52,-545.4 432.65,-551.19 438.2,-555.46"/>
<text text-anchor="middle" x="445.68" y="-563.19" font-family="Helvetica,sans-Serif" font-size="14.00">False</text>
</g>
<!-- 2 -->
<g id="node3" class="node">
<title>2</title>
<path fill="#399de5" stroke="black" d="M192.5,-417.5C192.5,-417.5 85,-417.5 85,-417.5 79,-417.5 73,-411.5 73,-405.5 73,-405.5 73,-361.5 73,-361.5 73,-355.5 79,-349.5 85,-349.5 85,-349.5 192.5,-349.5 192.5,-349.5 198.5,-349.5 204.5,-355.5 204.5,-361.5 204.5,-361.5 204.5,-405.5 204.5,-405.5 204.5,-411.5 198.5,-417.5 192.5,-417.5"/>
<text text-anchor="middle" x="138.75" y="-400.2" font-family="Helvetica,sans-Serif" font-size="14.00">gini = 0.0</text>
<text text-anchor="middle" x="138.75" y="-385.2" font-family="Helvetica,sans-Serif" font-size="14.00">samples = 260</text>
<text text-anchor="middle" x="138.75" y="-370.2" font-family="Helvetica,sans-Serif" font-size="14.00">value = [0.0, 0.166]</text>
<text text-anchor="middle" x="138.75" y="-355.2" font-family="Helvetica,sans-Serif" font-size="14.00">class = NO_BUG</text>
</g>
<!-- 1&#45;&gt;2 -->
<g id="edge2" class="edge">
<title>1&#45;&gt;2</title>
<path fill="none" stroke="black" d="M240.19,-460.58C224.62,-448.9 207.67,-436.19 192.17,-424.57"/>
<polygon fill="black" stroke="black" points="194.54,-421.97 184.44,-418.77 190.34,-427.57 194.54,-421.97"/>
</g>
<!-- 5 -->
<g id="node4" class="node">
<title>5</title>
<path fill="#e88f4f" stroke="black" d="M357,-425C357,-425 234.5,-425 234.5,-425 228.5,-425 222.5,-419 222.5,-413 222.5,-413 222.5,-354 222.5,-354 222.5,-348 228.5,-342 234.5,-342 234.5,-342 357,-342 357,-342 363,-342 369,-348 369,-354 369,-354 369,-413 369,-413 369,-419 363,-425 357,-425"/>
<text text-anchor="middle" x="295.75" y="-407.7" font-family="Helvetica,sans-Serif" font-size="14.00">&lt;term&gt; &lt;= &#45;11.75</text>
<text text-anchor="middle" x="295.75" y="-392.7" font-family="Helvetica,sans-Serif" font-size="14.00">gini = 0.18</text>
<text text-anchor="middle" x="295.75" y="-377.7" font-family="Helvetica,sans-Serif" font-size="14.00">samples = 225</text>
<text text-anchor="middle" x="295.75" y="-362.7" font-family="Helvetica,sans-Serif" font-size="14.00">value = [0.952, 0.106]</text>
<text text-anchor="middle" x="295.75" y="-347.7" font-family="Helvetica,sans-Serif" font-size="14.00">class = BUG</text>
</g>
<!-- 1&#45;&gt;5 -->
<g id="edge3" class="edge">
<title>1&#45;&gt;5</title>
<path fill="none" stroke="black" d="M295.1,-460.58C295.17,-452.79 295.24,-444.53 295.31,-436.45"/>
<polygon fill="black" stroke="black" points="298.8,-436.74 295.39,-426.71 291.8,-436.68 298.8,-436.74"/>
</g>
<!-- 6 -->
<g id="node5" class="node">
<title>6</title>
<path fill="#e68540" stroke="black" d="M200,-306C200,-306 77.5,-306 77.5,-306 71.5,-306 65.5,-300 65.5,-294 65.5,-294 65.5,-235 65.5,-235 65.5,-229 71.5,-223 77.5,-223 77.5,-223 200,-223 200,-223 206,-223 212,-229 212,-235 212,-235 212,-294 212,-294 212,-300 206,-306 200,-306"/>
<text text-anchor="middle" x="138.75" y="-288.7" font-family="Helvetica,sans-Serif" font-size="14.00">&lt;value&gt; &lt;= 69.5</text>
<text text-anchor="middle" x="138.75" y="-273.7" font-family="Helvetica,sans-Serif" font-size="14.00">gini = 0.065</text>
<text text-anchor="middle" x="138.75" y="-258.7" font-family="Helvetica,sans-Serif" font-size="14.00">samples = 112</text>
<text text-anchor="middle" x="138.75" y="-243.7" font-family="Helvetica,sans-Serif" font-size="14.00">value = [0.952, 0.033]</text>
<text text-anchor="middle" x="138.75" y="-228.7" font-family="Helvetica,sans-Serif" font-size="14.00">class = BUG</text>
</g>
<!-- 5&#45;&gt;6 -->
<g id="edge4" class="edge">
<title>5&#45;&gt;6</title>
<path fill="none" stroke="black" d="M240.84,-341.58C228.53,-332.41 215.37,-322.6 202.72,-313.17"/>
<polygon fill="black" stroke="black" points="204.95,-310.47 194.84,-307.3 200.77,-316.08 204.95,-310.47"/>
</g>
<!-- 11 -->
<g id="node8" class="node">
<title>11</title>
<path fill="#399de5" stroke="black" d="M349.5,-298.5C349.5,-298.5 242,-298.5 242,-298.5 236,-298.5 230,-292.5 230,-286.5 230,-286.5 230,-242.5 230,-242.5 230,-236.5 236,-230.5 242,-230.5 242,-230.5 349.5,-230.5 349.5,-230.5 355.5,-230.5 361.5,-236.5 361.5,-242.5 361.5,-242.5 361.5,-286.5 361.5,-286.5 361.5,-292.5 355.5,-298.5 349.5,-298.5"/>
<text text-anchor="middle" x="295.75" y="-281.2" font-family="Helvetica,sans-Serif" font-size="14.00">gini = 0.0</text>
<text text-anchor="middle" x="295.75" y="-266.2" font-family="Helvetica,sans-Serif" font-size="14.00">samples = 113</text>
<text text-anchor="middle" x="295.75" y="-251.2" font-family="Helvetica,sans-Serif" font-size="14.00">value = [0.0, 0.072]</text>
<text text-anchor="middle" x="295.75" y="-236.2" font-family="Helvetica,sans-Serif" font-size="14.00">class = NO_BUG</text>
</g>
<!-- 5&#45;&gt;11 -->
<g id="edge7" class="edge">
<title>5&#45;&gt;11</title>
<path fill="none" stroke="black" d="M295.75,-341.58C295.75,-331.43 295.75,-320.5 295.75,-310.18"/>
<polygon fill="black" stroke="black" points="299.25,-310.37 295.75,-300.37 292.25,-310.37 299.25,-310.37"/>
</g>
<!-- 7 -->
<g id="node6" class="node">
<title>7</title>
<path fill="#e58139" stroke="black" d="M119.5,-179.5C119.5,-179.5 12,-179.5 12,-179.5 6,-179.5 0,-173.5 0,-167.5 0,-167.5 0,-123.5 0,-123.5 0,-117.5 6,-111.5 12,-111.5 12,-111.5 119.5,-111.5 119.5,-111.5 125.5,-111.5 131.5,-117.5 131.5,-123.5 131.5,-123.5 131.5,-167.5 131.5,-167.5 131.5,-173.5 125.5,-179.5 119.5,-179.5"/>
<text text-anchor="middle" x="65.75" y="-162.2" font-family="Helvetica,sans-Serif" font-size="14.00">gini = &#45;0.0</text>
<text text-anchor="middle" x="65.75" y="-147.2" font-family="Helvetica,sans-Serif" font-size="14.00">samples = 60</text>
<text text-anchor="middle" x="65.75" y="-132.2" font-family="Helvetica,sans-Serif" font-size="14.00">value = [0.952, 0.0]</text>
<text text-anchor="middle" x="65.75" y="-117.2" font-family="Helvetica,sans-Serif" font-size="14.00">class = BUG</text>
</g>
<!-- 6&#45;&gt;7 -->
<g id="edge5" class="edge">
<title>6&#45;&gt;7</title>
<path fill="none" stroke="black" d="M113.22,-222.58C106.54,-211.88 99.33,-200.32 92.59,-189.52"/>
<polygon fill="black" stroke="black" points="95.63,-187.78 87.37,-181.15 89.69,-191.48 95.63,-187.78"/>
</g>
<!-- 8 -->
<g id="node7" class="node">
<title>8</title>
<path fill="#399de5" stroke="black" d="M269.5,-179.5C269.5,-179.5 162,-179.5 162,-179.5 156,-179.5 150,-173.5 150,-167.5 150,-167.5 150,-123.5 150,-123.5 150,-117.5 156,-111.5 162,-111.5 162,-111.5 269.5,-111.5 269.5,-111.5 275.5,-111.5 281.5,-117.5 281.5,-123.5 281.5,-123.5 281.5,-167.5 281.5,-167.5 281.5,-173.5 275.5,-179.5 269.5,-179.5"/>
<text text-anchor="middle" x="215.75" y="-162.2" font-family="Helvetica,sans-Serif" font-size="14.00">gini = 0.0</text>
<text text-anchor="middle" x="215.75" y="-147.2" font-family="Helvetica,sans-Serif" font-size="14.00">samples = 52</text>
<text text-anchor="middle" x="215.75" y="-132.2" font-family="Helvetica,sans-Serif" font-size="14.00">value = [0.0, 0.033]</text>
<text text-anchor="middle" x="215.75" y="-117.2" font-family="Helvetica,sans-Serif" font-size="14.00">class = NO_BUG</text>
</g>
<!-- 6&#45;&gt;8 -->
<g id="edge6" class="edge">
<title>6&#45;&gt;8</title>
<path fill="none" stroke="black" d="M165.68,-222.58C172.79,-211.77 180.48,-200.09 187.65,-189.19"/>
<polygon fill="black" stroke="black" points="190.39,-191.4 192.96,-181.13 184.54,-187.55 190.39,-191.4"/>
</g>
<!-- 15 -->
<g id="node10" class="node">
<title>15</title>
<path fill="#b7dbf6" stroke="black" d="M533,-425C533,-425 410.5,-425 410.5,-425 404.5,-425 398.5,-419 398.5,-413 398.5,-413 398.5,-354 398.5,-354 398.5,-348 404.5,-342 410.5,-342 410.5,-342 533,-342 533,-342 539,-342 545,-348 545,-354 545,-354 545,-413 545,-413 545,-419 539,-425 533,-425"/>
<text text-anchor="middle" x="471.75" y="-407.7" font-family="Helvetica,sans-Serif" font-size="14.00">&lt;value&gt; &lt;= 41.505</text>
<text text-anchor="middle" x="471.75" y="-392.7" font-family="Helvetica,sans-Serif" font-size="14.00">gini = 0.475</text>
<text text-anchor="middle" x="471.75" y="-377.7" font-family="Helvetica,sans-Serif" font-size="14.00">samples = 120</text>
<text text-anchor="middle" x="471.75" y="-362.7" font-family="Helvetica,sans-Serif" font-size="14.00">value = [0.048, 0.075]</text>
<text text-anchor="middle" x="471.75" y="-347.7" font-family="Helvetica,sans-Serif" font-size="14.00">class = NO_BUG</text>
</g>
<!-- 14&#45;&gt;15 -->
<g id="edge9" class="edge">
<title>14&#45;&gt;15</title>
<path fill="none" stroke="black" d="M473.05,-460.58C472.92,-452.79 472.78,-444.53 472.64,-436.45"/>
<polygon fill="black" stroke="black" points="476.14,-436.65 472.47,-426.71 469.14,-436.77 476.14,-436.65"/>
</g>
<!-- 24 -->
<g id="node17" class="node">
<title>24</title>
<path fill="#399de5" stroke="black" d="M682.5,-417.5C682.5,-417.5 575,-417.5 575,-417.5 569,-417.5 563,-411.5 563,-405.5 563,-405.5 563,-361.5 563,-361.5 563,-355.5 569,-349.5 575,-349.5 575,-349.5 682.5,-349.5 682.5,-349.5 688.5,-349.5 694.5,-355.5 694.5,-361.5 694.5,-361.5 694.5,-405.5 694.5,-405.5 694.5,-411.5 688.5,-417.5 682.5,-417.5"/>
<text text-anchor="middle" x="628.75" y="-400.2" font-family="Helvetica,sans-Serif" font-size="14.00">gini = 0.0</text>
<text text-anchor="middle" x="628.75" y="-385.2" font-family="Helvetica,sans-Serif" font-size="14.00">samples = 1021</text>
<text text-anchor="middle" x="628.75" y="-370.2" font-family="Helvetica,sans-Serif" font-size="14.00">value = [0.0, 0.653]</text>
<text text-anchor="middle" x="628.75" y="-355.2" font-family="Helvetica,sans-Serif" font-size="14.00">class = NO_BUG</text>
</g>
<!-- 14&#45;&gt;24 -->
<g id="edge16" class="edge">
<title>14&#45;&gt;24</title>
<path fill="none" stroke="black" d="M527.96,-460.58C543.43,-448.9 560.27,-436.19 575.67,-424.57"/>
<polygon fill="black" stroke="black" points="577.47,-427.59 583.35,-418.77 573.26,-422 577.47,-427.59"/>
</g>
<!-- 16 -->
<g id="node11" class="node">
<title>16</title>
<path fill="#e88f4e" stroke="black" d="M546.25,-306C546.25,-306 395.25,-306 395.25,-306 389.25,-306 383.25,-300 383.25,-294 383.25,-294 383.25,-235 383.25,-235 383.25,-229 389.25,-223 395.25,-223 395.25,-223 546.25,-223 546.25,-223 552.25,-223 558.25,-229 558.25,-235 558.25,-235 558.25,-294 558.25,-294 558.25,-300 552.25,-306 546.25,-306"/>
<text text-anchor="middle" x="470.75" y="-288.7" font-family="Helvetica,sans-Serif" font-size="14.00">&lt;function&gt; == &#39;sqrt&#39; &lt;= 0.5</text>
<text text-anchor="middle" x="470.75" y="-273.7" font-family="Helvetica,sans-Serif" font-size="14.00">gini = 0.175</text>
<text text-anchor="middle" x="470.75" y="-258.7" font-family="Helvetica,sans-Serif" font-size="14.00">samples = 11</text>
<text text-anchor="middle" x="470.75" y="-243.7" font-family="Helvetica,sans-Serif" font-size="14.00">value = [0.048, 0.005]</text>
<text text-anchor="middle" x="470.75" y="-228.7" font-family="Helvetica,sans-Serif" font-size="14.00">class = BUG</text>
</g>
<!-- 15&#45;&gt;16 -->
<g id="edge10" class="edge">
<title>15&#45;&gt;16</title>
<path fill="none" stroke="black" d="M471.4,-341.58C471.33,-333.79 471.26,-325.53 471.19,-317.45"/>
<polygon fill="black" stroke="black" points="474.7,-317.68 471.11,-307.71 467.7,-317.74 474.7,-317.68"/>
</g>
<!-- 21 -->
<g id="node16" class="node">
<title>21</title>
<path fill="#399de5" stroke="black" d="M688.75,-298.5C688.75,-298.5 588.75,-298.5 588.75,-298.5 582.75,-298.5 576.75,-292.5 576.75,-286.5 576.75,-286.5 576.75,-242.5 576.75,-242.5 576.75,-236.5 582.75,-230.5 588.75,-230.5 588.75,-230.5 688.75,-230.5 688.75,-230.5 694.75,-230.5 700.75,-236.5 700.75,-242.5 700.75,-242.5 700.75,-286.5 700.75,-286.5 700.75,-292.5 694.75,-298.5 688.75,-298.5"/>
<text text-anchor="middle" x="638.75" y="-281.2" font-family="Helvetica,sans-Serif" font-size="14.00">gini = 0.0</text>
<text text-anchor="middle" x="638.75" y="-266.2" font-family="Helvetica,sans-Serif" font-size="14.00">samples = 109</text>
<text text-anchor="middle" x="638.75" y="-251.2" font-family="Helvetica,sans-Serif" font-size="14.00">value = [0.0, 0.07]</text>
<text text-anchor="middle" x="638.75" y="-236.2" font-family="Helvetica,sans-Serif" font-size="14.00">class = NO_BUG</text>
</g>
<!-- 15&#45;&gt;21 -->
<g id="edge15" class="edge">
<title>15&#45;&gt;21</title>
<path fill="none" stroke="black" d="M530.16,-341.58C546.98,-329.79 565.31,-316.95 582.03,-305.24"/>
<polygon fill="black" stroke="black" points="583.71,-308.33 589.89,-299.73 579.69,-302.6 583.71,-308.33"/>
</g>
<!-- 17 -->
<g id="node12" class="node">
<title>17</title>
<path fill="#399de5" stroke="black" d="M469.5,-179.5C469.5,-179.5 362,-179.5 362,-179.5 356,-179.5 350,-173.5 350,-167.5 350,-167.5 350,-123.5 350,-123.5 350,-117.5 356,-111.5 362,-111.5 362,-111.5 469.5,-111.5 469.5,-111.5 475.5,-111.5 481.5,-117.5 481.5,-123.5 481.5,-123.5 481.5,-167.5 481.5,-167.5 481.5,-173.5 475.5,-179.5 469.5,-179.5"/>
<text text-anchor="middle" x="415.75" y="-162.2" font-family="Helvetica,sans-Serif" font-size="14.00">gini = 0.0</text>
<text text-anchor="middle" x="415.75" y="-147.2" font-family="Helvetica,sans-Serif" font-size="14.00">samples = 5</text>
<text text-anchor="middle" x="415.75" y="-132.2" font-family="Helvetica,sans-Serif" font-size="14.00">value = [0.0, 0.003]</text>
<text text-anchor="middle" x="415.75" y="-117.2" font-family="Helvetica,sans-Serif" font-size="14.00">class = NO_BUG</text>
</g>
<!-- 16&#45;&gt;17 -->
<g id="edge11" class="edge">
<title>16&#45;&gt;17</title>
<path fill="none" stroke="black" d="M451.51,-222.58C446.59,-212.1 441.27,-200.79 436.28,-190.18"/>
<polygon fill="black" stroke="black" points="439.5,-188.79 432.08,-181.23 433.16,-191.77 439.5,-188.79"/>
</g>
<!-- 18 -->
<g id="node13" class="node">
<title>18</title>
<path fill="#e68641" stroke="black" d="M669.62,-187C669.62,-187 511.88,-187 511.88,-187 505.88,-187 499.88,-181 499.88,-175 499.88,-175 499.88,-116 499.88,-116 499.88,-110 505.88,-104 511.88,-104 511.88,-104 669.62,-104 669.62,-104 675.62,-104 681.62,-110 681.62,-116 681.62,-116 681.62,-175 681.62,-175 681.62,-181 675.62,-187 669.62,-187"/>
<text text-anchor="middle" x="590.75" y="-169.7" font-family="Helvetica,sans-Serif" font-size="14.00">&lt;term&gt; == &#39;&lt;value&gt;&#39; &lt;= 0.5</text>
<text text-anchor="middle" x="590.75" y="-154.7" font-family="Helvetica,sans-Serif" font-size="14.00">gini = 0.074</text>
<text text-anchor="middle" x="590.75" y="-139.7" font-family="Helvetica,sans-Serif" font-size="14.00">samples = 6</text>
<text text-anchor="middle" x="590.75" y="-124.7" font-family="Helvetica,sans-Serif" font-size="14.00">value = [0.048, 0.002]</text>
<text text-anchor="middle" x="590.75" y="-109.7" font-family="Helvetica,sans-Serif" font-size="14.00">class = BUG</text>
</g>
<!-- 16&#45;&gt;18 -->
<g id="edge12" class="edge">
<title>16&#45;&gt;18</title>
<path fill="none" stroke="black" d="M512.72,-222.58C521.82,-213.71 531.52,-204.25 540.89,-195.12"/>
<polygon fill="black" stroke="black" points="543.21,-197.74 547.92,-188.26 538.32,-192.73 543.21,-197.74"/>
</g>
<!-- 19 -->
<g id="node14" class="node">
<title>19</title>
<path fill="#e58139" stroke="black" d="M569.5,-68C569.5,-68 462,-68 462,-68 456,-68 450,-62 450,-56 450,-56 450,-12 450,-12 450,-6 456,0 462,0 462,0 569.5,0 569.5,0 575.5,0 581.5,-6 581.5,-12 581.5,-12 581.5,-56 581.5,-56 581.5,-62 575.5,-68 569.5,-68"/>
<text text-anchor="middle" x="515.75" y="-50.7" font-family="Helvetica,sans-Serif" font-size="14.00">gini = 0.0</text>
<text text-anchor="middle" x="515.75" y="-35.7" font-family="Helvetica,sans-Serif" font-size="14.00">samples = 3</text>
<text text-anchor="middle" x="515.75" y="-20.7" font-family="Helvetica,sans-Serif" font-size="14.00">value = [0.048, 0.0]</text>
<text text-anchor="middle" x="515.75" y="-5.7" font-family="Helvetica,sans-Serif" font-size="14.00">class = BUG</text>
</g>
<!-- 18&#45;&gt;19 -->
<g id="edge13" class="edge">
<title>18&#45;&gt;19</title>
<path fill="none" stroke="black" d="M562.82,-103.73C557.01,-95.24 550.87,-86.28 545.02,-77.73"/>
<polygon fill="black" stroke="black" points="547.95,-75.82 539.41,-69.55 542.18,-79.78 547.95,-75.82"/>
</g>
<!-- 20 -->
<g id="node15" class="node">
<title>20</title>
<path fill="#399de5" stroke="black" d="M719.5,-68C719.5,-68 612,-68 612,-68 606,-68 600,-62 600,-56 600,-56 600,-12 600,-12 600,-6 606,0 612,0 612,0 719.5,0 719.5,0 725.5,0 731.5,-6 731.5,-12 731.5,-12 731.5,-56 731.5,-56 731.5,-62 725.5,-68 719.5,-68"/>
<text text-anchor="middle" x="665.75" y="-50.7" font-family="Helvetica,sans-Serif" font-size="14.00">gini = &#45;0.0</text>
<text text-anchor="middle" x="665.75" y="-35.7" font-family="Helvetica,sans-Serif" font-size="14.00">samples = 3</text>
<text text-anchor="middle" x="665.75" y="-20.7" font-family="Helvetica,sans-Serif" font-size="14.00">value = [0.0, 0.002]</text>
<text text-anchor="middle" x="665.75" y="-5.7" font-family="Helvetica,sans-Serif" font-size="14.00">class = NO_BUG</text>
</g>
<!-- 18&#45;&gt;20 -->
<g id="edge14" class="edge">
<title>18&#45;&gt;20</title>
<path fill="none" stroke="black" d="M618.68,-103.73C624.49,-95.24 630.63,-86.28 636.48,-77.73"/>
<polygon fill="black" stroke="black" points="639.32,-79.78 642.09,-69.55 633.55,-75.82 639.32,-79.78"/>
</g>
</g>
</svg>
