<?xml version="1.0" encoding="UTF-8" standalone="no"?>
<!DOCTYPE svg PUBLIC "-//W3C//DTD SVG 1.1//EN"
 "http://www.w3.org/Graphics/SVG/1.1/DTD/svg11.dtd">
<!-- Generated by graphviz version 12.2.1 (20241206.2353)
 -->
<!-- Title: Tree Pages: 1 -->
<svg width="386pt" height="552pt"
 viewBox="0.00 0.00 385.50 552.00" xmlns="http://www.w3.org/2000/svg" xmlns:xlink="http://www.w3.org/1999/xlink">
<g id="graph0" class="graph" transform="scale(1 1) rotate(0) translate(4 548)">
<title>Tree</title>
<polygon fill="white" stroke="none" points="-4,4 -4,-548 381.5,-548 381.5,4 -4,4"/>
<!-- 0 -->
<g id="node1" class="node">
<title>0</title>
<path fill="#ffffff" stroke="black" d="M278.75,-544C278.75,-544 172.75,-544 172.75,-544 166.75,-544 160.75,-538 160.75,-532 160.75,-532 160.75,-473 160.75,-473 160.75,-467 166.75,-461 172.75,-461 172.75,-461 278.75,-461 278.75,-461 284.75,-461 290.75,-467 290.75,-473 290.75,-473 290.75,-532 290.75,-532 290.75,-538 284.75,-544 278.75,-544"/>
<text text-anchor="middle" x="225.75" y="-526.7" font-family="Helvetica,sans-Serif" font-size="14.00">&lt;lead&#45;digit&gt; &lt;= 4.5</text>
<text text-anchor="middle" x="225.75" y="-511.7" font-family="Helvetica,sans-Serif" font-size="14.00">gini = 0.5</text>
<text text-anchor="middle" x="225.75" y="-496.7" font-family="Helvetica,sans-Serif" font-size="14.00">samples = 1807</text>
<text text-anchor="middle" x="225.75" y="-481.7" font-family="Helvetica,sans-Serif" font-size="14.00">value = [1.0, 1.0]</text>
<text text-anchor="middle" x="225.75" y="-466.7" font-family="Helvetica,sans-Serif" font-size="14.00">class = NO_BUG</text>
</g>
<!-- 1 -->
<g id="node2" class="node">
<title>1</title>
<path fill="#eca26d" stroke="black" d="M216.25,-425C216.25,-425 65.25,-425 65.25,-425 59.25,-425 53.25,-419 53.25,-413 53.25,-413 53.25,-354 53.25,-354 53.25,-348 59.25,-342 65.25,-342 65.25,-342 216.25,-342 216.25,-342 222.25,-342 228.25,-348 228.25,-354 228.25,-354 228.25,-413 228.25,-413 228.25,-419 222.25,-425 216.25,-425"/>
<text text-anchor="middle" x="140.75" y="-407.7" font-family="Helvetica,sans-Serif" font-size="14.00">&lt;function&gt; == &#39;sqrt&#39; &lt;= 0.5</text>
<text text-anchor="middle" x="140.75" y="-392.7" font-family="Helvetica,sans-Serif" font-size="14.00">gini = 0.33</text>
<text text-anchor="middle" x="140.75" y="-377.7" font-family="Helvetica,sans-Serif" font-size="14.00">samples = 514</text>
<text text-anchor="middle" x="140.75" y="-362.7" font-family="Helvetica,sans-Serif" font-size="14.00">value = [1.0, 0.263]</text>
<text text-anchor="middle" x="140.75" y="-347.7" font-family="Helvetica,sans-Serif" font-size="14.00">class = BUG</text>
</g>
<!-- 0&#45;&gt;1 -->
<g id="edge1" class="edge">
<title>0&#45;&gt;1</title>
<path fill="none" stroke="black" d="M196.02,-460.58C189.9,-452.16 183.4,-443.2 177.08,-434.5"/>
<polygon fill="black" stroke="black" points="179.92,-432.46 171.21,-426.42 174.25,-436.57 179.92,-432.46"/>
<text text-anchor="middle" x="166.41" y="-444.09" font-family="Helvetica,sans-Serif" font-size="14.00">True</text>
</g>
<!-- 10 -->
<g id="node9" class="node">
<title>10</title>
<path fill="#399de5" stroke="black" d="M365.5,-417.5C365.5,-417.5 258,-417.5 258,-417.5 252,-417.5 246,-411.5 246,-405.5 246,-405.5 246,-361.5 246,-361.5 246,-355.5 252,-349.5 258,-349.5 258,-349.5 365.5,-349.5 365.5,-349.5 371.5,-349.5 377.5,-355.5 377.5,-361.5 377.5,-361.5 377.5,-405.5 377.5,-405.5 377.5,-411.5 371.5,-417.5 365.5,-417.5"/>
<text text-anchor="middle" x="311.75" y="-400.2" font-family="Helvetica,sans-Serif" font-size="14.00">gini = &#45;0.0</text>
<text text-anchor="middle" x="311.75" y="-385.2" font-family="Helvetica,sans-Serif" font-size="14.00">samples = 1293</text>
<text text-anchor="middle" x="311.75" y="-370.2" font-family="Helvetica,sans-Serif" font-size="14.00">value = [0.0, 0.737]</text>
<text text-anchor="middle" x="311.75" y="-355.2" font-family="Helvetica,sans-Serif" font-size="14.00">class = NO_BUG</text>
</g>
<!-- 0&#45;&gt;10 -->
<g id="edge8" class="edge">
<title>0&#45;&gt;10</title>
<path fill="none" stroke="black" d="M255.83,-460.58C263.85,-449.66 272.54,-437.85 280.61,-426.86"/>
<polygon fill="black" stroke="black" points="283.23,-429.21 286.33,-419.08 277.59,-425.07 283.23,-429.21"/>
<text text-anchor="middle" x="291" y="-436.77" font-family="Helvetica,sans-Serif" font-size="14.00">False</text>
</g>
<!-- 2 -->
<g id="node3" class="node">
<title>2</title>
<path fill="#399de5" stroke="black" d="M119.5,-298.5C119.5,-298.5 12,-298.5 12,-298.5 6,-298.5 0,-292.5 0,-286.5 0,-286.5 0,-242.5 0,-242.5 0,-236.5 6,-230.5 12,-230.5 12,-230.5 119.5,-230.5 119.5,-230.5 125.5,-230.5 131.5,-236.5 131.5,-242.5 131.5,-242.5 131.5,-286.5 131.5,-286.5 131.5,-292.5 125.5,-298.5 119.5,-298.5"/>
<text text-anchor="middle" x="65.75" y="-281.2" font-family="Helvetica,sans-Serif" font-size="14.00">gini = &#45;0.0</text>
<text text-anchor="middle" x="65.75" y="-266.2" font-family="Helvetica,sans-Serif" font-size="14.00">samples = 291</text>
<text text-anchor="middle" x="65.75" y="-251.2" font-family="Helvetica,sans-Serif" font-size="14.00">value = [0.0, 0.166]</text>
<text text-anchor="middle" x="65.75" y="-236.2" font-family="Helvetica,sans-Serif" font-size="14.00">class = NO_BUG</text>
</g>
<!-- 1&#45;&gt;2 -->
<g id="edge2" class="edge">
<title>1&#45;&gt;2</title>
<path fill="none" stroke="black" d="M114.52,-341.58C107.66,-330.88 100.25,-319.32 93.33,-308.52"/>
<polygon fill="black" stroke="black" points="96.3,-306.67 87.95,-300.14 90.4,-310.44 96.3,-306.67"/>
</g>
<!-- 3 -->
<g id="node4" class="node">
<title>3</title>
<path fill="#e88d4c" stroke="black" d="M269.5,-306C269.5,-306 162,-306 162,-306 156,-306 150,-300 150,-294 150,-294 150,-235 150,-235 150,-229 156,-223 162,-223 162,-223 269.5,-223 269.5,-223 275.5,-223 281.5,-229 281.5,-235 281.5,-235 281.5,-294 281.5,-294 281.5,-300 275.5,-306 269.5,-306"/>
<text text-anchor="middle" x="215.75" y="-288.7" font-family="Helvetica,sans-Serif" font-size="14.00">&lt;value&gt; &lt;= 42.2</text>
<text text-anchor="middle" x="215.75" y="-273.7" font-family="Helvetica,sans-Serif" font-size="14.00">gini = 0.162</text>
<text text-anchor="middle" x="215.75" y="-258.7" font-family="Helvetica,sans-Serif" font-size="14.00">samples = 223</text>
<text text-anchor="middle" x="215.75" y="-243.7" font-family="Helvetica,sans-Serif" font-size="14.00">value = [1.0, 0.097]</text>
<text text-anchor="middle" x="215.75" y="-228.7" font-family="Helvetica,sans-Serif" font-size="14.00">class = BUG</text>
</g>
<!-- 1&#45;&gt;3 -->
<g id="edge3" class="edge">
<title>1&#45;&gt;3</title>
<path fill="none" stroke="black" d="M166.98,-341.58C172.32,-333.25 178,-324.39 183.52,-315.78"/>
<polygon fill="black" stroke="black" points="186.39,-317.78 188.84,-307.47 180.5,-314 186.39,-317.78"/>
</g>
<!-- 4 -->
<g id="node5" class="node">
<title>4</title>
<path fill="#e6853f" stroke="black" d="M194.5,-187C194.5,-187 87,-187 87,-187 81,-187 75,-181 75,-175 75,-175 75,-116 75,-116 75,-110 81,-104 87,-104 87,-104 194.5,-104 194.5,-104 200.5,-104 206.5,-110 206.5,-116 206.5,-116 206.5,-175 206.5,-175 206.5,-181 200.5,-187 194.5,-187"/>
<text text-anchor="middle" x="140.75" y="-169.7" font-family="Helvetica,sans-Serif" font-size="14.00">&lt;term&gt; &lt;= &#45;11.847</text>
<text text-anchor="middle" x="140.75" y="-154.7" font-family="Helvetica,sans-Serif" font-size="14.00">gini = 0.06</text>
<text text-anchor="middle" x="140.75" y="-139.7" font-family="Helvetica,sans-Serif" font-size="14.00">samples = 108</text>
<text text-anchor="middle" x="140.75" y="-124.7" font-family="Helvetica,sans-Serif" font-size="14.00">value = [1.0, 0.032]</text>
<text text-anchor="middle" x="140.75" y="-109.7" font-family="Helvetica,sans-Serif" font-size="14.00">class = BUG</text>
</g>
<!-- 3&#45;&gt;4 -->
<g id="edge4" class="edge">
<title>3&#45;&gt;4</title>
<path fill="none" stroke="black" d="M189.52,-222.58C184.18,-214.25 178.5,-205.39 172.98,-196.78"/>
<polygon fill="black" stroke="black" points="176,-195 167.66,-188.47 170.11,-198.78 176,-195"/>
</g>
<!-- 9 -->
<g id="node8" class="node">
<title>9</title>
<path fill="#399de5" stroke="black" d="M344.5,-179.5C344.5,-179.5 237,-179.5 237,-179.5 231,-179.5 225,-173.5 225,-167.5 225,-167.5 225,-123.5 225,-123.5 225,-117.5 231,-111.5 237,-111.5 237,-111.5 344.5,-111.5 344.5,-111.5 350.5,-111.5 356.5,-117.5 356.5,-123.5 356.5,-123.5 356.5,-167.5 356.5,-167.5 356.5,-173.5 350.5,-179.5 344.5,-179.5"/>
<text text-anchor="middle" x="290.75" y="-162.2" font-family="Helvetica,sans-Serif" font-size="14.00">gini = &#45;0.0</text>
<text text-anchor="middle" x="290.75" y="-147.2" font-family="Helvetica,sans-Serif" font-size="14.00">samples = 115</text>
<text text-anchor="middle" x="290.75" y="-132.2" font-family="Helvetica,sans-Serif" font-size="14.00">value = [0.0, 0.066]</text>
<text text-anchor="middle" x="290.75" y="-117.2" font-family="Helvetica,sans-Serif" font-size="14.00">class = NO_BUG</text>
</g>
<!-- 3&#45;&gt;9 -->
<g id="edge7" class="edge">
<title>3&#45;&gt;9</title>
<path fill="none" stroke="black" d="M241.98,-222.58C248.84,-211.88 256.25,-200.32 263.17,-189.52"/>
<polygon fill="black" stroke="black" points="266.1,-191.44 268.55,-181.14 260.2,-187.67 266.1,-191.44"/>
</g>
<!-- 5 -->
<g id="node6" class="node">
<title>5</title>
<path fill="#e58139" stroke="black" d="M116,-68C116,-68 23.5,-68 23.5,-68 17.5,-68 11.5,-62 11.5,-56 11.5,-56 11.5,-12 11.5,-12 11.5,-6 17.5,0 23.5,0 23.5,0 116,0 116,0 122,0 128,-6 128,-12 128,-12 128,-56 128,-56 128,-62 122,-68 116,-68"/>
<text text-anchor="middle" x="69.75" y="-50.7" font-family="Helvetica,sans-Serif" font-size="14.00">gini = 0.0</text>
<text text-anchor="middle" x="69.75" y="-35.7" font-family="Helvetica,sans-Serif" font-size="14.00">samples = 52</text>
<text text-anchor="middle" x="69.75" y="-20.7" font-family="Helvetica,sans-Serif" font-size="14.00">value = [1.0, 0.0]</text>
<text text-anchor="middle" x="69.75" y="-5.7" font-family="Helvetica,sans-Serif" font-size="14.00">class = BUG</text>
</g>
<!-- 4&#45;&gt;5 -->
<g id="edge5" class="edge">
<title>4&#45;&gt;5</title>
<path fill="none" stroke="black" d="M114.31,-103.73C108.81,-95.24 103,-86.28 97.46,-77.73"/>
<polygon fill="black" stroke="black" points="100.54,-76.06 92.16,-69.57 94.67,-79.86 100.54,-76.06"/>
</g>
<!-- 6 -->
<g id="node7" class="node">
<title>6</title>
<path fill="#399de5" stroke="black" d="M265.5,-68C265.5,-68 158,-68 158,-68 152,-68 146,-62 146,-56 146,-56 146,-12 146,-12 146,-6 152,0 158,0 158,0 265.5,0 265.5,0 271.5,0 277.5,-6 277.5,-12 277.5,-12 277.5,-56 277.5,-56 277.5,-62 271.5,-68 265.5,-68"/>
<text text-anchor="middle" x="211.75" y="-50.7" font-family="Helvetica,sans-Serif" font-size="14.00">gini = 0.0</text>
<text text-anchor="middle" x="211.75" y="-35.7" font-family="Helvetica,sans-Serif" font-size="14.00">samples = 56</text>
<text text-anchor="middle" x="211.75" y="-20.7" font-family="Helvetica,sans-Serif" font-size="14.00">value = [0.0, 0.032]</text>
<text text-anchor="middle" x="211.75" y="-5.7" font-family="Helvetica,sans-Serif" font-size="14.00">class = NO_BUG</text>
</g>
<!-- 4&#45;&gt;6 -->
<g id="edge6" class="edge">
<title>4&#45;&gt;6</title>
<path fill="none" stroke="black" d="M167.19,-103.73C172.69,-95.24 178.5,-86.28 184.04,-77.73"/>
<polygon fill="black" stroke="black" points="186.83,-79.86 189.34,-69.57 180.96,-76.06 186.83,-79.86"/>
</g>
</g>
</svg>
