<?xml version="1.0" encoding="UTF-8" standalone="no"?>
<!DOCTYPE svg PUBLIC "-//W3C//DTD SVG 1.1//EN"
 "http://www.w3.org/Graphics/SVG/1.1/DTD/svg11.dtd">
<!-- Generated by graphviz version 12.2.1 (20241206.2353)
 -->
<!-- Title: Tree Pages: 1 -->
<svg width="370pt" height="433pt"
 viewBox="0.00 0.00 369.75 433.00" xmlns="http://www.w3.org/2000/svg" xmlns:xlink="http://www.w3.org/1999/xlink">
<g id="graph0" class="graph" transform="scale(1 1) rotate(0) translate(4 429)">
<title>Tree</title>
<polygon fill="white" stroke="none" points="-4,4 -4,-429 365.75,-429 365.75,4 -4,4"/>
<!-- 0 -->
<g id="node1" class="node">
<title>0</title>
<path fill="#ffffff" stroke="black" d="M267.25,-425C267.25,-425 174.75,-425 174.75,-425 168.75,-425 162.75,-419 162.75,-413 162.75,-413 162.75,-354 162.75,-354 162.75,-348 168.75,-342 174.75,-342 174.75,-342 267.25,-342 267.25,-342 273.25,-342 279.25,-348 279.25,-354 279.25,-354 279.25,-413 279.25,-413 279.25,-419 273.25,-425 267.25,-425"/>
<text text-anchor="middle" x="221" y="-407.7" font-family="Helvetica,sans-Serif" font-size="14.00">&lt;term&gt; &lt;= &#45;11.5</text>
<text text-anchor="middle" x="221" y="-392.7" font-family="Helvetica,sans-Serif" font-size="14.00">gini = 0.5</text>
<text text-anchor="middle" x="221" y="-377.7" font-family="Helvetica,sans-Serif" font-size="14.00">samples = 997</text>
<text text-anchor="middle" x="221" y="-362.7" font-family="Helvetica,sans-Serif" font-size="14.00">value = [1.0, 1.0]</text>
<text text-anchor="middle" x="221" y="-347.7" font-family="Helvetica,sans-Serif" font-size="14.00">class = BUG</text>
</g>
<!-- 1 -->
<g id="node2" class="node">
<title>1</title>
<path fill="#eeac7d" stroke="black" d="M199.75,-306C199.75,-306 92.25,-306 92.25,-306 86.25,-306 80.25,-300 80.25,-294 80.25,-294 80.25,-235 80.25,-235 80.25,-229 86.25,-223 92.25,-223 92.25,-223 199.75,-223 199.75,-223 205.75,-223 211.75,-229 211.75,-235 211.75,-235 211.75,-294 211.75,-294 211.75,-300 205.75,-306 199.75,-306"/>
<text text-anchor="middle" x="146" y="-288.7" font-family="Helvetica,sans-Serif" font-size="14.00">&lt;term&gt; &lt;= &#45;42.4</text>
<text text-anchor="middle" x="146" y="-273.7" font-family="Helvetica,sans-Serif" font-size="14.00">gini = 0.38</text>
<text text-anchor="middle" x="146" y="-258.7" font-family="Helvetica,sans-Serif" font-size="14.00">samples = 371</text>
<text text-anchor="middle" x="146" y="-243.7" font-family="Helvetica,sans-Serif" font-size="14.00">value = [1.0, 0.342]</text>
<text text-anchor="middle" x="146" y="-228.7" font-family="Helvetica,sans-Serif" font-size="14.00">class = BUG</text>
</g>
<!-- 0&#45;&gt;1 -->
<g id="edge1" class="edge">
<title>0&#45;&gt;1</title>
<path fill="none" stroke="black" d="M194.77,-341.58C189.43,-333.25 183.75,-324.39 178.23,-315.78"/>
<polygon fill="black" stroke="black" points="181.25,-314 172.91,-307.47 175.36,-317.78 181.25,-314"/>
<text text-anchor="middle" x="166.75" y="-324.82" font-family="Helvetica,sans-Serif" font-size="14.00">True</text>
</g>
<!-- 8 -->
<g id="node7" class="node">
<title>8</title>
<path fill="#399de5" stroke="black" d="M349.75,-298.5C349.75,-298.5 242.25,-298.5 242.25,-298.5 236.25,-298.5 230.25,-292.5 230.25,-286.5 230.25,-286.5 230.25,-242.5 230.25,-242.5 230.25,-236.5 236.25,-230.5 242.25,-230.5 242.25,-230.5 349.75,-230.5 349.75,-230.5 355.75,-230.5 361.75,-236.5 361.75,-242.5 361.75,-242.5 361.75,-286.5 361.75,-286.5 361.75,-292.5 355.75,-298.5 349.75,-298.5"/>
<text text-anchor="middle" x="296" y="-281.2" font-family="Helvetica,sans-Serif" font-size="14.00">gini = &#45;0.0</text>
<text text-anchor="middle" x="296" y="-266.2" font-family="Helvetica,sans-Serif" font-size="14.00">samples = 626</text>
<text text-anchor="middle" x="296" y="-251.2" font-family="Helvetica,sans-Serif" font-size="14.00">value = [0.0, 0.658]</text>
<text text-anchor="middle" x="296" y="-236.2" font-family="Helvetica,sans-Serif" font-size="14.00">class = NO_BUG</text>
</g>
<!-- 0&#45;&gt;8 -->
<g id="edge6" class="edge">
<title>0&#45;&gt;8</title>
<path fill="none" stroke="black" d="M247.23,-341.58C254.09,-330.88 261.5,-319.32 268.42,-308.52"/>
<polygon fill="black" stroke="black" points="271.35,-310.44 273.8,-300.14 265.45,-306.67 271.35,-310.44"/>
<text text-anchor="middle" x="279.96" y="-317.48" font-family="Helvetica,sans-Serif" font-size="14.00">False</text>
</g>
<!-- 2 -->
<g id="node3" class="node">
<title>2</title>
<path fill="#399de5" stroke="black" d="M112,-179.5C112,-179.5 12,-179.5 12,-179.5 6,-179.5 0,-173.5 0,-167.5 0,-167.5 0,-123.5 0,-123.5 0,-117.5 6,-111.5 12,-111.5 12,-111.5 112,-111.5 112,-111.5 118,-111.5 124,-117.5 124,-123.5 124,-123.5 124,-167.5 124,-167.5 124,-173.5 118,-179.5 112,-179.5"/>
<text text-anchor="middle" x="62" y="-162.2" font-family="Helvetica,sans-Serif" font-size="14.00">gini = 0.0</text>
<text text-anchor="middle" x="62" y="-147.2" font-family="Helvetica,sans-Serif" font-size="14.00">samples = 276</text>
<text text-anchor="middle" x="62" y="-132.2" font-family="Helvetica,sans-Serif" font-size="14.00">value = [0.0, 0.29]</text>
<text text-anchor="middle" x="62" y="-117.2" font-family="Helvetica,sans-Serif" font-size="14.00">class = NO_BUG</text>
</g>
<!-- 1&#45;&gt;2 -->
<g id="edge2" class="edge">
<title>1&#45;&gt;2</title>
<path fill="none" stroke="black" d="M116.62,-222.58C108.86,-211.77 100.47,-200.09 92.65,-189.19"/>
<polygon fill="black" stroke="black" points="95.51,-187.17 86.83,-181.09 89.82,-191.26 95.51,-187.17"/>
</g>
<!-- 5 -->
<g id="node4" class="node">
<title>5</title>
<path fill="#e68843" stroke="black" d="M305.5,-187C305.5,-187 154.5,-187 154.5,-187 148.5,-187 142.5,-181 142.5,-175 142.5,-175 142.5,-116 142.5,-116 142.5,-110 148.5,-104 154.5,-104 154.5,-104 305.5,-104 305.5,-104 311.5,-104 317.5,-110 317.5,-116 317.5,-116 317.5,-175 317.5,-175 317.5,-181 311.5,-187 305.5,-187"/>
<text text-anchor="middle" x="230" y="-169.7" font-family="Helvetica,sans-Serif" font-size="14.00">&lt;function&gt; == &#39;sqrt&#39; &lt;= 0.5</text>
<text text-anchor="middle" x="230" y="-154.7" font-family="Helvetica,sans-Serif" font-size="14.00">gini = 0.095</text>
<text text-anchor="middle" x="230" y="-139.7" font-family="Helvetica,sans-Serif" font-size="14.00">samples = 95</text>
<text text-anchor="middle" x="230" y="-124.7" font-family="Helvetica,sans-Serif" font-size="14.00">value = [1.0, 0.053]</text>
<text text-anchor="middle" x="230" y="-109.7" font-family="Helvetica,sans-Serif" font-size="14.00">class = BUG</text>
</g>
<!-- 1&#45;&gt;5 -->
<g id="edge3" class="edge">
<title>1&#45;&gt;5</title>
<path fill="none" stroke="black" d="M175.38,-222.58C181.42,-214.16 187.85,-205.2 194.1,-196.5"/>
<polygon fill="black" stroke="black" points="196.91,-198.59 199.9,-188.43 191.22,-194.51 196.91,-198.59"/>
</g>
<!-- 6 -->
<g id="node5" class="node">
<title>6</title>
<path fill="#399de5" stroke="black" d="M212.75,-68C212.75,-68 105.25,-68 105.25,-68 99.25,-68 93.25,-62 93.25,-56 93.25,-56 93.25,-12 93.25,-12 93.25,-6 99.25,0 105.25,0 105.25,0 212.75,0 212.75,0 218.75,0 224.75,-6 224.75,-12 224.75,-12 224.75,-56 224.75,-56 224.75,-62 218.75,-68 212.75,-68"/>
<text text-anchor="middle" x="159" y="-50.7" font-family="Helvetica,sans-Serif" font-size="14.00">gini = &#45;0.0</text>
<text text-anchor="middle" x="159" y="-35.7" font-family="Helvetica,sans-Serif" font-size="14.00">samples = 50</text>
<text text-anchor="middle" x="159" y="-20.7" font-family="Helvetica,sans-Serif" font-size="14.00">value = [0.0, 0.053]</text>
<text text-anchor="middle" x="159" y="-5.7" font-family="Helvetica,sans-Serif" font-size="14.00">class = NO_BUG</text>
</g>
<!-- 5&#45;&gt;6 -->
<g id="edge4" class="edge">
<title>5&#45;&gt;6</title>
<path fill="none" stroke="black" d="M203.56,-103.73C198.06,-95.24 192.25,-86.28 186.71,-77.73"/>
<polygon fill="black" stroke="black" points="189.79,-76.06 181.41,-69.57 183.92,-79.86 189.79,-76.06"/>
</g>
<!-- 7 -->
<g id="node6" class="node">
<title>7</title>
<path fill="#e58139" stroke="black" d="M347.25,-68C347.25,-68 254.75,-68 254.75,-68 248.75,-68 242.75,-62 242.75,-56 242.75,-56 242.75,-12 242.75,-12 242.75,-6 248.75,0 254.75,0 254.75,0 347.25,0 347.25,0 353.25,0 359.25,-6 359.25,-12 359.25,-12 359.25,-56 359.25,-56 359.25,-62 353.25,-68 347.25,-68"/>
<text text-anchor="middle" x="301" y="-50.7" font-family="Helvetica,sans-Serif" font-size="14.00">gini = &#45;0.0</text>
<text text-anchor="middle" x="301" y="-35.7" font-family="Helvetica,sans-Serif" font-size="14.00">samples = 45</text>
<text text-anchor="middle" x="301" y="-20.7" font-family="Helvetica,sans-Serif" font-size="14.00">value = [1.0, 0.0]</text>
<text text-anchor="middle" x="301" y="-5.7" font-family="Helvetica,sans-Serif" font-size="14.00">class = BUG</text>
</g>
<!-- 5&#45;&gt;7 -->
<g id="edge5" class="edge">
<title>5&#45;&gt;7</title>
<path fill="none" stroke="black" d="M256.44,-103.73C261.94,-95.24 267.75,-86.28 273.29,-77.73"/>
<polygon fill="black" stroke="black" points="276.08,-79.86 278.59,-69.57 270.21,-76.06 276.08,-79.86"/>
</g>
</g>
</svg>
