<?xml version="1.0" encoding="UTF-8" standalone="no"?>
<!DOCTYPE svg PUBLIC "-//W3C//DTD SVG 1.1//EN"
 "http://www.w3.org/Graphics/SVG/1.1/DTD/svg11.dtd">
<!-- Generated by graphviz version 13.1.2 (20250808.2320)
 -->
<!-- Title: Tree Pages: 1 -->
<svg width="385pt" height="552pt"
 viewBox="0.00 0.00 385.00 552.00" xmlns="http://www.w3.org/2000/svg" xmlns:xlink="http://www.w3.org/1999/xlink">
<g id="graph0" class="graph" transform="scale(1 1) rotate(0) translate(4 548)">
<title>Tree</title>
<polygon fill="white" stroke="none" points="-4,4 -4,-548 380.75,-548 380.75,4 -4,4"/>
<!-- 0 -->
<g id="node1" class="node">
<title>0</title>
<path fill="#ffffff" stroke="black" d="M278,-544C278,-544 172,-544 172,-544 166,-544 160,-538 160,-532 160,-532 160,-473 160,-473 160,-467 166,-461 172,-461 172,-461 278,-461 278,-461 284,-461 290,-467 290,-473 290,-473 290,-532 290,-532 290,-538 284,-544 278,-544"/>
<text xml:space="preserve" text-anchor="middle" x="225" y="-526.7" font-family="Helvetica,sans-Serif" font-size="14.00">&lt;lead&#45;digit&gt; &lt;= 4.5</text>
<text xml:space="preserve" text-anchor="middle" x="225" y="-511.7" font-family="Helvetica,sans-Serif" font-size="14.00">gini = 0.5</text>
<text xml:space="preserve" text-anchor="middle" x="225" y="-496.7" font-family="Helvetica,sans-Serif" font-size="14.00">samples = 564</text>
<text xml:space="preserve" text-anchor="middle" x="225" y="-481.7" font-family="Helvetica,sans-Serif" font-size="14.00">value = [1.0, 1.0]</text>
<text xml:space="preserve" text-anchor="middle" x="225" y="-466.7" font-family="Helvetica,sans-Serif" font-size="14.00">class = BUG</text>
</g>
<!-- 1 -->
<g id="node2" class="node">
<title>1</title>
<path fill="#efb286" stroke="black" d="M215.5,-425C215.5,-425 64.5,-425 64.5,-425 58.5,-425 52.5,-419 52.5,-413 52.5,-413 52.5,-354 52.5,-354 52.5,-348 58.5,-342 64.5,-342 64.5,-342 215.5,-342 215.5,-342 221.5,-342 227.5,-348 227.5,-354 227.5,-354 227.5,-413 227.5,-413 227.5,-419 221.5,-425 215.5,-425"/>
<text xml:space="preserve" text-anchor="middle" x="140" y="-407.7" font-family="Helvetica,sans-Serif" font-size="14.00">&lt;function&gt; == &#39;sqrt&#39; &lt;= 0.5</text>
<text xml:space="preserve" text-anchor="middle" x="140" y="-392.7" font-family="Helvetica,sans-Serif" font-size="14.00">gini = 0.402</text>
<text xml:space="preserve" text-anchor="middle" x="140" y="-377.7" font-family="Helvetica,sans-Serif" font-size="14.00">samples = 228</text>
<text xml:space="preserve" text-anchor="middle" x="140" y="-362.7" font-family="Helvetica,sans-Serif" font-size="14.00">value = [1.0, 0.387]</text>
<text xml:space="preserve" text-anchor="middle" x="140" y="-347.7" font-family="Helvetica,sans-Serif" font-size="14.00">class = BUG</text>
</g>
<!-- 0&#45;&gt;1 -->
<g id="edge1" class="edge">
<title>0&#45;&gt;1</title>
<path fill="none" stroke="black" d="M195.27,-460.58C189.15,-452.16 182.65,-443.2 176.33,-434.5"/>
<polygon fill="black" stroke="black" points="179.17,-432.46 170.46,-426.42 173.5,-436.57 179.17,-432.46"/>
<text xml:space="preserve" text-anchor="middle" x="165.66" y="-444.09" font-family="Helvetica,sans-Serif" font-size="14.00">True</text>
</g>
<!-- 12 -->
<g id="node9" class="node">
<title>12</title>
<path fill="#399de5" stroke="black" d="M364.75,-417.5C364.75,-417.5 257.25,-417.5 257.25,-417.5 251.25,-417.5 245.25,-411.5 245.25,-405.5 245.25,-405.5 245.25,-361.5 245.25,-361.5 245.25,-355.5 251.25,-349.5 257.25,-349.5 257.25,-349.5 364.75,-349.5 364.75,-349.5 370.75,-349.5 376.75,-355.5 376.75,-361.5 376.75,-361.5 376.75,-405.5 376.75,-405.5 376.75,-411.5 370.75,-417.5 364.75,-417.5"/>
<text xml:space="preserve" text-anchor="middle" x="311" y="-400.2" font-family="Helvetica,sans-Serif" font-size="14.00">gini = 0.0</text>
<text xml:space="preserve" text-anchor="middle" x="311" y="-385.2" font-family="Helvetica,sans-Serif" font-size="14.00">samples = 336</text>
<text xml:space="preserve" text-anchor="middle" x="311" y="-370.2" font-family="Helvetica,sans-Serif" font-size="14.00">value = [0.0, 0.613]</text>
<text xml:space="preserve" text-anchor="middle" x="311" y="-355.2" font-family="Helvetica,sans-Serif" font-size="14.00">class = NO_BUG</text>
</g>
<!-- 0&#45;&gt;12 -->
<g id="edge8" class="edge">
<title>0&#45;&gt;12</title>
<path fill="none" stroke="black" d="M255.08,-460.58C263.1,-449.66 271.79,-437.85 279.86,-426.86"/>
<polygon fill="black" stroke="black" points="282.48,-429.21 285.58,-419.08 276.84,-425.07 282.48,-429.21"/>
<text xml:space="preserve" text-anchor="middle" x="290.25" y="-436.77" font-family="Helvetica,sans-Serif" font-size="14.00">False</text>
</g>
<!-- 2 -->
<g id="node3" class="node">
<title>2</title>
<path fill="#399de5" stroke="black" d="M119.75,-298.5C119.75,-298.5 12.25,-298.5 12.25,-298.5 6.25,-298.5 0.25,-292.5 0.25,-286.5 0.25,-286.5 0.25,-242.5 0.25,-242.5 0.25,-236.5 6.25,-230.5 12.25,-230.5 12.25,-230.5 119.75,-230.5 119.75,-230.5 125.75,-230.5 131.75,-236.5 131.75,-242.5 131.75,-242.5 131.75,-286.5 131.75,-286.5 131.75,-292.5 125.75,-298.5 119.75,-298.5"/>
<text xml:space="preserve" text-anchor="middle" x="66" y="-281.2" font-family="Helvetica,sans-Serif" font-size="14.00">gini = 0.0</text>
<text xml:space="preserve" text-anchor="middle" x="66" y="-266.2" font-family="Helvetica,sans-Serif" font-size="14.00">samples = 151</text>
<text xml:space="preserve" text-anchor="middle" x="66" y="-251.2" font-family="Helvetica,sans-Serif" font-size="14.00">value = [0.0, 0.276]</text>
<text xml:space="preserve" text-anchor="middle" x="66" y="-236.2" font-family="Helvetica,sans-Serif" font-size="14.00">class = NO_BUG</text>
</g>
<!-- 1&#45;&gt;2 -->
<g id="edge2" class="edge">
<title>1&#45;&gt;2</title>
<path fill="none" stroke="black" d="M114.12,-341.58C107.35,-330.88 100.04,-319.32 93.21,-308.52"/>
<polygon fill="black" stroke="black" points="96.21,-306.72 87.91,-300.14 90.3,-310.46 96.21,-306.72"/>
</g>
<!-- 5 -->
<g id="node4" class="node">
<title>5</title>
<path fill="#e88f4f" stroke="black" d="M268.38,-306C268.38,-306 161.62,-306 161.62,-306 155.62,-306 149.62,-300 149.62,-294 149.62,-294 149.62,-235 149.62,-235 149.62,-229 155.62,-223 161.62,-223 161.62,-223 268.38,-223 268.38,-223 274.38,-223 280.38,-229 280.38,-235 280.38,-235 280.38,-294 280.38,-294 280.38,-300 274.38,-306 268.38,-306"/>
<text xml:space="preserve" text-anchor="middle" x="215" y="-288.7" font-family="Helvetica,sans-Serif" font-size="14.00">&lt;value&gt; &lt;= 42.4</text>
<text xml:space="preserve" text-anchor="middle" x="215" y="-273.7" font-family="Helvetica,sans-Serif" font-size="14.00">gini = 0.18</text>
<text xml:space="preserve" text-anchor="middle" x="215" y="-258.7" font-family="Helvetica,sans-Serif" font-size="14.00">samples = 77</text>
<text xml:space="preserve" text-anchor="middle" x="215" y="-243.7" font-family="Helvetica,sans-Serif" font-size="14.00">value = [1.0, 0.111]</text>
<text xml:space="preserve" text-anchor="middle" x="215" y="-228.7" font-family="Helvetica,sans-Serif" font-size="14.00">class = BUG</text>
</g>
<!-- 1&#45;&gt;5 -->
<g id="edge3" class="edge">
<title>1&#45;&gt;5</title>
<path fill="none" stroke="black" d="M166.23,-341.58C171.57,-333.25 177.25,-324.39 182.77,-315.78"/>
<polygon fill="black" stroke="black" points="185.64,-317.78 188.09,-307.47 179.75,-314 185.64,-317.78"/>
</g>
<!-- 6 -->
<g id="node5" class="node">
<title>6</title>
<path fill="#e6843d" stroke="black" d="M207.12,-187C207.12,-187 44.87,-187 44.87,-187 38.87,-187 32.88,-181 32.88,-175 32.88,-175 32.88,-116 32.88,-116 32.88,-110 38.88,-104 44.88,-104 44.88,-104 207.12,-104 207.12,-104 213.12,-104 219.12,-110 219.12,-116 219.12,-116 219.12,-175 219.12,-175 219.12,-181 213.12,-187 207.12,-187"/>
<text xml:space="preserve" text-anchor="middle" x="126" y="-169.7" font-family="Helvetica,sans-Serif" font-size="14.00">&lt;term&gt; == &#39;&#45;&lt;value&gt;&#39; &lt;= 0.5</text>
<text xml:space="preserve" text-anchor="middle" x="126" y="-154.7" font-family="Helvetica,sans-Serif" font-size="14.00">gini = 0.039</text>
<text xml:space="preserve" text-anchor="middle" x="126" y="-139.7" font-family="Helvetica,sans-Serif" font-size="14.00">samples = 27</text>
<text xml:space="preserve" text-anchor="middle" x="126" y="-124.7" font-family="Helvetica,sans-Serif" font-size="14.00">value = [1.0, 0.02]</text>
<text xml:space="preserve" text-anchor="middle" x="126" y="-109.7" font-family="Helvetica,sans-Serif" font-size="14.00">class = BUG</text>
</g>
<!-- 5&#45;&gt;6 -->
<g id="edge4" class="edge">
<title>5&#45;&gt;6</title>
<path fill="none" stroke="black" d="M183.87,-222.58C177.4,-214.07 170.51,-205.01 163.83,-196.23"/>
<polygon fill="black" stroke="black" points="166.72,-194.24 157.88,-188.4 161.15,-198.48 166.72,-194.24"/>
</g>
<!-- 9 -->
<g id="node8" class="node">
<title>9</title>
<path fill="#399de5" stroke="black" d="M356.75,-179.5C356.75,-179.5 249.25,-179.5 249.25,-179.5 243.25,-179.5 237.25,-173.5 237.25,-167.5 237.25,-167.5 237.25,-123.5 237.25,-123.5 237.25,-117.5 243.25,-111.5 249.25,-111.5 249.25,-111.5 356.75,-111.5 356.75,-111.5 362.75,-111.5 368.75,-117.5 368.75,-123.5 368.75,-123.5 368.75,-167.5 368.75,-167.5 368.75,-173.5 362.75,-179.5 356.75,-179.5"/>
<text xml:space="preserve" text-anchor="middle" x="303" y="-162.2" font-family="Helvetica,sans-Serif" font-size="14.00">gini = 0.0</text>
<text xml:space="preserve" text-anchor="middle" x="303" y="-147.2" font-family="Helvetica,sans-Serif" font-size="14.00">samples = 50</text>
<text xml:space="preserve" text-anchor="middle" x="303" y="-132.2" font-family="Helvetica,sans-Serif" font-size="14.00">value = [0.0, 0.091]</text>
<text xml:space="preserve" text-anchor="middle" x="303" y="-117.2" font-family="Helvetica,sans-Serif" font-size="14.00">class = NO_BUG</text>
</g>
<!-- 5&#45;&gt;9 -->
<g id="edge7" class="edge">
<title>5&#45;&gt;9</title>
<path fill="none" stroke="black" d="M245.78,-222.58C253.99,-211.66 262.87,-199.85 271.14,-188.86"/>
<polygon fill="black" stroke="black" points="273.78,-191.17 277,-181.07 268.19,-186.96 273.78,-191.17"/>
</g>
<!-- 7 -->
<g id="node6" class="node">
<title>7</title>
<path fill="#399de5" stroke="black" d="M112,-68C112,-68 12,-68 12,-68 6,-68 0,-62 0,-56 0,-56 0,-12 0,-12 0,-6 6,0 12,0 12,0 112,0 112,0 118,0 124,-6 124,-12 124,-12 124,-56 124,-56 124,-62 118,-68 112,-68"/>
<text xml:space="preserve" text-anchor="middle" x="62" y="-50.7" font-family="Helvetica,sans-Serif" font-size="14.00">gini = 0.0</text>
<text xml:space="preserve" text-anchor="middle" x="62" y="-35.7" font-family="Helvetica,sans-Serif" font-size="14.00">samples = 11</text>
<text xml:space="preserve" text-anchor="middle" x="62" y="-20.7" font-family="Helvetica,sans-Serif" font-size="14.00">value = [0.0, 0.02]</text>
<text xml:space="preserve" text-anchor="middle" x="62" y="-5.7" font-family="Helvetica,sans-Serif" font-size="14.00">class = NO_BUG</text>
</g>
<!-- 6&#45;&gt;7 -->
<g id="edge5" class="edge">
<title>6&#45;&gt;7</title>
<path fill="none" stroke="black" d="M102.17,-103.73C97.26,-95.34 92.09,-86.47 87.14,-78.01"/>
<polygon fill="black" stroke="black" points="90.29,-76.47 82.23,-69.61 84.25,-80.01 90.29,-76.47"/>
</g>
<!-- 8 -->
<g id="node7" class="node">
<title>8</title>
<path fill="#e58139" stroke="black" d="M227.88,-68C227.88,-68 154.12,-68 154.12,-68 148.12,-68 142.12,-62 142.12,-56 142.12,-56 142.12,-12 142.12,-12 142.12,-6 148.12,0 154.12,0 154.12,0 227.88,0 227.88,0 233.88,0 239.88,-6 239.88,-12 239.88,-12 239.88,-56 239.88,-56 239.88,-62 233.88,-68 227.88,-68"/>
<text xml:space="preserve" text-anchor="middle" x="191" y="-50.7" font-family="Helvetica,sans-Serif" font-size="14.00">gini = 0.0</text>
<text xml:space="preserve" text-anchor="middle" x="191" y="-35.7" font-family="Helvetica,sans-Serif" font-size="14.00">samples = 16</text>
<text xml:space="preserve" text-anchor="middle" x="191" y="-20.7" font-family="Helvetica,sans-Serif" font-size="14.00">value = [1, 0]</text>
<text xml:space="preserve" text-anchor="middle" x="191" y="-5.7" font-family="Helvetica,sans-Serif" font-size="14.00">class = BUG</text>
</g>
<!-- 6&#45;&gt;8 -->
<g id="edge6" class="edge">
<title>6&#45;&gt;8</title>
<path fill="none" stroke="black" d="M150.2,-103.73C155.18,-95.34 160.44,-86.47 165.47,-78.01"/>
<polygon fill="black" stroke="black" points="168.37,-79.99 170.46,-69.6 162.35,-76.41 168.37,-79.99"/>
</g>
</g>
</svg>
