<?xml version="1.0" encoding="UTF-8" standalone="no"?>
<!DOCTYPE svg PUBLIC "-//W3C//DTD SVG 1.1//EN"
 "http://www.w3.org/Graphics/SVG/1.1/DTD/svg11.dtd">
<!-- Generated by graphviz version 12.2.1 (20241206.2353)
 -->
<!-- Title: Tree Pages: 1 -->
<svg width="463pt" height="552pt"
 viewBox="0.00 0.00 462.50 552.00" xmlns="http://www.w3.org/2000/svg" xmlns:xlink="http://www.w3.org/1999/xlink">
<g id="graph0" class="graph" transform="scale(1 1) rotate(0) translate(4 548)">
<title>Tree</title>
<polygon fill="white" stroke="none" points="-4,4 -4,-548 458.5,-548 458.5,4 -4,4"/>
<!-- 0 -->
<g id="node1" class="node">
<title>0</title>
<path fill="#ffffff" stroke="black" d="M291.75,-544C291.75,-544 185.75,-544 185.75,-544 179.75,-544 173.75,-538 173.75,-532 173.75,-532 173.75,-473 173.75,-473 173.75,-467 179.75,-461 185.75,-461 185.75,-461 291.75,-461 291.75,-461 297.75,-461 303.75,-467 303.75,-473 303.75,-473 303.75,-532 303.75,-532 303.75,-538 297.75,-544 291.75,-544"/>
<text text-anchor="middle" x="238.75" y="-526.7" font-family="Helvetica,sans-Serif" font-size="14.00">&lt;lead&#45;digit&gt; &lt;= 4.5</text>
<text text-anchor="middle" x="238.75" y="-511.7" font-family="Helvetica,sans-Serif" font-size="14.00">gini = 0.5</text>
<text text-anchor="middle" x="238.75" y="-496.7" font-family="Helvetica,sans-Serif" font-size="14.00">samples = 975</text>
<text text-anchor="middle" x="238.75" y="-481.7" font-family="Helvetica,sans-Serif" font-size="14.00">value = [1.0, 1.0]</text>
<text text-anchor="middle" x="238.75" y="-466.7" font-family="Helvetica,sans-Serif" font-size="14.00">class = NO_BUG</text>
</g>
<!-- 1 -->
<g id="node2" class="node">
<title>1</title>
<path fill="#edaa79" stroke="black" d="M229.25,-425C229.25,-425 78.25,-425 78.25,-425 72.25,-425 66.25,-419 66.25,-413 66.25,-413 66.25,-354 66.25,-354 66.25,-348 72.25,-342 78.25,-342 78.25,-342 229.25,-342 229.25,-342 235.25,-342 241.25,-348 241.25,-354 241.25,-354 241.25,-413 241.25,-413 241.25,-419 235.25,-425 229.25,-425"/>
<text text-anchor="middle" x="153.75" y="-407.7" font-family="Helvetica,sans-Serif" font-size="14.00">&lt;function&gt; == &#39;sqrt&#39; &lt;= 0.5</text>
<text text-anchor="middle" x="153.75" y="-392.7" font-family="Helvetica,sans-Serif" font-size="14.00">gini = 0.37</text>
<text text-anchor="middle" x="153.75" y="-377.7" font-family="Helvetica,sans-Serif" font-size="14.00">samples = 338</text>
<text text-anchor="middle" x="153.75" y="-362.7" font-family="Helvetica,sans-Serif" font-size="14.00">value = [1.0, 0.325]</text>
<text text-anchor="middle" x="153.75" y="-347.7" font-family="Helvetica,sans-Serif" font-size="14.00">class = BUG</text>
</g>
<!-- 0&#45;&gt;1 -->
<g id="edge1" class="edge">
<title>0&#45;&gt;1</title>
<path fill="none" stroke="black" d="M209.02,-460.58C202.9,-452.16 196.4,-443.2 190.08,-434.5"/>
<polygon fill="black" stroke="black" points="192.92,-432.46 184.21,-426.42 187.25,-436.57 192.92,-432.46"/>
<text text-anchor="middle" x="179.41" y="-444.09" font-family="Helvetica,sans-Serif" font-size="14.00">True</text>
</g>
<!-- 14 -->
<g id="node9" class="node">
<title>14</title>
<path fill="#399de5" stroke="black" d="M378.5,-417.5C378.5,-417.5 271,-417.5 271,-417.5 265,-417.5 259,-411.5 259,-405.5 259,-405.5 259,-361.5 259,-361.5 259,-355.5 265,-349.5 271,-349.5 271,-349.5 378.5,-349.5 378.5,-349.5 384.5,-349.5 390.5,-355.5 390.5,-361.5 390.5,-361.5 390.5,-405.5 390.5,-405.5 390.5,-411.5 384.5,-417.5 378.5,-417.5"/>
<text text-anchor="middle" x="324.75" y="-400.2" font-family="Helvetica,sans-Serif" font-size="14.00">gini = 0.0</text>
<text text-anchor="middle" x="324.75" y="-385.2" font-family="Helvetica,sans-Serif" font-size="14.00">samples = 637</text>
<text text-anchor="middle" x="324.75" y="-370.2" font-family="Helvetica,sans-Serif" font-size="14.00">value = [0.0, 0.675]</text>
<text text-anchor="middle" x="324.75" y="-355.2" font-family="Helvetica,sans-Serif" font-size="14.00">class = NO_BUG</text>
</g>
<!-- 0&#45;&gt;14 -->
<g id="edge8" class="edge">
<title>0&#45;&gt;14</title>
<path fill="none" stroke="black" d="M268.83,-460.58C276.85,-449.66 285.54,-437.85 293.61,-426.86"/>
<polygon fill="black" stroke="black" points="296.23,-429.21 299.33,-419.08 290.59,-425.07 296.23,-429.21"/>
<text text-anchor="middle" x="304" y="-436.77" font-family="Helvetica,sans-Serif" font-size="14.00">False</text>
</g>
<!-- 2 -->
<g id="node3" class="node">
<title>2</title>
<path fill="#399de5" stroke="black" d="M119.5,-298.5C119.5,-298.5 12,-298.5 12,-298.5 6,-298.5 0,-292.5 0,-286.5 0,-286.5 0,-242.5 0,-242.5 0,-236.5 6,-230.5 12,-230.5 12,-230.5 119.5,-230.5 119.5,-230.5 125.5,-230.5 131.5,-236.5 131.5,-242.5 131.5,-242.5 131.5,-286.5 131.5,-286.5 131.5,-292.5 125.5,-298.5 119.5,-298.5"/>
<text text-anchor="middle" x="65.75" y="-281.2" font-family="Helvetica,sans-Serif" font-size="14.00">gini = 0.0</text>
<text text-anchor="middle" x="65.75" y="-266.2" font-family="Helvetica,sans-Serif" font-size="14.00">samples = 196</text>
<text text-anchor="middle" x="65.75" y="-251.2" font-family="Helvetica,sans-Serif" font-size="14.00">value = [0.0, 0.208]</text>
<text text-anchor="middle" x="65.75" y="-236.2" font-family="Helvetica,sans-Serif" font-size="14.00">class = NO_BUG</text>
</g>
<!-- 1&#45;&gt;2 -->
<g id="edge2" class="edge">
<title>1&#45;&gt;2</title>
<path fill="none" stroke="black" d="M122.97,-341.58C114.76,-330.66 105.88,-318.85 97.61,-307.86"/>
<polygon fill="black" stroke="black" points="100.56,-305.96 91.75,-300.07 94.97,-310.17 100.56,-305.96"/>
</g>
<!-- 5 -->
<g id="node4" class="node">
<title>5</title>
<path fill="#e89050" stroke="black" d="M323.88,-306C323.88,-306 161.62,-306 161.62,-306 155.62,-306 149.62,-300 149.62,-294 149.62,-294 149.62,-235 149.62,-235 149.62,-229 155.62,-223 161.62,-223 161.62,-223 323.88,-223 323.88,-223 329.88,-223 335.88,-229 335.88,-235 335.88,-235 335.88,-294 335.88,-294 335.88,-300 329.88,-306 323.88,-306"/>
<text text-anchor="middle" x="242.75" y="-288.7" font-family="Helvetica,sans-Serif" font-size="14.00">&lt;term&gt; == &#39;&#45;&lt;value&gt;&#39; &lt;= 0.5</text>
<text text-anchor="middle" x="242.75" y="-273.7" font-family="Helvetica,sans-Serif" font-size="14.00">gini = 0.188</text>
<text text-anchor="middle" x="242.75" y="-258.7" font-family="Helvetica,sans-Serif" font-size="14.00">samples = 142</text>
<text text-anchor="middle" x="242.75" y="-243.7" font-family="Helvetica,sans-Serif" font-size="14.00">value = [1.0, 0.118]</text>
<text text-anchor="middle" x="242.75" y="-228.7" font-family="Helvetica,sans-Serif" font-size="14.00">class = BUG</text>
</g>
<!-- 1&#45;&gt;5 -->
<g id="edge3" class="edge">
<title>1&#45;&gt;5</title>
<path fill="none" stroke="black" d="M184.88,-341.58C191.35,-333.07 198.24,-324.01 204.92,-315.23"/>
<polygon fill="black" stroke="black" points="207.6,-317.48 210.87,-307.4 202.03,-313.24 207.6,-317.48"/>
</g>
<!-- 6 -->
<g id="node5" class="node">
<title>6</title>
<path fill="#399de5" stroke="black" d="M221.5,-179.5C221.5,-179.5 114,-179.5 114,-179.5 108,-179.5 102,-173.5 102,-167.5 102,-167.5 102,-123.5 102,-123.5 102,-117.5 108,-111.5 114,-111.5 114,-111.5 221.5,-111.5 221.5,-111.5 227.5,-111.5 233.5,-117.5 233.5,-123.5 233.5,-123.5 233.5,-167.5 233.5,-167.5 233.5,-173.5 227.5,-179.5 221.5,-179.5"/>
<text text-anchor="middle" x="167.75" y="-162.2" font-family="Helvetica,sans-Serif" font-size="14.00">gini = 0.0</text>
<text text-anchor="middle" x="167.75" y="-147.2" font-family="Helvetica,sans-Serif" font-size="14.00">samples = 79</text>
<text text-anchor="middle" x="167.75" y="-132.2" font-family="Helvetica,sans-Serif" font-size="14.00">value = [0.0, 0.084]</text>
<text text-anchor="middle" x="167.75" y="-117.2" font-family="Helvetica,sans-Serif" font-size="14.00">class = NO_BUG</text>
</g>
<!-- 5&#45;&gt;6 -->
<g id="edge4" class="edge">
<title>5&#45;&gt;6</title>
<path fill="none" stroke="black" d="M216.52,-222.58C209.66,-211.88 202.25,-200.32 195.33,-189.52"/>
<polygon fill="black" stroke="black" points="198.3,-187.67 189.95,-181.14 192.4,-191.44 198.3,-187.67"/>
</g>
<!-- 9 -->
<g id="node6" class="node">
<title>9</title>
<path fill="#e68540" stroke="black" d="M371.5,-187C371.5,-187 264,-187 264,-187 258,-187 252,-181 252,-175 252,-175 252,-116 252,-116 252,-110 258,-104 264,-104 264,-104 371.5,-104 371.5,-104 377.5,-104 383.5,-110 383.5,-116 383.5,-116 383.5,-175 383.5,-175 383.5,-181 377.5,-187 371.5,-187"/>
<text text-anchor="middle" x="317.75" y="-169.7" font-family="Helvetica,sans-Serif" font-size="14.00">&lt;integer&gt; &lt;= 42.5</text>
<text text-anchor="middle" x="317.75" y="-154.7" font-family="Helvetica,sans-Serif" font-size="14.00">gini = 0.063</text>
<text text-anchor="middle" x="317.75" y="-139.7" font-family="Helvetica,sans-Serif" font-size="14.00">samples = 63</text>
<text text-anchor="middle" x="317.75" y="-124.7" font-family="Helvetica,sans-Serif" font-size="14.00">value = [1.0, 0.034]</text>
<text text-anchor="middle" x="317.75" y="-109.7" font-family="Helvetica,sans-Serif" font-size="14.00">class = BUG</text>
</g>
<!-- 5&#45;&gt;9 -->
<g id="edge5" class="edge">
<title>5&#45;&gt;9</title>
<path fill="none" stroke="black" d="M268.98,-222.58C274.32,-214.25 280,-205.39 285.52,-196.78"/>
<polygon fill="black" stroke="black" points="288.39,-198.78 290.84,-188.47 282.5,-195 288.39,-198.78"/>
</g>
<!-- 10 -->
<g id="node7" class="node">
<title>10</title>
<path fill="#e58139" stroke="black" d="M293,-68C293,-68 200.5,-68 200.5,-68 194.5,-68 188.5,-62 188.5,-56 188.5,-56 188.5,-12 188.5,-12 188.5,-6 194.5,0 200.5,0 200.5,0 293,0 293,0 299,0 305,-6 305,-12 305,-12 305,-56 305,-56 305,-62 299,-68 293,-68"/>
<text text-anchor="middle" x="246.75" y="-50.7" font-family="Helvetica,sans-Serif" font-size="14.00">gini = 0.0</text>
<text text-anchor="middle" x="246.75" y="-35.7" font-family="Helvetica,sans-Serif" font-size="14.00">samples = 31</text>
<text text-anchor="middle" x="246.75" y="-20.7" font-family="Helvetica,sans-Serif" font-size="14.00">value = [1.0, 0.0]</text>
<text text-anchor="middle" x="246.75" y="-5.7" font-family="Helvetica,sans-Serif" font-size="14.00">class = BUG</text>
</g>
<!-- 9&#45;&gt;10 -->
<g id="edge6" class="edge">
<title>9&#45;&gt;10</title>
<path fill="none" stroke="black" d="M291.31,-103.73C285.81,-95.24 280,-86.28 274.46,-77.73"/>
<polygon fill="black" stroke="black" points="277.54,-76.06 269.16,-69.57 271.67,-79.86 277.54,-76.06"/>
</g>
<!-- 11 -->
<g id="node8" class="node">
<title>11</title>
<path fill="#399de5" stroke="black" d="M442.5,-68C442.5,-68 335,-68 335,-68 329,-68 323,-62 323,-56 323,-56 323,-12 323,-12 323,-6 329,0 335,0 335,0 442.5,0 442.5,0 448.5,0 454.5,-6 454.5,-12 454.5,-12 454.5,-56 454.5,-56 454.5,-62 448.5,-68 442.5,-68"/>
<text text-anchor="middle" x="388.75" y="-50.7" font-family="Helvetica,sans-Serif" font-size="14.00">gini = 0.0</text>
<text text-anchor="middle" x="388.75" y="-35.7" font-family="Helvetica,sans-Serif" font-size="14.00">samples = 32</text>
<text text-anchor="middle" x="388.75" y="-20.7" font-family="Helvetica,sans-Serif" font-size="14.00">value = [0.0, 0.034]</text>
<text text-anchor="middle" x="388.75" y="-5.7" font-family="Helvetica,sans-Serif" font-size="14.00">class = NO_BUG</text>
</g>
<!-- 9&#45;&gt;11 -->
<g id="edge7" class="edge">
<title>9&#45;&gt;11</title>
<path fill="none" stroke="black" d="M344.19,-103.73C349.69,-95.24 355.5,-86.28 361.04,-77.73"/>
<polygon fill="black" stroke="black" points="363.83,-79.86 366.34,-69.57 357.96,-76.06 363.83,-79.86"/>
</g>
</g>
</svg>
