<?xml version="1.0" encoding="UTF-8" standalone="no"?>
<!DOCTYPE svg PUBLIC "-//W3C//DTD SVG 1.1//EN"
 "http://www.w3.org/Graphics/SVG/1.1/DTD/svg11.dtd">
<!-- Generated by graphviz version 12.2.1 (20241206.2353)
 -->
<!-- Title: Tree Pages: 1 -->
<svg width="396pt" height="552pt"
 viewBox="0.00 0.00 395.50 552.00" xmlns="http://www.w3.org/2000/svg" xmlns:xlink="http://www.w3.org/1999/xlink">
<g id="graph0" class="graph" transform="scale(1 1) rotate(0) translate(4 548)">
<title>Tree</title>
<polygon fill="white" stroke="none" points="-4,4 -4,-548 391.5,-548 391.5,4 -4,4"/>
<!-- 0 -->
<g id="node1" class="node">
<title>0</title>
<path fill="#ffffff" stroke="black" d="M288.75,-544C288.75,-544 182.75,-544 182.75,-544 176.75,-544 170.75,-538 170.75,-532 170.75,-532 170.75,-473 170.75,-473 170.75,-467 176.75,-461 182.75,-461 182.75,-461 288.75,-461 288.75,-461 294.75,-461 300.75,-467 300.75,-473 300.75,-473 300.75,-532 300.75,-532 300.75,-538 294.75,-544 288.75,-544"/>
<text text-anchor="middle" x="235.75" y="-526.7" font-family="Helvetica,sans-Serif" font-size="14.00">&lt;lead&#45;digit&gt; &lt;= 4.5</text>
<text text-anchor="middle" x="235.75" y="-511.7" font-family="Helvetica,sans-Serif" font-size="14.00">gini = 0.5</text>
<text text-anchor="middle" x="235.75" y="-496.7" font-family="Helvetica,sans-Serif" font-size="14.00">samples = 1377</text>
<text text-anchor="middle" x="235.75" y="-481.7" font-family="Helvetica,sans-Serif" font-size="14.00">value = [1.0, 1.0]</text>
<text text-anchor="middle" x="235.75" y="-466.7" font-family="Helvetica,sans-Serif" font-size="14.00">class = BUG</text>
</g>
<!-- 1 -->
<g id="node2" class="node">
<title>1</title>
<path fill="#eca46f" stroke="black" d="M226.25,-425C226.25,-425 75.25,-425 75.25,-425 69.25,-425 63.25,-419 63.25,-413 63.25,-413 63.25,-354 63.25,-354 63.25,-348 69.25,-342 75.25,-342 75.25,-342 226.25,-342 226.25,-342 232.25,-342 238.25,-348 238.25,-354 238.25,-354 238.25,-413 238.25,-413 238.25,-419 232.25,-425 226.25,-425"/>
<text text-anchor="middle" x="150.75" y="-407.7" font-family="Helvetica,sans-Serif" font-size="14.00">&lt;function&gt; == &#39;sqrt&#39; &lt;= 0.5</text>
<text text-anchor="middle" x="150.75" y="-392.7" font-family="Helvetica,sans-Serif" font-size="14.00">gini = 0.338</text>
<text text-anchor="middle" x="150.75" y="-377.7" font-family="Helvetica,sans-Serif" font-size="14.00">samples = 407</text>
<text text-anchor="middle" x="150.75" y="-362.7" font-family="Helvetica,sans-Serif" font-size="14.00">value = [1.0, 0.274]</text>
<text text-anchor="middle" x="150.75" y="-347.7" font-family="Helvetica,sans-Serif" font-size="14.00">class = BUG</text>
</g>
<!-- 0&#45;&gt;1 -->
<g id="edge1" class="edge">
<title>0&#45;&gt;1</title>
<path fill="none" stroke="black" d="M206.02,-460.58C199.9,-452.16 193.4,-443.2 187.08,-434.5"/>
<polygon fill="black" stroke="black" points="189.92,-432.46 181.21,-426.42 184.25,-436.57 189.92,-432.46"/>
<text text-anchor="middle" x="176.41" y="-444.09" font-family="Helvetica,sans-Serif" font-size="14.00">True</text>
</g>
<!-- 10 -->
<g id="node9" class="node">
<title>10</title>
<path fill="#399de5" stroke="black" d="M375.5,-417.5C375.5,-417.5 268,-417.5 268,-417.5 262,-417.5 256,-411.5 256,-405.5 256,-405.5 256,-361.5 256,-361.5 256,-355.5 262,-349.5 268,-349.5 268,-349.5 375.5,-349.5 375.5,-349.5 381.5,-349.5 387.5,-355.5 387.5,-361.5 387.5,-361.5 387.5,-405.5 387.5,-405.5 387.5,-411.5 381.5,-417.5 375.5,-417.5"/>
<text text-anchor="middle" x="321.75" y="-400.2" font-family="Helvetica,sans-Serif" font-size="14.00">gini = 0.0</text>
<text text-anchor="middle" x="321.75" y="-385.2" font-family="Helvetica,sans-Serif" font-size="14.00">samples = 970</text>
<text text-anchor="middle" x="321.75" y="-370.2" font-family="Helvetica,sans-Serif" font-size="14.00">value = [0.0, 0.726]</text>
<text text-anchor="middle" x="321.75" y="-355.2" font-family="Helvetica,sans-Serif" font-size="14.00">class = NO_BUG</text>
</g>
<!-- 0&#45;&gt;10 -->
<g id="edge8" class="edge">
<title>0&#45;&gt;10</title>
<path fill="none" stroke="black" d="M265.83,-460.58C273.85,-449.66 282.54,-437.85 290.61,-426.86"/>
<polygon fill="black" stroke="black" points="293.23,-429.21 296.33,-419.08 287.59,-425.07 293.23,-429.21"/>
<text text-anchor="middle" x="301" y="-436.77" font-family="Helvetica,sans-Serif" font-size="14.00">False</text>
</g>
<!-- 2 -->
<g id="node3" class="node">
<title>2</title>
<path fill="#399de5" stroke="black" d="M129.5,-298.5C129.5,-298.5 22,-298.5 22,-298.5 16,-298.5 10,-292.5 10,-286.5 10,-286.5 10,-242.5 10,-242.5 10,-236.5 16,-230.5 22,-230.5 22,-230.5 129.5,-230.5 129.5,-230.5 135.5,-230.5 141.5,-236.5 141.5,-242.5 141.5,-242.5 141.5,-286.5 141.5,-286.5 141.5,-292.5 135.5,-298.5 129.5,-298.5"/>
<text text-anchor="middle" x="75.75" y="-281.2" font-family="Helvetica,sans-Serif" font-size="14.00">gini = 0.0</text>
<text text-anchor="middle" x="75.75" y="-266.2" font-family="Helvetica,sans-Serif" font-size="14.00">samples = 236</text>
<text text-anchor="middle" x="75.75" y="-251.2" font-family="Helvetica,sans-Serif" font-size="14.00">value = [0.0, 0.177]</text>
<text text-anchor="middle" x="75.75" y="-236.2" font-family="Helvetica,sans-Serif" font-size="14.00">class = NO_BUG</text>
</g>
<!-- 1&#45;&gt;2 -->
<g id="edge2" class="edge">
<title>1&#45;&gt;2</title>
<path fill="none" stroke="black" d="M124.52,-341.58C117.66,-330.88 110.25,-319.32 103.33,-308.52"/>
<polygon fill="black" stroke="black" points="106.3,-306.67 97.95,-300.14 100.4,-310.44 106.3,-306.67"/>
</g>
<!-- 5 -->
<g id="node4" class="node">
<title>5</title>
<path fill="#e88d4c" stroke="black" d="M279.5,-306C279.5,-306 172,-306 172,-306 166,-306 160,-300 160,-294 160,-294 160,-235 160,-235 160,-229 166,-223 172,-223 172,-223 279.5,-223 279.5,-223 285.5,-223 291.5,-229 291.5,-235 291.5,-235 291.5,-294 291.5,-294 291.5,-300 285.5,-306 279.5,-306"/>
<text text-anchor="middle" x="225.75" y="-288.7" font-family="Helvetica,sans-Serif" font-size="14.00">&lt;value&gt; &lt;= 42.443</text>
<text text-anchor="middle" x="225.75" y="-273.7" font-family="Helvetica,sans-Serif" font-size="14.00">gini = 0.163</text>
<text text-anchor="middle" x="225.75" y="-258.7" font-family="Helvetica,sans-Serif" font-size="14.00">samples = 171</text>
<text text-anchor="middle" x="225.75" y="-243.7" font-family="Helvetica,sans-Serif" font-size="14.00">value = [1.0, 0.098]</text>
<text text-anchor="middle" x="225.75" y="-228.7" font-family="Helvetica,sans-Serif" font-size="14.00">class = BUG</text>
</g>
<!-- 1&#45;&gt;5 -->
<g id="edge3" class="edge">
<title>1&#45;&gt;5</title>
<path fill="none" stroke="black" d="M176.98,-341.58C182.32,-333.25 188,-324.39 193.52,-315.78"/>
<polygon fill="black" stroke="black" points="196.39,-317.78 198.84,-307.47 190.5,-314 196.39,-317.78"/>
</g>
<!-- 6 -->
<g id="node5" class="node">
<title>6</title>
<path fill="#e6853f" stroke="black" d="M217.88,-187C217.88,-187 55.62,-187 55.62,-187 49.62,-187 43.62,-181 43.62,-175 43.62,-175 43.62,-116 43.62,-116 43.62,-110 49.62,-104 55.62,-104 55.62,-104 217.88,-104 217.88,-104 223.88,-104 229.88,-110 229.88,-116 229.88,-116 229.88,-175 229.88,-175 229.88,-181 223.88,-187 217.88,-187"/>
<text text-anchor="middle" x="136.75" y="-169.7" font-family="Helvetica,sans-Serif" font-size="14.00">&lt;term&gt; == &#39;&#45;&lt;value&gt;&#39; &lt;= 0.5</text>
<text text-anchor="middle" x="136.75" y="-154.7" font-family="Helvetica,sans-Serif" font-size="14.00">gini = 0.059</text>
<text text-anchor="middle" x="136.75" y="-139.7" font-family="Helvetica,sans-Serif" font-size="14.00">samples = 82</text>
<text text-anchor="middle" x="136.75" y="-124.7" font-family="Helvetica,sans-Serif" font-size="14.00">value = [1.0, 0.031]</text>
<text text-anchor="middle" x="136.75" y="-109.7" font-family="Helvetica,sans-Serif" font-size="14.00">class = BUG</text>
</g>
<!-- 5&#45;&gt;6 -->
<g id="edge4" class="edge">
<title>5&#45;&gt;6</title>
<path fill="none" stroke="black" d="M194.62,-222.58C188.15,-214.07 181.26,-205.01 174.58,-196.23"/>
<polygon fill="black" stroke="black" points="177.47,-194.24 168.63,-188.4 171.9,-198.48 177.47,-194.24"/>
</g>
<!-- 9 -->
<g id="node8" class="node">
<title>9</title>
<path fill="#399de5" stroke="black" d="M367.5,-179.5C367.5,-179.5 260,-179.5 260,-179.5 254,-179.5 248,-173.5 248,-167.5 248,-167.5 248,-123.5 248,-123.5 248,-117.5 254,-111.5 260,-111.5 260,-111.5 367.5,-111.5 367.5,-111.5 373.5,-111.5 379.5,-117.5 379.5,-123.5 379.5,-123.5 379.5,-167.5 379.5,-167.5 379.5,-173.5 373.5,-179.5 367.5,-179.5"/>
<text text-anchor="middle" x="313.75" y="-162.2" font-family="Helvetica,sans-Serif" font-size="14.00">gini = &#45;0.0</text>
<text text-anchor="middle" x="313.75" y="-147.2" font-family="Helvetica,sans-Serif" font-size="14.00">samples = 89</text>
<text text-anchor="middle" x="313.75" y="-132.2" font-family="Helvetica,sans-Serif" font-size="14.00">value = [0.0, 0.067]</text>
<text text-anchor="middle" x="313.75" y="-117.2" font-family="Helvetica,sans-Serif" font-size="14.00">class = NO_BUG</text>
</g>
<!-- 5&#45;&gt;9 -->
<g id="edge7" class="edge">
<title>5&#45;&gt;9</title>
<path fill="none" stroke="black" d="M256.53,-222.58C264.74,-211.66 273.62,-199.85 281.89,-188.86"/>
<polygon fill="black" stroke="black" points="284.53,-191.17 287.75,-181.07 278.94,-186.96 284.53,-191.17"/>
</g>
<!-- 7 -->
<g id="node6" class="node">
<title>7</title>
<path fill="#399de5" stroke="black" d="M119.5,-68C119.5,-68 12,-68 12,-68 6,-68 0,-62 0,-56 0,-56 0,-12 0,-12 0,-6 6,0 12,0 12,0 119.5,0 119.5,0 125.5,0 131.5,-6 131.5,-12 131.5,-12 131.5,-56 131.5,-56 131.5,-62 125.5,-68 119.5,-68"/>
<text text-anchor="middle" x="65.75" y="-50.7" font-family="Helvetica,sans-Serif" font-size="14.00">gini = &#45;0.0</text>
<text text-anchor="middle" x="65.75" y="-35.7" font-family="Helvetica,sans-Serif" font-size="14.00">samples = 42</text>
<text text-anchor="middle" x="65.75" y="-20.7" font-family="Helvetica,sans-Serif" font-size="14.00">value = [0.0, 0.031]</text>
<text text-anchor="middle" x="65.75" y="-5.7" font-family="Helvetica,sans-Serif" font-size="14.00">class = NO_BUG</text>
</g>
<!-- 6&#45;&gt;7 -->
<g id="edge5" class="edge">
<title>6&#45;&gt;7</title>
<path fill="none" stroke="black" d="M110.31,-103.73C104.81,-95.24 99,-86.28 93.46,-77.73"/>
<polygon fill="black" stroke="black" points="96.54,-76.06 88.16,-69.57 90.67,-79.86 96.54,-76.06"/>
</g>
<!-- 8 -->
<g id="node7" class="node">
<title>8</title>
<path fill="#e58139" stroke="black" d="M254,-68C254,-68 161.5,-68 161.5,-68 155.5,-68 149.5,-62 149.5,-56 149.5,-56 149.5,-12 149.5,-12 149.5,-6 155.5,0 161.5,0 161.5,0 254,0 254,0 260,0 266,-6 266,-12 266,-12 266,-56 266,-56 266,-62 260,-68 254,-68"/>
<text text-anchor="middle" x="207.75" y="-50.7" font-family="Helvetica,sans-Serif" font-size="14.00">gini = &#45;0.0</text>
<text text-anchor="middle" x="207.75" y="-35.7" font-family="Helvetica,sans-Serif" font-size="14.00">samples = 40</text>
<text text-anchor="middle" x="207.75" y="-20.7" font-family="Helvetica,sans-Serif" font-size="14.00">value = [1.0, 0.0]</text>
<text text-anchor="middle" x="207.75" y="-5.7" font-family="Helvetica,sans-Serif" font-size="14.00">class = BUG</text>
</g>
<!-- 6&#45;&gt;8 -->
<g id="edge6" class="edge">
<title>6&#45;&gt;8</title>
<path fill="none" stroke="black" d="M163.19,-103.73C168.69,-95.24 174.5,-86.28 180.04,-77.73"/>
<polygon fill="black" stroke="black" points="182.83,-79.86 185.34,-69.57 176.96,-76.06 182.83,-79.86"/>
</g>
</g>
</svg>
