<?xml version="1.0" encoding="UTF-8" standalone="no"?>
<!DOCTYPE svg PUBLIC "-//W3C//DTD SVG 1.1//EN"
 "http://www.w3.org/Graphics/SVG/1.1/DTD/svg11.dtd">
<!-- Generated by graphviz version 12.1.1 (20240910.0053)
 -->
<!-- Title: dependencies Pages: 1 -->
<svg width="341pt" height="276pt"
 viewBox="0.00 0.00 340.62 276.00" xmlns="http://www.w3.org/2000/svg" xmlns:xlink="http://www.w3.org/1999/xlink">
<g id="graph0" class="graph" transform="scale(1 1) rotate(0) translate(4 272)">
<title>dependencies</title>
<polygon fill="white" stroke="none" points="-4,4 -4,-272 336.62,-272 336.62,4 -4,4"/>
<!-- demoreturnvalue_functiondemoat0x11b6680d0_5 -->
<g id="node1" class="node">
<title>demoreturnvalue_functiondemoat0x11b6680d0_5</title>
<g id="a_node1"><a xlink:title="demo:5">
<polygon fill="peachpuff" stroke="black" points="189.25,-40 0,-40 0,0 189.25,0 189.25,-40"/>
<text text-anchor="start" x="8" y="-23.7" font-family="Courier,monospace" font-weight="bold" font-style="italic" font-size="14.00">&lt;demo() return value&gt;</text>
<text text-anchor="start" x="73.62" y="-5.45" font-family="Courier,monospace" font-size="9.00">return z</text>
</a>
</g>
</g>
<!-- z_functiondemoat0x11b6680d0_4 -->
<g id="node2" class="node">
<title>z_functiondemoat0x11b6680d0_4</title>
<g id="a_node2"><a xlink:title="demo:4">
<polygon fill="peachpuff" stroke="black" points="210.62,-116 156.62,-116 156.62,-76 210.62,-76 210.62,-116"/>
<text text-anchor="start" x="179.5" y="-99.7" font-family="Courier,monospace" font-weight="bold" font-size="14.00">z</text>
<text text-anchor="start" x="167.88" y="-81.45" font-family="Courier,monospace" font-size="9.00">z *= 2</text>
</a>
</g>
</g>
<!-- z_functiondemoat0x11b6680d0_4&#45;&gt;demoreturnvalue_functiondemoat0x11b6680d0_5 -->
<g id="edge1" class="edge">
<title>z_functiondemoat0x11b6680d0_4&#45;&gt;demoreturnvalue_functiondemoat0x11b6680d0_5</title>
<path fill="none" stroke="black" d="M156.2,-77.09C144.77,-68.31 131.63,-57.56 120.38,-47.83"/>
<polygon fill="black" stroke="black" points="122.78,-45.29 112.97,-41.3 118.16,-50.54 122.78,-45.29"/>
</g>
<!-- z_functiondemoat0x11b6680d0_4&#45;&gt;demoreturnvalue_functiondemoat0x11b6680d0_5 -->
<!-- z_functiondemoat0x11b6680d0_4&#45;&gt;z_functiondemoat0x11b6680d0_4 -->
<g id="edge3" class="edge">
<title>z_functiondemoat0x11b6680d0_4&#45;&gt;z_functiondemoat0x11b6680d0_4</title>
<path fill="none" stroke="black" d="M210.87,-110.24C220.65,-110.54 228.62,-105.8 228.62,-96 228.62,-90.34 225.96,-86.36 221.82,-84.07"/>
<polygon fill="black" stroke="black" points="222.85,-80.71 212.35,-82.08 221.41,-87.56 222.85,-80.71"/>
</g>
<!-- test_functiondemoat0x11b6680d0_3 -->
<g id="node5" class="node">
<title>test_functiondemoat0x11b6680d0_3</title>
<g id="a_node5"><a xlink:title="demo:3">
<polygon fill="peachpuff" stroke="black" points="323.5,-40 207.75,-40 207.75,0 323.5,0 323.5,-40"/>
<text text-anchor="start" x="240.88" y="-23.7" font-family="Courier,monospace" font-weight="bold" font-style="italic" font-size="14.00">&lt;test&gt;</text>
<text text-anchor="start" x="215.75" y="-5.45" font-family="Courier,monospace" font-size="9.00">while x &lt;= z &lt;= 64:</text>
</a>
</g>
</g>
<!-- z_functiondemoat0x11b6680d0_4&#45;&gt;test_functiondemoat0x11b6680d0_3 -->
<g id="edge6" class="edge">
<title>z_functiondemoat0x11b6680d0_4&#45;&gt;test_functiondemoat0x11b6680d0_3</title>
<path fill="none" stroke="black" d="M193.12,-75.56C201.1,-66.97 212.11,-56.75 223.27,-47.49"/>
<polygon fill="black" stroke="black" points="225.42,-50.25 231.02,-41.26 221.03,-44.8 225.42,-50.25"/>
</g>
<!-- z_functiondemoat0x11b6680d0_2 -->
<g id="node3" class="node">
<title>z_functiondemoat0x11b6680d0_2</title>
<g id="a_node3"><a xlink:title="demo:2">
<polygon fill="peachpuff" stroke="black" points="288.62,-192 234.62,-192 234.62,-152 288.62,-152 288.62,-192"/>
<text text-anchor="start" x="257.5" y="-175.7" font-family="Courier,monospace" font-weight="bold" font-size="14.00">z</text>
<text text-anchor="start" x="248.5" y="-157.45" font-family="Courier,monospace" font-size="9.00">z = x</text>
</a>
</g>
</g>
<!-- z_functiondemoat0x11b6680d0_2&#45;&gt;z_functiondemoat0x11b6680d0_4 -->
<g id="edge4" class="edge">
<title>z_functiondemoat0x11b6680d0_2&#45;&gt;z_functiondemoat0x11b6680d0_4</title>
<path fill="none" stroke="black" d="M241.13,-151.56C232.26,-143.14 221.74,-133.16 212.13,-124.04"/>
<polygon fill="black" stroke="black" points="214.74,-121.7 205.08,-117.35 209.93,-126.78 214.74,-121.7"/>
</g>
<!-- z_functiondemoat0x11b6680d0_2&#45;&gt;test_functiondemoat0x11b6680d0_3 -->
<g id="edge8" class="edge">
<title>z_functiondemoat0x11b6680d0_2&#45;&gt;test_functiondemoat0x11b6680d0_3</title>
<path fill="none" stroke="black" d="M257.44,-151.7C255.7,-126.27 256.62,-81.28 259.27,-51.29"/>
<polygon fill="black" stroke="black" points="262.71,-52.04 260.26,-41.73 255.75,-51.32 262.71,-52.04"/>
</g>
<!-- z_functiondemoat0x11b6680d0_2&#45;&gt;test_functiondemoat0x11b6680d0_3 -->
<!-- x_functiondemoat0x11b6680d0_1 -->
<g id="node4" class="node">
<title>x_functiondemoat0x11b6680d0_1</title>
<g id="a_node4"><a xlink:title="demo:1">
<polygon fill="peachpuff" stroke="black" points="332.62,-268 190.62,-268 190.62,-228 332.62,-228 332.62,-268"/>
<text text-anchor="start" x="257.5" y="-251.7" font-family="Courier,monospace" font-weight="bold" font-size="14.00">x</text>
<text text-anchor="start" x="198.62" y="-233.45" font-family="Courier,monospace" font-size="9.00">def demo(x: int) &#45;&gt; int:</text>
</a>
</g>
</g>
<!-- x_functiondemoat0x11b6680d0_1&#45;&gt;z_functiondemoat0x11b6680d0_2 -->
<g id="edge2" class="edge">
<title>x_functiondemoat0x11b6680d0_1&#45;&gt;z_functiondemoat0x11b6680d0_2</title>
<path fill="none" stroke="black" d="M255.6,-227.56C254.95,-220.25 254.74,-211.75 254.96,-203.67"/>
<polygon fill="black" stroke="black" points="258.45,-204.01 255.53,-193.82 251.46,-203.61 258.45,-204.01"/>
</g>
<!-- x_functiondemoat0x11b6680d0_1&#45;&gt;z_functiondemoat0x11b6680d0_2 -->
<!-- x_functiondemoat0x11b6680d0_1&#45;&gt;test_functiondemoat0x11b6680d0_3 -->
<g id="edge7" class="edge">
<title>x_functiondemoat0x11b6680d0_1&#45;&gt;test_functiondemoat0x11b6680d0_3</title>
<path fill="none" stroke="black" d="M278.38,-227.53C285.83,-217.6 293.78,-204.9 297.62,-192 312.11,-143.42 293.85,-85.04 279.55,-50.59"/>
<polygon fill="black" stroke="black" points="282.88,-49.47 275.7,-41.68 276.45,-52.25 282.88,-49.47"/>
</g>
<!-- test_functiondemoat0x11b6680d0_3&#45;&gt;z_functiondemoat0x11b6680d0_4 -->
<g id="edge5" class="edge">
<title>test_functiondemoat0x11b6680d0_3&#45;&gt;z_functiondemoat0x11b6680d0_4</title>
<path fill="none" stroke="grey" stroke-dasharray="5,2" d="M244.22,-40.31C234.83,-48.79 223.63,-58.9 213.44,-68.1"/>
<polygon fill="grey" stroke="grey" points="211.37,-65.25 206.29,-74.54 216.06,-70.44 211.37,-65.25"/>
</g>
<!-- test_functiondemoat0x11b6680d0_3&#45;&gt;z_functiondemoat0x11b6680d0_4 -->
</g>
</svg>
