<?xml version="1.0" encoding="UTF-8" standalone="no"?>
<!DOCTYPE svg PUBLIC "-//W3C//DTD SVG 1.1//EN"
 "http://www.w3.org/Graphics/SVG/1.1/DTD/svg11.dtd">
<!-- Generated by graphviz version 2.40.1 (20161225.0304)
 -->
<!-- Title: dependencies Pages: 1 -->
<svg width="201pt" height="352pt"
 viewBox="0.00 0.00 201.00 352.00" xmlns="http://www.w3.org/2000/svg" xmlns:xlink="http://www.w3.org/1999/xlink">
<g id="graph0" class="graph" transform="scale(1 1) rotate(0) translate(4 348)">
<title>dependencies</title>
<polygon fill="#ffffff" stroke="transparent" points="-4,4 -4,-348 197,-348 197,4 -4,4"/>
<!-- test_demo_3 -->
<g id="node1" class="node">
<title>test_demo_3</title>
<g id="a_node1"><a xlink:title="demo:3">
<polygon fill="#ffdab9" stroke="#000000" points="156,-192 37,-192 37,-152 156,-152 156,-192"/>
<text text-anchor="start" x="71" y="-177.8" font-family="Fira Mono, Courier, monospace" font-weight="bold" font-style="italic" font-size="14.00" fill="#000000">&lt;test&gt;</text>
<text text-anchor="start" x="45" y="-158.8" font-family="Fira Mono, Courier, monospace" font-size="9.00" fill="#000000">while x &lt;= z &lt;= 64:</text>
</a>
</g>
</g>
<!-- z_demo_4 -->
<g id="node3" class="node">
<title>z_demo_4</title>
<g id="a_node3"><a xlink:title="demo:4">
<polygon fill="#ffdab9" stroke="#000000" points="123.5,-116 69.5,-116 69.5,-76 123.5,-76 123.5,-116"/>
<text text-anchor="start" x="92" y="-101.8" font-family="Fira Mono, Courier, monospace" font-weight="bold" font-size="14.00" fill="#000000">z</text>
<text text-anchor="start" x="80" y="-82.8" font-family="Fira Mono, Courier, monospace" font-size="9.00" fill="#000000">z *= 2</text>
</a>
</g>
</g>
<!-- test_demo_3&#45;&gt;z_demo_4 -->
<g id="edge7" class="edge">
<title>test_demo_3&#45;&gt;z_demo_4</title>
<path fill="none" stroke="#c0c0c0" stroke-dasharray="5,2" d="M84.3851,-151.6334C83.0638,-143.8186 82.6878,-134.7253 83.2572,-126.183"/>
<polygon fill="#c0c0c0" stroke="#c0c0c0" points="86.7442,-126.4961 84.4204,-116.1593 79.7909,-125.6891 86.7442,-126.4961"/>
</g>
<!-- test_demo_3&#45;&gt;z_demo_4 -->
<!-- x_demo_1 -->
<g id="node2" class="node">
<title>x_demo_1</title>
<g id="a_node2"><a xlink:title="demo:1">
<polygon fill="#ffdab9" stroke="#000000" points="192,-344 111,-344 111,-304 192,-304 192,-344"/>
<text text-anchor="start" x="147" y="-329.8" font-family="Fira Mono, Courier, monospace" font-weight="bold" font-size="14.00" fill="#000000">x</text>
<text text-anchor="start" x="119" y="-310.8" font-family="Fira Mono, Courier, monospace" font-size="9.00" fill="#000000">def demo(x):</text>
</a>
</g>
</g>
<!-- x_demo_1&#45;&gt;test_demo_3 -->
<g id="edge1" class="edge">
<title>x_demo_1&#45;&gt;test_demo_3</title>
<path fill="none" stroke="#000000" d="M135.8421,-303.7518C128.6485,-293.5344 120.6013,-280.6483 115.5,-268 106.9744,-246.8614 102.1666,-221.514 99.5212,-202.1742"/>
<polygon fill="#000000" stroke="#000000" points="102.977,-201.6017 98.2642,-192.1128 96.031,-202.4696 102.977,-201.6017"/>
</g>
<!-- z_demo_2 -->
<g id="node4" class="node">
<title>z_demo_2</title>
<g id="a_node4"><a xlink:title="demo:2">
<polygon fill="#ffdab9" stroke="#000000" points="178.5,-268 124.5,-268 124.5,-228 178.5,-228 178.5,-268"/>
<text text-anchor="start" x="147" y="-253.8" font-family="Fira Mono, Courier, monospace" font-weight="bold" font-size="14.00" fill="#000000">z</text>
<text text-anchor="start" x="137.5" y="-234.8" font-family="Fira Mono, Courier, monospace" font-size="9.00" fill="#000000">z = x</text>
</a>
</g>
</g>
<!-- x_demo_1&#45;&gt;z_demo_2 -->
<g id="edge10" class="edge">
<title>x_demo_1&#45;&gt;z_demo_2</title>
<path fill="none" stroke="#000000" d="M145.4426,-303.6334C144.7819,-295.8186 144.5939,-286.7253 144.8786,-278.183"/>
<polygon fill="#000000" stroke="#000000" points="148.375,-278.3453 145.4602,-268.1593 141.3867,-277.9397 148.375,-278.3453"/>
</g>
<!-- x_demo_1&#45;&gt;z_demo_2 -->
<!-- z_demo_4&#45;&gt;test_demo_3 -->
<g id="edge2" class="edge">
<title>z_demo_4&#45;&gt;test_demo_3</title>
<path fill="none" stroke="#000000" d="M96.5,-116.1593C96.5,-123.9513 96.5,-133.038 96.5,-141.59"/>
<polygon fill="#000000" stroke="#000000" points="93.0001,-141.6334 96.5,-151.6334 100.0001,-141.6334 93.0001,-141.6334"/>
</g>
<!-- z_demo_4&#45;&gt;z_demo_4 -->
<g id="edge5" class="edge">
<title>z_demo_4&#45;&gt;z_demo_4</title>
<path fill="none" stroke="#000000" d="M123.7408,-103.118C133.5239,-103.2711 141.5,-100.8984 141.5,-96 141.5,-93.015 138.5382,-90.9679 134.0105,-89.8588"/>
<polygon fill="#000000" stroke="#000000" points="134.0273,-86.3447 123.7408,-88.882 133.3644,-93.3132 134.0273,-86.3447"/>
</g>
<!-- z_demo_4&#45;&gt;z_demo_4 -->
<g id="edge8" class="edge">
<title>z_demo_4&#45;&gt;z_demo_4</title>
<path fill="none" stroke="#c0c0c0" stroke-dasharray="5,2" d="M123.6975,-108.9941C141.8402,-112.6517 159.5,-108.3203 159.5,-96 159.5,-85.9897 147.8418,-81.2534 133.7386,-81.7911"/>
<polygon fill="#c0c0c0" stroke="#c0c0c0" points="133.2047,-78.3301 123.6975,-83.0059 134.0456,-85.2794 133.2047,-78.3301"/>
</g>
<!-- demoreturnvalue_demo_5 -->
<g id="node5" class="node">
<title>demoreturnvalue_demo_5</title>
<g id="a_node5"><a xlink:title="demo:5">
<polygon fill="#ffdab9" stroke="#000000" points="193,-40 0,-40 0,0 193,0 193,-40"/>
<text text-anchor="start" x="8" y="-25.8" font-family="Fira Mono, Courier, monospace" font-weight="bold" font-style="italic" font-size="14.00" fill="#000000">&lt;demo() return value&gt;</text>
<text text-anchor="start" x="74.5" y="-6.8" font-family="Fira Mono, Courier, monospace" font-size="9.00" fill="#000000">return z</text>
</a>
</g>
</g>
<!-- z_demo_4&#45;&gt;demoreturnvalue_demo_5 -->
<g id="edge4" class="edge">
<title>z_demo_4&#45;&gt;demoreturnvalue_demo_5</title>
<path fill="none" stroke="#000000" d="M90.4426,-75.6334C89.7819,-67.8186 89.5939,-58.7253 89.8786,-50.183"/>
<polygon fill="#000000" stroke="#000000" points="93.375,-50.3453 90.4602,-40.1593 86.3867,-49.9397 93.375,-50.3453"/>
</g>
<!-- z_demo_4&#45;&gt;demoreturnvalue_demo_5 -->
<!-- z_demo_2&#45;&gt;test_demo_3 -->
<g id="edge3" class="edge">
<title>z_demo_2&#45;&gt;test_demo_3</title>
<path fill="none" stroke="#000000" d="M130.7036,-227.6334C123.971,-219.3033 116.7243,-209.5207 110.5667,-200.501"/>
<polygon fill="#000000" stroke="#000000" points="113.4852,-198.5689 105.0492,-192.1593 107.6468,-202.4308 113.4852,-198.5689"/>
</g>
<!-- z_demo_2&#45;&gt;test_demo_3 -->
<!-- z_demo_2&#45;&gt;z_demo_4 -->
<g id="edge6" class="edge">
<title>z_demo_2&#45;&gt;z_demo_4</title>
<path fill="none" stroke="#000000" d="M154.0158,-227.8892C159.7226,-207.7474 168.0884,-176.3299 156.5,-152 150.8463,-140.1302 141.3106,-129.9574 131.4359,-121.6672"/>
<polygon fill="#000000" stroke="#000000" points="133.5331,-118.8637 123.5116,-115.4257 129.2018,-124.3628 133.5331,-118.8637"/>
</g>
<!-- z_demo_2&#45;&gt;z_demo_4 -->
<g id="edge9" class="edge">
<title>z_demo_2&#45;&gt;z_demo_4</title>
<path fill="none" stroke="#c0c0c0" stroke-dasharray="5,2" d="M167.6213,-227.8892C177.7226,-207.7474 186.0884,-176.3299 174.5,-152 165.9915,-134.1365 148.6907,-120.1166 132.4109,-110.5726"/>
<polygon fill="#c0c0c0" stroke="#c0c0c0" points="133.9895,-107.4469 123.5339,-105.7349 130.6397,-113.5935 133.9895,-107.4469"/>
</g>
</g>
</svg>
