<?xml version="1.0" encoding="UTF-8" standalone="no"?>
<!DOCTYPE svg PUBLIC "-//W3C//DTD SVG 1.1//EN"
 "http://www.w3.org/Graphics/SVG/1.1/DTD/svg11.dtd">
<!-- Generated by graphviz version 2.49.1 (20210923.0004)
 -->
<!-- Title: dependencies Pages: 1 -->
<svg width="154pt" height="124pt"
 viewBox="0.00 0.00 154.00 124.00" xmlns="http://www.w3.org/2000/svg" xmlns:xlink="http://www.w3.org/1999/xlink">
<g id="graph0" class="graph" transform="scale(1 1) rotate(0) translate(4 120)">
<title>dependencies</title>
<polygon fill="white" stroke="transparent" points="-4,4 -4,-120 150,-120 150,4 -4,4"/>
<!-- x_functiondemoat0x1070520d0_1 -->
<g id="node1" class="node">
<title>x_functiondemoat0x1070520d0_1</title>
<g id="a_node1"><a xlink:title="demo:1">
<polygon fill="peachpuff" stroke="black" points="146,-116 0,-116 0,-76 146,-76 146,-116"/>
<text text-anchor="start" x="68.5" y="-101.8" font-family="Fira Mono, Courier, monospace" font-weight="bold" font-size="14.00">x</text>
<text text-anchor="start" x="8" y="-82.8" font-family="Fira Mono, Courier, monospace" font-size="9.00">def demo(x: int) &#45;&gt; int:</text>
</a>
</g>
</g>
<!-- z_functiondemoat0x1070520d0_2 -->
<g id="node2" class="node">
<title>z_functiondemoat0x1070520d0_2</title>
<g id="a_node2"><a xlink:title="demo:2">
<polygon fill="peachpuff" stroke="black" points="100,-40 46,-40 46,0 100,0 100,-40"/>
<text text-anchor="start" x="68.5" y="-25.8" font-family="Fira Mono, Courier, monospace" font-weight="bold" font-size="14.00">z</text>
<text text-anchor="start" x="59.5" y="-6.8" font-family="Fira Mono, Courier, monospace" font-size="9.00">z = x</text>
</a>
</g>
</g>
<!-- x_functiondemoat0x1070520d0_1&#45;&gt;z_functiondemoat0x1070520d0_2 -->
<g id="edge1" class="edge">
<title>x_functiondemoat0x1070520d0_1&#45;&gt;z_functiondemoat0x1070520d0_2</title>
<path fill="none" stroke="black" d="M67.01,-75.94C66.29,-68.15 66.08,-58.95 66.38,-50.34"/>
<polygon fill="black" stroke="black" points="69.88,-50.44 66.99,-40.25 62.89,-50.02 69.88,-50.44"/>
</g>
<!-- x_functiondemoat0x1070520d0_1&#45;&gt;z_functiondemoat0x1070520d0_2 -->
</g>
</svg>
