<?xml version="1.0" encoding="UTF-8" standalone="no"?>
<!DOCTYPE svg PUBLIC "-//W3C//DTD SVG 1.1//EN"
 "http://www.w3.org/Graphics/SVG/1.1/DTD/svg11.dtd">
<!-- Generated by graphviz version 2.50.0 (20211204.2007)
 -->
<!-- Title: dependencies Pages: 1 -->
<svg width="203pt" height="352pt"
 viewBox="0.00 0.00 202.50 352.00" xmlns="http://www.w3.org/2000/svg" xmlns:xlink="http://www.w3.org/1999/xlink">
<g id="graph0" class="graph" transform="scale(1 1) rotate(0) translate(4 348)">
<title>dependencies</title>
<polygon fill="white" stroke="transparent" points="-4,4 -4,-348 198.5,-348 198.5,4 -4,4"/>
<!-- test_functiondemoat0x10545f790_3 -->
<g id="node1" class="node">
<title>test_functiondemoat0x10545f790_3</title>
<g id="a_node1"><a xlink:title="demo:3">
<polygon fill="peachpuff" stroke="black" points="153,-192 37,-192 37,-152 153,-152 153,-192"/>
<text text-anchor="start" x="70" y="-177.8" font-family="Courier,monospace" font-weight="bold" font-style="italic" font-size="14.00">&lt;test&gt;</text>
<text text-anchor="start" x="45" y="-158.8" font-family="Courier,monospace" font-size="9.00">while x &lt;= z &lt;= 64:</text>
</a>
</g>
</g>
<!-- z_functiondemoat0x10545f790_4 -->
<g id="node2" class="node">
<title>z_functiondemoat0x10545f790_4</title>
<g id="a_node2"><a xlink:title="demo:4">
<polygon fill="peachpuff" stroke="black" points="122,-116 68,-116 68,-76 122,-76 122,-116"/>
<text text-anchor="start" x="90.5" y="-101.8" font-family="Courier,monospace" font-weight="bold" font-size="14.00">z</text>
<text text-anchor="start" x="79" y="-82.8" font-family="Courier,monospace" font-size="9.00">z *= 2</text>
</a>
</g>
</g>
<!-- test_functiondemoat0x10545f790_3&#45;&gt;z_functiondemoat0x10545f790_4 -->
<g id="edge8" class="edge">
<title>test_functiondemoat0x10545f790_3&#45;&gt;z_functiondemoat0x10545f790_4</title>
<path fill="none" stroke="grey" stroke-dasharray="5,2" d="M83.02,-151.94C81.59,-144.15 81.17,-134.95 81.76,-126.34"/>
<polygon fill="grey" stroke="grey" points="85.25,-126.6 82.99,-116.25 78.31,-125.75 85.25,-126.6"/>
</g>
<!-- test_functiondemoat0x10545f790_3&#45;&gt;z_functiondemoat0x10545f790_4 -->
<!-- z_functiondemoat0x10545f790_4&#45;&gt;test_functiondemoat0x10545f790_3 -->
<g id="edge1" class="edge">
<title>z_functiondemoat0x10545f790_4&#45;&gt;test_functiondemoat0x10545f790_3</title>
<path fill="none" stroke="black" d="M95,-116.25C95,-124.07 95,-133.27 95,-141.87"/>
<polygon fill="black" stroke="black" points="91.5,-141.94 95,-151.94 98.5,-141.94 91.5,-141.94"/>
</g>
<!-- z_functiondemoat0x10545f790_4&#45;&gt;z_functiondemoat0x10545f790_4 -->
<g id="edge6" class="edge">
<title>z_functiondemoat0x10545f790_4&#45;&gt;z_functiondemoat0x10545f790_4</title>
<path fill="none" stroke="black" d="M122.24,-110.24C132.02,-110.54 140,-105.8 140,-96 140,-89.88 136.88,-85.73 132.16,-83.55"/>
<polygon fill="black" stroke="black" points="132.7,-80.09 122.24,-81.76 131.46,-86.98 132.7,-80.09"/>
</g>
<!-- demoreturnvalue_functiondemoat0x10545f790_5 -->
<g id="node5" class="node">
<title>demoreturnvalue_functiondemoat0x10545f790_5</title>
<g id="a_node5"><a xlink:title="demo:5">
<polygon fill="peachpuff" stroke="black" points="190,-40 0,-40 0,0 190,0 190,-40"/>
<text text-anchor="start" x="8" y="-25.8" font-family="Courier,monospace" font-weight="bold" font-style="italic" font-size="14.00">&lt;demo() return value&gt;</text>
<text text-anchor="start" x="73.5" y="-6.8" font-family="Courier,monospace" font-size="9.00">return z</text>
</a>
</g>
</g>
<!-- z_functiondemoat0x10545f790_4&#45;&gt;demoreturnvalue_functiondemoat0x10545f790_5 -->
<g id="edge4" class="edge">
<title>z_functiondemoat0x10545f790_4&#45;&gt;demoreturnvalue_functiondemoat0x10545f790_5</title>
<path fill="none" stroke="black" d="M89.01,-75.94C88.29,-68.15 88.08,-58.95 88.38,-50.34"/>
<polygon fill="black" stroke="black" points="91.88,-50.44 88.99,-40.25 84.89,-50.02 91.88,-50.44"/>
</g>
<!-- z_functiondemoat0x10545f790_4&#45;&gt;demoreturnvalue_functiondemoat0x10545f790_5 -->
<!-- z_functiondemoat0x10545f790_2 -->
<g id="node3" class="node">
<title>z_functiondemoat0x10545f790_2</title>
<g id="a_node3"><a xlink:title="demo:2">
<polygon fill="peachpuff" stroke="black" points="150,-268 96,-268 96,-228 150,-228 150,-268"/>
<text text-anchor="start" x="118.5" y="-253.8" font-family="Courier,monospace" font-weight="bold" font-size="14.00">z</text>
<text text-anchor="start" x="109.5" y="-234.8" font-family="Courier,monospace" font-size="9.00">z = x</text>
</a>
</g>
</g>
<!-- z_functiondemoat0x10545f790_2&#45;&gt;test_functiondemoat0x10545f790_3 -->
<g id="edge2" class="edge">
<title>z_functiondemoat0x10545f790_2&#45;&gt;test_functiondemoat0x10545f790_3</title>
<path fill="none" stroke="black" d="M109.8,-227.94C106.09,-220.06 102.36,-210.75 99.38,-202.05"/>
<polygon fill="black" stroke="black" points="102.63,-200.73 96.28,-192.25 95.96,-202.84 102.63,-200.73"/>
</g>
<!-- z_functiondemoat0x10545f790_2&#45;&gt;test_functiondemoat0x10545f790_3 -->
<!-- z_functiondemoat0x10545f790_2&#45;&gt;z_functiondemoat0x10545f790_4 -->
<g id="edge7" class="edge">
<title>z_functiondemoat0x10545f790_2&#45;&gt;z_functiondemoat0x10545f790_4</title>
<path fill="none" stroke="black" d="M141.13,-227.76C149.19,-217.87 157.81,-205.16 162,-192 167.4,-175.06 169.6,-168.07 162,-152 155.31,-137.85 143,-126.12 130.74,-117.18"/>
<polygon fill="black" stroke="black" points="132.56,-114.19 122.32,-111.44 128.61,-119.97 132.56,-114.19"/>
</g>
<!-- x_functiondemoat0x10545f790_1 -->
<g id="node4" class="node">
<title>x_functiondemoat0x10545f790_1</title>
<g id="a_node4"><a xlink:title="demo:1">
<polygon fill="peachpuff" stroke="black" points="194.5,-344 51.5,-344 51.5,-304 194.5,-304 194.5,-344"/>
<text text-anchor="start" x="118.5" y="-329.8" font-family="Courier,monospace" font-weight="bold" font-size="14.00">x</text>
<text text-anchor="start" x="59.5" y="-310.8" font-family="Courier,monospace" font-size="9.00">def demo(x: int) &#45;&gt; int:</text>
</a>
</g>
</g>
<!-- x_functiondemoat0x10545f790_1&#45;&gt;test_functiondemoat0x10545f790_3 -->
<g id="edge3" class="edge">
<title>x_functiondemoat0x10545f790_1&#45;&gt;test_functiondemoat0x10545f790_3</title>
<path fill="none" stroke="black" d="M106.44,-303.79C98.93,-293.81 90.88,-281.01 87,-268 80.62,-246.59 83.19,-221.34 87.05,-202.26"/>
<polygon fill="black" stroke="black" points="90.5,-202.88 89.28,-192.35 83.67,-201.34 90.5,-202.88"/>
</g>
<!-- x_functiondemoat0x10545f790_1&#45;&gt;z_functiondemoat0x10545f790_2 -->
<g id="edge5" class="edge">
<title>x_functiondemoat0x10545f790_1&#45;&gt;z_functiondemoat0x10545f790_2</title>
<path fill="none" stroke="black" d="M117.01,-303.94C116.29,-296.15 116.08,-286.95 116.38,-278.34"/>
<polygon fill="black" stroke="black" points="119.88,-278.44 116.99,-268.25 112.89,-278.02 119.88,-278.44"/>
</g>
<!-- x_functiondemoat0x10545f790_1&#45;&gt;z_functiondemoat0x10545f790_2 -->
</g>
</svg>
