<?xml version="1.0" encoding="UTF-8" standalone="no"?>
<!DOCTYPE svg PUBLIC "-//W3C//DTD SVG 1.1//EN"
 "http://www.w3.org/Graphics/SVG/1.1/DTD/svg11.dtd">
<!-- Generated by graphviz version 2.50.0 (20211204.2007)
 -->
<!-- Title: dependencies Pages: 1 -->
<svg width="342pt" height="276pt"
 viewBox="0.00 0.00 341.50 276.00" xmlns="http://www.w3.org/2000/svg" xmlns:xlink="http://www.w3.org/1999/xlink">
<g id="graph0" class="graph" transform="scale(1 1) rotate(0) translate(4 272)">
<title>dependencies</title>
<polygon fill="white" stroke="transparent" points="-4,4 -4,-272 337.5,-272 337.5,4 -4,4"/>
<!-- demoreturnvalue_functiondemoat0x111f0e700_5 -->
<g id="node1" class="node">
<title>demoreturnvalue_functiondemoat0x111f0e700_5</title>
<g id="a_node1"><a xlink:title="demo:5">
<polygon fill="peachpuff" stroke="black" points="333.5,-40 143.5,-40 143.5,0 333.5,0 333.5,-40"/>
<text text-anchor="start" x="151.5" y="-25.8" font-family="Courier,monospace" font-weight="bold" font-style="italic" font-size="14.00">&lt;demo() return value&gt;</text>
<text text-anchor="start" x="217" y="-6.8" font-family="Courier,monospace" font-size="9.00">return z</text>
</a>
</g>
</g>
<!-- z_functiondemoat0x111f0e700_4 -->
<g id="node2" class="node">
<title>z_functiondemoat0x111f0e700_4</title>
<g id="a_node2"><a xlink:title="demo:4">
<polygon fill="peachpuff" stroke="black" points="158.5,-116 104.5,-116 104.5,-76 158.5,-76 158.5,-116"/>
<text text-anchor="start" x="127" y="-101.8" font-family="Courier,monospace" font-weight="bold" font-size="14.00">z</text>
<text text-anchor="start" x="115.5" y="-82.8" font-family="Courier,monospace" font-size="9.00">z *= 2</text>
</a>
</g>
</g>
<!-- z_functiondemoat0x111f0e700_4&#45;&gt;demoreturnvalue_functiondemoat0x111f0e700_5 -->
<g id="edge1" class="edge">
<title>z_functiondemoat0x111f0e700_4&#45;&gt;demoreturnvalue_functiondemoat0x111f0e700_5</title>
<path fill="none" stroke="black" d="M153.07,-75.94C165.47,-66.78 181.38,-55.68 196.14,-45.86"/>
<polygon fill="black" stroke="black" points="198.23,-48.67 204.66,-40.25 194.38,-42.82 198.23,-48.67"/>
</g>
<!-- z_functiondemoat0x111f0e700_4&#45;&gt;demoreturnvalue_functiondemoat0x111f0e700_5 -->
<!-- z_functiondemoat0x111f0e700_4&#45;&gt;z_functiondemoat0x111f0e700_4 -->
<g id="edge5" class="edge">
<title>z_functiondemoat0x111f0e700_4&#45;&gt;z_functiondemoat0x111f0e700_4</title>
<path fill="none" stroke="black" d="M158.74,-110.24C168.52,-110.54 176.5,-105.8 176.5,-96 176.5,-89.88 173.38,-85.73 168.66,-83.55"/>
<polygon fill="black" stroke="black" points="169.2,-80.09 158.74,-81.76 167.96,-86.98 169.2,-80.09"/>
</g>
<!-- test_functiondemoat0x111f0e700_3 -->
<g id="node3" class="node">
<title>test_functiondemoat0x111f0e700_3</title>
<g id="a_node3"><a xlink:title="demo:3">
<polygon fill="peachpuff" stroke="black" points="125.5,-40 9.5,-40 9.5,0 125.5,0 125.5,-40"/>
<text text-anchor="start" x="42.5" y="-25.8" font-family="Courier,monospace" font-weight="bold" font-style="italic" font-size="14.00">&lt;test&gt;</text>
<text text-anchor="start" x="17.5" y="-6.8" font-family="Courier,monospace" font-size="9.00">while x &lt;= z &lt;= 64:</text>
</a>
</g>
</g>
<!-- z_functiondemoat0x111f0e700_4&#45;&gt;test_functiondemoat0x111f0e700_3 -->
<g id="edge2" class="edge">
<title>z_functiondemoat0x111f0e700_4&#45;&gt;test_functiondemoat0x111f0e700_3</title>
<path fill="none" stroke="black" d="M104.25,-77.09C95.01,-68.42 85.42,-57.83 77.95,-48.19"/>
<polygon fill="black" stroke="black" points="80.72,-46.05 71.99,-40.04 75.07,-50.18 80.72,-46.05"/>
</g>
<!-- test_functiondemoat0x111f0e700_3&#45;&gt;z_functiondemoat0x111f0e700_4 -->
<g id="edge7" class="edge">
<title>test_functiondemoat0x111f0e700_3&#45;&gt;z_functiondemoat0x111f0e700_4</title>
<path fill="none" stroke="grey" stroke-dasharray="5,2" d="M84.15,-40.25C91.5,-48.75 100.28,-58.9 108.26,-68.13"/>
<polygon fill="grey" stroke="grey" points="105.83,-70.67 115.02,-75.94 111.12,-66.09 105.83,-70.67"/>
</g>
<!-- test_functiondemoat0x111f0e700_3&#45;&gt;z_functiondemoat0x111f0e700_4 -->
<!-- x_functiondemoat0x111f0e700_1 -->
<g id="node4" class="node">
<title>x_functiondemoat0x111f0e700_1</title>
<g id="a_node4"><a xlink:title="demo:1">
<polygon fill="peachpuff" stroke="black" points="143,-268 0,-268 0,-228 143,-228 143,-268"/>
<text text-anchor="start" x="67" y="-253.8" font-family="Courier,monospace" font-weight="bold" font-size="14.00">x</text>
<text text-anchor="start" x="8" y="-234.8" font-family="Courier,monospace" font-size="9.00">def demo(x: int) &#45;&gt; int:</text>
</a>
</g>
</g>
<!-- x_functiondemoat0x111f0e700_1&#45;&gt;test_functiondemoat0x111f0e700_3 -->
<g id="edge3" class="edge">
<title>x_functiondemoat0x111f0e700_1&#45;&gt;test_functiondemoat0x111f0e700_3</title>
<path fill="none" stroke="black" d="M54.94,-227.79C47.43,-217.81 39.38,-205.01 35.5,-192 20.85,-142.87 39.7,-83.71 54.06,-49.42"/>
<polygon fill="black" stroke="black" points="57.37,-50.6 58.15,-40.03 50.95,-47.81 57.37,-50.6"/>
</g>
<!-- z_functiondemoat0x111f0e700_2 -->
<g id="node5" class="node">
<title>z_functiondemoat0x111f0e700_2</title>
<g id="a_node5"><a xlink:title="demo:2">
<polygon fill="peachpuff" stroke="black" points="98.5,-192 44.5,-192 44.5,-152 98.5,-152 98.5,-192"/>
<text text-anchor="start" x="67" y="-177.8" font-family="Courier,monospace" font-weight="bold" font-size="14.00">z</text>
<text text-anchor="start" x="58" y="-158.8" font-family="Courier,monospace" font-size="9.00">z = x</text>
</a>
</g>
</g>
<!-- x_functiondemoat0x111f0e700_1&#45;&gt;z_functiondemoat0x111f0e700_2 -->
<g id="edge8" class="edge">
<title>x_functiondemoat0x111f0e700_1&#45;&gt;z_functiondemoat0x111f0e700_2</title>
<path fill="none" stroke="black" d="M65.51,-227.94C64.79,-220.15 64.58,-210.95 64.88,-202.34"/>
<polygon fill="black" stroke="black" points="68.38,-202.44 65.49,-192.25 61.39,-202.02 68.38,-202.44"/>
</g>
<!-- x_functiondemoat0x111f0e700_1&#45;&gt;z_functiondemoat0x111f0e700_2 -->
<!-- z_functiondemoat0x111f0e700_2&#45;&gt;z_functiondemoat0x111f0e700_4 -->
<g id="edge6" class="edge">
<title>z_functiondemoat0x111f0e700_2&#45;&gt;z_functiondemoat0x111f0e700_4</title>
<path fill="none" stroke="black" d="M86.95,-151.94C93.83,-143.46 102.05,-133.33 109.54,-124.08"/>
<polygon fill="black" stroke="black" points="112.31,-126.22 115.89,-116.25 106.88,-121.81 112.31,-126.22"/>
</g>
<!-- z_functiondemoat0x111f0e700_2&#45;&gt;test_functiondemoat0x111f0e700_3 -->
<g id="edge4" class="edge">
<title>z_functiondemoat0x111f0e700_2&#45;&gt;test_functiondemoat0x111f0e700_3</title>
<path fill="none" stroke="black" d="M66.28,-151.7C63.17,-126.05 61.69,-80.48 62.79,-50.5"/>
<polygon fill="black" stroke="black" points="66.3,-50.39 63.32,-40.23 59.31,-50.04 66.3,-50.39"/>
</g>
<!-- z_functiondemoat0x111f0e700_2&#45;&gt;test_functiondemoat0x111f0e700_3 -->
</g>
</svg>
