<?xml version="1.0" encoding="UTF-8" standalone="no"?>
<!DOCTYPE svg PUBLIC "-//W3C//DTD SVG 1.1//EN"
 "http://www.w3.org/Graphics/SVG/1.1/DTD/svg11.dtd">
<!-- Generated by graphviz version 2.50.0 (20211204.2007)
 -->
<!-- Title: dependencies Pages: 1 -->
<svg width="342pt" height="276pt"
 viewBox="0.00 0.00 341.50 276.00" xmlns="http://www.w3.org/2000/svg" xmlns:xlink="http://www.w3.org/1999/xlink">
<g id="graph0" class="graph" transform="scale(1 1) rotate(0) translate(4 272)">
<title>dependencies</title>
<polygon fill="white" stroke="transparent" points="-4,4 -4,-272 337.5,-272 337.5,4 -4,4"/>
<!-- x_functiondemoat0x105c5aa60_1 -->
<g id="node1" class="node">
<title>x_functiondemoat0x105c5aa60_1</title>
<g id="a_node1"><a xlink:title="demo:1">
<polygon fill="peachpuff" stroke="black" points="333.5,-268 190.5,-268 190.5,-228 333.5,-228 333.5,-268"/>
<text text-anchor="start" x="257.5" y="-253.8" font-family="Fira Mono, Courier, monospace" font-weight="bold" font-size="14.00">x</text>
<text text-anchor="start" x="198.5" y="-234.8" font-family="Fira Mono, Courier, monospace" font-size="9.00">def demo(x: int) &#45;&gt; int:</text>
</a>
</g>
</g>
<!-- z_functiondemoat0x105c5aa60_2 -->
<g id="node2" class="node">
<title>z_functiondemoat0x105c5aa60_2</title>
<g id="a_node2"><a xlink:title="demo:2">
<polygon fill="peachpuff" stroke="black" points="289,-192 235,-192 235,-152 289,-152 289,-192"/>
<text text-anchor="start" x="257.5" y="-177.8" font-family="Fira Mono, Courier, monospace" font-weight="bold" font-size="14.00">z</text>
<text text-anchor="start" x="248.5" y="-158.8" font-family="Fira Mono, Courier, monospace" font-size="9.00">z = x</text>
</a>
</g>
</g>
<!-- x_functiondemoat0x105c5aa60_1&#45;&gt;z_functiondemoat0x105c5aa60_2 -->
<g id="edge1" class="edge">
<title>x_functiondemoat0x105c5aa60_1&#45;&gt;z_functiondemoat0x105c5aa60_2</title>
<path fill="none" stroke="black" d="M256.01,-227.94C255.29,-220.15 255.08,-210.95 255.38,-202.34"/>
<polygon fill="black" stroke="black" points="258.88,-202.44 255.99,-192.25 251.89,-202.02 258.88,-202.44"/>
</g>
<!-- x_functiondemoat0x105c5aa60_1&#45;&gt;z_functiondemoat0x105c5aa60_2 -->
<!-- test_functiondemoat0x105c5aa60_3 -->
<g id="node5" class="node">
<title>test_functiondemoat0x105c5aa60_3</title>
<g id="a_node5"><a xlink:title="demo:3">
<polygon fill="peachpuff" stroke="black" points="324,-40 208,-40 208,0 324,0 324,-40"/>
<text text-anchor="start" x="241" y="-25.8" font-family="Fira Mono, Courier, monospace" font-weight="bold" font-style="italic" font-size="14.00">&lt;test&gt;</text>
<text text-anchor="start" x="216" y="-6.8" font-family="Fira Mono, Courier, monospace" font-size="9.00">while x &lt;= z &lt;= 64:</text>
</a>
</g>
</g>
<!-- x_functiondemoat0x105c5aa60_1&#45;&gt;test_functiondemoat0x105c5aa60_3 -->
<g id="edge7" class="edge">
<title>x_functiondemoat0x105c5aa60_1&#45;&gt;test_functiondemoat0x105c5aa60_3</title>
<path fill="none" stroke="black" d="M278.56,-227.79C286.07,-217.81 294.12,-205.01 298,-192 312.65,-142.87 293.8,-83.71 279.44,-49.42"/>
<polygon fill="black" stroke="black" points="282.55,-47.81 275.35,-40.03 276.13,-50.6 282.55,-47.81"/>
</g>
<!-- z_functiondemoat0x105c5aa60_4 -->
<g id="node4" class="node">
<title>z_functiondemoat0x105c5aa60_4</title>
<g id="a_node4"><a xlink:title="demo:4">
<polygon fill="peachpuff" stroke="black" points="211,-116 157,-116 157,-76 211,-76 211,-116"/>
<text text-anchor="start" x="179.5" y="-101.8" font-family="Fira Mono, Courier, monospace" font-weight="bold" font-size="14.00">z</text>
<text text-anchor="start" x="168" y="-82.8" font-family="Fira Mono, Courier, monospace" font-size="9.00">z *= 2</text>
</a>
</g>
</g>
<!-- z_functiondemoat0x105c5aa60_2&#45;&gt;z_functiondemoat0x105c5aa60_4 -->
<g id="edge3" class="edge">
<title>z_functiondemoat0x105c5aa60_2&#45;&gt;z_functiondemoat0x105c5aa60_4</title>
<path fill="none" stroke="black" d="M241.91,-151.94C232.7,-143.21 221.64,-132.71 211.66,-123.24"/>
<polygon fill="black" stroke="black" points="213.95,-120.59 204.29,-116.25 209.14,-125.67 213.95,-120.59"/>
</g>
<!-- z_functiondemoat0x105c5aa60_2&#45;&gt;test_functiondemoat0x105c5aa60_3 -->
<g id="edge6" class="edge">
<title>z_functiondemoat0x105c5aa60_2&#45;&gt;test_functiondemoat0x105c5aa60_3</title>
<path fill="none" stroke="black" d="M257.81,-151.7C256.06,-126.05 257.01,-80.48 259.72,-50.5"/>
<polygon fill="black" stroke="black" points="263.23,-50.54 260.79,-40.23 256.27,-49.81 263.23,-50.54"/>
</g>
<!-- z_functiondemoat0x105c5aa60_2&#45;&gt;test_functiondemoat0x105c5aa60_3 -->
<!-- demoreturnvalue_functiondemoat0x105c5aa60_5 -->
<g id="node3" class="node">
<title>demoreturnvalue_functiondemoat0x105c5aa60_5</title>
<g id="a_node3"><a xlink:title="demo:5">
<polygon fill="peachpuff" stroke="black" points="190,-40 0,-40 0,0 190,0 190,-40"/>
<text text-anchor="start" x="8" y="-25.8" font-family="Fira Mono, Courier, monospace" font-weight="bold" font-style="italic" font-size="14.00">&lt;demo() return value&gt;</text>
<text text-anchor="start" x="73.5" y="-6.8" font-family="Fira Mono, Courier, monospace" font-size="9.00">return z</text>
</a>
</g>
</g>
<!-- z_functiondemoat0x105c5aa60_4&#45;&gt;demoreturnvalue_functiondemoat0x105c5aa60_5 -->
<g id="edge2" class="edge">
<title>z_functiondemoat0x105c5aa60_4&#45;&gt;demoreturnvalue_functiondemoat0x105c5aa60_5</title>
<path fill="none" stroke="black" d="M156.58,-77.09C144.71,-67.98 131.01,-56.75 119.49,-46.74"/>
<polygon fill="black" stroke="black" points="121.73,-44.04 111.91,-40.04 117.09,-49.29 121.73,-44.04"/>
</g>
<!-- z_functiondemoat0x105c5aa60_4&#45;&gt;demoreturnvalue_functiondemoat0x105c5aa60_5 -->
<!-- z_functiondemoat0x105c5aa60_4&#45;&gt;z_functiondemoat0x105c5aa60_4 -->
<g id="edge4" class="edge">
<title>z_functiondemoat0x105c5aa60_4&#45;&gt;z_functiondemoat0x105c5aa60_4</title>
<path fill="none" stroke="black" d="M211.24,-110.24C221.02,-110.54 229,-105.8 229,-96 229,-89.88 225.88,-85.73 221.16,-83.55"/>
<polygon fill="black" stroke="black" points="221.7,-80.09 211.24,-81.76 220.46,-86.98 221.7,-80.09"/>
</g>
<!-- z_functiondemoat0x105c5aa60_4&#45;&gt;test_functiondemoat0x105c5aa60_3 -->
<g id="edge8" class="edge">
<title>z_functiondemoat0x105c5aa60_4&#45;&gt;test_functiondemoat0x105c5aa60_3</title>
<path fill="none" stroke="black" d="M193.14,-75.94C201.37,-67.04 212.95,-56.3 224.61,-46.69"/>
<polygon fill="black" stroke="black" points="227.04,-49.23 232.66,-40.25 222.66,-43.76 227.04,-49.23"/>
</g>
<!-- test_functiondemoat0x105c5aa60_3&#45;&gt;z_functiondemoat0x105c5aa60_4 -->
<g id="edge5" class="edge">
<title>test_functiondemoat0x105c5aa60_3&#45;&gt;z_functiondemoat0x105c5aa60_4</title>
<path fill="none" stroke="grey" stroke-dasharray="5,2" d="M244.67,-40.25C234.87,-49.1 223.09,-59.72 212.54,-69.24"/>
<polygon fill="grey" stroke="grey" points="210.2,-66.65 205.12,-75.94 214.89,-71.84 210.2,-66.65"/>
</g>
<!-- test_functiondemoat0x105c5aa60_3&#45;&gt;z_functiondemoat0x105c5aa60_4 -->
</g>
</svg>
