<?xml version="1.0" encoding="UTF-8" standalone="no"?>
<!DOCTYPE svg PUBLIC "-//W3C//DTD SVG 1.1//EN"
 "http://www.w3.org/Graphics/SVG/1.1/DTD/svg11.dtd">
<!-- Generated by graphviz version 7.0.2 (20221119.0110)
 -->
<!-- Title: dependencies Pages: 1 -->
<svg width="203pt" height="352pt"
 viewBox="0.00 0.00 202.50 352.00" xmlns="http://www.w3.org/2000/svg" xmlns:xlink="http://www.w3.org/1999/xlink">
<g id="graph0" class="graph" transform="scale(1 1) rotate(0) translate(4 348)">
<title>dependencies</title>
<polygon fill="white" stroke="none" points="-4,4 -4,-348 198.5,-348 198.5,4 -4,4"/>
<!-- test_functiondemoat0x1073a3640_3 -->
<g id="node1" class="node">
<title>test_functiondemoat0x1073a3640_3</title>
<g id="a_node1"><a xlink:title="demo:3">
<polygon fill="peachpuff" stroke="black" points="153,-192 37,-192 37,-152 153,-152 153,-192"/>
<text text-anchor="start" x="70" y="-177.8" font-family="Courier,monospace" font-weight="bold" font-style="italic" font-size="14.00">&lt;test&gt;</text>
<text text-anchor="start" x="45" y="-158.8" font-family="Courier,monospace" font-size="9.00">while x &lt;= z &lt;= 64:</text>
</a>
</g>
</g>
<!-- z_functiondemoat0x1073a3640_4 -->
<g id="node3" class="node">
<title>z_functiondemoat0x1073a3640_4</title>
<g id="a_node3"><a xlink:title="demo:4">
<polygon fill="peachpuff" stroke="black" points="122,-116 68,-116 68,-76 122,-76 122,-116"/>
<text text-anchor="start" x="90.5" y="-101.8" font-family="Courier,monospace" font-weight="bold" font-size="14.00">z</text>
<text text-anchor="start" x="79" y="-82.8" font-family="Courier,monospace" font-size="9.00">z *= 2</text>
</a>
</g>
</g>
<!-- test_functiondemoat0x1073a3640_3&#45;&gt;z_functiondemoat0x1073a3640_4 -->
<g id="edge7" class="edge">
<title>test_functiondemoat0x1073a3640_3&#45;&gt;z_functiondemoat0x1073a3640_4</title>
<path fill="none" stroke="grey" stroke-dasharray="5,2" d="M82.95,-151.56C81.65,-144.25 81.22,-135.75 81.68,-127.67"/>
<polygon fill="grey" stroke="grey" points="85.15,-128.15 82.8,-117.82 78.19,-127.35 85.15,-128.15"/>
</g>
<!-- test_functiondemoat0x1073a3640_3&#45;&gt;z_functiondemoat0x1073a3640_4 -->
<!-- z_functiondemoat0x1073a3640_2 -->
<g id="node2" class="node">
<title>z_functiondemoat0x1073a3640_2</title>
<g id="a_node2"><a xlink:title="demo:2">
<polygon fill="peachpuff" stroke="black" points="150,-268 96,-268 96,-228 150,-228 150,-268"/>
<text text-anchor="start" x="118.5" y="-253.8" font-family="Courier,monospace" font-weight="bold" font-size="14.00">z</text>
<text text-anchor="start" x="109.5" y="-234.8" font-family="Courier,monospace" font-size="9.00">z = x</text>
</a>
</g>
</g>
<!-- z_functiondemoat0x1073a3640_2&#45;&gt;test_functiondemoat0x1073a3640_3 -->
<g id="edge1" class="edge">
<title>z_functiondemoat0x1073a3640_2&#45;&gt;test_functiondemoat0x1073a3640_3</title>
<path fill="none" stroke="black" d="M109.62,-227.56C106.12,-220.08 102.61,-211.36 99.75,-203.11"/>
<polygon fill="black" stroke="black" points="103.14,-202.21 96.76,-193.75 96.47,-204.35 103.14,-202.21"/>
</g>
<!-- z_functiondemoat0x1073a3640_2&#45;&gt;test_functiondemoat0x1073a3640_3 -->
<!-- z_functiondemoat0x1073a3640_2&#45;&gt;z_functiondemoat0x1073a3640_4 -->
<g id="edge5" class="edge">
<title>z_functiondemoat0x1073a3640_2&#45;&gt;z_functiondemoat0x1073a3640_4</title>
<path fill="none" stroke="black" d="M141.33,-227.51C149.34,-217.66 157.84,-205.05 162,-192 167.4,-175.06 169.6,-168.07 162,-152 155.5,-138.26 143.7,-126.8 131.8,-117.96"/>
<polygon fill="black" stroke="black" points="133.79,-115.09 123.57,-112.3 129.82,-120.85 133.79,-115.09"/>
</g>
<!-- z_functiondemoat0x1073a3640_4&#45;&gt;test_functiondemoat0x1073a3640_3 -->
<g id="edge2" class="edge">
<title>z_functiondemoat0x1073a3640_4&#45;&gt;test_functiondemoat0x1073a3640_3</title>
<path fill="none" stroke="black" d="M95,-116.31C95,-123.61 95,-132.1 95,-140.19"/>
<polygon fill="black" stroke="black" points="91.5,-140.04 95,-150.04 98.5,-140.04 91.5,-140.04"/>
</g>
<!-- z_functiondemoat0x1073a3640_4&#45;&gt;z_functiondemoat0x1073a3640_4 -->
<g id="edge6" class="edge">
<title>z_functiondemoat0x1073a3640_4&#45;&gt;z_functiondemoat0x1073a3640_4</title>
<path fill="none" stroke="black" d="M122.24,-110.24C132.02,-110.54 140,-105.8 140,-96 140,-90.34 137.33,-86.36 133.19,-84.07"/>
<polygon fill="black" stroke="black" points="134.23,-80.71 123.72,-82.08 132.78,-87.56 134.23,-80.71"/>
</g>
<!-- demoreturnvalue_functiondemoat0x1073a3640_5 -->
<g id="node5" class="node">
<title>demoreturnvalue_functiondemoat0x1073a3640_5</title>
<g id="a_node5"><a xlink:title="demo:5">
<polygon fill="peachpuff" stroke="black" points="190,-40 0,-40 0,0 190,0 190,-40"/>
<text text-anchor="start" x="8" y="-25.8" font-family="Courier,monospace" font-weight="bold" font-style="italic" font-size="14.00">&lt;demo() return value&gt;</text>
<text text-anchor="start" x="73.5" y="-6.8" font-family="Courier,monospace" font-size="9.00">return z</text>
</a>
</g>
</g>
<!-- z_functiondemoat0x1073a3640_4&#45;&gt;demoreturnvalue_functiondemoat0x1073a3640_5 -->
<g id="edge4" class="edge">
<title>z_functiondemoat0x1073a3640_4&#45;&gt;demoreturnvalue_functiondemoat0x1073a3640_5</title>
<path fill="none" stroke="black" d="M88.98,-75.56C88.32,-68.25 88.11,-59.75 88.34,-51.67"/>
<polygon fill="black" stroke="black" points="91.82,-52.01 88.9,-41.82 84.84,-51.61 91.82,-52.01"/>
</g>
<!-- z_functiondemoat0x1073a3640_4&#45;&gt;demoreturnvalue_functiondemoat0x1073a3640_5 -->
<!-- x_functiondemoat0x1073a3640_1 -->
<g id="node4" class="node">
<title>x_functiondemoat0x1073a3640_1</title>
<g id="a_node4"><a xlink:title="demo:1">
<polygon fill="peachpuff" stroke="black" points="194.5,-344 51.5,-344 51.5,-304 194.5,-304 194.5,-344"/>
<text text-anchor="start" x="118.5" y="-329.8" font-family="Courier,monospace" font-weight="bold" font-size="14.00">x</text>
<text text-anchor="start" x="59.5" y="-310.8" font-family="Courier,monospace" font-size="9.00">def demo(x: int) &#45;&gt; int:</text>
</a>
</g>
</g>
<!-- x_functiondemoat0x1073a3640_1&#45;&gt;test_functiondemoat0x1073a3640_3 -->
<g id="edge3" class="edge">
<title>x_functiondemoat0x1073a3640_1&#45;&gt;test_functiondemoat0x1073a3640_3</title>
<path fill="none" stroke="black" d="M106.25,-303.53C98.8,-293.6 90.85,-280.9 87,-268 80.76,-247.08 83.07,-222.51 86.78,-203.59"/>
<polygon fill="black" stroke="black" points="90.2,-204.35 88.95,-193.83 83.37,-202.83 90.2,-204.35"/>
</g>
<!-- x_functiondemoat0x1073a3640_1&#45;&gt;z_functiondemoat0x1073a3640_2 -->
<g id="edge8" class="edge">
<title>x_functiondemoat0x1073a3640_1&#45;&gt;z_functiondemoat0x1073a3640_2</title>
<path fill="none" stroke="black" d="M116.98,-303.56C116.32,-296.25 116.11,-287.75 116.34,-279.67"/>
<polygon fill="black" stroke="black" points="119.82,-280.01 116.9,-269.82 112.84,-279.61 119.82,-280.01"/>
</g>
<!-- x_functiondemoat0x1073a3640_1&#45;&gt;z_functiondemoat0x1073a3640_2 -->
</g>
</svg>
