<?xml version="1.0" encoding="UTF-8" standalone="no"?>
<!DOCTYPE svg PUBLIC "-//W3C//DTD SVG 1.1//EN"
 "http://www.w3.org/Graphics/SVG/1.1/DTD/svg11.dtd">
<!-- Generated by graphviz version 2.40.1 (20161225.0304)
 -->
<!-- Title: dependencies Pages: 1 -->
<svg width="154pt" height="276pt"
 viewBox="0.00 0.00 153.50 276.00" xmlns="http://www.w3.org/2000/svg" xmlns:xlink="http://www.w3.org/1999/xlink">
<g id="graph0" class="graph" transform="scale(1 1) rotate(0) translate(4 272)">
<title>dependencies</title>
<polygon fill="#ffffff" stroke="transparent" points="-4,4 -4,-272 149.5,-272 149.5,4 -4,4"/>
<!-- z_functiondemoat0x7fe34680b1e0_4 -->
<g id="node1" class="node">
<title>z_functiondemoat0x7fe34680b1e0_4</title>
<g id="a_node1"><a xlink:title="demo:4">
<polygon fill="#ffdab9" stroke="#000000" points="54,-116 0,-116 0,-76 54,-76 54,-116"/>
<text text-anchor="start" x="22.5" y="-101.8" font-family="Fira Mono, Courier, monospace" font-weight="bold" font-size="14.00" fill="#000000">z</text>
<text text-anchor="start" x="10.5" y="-82.8" font-family="Fira Mono, Courier, monospace" font-size="9.00" fill="#000000">z *= 2</text>
</a>
</g>
</g>
<!-- z_functiondemoat0x7fe34680b1e0_4&#45;&gt;z_functiondemoat0x7fe34680b1e0_4 -->
<g id="edge1" class="edge">
<title>z_functiondemoat0x7fe34680b1e0_4&#45;&gt;z_functiondemoat0x7fe34680b1e0_4</title>
<path fill="none" stroke="#000000" d="M54.2408,-110.2361C64.0239,-110.5422 72,-105.7969 72,-96 72,-89.877 68.8843,-85.7272 64.1591,-83.5506"/>
<polygon fill="#000000" stroke="#000000" points="64.7029,-80.0923 54.2408,-81.7639 63.4618,-86.9814 64.7029,-80.0923"/>
</g>
<!-- test_functiondemoat0x7fe34680b1e0_3 -->
<g id="node3" class="node">
<title>test_functiondemoat0x7fe34680b1e0_3</title>
<g id="a_node3"><a xlink:title="demo:3">
<polygon fill="#ffdab9" stroke="#000000" points="127.5,-40 8.5,-40 8.5,0 127.5,0 127.5,-40"/>
<text text-anchor="start" x="42.5" y="-25.8" font-family="Fira Mono, Courier, monospace" font-weight="bold" font-style="italic" font-size="14.00" fill="#000000">&lt;test&gt;</text>
<text text-anchor="start" x="16.5" y="-6.8" font-family="Fira Mono, Courier, monospace" font-size="9.00" fill="#000000">while x &lt;= z &lt;= 64:</text>
</a>
</g>
</g>
<!-- z_functiondemoat0x7fe34680b1e0_4&#45;&gt;test_functiondemoat0x7fe34680b1e0_3 -->
<g id="edge4" class="edge">
<title>z_functiondemoat0x7fe34680b1e0_4&#45;&gt;test_functiondemoat0x7fe34680b1e0_3</title>
<path fill="none" stroke="#000000" d="M25.8723,-75.6334C28.9578,-67.3033 33.901,-57.5207 39.5066,-48.501"/>
<polygon fill="#000000" stroke="#000000" points="42.4295,-50.4262 45.045,-40.1593 36.5978,-46.5543 42.4295,-50.4262"/>
</g>
<!-- z_functiondemoat0x7fe34680b1e0_2 -->
<g id="node2" class="node">
<title>z_functiondemoat0x7fe34680b1e0_2</title>
<g id="a_node2"><a xlink:title="demo:2">
<polygon fill="#ffdab9" stroke="#000000" points="132,-192 78,-192 78,-152 132,-152 132,-192"/>
<text text-anchor="start" x="100.5" y="-177.8" font-family="Fira Mono, Courier, monospace" font-weight="bold" font-size="14.00" fill="#000000">z</text>
<text text-anchor="start" x="91" y="-158.8" font-family="Fira Mono, Courier, monospace" font-size="9.00" fill="#000000">z = x</text>
</a>
</g>
</g>
<!-- z_functiondemoat0x7fe34680b1e0_2&#45;&gt;z_functiondemoat0x7fe34680b1e0_4 -->
<g id="edge2" class="edge">
<title>z_functiondemoat0x7fe34680b1e0_2&#45;&gt;z_functiondemoat0x7fe34680b1e0_4</title>
<path fill="none" stroke="#000000" d="M84.0974,-151.6334C75.1956,-142.9598 64.6775,-132.7114 55.1099,-123.3892"/>
<polygon fill="#000000" stroke="#000000" points="57.2947,-120.6312 47.6898,-116.1593 52.4096,-125.6448 57.2947,-120.6312"/>
</g>
<!-- z_functiondemoat0x7fe34680b1e0_2&#45;&gt;test_functiondemoat0x7fe34680b1e0_3 -->
<g id="edge6" class="edge">
<title>z_functiondemoat0x7fe34680b1e0_2&#45;&gt;test_functiondemoat0x7fe34680b1e0_3</title>
<path fill="none" stroke="#000000" d="M95.3267,-151.8156C86.6251,-125.8097 75.3123,-80.3713 69.843,-50.2331"/>
<polygon fill="#000000" stroke="#000000" points="73.2771,-49.5484 68.166,-40.2679 66.3742,-50.7101 73.2771,-49.5484"/>
</g>
<!-- z_functiondemoat0x7fe34680b1e0_2&#45;&gt;test_functiondemoat0x7fe34680b1e0_3 -->
<!-- test_functiondemoat0x7fe34680b1e0_3&#45;&gt;z_functiondemoat0x7fe34680b1e0_4 -->
<g id="edge3" class="edge">
<title>test_functiondemoat0x7fe34680b1e0_3&#45;&gt;z_functiondemoat0x7fe34680b1e0_4</title>
<path fill="none" stroke="#c0c0c0" stroke-dasharray="5,2" d="M57.1246,-40.1593C52.7362,-48.2938 47.5867,-57.8393 42.7988,-66.7144"/>
<polygon fill="#c0c0c0" stroke="#c0c0c0" points="39.6549,-65.1706 37.9872,-75.6334 45.8156,-68.4942 39.6549,-65.1706"/>
</g>
<!-- test_functiondemoat0x7fe34680b1e0_3&#45;&gt;z_functiondemoat0x7fe34680b1e0_4 -->
<!-- x_functiondemoat0x7fe34680b1e0_1 -->
<g id="node4" class="node">
<title>x_functiondemoat0x7fe34680b1e0_1</title>
<g id="a_node4"><a xlink:title="demo:1">
<polygon fill="#ffdab9" stroke="#000000" points="145.5,-268 64.5,-268 64.5,-228 145.5,-228 145.5,-268"/>
<text text-anchor="start" x="100.5" y="-253.8" font-family="Fira Mono, Courier, monospace" font-weight="bold" font-size="14.00" fill="#000000">x</text>
<text text-anchor="start" x="72.5" y="-234.8" font-family="Fira Mono, Courier, monospace" font-size="9.00" fill="#000000">def demo(x):</text>
</a>
</g>
</g>
<!-- x_functiondemoat0x7fe34680b1e0_1&#45;&gt;z_functiondemoat0x7fe34680b1e0_2 -->
<g id="edge7" class="edge">
<title>x_functiondemoat0x7fe34680b1e0_1&#45;&gt;z_functiondemoat0x7fe34680b1e0_2</title>
<path fill="none" stroke="#000000" d="M98.9426,-227.6334C98.2819,-219.8186 98.0939,-210.7253 98.3786,-202.183"/>
<polygon fill="#000000" stroke="#000000" points="101.875,-202.3453 98.9602,-192.1593 94.8867,-201.9397 101.875,-202.3453"/>
</g>
<!-- x_functiondemoat0x7fe34680b1e0_1&#45;&gt;z_functiondemoat0x7fe34680b1e0_2 -->
<!-- x_functiondemoat0x7fe34680b1e0_1&#45;&gt;test_functiondemoat0x7fe34680b1e0_3 -->
<g id="edge5" class="edge">
<title>x_functiondemoat0x7fe34680b1e0_1&#45;&gt;test_functiondemoat0x7fe34680b1e0_3</title>
<path fill="none" stroke="#000000" d="M121.9443,-227.8749C129.3422,-217.7868 137.1893,-204.9747 141,-192 146.0098,-174.9427 144.519,-169.426 141,-152 133.7453,-116.0754 127.0592,-107.8916 109,-76 103.7009,-66.6421 97.1134,-57.0026 90.7798,-48.4153"/>
<polygon fill="#000000" stroke="#000000" points="93.4117,-46.0929 84.5881,-40.2281 87.8285,-50.3153 93.4117,-46.0929"/>
</g>
</g>
</svg>
