<?xml version="1.0" encoding="UTF-8" standalone="no"?>
<!DOCTYPE svg PUBLIC "-//W3C//DTD SVG 1.1//EN"
 "http://www.w3.org/Graphics/SVG/1.1/DTD/svg11.dtd">
<!-- Generated by graphviz version 14.0.2 (20251019.1705)
 -->
<!-- Title: dependencies Pages: 1 -->
<svg width="66pt" height="124pt"
 viewBox="0.00 0.00 66.00 124.00" xmlns="http://www.w3.org/2000/svg" xmlns:xlink="http://www.w3.org/1999/xlink">
<g id="graph0" class="graph" transform="scale(1 1) rotate(0) translate(4 120)">
<title>dependencies</title>
<polygon fill="white" stroke="none" points="-4,4 -4,-120 62,-120 62,4 -4,4"/>
<!-- x_functiondemoat0x10a5107c0_5 -->
<g id="node1" class="node">
<title>x_functiondemoat0x10a5107c0_5</title>
<g id="a_node1"><a xlink:title="demo:5">
<polygon fill="peachpuff" stroke="black" points="58,-116 0,-116 0,-76 58,-76 58,-116"/>
<text xml:space="preserve" text-anchor="start" x="24.88" y="-99.7" font-family="Courier,monospace" font-weight="bold" font-size="14.00">x</text>
<text xml:space="preserve" text-anchor="start" x="8" y="-81.45" font-family="Courier,monospace" font-size="9.00">return z</text>
</a>
</g>
</g>
<!-- z_functiondemoat0x10a5107c0_2 -->
<g id="node2" class="node">
<title>z_functiondemoat0x10a5107c0_2</title>
<g id="a_node2"><a xlink:title="demo:2">
<polygon fill="peachpuff" stroke="black" points="56,-40 2,-40 2,0 56,0 56,-40"/>
<text xml:space="preserve" text-anchor="start" x="24.88" y="-23.7" font-family="Courier,monospace" font-weight="bold" font-size="14.00">z</text>
<text xml:space="preserve" text-anchor="start" x="15.88" y="-5.45" font-family="Courier,monospace" font-size="9.00">z = x</text>
</a>
</g>
</g>
<!-- x_functiondemoat0x10a5107c0_5&#45;&gt;z_functiondemoat0x10a5107c0_2 -->
<g id="edge1" class="edge">
<title>x_functiondemoat0x10a5107c0_5&#45;&gt;z_functiondemoat0x10a5107c0_2</title>
<path fill="none" stroke="black" d="M22.98,-75.56C22.32,-68.25 22.11,-59.75 22.34,-51.67"/>
<polygon fill="black" stroke="black" points="25.82,-52.01 22.9,-41.82 18.84,-51.61 25.82,-52.01"/>
</g>
<!-- z_functiondemoat0x10a5107c0_2&#45;&gt;x_functiondemoat0x10a5107c0_5 -->
</g>
</svg>
