<?xml version="1.0" encoding="UTF-8" standalone="no"?>
<!DOCTYPE svg PUBLIC "-//W3C//DTD SVG 1.1//EN"
 "http://www.w3.org/Graphics/SVG/1.1/DTD/svg11.dtd">
<!-- Generated by graphviz version 2.40.1 (20161225.0304)
 -->
<!-- Title: dependencies Pages: 1 -->
<svg width="201pt" height="352pt"
 viewBox="0.00 0.00 201.00 352.00" xmlns="http://www.w3.org/2000/svg" xmlns:xlink="http://www.w3.org/1999/xlink">
<g id="graph0" class="graph" transform="scale(1 1) rotate(0) translate(4 348)">
<title>dependencies</title>
<polygon fill="#ffffff" stroke="transparent" points="-4,4 -4,-348 197,-348 197,4 -4,4"/>
<!-- test_demo_3 -->
<g id="node1" class="node">
<title>test_demo_3</title>
<g id="a_node1"><a xlink:title="demo:3">
<polygon fill="#ffdab9" stroke="#000000" points="156,-192 37,-192 37,-152 156,-152 156,-192"/>
<text text-anchor="start" x="71" y="-177.8" font-family="Fira Mono, Courier, monospace" font-weight="bold" font-style="italic" font-size="14.00" fill="#000000">&lt;test&gt;</text>
<text text-anchor="start" x="45" y="-158.8" font-family="Fira Mono, Courier, monospace" font-size="9.00" fill="#000000">while x &lt;= z &lt;= 64:</text>
</a>
</g>
</g>
<!-- z_demo_4 -->
<g id="node3" class="node">
<title>z_demo_4</title>
<g id="a_node3"><a xlink:title="demo:4">
<polygon fill="#ffdab9" stroke="#000000" points="123.5,-116 69.5,-116 69.5,-76 123.5,-76 123.5,-116"/>
<text text-anchor="start" x="92" y="-101.8" font-family="Fira Mono, Courier, monospace" font-weight="bold" font-size="14.00" fill="#000000">z</text>
<text text-anchor="start" x="80" y="-82.8" font-family="Fira Mono, Courier, monospace" font-size="9.00" fill="#000000">z *= 2</text>
</a>
</g>
</g>
<!-- test_demo_3&#45;&gt;z_demo_4 -->
<g id="edge6" class="edge">
<title>test_demo_3&#45;&gt;z_demo_4</title>
<path fill="none" stroke="#c0c0c0" stroke-dasharray="5,2" d="M84.3851,-151.6334C83.0638,-143.8186 82.6878,-134.7253 83.2572,-126.183"/>
<polygon fill="#c0c0c0" stroke="#c0c0c0" points="86.7442,-126.4961 84.4204,-116.1593 79.7909,-125.6891 86.7442,-126.4961"/>
</g>
<!-- test_demo_3&#45;&gt;z_demo_4 -->
<!-- z_demo_2 -->
<g id="node2" class="node">
<title>z_demo_2</title>
<g id="a_node2"><a xlink:title="demo:2">
<polygon fill="#ffdab9" stroke="#000000" points="151.5,-268 97.5,-268 97.5,-228 151.5,-228 151.5,-268"/>
<text text-anchor="start" x="120" y="-253.8" font-family="Fira Mono, Courier, monospace" font-weight="bold" font-size="14.00" fill="#000000">z</text>
<text text-anchor="start" x="110.5" y="-234.8" font-family="Fira Mono, Courier, monospace" font-size="9.00" fill="#000000">z = x</text>
</a>
</g>
</g>
<!-- z_demo_2&#45;&gt;test_demo_3 -->
<g id="edge1" class="edge">
<title>z_demo_2&#45;&gt;test_demo_3</title>
<path fill="none" stroke="#000000" d="M110.9391,-227.6334C107.3604,-219.7327 103.7834,-210.5253 100.9045,-201.9015"/>
<polygon fill="#000000" stroke="#000000" points="104.1891,-200.6762 97.8873,-192.1593 97.5024,-202.7471 104.1891,-200.6762"/>
</g>
<!-- z_demo_2&#45;&gt;test_demo_3 -->
<!-- z_demo_2&#45;&gt;z_demo_4 -->
<g id="edge4" class="edge">
<title>z_demo_2&#45;&gt;z_demo_4</title>
<path fill="none" stroke="#000000" d="M143.9773,-227.9938C152.3311,-218.0288 161.1565,-205.2853 165.5,-192 171.0245,-175.1024 173.1448,-168.0501 165.5,-152 158.3707,-137.0321 145.0685,-124.7628 132.032,-115.5639"/>
<polygon fill="#000000" stroke="#000000" points="133.842,-112.5647 123.5711,-109.9648 129.9789,-118.4023 133.842,-112.5647"/>
</g>
<!-- z_demo_4&#45;&gt;test_demo_3 -->
<g id="edge2" class="edge">
<title>z_demo_4&#45;&gt;test_demo_3</title>
<path fill="none" stroke="#000000" d="M96.5,-116.1593C96.5,-123.9513 96.5,-133.038 96.5,-141.59"/>
<polygon fill="#000000" stroke="#000000" points="93.0001,-141.6334 96.5,-151.6334 100.0001,-141.6334 93.0001,-141.6334"/>
</g>
<!-- z_demo_4&#45;&gt;z_demo_4 -->
<g id="edge5" class="edge">
<title>z_demo_4&#45;&gt;z_demo_4</title>
<path fill="none" stroke="#000000" d="M123.7408,-110.2361C133.5239,-110.5422 141.5,-105.7969 141.5,-96 141.5,-89.877 138.3843,-85.7272 133.6591,-83.5506"/>
<polygon fill="#000000" stroke="#000000" points="134.2029,-80.0923 123.7408,-81.7639 132.9618,-86.9814 134.2029,-80.0923"/>
</g>
<!-- demoreturnvalue_demo_5 -->
<g id="node5" class="node">
<title>demoreturnvalue_demo_5</title>
<g id="a_node5"><a xlink:title="demo:5">
<polygon fill="#ffdab9" stroke="#000000" points="193,-40 0,-40 0,0 193,0 193,-40"/>
<text text-anchor="start" x="8" y="-25.8" font-family="Fira Mono, Courier, monospace" font-weight="bold" font-style="italic" font-size="14.00" fill="#000000">&lt;demo() return value&gt;</text>
<text text-anchor="start" x="74.5" y="-6.8" font-family="Fira Mono, Courier, monospace" font-size="9.00" fill="#000000">return z</text>
</a>
</g>
</g>
<!-- z_demo_4&#45;&gt;demoreturnvalue_demo_5 -->
<g id="edge8" class="edge">
<title>z_demo_4&#45;&gt;demoreturnvalue_demo_5</title>
<path fill="none" stroke="#000000" d="M90.4426,-75.6334C89.7819,-67.8186 89.5939,-58.7253 89.8786,-50.183"/>
<polygon fill="#000000" stroke="#000000" points="93.375,-50.3453 90.4602,-40.1593 86.3867,-49.9397 93.375,-50.3453"/>
</g>
<!-- z_demo_4&#45;&gt;demoreturnvalue_demo_5 -->
<!-- x_demo_1 -->
<g id="node4" class="node">
<title>x_demo_1</title>
<g id="a_node4"><a xlink:title="demo:1">
<polygon fill="#ffdab9" stroke="#000000" points="165,-344 84,-344 84,-304 165,-304 165,-344"/>
<text text-anchor="start" x="120" y="-329.8" font-family="Fira Mono, Courier, monospace" font-weight="bold" font-size="14.00" fill="#000000">x</text>
<text text-anchor="start" x="92" y="-310.8" font-family="Fira Mono, Courier, monospace" font-size="9.00" fill="#000000">def demo(x):</text>
</a>
</g>
</g>
<!-- x_demo_1&#45;&gt;test_demo_3 -->
<g id="edge3" class="edge">
<title>x_demo_1&#45;&gt;test_demo_3</title>
<path fill="none" stroke="#000000" d="M107.5557,-303.8749C100.1578,-293.7868 92.3107,-280.9747 88.5,-268 82.2171,-246.6078 84.6473,-221.4621 88.4197,-202.2734"/>
<polygon fill="#000000" stroke="#000000" points="91.8862,-202.8049 90.6068,-192.2876 85.0483,-201.3072 91.8862,-202.8049"/>
</g>
<!-- x_demo_1&#45;&gt;z_demo_2 -->
<g id="edge7" class="edge">
<title>x_demo_1&#45;&gt;z_demo_2</title>
<path fill="none" stroke="#000000" d="M118.4426,-303.6334C117.7819,-295.8186 117.5939,-286.7253 117.8786,-278.183"/>
<polygon fill="#000000" stroke="#000000" points="121.375,-278.3453 118.4602,-268.1593 114.3867,-277.9397 121.375,-278.3453"/>
</g>
<!-- x_demo_1&#45;&gt;z_demo_2 -->
</g>
</svg>
