<?xml version="1.0" encoding="UTF-8" standalone="no"?>
<!DOCTYPE svg PUBLIC "-//W3C//DTD SVG 1.1//EN"
 "http://www.w3.org/Graphics/SVG/1.1/DTD/svg11.dtd">
<!-- Generated by graphviz version 14.0.2 (20251019.1705)
 -->
<!-- Title: dependencies Pages: 1 -->
<svg width="332pt" height="276pt"
 viewBox="0.00 0.00 332.00 276.00" xmlns="http://www.w3.org/2000/svg" xmlns:xlink="http://www.w3.org/1999/xlink">
<g id="graph0" class="graph" transform="scale(1 1) rotate(0) translate(4 272)">
<title>dependencies</title>
<polygon fill="white" stroke="none" points="-4,4 -4,-272 327.5,-272 327.5,4 -4,4"/>
<!-- z_functiondemoat0x10e9c47c0_4 -->
<g id="node1" class="node">
<title>z_functiondemoat0x10e9c47c0_4</title>
<g id="a_node1"><a xlink:title="demo:4">
<polygon fill="peachpuff" stroke="black" points="148.88,-116 94.88,-116 94.88,-76 148.88,-76 148.88,-116"/>
<text xml:space="preserve" text-anchor="start" x="117.75" y="-99.7" font-family="Courier,monospace" font-weight="bold" font-size="14.00">z</text>
<text xml:space="preserve" text-anchor="start" x="106.12" y="-81.45" font-family="Courier,monospace" font-size="9.00">z *= 2</text>
</a>
</g>
</g>
<!-- z_functiondemoat0x10e9c47c0_4&#45;&gt;z_functiondemoat0x10e9c47c0_4 -->
<g id="edge1" class="edge">
<title>z_functiondemoat0x10e9c47c0_4&#45;&gt;z_functiondemoat0x10e9c47c0_4</title>
<path fill="none" stroke="black" d="M149.12,-110.24C158.9,-110.54 166.88,-105.8 166.88,-96 166.88,-90.34 164.21,-86.36 160.07,-84.07"/>
<polygon fill="black" stroke="black" points="161.1,-80.71 150.6,-82.08 159.66,-87.56 161.1,-80.71"/>
</g>
<!-- test_functiondemoat0x10e9c47c0_3 -->
<g id="node3" class="node">
<title>test_functiondemoat0x10e9c47c0_3</title>
<g id="a_node3"><a xlink:title="demo:3">
<polygon fill="peachpuff" stroke="black" points="115.75,-40 0,-40 0,0 115.75,0 115.75,-40"/>
<text xml:space="preserve" text-anchor="start" x="33.12" y="-23.7" font-family="Courier,monospace" font-weight="bold" font-style="italic" font-size="14.00">&lt;test&gt;</text>
<text xml:space="preserve" text-anchor="start" x="8" y="-5.45" font-family="Courier,monospace" font-size="9.00">while x &lt;= z &lt;= 64:</text>
</a>
</g>
</g>
<!-- z_functiondemoat0x10e9c47c0_4&#45;&gt;test_functiondemoat0x10e9c47c0_3 -->
<g id="edge5" class="edge">
<title>z_functiondemoat0x10e9c47c0_4&#45;&gt;test_functiondemoat0x10e9c47c0_3</title>
<path fill="none" stroke="black" d="M94.63,-77.09C85.74,-68.75 76.51,-58.62 69.18,-49.28"/>
<polygon fill="black" stroke="black" points="72.2,-47.49 63.45,-41.52 66.57,-51.65 72.2,-47.49"/>
</g>
<!-- demoreturnvalue_functiondemoat0x10e9c47c0_5 -->
<g id="node5" class="node">
<title>demoreturnvalue_functiondemoat0x10e9c47c0_5</title>
<g id="a_node5"><a xlink:title="demo:5">
<polygon fill="peachpuff" stroke="black" points="323.5,-40 134.25,-40 134.25,0 323.5,0 323.5,-40"/>
<text xml:space="preserve" text-anchor="start" x="142.25" y="-23.7" font-family="Courier,monospace" font-weight="bold" font-style="italic" font-size="14.00">&lt;demo() return value&gt;</text>
<text xml:space="preserve" text-anchor="start" x="207.88" y="-5.45" font-family="Courier,monospace" font-size="9.00">return z</text>
</a>
</g>
</g>
<!-- z_functiondemoat0x10e9c47c0_4&#45;&gt;demoreturnvalue_functiondemoat0x10e9c47c0_5 -->
<g id="edge8" class="edge">
<title>z_functiondemoat0x10e9c47c0_4&#45;&gt;demoreturnvalue_functiondemoat0x10e9c47c0_5</title>
<path fill="none" stroke="black" d="M143.96,-75.56C156.07,-66.63 171.39,-55.94 185.71,-46.39"/>
<polygon fill="black" stroke="black" points="187.25,-49.57 193.67,-41.15 183.4,-43.73 187.25,-49.57"/>
</g>
<!-- z_functiondemoat0x10e9c47c0_4&#45;&gt;demoreturnvalue_functiondemoat0x10e9c47c0_5 -->
<!-- z_functiondemoat0x10e9c47c0_2 -->
<g id="node2" class="node">
<title>z_functiondemoat0x10e9c47c0_2</title>
<g id="a_node2"><a xlink:title="demo:2">
<polygon fill="peachpuff" stroke="black" points="88.88,-192 34.88,-192 34.88,-152 88.88,-152 88.88,-192"/>
<text xml:space="preserve" text-anchor="start" x="57.75" y="-175.7" font-family="Courier,monospace" font-weight="bold" font-size="14.00">z</text>
<text xml:space="preserve" text-anchor="start" x="48.75" y="-157.45" font-family="Courier,monospace" font-size="9.00">z = x</text>
</a>
</g>
</g>
<!-- z_functiondemoat0x10e9c47c0_2&#45;&gt;z_functiondemoat0x10e9c47c0_4 -->
<g id="edge2" class="edge">
<title>z_functiondemoat0x10e9c47c0_2&#45;&gt;z_functiondemoat0x10e9c47c0_4</title>
<path fill="none" stroke="black" d="M77.64,-151.56C84.18,-143.48 91.91,-133.96 99.05,-125.15"/>
<polygon fill="black" stroke="black" points="101.68,-127.46 105.26,-117.49 96.25,-123.05 101.68,-127.46"/>
</g>
<!-- z_functiondemoat0x10e9c47c0_2&#45;&gt;test_functiondemoat0x10e9c47c0_3 -->
<g id="edge7" class="edge">
<title>z_functiondemoat0x10e9c47c0_2&#45;&gt;test_functiondemoat0x10e9c47c0_3</title>
<path fill="none" stroke="black" d="M56.66,-151.7C53.58,-126.38 52.1,-81.68 53.12,-51.69"/>
<polygon fill="black" stroke="black" points="56.62,-51.9 53.62,-41.74 49.63,-51.55 56.62,-51.9"/>
</g>
<!-- z_functiondemoat0x10e9c47c0_2&#45;&gt;test_functiondemoat0x10e9c47c0_3 -->
<!-- test_functiondemoat0x10e9c47c0_3&#45;&gt;z_functiondemoat0x10e9c47c0_4 -->
<g id="edge3" class="edge">
<title>test_functiondemoat0x10e9c47c0_3&#45;&gt;z_functiondemoat0x10e9c47c0_4</title>
<path fill="none" stroke="grey" stroke-dasharray="5,2" d="M74.58,-40.31C81.62,-48.45 89.95,-58.09 97.65,-66.99"/>
<polygon fill="grey" stroke="grey" points="94.88,-69.14 104.07,-74.41 100.18,-64.56 94.88,-69.14"/>
</g>
<!-- test_functiondemoat0x10e9c47c0_3&#45;&gt;z_functiondemoat0x10e9c47c0_4 -->
<!-- x_functiondemoat0x10e9c47c0_5 -->
<g id="node4" class="node">
<title>x_functiondemoat0x10e9c47c0_5</title>
<g id="a_node4"><a xlink:title="demo:5">
<polygon fill="peachpuff" stroke="black" points="62.88,-268 4.88,-268 4.88,-228 62.88,-228 62.88,-268"/>
<text xml:space="preserve" text-anchor="start" x="29.75" y="-251.7" font-family="Courier,monospace" font-weight="bold" font-size="14.00">x</text>
<text xml:space="preserve" text-anchor="start" x="12.88" y="-233.45" font-family="Courier,monospace" font-size="9.00">return z</text>
</a>
</g>
</g>
<!-- x_functiondemoat0x10e9c47c0_5&#45;&gt;z_functiondemoat0x10e9c47c0_2 -->
<g id="edge4" class="edge">
<title>x_functiondemoat0x10e9c47c0_5&#45;&gt;z_functiondemoat0x10e9c47c0_2</title>
<path fill="none" stroke="black" d="M41.23,-227.56C44.09,-219.99 47.44,-211.16 50.59,-202.83"/>
<polygon fill="black" stroke="black" points="53.77,-204.32 54.03,-193.73 47.22,-201.84 53.77,-204.32"/>
</g>
<!-- x_functiondemoat0x10e9c47c0_5&#45;&gt;test_functiondemoat0x10e9c47c0_3 -->
<g id="edge6" class="edge">
<title>x_functiondemoat0x10e9c47c0_5&#45;&gt;test_functiondemoat0x10e9c47c0_3</title>
<path fill="none" stroke="black" d="M30.38,-227.73C28.64,-217.21 26.74,-203.93 25.88,-192 24.59,-174.27 23.75,-169.65 25.88,-152 30.12,-116.77 40.55,-77.33 48.36,-51.02"/>
<polygon fill="black" stroke="black" points="51.63,-52.3 51.19,-41.71 44.93,-50.26 51.63,-52.3"/>
</g>
</g>
</svg>
