<?xml version="1.0" encoding="UTF-8" standalone="no"?>
<!DOCTYPE svg PUBLIC "-//W3C//DTD SVG 1.1//EN"
 "http://www.w3.org/Graphics/SVG/1.1/DTD/svg11.dtd">
<!-- Generated by graphviz version 2.50.0 (20211204.2007)
 -->
<!-- Title: dependencies Pages: 1 -->
<svg width="151pt" height="124pt"
 viewBox="0.00 0.00 151.00 124.00" xmlns="http://www.w3.org/2000/svg" xmlns:xlink="http://www.w3.org/1999/xlink">
<g id="graph0" class="graph" transform="scale(1 1) rotate(0) translate(4 120)">
<title>dependencies</title>
<polygon fill="white" stroke="transparent" points="-4,4 -4,-120 147,-120 147,4 -4,4"/>
<!-- x_functiondemoat0x111f0e700_1 -->
<g id="node1" class="node">
<title>x_functiondemoat0x111f0e700_1</title>
<g id="a_node1"><a xlink:title="demo:1">
<polygon fill="peachpuff" stroke="black" points="143,-116 0,-116 0,-76 143,-76 143,-116"/>
<text text-anchor="start" x="67" y="-101.8" font-family="Courier,monospace" font-weight="bold" font-size="14.00">x</text>
<text text-anchor="start" x="8" y="-82.8" font-family="Courier,monospace" font-size="9.00">def demo(x: int) &#45;&gt; int:</text>
</a>
</g>
</g>
<!-- z_functiondemoat0x111f0e700_2 -->
<g id="node2" class="node">
<title>z_functiondemoat0x111f0e700_2</title>
<g id="a_node2"><a xlink:title="demo:2">
<polygon fill="peachpuff" stroke="black" points="98.5,-40 44.5,-40 44.5,0 98.5,0 98.5,-40"/>
<text text-anchor="start" x="67" y="-25.8" font-family="Courier,monospace" font-weight="bold" font-size="14.00">z</text>
<text text-anchor="start" x="58" y="-6.8" font-family="Courier,monospace" font-size="9.00">z = x</text>
</a>
</g>
</g>
<!-- x_functiondemoat0x111f0e700_1&#45;&gt;z_functiondemoat0x111f0e700_2 -->
<g id="edge1" class="edge">
<title>x_functiondemoat0x111f0e700_1&#45;&gt;z_functiondemoat0x111f0e700_2</title>
<path fill="none" stroke="black" d="M65.51,-75.94C64.79,-68.15 64.58,-58.95 64.88,-50.34"/>
<polygon fill="black" stroke="black" points="68.38,-50.44 65.49,-40.25 61.39,-50.02 68.38,-50.44"/>
</g>
<!-- x_functiondemoat0x111f0e700_1&#45;&gt;z_functiondemoat0x111f0e700_2 -->
</g>
</svg>
