<?xml version="1.0" encoding="UTF-8" standalone="no"?>
<!DOCTYPE svg PUBLIC "-//W3C//DTD SVG 1.1//EN"
 "http://www.w3.org/Graphics/SVG/1.1/DTD/svg11.dtd">
<!-- Generated by graphviz version 2.40.1 (20161225.0304)
 -->
<!-- Title: dependencies Pages: 1 -->
<svg width="795pt" height="124pt"
 viewBox="0.00 0.00 795.00 124.00" xmlns="http://www.w3.org/2000/svg" xmlns:xlink="http://www.w3.org/1999/xlink">
<g id="graph0" class="graph" transform="scale(1 1) rotate(0) translate(4 120)">
<title>dependencies</title>
<polygon fill="#ffffff" stroke="transparent" points="-4,4 -4,-120 791,-120 791,4 -4,4"/>
<!-- demoreturnvalue_functioncaller_frameat0x7fb36cece0d0_8 -->
<g id="node1" class="node">
<title>demoreturnvalue_functioncaller_frameat0x7fb36cece0d0_8</title>
<g id="a_node1"><a xlink:title="caller_frame:8">
<polygon fill="#ffdab9" stroke="#000000" points="193,-116 0,-116 0,-76 193,-76 193,-116"/>
<text text-anchor="start" x="8" y="-101.8" font-family="Fira Mono, Courier, monospace" font-weight="bold" font-style="italic" font-size="14.00" fill="#000000">&lt;demo() return value&gt;</text>
<text text-anchor="start" x="64" y="-82.8" font-family="Fira Mono, Courier, monospace" font-size="9.00" fill="#000000">return frame</text>
</a>
</g>
</g>
<!-- z_functioncaller_frameat0x7fb36ceeef28_8 -->
<g id="node2" class="node">
<title>z_functioncaller_frameat0x7fb36ceeef28_8</title>
<g id="a_node2"><a xlink:title="caller_frame:8">
<polygon fill="#ffdab9" stroke="#000000" points="292,-116 211,-116 211,-76 292,-76 292,-116"/>
<text text-anchor="start" x="247" y="-101.8" font-family="Fira Mono, Courier, monospace" font-weight="bold" font-size="14.00" fill="#000000">z</text>
<text text-anchor="start" x="219" y="-82.8" font-family="Fira Mono, Courier, monospace" font-size="9.00" fill="#000000">return frame</text>
</a>
</g>
</g>
<!-- x_functioncaller_frameat0x7fb36ced6400_8 -->
<g id="node3" class="node">
<title>x_functioncaller_frameat0x7fb36ced6400_8</title>
<g id="a_node3"><a xlink:title="caller_frame:8">
<polygon fill="#ffdab9" stroke="#000000" points="391,-116 310,-116 310,-76 391,-76 391,-116"/>
<text text-anchor="start" x="346" y="-101.8" font-family="Fira Mono, Courier, monospace" font-weight="bold" font-size="14.00" fill="#000000">x</text>
<text text-anchor="start" x="318" y="-82.8" font-family="Fira Mono, Courier, monospace" font-size="9.00" fill="#000000">return frame</text>
</a>
</g>
</g>
<!-- z_functioncaller_frameat0x7fb36cee01e0_8 -->
<g id="node4" class="node">
<title>z_functioncaller_frameat0x7fb36cee01e0_8</title>
<g id="a_node4"><a xlink:title="caller_frame:8">
<polygon fill="#ffdab9" stroke="#000000" points="490,-40 409,-40 409,0 490,0 490,-40"/>
<text text-anchor="start" x="445" y="-25.8" font-family="Fira Mono, Courier, monospace" font-weight="bold" font-size="14.00" fill="#000000">z</text>
<text text-anchor="start" x="417" y="-6.8" font-family="Fira Mono, Courier, monospace" font-size="9.00" fill="#000000">return frame</text>
</a>
</g>
</g>
<!-- test_functioncaller_frameat0x7fb36d8a0598_8 -->
<g id="node5" class="node">
<title>test_functioncaller_frameat0x7fb36d8a0598_8</title>
<g id="a_node5"><a xlink:title="caller_frame:8">
<polygon fill="#ffdab9" stroke="#000000" points="490,-116 409,-116 409,-76 490,-76 490,-116"/>
<text text-anchor="start" x="424" y="-101.8" font-family="Fira Mono, Courier, monospace" font-weight="bold" font-style="italic" font-size="14.00" fill="#000000">&lt;test&gt;</text>
<text text-anchor="start" x="417" y="-82.8" font-family="Fira Mono, Courier, monospace" font-size="9.00" fill="#000000">return frame</text>
</a>
</g>
</g>
<!-- test_functioncaller_frameat0x7fb36d8a0598_8&#45;&gt;z_functioncaller_frameat0x7fb36cee01e0_8 -->
<g id="edge1" class="edge">
<title>test_functioncaller_frameat0x7fb36d8a0598_8&#45;&gt;z_functioncaller_frameat0x7fb36cee01e0_8</title>
<path fill="none" stroke="#c0c0c0" stroke-dasharray="5,2" d="M449.5,-75.6334C449.5,-67.8186 449.5,-58.7253 449.5,-50.183"/>
<polygon fill="#c0c0c0" stroke="#c0c0c0" points="453.0001,-50.1593 449.5,-40.1593 446.0001,-50.1593 453.0001,-50.1593"/>
</g>
<!-- test_functioncaller_frameat0x7fb36cee0e18_8 -->
<g id="node6" class="node">
<title>test_functioncaller_frameat0x7fb36cee0e18_8</title>
<g id="a_node6"><a xlink:title="caller_frame:8">
<polygon fill="#ffdab9" stroke="#000000" points="589,-116 508,-116 508,-76 589,-76 589,-116"/>
<text text-anchor="start" x="523" y="-101.8" font-family="Fira Mono, Courier, monospace" font-weight="bold" font-style="italic" font-size="14.00" fill="#000000">&lt;test&gt;</text>
<text text-anchor="start" x="516" y="-82.8" font-family="Fira Mono, Courier, monospace" font-size="9.00" fill="#000000">return frame</text>
</a>
</g>
</g>
<!-- z_functioncaller_frameat0x7fb36cee0b70_8 -->
<g id="node7" class="node">
<title>z_functioncaller_frameat0x7fb36cee0b70_8</title>
<g id="a_node7"><a xlink:title="caller_frame:8">
<polygon fill="#ffdab9" stroke="#000000" points="688,-40 607,-40 607,0 688,0 688,-40"/>
<text text-anchor="start" x="643" y="-25.8" font-family="Fira Mono, Courier, monospace" font-weight="bold" font-size="14.00" fill="#000000">z</text>
<text text-anchor="start" x="615" y="-6.8" font-family="Fira Mono, Courier, monospace" font-size="9.00" fill="#000000">return frame</text>
</a>
</g>
</g>
<!-- test_functioncaller_frameat0x7fb36cee0950_8 -->
<g id="node8" class="node">
<title>test_functioncaller_frameat0x7fb36cee0950_8</title>
<g id="a_node8"><a xlink:title="caller_frame:8">
<polygon fill="#ffdab9" stroke="#000000" points="688,-116 607,-116 607,-76 688,-76 688,-116"/>
<text text-anchor="start" x="622" y="-101.8" font-family="Fira Mono, Courier, monospace" font-weight="bold" font-style="italic" font-size="14.00" fill="#000000">&lt;test&gt;</text>
<text text-anchor="start" x="615" y="-82.8" font-family="Fira Mono, Courier, monospace" font-size="9.00" fill="#000000">return frame</text>
</a>
</g>
</g>
<!-- test_functioncaller_frameat0x7fb36cee0950_8&#45;&gt;z_functioncaller_frameat0x7fb36cee0b70_8 -->
<g id="edge2" class="edge">
<title>test_functioncaller_frameat0x7fb36cee0950_8&#45;&gt;z_functioncaller_frameat0x7fb36cee0b70_8</title>
<path fill="none" stroke="#c0c0c0" stroke-dasharray="5,2" d="M647.5,-75.6334C647.5,-67.8186 647.5,-58.7253 647.5,-50.183"/>
<polygon fill="#c0c0c0" stroke="#c0c0c0" points="651.0001,-50.1593 647.5,-40.1593 644.0001,-50.1593 651.0001,-50.1593"/>
</g>
<!-- z_functioncaller_frameat0x7fb36cee06a8_8 -->
<g id="node9" class="node">
<title>z_functioncaller_frameat0x7fb36cee06a8_8</title>
<g id="a_node9"><a xlink:title="caller_frame:8">
<polygon fill="#ffdab9" stroke="#000000" points="787,-40 706,-40 706,0 787,0 787,-40"/>
<text text-anchor="start" x="742" y="-25.8" font-family="Fira Mono, Courier, monospace" font-weight="bold" font-size="14.00" fill="#000000">z</text>
<text text-anchor="start" x="714" y="-6.8" font-family="Fira Mono, Courier, monospace" font-size="9.00" fill="#000000">return frame</text>
</a>
</g>
</g>
<!-- test_functioncaller_frameat0x7fb36cee0488_8 -->
<g id="node10" class="node">
<title>test_functioncaller_frameat0x7fb36cee0488_8</title>
<g id="a_node10"><a xlink:title="caller_frame:8">
<polygon fill="#ffdab9" stroke="#000000" points="787,-116 706,-116 706,-76 787,-76 787,-116"/>
<text text-anchor="start" x="721" y="-101.8" font-family="Fira Mono, Courier, monospace" font-weight="bold" font-style="italic" font-size="14.00" fill="#000000">&lt;test&gt;</text>
<text text-anchor="start" x="714" y="-82.8" font-family="Fira Mono, Courier, monospace" font-size="9.00" fill="#000000">return frame</text>
</a>
</g>
</g>
<!-- test_functioncaller_frameat0x7fb36cee0488_8&#45;&gt;z_functioncaller_frameat0x7fb36cee06a8_8 -->
<g id="edge3" class="edge">
<title>test_functioncaller_frameat0x7fb36cee0488_8&#45;&gt;z_functioncaller_frameat0x7fb36cee06a8_8</title>
<path fill="none" stroke="#c0c0c0" stroke-dasharray="5,2" d="M746.5,-75.6334C746.5,-67.8186 746.5,-58.7253 746.5,-50.183"/>
<polygon fill="#c0c0c0" stroke="#c0c0c0" points="750.0001,-50.1593 746.5,-40.1593 743.0001,-50.1593 750.0001,-50.1593"/>
</g>
</g>
</svg>
