<?xml version="1.0" encoding="UTF-8" standalone="no"?>
<!DOCTYPE svg PUBLIC "-//W3C//DTD SVG 1.1//EN"
 "http://www.w3.org/Graphics/SVG/1.1/DTD/svg11.dtd">
<!-- Generated by graphviz version 2.40.1 (20161225.0304)
 -->
<!-- Title: dependencies Pages: 1 -->
<svg width="338pt" height="276pt"
 viewBox="0.00 0.00 338.00 276.00" xmlns="http://www.w3.org/2000/svg" xmlns:xlink="http://www.w3.org/1999/xlink">
<g id="graph0" class="graph" transform="scale(1 1) rotate(0) translate(4 272)">
<title>dependencies</title>
<polygon fill="#ffffff" stroke="transparent" points="-4,4 -4,-272 334,-272 334,4 -4,4"/>
<!-- z_functiondemoat0x7fa61b62a158_2 -->
<g id="node1" class="node">
<title>z_functiondemoat0x7fa61b62a158_2</title>
<g id="a_node1"><a xlink:title="demo:2">
<polygon fill="#ffdab9" stroke="#000000" points="90.5,-192 36.5,-192 36.5,-152 90.5,-152 90.5,-192"/>
<text text-anchor="start" x="59" y="-177.8" font-family="Fira Mono, Courier, monospace" font-weight="bold" font-size="14.00" fill="#000000">z</text>
<text text-anchor="start" x="49.5" y="-158.8" font-family="Fira Mono, Courier, monospace" font-size="9.00" fill="#000000">z = x</text>
</a>
</g>
</g>
<!-- z_functiondemoat0x7fa61b62a158_4 -->
<g id="node3" class="node">
<title>z_functiondemoat0x7fa61b62a158_4</title>
<g id="a_node3"><a xlink:title="demo:4">
<polygon fill="#ffdab9" stroke="#000000" points="150.5,-116 96.5,-116 96.5,-76 150.5,-76 150.5,-116"/>
<text text-anchor="start" x="119" y="-101.8" font-family="Fira Mono, Courier, monospace" font-weight="bold" font-size="14.00" fill="#000000">z</text>
<text text-anchor="start" x="107" y="-82.8" font-family="Fira Mono, Courier, monospace" font-size="9.00" fill="#000000">z *= 2</text>
</a>
</g>
</g>
<!-- z_functiondemoat0x7fa61b62a158_2&#45;&gt;z_functiondemoat0x7fa61b62a158_4 -->
<g id="edge2" class="edge">
<title>z_functiondemoat0x7fa61b62a158_2&#45;&gt;z_functiondemoat0x7fa61b62a158_4</title>
<path fill="none" stroke="#000000" d="M79.5789,-151.6334C86.2231,-143.2175 94.0378,-133.3188 101.2193,-124.2223"/>
<polygon fill="#000000" stroke="#000000" points="104.1354,-126.1769 107.5848,-116.1593 98.6412,-121.8394 104.1354,-126.1769"/>
</g>
<!-- test_functiondemoat0x7fa61b62a158_3 -->
<g id="node4" class="node">
<title>test_functiondemoat0x7fa61b62a158_3</title>
<g id="a_node4"><a xlink:title="demo:3">
<polygon fill="#ffdab9" stroke="#000000" points="119,-40 0,-40 0,0 119,0 119,-40"/>
<text text-anchor="start" x="34" y="-25.8" font-family="Fira Mono, Courier, monospace" font-weight="bold" font-style="italic" font-size="14.00" fill="#000000">&lt;test&gt;</text>
<text text-anchor="start" x="8" y="-6.8" font-family="Fira Mono, Courier, monospace" font-size="9.00" fill="#000000">while x &lt;= z &lt;= 64:</text>
</a>
</g>
</g>
<!-- z_functiondemoat0x7fa61b62a158_2&#45;&gt;test_functiondemoat0x7fa61b62a158_3 -->
<g id="edge6" class="edge">
<title>z_functiondemoat0x7fa61b62a158_2&#45;&gt;test_functiondemoat0x7fa61b62a158_3</title>
<path fill="none" stroke="#000000" d="M58.2088,-151.8156C55.1666,-125.9232 53.7181,-80.7677 54.7653,-50.6288"/>
<polygon fill="#000000" stroke="#000000" points="58.2792,-50.4251 55.2658,-40.2679 51.2873,-50.0874 58.2792,-50.4251"/>
</g>
<!-- z_functiondemoat0x7fa61b62a158_2&#45;&gt;test_functiondemoat0x7fa61b62a158_3 -->
<!-- x_functiondemoat0x7fa61b62a158_1 -->
<g id="node2" class="node">
<title>x_functiondemoat0x7fa61b62a158_1</title>
<g id="a_node2"><a xlink:title="demo:1">
<polygon fill="#ffdab9" stroke="#000000" points="104,-268 23,-268 23,-228 104,-228 104,-268"/>
<text text-anchor="start" x="59" y="-253.8" font-family="Fira Mono, Courier, monospace" font-weight="bold" font-size="14.00" fill="#000000">x</text>
<text text-anchor="start" x="31" y="-234.8" font-family="Fira Mono, Courier, monospace" font-size="9.00" fill="#000000">def demo(x):</text>
</a>
</g>
</g>
<!-- x_functiondemoat0x7fa61b62a158_1&#45;&gt;z_functiondemoat0x7fa61b62a158_2 -->
<g id="edge1" class="edge">
<title>x_functiondemoat0x7fa61b62a158_1&#45;&gt;z_functiondemoat0x7fa61b62a158_2</title>
<path fill="none" stroke="#000000" d="M57.4426,-227.6334C56.7819,-219.8186 56.5939,-210.7253 56.8786,-202.183"/>
<polygon fill="#000000" stroke="#000000" points="60.375,-202.3453 57.4602,-192.1593 53.3867,-201.9397 60.375,-202.3453"/>
</g>
<!-- x_functiondemoat0x7fa61b62a158_1&#45;&gt;z_functiondemoat0x7fa61b62a158_2 -->
<!-- x_functiondemoat0x7fa61b62a158_1&#45;&gt;test_functiondemoat0x7fa61b62a158_3 -->
<g id="edge5" class="edge">
<title>x_functiondemoat0x7fa61b62a158_1&#45;&gt;test_functiondemoat0x7fa61b62a158_3</title>
<path fill="none" stroke="#000000" d="M46.5557,-227.8749C39.1578,-217.7868 31.3107,-204.9747 27.5,-192 13.127,-143.0627 31.3788,-84.3194 45.639,-49.6911"/>
<polygon fill="#000000" stroke="#000000" points="48.9951,-50.7446 49.7101,-40.1739 42.5592,-47.9915 48.9951,-50.7446"/>
</g>
<!-- z_functiondemoat0x7fa61b62a158_4&#45;&gt;z_functiondemoat0x7fa61b62a158_4 -->
<g id="edge3" class="edge">
<title>z_functiondemoat0x7fa61b62a158_4&#45;&gt;z_functiondemoat0x7fa61b62a158_4</title>
<path fill="none" stroke="#000000" d="M150.7408,-110.2361C160.5239,-110.5422 168.5,-105.7969 168.5,-96 168.5,-89.877 165.3843,-85.7272 160.6591,-83.5506"/>
<polygon fill="#000000" stroke="#000000" points="161.2029,-80.0923 150.7408,-81.7639 159.9618,-86.9814 161.2029,-80.0923"/>
</g>
<!-- z_functiondemoat0x7fa61b62a158_4&#45;&gt;test_functiondemoat0x7fa61b62a158_3 -->
<g id="edge7" class="edge">
<title>z_functiondemoat0x7fa61b62a158_4&#45;&gt;test_functiondemoat0x7fa61b62a158_3</title>
<path fill="none" stroke="#000000" d="M96.2509,-77.6025C87.1553,-68.8363 77.7088,-58.1535 70.2908,-48.3797"/>
<polygon fill="#000000" stroke="#000000" points="73.024,-46.185 64.3539,-40.0955 67.3342,-50.2626 73.024,-46.185"/>
</g>
<!-- demoreturnvalue_functiondemoat0x7fa61b62a158_5 -->
<g id="node5" class="node">
<title>demoreturnvalue_functiondemoat0x7fa61b62a158_5</title>
<g id="a_node5"><a xlink:title="demo:5">
<polygon fill="#ffdab9" stroke="#000000" points="330,-40 137,-40 137,0 330,0 330,-40"/>
<text text-anchor="start" x="145" y="-25.8" font-family="Fira Mono, Courier, monospace" font-weight="bold" font-style="italic" font-size="14.00" fill="#000000">&lt;demo() return value&gt;</text>
<text text-anchor="start" x="211.5" y="-6.8" font-family="Fira Mono, Courier, monospace" font-size="9.00" fill="#000000">return z</text>
</a>
</g>
</g>
<!-- z_functiondemoat0x7fa61b62a158_4&#45;&gt;demoreturnvalue_functiondemoat0x7fa61b62a158_5 -->
<g id="edge8" class="edge">
<title>z_functiondemoat0x7fa61b62a158_4&#45;&gt;demoreturnvalue_functiondemoat0x7fa61b62a158_5</title>
<path fill="none" stroke="#000000" d="M146.6487,-75.8329C159.1617,-66.6428 174.9368,-55.6529 189.6315,-45.8637"/>
<polygon fill="#000000" stroke="#000000" points="191.705,-48.6888 198.1259,-40.2613 187.851,-42.8453 191.705,-48.6888"/>
</g>
<!-- z_functiondemoat0x7fa61b62a158_4&#45;&gt;demoreturnvalue_functiondemoat0x7fa61b62a158_5 -->
<!-- test_functiondemoat0x7fa61b62a158_3&#45;&gt;z_functiondemoat0x7fa61b62a158_4 -->
<g id="edge4" class="edge">
<title>test_functiondemoat0x7fa61b62a158_3&#45;&gt;z_functiondemoat0x7fa61b62a158_4</title>
<path fill="none" stroke="#c0c0c0" stroke-dasharray="5,2" d="M76.4762,-40.1593C83.6148,-48.6363 92.0437,-58.6456 99.7794,-67.8318"/>
<polygon fill="#c0c0c0" stroke="#c0c0c0" points="97.2306,-70.2387 106.3492,-75.6334 102.585,-65.7298 97.2306,-70.2387"/>
</g>
<!-- test_functiondemoat0x7fa61b62a158_3&#45;&gt;z_functiondemoat0x7fa61b62a158_4 -->
</g>
</svg>
