<?xml version="1.0" encoding="UTF-8" standalone="no"?>
<!DOCTYPE svg PUBLIC "-//W3C//DTD SVG 1.1//EN"
 "http://www.w3.org/Graphics/SVG/1.1/DTD/svg11.dtd">
<!-- Generated by graphviz version 2.40.1 (20161225.0304)
 -->
<!-- Title: dependencies Pages: 1 -->
<svg width="338pt" height="276pt"
 viewBox="0.00 0.00 338.00 276.00" xmlns="http://www.w3.org/2000/svg" xmlns:xlink="http://www.w3.org/1999/xlink">
<g id="graph0" class="graph" transform="scale(1 1) rotate(0) translate(4 272)">
<title>dependencies</title>
<polygon fill="#ffffff" stroke="transparent" points="-4,4 -4,-272 334,-272 334,4 -4,4"/>
<!-- z_demo_2 -->
<g id="node1" class="node">
<title>z_demo_2</title>
<g id="a_node1"><a xlink:title="demo:2">
<polygon fill="#ffdab9" stroke="#000000" points="293.5,-192 239.5,-192 239.5,-152 293.5,-152 293.5,-192"/>
<text text-anchor="start" x="262" y="-177.8" font-family="Fira Mono, Courier, monospace" font-weight="bold" font-size="14.00" fill="#000000">z</text>
<text text-anchor="start" x="252.5" y="-158.8" font-family="Fira Mono, Courier, monospace" font-size="9.00" fill="#000000">z = x</text>
</a>
</g>
</g>
<!-- z_demo_4 -->
<g id="node4" class="node">
<title>z_demo_4</title>
<g id="a_node4"><a xlink:title="demo:4">
<polygon fill="#ffdab9" stroke="#000000" points="215.5,-116 161.5,-116 161.5,-76 215.5,-76 215.5,-116"/>
<text text-anchor="start" x="184" y="-101.8" font-family="Fira Mono, Courier, monospace" font-weight="bold" font-size="14.00" fill="#000000">z</text>
<text text-anchor="start" x="172" y="-82.8" font-family="Fira Mono, Courier, monospace" font-size="9.00" fill="#000000">z *= 2</text>
</a>
</g>
</g>
<!-- z_demo_2&#45;&gt;z_demo_4 -->
<g id="edge6" class="edge">
<title>z_demo_2&#45;&gt;z_demo_4</title>
<path fill="none" stroke="#000000" d="M245.5974,-151.6334C236.6956,-142.9598 226.1775,-132.7114 216.6099,-123.3892"/>
<polygon fill="#000000" stroke="#000000" points="218.7947,-120.6312 209.1898,-116.1593 213.9096,-125.6448 218.7947,-120.6312"/>
</g>
<!-- test_demo_3 -->
<g id="node5" class="node">
<title>test_demo_3</title>
<g id="a_node5"><a xlink:title="demo:3">
<polygon fill="#ffdab9" stroke="#000000" points="330,-40 211,-40 211,0 330,0 330,-40"/>
<text text-anchor="start" x="245" y="-25.8" font-family="Fira Mono, Courier, monospace" font-weight="bold" font-style="italic" font-size="14.00" fill="#000000">&lt;test&gt;</text>
<text text-anchor="start" x="219" y="-6.8" font-family="Fira Mono, Courier, monospace" font-size="9.00" fill="#000000">while x &lt;= z &lt;= 64:</text>
</a>
</g>
</g>
<!-- z_demo_2&#45;&gt;test_demo_3 -->
<g id="edge3" class="edge">
<title>z_demo_2&#45;&gt;test_demo_3</title>
<path fill="none" stroke="#000000" d="M262.2712,-151.8156C260.5843,-125.8097 261.5279,-80.3713 264.188,-50.2331"/>
<polygon fill="#000000" stroke="#000000" points="267.6717,-50.5701 265.199,-40.2679 260.7075,-49.8635 267.6717,-50.5701"/>
</g>
<!-- z_demo_2&#45;&gt;test_demo_3 -->
<!-- x_demo_1 -->
<g id="node2" class="node">
<title>x_demo_1</title>
<g id="a_node2"><a xlink:title="demo:1">
<polygon fill="#ffdab9" stroke="#000000" points="307,-268 226,-268 226,-228 307,-228 307,-268"/>
<text text-anchor="start" x="262" y="-253.8" font-family="Fira Mono, Courier, monospace" font-weight="bold" font-size="14.00" fill="#000000">x</text>
<text text-anchor="start" x="234" y="-234.8" font-family="Fira Mono, Courier, monospace" font-size="9.00" fill="#000000">def demo(x):</text>
</a>
</g>
</g>
<!-- x_demo_1&#45;&gt;z_demo_2 -->
<g id="edge1" class="edge">
<title>x_demo_1&#45;&gt;z_demo_2</title>
<path fill="none" stroke="#000000" d="M260.4426,-227.6334C259.7819,-219.8186 259.5939,-210.7253 259.8786,-202.183"/>
<polygon fill="#000000" stroke="#000000" points="263.375,-202.3453 260.4602,-192.1593 256.3867,-201.9397 263.375,-202.3453"/>
</g>
<!-- x_demo_1&#45;&gt;z_demo_2 -->
<!-- x_demo_1&#45;&gt;test_demo_3 -->
<g id="edge5" class="edge">
<title>x_demo_1&#45;&gt;test_demo_3</title>
<path fill="none" stroke="#000000" d="M283.4443,-227.8749C290.8422,-217.7868 298.6893,-204.9747 302.5,-192 316.873,-143.0627 298.6212,-84.3194 284.361,-49.6911"/>
<polygon fill="#000000" stroke="#000000" points="287.4408,-47.9915 280.2899,-40.1739 281.0049,-50.7446 287.4408,-47.9915"/>
</g>
<!-- demoreturnvalue_demo_5 -->
<g id="node3" class="node">
<title>demoreturnvalue_demo_5</title>
<g id="a_node3"><a xlink:title="demo:5">
<polygon fill="#ffdab9" stroke="#000000" points="193,-40 0,-40 0,0 193,0 193,-40"/>
<text text-anchor="start" x="8" y="-25.8" font-family="Fira Mono, Courier, monospace" font-weight="bold" font-style="italic" font-size="14.00" fill="#000000">&lt;demo() return value&gt;</text>
<text text-anchor="start" x="74.5" y="-6.8" font-family="Fira Mono, Courier, monospace" font-size="9.00" fill="#000000">return z</text>
</a>
</g>
</g>
<!-- z_demo_4&#45;&gt;demoreturnvalue_demo_5 -->
<g id="edge2" class="edge">
<title>z_demo_4&#45;&gt;demoreturnvalue_demo_5</title>
<path fill="none" stroke="#000000" d="M161.3613,-78.373C149.0735,-69.0207 134.6942,-57.3308 122.5454,-46.8737"/>
<polygon fill="#000000" stroke="#000000" points="124.7613,-44.1621 114.9284,-40.2169 120.1549,-49.4329 124.7613,-44.1621"/>
</g>
<!-- z_demo_4&#45;&gt;demoreturnvalue_demo_5 -->
<!-- z_demo_4&#45;&gt;z_demo_4 -->
<g id="edge7" class="edge">
<title>z_demo_4&#45;&gt;z_demo_4</title>
<path fill="none" stroke="#000000" d="M215.7408,-110.2361C225.5239,-110.5422 233.5,-105.7969 233.5,-96 233.5,-89.877 230.3843,-85.7272 225.6591,-83.5506"/>
<polygon fill="#000000" stroke="#000000" points="226.2029,-80.0923 215.7408,-81.7639 224.9618,-86.9814 226.2029,-80.0923"/>
</g>
<!-- z_demo_4&#45;&gt;test_demo_3 -->
<g id="edge4" class="edge">
<title>z_demo_4&#45;&gt;test_demo_3</title>
<path fill="none" stroke="#000000" d="M198.3596,-75.6334C206.4859,-66.7022 217.6484,-56.1012 228.9011,-46.561"/>
<polygon fill="#000000" stroke="#000000" points="231.1781,-49.2199 236.6696,-40.1593 226.7265,-43.8178 231.1781,-49.2199"/>
</g>
<!-- test_demo_3&#45;&gt;z_demo_4 -->
<g id="edge8" class="edge">
<title>test_demo_3&#45;&gt;z_demo_4</title>
<path fill="none" stroke="#c0c0c0" stroke-dasharray="5,2" d="M248.7492,-40.1593C239.3258,-48.8932 228.1474,-59.2537 217.9935,-68.6646"/>
<polygon fill="#c0c0c0" stroke="#c0c0c0" points="215.4296,-66.2687 210.4745,-75.6334 220.188,-71.4027 215.4296,-66.2687"/>
</g>
<!-- test_demo_3&#45;&gt;z_demo_4 -->
</g>
</svg>
