<?xml version="1.0" encoding="UTF-8" standalone="no"?>
<!DOCTYPE svg PUBLIC "-//W3C//DTD SVG 1.1//EN"
 "http://www.w3.org/Graphics/SVG/1.1/DTD/svg11.dtd">
<!-- Generated by graphviz version 9.0.0 (20230911.1827)
 -->
<!-- Title: dependencies Pages: 1 -->
<svg width="341pt" height="276pt"
 viewBox="0.00 0.00 340.62 276.00" xmlns="http://www.w3.org/2000/svg" xmlns:xlink="http://www.w3.org/1999/xlink">
<g id="graph0" class="graph" transform="scale(1 1) rotate(0) translate(4 272)">
<title>dependencies</title>
<polygon fill="white" stroke="none" points="-4,4 -4,-272 336.62,-272 336.62,4 -4,4"/>
<!-- demoreturnvalue_functiondemoat0x112a225f0_5 -->
<g id="node1" class="node">
<title>demoreturnvalue_functiondemoat0x112a225f0_5</title>
<g id="a_node1"><a xlink:title="demo:5">
<polygon fill="peachpuff" stroke="black" points="332.62,-40 143.38,-40 143.38,0 332.62,0 332.62,-40"/>
<text text-anchor="start" x="151.38" y="-23.7" font-family="Courier,monospace" font-weight="bold" font-style="italic" font-size="14.00">&lt;demo() return value&gt;</text>
<text text-anchor="start" x="217" y="-5.45" font-family="Courier,monospace" font-size="9.00">return z</text>
</a>
</g>
</g>
<!-- z_functiondemoat0x112a225f0_4 -->
<g id="node2" class="node">
<title>z_functiondemoat0x112a225f0_4</title>
<g id="a_node2"><a xlink:title="demo:4">
<polygon fill="peachpuff" stroke="black" points="158,-116 104,-116 104,-76 158,-76 158,-116"/>
<text text-anchor="start" x="126.88" y="-99.7" font-family="Courier,monospace" font-weight="bold" font-size="14.00">z</text>
<text text-anchor="start" x="115.25" y="-81.45" font-family="Courier,monospace" font-size="9.00">z *= 2</text>
</a>
</g>
</g>
<!-- z_functiondemoat0x112a225f0_4&#45;&gt;demoreturnvalue_functiondemoat0x112a225f0_5 -->
<g id="edge1" class="edge">
<title>z_functiondemoat0x112a225f0_4&#45;&gt;demoreturnvalue_functiondemoat0x112a225f0_5</title>
<path fill="none" stroke="black" d="M153.09,-75.56C165.19,-66.63 180.52,-55.94 194.84,-46.39"/>
<polygon fill="black" stroke="black" points="196.38,-49.57 202.8,-41.15 192.52,-43.73 196.38,-49.57"/>
</g>
<!-- z_functiondemoat0x112a225f0_4&#45;&gt;demoreturnvalue_functiondemoat0x112a225f0_5 -->
<!-- z_functiondemoat0x112a225f0_4&#45;&gt;z_functiondemoat0x112a225f0_4 -->
<g id="edge7" class="edge">
<title>z_functiondemoat0x112a225f0_4&#45;&gt;z_functiondemoat0x112a225f0_4</title>
<path fill="none" stroke="black" d="M158.24,-110.24C168.02,-110.54 176,-105.8 176,-96 176,-90.34 173.33,-86.36 169.19,-84.07"/>
<polygon fill="black" stroke="black" points="170.23,-80.71 159.72,-82.08 168.78,-87.56 170.23,-80.71"/>
</g>
<!-- test_functiondemoat0x112a225f0_3 -->
<g id="node3" class="node">
<title>test_functiondemoat0x112a225f0_3</title>
<g id="a_node3"><a xlink:title="demo:3">
<polygon fill="peachpuff" stroke="black" points="124.88,-40 9.12,-40 9.12,0 124.88,0 124.88,-40"/>
<text text-anchor="start" x="42.25" y="-23.7" font-family="Courier,monospace" font-weight="bold" font-style="italic" font-size="14.00">&lt;test&gt;</text>
<text text-anchor="start" x="17.12" y="-5.45" font-family="Courier,monospace" font-size="9.00">while x &lt;= z &lt;= 64:</text>
</a>
</g>
</g>
<!-- z_functiondemoat0x112a225f0_4&#45;&gt;test_functiondemoat0x112a225f0_3 -->
<g id="edge4" class="edge">
<title>z_functiondemoat0x112a225f0_4&#45;&gt;test_functiondemoat0x112a225f0_3</title>
<path fill="none" stroke="black" d="M103.75,-77.09C94.86,-68.75 85.64,-58.62 78.3,-49.28"/>
<polygon fill="black" stroke="black" points="81.33,-47.49 72.57,-41.52 75.69,-51.65 81.33,-47.49"/>
</g>
<!-- test_functiondemoat0x112a225f0_3&#45;&gt;z_functiondemoat0x112a225f0_4 -->
<g id="edge8" class="edge">
<title>test_functiondemoat0x112a225f0_3&#45;&gt;z_functiondemoat0x112a225f0_4</title>
<path fill="none" stroke="grey" stroke-dasharray="5,2" d="M83.7,-40.31C90.74,-48.45 99.08,-58.09 106.77,-66.99"/>
<polygon fill="grey" stroke="grey" points="104.01,-69.14 113.19,-74.41 109.3,-64.56 104.01,-69.14"/>
</g>
<!-- test_functiondemoat0x112a225f0_3&#45;&gt;z_functiondemoat0x112a225f0_4 -->
<!-- z_functiondemoat0x112a225f0_2 -->
<g id="node4" class="node">
<title>z_functiondemoat0x112a225f0_2</title>
<g id="a_node4"><a xlink:title="demo:2">
<polygon fill="peachpuff" stroke="black" points="98,-192 44,-192 44,-152 98,-152 98,-192"/>
<text text-anchor="start" x="66.88" y="-175.7" font-family="Courier,monospace" font-weight="bold" font-size="14.00">z</text>
<text text-anchor="start" x="57.88" y="-157.45" font-family="Courier,monospace" font-size="9.00">z = x</text>
</a>
</g>
</g>
<!-- z_functiondemoat0x112a225f0_2&#45;&gt;z_functiondemoat0x112a225f0_4 -->
<g id="edge6" class="edge">
<title>z_functiondemoat0x112a225f0_2&#45;&gt;z_functiondemoat0x112a225f0_4</title>
<path fill="none" stroke="black" d="M86.76,-151.56C93.31,-143.48 101.03,-133.96 108.18,-125.15"/>
<polygon fill="black" stroke="black" points="110.81,-127.46 114.39,-117.49 105.37,-123.05 110.81,-127.46"/>
</g>
<!-- z_functiondemoat0x112a225f0_2&#45;&gt;test_functiondemoat0x112a225f0_3 -->
<g id="edge2" class="edge">
<title>z_functiondemoat0x112a225f0_2&#45;&gt;test_functiondemoat0x112a225f0_3</title>
<path fill="none" stroke="black" d="M65.78,-151.7C62.71,-126.38 61.22,-81.68 62.25,-51.69"/>
<polygon fill="black" stroke="black" points="65.74,-51.9 62.74,-41.74 58.75,-51.55 65.74,-51.9"/>
</g>
<!-- z_functiondemoat0x112a225f0_2&#45;&gt;test_functiondemoat0x112a225f0_3 -->
<!-- x_functiondemoat0x112a225f0_1 -->
<g id="node5" class="node">
<title>x_functiondemoat0x112a225f0_1</title>
<g id="a_node5"><a xlink:title="demo:1">
<polygon fill="peachpuff" stroke="black" points="142,-268 0,-268 0,-228 142,-228 142,-268"/>
<text text-anchor="start" x="66.88" y="-251.7" font-family="Courier,monospace" font-weight="bold" font-size="14.00">x</text>
<text text-anchor="start" x="8" y="-233.45" font-family="Courier,monospace" font-size="9.00">def demo(x: int) &#45;&gt; int:</text>
</a>
</g>
</g>
<!-- x_functiondemoat0x112a225f0_1&#45;&gt;test_functiondemoat0x112a225f0_3 -->
<g id="edge3" class="edge">
<title>x_functiondemoat0x112a225f0_1&#45;&gt;test_functiondemoat0x112a225f0_3</title>
<path fill="none" stroke="black" d="M54.25,-227.53C46.8,-217.6 38.85,-204.9 35,-192 20.52,-143.42 38.78,-85.04 53.07,-50.59"/>
<polygon fill="black" stroke="black" points="56.17,-52.25 56.93,-41.68 49.75,-49.47 56.17,-52.25"/>
</g>
<!-- x_functiondemoat0x112a225f0_1&#45;&gt;z_functiondemoat0x112a225f0_2 -->
<g id="edge5" class="edge">
<title>x_functiondemoat0x112a225f0_1&#45;&gt;z_functiondemoat0x112a225f0_2</title>
<path fill="none" stroke="black" d="M64.98,-227.56C64.32,-220.25 64.11,-211.75 64.34,-203.67"/>
<polygon fill="black" stroke="black" points="67.82,-204.01 64.9,-193.82 60.84,-203.61 67.82,-204.01"/>
</g>
<!-- x_functiondemoat0x112a225f0_1&#45;&gt;z_functiondemoat0x112a225f0_2 -->
</g>
</svg>
