<?xml version="1.0" encoding="UTF-8" standalone="no"?>
<!DOCTYPE svg PUBLIC "-//W3C//DTD SVG 1.1//EN"
 "http://www.w3.org/Graphics/SVG/1.1/DTD/svg11.dtd">
<!-- Generated by graphviz version 2.49.1 (20210923.0004)
 -->
<!-- Title: dependencies Pages: 1 -->
<svg width="348pt" height="276pt"
 viewBox="0.00 0.00 347.50 276.00" xmlns="http://www.w3.org/2000/svg" xmlns:xlink="http://www.w3.org/1999/xlink">
<g id="graph0" class="graph" transform="scale(1 1) rotate(0) translate(4 272)">
<title>dependencies</title>
<polygon fill="white" stroke="transparent" points="-4,4 -4,-272 343.5,-272 343.5,4 -4,4"/>
<!-- x_functiondemoat0x108af88b0_1 -->
<g id="node1" class="node">
<title>x_functiondemoat0x108af88b0_1</title>
<g id="a_node1"><a xlink:title="demo:1">
<polygon fill="peachpuff" stroke="black" points="146,-268 0,-268 0,-228 146,-228 146,-268"/>
<text text-anchor="start" x="68.5" y="-253.8" font-family="Fira Mono, Courier, monospace" font-weight="bold" font-size="14.00">x</text>
<text text-anchor="start" x="8" y="-234.8" font-family="Fira Mono, Courier, monospace" font-size="9.00">def demo(x: int) &#45;&gt; int:</text>
</a>
</g>
</g>
<!-- z_functiondemoat0x108af88b0_2 -->
<g id="node2" class="node">
<title>z_functiondemoat0x108af88b0_2</title>
<g id="a_node2"><a xlink:title="demo:2">
<polygon fill="peachpuff" stroke="black" points="100,-192 46,-192 46,-152 100,-152 100,-192"/>
<text text-anchor="start" x="68.5" y="-177.8" font-family="Fira Mono, Courier, monospace" font-weight="bold" font-size="14.00">z</text>
<text text-anchor="start" x="59.5" y="-158.8" font-family="Fira Mono, Courier, monospace" font-size="9.00">z = x</text>
</a>
</g>
</g>
<!-- x_functiondemoat0x108af88b0_1&#45;&gt;z_functiondemoat0x108af88b0_2 -->
<g id="edge1" class="edge">
<title>x_functiondemoat0x108af88b0_1&#45;&gt;z_functiondemoat0x108af88b0_2</title>
<path fill="none" stroke="black" d="M67.01,-227.94C66.29,-220.15 66.08,-210.95 66.38,-202.34"/>
<polygon fill="black" stroke="black" points="69.88,-202.44 66.99,-192.25 62.89,-202.02 69.88,-202.44"/>
</g>
<!-- x_functiondemoat0x108af88b0_1&#45;&gt;z_functiondemoat0x108af88b0_2 -->
<!-- test_functiondemoat0x108af88b0_3 -->
<g id="node4" class="node">
<title>test_functiondemoat0x108af88b0_3</title>
<g id="a_node4"><a xlink:title="demo:3">
<polygon fill="peachpuff" stroke="black" points="128.5,-40 9.5,-40 9.5,0 128.5,0 128.5,-40"/>
<text text-anchor="start" x="43.5" y="-25.8" font-family="Fira Mono, Courier, monospace" font-weight="bold" font-style="italic" font-size="14.00">&lt;test&gt;</text>
<text text-anchor="start" x="17.5" y="-6.8" font-family="Fira Mono, Courier, monospace" font-size="9.00">while x &lt;= z &lt;= 64:</text>
</a>
</g>
</g>
<!-- x_functiondemoat0x108af88b0_1&#45;&gt;test_functiondemoat0x108af88b0_3 -->
<g id="edge8" class="edge">
<title>x_functiondemoat0x108af88b0_1&#45;&gt;test_functiondemoat0x108af88b0_3</title>
<path fill="none" stroke="black" d="M56.44,-227.79C48.93,-217.81 40.88,-205.01 37,-192 22.35,-142.87 41.2,-83.71 55.56,-49.42"/>
<polygon fill="black" stroke="black" points="58.87,-50.6 59.65,-40.03 52.45,-47.81 58.87,-50.6"/>
</g>
<!-- z_functiondemoat0x108af88b0_4 -->
<g id="node3" class="node">
<title>z_functiondemoat0x108af88b0_4</title>
<g id="a_node3"><a xlink:title="demo:4">
<polygon fill="peachpuff" stroke="black" points="160,-116 106,-116 106,-76 160,-76 160,-116"/>
<text text-anchor="start" x="128.5" y="-101.8" font-family="Fira Mono, Courier, monospace" font-weight="bold" font-size="14.00">z</text>
<text text-anchor="start" x="116.5" y="-82.8" font-family="Fira Mono, Courier, monospace" font-size="9.00">z *= 2</text>
</a>
</g>
</g>
<!-- z_functiondemoat0x108af88b0_2&#45;&gt;z_functiondemoat0x108af88b0_4 -->
<g id="edge2" class="edge">
<title>z_functiondemoat0x108af88b0_2&#45;&gt;z_functiondemoat0x108af88b0_4</title>
<path fill="none" stroke="black" d="M88.45,-151.94C95.33,-143.46 103.55,-133.33 111.04,-124.08"/>
<polygon fill="black" stroke="black" points="113.81,-126.22 117.39,-116.25 108.38,-121.81 113.81,-126.22"/>
</g>
<!-- z_functiondemoat0x108af88b0_2&#45;&gt;test_functiondemoat0x108af88b0_3 -->
<g id="edge6" class="edge">
<title>z_functiondemoat0x108af88b0_2&#45;&gt;test_functiondemoat0x108af88b0_3</title>
<path fill="none" stroke="black" d="M67.78,-151.7C64.67,-126.05 63.19,-80.48 64.29,-50.5"/>
<polygon fill="black" stroke="black" points="67.8,-50.39 64.82,-40.23 60.81,-50.04 67.8,-50.39"/>
</g>
<!-- z_functiondemoat0x108af88b0_2&#45;&gt;test_functiondemoat0x108af88b0_3 -->
<!-- z_functiondemoat0x108af88b0_4&#45;&gt;z_functiondemoat0x108af88b0_4 -->
<g id="edge3" class="edge">
<title>z_functiondemoat0x108af88b0_4&#45;&gt;z_functiondemoat0x108af88b0_4</title>
<path fill="none" stroke="black" d="M160.24,-110.24C170.02,-110.54 178,-105.8 178,-96 178,-89.88 174.88,-85.73 170.16,-83.55"/>
<polygon fill="black" stroke="black" points="170.7,-80.09 160.24,-81.76 169.46,-86.98 170.7,-80.09"/>
</g>
<!-- z_functiondemoat0x108af88b0_4&#45;&gt;test_functiondemoat0x108af88b0_3 -->
<g id="edge7" class="edge">
<title>z_functiondemoat0x108af88b0_4&#45;&gt;test_functiondemoat0x108af88b0_3</title>
<path fill="none" stroke="black" d="M105.75,-77.09C96.51,-68.42 86.92,-57.83 79.45,-48.19"/>
<polygon fill="black" stroke="black" points="82.22,-46.05 73.49,-40.04 76.57,-50.18 82.22,-46.05"/>
</g>
<!-- demoreturnvalue_functiondemoat0x108af88b0_5 -->
<g id="node5" class="node">
<title>demoreturnvalue_functiondemoat0x108af88b0_5</title>
<g id="a_node5"><a xlink:title="demo:5">
<polygon fill="peachpuff" stroke="black" points="339.5,-40 146.5,-40 146.5,0 339.5,0 339.5,-40"/>
<text text-anchor="start" x="154.5" y="-25.8" font-family="Fira Mono, Courier, monospace" font-weight="bold" font-style="italic" font-size="14.00">&lt;demo() return value&gt;</text>
<text text-anchor="start" x="221" y="-6.8" font-family="Fira Mono, Courier, monospace" font-size="9.00">return z</text>
</a>
</g>
</g>
<!-- z_functiondemoat0x108af88b0_4&#45;&gt;demoreturnvalue_functiondemoat0x108af88b0_5 -->
<g id="edge5" class="edge">
<title>z_functiondemoat0x108af88b0_4&#45;&gt;demoreturnvalue_functiondemoat0x108af88b0_5</title>
<path fill="none" stroke="black" d="M155.34,-75.94C168.12,-66.78 184.48,-55.68 199.63,-45.86"/>
<polygon fill="black" stroke="black" points="201.85,-48.59 208.38,-40.25 198.07,-42.7 201.85,-48.59"/>
</g>
<!-- z_functiondemoat0x108af88b0_4&#45;&gt;demoreturnvalue_functiondemoat0x108af88b0_5 -->
<!-- test_functiondemoat0x108af88b0_3&#45;&gt;z_functiondemoat0x108af88b0_4 -->
<g id="edge4" class="edge">
<title>test_functiondemoat0x108af88b0_3&#45;&gt;z_functiondemoat0x108af88b0_4</title>
<path fill="none" stroke="grey" stroke-dasharray="5,2" d="M85.65,-40.25C93,-48.75 101.78,-58.9 109.76,-68.13"/>
<polygon fill="grey" stroke="grey" points="107.33,-70.67 116.52,-75.94 112.62,-66.09 107.33,-70.67"/>
</g>
<!-- test_functiondemoat0x108af88b0_3&#45;&gt;z_functiondemoat0x108af88b0_4 -->
</g>
</svg>
