<?xml version="1.0" encoding="UTF-8" standalone="no"?>
<!DOCTYPE svg PUBLIC "-//W3C//DTD SVG 1.1//EN"
 "http://www.w3.org/Graphics/SVG/1.1/DTD/svg11.dtd">
<!-- Generated by graphviz version 2.40.1 (20161225.0304)
 -->
<!-- Title: dependencies Pages: 1 -->
<svg width="348pt" height="276pt"
 viewBox="0.00 0.00 347.50 276.00" xmlns="http://www.w3.org/2000/svg" xmlns:xlink="http://www.w3.org/1999/xlink">
<g id="graph0" class="graph" transform="scale(1 1) rotate(0) translate(4 272)">
<title>dependencies</title>
<polygon fill="#ffffff" stroke="transparent" points="-4,4 -4,-272 343.5,-272 343.5,4 -4,4"/>
<!-- z_functiondemoat0x7fbd7fe13b70_4 -->
<g id="node1" class="node">
<title>z_functiondemoat0x7fbd7fe13b70_4</title>
<g id="a_node1"><a xlink:title="demo:4">
<polygon fill="#ffdab9" stroke="#000000" points="160,-116 106,-116 106,-76 160,-76 160,-116"/>
<text text-anchor="start" x="128.5" y="-101.8" font-family="Fira Mono, Courier, monospace" font-weight="bold" font-size="14.00" fill="#000000">z</text>
<text text-anchor="start" x="116.5" y="-82.8" font-family="Fira Mono, Courier, monospace" font-size="9.00" fill="#000000">z *= 2</text>
</a>
</g>
</g>
<!-- z_functiondemoat0x7fbd7fe13b70_4&#45;&gt;z_functiondemoat0x7fbd7fe13b70_4 -->
<g id="edge1" class="edge">
<title>z_functiondemoat0x7fbd7fe13b70_4&#45;&gt;z_functiondemoat0x7fbd7fe13b70_4</title>
<path fill="none" stroke="#000000" d="M160.2408,-110.2361C170.0239,-110.5422 178,-105.7969 178,-96 178,-89.877 174.8843,-85.7272 170.1591,-83.5506"/>
<polygon fill="#000000" stroke="#000000" points="170.7029,-80.0923 160.2408,-81.7639 169.4618,-86.9814 170.7029,-80.0923"/>
</g>
<!-- test_functiondemoat0x7fbd7fe13b70_3 -->
<g id="node3" class="node">
<title>test_functiondemoat0x7fbd7fe13b70_3</title>
<g id="a_node3"><a xlink:title="demo:3">
<polygon fill="#ffdab9" stroke="#000000" points="128.5,-40 9.5,-40 9.5,0 128.5,0 128.5,-40"/>
<text text-anchor="start" x="43.5" y="-25.8" font-family="Fira Mono, Courier, monospace" font-weight="bold" font-style="italic" font-size="14.00" fill="#000000">&lt;test&gt;</text>
<text text-anchor="start" x="17.5" y="-6.8" font-family="Fira Mono, Courier, monospace" font-size="9.00" fill="#000000">while x &lt;= z &lt;= 64:</text>
</a>
</g>
</g>
<!-- z_functiondemoat0x7fbd7fe13b70_4&#45;&gt;test_functiondemoat0x7fbd7fe13b70_3 -->
<g id="edge6" class="edge">
<title>z_functiondemoat0x7fbd7fe13b70_4&#45;&gt;test_functiondemoat0x7fbd7fe13b70_3</title>
<path fill="none" stroke="#000000" d="M105.7509,-77.6025C96.6553,-68.8363 87.2088,-58.1535 79.7908,-48.3797"/>
<polygon fill="#000000" stroke="#000000" points="82.524,-46.185 73.8539,-40.0955 76.8342,-50.2626 82.524,-46.185"/>
</g>
<!-- demoreturnvalue_functiondemoat0x7fbd7fe13b70_5 -->
<g id="node5" class="node">
<title>demoreturnvalue_functiondemoat0x7fbd7fe13b70_5</title>
<g id="a_node5"><a xlink:title="demo:5">
<polygon fill="#ffdab9" stroke="#000000" points="339.5,-40 146.5,-40 146.5,0 339.5,0 339.5,-40"/>
<text text-anchor="start" x="154.5" y="-25.8" font-family="Fira Mono, Courier, monospace" font-weight="bold" font-style="italic" font-size="14.00" fill="#000000">&lt;demo() return value&gt;</text>
<text text-anchor="start" x="221" y="-6.8" font-family="Fira Mono, Courier, monospace" font-size="9.00" fill="#000000">return z</text>
</a>
</g>
</g>
<!-- z_functiondemoat0x7fbd7fe13b70_4&#45;&gt;demoreturnvalue_functiondemoat0x7fbd7fe13b70_5 -->
<g id="edge5" class="edge">
<title>z_functiondemoat0x7fbd7fe13b70_4&#45;&gt;demoreturnvalue_functiondemoat0x7fbd7fe13b70_5</title>
<path fill="none" stroke="#000000" d="M156.1487,-75.8329C168.6617,-66.6428 184.4368,-55.6529 199.1315,-45.8637"/>
<polygon fill="#000000" stroke="#000000" points="201.205,-48.6888 207.6259,-40.2613 197.351,-42.8453 201.205,-48.6888"/>
</g>
<!-- z_functiondemoat0x7fbd7fe13b70_4&#45;&gt;demoreturnvalue_functiondemoat0x7fbd7fe13b70_5 -->
<!-- z_functiondemoat0x7fbd7fe13b70_2 -->
<g id="node2" class="node">
<title>z_functiondemoat0x7fbd7fe13b70_2</title>
<g id="a_node2"><a xlink:title="demo:2">
<polygon fill="#ffdab9" stroke="#000000" points="100,-192 46,-192 46,-152 100,-152 100,-192"/>
<text text-anchor="start" x="68.5" y="-177.8" font-family="Fira Mono, Courier, monospace" font-weight="bold" font-size="14.00" fill="#000000">z</text>
<text text-anchor="start" x="59" y="-158.8" font-family="Fira Mono, Courier, monospace" font-size="9.00" fill="#000000">z = x</text>
</a>
</g>
</g>
<!-- z_functiondemoat0x7fbd7fe13b70_2&#45;&gt;z_functiondemoat0x7fbd7fe13b70_4 -->
<g id="edge2" class="edge">
<title>z_functiondemoat0x7fbd7fe13b70_2&#45;&gt;z_functiondemoat0x7fbd7fe13b70_4</title>
<path fill="none" stroke="#000000" d="M89.0789,-151.6334C95.7231,-143.2175 103.5378,-133.3188 110.7193,-124.2223"/>
<polygon fill="#000000" stroke="#000000" points="113.6354,-126.1769 117.0848,-116.1593 108.1412,-121.8394 113.6354,-126.1769"/>
</g>
<!-- z_functiondemoat0x7fbd7fe13b70_2&#45;&gt;test_functiondemoat0x7fbd7fe13b70_3 -->
<g id="edge7" class="edge">
<title>z_functiondemoat0x7fbd7fe13b70_2&#45;&gt;test_functiondemoat0x7fbd7fe13b70_3</title>
<path fill="none" stroke="#000000" d="M67.7088,-151.8156C64.6666,-125.9232 63.2181,-80.7677 64.2653,-50.6288"/>
<polygon fill="#000000" stroke="#000000" points="67.7792,-50.4251 64.7658,-40.2679 60.7873,-50.0874 67.7792,-50.4251"/>
</g>
<!-- z_functiondemoat0x7fbd7fe13b70_2&#45;&gt;test_functiondemoat0x7fbd7fe13b70_3 -->
<!-- test_functiondemoat0x7fbd7fe13b70_3&#45;&gt;z_functiondemoat0x7fbd7fe13b70_4 -->
<g id="edge3" class="edge">
<title>test_functiondemoat0x7fbd7fe13b70_3&#45;&gt;z_functiondemoat0x7fbd7fe13b70_4</title>
<path fill="none" stroke="#c0c0c0" stroke-dasharray="5,2" d="M85.9762,-40.1593C93.1148,-48.6363 101.5437,-58.6456 109.2794,-67.8318"/>
<polygon fill="#c0c0c0" stroke="#c0c0c0" points="106.7306,-70.2387 115.8492,-75.6334 112.085,-65.7298 106.7306,-70.2387"/>
</g>
<!-- test_functiondemoat0x7fbd7fe13b70_3&#45;&gt;z_functiondemoat0x7fbd7fe13b70_4 -->
<!-- x_functiondemoat0x7fbd7fe13b70_1 -->
<g id="node4" class="node">
<title>x_functiondemoat0x7fbd7fe13b70_1</title>
<g id="a_node4"><a xlink:title="demo:1">
<polygon fill="#ffdab9" stroke="#000000" points="146,-268 0,-268 0,-228 146,-228 146,-268"/>
<text text-anchor="start" x="68.5" y="-253.8" font-family="Fira Mono, Courier, monospace" font-weight="bold" font-size="14.00" fill="#000000">x</text>
<text text-anchor="start" x="8" y="-234.8" font-family="Fira Mono, Courier, monospace" font-size="9.00" fill="#000000">def demo(x: int) &#45;&gt; int:</text>
</a>
</g>
</g>
<!-- x_functiondemoat0x7fbd7fe13b70_1&#45;&gt;z_functiondemoat0x7fbd7fe13b70_2 -->
<g id="edge4" class="edge">
<title>x_functiondemoat0x7fbd7fe13b70_1&#45;&gt;z_functiondemoat0x7fbd7fe13b70_2</title>
<path fill="none" stroke="#000000" d="M66.9426,-227.6334C66.2819,-219.8186 66.0939,-210.7253 66.3786,-202.183"/>
<polygon fill="#000000" stroke="#000000" points="69.875,-202.3453 66.9602,-192.1593 62.8867,-201.9397 69.875,-202.3453"/>
</g>
<!-- x_functiondemoat0x7fbd7fe13b70_1&#45;&gt;z_functiondemoat0x7fbd7fe13b70_2 -->
<!-- x_functiondemoat0x7fbd7fe13b70_1&#45;&gt;test_functiondemoat0x7fbd7fe13b70_3 -->
<g id="edge8" class="edge">
<title>x_functiondemoat0x7fbd7fe13b70_1&#45;&gt;test_functiondemoat0x7fbd7fe13b70_3</title>
<path fill="none" stroke="#000000" d="M56.0557,-227.8749C48.6578,-217.7868 40.8107,-204.9747 37,-192 22.627,-143.0627 40.8788,-84.3194 55.139,-49.6911"/>
<polygon fill="#000000" stroke="#000000" points="58.4951,-50.7446 59.2101,-40.1739 52.0592,-47.9915 58.4951,-50.7446"/>
</g>
</g>
</svg>
